<svg xmlns="http://www.w3.org/2000/svg" width="110" height="33" viewBox="0 0 110 33" fill="none">
    <g clip-path="url(#clip0_28409_24698)">
        <path fill-rule="evenodd" clip-rule="evenodd" d="M109.289 11.4508C109.341 11.5798 109.393 11.7068 109.444 11.8358C109.521 12.0158 109.56 12.1838 109.56 12.3388C109.56 12.5948 109.406 12.9558 109.096 13.4188L108.981 13.6118H67.997V14.3068H71.007V16.9308L71.431 17.3558C71.662 17.5358 71.778 17.8438 71.778 18.2808C71.778 18.4358 71.753 18.5378 71.701 18.5898C71.649 18.5898 71.623 18.6288 71.623 18.7058V18.8218C71.623 19.1308 71.559 19.2838 71.431 19.2838C71.354 19.2838 71.238 19.2838 71.084 19.2838C70.904 19.2838 70.299 19.2838 69.27 19.2838C68.293 19.2838 66.749 19.2838 64.639 19.2838C62.529 19.2838 59.52 19.2838 55.609 19.2838C55.48 19.3618 55.416 19.4898 55.416 19.6708C55.467 19.6708 55.532 19.7088 55.609 19.7858L55.879 20.0568L55.686 20.6358H54.143L53.95 20.4428C53.873 20.3148 53.706 19.9278 53.449 19.2848C53.192 18.6938 53.166 18.2048 53.371 17.8188C53.371 17.5098 53.526 17.3568 53.835 17.3568H53.951C54.595 17.3568 54.993 17.4468 55.148 17.6268C55.508 17.6268 55.933 17.5238 56.421 17.3188L48.934 17.2398C48.883 17.2398 48.562 17.3308 47.97 17.5108C47.456 17.6388 46.865 17.8078 46.196 18.0118C45.552 18.1928 44.934 18.3608 44.343 18.5128C43.802 18.6418 43.507 18.7448 43.455 18.8228V21.5238L34.619 22.4498V19.6718C34.156 19.6718 33.873 19.7348 33.77 19.8638C33.692 19.9918 33.486 20.1598 33.153 20.3658C32.843 20.6738 32.458 20.8798 31.995 20.9828C31.48 21.1628 30.888 21.2148 30.22 21.1368C29.552 21.0858 28.792 20.8028 27.943 20.2878C27.891 20.2878 27.839 20.3128 27.789 20.3658C27.712 20.3658 27.609 20.3658 27.48 20.3658C27.48 20.6988 27.467 21.0978 27.442 21.5618C27.391 22.0758 27.3 22.5908 27.172 23.1048C27.094 23.6188 26.94 24.1088 26.709 24.5718C26.555 24.9828 26.375 25.2398 26.169 25.3428C25.808 25.5498 25.203 25.6138 24.354 25.5358C23.505 25.4838 22.605 25.3678 21.653 25.1888C20.702 25.0598 19.826 24.9178 19.029 24.7638C18.233 24.5318 17.743 24.3658 17.563 24.2628C17.383 24.1348 17.022 23.7488 16.483 23.1038C16.097 22.7958 15.71 22.4478 15.324 22.0618C14.939 21.7278 14.695 21.5478 14.592 21.5218H9.532C9.326 22.9118 9.198 23.7338 9.147 23.9908C9.121 24.1968 9.043 24.2998 8.915 24.2998C8.839 24.4798 8.684 24.5708 8.452 24.5708C8.246 24.5708 7.808 24.4798 7.139 24.2998C6.625 24.2998 6.11 24.2998 5.597 24.2998C5.056 24.2738 4.721 24.2738 4.594 24.2998C4.362 24.2998 4.103 24.3378 3.822 24.4168C3.487 24.5188 3.089 24.5838 2.625 24.6098C2.264 24.7368 1.854 24.8278 1.389 24.8788C0.875 24.9558 0.567 25.0218 0.464 25.0718H0.193C0.116 25.0718 0.078 25.0328 0.078 24.9558C0.025 24.8548 0 24.6358 0 24.3008C0 24.0178 0 23.5298 0 22.8348C0 22.1148 0 21.1238 0 19.8628C0.128 18.6788 0.193 17.5348 0.193 16.4278C0.193 15.2448 0.193 14.3958 0.193 13.8808C0.193 13.6758 0.451 13.4568 0.965 13.2268C1.428 13.0198 2.572 12.9418 4.4 12.9938H5.403L5.48 12.9168L5.597 12.8398C5.648 12.8398 5.711 12.8008 5.79 12.7228C5.866 12.6718 5.969 12.5948 6.098 12.4918H15.283C15.489 12.5178 15.694 12.6338 15.9 12.8398C16.364 13.1478 16.711 13.4948 16.942 13.8808H27.361C27.439 13.6758 27.541 13.3538 27.67 12.9168C27.799 12.5308 27.863 12.2088 27.863 11.9528V11.7218H27.941C28.224 11.6188 28.726 11.5288 29.445 11.4518C30.139 11.4268 30.552 11.3478 30.68 11.2198C30.808 11.2198 30.938 11.1938 31.066 11.1428C31.091 11.0658 31.169 11.0008 31.297 10.9498H34.539V9.98377H33.343C33.215 9.98377 32.892 10.0358 32.379 10.1388C31.864 10.2158 31.246 10.2918 30.526 10.3698C29.858 10.4458 29.136 10.5118 28.365 10.5628C27.643 10.5628 27.014 10.5248 26.473 10.4458L26.396 10.2538V10.1388C26.319 9.41777 26.28 8.86477 26.28 8.47877C26.28 8.04177 26.28 7.69277 26.28 7.43677C26.28 7.23077 26.319 7.08977 26.396 7.01277L26.473 6.93477H26.665L27.476 6.85777C28.042 6.83177 28.66 6.79377 29.329 6.74177C30.049 6.66477 30.77 6.62677 31.49 6.62677C32.158 6.62677 32.673 6.66477 33.032 6.74177C33.495 6.74177 33.997 6.74177 34.538 6.74177C35.13 6.74177 35.746 6.74177 36.39 6.74177C36.981 6.74177 37.535 6.72877 38.049 6.70277C38.513 6.65177 38.872 6.62677 39.13 6.62677V5.97077C39.078 5.94477 39.053 5.88077 39.053 5.77777V5.16077L42.256 4.96777H42.295L42.68 6.04777C42.68 6.09977 42.641 6.13777 42.565 6.16377C42.513 6.26677 42.423 6.31777 42.294 6.31777V6.51077H47.89C48.328 6.40777 48.944 6.31777 49.743 6.23977C50.591 6.16277 51.427 6.07277 52.251 5.96977C53.099 5.89277 53.884 5.82877 54.605 5.77677C55.274 5.75077 55.697 5.80277 55.878 5.93177L56.032 6.04677L56.109 10.4458H55.878C51.196 10.4458 48.688 10.2918 48.353 9.98277V10.1378C48.173 10.0338 47.812 9.97077 47.272 9.94477C46.731 9.89277 46.114 9.90477 45.42 9.98277V10.8708H109.093V11.0248C109.148 11.1548 109.212 11.2958 109.289 11.4508ZM31.876 17.8178H29.715C29.123 17.8178 28.828 18.0878 28.828 18.6288C28.828 19.2728 29.123 19.5938 29.715 19.5938H31.876C32.467 19.5938 32.764 19.2728 32.764 18.6288C32.765 18.0878 32.468 17.8178 31.876 17.8178ZM19.257 21.5618C19.617 22.3088 20.183 22.7198 20.955 22.7968C21.598 22.9768 22.358 22.8748 23.232 22.4878C23.67 22.2558 24.145 21.8438 24.66 21.2538C24.839 20.9198 24.968 20.5328 25.046 20.0958C25.123 19.5808 25.072 19.1818 24.891 18.8988C24.763 18.4108 24.287 18.0878 23.464 17.9338C22.409 17.7278 21.56 17.7668 20.918 18.0498C20.48 18.2808 20.172 18.4738 19.991 18.6288C19.785 18.7828 19.592 19.0398 19.412 19.4008C19 20.0698 18.948 20.7888 19.257 21.5618Z" fill="#9FB1C9"/>
    </g>
    <defs>
        <clipPath id="clip0_28409_24698">
            <rect width="109.5" height="32" fill="white" transform="translate(0 0.133789)"/>
        </clipPath>
    </defs>
</svg>