<svg width="89" height="33" viewBox="0 0 89 33" fill="none" xmlns="http://www.w3.org/2000/svg">
<g clip-path="url(#clip0_28409_24636)">
<path fill-rule="evenodd" clip-rule="evenodd" d="M86.469 4.56694V8.59394L87.886 8.74294C87.985 8.94194 88.072 9.14194 88.147 9.33994C88.246 9.49094 88.309 9.63794 88.334 9.78794C88.334 9.91094 88.271 10.0359 88.147 10.1619C87.998 10.3099 87.786 10.3849 87.512 10.3849C87.387 10.3849 87.251 10.3469 87.102 10.2739H86.654L86.02 11.3919L84.826 10.9069H74.791L74.27 11.5419L73.672 11.0939H66.51L66.398 11.7289H55.132L53.79 12.4369C53.467 12.6359 53.143 12.8089 52.82 12.9589C52.472 13.0579 52.236 13.1079 52.111 13.1079C51.862 13.1079 51.626 13.0709 51.403 12.9949C51.253 12.9719 51.153 12.9099 51.105 12.8079L50.582 12.4739H45.472C45.472 13.7409 45.758 15.0469 46.33 16.3919C46.827 17.5589 47.611 18.8519 48.68 20.2689C49.775 21.7129 51.341 23.1549 53.38 24.5969C53.331 24.5969 53.107 24.8839 52.71 25.4549C52.386 26.0519 51.975 26.6989 51.479 27.3949C51.031 28.1899 50.471 29.0989 49.8 30.1179C48.307 29.0979 46.89 27.8809 45.546 26.4619C44.378 25.2429 43.171 23.7129 41.928 21.8739C40.685 20.0819 39.654 17.9439 38.832 15.4569C38.733 15.3579 38.596 15.3709 38.421 15.4949C38.296 15.5699 38.197 15.6569 38.122 15.7559L37.004 15.5699C36.432 15.8929 35.835 16.1169 35.213 16.2409C34.715 16.3919 34.13 16.4269 33.46 16.3529C32.764 16.2779 32.092 15.9789 31.445 15.4569C31.395 15.4569 31.16 15.6449 30.736 16.0169C30.314 16.3919 29.854 16.8759 29.357 17.4709C28.836 18.0939 28.35 18.7909 27.902 19.5609C27.429 20.2809 27.105 21.0149 26.932 21.7619C26.932 21.8119 26.708 21.9099 26.261 22.0589C25.839 22.2329 25.34 22.3459 24.768 22.3939C24.222 22.4199 23.699 22.2959 23.203 22.0199C22.729 21.7239 22.432 21.1259 22.306 20.2309C22.331 20.1309 22.518 19.7339 22.867 19.0379C23.165 18.3909 23.526 17.7079 23.95 16.9849C24.347 16.2389 24.721 15.5549 25.069 14.9339C25.442 14.3369 25.666 14.0379 25.74 14.0379C25.666 14.0379 25.454 13.8909 25.107 13.5909C24.808 13.2929 24.484 13.1799 24.135 13.2559C24.062 13.2809 23.813 13.3669 23.39 13.5159C22.942 13.6409 22.383 13.8279 21.711 14.0769C21.038 14.3259 20.294 14.5989 19.473 14.8969C18.626 15.1959 17.782 15.4939 16.935 15.7929C14.946 16.5139 12.72 17.3349 10.258 18.2549L1.41799 21.1649L0.666992 10.6099C1.06499 10.3109 1.52499 10.0869 2.04699 9.93794C2.52099 9.76294 3.06799 9.62694 3.68899 9.52794C4.26199 9.40294 4.89599 9.41494 5.59199 9.56394C5.59199 9.61394 6.13899 9.60094 7.23199 9.52694C8.32699 9.40194 9.54499 9.30294 10.889 9.22894L16.298 8.89294C16.646 8.99394 16.994 9.10394 17.342 9.22894C17.964 9.45194 18.486 9.56394 18.908 9.56394C19.057 9.56394 19.369 9.49094 19.842 9.33994C20.363 9.23994 20.898 9.10394 21.446 8.92994C22.067 8.77994 22.763 8.56994 23.534 8.29694L26.929 5.38594L27.227 5.68494H47.968C47.968 5.63594 48.044 5.57394 48.193 5.49994C48.267 5.42394 48.404 5.36094 48.603 5.31194C48.801 5.26294 49.099 5.23594 49.497 5.23594L65.464 5.38494C65.761 5.45994 66.062 5.55994 66.36 5.68394C66.585 5.75894 66.833 5.83294 67.106 5.90794C67.355 6.03294 67.579 6.10694 67.778 6.13194H74.455C74.803 6.57994 75.14 6.98994 75.462 7.36394C75.735 7.66194 76.035 7.97294 76.357 8.29694C76.63 8.56994 76.867 8.71994 77.065 8.74294H82.922L83.37 8.59394C83.668 8.07294 83.88 7.59994 84.004 7.17694C84.178 6.82794 84.34 6.46794 84.489 6.09494C84.613 5.71994 84.725 5.48594 84.824 5.38494C84.899 5.03694 84.936 4.85094 84.936 4.82494V4.56494H86.469V4.56694ZM35.473 12.9229L33.458 12.9599C33.06 12.9349 32.712 13.0449 32.414 13.2949C32.166 13.5689 32.04 13.9049 32.04 14.3029C32.04 14.6249 32.166 14.9119 32.414 15.1599C32.712 15.4089 33.06 15.5349 33.458 15.5349H35.473C35.846 15.5349 36.144 15.4089 36.369 15.1599C36.593 14.9119 36.703 14.6249 36.703 14.3029C36.703 13.9049 36.592 13.5689 36.369 13.2949C36.144 13.0449 35.846 12.9229 35.473 12.9229Z" fill="#9FB1C9"/>
</g>
<defs>
<clipPath id="clip0_28409_24636">
<rect width="88.5" height="32" fill="white" transform="translate(0 0.133789)"/>
</clipPath>
</defs>
</svg>
