<svg width="77" height="33" viewBox="0 0 77 33" fill="none" xmlns="http://www.w3.org/2000/svg">
<g clip-path="url(#clip0_28409_24674)">
<path fill-rule="evenodd" clip-rule="evenodd" d="M37.5715 14.3868C37.4955 14.4378 37.4215 14.4988 37.3455 14.5748C37.1715 14.7748 37.0835 15.0248 37.0835 15.3248C37.0835 15.4508 37.1075 15.6998 37.1575 16.0748C37.1825 16.1978 37.1325 16.2738 37.0085 16.2998C36.8595 16.3508 36.6095 16.3618 36.2585 16.3368L35.7715 16.2998C35.7475 16.5988 35.6845 16.7488 35.5835 16.7488H34.6835C34.5595 16.7488 34.4725 16.7748 34.4235 16.8248C34.3465 16.9238 34.2735 16.9988 34.1965 17.0508C34.0225 17.2248 33.4095 18.3488 32.3615 20.4228C32.1095 20.8978 32.0845 21.3108 32.2855 21.6618C32.4355 21.9358 32.6355 22.1108 32.8865 22.1848C33.3865 22.2598 34.2365 22.2598 35.4345 22.1848C36.3595 22.0858 37.0725 21.8488 37.5715 21.4738C37.9205 21.1738 39.1455 19.2998 41.2445 15.8498C41.3695 15.6238 41.2075 15.1378 40.7565 14.3878L37.5715 14.3868ZM72.7705 8.38976C72.8455 8.41476 72.9955 8.42676 73.2205 8.42676C73.3695 8.42676 73.5455 8.35176 73.7445 8.20176H75.5815L75.7695 8.53776C75.8705 8.81376 75.9195 9.10076 75.9195 9.40076C75.9195 9.72576 75.8705 10.0138 75.7695 10.2638C75.6705 10.4888 75.5815 10.6008 75.5075 10.6008H73.8575C73.8085 10.5768 73.6955 10.5388 73.5195 10.4888C73.4455 10.4628 73.3325 10.4508 73.1835 10.4508C73.0335 10.4508 72.8835 10.4748 72.7335 10.5268L72.5085 10.6018H71.4605L71.3095 10.4898H69.6595L69.5095 10.3398H68.7215C68.6715 10.5158 68.5585 10.6028 68.3855 10.6028H66.8475C66.7475 10.6028 66.6475 10.5658 66.5475 10.4908L66.4345 10.4158L55.6025 10.6778L55.0005 11.3148H54.7395L54.5515 11.0898H54.2895L54.1395 11.3148H51.8905L51.5895 13.6028C51.5655 13.8528 51.4015 14.0278 51.1035 14.1258L51.3645 14.3888L51.9645 14.4638C52.3645 14.5398 52.5515 14.7018 52.5275 14.9518C52.3765 15.7758 52.3395 16.3888 52.4135 16.7888C52.4645 17.0378 52.4775 17.6128 52.4525 18.5128C52.4525 19.5618 52.4525 20.2118 52.4525 20.4618C52.5015 21.2368 52.7885 22.0618 53.3135 22.9368C53.4135 23.1118 53.2385 23.2868 52.7885 23.4628C52.3385 23.6368 51.8635 23.7238 51.3645 23.7238C50.9405 23.7238 50.3905 23.6238 49.7155 23.4248L48.7785 23.1618C48.7525 22.0618 48.8145 21.0498 48.9655 20.1248C49.0165 19.7758 49.1905 19.1628 49.4915 18.2888C49.6905 17.6898 49.7535 17.2528 49.6785 16.9758C49.6285 16.6758 49.5405 16.3638 49.4175 16.0388C49.2665 15.7128 49.1665 15.4878 49.1165 15.3648C49.0425 15.1648 49.2285 14.9388 49.6785 14.6878C49.9035 14.5638 50.1275 14.4508 50.3535 14.3518C49.4535 14.3018 48.5175 14.2518 47.5405 14.2028C45.6165 14.1518 44.5305 14.2028 44.2805 14.3518C43.5545 14.8268 42.6055 15.8898 41.4325 17.5378C41.1575 17.8878 40.3575 19.0878 39.0335 21.1378C38.4845 21.9368 37.9595 22.4618 37.4585 22.7118C37.0845 22.8878 36.3725 23.0108 35.3215 23.0868C34.4725 23.1358 33.2355 23.1988 31.6115 23.2738C30.2115 23.2988 29.3375 23.3118 28.9865 23.3118C28.7375 23.3118 28.5735 23.2368 28.4985 23.0868C28.4245 22.9368 28.4005 22.6748 28.4245 22.2998C28.4745 21.2248 28.6125 20.4508 28.8365 19.9748C28.9365 19.7488 29.1745 19.3128 29.5485 18.6628C29.9245 17.9878 30.1865 17.5878 30.3365 17.4628C30.4115 17.3638 30.6615 17.1388 31.0865 16.7888C31.4615 16.3378 31.6495 15.7888 31.6495 15.1388C31.6495 14.4148 31.3365 13.9898 30.7115 13.8638C30.4385 13.8158 29.7375 13.8398 28.6135 13.9388C27.5395 13.9888 26.7765 14.0408 26.3275 14.0888C25.5775 14.1398 25.1535 14.2638 25.0535 14.4638C24.8535 14.7638 24.5035 15.0028 24.0025 15.1758L23.9275 16.5268C24.0525 17.9008 24.4405 19.7128 25.0905 21.9618C26.0905 25.5108 27.0035 27.8218 27.8275 28.8958C28.1765 29.3458 28.1385 29.6828 27.7145 29.9088C27.4645 30.0088 26.5525 30.3328 24.9775 30.8828C23.3785 31.4568 22.4545 31.7828 22.2045 31.8578C21.9045 31.9328 21.7795 31.4818 21.8295 30.5068C21.6055 30.0828 21.3185 29.4708 20.9695 28.6708C20.3445 27.0208 19.7935 25.2338 19.3195 23.3108C18.8695 21.3858 18.5445 19.5368 18.3445 17.7628L18.1955 15.7008C17.6455 15.5018 17.2715 15.4878 17.0695 15.6628L15.3835 17.0138C15.3095 17.0878 15.1835 17.0138 15.0085 16.7888C14.8335 16.5888 14.7215 16.4998 14.6715 16.5268C14.0715 16.7508 13.1715 17.2638 11.9725 18.0638C10.5975 19.0388 9.83554 19.7878 9.68454 20.3128L9.41954 21.2088L9.83254 21.6598C10.1065 21.9828 10.2455 22.1978 10.2455 22.2968C10.2455 22.6208 10.1445 22.8728 9.94454 23.0468C9.77054 23.2218 9.51954 23.3088 9.19554 23.3088H4.80954C4.53354 23.3088 4.25954 23.1958 3.98554 22.9718C3.66054 22.6718 3.41054 22.2718 3.23554 21.7718C3.03554 21.1228 2.64854 19.5098 2.07254 16.9368C1.49854 14.2378 1.19754 12.5888 1.17454 11.9878C1.14954 11.3628 1.18654 10.9138 1.28654 10.6388C1.36154 10.4398 1.52454 10.2018 1.77454 9.92776C2.02454 9.65276 2.42354 9.32776 2.97354 8.95276C3.57454 8.55176 4.03654 8.35276 4.35954 8.35276L27.9385 7.86576V7.60176L28.5395 7.15176C28.9635 6.85176 29.2645 6.65176 29.4385 6.55276C29.7125 6.42776 30.0625 6.36476 30.4885 6.36476L31.9115 6.40176V4.49176H31.3495C31.3745 4.76576 31.1865 4.90276 30.7875 4.90276C30.5615 4.90276 30.4125 4.84076 30.3375 4.71576L30.2625 4.49176H28.9505L28.7625 4.67876H28.3135C28.0875 4.35376 27.9765 3.80476 27.9765 3.02976C27.9765 2.27876 28.0765 1.86776 28.2755 1.79176H28.6125L28.8375 1.94176L30.1125 1.90476L30.1865 1.64176C30.2615 1.49276 30.4365 1.41676 30.7105 1.41676C31.0375 1.41676 31.1975 1.56676 31.1975 1.86776L31.5725 1.82876V1.19276L32.2845 1.07976C32.5095 1.07976 32.7725 1.10476 33.0725 1.15576V1.60376L36.0335 1.19276C38.0825 0.918762 39.2705 0.780762 39.5935 0.780762H40.7565L41.2805 1.19276H41.8065V0.966762H42.2185V1.11776H42.9685V4.79176L42.2185 4.82876V4.97976H41.8435V4.75276H39.9695L40.2695 5.20276H40.7565C41.1065 5.25376 41.2935 5.34076 41.3185 5.46376L41.4685 6.17676H42.7055V6.02676H43.2685V6.17676H44.5435V6.02676H45.1055V6.17676H46.3795V6.02676H46.9055V6.17676H48.2165V6.02676H48.7415V6.17676H50.0535V6.02676H50.5775V6.17676H51.5895L54.2515 7.48876V8.35176L54.9265 8.72576H66.5475L66.7355 8.61376C66.8605 8.48876 66.9595 8.42576 67.0365 8.42576H68.4225L68.7595 8.72476H69.4335L69.7705 8.53676C70.0485 8.51276 70.5345 8.53676 71.2335 8.61276L71.2715 8.46476C71.3465 8.36376 71.4475 8.31376 71.5715 8.31376H72.5085C72.6075 8.31476 72.6955 8.33976 72.7705 8.38976Z" fill="#9FB1C9"/>
</g>
<defs>
<clipPath id="clip0_28409_24674">
<rect width="75.833" height="32" fill="white" transform="translate(0.5 0.133789)"/>
</clipPath>
</defs>
</svg>
