<svg width="90" height="33" viewBox="0 0 90 33" fill="none" xmlns="http://www.w3.org/2000/svg">
<path fill-rule="evenodd" clip-rule="evenodd" d="M81.771 2.20703C82.078 2.17903 82.396 2.16603 82.731 2.16603C82.76 2.13903 82.774 2.11103 82.774 2.08203C82.829 2.08203 82.871 2.08203 82.898 2.08203C83.093 2.08203 83.301 2.08203 83.524 2.08203C83.552 2.08203 83.592 2.09703 83.65 2.12403L83.69 2.16603C83.69 2.19403 83.705 2.20703 83.733 2.20703C83.761 2.20703 83.802 2.20703 83.858 2.20703C83.886 2.23503 83.927 2.24903 83.983 2.24903C84.011 2.27603 84.038 2.30603 84.066 2.33203C84.096 2.36003 84.108 2.38803 84.108 2.41603C84.108 2.44403 84.123 2.47103 84.15 2.49903C84.15 2.52703 84.15 2.55603 84.15 2.58303C84.15 2.61103 84.15 2.63903 84.15 2.66603V2.70803C84.15 2.73803 84.15 2.76403 84.15 2.79103C84.15 2.81803 84.164 2.84703 84.191 2.87403C84.22 2.90203 84.233 2.93003 84.233 2.95703C84.26 2.98503 84.275 3.01203 84.275 3.04203C84.275 3.06903 84.275 3.09803 84.275 3.12503C84.275 3.15303 84.275 3.18003 84.275 3.20803C84.275 3.23703 84.275 3.26503 84.275 3.29203V3.33403C84.275 3.36203 84.275 3.38903 84.275 3.41703C84.275 3.44403 84.275 3.47203 84.275 3.50003C84.275 3.52803 84.275 3.55603 84.275 3.58503C84.275 3.61203 84.275 3.64103 84.275 3.66803C84.275 3.69503 84.275 3.72303 84.275 3.75103C84.275 3.77803 84.275 3.80603 84.275 3.83403V3.91703C84.275 3.94503 84.288 3.95903 84.317 3.95903C84.317 3.98603 84.331 4.01503 84.359 4.04203C84.359 4.07003 84.359 4.09803 84.359 4.12503C84.331 4.15303 84.317 4.18103 84.317 4.20903C84.317 4.23703 84.317 4.26403 84.317 4.29303C84.288 4.31903 84.26 4.33303 84.234 4.33303C84.234 4.36103 84.234 4.38903 84.234 4.41703C84.221 4.43003 84.206 4.44503 84.192 4.45803V4.50403C84.192 4.53203 84.192 4.56103 84.192 4.58703C84.192 4.61603 84.192 4.64403 84.192 4.67103C84.192 4.69803 84.192 4.72703 84.192 4.75403C84.192 4.78103 84.192 4.81003 84.192 4.83803C84.192 4.86503 84.192 4.89303 84.192 4.92103V4.96203C84.192 4.99103 84.192 5.01903 84.192 5.04603C84.192 5.07303 84.192 5.10103 84.192 5.13003C84.192 5.15603 84.192 5.18503 84.192 5.21303C84.192 5.24003 84.192 5.26803 84.192 5.29603C84.192 5.32403 84.192 5.35203 84.192 5.38003C84.192 5.40803 84.192 5.43603 84.192 5.46303L84.234 5.50503C84.234 5.53203 84.248 5.54603 84.276 5.54603C84.304 5.57503 84.332 5.60403 84.359 5.63003C84.359 5.65903 84.359 5.68503 84.359 5.71303C84.359 5.74103 84.359 5.77003 84.359 5.79703C84.359 5.82403 84.359 5.85403 84.359 5.88003C84.359 5.90803 84.359 5.93603 84.359 5.96403C84.331 5.99203 84.317 6.02003 84.317 6.04803C84.317 6.07603 84.303 6.10203 84.275 6.13103V6.17303C84.275 6.20003 84.275 6.22903 84.275 6.25603C84.275 6.28403 84.275 6.31203 84.275 6.33903C84.275 6.36803 84.275 6.39703 84.275 6.42303C84.275 6.45103 84.275 6.47903 84.275 6.50603C84.275 6.53503 84.275 6.56203 84.275 6.58903C84.275 6.61803 84.275 6.64503 84.275 6.67203C84.275 6.70103 84.275 6.72903 84.275 6.75603V6.79703C84.275 6.82603 84.275 6.85203 84.275 6.88003C84.275 6.91003 84.275 6.93803 84.275 6.96403C84.275 6.99303 84.275 7.02103 84.275 7.04803C84.275 7.07403 84.275 7.10203 84.275 7.13103C84.275 7.15803 84.275 7.18603 84.275 7.21503C84.275 7.24203 84.275 7.27003 84.275 7.29603C84.275 7.32603 84.275 7.35303 84.275 7.38003V7.42203C84.275 7.44903 84.275 7.47703 84.275 7.50503C84.275 7.53303 84.275 7.56103 84.275 7.58803C84.275 7.61503 84.275 7.64303 84.275 7.67103C84.275 7.70003 84.275 7.72803 84.275 7.75503C84.275 7.78203 84.275 7.81103 84.275 7.83803C84.275 7.86603 84.275 7.89503 84.275 7.92203C84.275 7.95103 84.275 7.97803 84.275 8.00503V8.05403C84.275 8.08203 84.275 8.11003 84.275 8.13703C84.275 8.16403 84.275 8.19303 84.275 8.22003C84.275 8.24703 84.275 8.27603 84.275 8.30303C84.275 8.33003 84.275 8.35903 84.275 8.38603C84.275 8.41303 84.275 8.44203 84.275 8.47103C84.275 8.49703 84.275 8.52503 84.275 8.55203C84.275 8.58103 84.275 8.60903 84.275 8.63603V8.67803C85.834 8.67803 87.407 8.67803 88.993 8.67803C89.051 8.70503 89.105 8.73403 89.161 8.76103L89.202 8.80303C89.23 8.80303 89.259 8.80303 89.286 8.80303V8.76403C89.341 8.79203 89.396 8.82003 89.453 8.84703C89.453 8.87603 89.467 8.89003 89.495 8.89003C89.523 8.91803 89.551 8.94603 89.578 8.97303C89.578 9.00203 89.578 9.02903 89.578 9.05603C89.578 9.08303 89.578 9.11203 89.578 9.13903C89.578 9.16603 89.578 9.19603 89.578 9.22203C89.578 9.25003 89.578 9.27803 89.578 9.30503C89.578 9.33203 89.578 9.36103 89.578 9.38803C89.578 9.41503 89.578 9.44403 89.578 9.47103V9.51303C89.578 9.54003 89.578 9.56703 89.578 9.59603C89.578 9.62403 89.578 9.65203 89.578 9.68003C89.578 9.70803 89.578 9.73503 89.578 9.76303C89.578 9.79003 89.578 9.81903 89.578 9.84703C89.578 9.87403 89.578 9.90203 89.578 9.93003C89.578 9.95803 89.578 9.98603 89.578 10.013C89.578 10.042 89.578 10.071 89.578 10.098V10.14C89.578 10.167 89.578 10.195 89.578 10.223C89.578 10.251 89.578 10.281 89.578 10.306C89.578 10.336 89.578 10.364 89.578 10.39C89.578 10.418 89.578 10.448 89.578 10.473C89.578 10.501 89.578 10.529 89.578 10.557C89.578 10.585 89.578 10.612 89.578 10.641C89.578 10.669 89.578 10.695 89.578 10.724V10.765C89.578 10.793 89.578 10.821 89.578 10.848C89.578 10.877 89.578 10.904 89.578 10.931C89.578 10.958 89.578 10.987 89.578 11.015C89.578 11.042 89.578 11.071 89.578 11.099C89.578 11.125 89.578 11.153 89.578 11.181C89.578 11.21 89.578 11.238 89.578 11.265C89.578 11.292 89.578 11.322 89.578 11.347V11.392C89.578 11.42 89.578 11.448 89.578 11.475C89.578 11.502 89.578 11.53 89.578 11.557C89.578 11.585 89.578 11.615 89.578 11.642C89.578 11.668 89.578 11.697 89.578 11.725C89.578 11.753 89.578 11.78 89.578 11.809C89.578 11.837 89.578 11.863 89.578 11.892C89.55 11.921 89.535 11.948 89.535 11.976L89.494 12.018C89.494 12.045 89.494 12.074 89.494 12.1C89.494 12.13 89.494 12.156 89.494 12.184C89.494 12.212 89.479 12.24 89.452 12.267C89.452 12.295 89.452 12.325 89.452 12.352C89.423 12.38 89.395 12.394 89.368 12.394C89.368 12.422 89.355 12.436 89.327 12.436C89.271 12.436 89.228 12.436 89.201 12.436C87.832 12.436 86.466 12.436 85.109 12.436C85.051 12.437 85.009 12.452 84.984 12.477C84.928 12.477 84.874 12.477 84.819 12.477C84.785 12.493 84.758 12.506 84.734 12.519C84.753 12.527 84.78 12.542 84.819 12.561V12.519C84.874 12.547 84.928 12.575 84.984 12.602C85.012 12.63 85.039 12.643 85.067 12.643C85.067 12.672 85.081 12.7 85.11 12.728C85.11 12.756 85.11 12.784 85.11 12.81C85.138 12.838 85.152 12.867 85.152 12.894C85.152 12.923 85.167 12.951 85.194 12.978C85.194 13.006 85.194 13.034 85.194 13.061C85.194 13.09 85.194 13.117 85.194 13.145C85.194 13.171 85.194 13.201 85.194 13.228V13.27C85.194 13.298 85.194 13.326 85.194 13.353C85.194 13.382 85.194 13.41 85.194 13.437C85.194 13.464 85.194 13.494 85.194 13.52C85.194 13.546 85.179 13.576 85.152 13.603C85.152 13.632 85.138 13.66 85.11 13.688L85.068 13.734V13.775C85.068 13.803 85.082 13.83 85.111 13.859L85.068 13.942C85.095 13.942 85.139 13.956 85.195 13.984C85.222 14.012 85.25 14.039 85.277 14.067C85.277 14.095 85.292 14.109 85.319 14.109C85.319 14.137 85.319 14.164 85.319 14.192C85.319 14.221 85.319 14.249 85.319 14.276C85.319 14.303 85.319 14.332 85.319 14.36C85.347 14.36 85.374 14.373 85.402 14.401C85.43 14.428 85.459 14.457 85.485 14.484C85.485 14.512 85.498 14.526 85.527 14.526C85.527 14.554 85.527 14.581 85.527 14.609C85.527 14.637 85.527 14.665 85.527 14.692C85.527 14.719 85.527 14.748 85.527 14.775C85.527 14.802 85.527 14.832 85.527 14.859C85.527 14.886 85.527 14.914 85.527 14.942C85.498 14.969 85.485 14.999 85.485 15.026C85.485 15.053 85.471 15.082 85.443 15.109C85.443 15.137 85.429 15.151 85.401 15.151C85.401 15.177 85.401 15.207 85.401 15.234C85.401 15.263 85.401 15.291 85.401 15.32C85.401 15.346 85.401 15.376 85.401 15.402C85.401 15.43 85.401 15.458 85.401 15.486C85.401 15.514 85.401 15.541 85.401 15.569C85.401 15.598 85.401 15.625 85.401 15.652C85.401 15.68 85.401 15.708 85.401 15.735V15.777C85.401 15.805 85.401 15.832 85.401 15.86C85.401 15.888 85.401 15.915 85.401 15.943C85.401 15.971 85.401 16 85.401 16.026C85.401 16.054 85.401 16.083 85.401 16.109C85.401 16.137 85.401 16.166 85.401 16.193C85.401 16.22 85.401 16.249 85.401 16.276C85.401 16.304 85.401 16.333 85.401 16.36V16.402C85.401 16.428 85.401 16.457 85.401 16.485C85.401 16.513 85.401 16.542 85.401 16.569C85.401 16.595 85.401 16.625 85.401 16.652C85.401 16.68 85.401 16.707 85.401 16.735C85.401 16.764 85.401 16.792 85.401 16.82C85.401 16.848 85.401 16.875 85.401 16.903C85.401 16.93 85.401 16.958 85.401 16.987V17.028C85.401 17.056 85.401 17.083 85.401 17.111C85.401 17.14 85.401 17.168 85.401 17.195C85.401 17.222 85.401 17.251 85.401 17.278C85.401 17.307 85.401 17.336 85.401 17.363C85.401 17.39 85.401 17.418 85.401 17.446C85.401 17.474 85.401 17.501 85.401 17.529C85.401 17.557 85.401 17.585 85.401 17.612V17.654C85.401 17.681 85.401 17.71 85.401 17.736C85.401 17.765 85.401 17.793 85.401 17.82C85.401 17.848 85.401 17.876 85.401 17.904C85.401 17.932 85.401 17.96 85.401 17.987C85.401 18.014 85.401 18.042 85.401 18.07C85.401 18.097 85.401 18.127 85.401 18.154C85.401 18.181 85.401 18.21 85.401 18.237V18.279C85.401 18.308 85.401 18.335 85.401 18.362C85.401 18.392 85.401 18.418 85.401 18.445C85.401 18.472 85.401 18.502 85.401 18.528C85.401 18.556 85.401 18.586 85.401 18.613C85.401 18.638 85.401 18.667 85.401 18.695C85.401 18.723 85.401 18.751 85.401 18.778C85.401 18.805 85.401 18.834 85.401 18.861V18.903C85.401 18.931 85.401 18.959 85.401 18.986C85.401 19.015 85.401 19.043 85.401 19.07C85.401 19.097 85.401 19.126 85.401 19.153C85.401 19.18 85.401 19.208 85.401 19.236C85.401 19.264 85.401 19.292 85.401 19.319C85.401 19.346 85.401 19.375 85.401 19.402C85.401 19.429 85.401 19.459 85.401 19.486V19.527C85.401 19.554 85.401 19.582 85.401 19.61C85.401 19.638 85.401 19.666 85.401 19.694C85.401 19.722 85.401 19.751 85.401 19.778C85.401 19.804 85.388 19.832 85.361 19.861C85.361 19.889 85.345 19.917 85.318 19.945L85.235 20.027C85.179 20.027 85.138 20.027 85.11 20.027H85.067V20.07C85.039 20.097 85.012 20.111 84.984 20.111C84.984 20.138 84.971 20.152 84.942 20.152C84.885 20.152 84.843 20.152 84.818 20.152C84.176 20.152 83.549 20.152 82.937 20.152C82.88 20.152 82.84 20.152 82.812 20.152C82.728 20.152 82.659 20.152 82.603 20.152C82.548 20.152 82.478 20.138 82.393 20.111C82.367 20.082 82.352 20.055 82.352 20.027C82.325 20.001 82.297 19.973 82.269 19.945V19.903C82.269 19.874 82.269 19.847 82.269 19.818C82.24 19.791 82.212 19.763 82.185 19.735V19.693C82.185 19.664 82.185 19.636 82.185 19.609C82.185 19.582 82.185 19.553 82.185 19.526C82.185 19.498 82.185 19.47 82.185 19.442C82.185 19.414 82.185 19.386 82.185 19.359V19.318C73.164 19.318 64.144 19.318 55.122 19.318C55.094 19.346 55.068 19.374 55.04 19.401C55.04 19.429 55.04 19.458 55.04 19.485C55.04 19.512 55.04 19.54 55.04 19.568C55.04 19.595 55.04 19.623 55.04 19.651C55.068 19.68 55.081 19.707 55.081 19.734C55.108 19.762 55.122 19.79 55.122 19.817C55.122 19.847 55.122 19.874 55.122 19.902V19.944C55.094 19.972 55.068 20 55.04 20.026C55.015 20.068 55 20.094 55 20.123V20.164C54.974 20.164 54.946 20.178 54.917 20.206L54.876 20.249C54.82 20.249 54.778 20.249 54.751 20.249C54.416 20.249 54.094 20.249 53.789 20.249C53.732 20.249 53.663 20.233 53.579 20.206C53.552 20.178 53.537 20.15 53.537 20.123C53.509 20.094 53.483 20.067 53.454 20.039C53.454 20.013 53.454 19.985 53.454 19.957V19.915C53.454 19.942 53.439 19.957 53.413 19.957C53.356 19.957 53.314 19.957 53.288 19.957C53.231 19.957 53.175 19.942 53.119 19.915C53.091 19.886 53.063 19.859 53.036 19.83C53.009 19.803 52.98 19.775 52.954 19.747C52.924 19.747 52.898 19.733 52.87 19.705C52.87 19.676 52.857 19.648 52.827 19.621C52.827 19.593 52.827 19.565 52.827 19.538C52.827 19.51 52.827 19.482 52.827 19.454C52.827 19.426 52.827 19.398 52.827 19.371C52.827 19.344 52.827 19.316 52.827 19.288C52.827 19.259 52.827 19.231 52.827 19.204C52.827 19.177 52.827 19.148 52.827 19.121V19.08C52.827 19.052 52.827 19.024 52.827 18.996C52.827 18.969 52.827 18.941 52.827 18.913C52.827 18.885 52.827 18.856 52.827 18.83C52.827 18.802 52.827 18.774 52.827 18.747C52.827 18.72 52.827 18.691 52.827 18.663C52.827 18.635 52.827 18.608 52.827 18.58C52.827 18.552 52.827 18.524 52.827 18.497V18.455C52.827 18.427 52.827 18.401 52.827 18.372C52.827 18.344 52.827 18.317 52.827 18.289C52.827 18.261 52.827 18.233 52.827 18.206V18.165C52.826 18.136 52.813 18.108 52.785 18.081C52.785 18.053 52.771 18.026 52.744 17.998C52.744 17.97 52.729 17.942 52.702 17.915C52.675 17.915 52.647 17.9 52.619 17.873C52.619 17.845 52.619 17.819 52.619 17.79C52.591 17.762 52.577 17.734 52.577 17.707C52.577 17.678 52.562 17.651 52.537 17.624C52.537 17.596 52.522 17.568 52.493 17.541C52.465 17.512 52.452 17.485 52.452 17.458C52.424 17.43 52.409 17.402 52.409 17.375C52.382 17.347 52.367 17.318 52.367 17.29L52.327 17.249C52.327 17.222 52.327 17.193 52.327 17.166V17.123C52.269 17.095 52.229 17.068 52.199 17.04C52.144 17.013 52.102 16.984 52.074 16.957C52.046 16.93 52.005 16.915 51.951 16.915C51.921 16.942 51.907 16.97 51.907 16.999C51.878 16.999 51.866 17.013 51.866 17.04H51.823C51.823 17.068 51.809 17.095 51.781 17.123C51.781 17.152 51.781 17.18 51.781 17.207C51.781 17.234 51.781 17.263 51.781 17.29C51.781 17.319 51.781 17.348 51.781 17.375C51.781 17.402 51.781 17.43 51.781 17.458C51.781 17.486 51.781 17.513 51.781 17.541C51.781 17.569 51.781 17.597 51.781 17.624V17.666C51.781 17.693 51.781 17.722 51.781 17.748C51.781 17.777 51.781 17.805 51.781 17.832C51.781 17.86 51.781 17.888 51.781 17.916C51.781 17.944 51.781 17.972 51.781 17.999C51.781 18.026 51.781 18.054 51.781 18.082C51.781 18.109 51.781 18.139 51.781 18.166C51.781 18.193 51.781 18.222 51.781 18.249V18.291C51.781 18.32 51.781 18.347 51.781 18.374C51.781 18.404 51.781 18.43 51.781 18.457C51.781 18.484 51.781 18.514 51.781 18.54C51.781 18.568 51.781 18.598 51.781 18.625C51.781 18.65 51.781 18.679 51.781 18.707C51.781 18.735 51.781 18.763 51.781 18.79C51.753 18.818 51.739 18.846 51.739 18.873L51.697 18.915C51.669 18.943 51.655 18.971 51.655 18.998C51.641 19.012 51.627 19.027 51.613 19.04C51.613 19.068 51.613 19.096 51.613 19.123V19.165C51.613 19.193 51.613 19.22 51.613 19.248C51.613 19.276 51.613 19.304 51.613 19.331C51.613 19.358 51.613 19.387 51.613 19.414C51.613 19.441 51.613 19.471 51.613 19.498C51.613 19.525 51.613 19.553 51.613 19.581C51.584 19.608 51.569 19.636 51.569 19.664C51.543 19.693 51.529 19.72 51.529 19.747L51.487 19.79C51.459 19.816 51.431 19.844 51.404 19.873V19.915C51.404 19.942 51.404 19.97 51.404 19.998C51.404 20.025 51.404 20.054 51.404 20.082C51.404 20.109 51.404 20.137 51.404 20.164C51.404 20.193 51.39 20.221 51.362 20.249C51.362 20.277 51.349 20.305 51.32 20.332L51.278 20.375C51.278 20.403 51.278 20.429 51.278 20.458C51.25 20.485 51.236 20.513 51.236 20.54C51.236 20.568 51.236 20.598 51.236 20.623C51.208 20.652 51.18 20.68 51.153 20.707C51.097 20.736 51.056 20.762 51.028 20.791C51.028 20.819 51.014 20.846 50.986 20.874C50.929 20.874 50.889 20.889 50.861 20.916C50.722 20.916 50.582 20.916 50.443 20.916C50.388 20.889 50.345 20.874 50.318 20.874C50.289 20.874 50.262 20.874 50.235 20.874C50.177 20.874 50.109 20.86 50.027 20.833C49.999 20.804 49.985 20.776 49.985 20.75C49.956 20.722 49.928 20.693 49.901 20.667C49.872 20.638 49.846 20.624 49.819 20.624C49.79 20.598 49.776 20.568 49.776 20.541C49.748 20.514 49.721 20.486 49.692 20.459C49.692 20.429 49.692 20.403 49.692 20.376V20.333C49.692 20.306 49.692 20.278 49.692 20.25C49.692 20.221 49.692 20.193 49.692 20.165C49.692 20.138 49.692 20.11 49.692 20.083C49.692 20.054 49.692 20.025 49.692 19.999C49.692 19.971 49.692 19.943 49.692 19.916C49.692 19.887 49.692 19.86 49.692 19.831C49.692 19.804 49.692 19.776 49.692 19.748C49.722 19.748 49.749 19.734 49.776 19.706C49.776 19.677 49.791 19.649 49.819 19.622C49.819 19.594 49.819 19.566 49.819 19.539C49.819 19.511 49.819 19.483 49.819 19.455C49.819 19.435 49.819 19.414 49.819 19.392C49.791 19.386 49.761 19.379 49.733 19.371C49.677 19.371 49.624 19.371 49.567 19.371C49.514 19.345 49.459 19.331 49.401 19.33C49.372 19.33 49.345 19.33 49.318 19.33C49.291 19.33 49.26 19.33 49.235 19.33C49.177 19.358 49.123 19.386 49.068 19.413C49.04 19.441 49.012 19.47 48.984 19.497C48.956 19.524 48.928 19.538 48.9 19.538C48.846 19.565 48.789 19.593 48.734 19.621C48.707 19.649 48.677 19.677 48.651 19.705C48.594 19.733 48.553 19.762 48.524 19.789C48.441 19.815 48.372 19.843 48.315 19.872C48.287 19.9 48.261 19.914 48.232 19.914C48.232 19.941 48.219 19.956 48.191 19.956C48.134 19.956 48.092 19.956 48.065 19.956C47.982 19.984 47.898 19.997 47.815 19.997L47.774 20.038C47.717 20.038 47.677 20.038 47.649 20.038C47.536 20.067 47.425 20.094 47.313 20.122C47.285 20.122 47.257 20.136 47.23 20.163C47.175 20.163 47.133 20.163 47.105 20.163C47.078 20.163 47.048 20.163 47.022 20.163C46.965 20.163 46.911 20.149 46.856 20.122C46.825 20.122 46.797 20.108 46.771 20.081C46.575 20.081 46.381 20.066 46.187 20.038C46.131 20.038 46.089 20.038 46.062 20.038L46.02 19.997C44.546 19.997 43.07 19.984 41.594 19.956C41.538 19.956 41.485 19.941 41.426 19.914C41.399 19.885 41.371 19.858 41.343 19.829C41.314 19.802 41.288 19.774 41.26 19.746V19.704C41.26 19.675 41.26 19.647 41.26 19.62C41.26 19.593 41.245 19.564 41.217 19.537C41.191 19.509 41.163 19.481 41.136 19.453C41.136 19.425 41.121 19.397 41.094 19.37C41.066 19.343 41.052 19.315 41.052 19.287C41.024 19.258 41.009 19.23 41.009 19.203C40.981 19.175 40.953 19.147 40.925 19.12L40.884 19.079V19.037C40.856 19.037 40.827 19.037 40.801 19.037L40.759 19.079C40.701 19.079 40.662 19.079 40.634 19.079C40.522 19.107 40.409 19.135 40.299 19.162V19.203C40.271 19.231 40.256 19.259 40.256 19.287C40.229 19.315 40.201 19.343 40.173 19.37C40.146 19.398 40.118 19.426 40.09 19.453C40.09 19.482 40.09 19.51 40.09 19.537C40.09 19.564 40.09 19.592 40.09 19.62C40.09 19.648 40.075 19.676 40.047 19.704C40.047 19.732 40.034 19.761 40.006 19.788C40.006 19.814 39.993 19.828 39.964 19.828C39.964 19.858 39.964 19.885 39.964 19.913C39.937 19.94 39.909 19.968 39.882 19.996C39.882 20.023 39.882 20.052 39.882 20.08C39.882 20.107 39.882 20.135 39.882 20.162C39.882 20.191 39.882 20.219 39.882 20.247C39.882 20.275 39.866 20.303 39.838 20.33C39.838 20.358 39.824 20.386 39.796 20.413C39.796 20.441 39.783 20.456 39.754 20.456C39.754 20.483 39.754 20.511 39.754 20.538C39.728 20.566 39.7 20.596 39.671 20.621C39.671 20.65 39.671 20.678 39.671 20.705C39.671 20.734 39.656 20.76 39.629 20.789C39.629 20.817 39.629 20.844 39.629 20.872C39.603 20.901 39.573 20.929 39.546 20.955C39.518 20.983 39.505 21.011 39.505 21.04C39.505 21.067 39.491 21.082 39.462 21.082C39.462 21.11 39.462 21.137 39.462 21.165C39.462 21.192 39.462 21.222 39.462 21.249C39.462 21.276 39.462 21.305 39.462 21.332C39.462 21.359 39.448 21.387 39.42 21.415C39.42 21.442 39.42 21.471 39.42 21.498C39.393 21.525 39.364 21.553 39.337 21.581C39.309 21.61 39.297 21.637 39.297 21.664C39.297 21.693 39.282 21.707 39.253 21.707C39.253 21.735 39.253 21.763 39.253 21.79C39.253 21.817 39.253 21.846 39.253 21.873C39.253 21.902 39.239 21.93 39.211 21.957C39.211 21.985 39.211 22.012 39.211 22.04C39.184 22.068 39.155 22.096 39.128 22.122C39.128 22.15 39.128 22.18 39.128 22.207C39.1 22.234 39.085 22.263 39.085 22.291C39.085 22.318 39.073 22.331 39.043 22.331C39.043 22.359 39.043 22.388 39.043 22.415C39.043 22.442 39.043 22.471 39.043 22.498C39.043 22.525 39.043 22.554 39.043 22.581C39.043 22.608 39.029 22.637 39.002 22.664C39.002 22.692 39.002 22.72 39.002 22.747C38.973 22.777 38.945 22.803 38.918 22.832C38.89 22.859 38.876 22.889 38.876 22.914C38.876 22.943 38.863 22.955 38.835 22.955C38.835 22.985 38.835 23.012 38.835 23.04C38.835 23.068 38.835 23.097 38.835 23.123C38.835 23.151 38.835 23.179 38.835 23.206C38.835 23.233 38.82 23.262 38.793 23.29C38.793 23.318 38.793 23.345 38.793 23.373C38.765 23.401 38.736 23.429 38.708 23.457C38.681 23.484 38.667 23.512 38.667 23.54C38.667 23.568 38.653 23.582 38.627 23.582C38.627 23.611 38.627 23.638 38.627 23.665C38.627 23.692 38.627 23.721 38.627 23.749C38.627 23.776 38.612 23.805 38.583 23.833C38.583 23.859 38.583 23.887 38.583 23.914C38.557 23.944 38.529 23.972 38.5 23.998C38.5 24.026 38.5 24.054 38.5 24.081C38.472 24.108 38.458 24.138 38.458 24.165C38.458 24.192 38.444 24.206 38.415 24.206C38.415 24.235 38.415 24.263 38.415 24.289C38.415 24.317 38.415 24.347 38.415 24.372C38.415 24.4 38.403 24.429 38.375 24.456C38.375 24.484 38.375 24.511 38.375 24.539C38.347 24.569 38.319 24.595 38.291 24.623C38.291 24.652 38.291 24.679 38.291 24.707C38.291 24.733 38.291 24.761 38.291 24.789V24.831C38.263 24.861 38.235 24.889 38.208 24.915C38.208 24.943 38.208 24.971 38.208 24.999C38.208 25.025 38.194 25.053 38.166 25.081C38.166 25.11 38.166 25.138 38.166 25.166C38.138 25.194 38.111 25.22 38.083 25.248C38.083 25.276 38.083 25.305 38.083 25.332C38.083 25.359 38.083 25.387 38.083 25.415V25.457C38.056 25.487 38.028 25.515 37.999 25.54C37.999 25.568 37.999 25.596 37.999 25.624C37.999 25.651 37.999 25.681 37.999 25.708C37.999 25.735 37.986 25.762 37.958 25.791C37.958 25.819 37.958 25.847 37.958 25.875C37.931 25.901 37.901 25.929 37.875 25.958C37.875 25.985 37.875 26.013 37.875 26.04V26.082C37.875 26.11 37.875 26.138 37.875 26.166C37.847 26.192 37.819 26.222 37.792 26.249C37.792 26.277 37.792 26.304 37.792 26.332C37.792 26.358 37.778 26.388 37.75 26.415C37.75 26.443 37.75 26.471 37.75 26.498C37.722 26.526 37.694 26.553 37.667 26.581C37.639 26.611 37.625 26.64 37.625 26.666C37.625 26.694 37.61 26.708 37.583 26.708C37.583 26.734 37.583 26.764 37.583 26.791C37.583 26.819 37.583 26.848 37.583 26.875C37.583 26.902 37.57 26.931 37.542 26.958C37.542 26.985 37.542 27.013 37.542 27.041C37.513 27.067 37.484 27.097 37.458 27.123C37.43 27.153 37.415 27.18 37.415 27.208L37.374 27.25C37.402 27.277 37.43 27.292 37.457 27.292C37.484 27.32 37.513 27.334 37.541 27.334C37.541 27.362 37.554 27.388 37.582 27.417C37.582 27.444 37.582 27.473 37.582 27.5C37.609 27.529 37.624 27.557 37.624 27.584C37.652 27.612 37.693 27.64 37.749 27.667C37.749 27.694 37.749 27.721 37.749 27.75C37.777 27.778 37.791 27.807 37.791 27.833C37.791 27.861 37.791 27.888 37.791 27.916C37.819 27.942 37.847 27.957 37.874 27.957C37.874 27.986 37.874 28.014 37.874 28.041C37.874 28.069 37.874 28.097 37.874 28.124C37.874 28.151 37.874 28.179 37.874 28.207C37.874 28.235 37.874 28.263 37.874 28.29C37.874 28.317 37.874 28.346 37.874 28.373C37.874 28.4 37.874 28.429 37.874 28.456C37.874 28.482 37.874 28.512 37.874 28.539V28.581C37.874 28.61 37.874 28.637 37.874 28.664C37.846 28.692 37.818 28.721 37.791 28.747C37.791 28.775 37.777 28.803 37.749 28.83C37.749 28.859 37.749 28.887 37.749 28.914C37.693 28.942 37.652 28.97 37.624 28.997C37.597 29.026 37.582 29.054 37.582 29.082C37.582 29.11 37.569 29.138 37.541 29.165C37.541 29.193 37.526 29.207 37.498 29.207C37.47 29.235 37.443 29.264 37.414 29.29C37.387 29.29 37.345 29.29 37.29 29.29H37.247C37.22 29.319 37.191 29.347 37.164 29.374C37.137 29.374 37.109 29.388 37.082 29.416C37.024 29.416 36.984 29.416 36.954 29.416C36.732 29.444 36.51 29.458 36.287 29.458L36.246 29.5C36.19 29.5 36.148 29.5 36.12 29.5C35.73 29.5 35.353 29.5 34.992 29.5C34.936 29.5 34.897 29.5 34.869 29.5L34.826 29.458C34.631 29.458 34.435 29.444 34.242 29.416C34.185 29.416 34.118 29.403 34.033 29.374L33.991 29.333C33.908 29.333 33.824 29.318 33.741 29.29C33.686 29.29 33.644 29.29 33.617 29.29L33.574 29.249C33.518 29.249 33.464 29.235 33.407 29.207C33.351 29.207 33.283 29.193 33.199 29.165L33.116 29.082C33.059 29.082 33.005 29.067 32.949 29.04C32.865 29.012 32.797 28.984 32.74 28.956C32.683 28.928 32.643 28.899 32.615 28.873C32.557 28.845 32.504 28.818 32.446 28.79C32.42 28.79 32.39 28.776 32.364 28.748C32.336 28.721 32.309 28.692 32.28 28.665C32.252 28.637 32.238 28.61 32.238 28.582C32.183 28.555 32.142 28.524 32.114 28.499C32.057 28.47 32.001 28.443 31.945 28.416C31.945 28.388 31.931 28.36 31.903 28.333C31.875 28.306 31.848 28.277 31.82 28.25C31.792 28.223 31.764 28.194 31.736 28.167C31.71 28.167 31.68 28.153 31.653 28.125C31.653 28.097 31.639 28.07 31.611 28.042C31.611 28.015 31.598 27.986 31.57 27.958C31.542 27.93 31.514 27.901 31.486 27.875C31.486 27.847 31.473 27.819 31.445 27.792C31.445 27.764 31.43 27.736 31.403 27.707V27.626L31.361 27.584C31.348 27.57 31.335 27.556 31.319 27.542C31.291 27.542 31.264 27.529 31.236 27.5C31.236 27.473 31.221 27.444 31.194 27.417C31.194 27.387 31.194 27.361 31.194 27.334C31.194 27.305 31.194 27.277 31.194 27.251C31.194 27.221 31.194 27.195 31.194 27.168C31.194 27.141 31.194 27.111 31.194 27.085C31.168 27.057 31.138 27.027 31.111 27C31.111 26.974 31.111 26.946 31.111 26.917V26.876C31.111 26.848 31.111 26.819 31.111 26.792C31.111 26.765 31.111 26.735 31.111 26.709C31.111 26.681 31.111 26.654 31.111 26.626C31.111 26.597 31.111 26.569 31.111 26.543C31.111 26.515 31.111 26.487 31.111 26.46C31.111 26.431 31.111 26.403 31.111 26.375C31.111 26.346 31.111 26.32 31.111 26.292V26.25C31.139 26.222 31.153 26.192 31.153 26.167C31.153 26.138 31.168 26.11 31.194 26.083C31.194 26.054 31.194 26.028 31.194 26C31.194 25.972 31.194 25.943 31.194 25.916C31.194 25.889 31.194 25.859 31.194 25.832C31.194 25.806 31.194 25.778 31.194 25.75C31.194 25.721 31.194 25.693 31.194 25.667V25.625C31.194 25.596 31.194 25.568 31.194 25.541C31.222 25.515 31.236 25.487 31.236 25.458C31.264 25.431 31.278 25.403 31.278 25.376C31.305 25.346 31.319 25.32 31.319 25.293C31.347 25.264 31.361 25.235 31.361 25.209C31.391 25.18 31.403 25.154 31.403 25.126C31.403 25.096 31.403 25.069 31.403 25.041V25.001C31.43 24.972 31.445 24.944 31.445 24.917C31.473 24.89 31.486 24.862 31.486 24.833C31.514 24.805 31.528 24.778 31.528 24.75C31.558 24.722 31.57 24.693 31.57 24.666C31.598 24.64 31.611 24.61 31.611 24.583C31.611 24.556 31.611 24.527 31.611 24.499C31.611 24.472 31.611 24.444 31.611 24.418C31.64 24.418 31.668 24.402 31.695 24.375C31.695 24.349 31.71 24.319 31.736 24.292C31.736 24.265 31.752 24.237 31.779 24.209C31.779 24.183 31.792 24.153 31.82 24.126C31.82 24.098 31.82 24.07 31.82 24.043C31.848 24.015 31.862 23.987 31.862 23.96C31.89 23.932 31.919 23.905 31.945 23.877C31.945 23.85 31.945 23.821 31.945 23.794C31.973 23.794 31.987 23.78 31.987 23.753C31.987 23.724 32 23.696 32.029 23.669C32.029 23.641 32.043 23.614 32.071 23.586C32.098 23.558 32.114 23.53 32.114 23.502C32.142 23.474 32.155 23.447 32.155 23.419C32.183 23.392 32.198 23.364 32.198 23.336C32.225 23.308 32.238 23.28 32.238 23.253C32.266 23.226 32.295 23.197 32.323 23.17L32.365 23.128C32.365 23.101 32.379 23.072 32.406 23.045C32.406 23.016 32.421 22.989 32.447 22.96C32.447 22.934 32.447 22.906 32.447 22.879C32.476 22.85 32.489 22.822 32.489 22.795C32.518 22.767 32.545 22.739 32.573 22.712C32.573 22.685 32.573 22.656 32.573 22.628C32.603 22.601 32.629 22.573 32.656 22.544V22.504C32.656 22.476 32.656 22.447 32.656 22.421C32.684 22.393 32.699 22.364 32.699 22.337C32.727 22.31 32.741 22.282 32.741 22.255C32.768 22.226 32.781 22.199 32.781 22.17C32.811 22.143 32.823 22.114 32.823 22.087C32.851 22.059 32.865 22.03 32.865 22.004C32.865 21.975 32.865 21.947 32.865 21.92C32.894 21.92 32.922 21.907 32.949 21.878C32.949 21.851 32.962 21.822 32.99 21.795C32.99 21.767 32.99 21.739 32.99 21.712C32.99 21.683 32.99 21.655 32.99 21.628C32.99 21.601 32.99 21.571 32.99 21.545C33.018 21.517 33.031 21.489 33.031 21.461C33.06 21.433 33.073 21.404 33.073 21.378C33.073 21.348 33.073 21.322 33.073 21.294V21.253C33.102 21.225 33.116 21.195 33.116 21.169C33.144 21.141 33.158 21.114 33.158 21.086C33.187 21.058 33.199 21.03 33.199 21.002C33.199 20.974 33.199 20.947 33.199 20.919C33.227 20.892 33.241 20.863 33.241 20.836C33.268 20.807 33.284 20.779 33.284 20.753C33.284 20.725 33.284 20.696 33.284 20.67V20.627C33.312 20.601 33.325 20.571 33.325 20.544C33.353 20.517 33.368 20.489 33.368 20.462C33.396 20.432 33.409 20.406 33.409 20.379C33.409 20.352 33.409 20.321 33.409 20.295C33.409 20.267 33.409 20.238 33.409 20.211C33.409 20.184 33.409 20.155 33.409 20.128C33.437 20.099 33.466 20.072 33.492 20.044V20.003C33.52 19.975 33.535 19.947 33.535 19.92C33.561 19.891 33.576 19.864 33.576 19.835C33.606 19.808 33.619 19.78 33.619 19.752C33.619 19.724 33.619 19.697 33.619 19.669C33.646 19.64 33.661 19.612 33.661 19.586C33.689 19.558 33.704 19.53 33.704 19.503C33.704 19.475 33.704 19.446 33.704 19.419V19.377C33.704 19.35 33.704 19.322 33.704 19.294C33.731 19.265 33.744 19.237 33.744 19.21C33.774 19.182 33.787 19.154 33.787 19.127C33.814 19.099 33.828 19.071 33.828 19.044C33.828 19.017 33.828 18.99 33.828 18.961C33.828 18.933 33.828 18.905 33.828 18.877C33.828 18.849 33.828 18.821 33.828 18.794V18.753C33.858 18.725 33.871 18.697 33.871 18.669C33.871 18.641 33.885 18.614 33.913 18.586C33.913 18.558 33.913 18.53 33.913 18.503C33.913 18.474 33.913 18.446 33.913 18.42C33.913 18.392 33.913 18.363 33.913 18.334C33.913 18.309 33.913 18.279 33.913 18.251C33.94 18.224 33.968 18.196 33.996 18.168L34.038 18.126C34.038 18.097 34.038 18.068 34.038 18.041C34.067 18.014 34.08 17.986 34.08 17.958C34.08 17.931 34.096 17.902 34.124 17.875C34.124 17.847 34.124 17.821 34.124 17.792C34.124 17.764 34.124 17.736 34.124 17.709C34.124 17.68 34.124 17.653 34.124 17.626C34.124 17.599 34.124 17.57 34.124 17.543L34.08 17.501V17.209C34.053 17.209 34.038 17.194 34.038 17.168V17.125L33.996 17.083V17.042H33.955V16.917H33.913V16.834C33.885 16.834 33.871 16.819 33.871 16.792L33.828 16.749V16.707C33.8 16.707 33.787 16.694 33.787 16.666L33.744 16.625C33.744 16.596 33.731 16.583 33.704 16.583V16.539H33.661V16.499L33.619 16.457V16.416H33.576L33.535 16.374C33.535 16.346 33.52 16.332 33.492 16.332L33.45 16.29H33.408C33.408 16.263 33.395 16.248 33.367 16.248C33.339 16.22 33.311 16.207 33.284 16.207H33.241L33.199 16.165C33.172 16.165 33.158 16.151 33.158 16.123C33.13 16.123 33.102 16.123 33.073 16.123C33.073 16.096 33.06 16.082 33.031 16.082C33.005 16.053 32.975 16.04 32.949 16.04H32.906C32.878 16.013 32.85 15.998 32.823 15.998L32.781 15.956H32.741L32.699 15.915C32.67 15.887 32.643 15.873 32.616 15.873H32.573L32.531 15.832C32.505 15.832 32.476 15.832 32.448 15.832H32.366L32.324 15.79C32.296 15.79 32.267 15.79 32.239 15.79H32.2L32.157 15.748C32.129 15.748 32.101 15.748 32.074 15.748C32.046 15.748 32.018 15.748 31.991 15.748H31.949L31.907 15.706C31.879 15.706 31.852 15.706 31.824 15.706H31.74L31.699 15.664C31.671 15.664 31.643 15.664 31.615 15.664C31.587 15.664 31.558 15.664 31.532 15.664C31.504 15.636 31.477 15.622 31.449 15.622H31.407L31.365 15.58H31.28L31.238 15.538C31.21 15.538 31.182 15.538 31.155 15.538C31.005 15.538 30.853 15.538 30.696 15.538C30.668 15.538 30.639 15.538 30.612 15.538H30.237C30.194 15.538 30.153 15.538 30.112 15.538H30.07C30.042 15.538 30.014 15.552 29.987 15.58H29.945C29.848 15.58 29.75 15.58 29.653 15.58H29.611C29.583 15.58 29.555 15.595 29.528 15.622H29.486C29.458 15.622 29.443 15.636 29.443 15.664C29.414 15.664 29.386 15.664 29.36 15.664C29.36 15.692 29.346 15.706 29.318 15.706H29.235C29.208 15.706 29.179 15.721 29.151 15.748H29.11C29.081 15.748 29.053 15.748 29.027 15.748H28.985C28.957 15.748 28.929 15.761 28.902 15.79H28.776C28.749 15.79 28.721 15.803 28.693 15.832H28.567C28.54 15.832 28.512 15.844 28.484 15.873H28.44C28.412 15.873 28.397 15.887 28.397 15.915H28.357C28.329 15.942 28.3 15.956 28.273 15.956C28.246 15.956 28.218 15.97 28.19 15.998H28.107C28.078 15.998 28.05 16.013 28.024 16.04H27.941C27.912 16.04 27.884 16.053 27.857 16.082H27.816C27.788 16.082 27.759 16.096 27.733 16.123H27.69C27.662 16.123 27.635 16.137 27.607 16.165H27.52C27.493 16.193 27.465 16.207 27.438 16.207C27.41 16.207 27.383 16.22 27.355 16.248L27.312 16.29H27.229C27.201 16.29 27.173 16.305 27.145 16.332H27.104C27.076 16.332 27.047 16.346 27.02 16.374H26.937C26.937 16.402 26.924 16.416 26.896 16.416C26.868 16.416 26.839 16.429 26.813 16.457H26.728C26.728 16.484 26.714 16.499 26.687 16.499C26.658 16.499 26.632 16.512 26.603 16.539H26.561C26.534 16.539 26.506 16.556 26.48 16.583H26.438C26.41 16.583 26.382 16.596 26.354 16.625H26.313C26.283 16.625 26.256 16.639 26.23 16.666H26.145C26.145 16.694 26.132 16.707 26.104 16.707C26.075 16.707 26.049 16.721 26.02 16.749H25.937C25.937 16.778 25.922 16.792 25.896 16.792C25.867 16.792 25.84 16.806 25.812 16.834H25.77C25.742 16.834 25.714 16.847 25.686 16.875H25.644C25.618 16.875 25.604 16.889 25.604 16.917C25.575 16.917 25.546 16.917 25.52 16.917H25.478C25.451 16.917 25.423 16.931 25.395 16.959H25.35C25.323 16.959 25.293 16.972 25.266 17.001H25.225C25.196 17.001 25.167 17.015 25.141 17.042H25.099C25.071 17.042 25.043 17.056 25.017 17.083H24.933C24.933 17.111 24.918 17.125 24.891 17.125C24.863 17.125 24.835 17.141 24.807 17.168L24.766 17.209H24.682C24.654 17.209 24.626 17.224 24.599 17.251H24.557C24.529 17.251 24.502 17.265 24.474 17.292H24.39C24.362 17.321 24.334 17.335 24.307 17.335C24.28 17.335 24.251 17.349 24.223 17.377H24.18C24.152 17.377 24.138 17.391 24.138 17.417H24.096C24.067 17.446 24.04 17.459 24.013 17.459C23.986 17.459 23.971 17.473 23.971 17.501C23.943 17.501 23.915 17.501 23.888 17.501C23.86 17.53 23.832 17.543 23.805 17.543C23.776 17.543 23.749 17.558 23.722 17.585H23.68C23.65 17.585 23.624 17.598 23.597 17.626H23.555C23.527 17.626 23.499 17.64 23.471 17.668H23.43C23.403 17.668 23.374 17.68 23.347 17.709H23.306C23.277 17.709 23.249 17.724 23.222 17.75H23.178C23.151 17.75 23.138 17.765 23.138 17.792H23.096L23.054 17.834C23.027 17.834 23.013 17.848 23.013 17.876H22.97C22.942 17.876 22.915 17.89 22.887 17.918H22.844C22.816 17.918 22.788 17.932 22.76 17.959H22.719C22.691 17.959 22.661 17.974 22.635 18.001H22.594C22.565 18.001 22.537 18.014 22.511 18.041H22.428C22.4 18.041 22.372 18.056 22.344 18.083H22.303C22.274 18.083 22.246 18.097 22.22 18.126H22.177C22.149 18.126 22.121 18.14 22.093 18.168H22.05C22.022 18.168 21.995 18.182 21.967 18.209H21.883C21.855 18.209 21.827 18.224 21.8 18.251H21.717C21.688 18.251 21.66 18.264 21.632 18.293H21.591C21.563 18.293 21.55 18.309 21.55 18.334H21.506C21.478 18.363 21.452 18.376 21.423 18.376H21.341C21.311 18.376 21.283 18.392 21.255 18.419H21.173C21.145 18.419 21.118 18.431 21.089 18.459H21.048C20.992 18.459 20.95 18.473 20.922 18.501H20.881C20.853 18.501 20.823 18.515 20.798 18.542H20.714C20.687 18.542 20.659 18.557 20.632 18.584H20.589C20.56 18.584 20.547 18.599 20.547 18.627C20.519 18.627 20.49 18.627 20.464 18.627H20.422C20.395 18.627 20.366 18.639 20.338 18.667H20.255C20.228 18.667 20.2 18.681 20.172 18.709H20.088C20.06 18.709 20.032 18.724 20.005 18.751H19.963C19.935 18.751 19.906 18.764 19.88 18.792H19.754C19.726 18.792 19.698 18.807 19.671 18.834H19.547C19.518 18.834 19.491 18.847 19.464 18.875H19.338C19.31 18.875 19.284 18.89 19.255 18.917H19.131C19.103 18.917 19.075 18.931 19.048 18.959H19.004C18.976 18.959 18.962 18.973 18.962 19H18.92C18.892 19.029 18.865 19.042 18.837 19.042C18.809 19.042 18.78 19.042 18.753 19.042H18.711C18.684 19.042 18.656 19.057 18.629 19.084H18.5C18.472 19.084 18.444 19.097 18.417 19.125H18.292C18.264 19.125 18.236 19.14 18.209 19.167H18.166C18.138 19.167 18.124 19.18 18.124 19.208H18.082L18.041 19.25C18.013 19.25 17.984 19.263 17.957 19.292H17.915C17.887 19.292 17.874 19.306 17.874 19.334C17.844 19.334 17.816 19.334 17.79 19.334H17.748C17.72 19.334 17.692 19.348 17.665 19.375H17.624C17.594 19.375 17.567 19.39 17.54 19.417L17.498 19.458H17.457L17.414 19.501C17.386 19.501 17.358 19.514 17.331 19.542H17.29C17.262 19.542 17.234 19.556 17.205 19.584H17.122C17.094 19.584 17.068 19.597 17.04 19.625H16.956C16.956 19.653 16.942 19.667 16.914 19.667C16.886 19.667 16.858 19.68 16.83 19.709H16.788C16.761 19.709 16.732 19.723 16.706 19.751H16.58C16.553 19.751 16.525 19.766 16.497 19.794H16.414C16.386 19.794 16.358 19.807 16.33 19.834H16.287C16.26 19.834 16.232 19.848 16.204 19.877H16.163C16.135 19.877 16.107 19.891 16.079 19.919H15.954C15.928 19.919 15.897 19.932 15.871 19.961H15.788C15.788 19.989 15.774 20.002 15.747 20.002C15.719 20.002 15.691 20.017 15.663 20.043H15.62C15.592 20.043 15.563 20.058 15.535 20.086L15.476 20.149C15.45 20.156 15.43 20.163 15.411 20.168H15.368C15.341 20.168 15.312 20.182 15.285 20.21H15.202C15.202 20.238 15.188 20.253 15.161 20.253C15.133 20.253 15.105 20.266 15.077 20.294H14.994C14.966 20.294 14.938 20.309 14.911 20.336H14.87C14.841 20.336 14.813 20.351 14.785 20.379H14.702C14.674 20.379 14.647 20.392 14.619 20.42H14.577C14.549 20.42 14.521 20.433 14.493 20.463H14.368C14.34 20.463 14.31 20.477 14.283 20.505H14.243C14.215 20.505 14.187 20.518 14.16 20.545L14.118 20.587C14.09 20.587 14.062 20.587 14.035 20.587H13.993C13.965 20.587 13.937 20.602 13.909 20.628H13.784C13.757 20.628 13.729 20.643 13.701 20.671H13.659C13.603 20.671 13.561 20.684 13.532 20.712H13.492C13.464 20.712 13.434 20.727 13.407 20.754H13.366C13.337 20.754 13.309 20.766 13.283 20.796L13.24 20.834C13.212 20.834 13.184 20.834 13.157 20.834H13.115C13.087 20.834 13.059 20.847 13.031 20.875H12.906C12.878 20.875 12.849 20.89 12.822 20.917H12.781C12.752 20.917 12.724 20.932 12.698 20.958H12.656C12.626 20.958 12.598 20.958 12.573 20.958H12.532C12.503 20.958 12.473 20.972 12.446 21H12.404C12.378 21 12.349 21.013 12.321 21.043H12.28C12.251 21.043 12.222 21.057 12.196 21.085H12.11C12.11 21.113 12.097 21.127 12.07 21.127C12.042 21.127 12.012 21.14 11.985 21.168H11.943C11.917 21.168 11.874 21.168 11.818 21.168H11.778C11.75 21.168 11.722 21.181 11.693 21.209H11.61C11.581 21.209 11.555 21.225 11.527 21.252H11.402C11.372 21.252 11.345 21.266 11.318 21.293H11.275C11.248 21.293 11.22 21.293 11.192 21.293H11.15C11.123 21.293 11.094 21.308 11.067 21.335H10.942C10.914 21.335 10.886 21.347 10.859 21.377H10.735C10.705 21.377 10.678 21.39 10.651 21.419H10.527C10.497 21.419 10.469 21.432 10.44 21.46H10.4C10.373 21.46 10.344 21.475 10.316 21.502L10.275 21.544H10.233C10.206 21.57 10.178 21.585 10.15 21.585C10.121 21.585 10.107 21.6 10.107 21.627C10.08 21.627 10.052 21.627 10.023 21.627C10.023 21.655 10.009 21.669 9.982 21.669C9.954 21.669 9.925 21.683 9.898 21.712H9.858C9.829 21.712 9.8 21.725 9.774 21.754H9.731C9.703 21.754 9.689 21.768 9.689 21.796H9.649C9.62 21.823 9.591 21.838 9.565 21.838C9.507 21.838 9.466 21.852 9.438 21.879H9.397C9.369 21.879 9.341 21.894 9.313 21.921H9.271C9.243 21.921 9.215 21.936 9.188 21.964L9.146 22.006C9.119 22.033 9.09 22.048 9.063 22.048C9.035 22.048 9.007 22.062 8.98 22.09L8.938 22.13C8.882 22.13 8.84 22.13 8.813 22.13H8.771C8.743 22.13 8.715 22.146 8.688 22.172H8.646C8.619 22.172 8.603 22.187 8.603 22.215C8.576 22.215 8.546 22.215 8.52 22.215C8.52 22.242 8.505 22.257 8.478 22.257C8.451 22.257 8.423 22.27 8.395 22.299L8.353 22.339H8.311C8.284 22.367 8.256 22.382 8.228 22.382H8.145C8.116 22.382 8.089 22.396 8.062 22.424H7.936C7.906 22.424 7.88 22.438 7.853 22.466H7.769C7.769 22.494 7.754 22.508 7.727 22.508C7.7 22.508 7.672 22.52 7.644 22.548H7.559C7.531 22.548 7.503 22.564 7.476 22.591H7.392C7.365 22.591 7.336 22.605 7.309 22.632H7.226C7.197 22.632 7.169 22.647 7.143 22.674H7.015C6.987 22.674 6.959 22.689 6.932 22.716H6.808C6.779 22.716 6.752 22.73 6.725 22.757H6.682C6.654 22.757 6.641 22.772 6.641 22.8C6.612 22.8 6.583 22.8 6.556 22.8C6.556 22.828 6.544 22.842 6.515 22.842C6.487 22.842 6.459 22.855 6.431 22.884H6.39C6.362 22.884 6.334 22.884 6.307 22.884H6.266C6.236 22.884 6.208 22.899 6.183 22.924H6.14C6.112 22.924 6.085 22.939 6.056 22.965H5.972C5.945 22.995 5.917 23.008 5.89 23.008C5.862 23.008 5.833 23.021 5.806 23.05H5.765C5.735 23.05 5.723 23.064 5.723 23.092H5.68C5.651 23.119 5.623 23.134 5.596 23.134C5.569 23.134 5.54 23.147 5.513 23.176H5.471C5.443 23.176 5.415 23.189 5.388 23.217H5.346C5.317 23.217 5.303 23.232 5.303 23.259C5.276 23.259 5.248 23.259 5.22 23.259H5.178C5.151 23.259 5.122 23.273 5.095 23.302H5.011C5.011 23.33 4.997 23.343 4.97 23.343C4.942 23.343 4.914 23.357 4.886 23.385H4.803C4.776 23.385 4.748 23.4 4.721 23.427H4.677C4.649 23.427 4.621 23.441 4.594 23.47H4.553C4.525 23.47 4.496 23.482 4.469 23.51H4.384C4.384 23.539 4.371 23.553 4.343 23.553C4.316 23.553 4.287 23.567 4.26 23.595H4.218C4.191 23.595 4.163 23.609 4.134 23.636H4.009C3.981 23.636 3.953 23.651 3.926 23.678H3.884C3.856 23.678 3.829 23.678 3.8 23.678H3.759C3.731 23.678 3.703 23.692 3.676 23.72H3.634C3.607 23.72 3.579 23.72 3.551 23.72H3.508C3.48 23.72 3.453 23.734 3.425 23.762H3.341C3.313 23.762 3.285 23.775 3.257 23.803H3.175C3.146 23.803 3.118 23.818 3.09 23.846H3.049C3.02 23.846 2.992 23.846 2.966 23.846H2.922C2.895 23.846 2.867 23.859 2.84 23.886H2.8C2.77 23.886 2.742 23.886 2.715 23.886H2.673C2.645 23.886 2.617 23.9 2.59 23.927H2.547C2.519 23.927 2.505 23.942 2.505 23.97H2.465L2.423 24.012C2.395 24.012 2.367 24.026 2.339 24.054H2.297C2.27 24.054 2.241 24.068 2.215 24.096H2.088C2.06 24.096 2.032 24.11 2.005 24.138H1.963C1.935 24.138 1.908 24.153 1.88 24.18C1.851 24.18 1.823 24.195 1.796 24.221C1.769 24.221 1.74 24.221 1.713 24.221C1.713 24.25 1.698 24.263 1.671 24.263C1.644 24.263 1.616 24.278 1.588 24.305H1.545C1.517 24.305 1.503 24.318 1.503 24.347C1.476 24.347 1.447 24.347 1.42 24.347C1.42 24.375 1.406 24.388 1.379 24.388C1.35 24.388 1.322 24.403 1.296 24.431H1.211C1.211 24.457 1.196 24.472 1.169 24.472C1.14 24.472 1.113 24.485 1.086 24.512H1.002C0.974 24.512 0.946 24.527 0.919 24.555H0.877C0.849 24.555 0.82 24.57 0.794 24.597H0.752C0.724 24.597 0.696 24.611 0.669 24.64C0.638 24.625 0.611 24.61 0.586 24.597C0.557 24.57 0.529 24.541 0.503 24.513C0.475 24.486 0.447 24.458 0.42 24.432V24.389C0.42 24.363 0.42 24.333 0.42 24.306C0.364 24.306 0.294 24.292 0.211 24.264C0.211 24.236 0.196 24.209 0.169 24.181C0.156 24.166 0.142 24.153 0.127 24.139V20.026L0.169 20.005C0.169 19.977 0.182 19.964 0.211 19.964C0.239 19.964 0.281 19.949 0.336 19.922C0.391 19.922 0.447 19.922 0.503 19.922V19.88C0.503 19.851 0.503 19.823 0.503 19.797C0.503 19.769 0.503 19.74 0.503 19.713C0.503 19.684 0.503 19.656 0.503 19.629V19.588C0.503 19.56 0.503 19.532 0.503 19.505C0.503 19.477 0.503 19.448 0.503 19.421C0.503 19.394 0.503 19.365 0.503 19.338C0.503 19.311 0.503 19.283 0.503 19.255C0.503 19.227 0.503 19.199 0.503 19.172C0.503 19.145 0.503 19.116 0.503 19.089C0.503 19.062 0.503 19.033 0.503 19.005V18.954C0.503 18.926 0.503 18.898 0.503 18.87C0.503 18.842 0.503 18.814 0.503 18.787C0.503 18.76 0.503 18.731 0.503 18.704C0.503 18.677 0.503 18.647 0.503 18.622C0.503 18.594 0.503 18.564 0.503 18.537C0.503 18.51 0.503 18.48 0.503 18.454C0.503 18.426 0.503 18.4 0.503 18.371V18.329C0.503 18.304 0.503 18.274 0.503 18.246C0.503 18.219 0.503 18.191 0.503 18.163C0.503 18.135 0.503 18.106 0.503 18.079C0.503 18.051 0.503 18.024 0.503 17.996C0.503 17.968 0.503 17.94 0.503 17.913C0.503 17.884 0.503 17.856 0.503 17.829C0.503 17.802 0.503 17.774 0.503 17.745V17.704C0.503 17.675 0.503 17.648 0.503 17.621C0.503 17.594 0.503 17.565 0.503 17.538C0.503 17.509 0.503 17.482 0.503 17.455C0.503 17.428 0.503 17.399 0.503 17.372C0.503 17.344 0.503 17.315 0.503 17.287C0.503 17.26 0.503 17.231 0.503 17.204C0.503 17.176 0.503 17.148 0.503 17.12V17.074C0.503 17.047 0.503 17.018 0.503 16.992C0.503 16.963 0.503 16.935 0.503 16.908C0.503 16.88 0.503 16.853 0.503 16.825C0.503 16.797 0.503 16.769 0.503 16.74C0.503 16.712 0.503 16.685 0.503 16.657C0.503 16.63 0.503 16.601 0.503 16.574C0.503 16.546 0.503 16.517 0.503 16.49V16.448C0.503 16.42 0.503 16.392 0.503 16.365C0.503 16.338 0.503 16.308 0.503 16.281C0.503 16.254 0.503 16.225 0.503 16.198C0.503 16.17 0.503 16.141 0.503 16.114C0.503 16.087 0.503 16.058 0.503 16.031C0.503 16.004 0.503 15.975 0.503 15.948C0.503 15.921 0.503 15.893 0.503 15.865V15.824C0.503 15.795 0.503 15.767 0.503 15.739C0.503 15.712 0.503 15.684 0.503 15.656C0.501 15.627 0.488 15.586 0.46 15.531C0.46 15.504 0.447 15.462 0.42 15.406C0.42 15.38 0.42 15.336 0.42 15.281C0.42 15.252 0.42 15.211 0.42 15.155C0.42 15.127 0.42 15.086 0.42 15.03C0.42 15.002 0.42 14.96 0.42 14.905C0.42 14.877 0.42 14.836 0.42 14.779C0.42 14.758 0.42 14.731 0.42 14.696C0.397 14.696 0.368 14.696 0.336 14.696C0.28 14.696 0.224 14.682 0.168 14.654C0.141 14.627 0.113 14.599 0.085 14.572C0.057 14.542 0.028 14.514 0 14.486C0 14.458 0 14.429 0 14.403V14.362C0 14.333 0 14.305 0 14.278C0 14.251 0 14.222 0 14.194C0 14.166 0 14.139 0 14.111C0 14.083 0 14.055 0 14.028C0 13.998 0 13.971 0 13.944C0 13.917 0 13.888 0 13.861C0 13.831 0 13.804 0 13.777V13.734C0 13.706 0 13.677 0 13.65C0 13.621 0 13.595 0 13.567C0 13.539 0 13.511 0 13.484C0 13.457 0 13.428 0 13.401C0 13.374 0 13.345 0 13.318C0 13.289 0 13.261 0 13.235C0 13.207 0 13.177 0 13.152V13.108C0 13.082 0 13.054 0 13.025C0 12.998 0 12.97 0 12.942C0 12.914 0 12.886 0 12.859C0 12.83 0 12.803 0 12.776C0 12.749 0 12.72 0 12.691C0 12.663 0 12.636 0 12.608C0 12.581 0 12.553 0 12.525V12.483C0 12.454 0 12.428 0 12.4C0 12.372 0 12.343 0 12.316C0 12.289 0 12.259 0 12.233C0 12.205 0 12.177 0 12.148C0 12.122 0 12.093 0 12.065C0 12.039 0 12.009 0 11.983C0 11.954 0 11.927 0 11.899V11.854C0 11.826 0 11.798 0 11.77C0 11.742 0 11.714 0 11.688C0 11.659 0 11.632 0 11.605C0 11.575 0 11.547 0 11.52C0.028 11.494 0.042 11.465 0.042 11.438C0.069 11.41 0.084 11.38 0.084 11.352C0.112 11.327 0.14 11.297 0.167 11.27C0.195 11.27 0.209 11.255 0.209 11.228C0.209 11.202 0.209 11.173 0.209 11.145C0.237 11.118 0.251 11.088 0.251 11.061C0.279 11.035 0.293 11.007 0.293 10.978C0.349 10.95 0.39 10.922 0.419 10.894C0.446 10.866 0.488 10.838 0.544 10.811C0.572 10.811 0.598 10.797 0.627 10.769C0.655 10.741 0.682 10.728 0.711 10.728C0.738 10.699 0.766 10.673 0.794 10.645C0.821 10.615 0.864 10.588 0.919 10.561C0.946 10.532 0.974 10.52 1.002 10.52C1.002 10.491 1.017 10.477 1.044 10.477C1.073 10.477 1.115 10.477 1.17 10.477V10.436C1.226 10.464 1.267 10.477 1.296 10.477C1.323 10.477 1.336 10.492 1.336 10.52C1.393 10.52 1.434 10.52 1.462 10.52C1.518 10.546 1.571 10.576 1.629 10.602C1.657 10.602 1.671 10.616 1.671 10.646C2.2 10.646 2.729 10.646 3.257 10.646L3.3 10.685L3.342 10.644C5.347 10.644 7.366 10.644 9.398 10.644C9.454 10.644 9.523 10.644 9.606 10.644C9.8 10.644 10.009 10.644 10.232 10.644C10.26 10.672 10.302 10.685 10.357 10.685C10.384 10.685 10.399 10.698 10.399 10.727C11.513 10.698 12.612 10.685 13.699 10.685V10.644C13.727 10.644 13.755 10.629 13.782 10.6V10.559C13.84 10.559 13.894 10.544 13.95 10.518C14.005 10.518 14.061 10.502 14.117 10.475C14.145 10.449 14.187 10.434 14.242 10.434C14.297 10.405 14.339 10.376 14.367 10.35C14.394 10.322 14.424 10.295 14.45 10.267C14.478 10.238 14.504 10.21 14.533 10.183C14.589 10.155 14.645 10.127 14.7 10.1C14.727 10.072 14.742 10.043 14.742 10.015C14.77 10.015 14.798 10.002 14.825 9.97503V9.93303C14.881 9.93303 14.937 9.91903 14.993 9.89103C15.049 9.89103 15.104 9.89103 15.16 9.89103V9.85003C15.187 9.85003 15.23 9.85003 15.285 9.85003C15.341 9.87703 15.383 9.89103 15.41 9.89103C15.438 9.91903 15.452 9.94703 15.452 9.97503C15.479 10.002 15.494 10.032 15.494 10.059C15.494 10.086 15.479 10.113 15.452 10.142C15.452 10.169 15.437 10.197 15.41 10.225C15.354 10.253 15.285 10.283 15.201 10.308V10.35C15.23 10.35 15.27 10.365 15.326 10.392C15.346 10.392 15.366 10.399 15.388 10.414L15.409 10.392V10.35L15.451 10.308C15.478 10.283 15.506 10.268 15.533 10.268C15.565 10.267 15.606 10.253 15.659 10.226H15.721C15.766 10.224 15.817 10.21 15.867 10.184C15.95 10.184 16.035 10.184 16.117 10.184V10.143C16.27 10.143 16.424 10.143 16.576 10.143C16.606 10.142 16.648 10.128 16.703 10.101C16.842 10.101 16.98 10.101 17.119 10.101C17.148 10.114 17.176 10.128 17.202 10.143C17.342 10.143 17.482 10.143 17.621 10.143C17.65 10.142 17.69 10.128 17.745 10.101C18.691 10.101 19.639 10.101 20.585 10.101C20.613 10.114 20.642 10.128 20.668 10.143C20.765 10.143 20.863 10.143 20.962 10.143C20.991 10.142 21.031 10.128 21.085 10.101C22.087 10.101 23.105 10.101 24.135 10.101C24.162 10.114 24.191 10.128 24.218 10.143C24.568 10.143 24.915 10.143 25.262 10.143C25.292 10.142 25.334 10.128 25.387 10.101C26.055 10.101 26.709 10.101 27.351 10.101C27.38 10.073 27.407 10.06 27.434 10.06C27.461 10.06 27.504 10.044 27.559 10.015C27.949 10.015 28.338 10.002 28.729 9.97503C28.757 9.97503 28.784 9.96003 28.812 9.93203C28.84 9.93203 28.88 9.93203 28.937 9.93203V9.89103C29.133 9.89103 29.341 9.89103 29.563 9.89103C29.591 9.86303 29.605 9.83503 29.605 9.80803C29.632 9.77803 29.675 9.75203 29.731 9.72403C29.757 9.69703 29.8 9.66903 29.856 9.64303C29.885 9.61403 29.926 9.58603 29.982 9.55903C30.009 9.53003 30.037 9.50203 30.065 9.47503C30.093 9.44703 30.121 9.41903 30.148 9.39203C30.176 9.39203 30.204 9.37803 30.232 9.35003C30.288 9.32303 30.342 9.29303 30.399 9.26703C30.427 9.23803 30.44 9.21103 30.44 9.18403C30.47 9.15603 30.511 9.12803 30.567 9.10103C30.595 9.07203 30.636 9.04403 30.692 9.01703C30.719 8.99103 30.749 8.96103 30.775 8.93503C30.775 8.90403 30.775 8.87703 30.775 8.84903C30.803 8.82203 30.831 8.79403 30.859 8.76603C30.887 8.76603 30.9 8.75203 30.9 8.72403C30.956 8.69503 31.012 8.66603 31.067 8.64103C31.095 8.61303 31.136 8.58503 31.192 8.55703C31.22 8.53003 31.249 8.51703 31.276 8.51703C31.276 8.48803 31.289 8.47603 31.317 8.47603C31.345 8.47603 31.388 8.45903 31.443 8.43103C31.666 8.43103 31.901 8.41803 32.152 8.39003C32.18 8.36203 32.222 8.33303 32.277 8.30703C32.307 8.27903 32.334 8.25103 32.361 8.22403C32.387 8.19603 32.417 8.16703 32.443 8.14103C32.472 8.14103 32.501 8.12703 32.526 8.09903C32.554 8.07003 32.568 8.04203 32.568 8.01603C32.598 7.98803 32.624 7.96103 32.651 7.93303C32.679 7.90503 32.708 7.87603 32.736 7.84903C32.763 7.82203 32.793 7.79403 32.819 7.76603C32.847 7.73803 32.874 7.71003 32.902 7.68203C32.93 7.68203 32.958 7.66703 32.985 7.64103C33.013 7.61303 33.04 7.59903 33.068 7.59903C33.097 7.57103 33.111 7.54303 33.111 7.51603C33.139 7.48703 33.153 7.45903 33.153 7.43303C33.182 7.40403 33.222 7.37603 33.278 7.35003C33.306 7.32203 33.346 7.29203 33.402 7.26603C33.43 7.23803 33.459 7.21103 33.485 7.18303C33.513 7.15703 33.541 7.12803 33.568 7.10003L33.611 7.05903C33.611 7.03103 33.624 7.00303 33.653 6.97503C33.681 6.94803 33.696 6.92003 33.696 6.89103C33.723 6.86303 33.751 6.85003 33.779 6.85003C33.779 6.82303 33.791 6.80803 33.82 6.80803C33.85 6.78003 33.892 6.76703 33.946 6.76703C33.974 6.73903 33.987 6.71103 33.987 6.68303C34.014 6.65503 34.044 6.62803 34.07 6.60003C34.099 6.57203 34.127 6.54503 34.155 6.51703C34.181 6.48903 34.209 6.46103 34.238 6.43403C34.266 6.40703 34.294 6.37803 34.321 6.35003C34.348 6.32303 34.376 6.29503 34.404 6.26703C34.431 6.26703 34.447 6.25403 34.447 6.22503C34.483 6.18903 34.511 6.16103 34.538 6.13403C34.566 6.10403 34.594 6.07803 34.621 6.05103C34.651 6.02203 34.678 5.99403 34.706 5.96703C34.733 5.93803 34.761 5.91003 34.789 5.88303C34.817 5.85703 34.845 5.82703 34.873 5.80003C34.901 5.77203 34.928 5.74303 34.956 5.71603C34.982 5.68803 35.011 5.66203 35.039 5.63303C35.067 5.63303 35.081 5.61903 35.081 5.59203C35.138 5.56403 35.193 5.53403 35.249 5.50803C35.304 5.48003 35.358 5.46603 35.415 5.46603V5.42303H35.458L35.499 5.38103C35.528 5.35203 35.554 5.33803 35.582 5.33803C35.611 5.33803 35.654 5.33803 35.709 5.33803V5.29703C41.139 5.29703 46.566 5.29703 51.995 5.29703V5.25603C52.023 5.22903 52.037 5.20003 52.037 5.17203C52.065 5.14503 52.079 5.11703 52.079 5.08903C52.107 5.06203 52.136 5.03403 52.163 5.00603L52.203 4.96403C52.203 4.93803 52.218 4.90803 52.247 4.88103C52.273 4.85303 52.287 4.82503 52.287 4.79803C52.317 4.77003 52.343 4.74203 52.37 4.71503L52.412 4.67403C52.44 4.64603 52.468 4.63203 52.495 4.63203C52.524 4.63203 52.551 4.63203 52.578 4.63203V4.58703L52.62 4.54503C52.649 4.51703 52.677 4.50303 52.703 4.50303C52.731 4.50303 52.772 4.48903 52.828 4.46103C52.968 4.46103 53.107 4.46103 53.247 4.46103V4.42103C53.247 4.39203 53.247 4.36403 53.247 4.33703C53.273 4.30903 53.302 4.28103 53.33 4.25403C53.358 4.22603 53.4 4.19703 53.455 4.17003C53.484 4.17003 53.51 4.15603 53.538 4.12803C53.566 4.10003 53.595 4.07203 53.622 4.04503L53.663 4.00303V3.96103C53.692 3.96103 53.72 3.96103 53.747 3.96103C53.747 3.93303 53.76 3.90503 53.789 3.87803C53.817 3.87803 53.846 3.86503 53.872 3.83703C53.902 3.80803 53.93 3.78003 53.955 3.75403C53.984 3.75403 54.011 3.75403 54.039 3.75403C54.039 3.72503 54.054 3.71203 54.081 3.71203C54.109 3.68403 54.137 3.65603 54.164 3.62903C54.192 3.60103 54.222 3.57303 54.249 3.54703L54.291 3.50303C54.291 3.47503 54.291 3.44703 54.291 3.42003C54.317 3.39203 54.345 3.36403 54.374 3.33703C54.401 3.31003 54.43 3.28203 54.458 3.25503C54.486 3.22503 54.514 3.19703 54.541 3.17003C54.541 3.14203 54.555 3.11503 54.581 3.08703C54.581 3.05903 54.581 3.03003 54.581 3.00303C54.581 2.97503 54.581 2.94803 54.581 2.91903V2.87603C54.64 2.84803 54.68 2.83403 54.709 2.83403V2.79203L54.752 2.83403V2.75003C54.779 2.75003 54.807 2.75003 54.835 2.75003C54.862 2.75003 54.889 2.73803 54.918 2.70803C54.946 2.73803 54.974 2.76403 55 2.79203C55.057 2.79203 55.111 2.79203 55.169 2.79203C55.198 2.79203 55.239 2.79203 55.294 2.79203C55.322 2.76403 55.334 2.73803 55.334 2.70903C55.392 2.70903 55.434 2.70903 55.461 2.70903C55.544 2.70903 55.641 2.70903 55.753 2.70903C55.782 2.70903 55.823 2.72403 55.878 2.75103C55.906 2.77903 55.933 2.80603 55.961 2.83403C55.99 2.86303 56.018 2.88903 56.045 2.91703C56.071 2.94603 56.101 2.97303 56.128 3.00103C56.128 3.02803 56.142 3.05803 56.17 3.08503C56.2 3.11303 56.225 3.12603 56.253 3.12603C56.281 3.15403 56.31 3.18103 56.336 3.20903C56.364 3.23803 56.392 3.26603 56.419 3.29303C56.446 3.32103 56.474 3.34903 56.503 3.37603C56.53 3.40303 56.558 3.43203 56.586 3.45903C56.614 3.48603 56.642 3.51503 56.669 3.54403C56.699 3.57003 56.727 3.59803 56.753 3.62603L56.795 3.66803C56.824 3.69603 56.866 3.70903 56.92 3.70903C56.948 3.73703 56.989 3.76403 57.045 3.79203C57.073 3.82103 57.087 3.84803 57.087 3.87503C57.099 3.89003 57.114 3.90303 57.128 3.91703C57.142 3.93103 57.156 3.94503 57.171 3.95903C57.201 3.98903 57.241 4.01603 57.295 4.04203C57.295 4.07003 57.295 4.09803 57.295 4.12503C57.351 4.15303 57.392 4.16703 57.42 4.16703C57.448 4.19503 57.476 4.22403 57.503 4.25103C57.503 4.27703 57.517 4.30603 57.545 4.33403C57.573 4.36203 57.586 4.39003 57.586 4.41803L57.629 4.45903C58.102 4.45903 58.589 4.45903 59.09 4.45903V4.42103C59.09 4.39203 59.09 4.36403 59.09 4.33703C59.09 4.31003 59.09 4.28103 59.09 4.25403C59.12 4.25403 59.146 4.24003 59.173 4.21203V4.17003C59.231 4.17003 59.285 4.15603 59.34 4.12803C59.396 4.12803 59.452 4.11503 59.507 4.08703C59.563 4.06003 59.62 4.04503 59.676 4.04503C59.704 4.01703 59.717 3.98803 59.717 3.96203C59.773 3.96203 59.828 3.94803 59.884 3.92003C59.884 3.89303 59.899 3.86503 59.925 3.83703C59.955 3.83703 59.981 3.82303 60.009 3.79503V3.75303C60.065 3.75303 60.119 3.73803 60.177 3.71103C60.232 3.68303 60.286 3.65503 60.342 3.62803C60.372 3.60003 60.4 3.57203 60.427 3.54603C60.454 3.54603 60.483 3.53003 60.509 3.50203H60.551C60.607 3.47403 60.663 3.44603 60.718 3.41903L60.761 3.37703V3.33503C60.817 3.33503 60.872 3.32103 60.926 3.29303C60.956 3.26503 60.968 3.23703 60.968 3.20903C60.998 3.20903 61.024 3.19603 61.051 3.16803V3.12603C61.108 3.12603 61.148 3.12603 61.177 3.12603C61.205 3.12603 61.245 3.14003 61.301 3.16803C61.33 3.19603 61.344 3.22403 61.344 3.25303C61.344 3.28003 61.357 3.30803 61.385 3.33503C61.385 3.36303 61.385 3.39003 61.385 3.41803C61.385 3.44503 61.385 3.47303 61.385 3.50103V3.54503C61.385 3.57103 61.385 3.59903 61.385 3.62703C61.385 3.65503 61.385 3.68303 61.385 3.71003C61.385 3.73703 61.4 3.76503 61.427 3.79303C61.456 3.82203 61.469 3.84903 61.469 3.87603C61.498 3.90403 61.513 3.93203 61.513 3.95903C61.513 3.98603 61.525 4.01503 61.553 4.04203C61.553 4.07003 61.553 4.09803 61.553 4.12503L61.595 4.16703C61.624 4.19503 61.652 4.22403 61.679 4.25103C61.679 4.27703 61.693 4.30603 61.721 4.33403C61.748 4.36203 61.763 4.39003 61.763 4.41803L61.804 4.45903C62.416 4.45903 63.03 4.45903 63.642 4.45903C63.642 4.43103 63.656 4.41803 63.684 4.41803C63.713 4.41803 63.752 4.41803 63.809 4.41803V4.37803C63.864 4.37803 63.935 4.37803 64.02 4.37803C64.075 4.40803 64.129 4.43503 64.186 4.46203C64.214 4.49003 64.241 4.51803 64.269 4.54503C64.269 4.57303 64.283 4.58703 64.309 4.58703C64.309 4.61603 64.309 4.64403 64.309 4.67103V4.71203C64.337 4.71203 64.367 4.72703 64.393 4.75403C64.421 4.78103 64.449 4.79503 64.477 4.79503C64.477 4.82303 64.49 4.85103 64.518 4.87803C64.518 4.90603 64.518 4.93603 64.518 4.96103C64.535 4.97903 64.549 4.99103 64.56 5.00303C64.588 5.03103 64.615 5.05903 64.643 5.08603C64.671 5.11503 64.699 5.14303 64.726 5.16903C64.726 5.19803 64.739 5.22703 64.768 5.25303C64.768 5.28103 64.782 5.30803 64.81 5.33603C64.837 5.33603 64.88 5.33603 64.935 5.33603V5.29703C70.17 5.29703 75.391 5.29703 80.595 5.29703C80.624 5.26903 80.652 5.24103 80.679 5.21403C80.709 5.21403 80.735 5.20003 80.764 5.17103C80.791 5.14403 80.819 5.11603 80.847 5.08803C80.874 5.06103 80.887 5.03303 80.887 5.00503C80.917 4.97603 80.93 4.94803 80.93 4.92203C80.958 4.89403 80.972 4.86603 80.972 4.83903C80.972 4.81003 80.984 4.78103 81.013 4.75503C81.013 4.72703 81.013 4.69903 81.013 4.67203C81.041 4.64403 81.07 4.61603 81.096 4.58803C81.124 4.58803 81.138 4.57403 81.138 4.54603C81.165 4.51803 81.18 4.49003 81.18 4.46303C81.18 4.43603 81.193 4.40803 81.221 4.37903C81.221 4.35203 81.221 4.32403 81.221 4.29803C81.221 4.26803 81.221 4.24103 81.221 4.21403C81.221 4.18503 81.221 4.15703 81.221 4.13003C81.221 4.10303 81.221 4.07403 81.221 4.04703C81.193 4.01903 81.18 3.99003 81.18 3.96403C81.151 3.96403 81.138 3.95003 81.138 3.92203C81.138 3.89503 81.138 3.86703 81.138 3.83903C81.138 3.81003 81.138 3.78203 81.138 3.75603C81.138 3.72703 81.138 3.70003 81.138 3.67303C81.138 3.64603 81.138 3.61603 81.138 3.59003C81.138 3.56103 81.138 3.53303 81.138 3.50503C81.138 3.47703 81.138 3.44903 81.138 3.42203C81.138 3.39403 81.138 3.36603 81.138 3.33903V3.29303C81.138 3.26503 81.138 3.23703 81.138 3.20903C81.138 3.18103 81.138 3.15403 81.138 3.12603C81.138 3.09903 81.138 3.07003 81.138 3.04303C81.138 3.01203 81.138 2.98503 81.138 2.95803C81.138 2.93103 81.138 2.90303 81.138 2.87503C81.138 2.84703 81.138 2.81803 81.138 2.79203C81.138 2.76403 81.138 2.73803 81.138 2.70903V2.66603C81.138 2.63903 81.138 2.61103 81.138 2.58303C81.138 2.55603 81.138 2.52703 81.138 2.49903C81.138 2.47103 81.138 2.44403 81.138 2.41603C81.165 2.38803 81.193 2.36003 81.221 2.33203C81.251 2.30603 81.293 2.29103 81.346 2.29103C81.429 2.29103 81.515 2.27603 81.597 2.24903C81.659 2.24903 81.716 2.23503 81.771 2.20703ZM82.835 2.68603L82.856 2.66603C82.87 2.65303 82.891 2.63903 82.919 2.62503H82.897C82.857 2.62503 82.814 2.62503 82.773 2.62503C82.787 2.63903 82.8 2.65403 82.815 2.66603L82.835 2.68603ZM80.268 11.104C80.21 11.13 80.156 11.158 80.1 11.186C80.183 11.186 80.268 11.186 80.35 11.186L80.371 11.145C80.352 11.129 80.331 11.116 80.309 11.104L80.287 11.083L80.268 11.104ZM55.605 3.19003C55.643 3.20303 55.679 3.21603 55.711 3.23003V3.20903L55.628 3.16803L55.605 3.19003ZM41.887 16.155C41.859 16.183 41.846 16.211 41.846 16.238C41.817 16.266 41.79 16.294 41.762 16.322C41.791 16.351 41.803 16.379 41.803 16.406C41.803 16.432 41.803 16.461 41.803 16.489C41.803 16.517 41.803 16.546 41.803 16.573C41.803 16.599 41.803 16.629 41.803 16.656C41.803 16.684 41.803 16.711 41.803 16.739C41.803 16.768 41.803 16.796 41.803 16.824V16.865C41.803 16.892 41.803 16.921 41.803 16.948C41.803 16.975 41.803 17.005 41.803 17.031C41.803 17.059 41.803 17.086 41.803 17.114C41.803 17.143 41.803 17.171 41.803 17.198C41.777 17.225 41.762 17.254 41.762 17.281C41.734 17.31 41.722 17.339 41.722 17.366C41.694 17.393 41.68 17.421 41.68 17.449L41.638 17.491C41.638 17.52 41.624 17.548 41.596 17.575V17.867C41.596 17.895 41.596 17.924 41.596 17.95C41.596 17.978 41.596 18.006 41.596 18.033V18.075C41.596 18.102 41.596 18.132 41.596 18.159C41.596 18.186 41.596 18.215 41.596 18.242C41.596 18.27 41.596 18.3 41.596 18.325C41.596 18.354 41.596 18.383 41.596 18.411C41.596 18.437 41.596 18.465 41.596 18.494C41.596 18.522 41.596 18.55 41.596 18.577V18.62C41.596 18.645 41.609 18.674 41.638 18.702C41.638 18.73 41.638 18.758 41.638 18.785C41.638 18.812 41.638 18.841 41.638 18.868C41.638 18.897 41.651 18.925 41.68 18.952C41.68 18.981 41.694 19.007 41.722 19.035C41.749 19.063 41.791 19.091 41.847 19.118C41.847 19.146 41.847 19.174 41.847 19.201C41.873 19.229 41.888 19.257 41.888 19.285V19.327C43.281 19.327 44.672 19.327 46.064 19.327C46.092 19.355 46.134 19.368 46.189 19.368C46.218 19.368 46.231 19.383 46.231 19.41C46.509 19.41 46.774 19.41 47.025 19.41C47.081 19.41 47.149 19.41 47.233 19.41C47.344 19.41 47.443 19.41 47.525 19.41C47.553 19.382 47.582 19.368 47.609 19.368C47.636 19.368 47.679 19.355 47.733 19.327C47.761 19.327 47.804 19.313 47.859 19.285C47.887 19.285 47.914 19.272 47.943 19.243C47.971 19.243 48.01 19.228 48.066 19.201C48.121 19.201 48.178 19.188 48.233 19.16C48.263 19.132 48.303 19.104 48.36 19.077C48.387 19.049 48.416 19.021 48.443 18.993C48.498 18.966 48.554 18.938 48.61 18.91C48.638 18.91 48.666 18.91 48.693 18.91C48.693 18.882 48.693 18.853 48.693 18.827C48.693 18.799 48.693 18.771 48.693 18.744C48.693 18.717 48.693 18.688 48.693 18.66C48.693 18.632 48.693 18.605 48.693 18.577C48.693 18.549 48.693 18.521 48.693 18.494V18.452C48.693 18.424 48.693 18.398 48.693 18.369C48.693 18.341 48.693 18.314 48.693 18.286C48.693 18.258 48.693 18.23 48.693 18.203C48.693 18.176 48.693 18.148 48.693 18.12C48.693 18.091 48.693 18.062 48.693 18.035C48.693 18.008 48.693 17.98 48.693 17.952C48.693 17.925 48.693 17.896 48.693 17.869V17.827C48.693 17.8 48.693 17.772 48.693 17.743C48.693 17.717 48.693 17.688 48.693 17.661C48.693 17.632 48.693 17.605 48.693 17.578C48.693 17.551 48.693 17.522 48.693 17.494C48.693 17.466 48.693 17.439 48.693 17.41C48.693 17.384 48.693 17.356 48.693 17.328C48.693 17.299 48.693 17.271 48.693 17.244V17.202C48.693 17.174 48.693 17.146 48.693 17.118C48.693 17.09 48.693 17.063 48.693 17.035C48.693 17.008 48.693 16.979 48.693 16.952C48.693 16.925 48.693 16.895 48.693 16.869C48.693 16.841 48.693 16.813 48.693 16.786C48.693 16.757 48.693 16.728 48.693 16.701C48.693 16.674 48.693 16.645 48.693 16.619V16.574C48.693 16.546 48.693 16.517 48.693 16.49C48.693 16.463 48.693 16.434 48.693 16.407C48.693 16.379 48.693 16.351 48.693 16.323C48.693 16.295 48.693 16.267 48.693 16.239V15.947C48.693 15.919 48.693 15.892 48.693 15.864V15.823C47.18 15.823 45.669 15.823 44.162 15.823L44.142 15.864C44.114 15.892 44.1 15.919 44.1 15.947C44.1 15.975 44.1 16.004 44.1 16.03C44.1 16.058 44.1 16.087 44.1 16.113C44.1 16.141 44.1 16.17 44.1 16.197C44.1 16.224 44.1 16.253 44.1 16.28C44.1 16.308 44.1 16.337 44.1 16.364V16.406C44.1 16.432 44.115 16.461 44.142 16.489C44.142 16.517 44.156 16.546 44.184 16.573C44.184 16.599 44.184 16.629 44.184 16.656C44.184 16.684 44.184 16.711 44.184 16.739C44.184 16.768 44.184 16.796 44.184 16.824C44.212 16.852 44.239 16.879 44.267 16.907C44.267 16.934 44.267 16.962 44.267 16.991L44.309 17.032C44.309 17.06 44.323 17.087 44.351 17.115C44.379 17.144 44.407 17.172 44.434 17.199C44.461 17.226 44.476 17.255 44.476 17.282C44.504 17.311 44.519 17.34 44.519 17.367C44.546 17.394 44.559 17.422 44.559 17.45C44.587 17.478 44.629 17.505 44.684 17.533C44.684 17.561 44.684 17.589 44.684 17.616L44.726 17.658C44.726 17.685 44.74 17.714 44.767 17.74C44.795 17.769 44.823 17.797 44.85 17.824C44.88 17.852 44.906 17.88 44.934 17.908C44.963 17.936 44.975 17.964 44.975 17.991C45.003 18.019 45.031 18.031 45.059 18.031C45.087 18.059 45.115 18.073 45.142 18.073C45.169 18.073 45.211 18.087 45.267 18.116C45.297 18.144 45.309 18.172 45.309 18.199C45.337 18.227 45.351 18.254 45.351 18.282C45.351 18.31 45.351 18.338 45.351 18.365C45.351 18.395 45.351 18.421 45.351 18.448L45.309 18.49C45.282 18.518 45.267 18.546 45.267 18.573H45.226C45.226 18.601 45.226 18.628 45.226 18.656L45.184 18.698C45.156 18.726 45.142 18.754 45.142 18.781H45.1C45.074 18.809 45.046 18.823 45.017 18.823C44.905 18.823 44.808 18.823 44.725 18.823C44.669 18.795 44.628 18.781 44.601 18.781C44.572 18.753 44.558 18.725 44.558 18.698H44.518C44.46 18.67 44.406 18.656 44.35 18.656C44.293 18.628 44.238 18.601 44.183 18.573C44.155 18.545 44.141 18.517 44.141 18.49H44.099C44.043 18.461 44.002 18.448 43.974 18.448C43.918 18.42 43.876 18.394 43.848 18.365C43.821 18.337 43.792 18.31 43.765 18.282C43.707 18.253 43.667 18.24 43.638 18.24C43.611 18.213 43.583 18.185 43.556 18.157C43.528 18.129 43.5 18.1 43.471 18.073C43.444 18.045 43.415 18.018 43.388 17.99C43.36 17.962 43.332 17.934 43.305 17.907C43.278 17.878 43.249 17.85 43.221 17.823C43.193 17.796 43.166 17.768 43.138 17.739C43.11 17.713 43.096 17.684 43.096 17.657C43.068 17.657 43.054 17.642 43.054 17.615C43.027 17.587 43.013 17.559 43.013 17.532C42.983 17.503 42.956 17.476 42.928 17.449C42.928 17.421 42.928 17.393 42.928 17.366C42.928 17.338 42.928 17.309 42.928 17.281C42.9 17.254 42.886 17.225 42.886 17.198C42.886 17.17 42.886 17.142 42.886 17.114C42.859 17.086 42.845 17.059 42.845 17.031V16.99C42.845 16.961 42.845 16.933 42.845 16.906C42.845 16.878 42.831 16.851 42.803 16.823C42.803 16.795 42.788 16.767 42.761 16.738C42.733 16.71 42.719 16.683 42.719 16.655C42.719 16.628 42.719 16.599 42.719 16.572C42.719 16.544 42.719 16.515 42.719 16.488C42.719 16.461 42.719 16.432 42.719 16.405V16.363C42.69 16.335 42.677 16.306 42.677 16.279C42.677 16.252 42.663 16.223 42.635 16.196C42.635 16.168 42.635 16.139 42.635 16.112C42.635 16.085 42.635 16.056 42.635 16.029C42.635 16.002 42.635 15.973 42.635 15.946C42.635 15.919 42.635 15.891 42.635 15.863V15.822C42.579 15.822 42.524 15.822 42.468 15.822C42.44 15.848 42.412 15.863 42.383 15.863C42.327 15.891 42.274 15.918 42.218 15.946C42.163 15.974 42.106 15.988 42.051 15.988C42.022 16.017 41.995 16.043 41.968 16.072C41.944 16.1 41.915 16.128 41.887 16.155ZM44.54 18.181L44.52 18.202L44.56 18.244V18.202L44.54 18.181ZM23.052 15.029H23.073C23.149 15.026 23.226 15.012 23.304 14.988C23.359 14.988 23.413 14.971 23.469 14.945C23.498 14.945 23.526 14.932 23.553 14.904C23.609 14.904 23.664 14.889 23.72 14.862C23.859 14.834 23.985 14.805 24.095 14.778C24.206 14.75 24.304 14.709 24.387 14.652C24.443 14.625 24.499 14.597 24.554 14.57C24.609 14.57 24.665 14.555 24.721 14.528C24.833 14.5 24.93 14.472 25.015 14.445C25.04 14.431 25.06 14.418 25.076 14.403C25.103 14.376 25.124 14.349 25.139 14.32C25.195 14.291 25.25 14.25 25.306 14.193C25.362 14.165 25.418 14.138 25.473 14.11C17.956 14.11 10.453 14.11 2.965 14.11C2.965 14.138 2.95 14.165 2.921 14.193V14.215C2.909 14.215 2.894 14.221 2.881 14.236H2.84C2.812 14.236 2.784 14.25 2.757 14.278L2.674 14.362V14.403C2.646 14.403 2.632 14.418 2.632 14.445V14.487C2.604 14.487 2.591 14.501 2.591 14.529V15.198C2.591 15.226 2.604 15.238 2.632 15.238V18.287C2.604 18.287 2.591 18.303 2.591 18.328V18.914C2.563 18.914 2.549 18.928 2.549 18.956V20.333C2.549 20.361 2.564 20.376 2.591 20.376V20.459H2.632V20.583C2.632 20.611 2.647 20.624 2.674 20.624V20.708H2.715V20.75L2.757 20.792V20.834H2.8C2.826 20.861 2.855 20.875 2.883 20.875C2.911 20.875 2.923 20.89 2.923 20.917C2.952 20.917 2.98 20.917 3.008 20.917H3.09V20.958C3.09 21.014 3.077 21.057 3.049 21.085C3.049 21.117 3.042 21.144 3.028 21.168C3.05 21.168 3.071 21.168 3.091 21.168C3.119 21.195 3.133 21.225 3.133 21.252L3.176 21.293V21.335C3.176 21.362 3.162 21.39 3.133 21.418C3.133 21.445 3.119 21.474 3.091 21.501C3.063 21.501 3.021 21.515 2.967 21.543C2.918 21.543 2.875 21.543 2.841 21.543C2.825 21.559 2.811 21.573 2.8 21.584C2.8 21.608 2.8 21.631 2.8 21.647C2.837 21.646 2.88 21.638 2.923 21.626C2.952 21.626 2.98 21.613 3.008 21.584C3.063 21.584 3.119 21.569 3.176 21.543C3.258 21.543 3.342 21.528 3.426 21.501C3.481 21.501 3.536 21.487 3.593 21.459C3.62 21.459 3.649 21.445 3.676 21.418C3.732 21.418 3.787 21.402 3.843 21.376C3.927 21.346 4.01 21.32 4.093 21.292C4.177 21.265 4.26 21.223 4.344 21.167C4.4 21.139 4.455 21.112 4.511 21.084C4.567 21.084 4.622 21.069 4.678 21.042C4.761 21.042 4.845 21.028 4.929 20.999C4.984 20.999 5.039 20.984 5.095 20.957C5.123 20.957 5.152 20.945 5.178 20.916C5.234 20.916 5.29 20.903 5.346 20.874C5.429 20.846 5.512 20.819 5.596 20.791C5.708 20.761 5.819 20.721 5.93 20.666C6.013 20.637 6.098 20.609 6.182 20.582C6.236 20.582 6.292 20.567 6.347 20.54C6.43 20.513 6.515 20.485 6.597 20.458C6.681 20.428 6.764 20.402 6.849 20.375C6.931 20.347 7.014 20.317 7.099 20.291C7.183 20.263 7.266 20.234 7.35 20.207C7.433 20.179 7.515 20.151 7.6 20.124C7.683 20.095 7.767 20.068 7.85 20.04C7.933 20.014 8.016 19.986 8.1 19.958C8.183 19.929 8.266 19.901 8.35 19.874C8.433 19.845 8.517 19.817 8.6 19.791C8.684 19.763 8.768 19.734 8.85 19.707C8.934 19.707 9.017 19.694 9.101 19.665C9.212 19.665 9.324 19.65 9.434 19.623C9.463 19.623 9.491 19.609 9.518 19.582C9.574 19.582 9.629 19.567 9.685 19.54C9.768 19.54 9.853 19.526 9.937 19.499C10.018 19.471 10.102 19.442 10.185 19.415C10.269 19.387 10.353 19.346 10.435 19.29C10.522 19.261 10.603 19.233 10.687 19.206C10.77 19.178 10.854 19.15 10.937 19.123C11.021 19.095 11.106 19.054 11.187 18.998C11.244 18.971 11.298 18.943 11.354 18.915C11.438 18.887 11.508 18.858 11.564 18.832C11.647 18.804 11.718 18.762 11.773 18.706C11.828 18.678 11.884 18.649 11.938 18.624C11.966 18.624 11.994 18.609 12.022 18.581C12.077 18.581 12.134 18.566 12.189 18.539C12.273 18.539 12.357 18.526 12.439 18.498C12.635 18.469 12.83 18.441 13.024 18.415C13.108 18.387 13.191 18.344 13.275 18.288C13.358 18.259 13.442 18.232 13.524 18.205C13.608 18.178 13.693 18.15 13.775 18.122C13.859 18.093 13.943 18.064 14.027 18.037C14.11 18.037 14.192 18.025 14.275 17.997C14.333 17.997 14.387 17.982 14.444 17.955C14.472 17.955 14.498 17.942 14.527 17.914C14.583 17.914 14.639 17.899 14.694 17.872C14.777 17.844 14.862 17.818 14.944 17.789C15.027 17.761 15.11 17.733 15.194 17.706C15.277 17.677 15.36 17.65 15.445 17.623C15.527 17.595 15.612 17.567 15.695 17.54C15.778 17.54 15.862 17.527 15.945 17.498C16.029 17.47 16.112 17.443 16.195 17.414C16.278 17.388 16.363 17.346 16.447 17.289C16.529 17.262 16.613 17.233 16.697 17.206C16.779 17.206 16.862 17.191 16.947 17.165C17.085 17.137 17.21 17.108 17.322 17.08C17.433 17.053 17.531 17.012 17.615 16.955C17.697 16.927 17.781 16.898 17.865 16.872C17.948 16.844 18.032 16.816 18.115 16.789C18.199 16.76 18.283 16.731 18.365 16.704C18.449 16.677 18.533 16.648 18.617 16.622C18.699 16.593 18.783 16.566 18.867 16.536C18.95 16.509 19.035 16.481 19.117 16.454C19.173 16.426 19.228 16.385 19.284 16.329C19.34 16.301 19.395 16.26 19.451 16.204C19.48 16.188 19.508 16.176 19.534 16.162C19.563 16.147 19.592 16.134 19.617 16.12C19.643 16.12 19.672 16.107 19.7 16.079C19.757 16.079 19.812 16.064 19.868 16.037C19.891 16.037 19.91 16.037 19.931 16.037C19.994 16.03 20.056 16.016 20.118 15.995C20.23 15.995 20.343 15.981 20.453 15.953C20.48 15.953 20.509 15.939 20.536 15.912C20.593 15.912 20.647 15.898 20.702 15.87C20.786 15.841 20.87 15.814 20.954 15.787C21.064 15.757 21.176 15.717 21.287 15.661C21.399 15.633 21.511 15.592 21.62 15.536C21.677 15.509 21.733 15.481 21.788 15.453L21.851 15.432L21.872 15.41C21.892 15.41 21.913 15.41 21.936 15.41L22.791 15.118C22.887 15.085 22.97 15.057 23.052 15.029ZM31.551 15.008C31.441 15.029 31.322 15.05 31.196 15.071C31.14 15.127 31.071 15.167 30.988 15.197C30.905 15.225 30.821 15.252 30.738 15.28C30.781 15.28 30.822 15.28 30.864 15.28C31.063 15.28 31.258 15.28 31.448 15.28C31.476 15.28 31.517 15.28 31.573 15.28C31.601 15.28 31.629 15.28 31.656 15.28L31.698 15.322C31.744 15.322 31.786 15.322 31.823 15.322C31.767 15.265 31.713 15.209 31.656 15.154C31.639 15.12 31.619 15.087 31.593 15.05C31.579 15.036 31.567 15.022 31.551 15.008Z" fill="#9FB1C9"/>
</svg>
