<svg width="48" height="32" viewBox="0 0 48 32" fill="none" xmlns="http://www.w3.org/2000/svg">
<g clip-path="url(#clip0_28409_24638)">
<path fill-rule="evenodd" clip-rule="evenodd" d="M8.38703 1.28223V1.47423L8.77103 1.51323V1.93523L35.968 1.85823V1.62523L36.198 1.47323L37.004 1.51223L37.465 1.78123V1.93423H37.657V2.35623L38.003 2.62423H38.54L38.617 2.70323C38.697 2.75423 38.746 2.80523 38.773 2.85723C38.798 2.90823 38.811 2.97123 38.811 3.04623C38.811 3.07223 38.811 3.09823 38.811 3.12323H47.339L47.416 3.20223C47.441 3.25223 47.467 3.32723 47.492 3.43123C47.62 3.68923 47.686 3.99623 47.686 4.35423C47.686 4.71023 47.648 5.05823 47.569 5.39123C47.517 5.56923 47.467 5.69823 47.416 5.77523L38.733 5.81323L38.58 6.15923H37.813V7.65623C37.762 7.81023 37.71 7.91323 37.659 7.96323C37.607 8.04123 37.557 8.09223 37.506 8.11723L37.43 8.15623H31.665L31.474 8.57923H32.012C32.448 8.63023 32.834 8.73223 33.164 8.88823C33.498 9.04023 33.792 9.20723 34.049 9.38723C34.175 9.48823 34.266 9.56423 34.316 9.61623L34.163 9.81023H30.897L36.351 28.6692L36.045 28.8222L36.122 28.8622C36.199 28.8862 36.273 28.9122 36.351 28.9382C36.455 28.9892 36.558 29.0662 36.659 29.1692V29.6282C36.634 29.6542 36.597 29.6932 36.546 29.7452C36.418 29.8212 36.25 29.8982 36.046 29.9762C35.867 30.0772 35.69 30.1522 35.509 30.2052L35.316 30.2442H34.778L34.699 30.4732H33.394V30.8952H30.513V30.5122L24.674 9.88623L24.328 9.65423L23.791 10.6532L23.753 11.5362H23.867L23.906 11.6892L24.058 11.7302V14.1882L23.906 14.2272V14.3802L22.447 14.8802C22.011 15.0342 21.5 15.1882 20.91 15.3412C19.756 15.6482 18.809 15.7632 18.067 15.6882C17.402 15.6112 16.723 15.4582 16.03 15.2252C15.825 15.1742 15.622 15.1122 15.416 15.0342L15.225 14.9182L14.801 15.2652L14.147 15.4582L13.994 15.7252L12.611 19.0282C11.637 21.4362 10.986 23.0622 10.653 23.9082C10.6 24.0362 10.576 24.1522 10.576 24.2542C10.55 24.4092 10.55 24.5872 10.576 24.7902C10.6 25.1252 10.663 25.5592 10.767 26.0972L11.496 26.1362C11.624 26.1622 11.715 26.1862 11.764 26.2122C11.841 26.2412 11.916 26.2912 11.996 26.3682C12.022 26.4192 12.045 26.4572 12.073 26.4822L12.034 26.5582L11.612 26.9422C11.252 27.2242 10.906 27.4292 10.575 27.5572C10.215 27.6862 9.74203 27.7992 9.15403 27.9052L8.38403 28.0182L1.70103 28.0952L1.47003 27.8292L1.39303 27.0592L0.856031 26.9432C0.703031 26.9432 0.599031 26.9182 0.547031 26.8662C0.497031 26.8662 0.459031 26.8422 0.433031 26.7902L0.397031 26.7102C0.397031 26.5822 0.384031 26.4282 0.359031 26.2472C0.308031 26.1212 0.270031 26.0042 0.246031 25.9022C0.217031 25.7222 0.207031 25.4562 0.207031 25.0962C0.207031 24.7372 0.246031 24.3922 0.320031 24.0592L3.73903 14.8782C3.91903 14.6492 4.09703 14.3912 4.27703 14.1102C4.66103 13.5462 4.87903 13.1882 4.93103 13.0362C5.00803 12.7782 5.05803 12.5722 5.08303 12.4192C5.13503 12.1892 5.12103 11.9592 5.04503 11.7282C4.96803 11.4462 4.83903 11.1532 4.66003 10.8452C4.50703 10.5642 4.31403 10.2942 4.08403 10.0372C3.90603 9.85923 3.61103 9.61623 3.20203 9.31023L2.66603 8.88823V8.23323C2.79303 8.23323 2.94603 8.18323 3.12603 8.08023C3.51003 7.90023 3.85403 7.63123 4.16103 7.27223C4.47003 6.88823 4.68603 6.47823 4.81403 6.04523C4.84003 5.91523 4.86603 5.78823 4.89203 5.66023V5.50523C4.86603 5.48123 4.84003 5.44123 4.81403 5.39123C4.73803 5.28823 4.64803 5.19923 4.54603 5.12323C4.44303 5.04723 4.31603 4.99423 4.16103 4.96823L3.97003 4.89123C3.86803 4.91523 3.76603 4.92923 3.66303 4.92923C3.40603 4.90523 3.21603 4.83923 3.08703 4.73723C2.90803 4.63523 2.79203 4.49523 2.74103 4.31623C2.64003 4.08423 2.64003 3.82923 2.74103 3.54623C2.84403 3.23923 3.03603 3.04623 3.31803 2.97023C3.49703 2.91923 3.68903 2.91923 3.89303 2.97023C3.97103 2.97023 4.12403 3.09723 4.35603 3.35423C4.48203 3.48223 4.59903 3.61123 4.69803 3.74023V4.16223L4.89203 4.39223L4.93203 3.93023C4.95703 3.80323 4.98403 3.67423 5.00903 3.54623C5.08503 3.26423 5.19903 3.03523 5.35403 2.85723C5.48203 2.67523 5.69903 2.51023 6.00603 2.35723C6.16003 2.28023 6.30103 2.22923 6.42903 2.20423V1.93423H7.65703V1.28223H8.38703ZM18.182 9.96223C17.978 9.98623 17.748 10.0502 17.491 10.1522C16.954 10.3822 16.507 10.7172 16.148 11.1532C15.787 11.5862 15.56 12.0722 15.456 12.6132C15.379 12.8942 15.34 13.1212 15.34 13.3032L15.379 13.4552C15.429 13.5832 15.494 13.7132 15.57 13.8412C15.8 14.2502 16.185 14.5952 16.723 14.8772C17.056 15.0572 17.517 15.1712 18.105 15.2222C18.745 15.3012 19.309 15.2882 19.795 15.1852C20.871 14.9292 21.779 14.5322 22.523 13.9962C22.702 13.8422 22.854 13.6642 22.982 13.4562C23.059 13.3282 23.124 13.1742 23.174 12.9962C23.202 12.8952 23.212 12.5622 23.212 11.9962C23.212 11.4342 23.188 11.0362 23.135 10.8072C23.112 10.6522 22.957 10.3832 22.675 9.99923C22.394 9.64323 22.163 9.41123 21.985 9.30923C21.754 9.18123 21.538 9.13023 21.332 9.15623C21.177 9.15623 20.987 9.19323 20.754 9.26923C20.601 9.32223 20.471 9.42423 20.372 9.57723L20.255 9.77023L20.448 9.80923L20.41 10.1932C20.384 10.2172 20.358 10.2542 20.332 10.3062C20.255 10.4342 20.192 10.5512 20.141 10.6522C19.961 11.0362 19.871 11.3972 19.871 11.7282C19.871 12.0872 19.912 12.3942 19.989 12.6492C20.038 12.8032 20.155 13.0362 20.333 13.3422C20.436 13.5202 20.665 13.7132 21.026 13.9172C21.202 14.0192 21.382 14.0972 21.563 14.1482V14.3382C21.333 14.3642 21.063 14.3272 20.755 14.2242C20.166 14.0442 19.705 13.7252 19.373 13.2652C19.196 12.9842 19.065 12.5612 18.99 11.9952C18.964 11.8172 18.939 11.6252 18.912 11.4212V11.1902C18.887 11.0872 18.862 10.9602 18.835 10.8062C18.758 10.5502 18.708 10.4082 18.681 10.3822C18.631 10.3322 18.529 10.2422 18.374 10.1142L18.182 9.96223Z" fill="#9FB1C9"/>
</g>
<defs>
<clipPath id="clip0_28409_24638">
<rect width="47.875" height="32" fill="white"/>
</clipPath>
</defs>
</svg>
