<svg width="52" height="32" viewBox="0 0 52 32" fill="none" xmlns="http://www.w3.org/2000/svg">
<g clip-path="url(#clip0_28409_24639)">
<path fill-rule="evenodd" clip-rule="evenodd" d="M51.1871 3.25682C51.2431 3.28582 51.3271 3.29882 51.4401 3.29882L51.3991 4.31282L51.5681 5.70982C51.5091 5.99182 51.4261 6.28682 51.3151 6.59682C51.2581 6.87982 51.1731 7.14582 51.0591 7.39982C50.9761 7.76682 50.8911 8.07682 50.8081 8.33082C50.6381 9.03482 50.4691 9.57082 50.3001 9.93882C50.1581 10.3048 50.0601 10.5728 50.0031 10.7418C49.9201 10.8818 49.8481 10.9668 49.7921 10.9948C49.7631 11.0518 49.7221 11.0808 49.6661 11.0808H30.1711C30.1431 11.0808 29.9461 11.1228 29.5791 11.2068C29.1831 11.3758 28.7481 11.6888 28.2671 12.1358C27.8451 12.5598 27.4501 13.1808 27.0831 13.9968C26.6611 14.7868 26.4481 15.8858 26.4481 17.2958V17.7608H26.3651C26.3371 17.7868 26.0571 17.8588 25.5201 17.9698C25.0131 18.0838 24.3941 18.1688 23.6601 18.2258C22.9531 18.3108 22.1801 18.3508 21.3331 18.3508C20.4871 18.3238 19.7561 18.1968 19.1341 17.9688C18.9361 18.0278 18.6831 18.2118 18.3731 18.5218C18.0341 18.8858 17.8511 19.2818 17.8241 19.7028C17.7941 19.9578 17.7121 20.4798 17.5681 21.2688C17.4281 22.0858 17.2601 22.9458 17.0621 23.8478C16.8931 24.7498 16.7511 25.5808 16.6411 26.3438C16.4691 27.0768 16.3731 27.4998 16.3451 27.6118L17.0211 29.5148H16.8931C15.5671 29.6818 14.2151 29.8388 12.8331 29.9798C11.6521 30.0628 10.3691 30.1348 8.98611 30.1918C7.60411 30.2178 6.26411 30.1498 4.96911 29.9798C4.88511 29.9798 4.78611 29.9668 4.67211 29.9358C4.44611 29.8528 4.27811 29.7118 4.16711 29.5148C3.99611 29.2328 3.91211 28.7258 3.91211 27.9928C3.91211 27.5418 3.95411 26.9638 4.03811 26.2568C4.15111 25.5818 4.36111 24.7918 4.67211 23.8908C4.92611 22.9598 5.29211 21.8758 5.77311 20.6338C6.25111 19.3938 6.85711 17.9688 7.59111 16.3628V16.1958C7.59111 16.1108 7.60411 16.0108 7.63211 15.8988C7.66111 15.7288 7.67611 15.5448 7.67611 15.3478C7.67611 14.7848 7.54811 14.2098 7.29411 13.6138C7.06911 13.0508 6.49111 12.6838 5.56111 12.5158C5.50511 12.5158 5.26511 12.5038 4.84311 12.4738C4.39111 12.4738 3.89711 12.4448 3.36511 12.3908C2.85411 12.3908 2.36211 12.3758 1.88311 12.3468C1.43311 12.3468 1.19111 12.3468 1.16311 12.3468L1.03711 12.2218V12.0928C1.03711 11.9548 1.07911 11.8558 1.16311 11.7988C1.24711 11.4888 1.54411 11.1788 2.05311 10.8678C2.53111 10.5578 3.40611 10.2478 4.67311 9.93882C4.70211 9.90982 4.80111 9.74082 4.97011 9.43082C5.13811 9.12082 5.22511 8.75382 5.22511 8.33082C5.22511 8.16282 5.21011 8.02182 5.18111 7.90782C5.15411 7.76682 5.08211 7.58482 4.97011 7.35882C4.88611 7.29982 4.78811 7.18982 4.67311 7.02082C4.53211 6.79482 4.32211 6.38582 4.04011 5.79182V4.99182L4.84411 4.77882C4.92711 4.83482 4.99911 4.87682 5.05511 4.90582C5.16811 5.01982 5.25211 5.07582 5.30811 5.07582H6.74611C6.74611 5.01982 6.80511 4.90582 6.91511 4.73782C6.94411 4.62482 6.99911 4.52682 7.08311 4.44282L8.35511 3.29882C8.40911 3.27082 8.49311 3.24282 8.60611 3.21582C8.71911 3.15982 8.81911 3.10282 8.90411 3.04582V2.41082C8.90411 2.27182 8.91811 2.08682 8.94411 1.86182H10.5091L11.6081 2.96182L13.4691 2.91982L14.1031 2.58082L21.7561 2.53882C21.8411 2.65282 21.9111 2.74782 21.9681 2.83282C22.1081 2.97482 22.2081 3.04482 22.2631 3.04482L32.2011 3.21482L32.3271 3.29782C32.3551 3.35382 32.4121 3.38082 32.4961 3.38082H33.0451C33.0751 3.32482 33.0881 3.28482 33.0881 3.25582C33.0881 3.20082 33.1021 3.15782 33.1301 3.12782C33.1861 3.07182 33.2421 3.01782 33.2981 2.96082L44.4621 3.04382C44.4621 3.12682 44.4771 3.20082 44.5041 3.25582C44.5041 3.33982 44.5181 3.40982 44.5461 3.46782C44.5461 3.52382 44.5461 3.56482 44.5461 3.59382H45.1371C45.1371 3.56482 45.1661 3.46782 45.2211 3.29782C45.2481 3.24182 45.3051 3.18582 45.3891 3.12782H47.5881C47.6471 3.10182 47.7711 3.03082 47.9691 2.91882C48.1661 2.77582 48.3641 2.65182 48.5631 2.53782C48.7581 2.39582 48.9691 2.29782 49.1951 2.24182C49.3941 2.15582 49.5491 2.11382 49.6611 2.11382C49.8301 2.11382 49.9441 2.22682 49.9981 2.45282C50.0831 2.70682 50.1261 2.87382 50.1261 2.96082C50.2371 3.04382 50.3931 3.10182 50.5901 3.12782C50.6731 3.15882 50.7861 3.18682 50.9281 3.21482C50.9281 3.24182 50.9561 3.25682 51.0131 3.25682H51.1871ZM20.9121 11.7128C20.6301 11.7128 20.3911 11.7978 20.1911 11.9678C20.0241 12.1638 19.9401 12.4058 19.9401 12.6858V15.7738C19.9401 16.0268 20.0251 16.2648 20.1911 16.4928C20.3901 16.6618 20.6291 16.7448 20.9121 16.7448H24.2101C24.4921 16.7448 24.7311 16.6618 24.9281 16.4928C25.1531 16.2648 25.2671 16.0268 25.2671 15.7738V12.6858C25.2671 12.4058 25.1531 12.1648 24.9281 11.9678C24.7311 11.7988 24.4921 11.7128 24.2101 11.7128H20.9121Z" fill="#9FB1C9"/>
</g>
<defs>
<clipPath id="clip0_28409_24639">
<rect width="50.75" height="32" fill="white" transform="translate(0.875)"/>
</clipPath>
</defs>
</svg>
