<svg width="69" height="32" viewBox="0 0 69 32" fill="none" xmlns="http://www.w3.org/2000/svg">
<g clip-path="url(#clip0_28409_24640)">
<path fill-rule="evenodd" clip-rule="evenodd" d="M68.4832 6.396C68.6112 6.676 68.6742 6.968 68.6742 7.273C68.6742 7.475 68.6742 7.641 68.6742 7.769C68.6482 7.896 68.6362 8.035 68.6362 8.188C68.6362 8.213 68.6242 8.237 68.5992 8.264C68.5462 8.264 68.5232 8.289 68.5232 8.339C68.5232 8.365 68.5112 8.545 68.4832 8.874C68.4832 9.178 68.4712 9.495 68.4442 9.827C68.4212 10.182 68.4072 10.512 68.4072 10.819C68.3812 11.148 68.3682 11.351 68.3682 11.426V11.694H66.0062C66.0062 11.719 65.9682 11.808 65.8922 11.961C65.8672 11.961 65.8282 11.972 65.7792 11.997C65.7262 11.997 65.5762 12.011 65.3202 12.037C65.0922 12.061 64.7372 12.075 64.2542 12.075C63.7712 12.075 63.0982 12.075 62.2352 12.075C61.7772 12.075 61.3452 12.061 60.9392 12.037C60.5582 12.011 60.1922 11.997 59.8342 11.997H58.8452C58.6402 11.997 58.4512 12.023 58.2722 12.075C57.9182 12.125 57.5622 12.279 57.2072 12.531C56.8002 12.836 56.4582 13.141 56.1802 13.446C55.9242 13.777 55.7842 14.029 55.7602 14.207C55.7082 14.488 55.6822 14.754 55.6822 15.009C55.6822 15.236 55.6822 15.388 55.6822 15.465C55.8612 15.745 55.8852 15.935 55.7602 16.036C55.6592 16.164 55.5692 16.265 55.4932 16.342V16.456C55.4172 16.534 55.2252 16.609 54.9212 16.685C54.6412 16.738 54.3112 16.826 53.9312 16.953C53.5482 17.08 53.0922 17.207 52.5582 17.333C52.2282 17.409 51.7712 17.436 51.1862 17.409C50.6032 17.409 49.7892 17.308 48.7482 17.104C48.2142 17.029 47.8212 17.029 47.5672 17.104C47.2632 17.181 47.0212 17.283 46.8422 17.409C46.6662 17.537 46.5502 17.677 46.5002 17.828L44.9772 23.088C44.9772 23.113 44.9642 23.137 44.9392 23.164V23.314C44.9392 23.467 44.9532 23.684 44.9772 23.962C45.0282 24.266 45.0922 24.7 45.1672 25.258V25.866C45.1672 26.501 45.0402 26.997 44.7862 27.352C44.6582 27.454 44.5332 27.518 44.4042 27.544C44.2782 27.569 44.2022 27.581 44.1762 27.581H38.8412L38.8032 27.505C38.7542 27.505 38.6892 27.493 38.6142 27.467C38.5632 27.467 38.5112 27.454 38.4622 27.428C38.3852 27.428 38.2952 27.402 38.1952 27.351C37.8902 27.175 37.7372 26.794 37.7372 26.209C37.7372 26.108 37.7632 26.019 37.8132 25.944C37.8402 25.865 37.8542 25.79 37.8542 25.714C37.0892 25.687 36.5822 25.626 36.3292 25.524C36.0742 25.448 35.9092 25.358 35.8342 25.257V25.105C35.7822 25.08 35.7582 25.028 35.7582 24.952C35.7582 24.876 35.7582 24.824 35.7582 24.801C35.7322 24.749 35.7172 24.686 35.7172 24.611C35.6662 24.483 35.6422 24.319 35.6422 24.114V23.733C35.6422 23.225 35.7052 22.704 35.8332 22.172C35.9832 21.639 36.0602 21.359 36.0602 21.334H36.0992V21.295C36.1502 21.219 36.3152 20.826 36.5942 20.115C36.8722 19.428 37.2042 18.666 37.5832 17.828C37.9412 16.991 38.2822 16.217 38.6132 15.506C38.9182 14.795 39.1082 14.374 39.1832 14.247C39.2352 14.044 39.2612 13.867 39.2612 13.714C39.2612 13.41 39.1462 13.067 38.9182 12.687C38.7662 12.382 38.4862 12.192 38.0822 12.113C37.7242 12.039 37.3942 11.963 37.0892 11.885C36.7842 11.885 36.5692 11.861 36.4432 11.809C36.2632 11.682 36.1742 11.492 36.1742 11.237V11.161C36.1742 10.934 36.2392 10.756 36.3652 10.627C36.5192 10.5 36.6972 10.437 36.8992 10.437C36.9752 10.336 37.0522 10.283 37.1282 10.283C37.1792 10.283 37.2432 10.274 37.3182 10.247C37.4692 10.169 37.6862 9.966 37.9662 9.637L38.1182 9.485C38.3202 9.256 38.4862 8.964 38.6132 8.609C38.7392 8.228 38.8022 7.949 38.8022 7.771C38.8022 7.747 38.7652 7.541 38.6882 7.161C38.6122 6.806 38.5732 6.551 38.5732 6.398V6.284C38.6512 6.029 38.7652 5.89 38.9172 5.863C39.0432 5.737 39.2212 5.71 39.4502 5.788C39.5792 5.838 39.7422 5.89 39.9442 5.94C40.1492 5.99 40.2892 6.017 40.3662 6.017C40.4662 5.966 40.5552 5.94 40.6312 5.94C40.7322 5.914 40.8342 5.863 40.9372 5.788C41.0902 5.762 41.2292 5.724 41.3552 5.673C41.4572 5.649 41.5582 5.611 41.6612 5.559C41.7622 5.507 41.8642 5.484 41.9652 5.484H42.0792V4.758H42.3102C42.9192 4.784 43.2862 4.821 43.4142 4.873C43.5162 4.922 43.5782 4.998 43.6042 5.1C43.6552 5.176 43.6802 5.254 43.6802 5.329C43.6802 5.43 43.6922 5.558 43.7182 5.709H45.5472C45.9792 5.709 46.4852 5.698 47.0712 5.671C47.9862 5.671 48.6972 5.671 49.2032 5.671C49.7382 5.671 50.1182 5.671 50.3472 5.671C50.5762 5.697 50.7282 5.709 50.8062 5.709H50.8812C51.0592 5.81 51.1472 5.912 51.1472 6.016H65.8922V5.978C65.8922 5.899 65.9172 5.85 65.9682 5.826C66.0192 5.775 66.0712 5.737 66.1222 5.71C66.1962 5.687 66.2352 5.661 66.2352 5.634C66.2612 5.611 66.3122 5.534 66.3862 5.405C66.5922 5.228 66.8702 5.166 67.2252 5.215C67.5292 5.241 67.7202 5.266 67.7982 5.292L67.9492 5.37L68.0632 5.484C68.2402 5.559 68.3422 5.699 68.3682 5.9C68.3952 6.105 68.4322 6.271 68.4832 6.396ZM49.4722 12.53C49.1932 12.556 49.0402 12.569 49.0142 12.569C48.9642 12.569 48.9382 12.582 48.9382 12.606H48.8242C48.6482 12.685 48.4172 12.796 48.1392 12.949C47.8862 13.102 47.7192 13.305 47.6442 13.56C47.5672 13.838 47.5292 14.054 47.5292 14.206C47.5292 14.588 47.5782 14.83 47.6822 14.93V14.968H47.7582C47.7822 15.07 47.9742 15.26 48.3302 15.541L48.4442 15.579C48.6982 15.756 49.1292 15.921 49.7392 16.075C50.3222 16.229 50.9852 16.252 51.7212 16.15C53.4722 15.921 54.4002 15.478 54.5022 14.817C54.5772 14.666 54.6162 14.488 54.6162 14.283C54.6162 13.98 54.5272 13.674 54.3502 13.37C54.1712 13.04 53.8422 12.76 53.3582 12.531C52.8762 12.531 52.3802 12.531 51.8732 12.531C51.3912 12.531 50.9462 12.531 50.5392 12.531C50.1312 12.53 49.7772 12.53 49.4722 12.53ZM33.2522 5.404C33.4562 5.43 33.5822 5.545 33.6332 5.749C33.6832 5.978 33.7082 6.155 33.7082 6.284C33.8862 6.588 33.9752 6.892 33.9752 7.198C33.9752 7.376 33.9512 7.526 33.9002 7.654C33.8742 7.782 33.8492 7.922 33.8242 8.072V8.226C33.8242 8.251 33.8102 8.416 33.7852 8.722C33.7612 9.052 33.7352 9.382 33.7082 9.712C33.7082 10.093 33.6832 10.424 33.6332 10.702C33.6082 11.008 33.5942 11.199 33.5942 11.276V11.542H31.3082C31.2562 11.591 31.2322 11.645 31.2322 11.694C31.2322 11.719 31.1942 11.77 31.1182 11.845L31.0422 11.883C30.9642 11.883 30.8122 11.896 30.5842 11.922C30.3542 11.948 30.0002 11.961 29.5182 11.961C29.0602 11.961 28.3872 11.961 27.5002 11.961C27.0662 11.961 26.6482 11.948 26.2402 11.922C25.8342 11.896 25.4642 11.883 25.1362 11.883H24.0302C23.8792 11.883 23.7142 11.909 23.5352 11.961C23.1292 12.037 22.7472 12.191 22.3912 12.417C21.9852 12.722 21.6562 13.027 21.4022 13.332C21.1472 13.662 21.0082 13.915 20.9822 14.094C20.9322 14.372 20.9062 14.639 20.9062 14.893C20.9062 15.122 20.9312 15.274 20.9822 15.351C21.0852 15.629 21.0982 15.833 21.0222 15.96C20.9202 16.088 20.8302 16.175 20.7542 16.229V16.303C20.6792 16.379 20.4882 16.455 20.1832 16.533C19.8782 16.632 19.5482 16.737 19.1922 16.835C18.8362 16.937 18.5052 17.028 18.2012 17.103L17.7812 17.217C17.4522 17.294 16.9942 17.319 16.4112 17.294C15.8272 17.242 14.9882 17.129 13.8972 16.952C13.3892 16.874 12.9962 16.874 12.7152 16.952C12.4362 17.053 12.2212 17.167 12.0672 17.294C11.9412 17.42 11.8392 17.562 11.7642 17.713L10.2032 22.97V23.199C10.2032 23.351 10.2032 23.566 10.2032 23.846C10.2032 24.151 10.2392 24.582 10.3162 25.14C10.3932 25.293 10.4312 25.511 10.4312 25.789C10.4312 26.448 10.2922 26.919 10.0122 27.198C9.86016 27.349 9.73316 27.426 9.63116 27.426C9.55416 27.451 9.49216 27.465 9.44116 27.465H4.06916C4.06916 27.44 3.86416 27.35 3.45816 27.198C3.28116 27.122 3.16616 26.983 3.11616 26.779C3.06516 26.551 3.03916 26.323 3.03916 26.094V25.598C2.37916 25.572 1.92116 25.522 1.66716 25.446C1.64316 25.421 1.61616 25.408 1.59216 25.408C1.33816 25.307 1.17416 25.219 1.09516 25.139C1.07116 25.116 1.05816 25.065 1.05816 24.987C1.00716 24.961 0.982164 24.912 0.982164 24.836V24.532C0.958164 24.38 0.944164 24.201 0.944164 23.998C0.944164 23.921 0.931164 23.858 0.905164 23.808C0.880164 23.73 0.868164 23.654 0.868164 23.578C0.868164 23.071 0.931164 22.563 1.05716 22.056C1.18416 21.547 1.24816 21.255 1.24816 21.178V21.101C1.30016 21.078 1.43916 20.797 1.66616 20.265C1.69216 20.189 1.73016 20.099 1.78216 19.997C2.08716 19.288 2.42816 18.513 2.81016 17.675C3.16516 16.835 3.50916 16.049 3.83716 15.313C4.14216 14.602 4.33216 14.206 4.41016 14.131C4.46016 13.852 4.48616 13.673 4.48616 13.596C4.48616 13.267 4.38416 12.924 4.18116 12.569C4.02816 12.263 3.76216 12.074 3.38116 11.996C3.00116 11.921 2.64416 11.858 2.31516 11.807C2.06116 11.807 1.85616 11.769 1.70316 11.693L1.66516 11.655C1.51316 11.477 1.43716 11.298 1.43716 11.121V11.083C1.43716 10.83 1.48916 10.652 1.58916 10.55C1.61316 10.524 1.64016 10.498 1.66416 10.472C1.81716 10.347 1.99716 10.282 2.20016 10.282C2.27616 10.233 2.33816 10.207 2.38916 10.207C2.46516 10.207 2.52716 10.193 2.57916 10.168C2.73116 10.092 2.94716 9.89 3.22616 9.559L3.34016 9.37C3.54316 9.166 3.71116 8.874 3.83516 8.493C3.96316 8.139 4.03916 7.869 4.06616 7.694C4.06616 7.591 4.02516 7.387 3.94916 7.084C3.90316 6.729 3.87716 6.474 3.87716 6.322V6.168C3.92916 5.939 4.01716 5.8 4.14316 5.749C4.31916 5.648 4.50016 5.634 4.67716 5.71C4.80516 5.736 4.98116 5.788 5.21116 5.863C5.43916 5.913 5.59116 5.94 5.66616 5.94L6.20116 5.71C6.32916 5.687 6.45616 5.634 6.58216 5.559C6.68416 5.506 6.79816 5.47 6.92616 5.444C7.00116 5.419 7.11516 5.404 7.26916 5.404H7.30616V4.646H7.57216C8.15816 4.671 8.51216 4.708 8.64016 4.759C8.76716 4.785 8.83016 4.835 8.83016 4.911C8.90716 5.141 8.94616 5.369 8.94616 5.598C9.04716 5.598 9.28816 5.598 9.66916 5.598C10.0252 5.598 10.4062 5.585 10.8112 5.559C11.2442 5.559 11.7512 5.534 12.3352 5.484C13.2502 5.484 13.9602 5.496 14.4692 5.52C14.9762 5.546 15.3452 5.56 15.5732 5.56C15.8032 5.56 15.9432 5.56 15.9942 5.56C16.0452 5.586 16.0942 5.599 16.1462 5.599C16.2222 5.674 16.2962 5.789 16.3752 5.941H31.1952V5.863C31.1952 5.788 31.2462 5.699 31.3452 5.598C31.3712 5.519 31.4092 5.484 31.4592 5.484C31.5382 5.459 31.6002 5.394 31.6502 5.292C31.8302 5.09 32.0952 5.013 32.4522 5.063C32.8072 5.113 33.0222 5.165 33.0982 5.214L33.1742 5.254L33.2522 5.404ZM17.0962 12.379C16.6142 12.379 16.1692 12.379 15.7652 12.379C15.3592 12.379 15.0022 12.39 14.6972 12.416C14.4182 12.416 14.2642 12.416 14.2392 12.416L14.0492 12.492C13.8722 12.57 13.6452 12.671 13.3632 12.797C13.1112 12.976 12.9452 13.18 12.8682 13.408C12.7932 13.561 12.7552 13.777 12.7552 14.055C12.7552 14.436 12.8062 14.678 12.9062 14.779L12.9832 14.856C13.0352 14.931 13.0972 14.996 13.1722 15.045C13.2492 15.097 13.3772 15.224 13.5542 15.425L13.7072 15.465C13.9352 15.618 14.3562 15.77 14.9622 15.921C15.5722 16.075 16.2212 16.101 16.9062 15.999C18.6602 15.718 19.6112 15.289 19.7652 14.704C19.8162 14.577 19.8392 14.386 19.8392 14.132C19.8392 13.853 19.7512 13.561 19.5732 13.257C19.3962 12.926 19.0652 12.633 18.5832 12.381C18.1022 12.379 17.6052 12.379 17.0962 12.379Z" fill="#9FB1C9"/>
</g>
<defs>
<clipPath id="clip0_28409_24640">
<rect width="68.25" height="32" fill="white" transform="translate(0.625)"/>
</clipPath>
</defs>
</svg>
