<svg width="79" height="33" viewBox="0 0 79 33" fill="none" xmlns="http://www.w3.org/2000/svg">
<g clip-path="url(#clip0_28409_24641)">
<path fill-rule="evenodd" clip-rule="evenodd" d="M77.6711 11.8626C77.7231 12.2606 77.6451 12.7106 77.4331 13.2146V13.3336H77.3131C77.2601 13.3336 77.0091 13.3596 76.5581 13.4146C76.0801 13.4406 75.5381 13.4676 74.9281 13.4936C74.3451 13.5196 73.8011 13.5336 73.2981 13.5336C72.7681 13.5336 72.4231 13.4676 72.2651 13.3336C72.1851 13.3336 72.1311 13.3066 72.1051 13.2546C72.0521 13.2546 72.0121 13.2426 71.9861 13.2146H65.5061C65.3481 13.2936 65.1491 13.3596 64.9101 13.4136C64.6451 13.4396 64.4591 13.5046 64.3531 13.6116C64.2472 13.7176 64.0361 13.7966 63.7171 13.8496C63.3461 13.8756 63.1212 13.8896 63.0411 13.8896C62.9871 13.8896 62.8691 13.7966 62.6831 13.6116H62.5241C62.4961 13.6376 62.4841 13.7036 62.4841 13.8106C62.4311 13.8636 62.4041 13.9966 62.4041 14.2076V14.2466C62.3791 14.4076 62.3382 14.6046 62.2841 14.8436C62.2052 15.1086 62.0861 15.3606 61.9271 15.5976C61.7941 15.8376 61.6361 16.0616 61.4521 16.2736C61.1841 16.4596 60.9072 16.5516 60.6152 16.5516H44.7161C44.5291 16.5516 44.3181 16.6176 44.0791 16.7516V17.8246C44.0791 18.1696 44.0662 18.5276 44.0392 18.8986C44.0131 19.2426 43.8801 19.5866 43.6421 19.9326C43.3501 20.1176 42.9541 20.2106 42.4511 20.2106C42.0261 20.1576 41.5742 20.1336 41.0971 20.1336C40.5672 20.0796 40.0642 20.0266 39.5872 19.9736C39.0831 19.8676 38.6601 19.8006 38.3141 19.7736C37.9701 19.7216 37.7441 19.6556 37.6381 19.5756C37.4531 19.6816 37.2151 19.8416 36.9231 20.0526C36.6041 20.2906 36.4461 20.7036 36.4461 21.2846V22.1196L36.2881 22.1996C36.2341 22.2786 36.0881 22.4516 35.8501 22.7166C35.6381 22.9806 35.5322 23.2066 35.5322 23.3926C35.5322 23.5516 35.5452 23.6986 35.5732 23.8296C35.5732 23.9096 35.5851 23.9896 35.6131 24.0676L35.8512 24.3866H35.6131C35.5591 24.4136 35.4141 24.5986 35.1751 24.9426C34.9101 25.2866 34.7791 25.7646 34.7791 26.3736V26.7716L34.9371 27.0096H34.4991C34.3411 26.9566 34.0491 26.8786 33.6251 26.7716C33.1481 26.7446 32.6711 26.6526 32.1941 26.4946C31.6641 26.3616 31.1861 26.1896 30.7621 25.9756C30.3651 25.7916 30.1401 25.5666 30.0881 25.2996L29.9281 25.1816C30.0331 23.7496 30.2191 22.3586 30.4841 21.0076C30.8031 19.6556 31.5181 18.4746 32.6311 17.4696C32.6571 17.3626 32.6971 17.2306 32.7501 17.0716C32.7761 16.9126 32.7911 16.7666 32.7911 16.6346C32.7911 16.3956 32.5791 16.1566 32.1541 15.9176C31.9161 15.7866 31.5321 15.7176 31.0011 15.7176C30.4181 15.7176 29.7442 15.8646 28.9741 16.1566C27.2771 16.7656 26.1121 18.0246 25.4761 19.9326L25.3961 19.9726C24.8671 20.3436 24.4691 20.5286 24.2041 20.5286V20.6086C24.2041 20.8726 24.2171 21.2966 24.2441 21.8806C24.2981 22.4636 24.3361 23.1116 24.3621 23.8276C24.3621 24.5176 24.3891 25.2336 24.4431 25.9736C24.4972 26.7426 24.5491 27.4466 24.6031 28.0816V28.2796C24.5491 28.2796 24.4032 28.3866 24.1651 28.5986C23.8731 28.7846 23.4761 28.9946 22.9721 29.2336C22.4431 29.4466 21.7931 29.6716 21.0241 29.9096C20.2831 30.0696 19.4091 30.1226 18.4011 30.0696H18.2811C18.1231 27.8696 18.0161 25.8956 17.9641 24.1466C17.8571 22.6366 17.7911 21.2446 17.7641 19.9726C17.7371 18.7006 17.7241 17.9846 17.7241 17.8256C16.6922 17.9856 15.7641 18.1446 14.9421 18.3026C14.0941 18.4616 13.5771 18.5956 13.3911 18.7016C13.3911 18.7276 13.3781 18.7936 13.3511 18.8996C13.2971 19.0316 13.2711 19.1246 13.2711 19.1776C13.2711 19.6816 13.1511 19.9336 12.9141 19.9336C12.8351 19.9606 12.5571 20.0256 12.0791 20.1336C11.6021 20.1846 11.2581 20.2786 11.0451 20.4106H10.9261C10.8201 20.2786 10.7411 20.1586 10.6871 20.0526C10.5811 19.9736 10.4891 19.8816 10.4091 19.7746C10.3821 19.6426 10.3561 19.5246 10.3291 19.4186C10.1171 19.6036 9.76015 19.7886 9.25615 19.9746C8.69715 20.1336 8.07615 20.3176 7.38615 20.5296C6.64415 20.6886 5.88915 20.8076 5.12015 20.8876C4.29915 21.0726 3.47715 21.1136 2.65515 21.0076L2.53615 20.8876L2.37715 20.8076C1.76715 18.8996 1.34315 17.2566 1.10515 15.8776C0.919148 14.5006 0.827148 13.3466 0.827148 12.4196C0.827148 10.6716 1.03815 9.5186 1.46315 8.9616C1.86015 8.3786 2.15215 8.0336 2.33715 7.9286C2.36415 7.9286 2.49615 7.7166 2.73515 7.2926C3.02615 6.8666 3.29215 6.4836 3.52915 6.1386V5.9406H11.0431V6.1386C11.2021 6.4306 11.4541 6.7886 11.7981 7.2116C12.1161 7.5836 12.3551 7.8216 12.5141 7.9286C12.6461 7.9286 12.9911 7.7686 13.5481 7.4506C14.0771 7.1316 14.5681 6.7346 15.0181 6.2576H15.1781C16.3961 6.3646 17.6681 6.4306 18.9941 6.4566C20.2921 6.5096 21.4721 6.5506 22.5311 6.5766C23.6171 6.5766 24.5191 6.5766 25.2351 6.5766C26.0311 6.5506 26.5071 6.4966 26.6671 6.4176C26.7201 6.2856 26.7981 6.0596 26.9051 5.7416C27.0112 5.3976 27.1031 5.0666 27.1841 4.7486C27.2621 4.4556 27.3301 4.1516 27.3821 3.8346C27.4621 3.5416 27.5281 3.3566 27.5811 3.2776V3.1576C27.6061 3.0776 27.6731 3.0106 27.7801 2.9586C27.8591 2.8266 28.0441 2.7336 28.3361 2.6806C28.5481 2.6006 28.9331 2.5206 29.4881 2.4416C30.0182 2.3886 30.7211 2.3226 31.5971 2.2436C35.3862 2.0586 41.6002 2.2576 50.2421 2.8406C52.7851 2.9196 54.8261 2.9726 56.3641 2.9986C57.8741 3.0246 59.0281 3.0376 59.8221 3.0376C60.6161 3.0636 61.1342 3.1046 61.3722 3.1586C61.6111 3.1586 61.7551 3.1586 61.8102 3.1586C61.8362 3.1586 61.9692 3.1586 62.2071 3.1586C62.4192 3.1056 62.6171 3.2506 62.8041 3.5956C63.3082 4.1526 63.5581 5.1076 63.5581 6.4576C63.5581 6.9096 63.5581 7.3856 63.5581 7.8896C63.5321 8.4186 63.4671 8.9886 63.3601 9.5986C63.2801 9.7586 63.2402 9.8906 63.2402 9.9966C63.1861 10.2096 63.1601 10.4336 63.1601 10.6736C63.2941 10.6736 63.4122 10.6736 63.5182 10.6736C63.6502 10.6996 63.7431 10.7126 63.7971 10.7126C63.9552 10.7386 64.0882 10.7526 64.1941 10.7526L65.2671 10.9896C65.2671 11.0166 65.2801 11.0436 65.3081 11.0706C65.3081 11.1226 65.3211 11.1766 65.3481 11.2306V11.3096H70.9921C71.0981 11.2556 71.2311 11.2306 71.3911 11.2306C71.5761 11.1766 71.7221 11.1236 71.8271 11.0706L72.1471 10.9896C72.2781 10.9106 72.5961 10.8586 73.1001 10.8306C73.5521 10.8306 74.0561 10.8166 74.6111 10.7906C75.1681 10.7656 75.7111 10.7656 76.2411 10.7906C76.7451 10.8166 77.0501 10.8306 77.1551 10.8306L77.4341 10.9896V11.1496C77.5381 11.2806 77.6191 11.5186 77.6711 11.8626ZM58.2311 5.6216H32.6701C31.7951 5.6216 31.3581 6.0856 31.3581 7.0136V8.2866C31.3581 9.1856 31.7961 9.6376 32.6701 9.6376H58.2321C58.6571 9.6376 58.9741 9.5046 59.1861 9.2396C59.4511 9.0276 59.5831 8.7096 59.5831 8.2866V7.0136C59.5831 6.5896 59.4511 6.2566 59.1861 6.0196C58.9741 5.7536 58.6561 5.6216 58.2311 5.6216Z" fill="#9FB1C9"/>
</g>
<defs>
<clipPath id="clip0_28409_24641">
<rect width="77.833" height="32" fill="white" transform="translate(0.5 0.133789)"/>
</clipPath>
</defs>
</svg>
