<svg width="40" height="32" viewBox="0 0 40 32" fill="none" xmlns="http://www.w3.org/2000/svg">
<g clip-path="url(#clip0_28409_24642)">
<path fill-rule="evenodd" clip-rule="evenodd" d="M39.311 3.57294C39.417 3.78594 39.471 4.06494 39.471 4.40994C39.497 4.70394 39.511 5.03694 39.511 5.40994C39.511 6.02394 39.497 6.64894 39.471 7.28794C39.417 7.90094 39.391 8.31294 39.391 8.52594L39.311 8.68494L39.071 8.88694C39.045 8.96694 39.03 9.12594 39.03 9.36594V9.56494L38.912 9.88594L38.592 9.76594C38.539 9.76594 38.406 9.76594 38.193 9.76594C37.98 9.73894 37.473 9.73894 36.675 9.76594C36.649 10.1109 36.553 10.4299 36.392 10.7239C36.261 10.9639 36.168 11.1099 36.117 11.1649L36.076 11.3229H27.085L26.647 11.4859C26.46 11.5909 26.219 11.7099 25.927 11.8429C25.635 11.9769 25.353 12.1229 25.087 12.2829C24.849 12.4429 24.688 12.5349 24.608 12.5609C24.689 12.8279 24.729 13.2009 24.729 13.6799C24.729 13.9209 24.729 14.2249 24.729 14.5999C24.729 14.9739 24.689 15.3869 24.608 15.8389C24.502 16.4779 24.235 16.9439 23.81 17.2369C23.439 17.5289 22.957 17.7299 22.371 17.8349C21.841 17.9159 21.24 17.9419 20.575 17.9159C19.909 17.8869 19.282 17.8609 18.697 17.8349C18.218 17.8089 17.79 17.7819 17.419 17.7559C17.018 17.7029 16.686 17.7149 16.419 17.7969H16.34C15.462 17.6889 14.901 17.6889 14.663 17.7969C14.396 17.9029 14.223 18.0349 14.142 18.1959L13.983 18.2739C13.77 18.4869 13.663 18.9959 13.663 19.7939V20.1159C13.663 20.5409 13.622 20.8999 13.541 21.1929C13.435 21.5399 13.304 21.8589 13.142 22.1509L13.104 22.3919C12.997 22.6049 12.888 22.9919 12.784 23.5499C12.649 24.0829 12.501 24.6549 12.343 25.2679C12.157 26.0109 12.038 26.5339 11.984 26.8259C11.878 27.1989 11.796 27.4519 11.745 27.5849L11.904 27.7439C12.01 27.8249 12.092 27.9169 12.143 28.0239C12.225 28.1299 12.264 28.2509 12.264 28.3829L12.184 28.5049C12.158 28.7419 12.024 28.9299 11.785 29.0629C11.573 29.1679 11.371 29.2759 11.184 29.3829H11.065C11.01 29.3829 10.609 29.3939 9.867 29.4219C9.092 29.4219 8.293 29.4609 7.47 29.5419C4.913 29.6739 3.486 29.7419 3.197 29.7419C2.689 29.7419 2.155 29.2059 1.598 28.1439H1.554V27.5039C1.554 26.6249 1.673 25.5599 1.912 24.3079C2.128 23.0819 2.406 21.8569 2.753 20.6309C3.123 19.3779 3.483 18.2069 3.833 17.1139C4.205 15.9959 4.524 15.0779 4.789 14.3589V14.1589C4.844 13.9189 4.87 13.7319 4.87 13.5979C4.87 13.4929 4.87 13.4269 4.87 13.3999C4.844 13.3999 4.83 13.3709 4.83 13.3189C4.803 13.2919 4.789 13.2539 4.789 13.1989H4.711V13.1189C4.683 12.9579 4.576 12.8369 4.39 12.7579C4.31 12.7039 4.245 12.6799 4.19 12.6799C4.03 12.6539 3.858 12.5989 3.671 12.5179C3.272 12.3859 2.725 12.0939 2.033 11.6389C1.579 11.3729 1.287 11.0799 1.153 10.7609C0.967 10.3899 0.875 10.0439 0.875 9.72394C0.875 9.35294 0.888 9.12494 0.915 9.04494C0.967 8.93894 1.1 8.47094 1.313 7.64794C1.5 6.76894 1.699 5.90294 1.912 5.04994C2.099 4.33094 2.367 3.83794 2.712 3.57194C3.058 3.27694 3.338 3.06594 3.55 2.92994V2.29394L3.711 2.21294C4.483 1.99994 5.256 2.06694 6.029 2.41194C6.775 2.75794 7.212 2.99894 7.346 3.13294H26.565C26.618 3.13294 26.671 3.15694 26.725 3.21294L26.884 3.37294H36.995L37.113 3.25094C37.274 3.12094 37.461 2.82494 37.672 2.37394V2.21394H37.792C37.819 2.21394 37.888 2.20094 37.995 2.17494C38.099 2.17494 38.246 2.18494 38.433 2.21394C38.752 2.26494 39.045 2.72094 39.311 3.57294ZM22.611 12.2399H15.577C15.204 12.2399 15.02 12.4419 15.02 12.8389V15.3589C15.02 15.7309 15.205 15.9169 15.577 15.9169H22.611C22.956 15.9169 23.13 15.7309 23.13 15.3589V12.8389C23.13 12.4419 22.956 12.2399 22.611 12.2399Z" fill="#9FB1C9"/>
</g>
<defs>
<clipPath id="clip0_28409_24642">
<rect width="39" height="32" fill="white" transform="translate(0.875)"/>
</clipPath>
</defs>
</svg>
