<svg width="94" height="33" viewBox="0 0 94 33" fill="none" xmlns="http://www.w3.org/2000/svg">
<path fill-rule="evenodd" clip-rule="evenodd" d="M93.494 12.9896C93.544 13.3416 93.594 13.7536 93.644 14.2296C93.669 14.7306 93.519 15.0186 93.192 15.0946C93.017 15.1196 92.729 15.1566 92.327 15.2066C91.926 15.2326 91.463 15.2446 90.936 15.2446C90.435 15.2446 89.934 15.2326 89.434 15.2066C88.907 15.1566 88.493 15.1196 88.192 15.0946L87.854 14.9446H82.591C82.591 14.9686 82.516 15.0316 82.365 15.1326C82.34 15.2066 82.315 15.2446 82.29 15.2446L81.576 15.4336L81.201 15.2456H80.449L80.298 15.4336C80.197 15.5086 80.149 15.5966 80.149 15.6956V15.8466L79.848 16.4116H79.172V17.6896L78.834 17.8386C78.734 17.8886 78.606 17.9136 78.458 17.9136C78.182 17.9136 77.981 17.8896 77.857 17.8386L76.878 17.6896H73.983V18.1776H73.682C72.981 18.1776 72.579 18.1536 72.478 18.1026C72.353 18.0526 72.254 18.0146 72.178 17.9896C72.178 17.8896 72.178 17.8266 72.178 17.8016C72.128 17.8016 72.103 17.7646 72.103 17.6896H72.178V17.5376H59.659C59.309 17.5876 58.894 17.6386 58.419 17.6896C57.943 17.7136 57.504 17.7516 57.105 17.8016C56.652 17.8266 56.276 17.8646 55.975 17.9136C55.725 17.9646 55.562 17.9896 55.487 17.9896C55.261 18.1146 55.049 18.1146 54.848 17.9896C54.773 17.9396 54.71 17.8896 54.66 17.8396L54.473 17.6906V17.3896H49.509C49.561 18.2406 49.636 19.1926 49.735 20.2456C49.836 21.2736 49.923 22.2516 49.998 23.1786C50.1 24.0806 50.174 24.8716 50.224 25.5466C50.3 26.1486 50.338 26.5376 50.338 26.7126C50.313 26.7626 50.25 26.8756 50.15 27.0506C50.05 27.1506 49.649 27.2516 48.947 27.3506C48.195 27.4766 47.455 27.6256 46.727 27.8026C45.926 27.9276 45.3 28.0156 44.849 28.0656C44.397 28.1406 44.059 28.2036 43.834 28.2536C43.633 28.2786 43.482 28.2786 43.383 28.2536C43.332 28.2036 43.282 28.1536 43.232 28.1046C43.232 28.0796 43.219 28.0036 43.196 27.8776C43.196 27.8026 43.157 27.4776 43.082 26.8996C43.032 26.3236 42.943 25.5096 42.82 24.4566C42.744 23.3046 42.619 21.7376 42.443 19.7576H41.804L41.429 20.3976H41.128L41.429 19.7576H40.638V19.9456C40.464 20.5976 40.263 21.1746 40.038 21.6746C39.812 22.1516 39.55 22.4886 39.248 22.6896C38.772 22.8896 38.133 23.0156 37.331 23.0656C36.478 23.0906 35.877 23.0156 35.527 22.8396L35 22.5006C34.8 22.4266 34.611 22.3386 34.436 22.2386C34.26 22.1376 34.124 22.0626 34.022 22.0116L33.834 22.1996C33.76 22.2746 33.66 22.4746 33.533 22.8016C33.409 23.1276 33.258 23.4406 33.083 23.7406C32.732 24.6176 32.419 25.3206 32.143 25.8466C31.868 26.3466 31.655 26.7356 31.504 27.0116C31.329 27.3126 31.191 27.4876 31.091 27.5376C30.965 27.6116 30.865 27.6516 30.79 27.6516C30.589 27.6516 30.075 27.3996 29.248 26.8986C28.447 26.3976 27.682 25.8476 26.955 25.2446L26.655 25.0566L26.766 24.9056C26.791 24.8566 26.879 24.6796 27.03 24.3796C27.13 24.1296 27.28 23.8276 27.481 23.4776C27.657 23.1516 27.832 22.8376 28.008 22.5376C28.182 22.2376 28.383 22.0116 28.609 21.8616L28.759 21.6736C28.985 21.4486 29.224 21.1976 29.474 20.9216C29.749 20.6466 29.937 20.3196 30.037 19.9436C30.138 19.4426 30.087 19.0296 29.887 18.7026C29.661 18.4276 29.436 18.2516 29.21 18.1766H23.38C23.356 18.1766 23.279 18.1896 23.155 18.2146C23.055 18.2646 22.917 18.2896 22.74 18.2896C22.54 18.3396 22.328 18.4026 22.101 18.4776C21.951 18.5276 21.438 18.7036 20.561 19.0046C19.683 19.3306 18.643 19.7056 17.439 20.1316C16.312 20.5836 15.07 21.0596 13.718 21.5616C12.439 22.0116 11.223 22.4506 10.071 22.8766C8.994 23.2526 8.079 23.5776 7.327 23.8536C6.6 24.1556 6.198 24.3046 6.124 24.3046C5.873 24.3556 5.56 24.4046 5.183 24.4556C4.757 24.5056 4.355 24.5556 3.98 24.6046C3.579 24.6556 3.204 24.6806 2.853 24.6806C2.552 24.7306 2.302 24.7056 2.101 24.6046C1.8 24.4556 1.613 24.2296 1.538 23.9286C1.512 23.6786 1.5 23.3646 1.5 22.9886C1.5 22.8136 1.5 22.6256 1.5 22.4256C1.525 22.1996 1.588 22.0116 1.688 21.8616C1.763 21.6116 1.801 21.3736 1.801 21.1466C1.801 20.9206 1.801 20.6336 1.801 20.2816C1.901 20.0816 1.964 19.9066 1.989 19.7556C2.013 19.5806 2.027 19.3806 2.027 19.1546C2.027 18.5026 2.002 17.8636 1.951 17.2366C1.851 16.6106 1.801 16.2096 1.801 16.0336H1.688C1.588 15.8086 1.525 15.6086 1.5 15.4326C1.5 15.2326 1.5 15.0696 1.5 14.9446V14.4546C1.601 14.3546 1.663 14.2796 1.688 14.2296C1.688 14.1796 1.801 14.1546 2.027 14.1546C2.077 14.1046 2.277 14.0536 2.628 14.0046C2.98 13.9796 3.367 13.9416 3.794 13.8916C4.27 13.8916 4.721 13.8916 5.147 13.8916C5.548 13.8666 5.874 13.8536 6.126 13.8536C6.226 13.6026 6.338 13.3276 6.464 13.0266C6.539 12.7756 6.753 12.6006 7.102 12.5006C7.329 12.4236 8.004 12.3876 9.132 12.3876C10.236 12.3626 11.45 12.3376 12.779 12.3126C14.082 12.2616 15.335 12.2366 16.539 12.2366C17.716 12.2126 18.455 12.1986 18.757 12.1986H18.945C19.044 12.3996 19.17 12.5626 19.32 12.6886C19.395 12.8896 19.483 13.0636 19.583 13.2146C19.683 13.3916 19.784 13.4896 19.884 13.5146C20.035 13.5146 20.235 13.5026 20.486 13.4776C20.711 13.4776 20.861 13.4266 20.937 13.3276C21.212 13.2026 21.663 12.9766 22.29 12.6506C22.917 12.2746 23.343 12.0116 23.569 11.8606C23.895 11.6356 24.171 11.4846 24.396 11.4096C24.621 11.2586 24.934 11.1846 25.335 11.1846C25.712 11.1846 26.251 11.1846 26.953 11.1846C27.68 11.1846 28.23 11.1586 28.606 11.1096C28.632 11.0596 28.669 11.0086 28.719 10.9596C28.744 10.8836 28.806 10.8086 28.907 10.7326C28.981 10.6326 29.044 10.5196 29.095 10.3946L29.885 9.94257L30.486 9.79257C30.612 9.89257 30.725 9.96757 30.824 10.0176C31.1 10.0686 31.276 10.0936 31.351 10.0936L31.953 10.2436L32.479 10.8826V11.0336L32.253 11.1846H32.592V10.5836L32.291 10.3576C32.216 10.2816 32.166 10.1946 32.141 10.0946L31.838 9.49357L31.651 8.77857V8.62857C31.199 8.72857 30.711 8.80357 30.184 8.85557C29.607 8.90557 29.131 8.98057 28.755 9.08057C28.555 9.08057 28.117 9.06857 27.44 9.04357C26.763 9.04357 26.062 9.04357 25.334 9.04357C24.583 9.04357 23.918 9.03057 23.342 9.00557C22.74 8.95657 22.389 8.93157 22.289 8.93157C22.214 8.93157 22.139 8.95657 22.063 9.00557C21.988 9.03057 21.9 9.04357 21.8 9.04357C21.649 9.06857 21.524 9.08057 21.425 9.08057L19.244 8.93157V8.62857C19.244 8.60357 19.219 8.46657 19.169 8.21457C19.119 7.91457 19.081 7.58857 19.056 7.23757C19.056 6.91257 19.031 6.58557 18.981 6.26057C18.957 5.88557 18.981 5.59557 19.056 5.39657C19.081 5.22157 19.119 5.07057 19.169 4.94557C19.219 4.87057 19.269 4.78157 19.319 4.68257C19.344 4.60657 19.357 4.53157 19.357 4.45657L19.582 4.34257H21.425C21.524 4.34257 21.813 4.34257 22.289 4.34257C22.69 4.34257 23.217 4.38057 23.869 4.45657C24.545 4.45657 25.272 4.46957 26.049 4.49457C26.801 4.49457 27.528 4.51857 28.229 4.56857C28.907 4.56857 29.507 4.58157 30.034 4.60657C30.56 4.63157 30.948 4.64357 31.2 4.64357L32.14 4.75657C32.466 4.83257 32.742 4.88157 32.968 4.90757C33.192 4.93257 33.381 4.94457 33.531 4.94457C33.708 4.89457 34.096 4.86957 34.698 4.86957C35.324 4.84357 35.976 4.81857 36.653 4.79357C37.305 4.76857 37.918 4.75557 38.495 4.75557C39.022 4.75557 39.31 4.75557 39.36 4.75557C39.585 4.75557 39.748 4.73157 39.849 4.68157C39.974 4.68157 40.074 4.66857 40.149 4.64257L40.299 4.45557C40.299 4.27957 40.475 4.14257 40.826 4.04157C41.302 3.81557 41.791 3.81557 42.292 4.04157H42.442C42.667 4.04157 42.831 4.06557 42.93 4.11657C43.031 4.16657 43.131 4.27957 43.231 4.45557C43.331 4.58057 43.481 4.64257 43.682 4.64257L43.983 4.75557C44.459 4.75557 45.123 4.79357 45.975 4.86957C46.878 4.94457 47.63 4.90757 48.231 4.75557C48.607 4.68157 49.157 4.61857 49.884 4.56757C50.561 4.49357 51.263 4.43057 51.99 4.37957C52.767 4.35457 53.481 4.34157 54.133 4.34157C54.809 4.34157 55.26 4.37957 55.487 4.45557H55.637C55.963 4.53057 56.177 4.64257 56.277 4.79257C56.427 4.91857 56.527 5.28157 56.578 5.88357C56.677 6.50957 56.628 7.07357 56.427 7.57457C56.226 8.12557 56.013 8.47657 55.788 8.62657C55.688 8.70257 55.337 8.73957 54.735 8.73957C54.133 8.73957 53.469 8.73957 52.743 8.73957C52.041 8.73957 51.339 8.70257 50.639 8.62657C49.936 8.60157 49.435 8.53957 49.135 8.43857C48.809 8.36357 48.533 8.32557 48.308 8.32557C48.107 8.32557 47.908 8.36357 47.706 8.43857H46.35C46.35 8.66457 46.176 8.95357 45.825 9.30357H45.637C44.809 9.72957 44.258 10.0296 43.982 10.2056C43.706 10.3306 43.568 10.4556 43.568 10.5816C43.493 10.5816 43.43 10.6316 43.38 10.7316C43.38 10.8826 43.329 11.0316 43.229 11.1836H64.169C64.219 11.1576 64.37 11.1456 64.62 11.1456C64.895 11.1216 65.184 11.0826 65.485 11.0316C65.786 10.9816 66.086 10.9576 66.386 10.9576C66.688 10.9076 66.9 10.8816 67.026 10.8816C67.326 10.8816 67.615 10.8686 67.891 10.8436C68.141 10.7686 68.342 10.7306 68.492 10.7306L68.794 10.4296C68.893 10.3796 68.968 10.3296 69.02 10.2796H70.449C70.548 10.3556 70.623 10.4546 70.674 10.5806C70.85 10.8306 70.974 11.0056 71.049 11.1066H78.68C78.58 10.8556 78.505 10.5806 78.455 10.2786C78.404 10.0286 78.38 9.80157 78.38 9.60157C78.38 9.40157 78.393 9.28857 78.417 9.26257L78.53 9.15157C78.704 8.90157 78.893 8.72457 79.093 8.62457C79.269 8.49957 79.419 8.43657 79.544 8.43657L80.295 8.62457L80.596 9.48957L80.896 11.1816V12.1956C80.997 12.1956 81.097 12.2586 81.197 12.3836C81.197 12.4836 81.197 12.5836 81.197 12.6846L81.083 12.8346H81.197C81.347 12.8346 81.448 12.8226 81.498 12.7966L81.573 12.6846H82.363L82.475 12.7966C82.55 12.8216 82.613 12.8346 82.663 12.8346H93.339L93.494 12.9896ZM34.583 19.8316C34.507 19.9326 34.445 20.0196 34.395 20.0946L34.883 20.5836C35.058 20.6586 35.209 20.7456 35.335 20.8476C35.46 20.8976 35.56 20.9216 35.635 20.9216C35.911 20.9716 36.175 20.9966 36.426 20.9966C36.675 20.9966 36.851 20.9966 36.952 20.9966C37.102 20.9966 37.327 20.9966 37.629 20.9966C37.904 20.9966 38.105 20.9716 38.23 20.9216C38.405 20.9216 38.505 20.8476 38.531 20.6966C38.531 20.5966 38.606 20.4586 38.756 20.2826C38.958 19.7316 39.057 19.4176 39.057 19.3436V19.2316C39.057 19.1816 39.007 19.1566 38.906 19.1566C38.831 19.1566 38.693 19.1816 38.492 19.2316C38.291 19.3066 38.104 19.3816 37.929 19.4576H36.951C36.775 19.4576 36.437 19.4826 35.935 19.5316C35.434 19.6076 35.083 19.6816 34.882 19.7576C34.809 19.7566 34.708 19.7816 34.583 19.8316Z" fill="#9FB1C9"/>
</svg>
