<svg width="91" height="33" viewBox="0 0 91 33" fill="none" xmlns="http://www.w3.org/2000/svg">
<g clip-path="url(#clip0_28409_24644)">
<path fill-rule="evenodd" clip-rule="evenodd" d="M89.1748 8.15468C89.4218 8.15468 89.5448 8.26468 89.5448 8.48868V10.9357H85.6138C85.4908 10.9357 84.8478 10.9357 83.6868 10.9357C82.5478 10.9587 81.2758 10.9977 79.8668 11.0467C78.4828 11.0467 77.0978 11.0597 75.7138 11.0847C74.4278 11.1097 73.5628 11.1217 73.1188 11.1217C73.1188 11.4427 73.0188 11.7027 72.8208 11.8997C72.3018 12.4207 71.8198 12.6777 71.3748 12.6777C71.1768 12.6777 70.9178 12.5427 70.5968 12.2697C70.2748 11.9497 70.0278 11.7267 69.8538 11.6027C69.7558 11.6027 69.6198 11.5777 69.4478 11.5277C69.3238 11.5037 69.1638 11.4407 68.9658 11.3427L68.2608 11.1197C68.1618 11.0707 67.9388 11.0457 67.5928 11.0457C67.2208 10.9967 66.7638 10.9717 66.2208 10.9717C65.7008 10.9717 65.0828 10.9967 64.3668 11.0457C63.7238 11.0457 63.0698 11.0707 62.4008 11.1197C62.4008 11.2197 62.3768 11.3427 62.3278 11.4907C62.2528 11.6637 62.2168 11.8007 62.2168 11.8977L61.9568 12.0097C61.8578 12.0347 61.7338 12.0477 61.5868 12.0477C61.5868 12.1207 61.5728 12.2447 61.5488 12.4187C61.5248 12.5167 61.5118 12.6657 61.5118 12.8637C61.4618 13.0597 61.4388 13.3067 61.4388 13.6047H61.1408C60.1268 13.6047 59.0148 13.6167 57.8048 13.6417C56.6178 13.6417 55.4798 13.6537 54.3938 13.6787C53.3308 13.7287 52.4278 13.7527 51.6858 13.7527C50.9448 13.7777 50.4988 13.7897 50.3508 13.7897C50.2528 13.8147 50.0798 13.8387 49.8318 13.8637C49.6088 13.8887 49.3498 13.9127 49.0528 13.9377C48.7318 14.0107 48.4098 14.0617 48.0888 14.0867C47.7928 14.1607 47.5578 14.2107 47.3838 14.2347H47.2728L47.0868 13.7887C47.0378 13.5167 47.0128 13.2327 47.0128 12.9357C46.9648 12.6887 46.9388 12.4667 46.9388 12.2677C46.9388 12.0467 46.9388 11.8717 46.9388 11.7497C46.7908 11.8247 46.5178 11.8857 46.1238 11.9347C45.7028 11.9837 45.2578 12.0587 44.7888 12.1567C44.3438 12.2327 43.9118 12.3177 43.4908 12.4187C43.0708 12.4667 42.8108 12.4917 42.7128 12.4917C42.7128 12.6397 42.6998 12.7877 42.6748 12.9357C42.5998 13.0847 42.5638 13.1957 42.5638 13.2697C42.5638 14.5297 42.7608 15.9517 43.1578 17.5347C43.5538 19.0417 43.9868 20.4767 44.4548 21.8367C44.9498 23.1457 45.3818 24.2457 45.7548 25.1357C46.1498 26.0017 46.3468 26.4457 46.3468 26.4707L46.4948 26.7307L46.1988 26.8417C46.0748 26.9157 45.8028 27.0397 45.3828 27.2137C45.0118 27.4117 44.5058 27.6577 43.8628 27.9557C43.1948 28.2277 42.2928 28.6707 41.1558 29.2897H40.8958C40.4768 28.7447 40.0308 27.8067 39.5608 26.4707C39.0908 25.1357 38.6468 23.7397 38.2278 22.2807C37.8068 20.8467 37.4598 19.4867 37.1878 18.2017C36.8918 16.8907 36.6688 16.0367 36.5208 15.6427C36.2988 15.7657 35.9768 15.9137 35.5568 16.0857C35.4578 16.0857 35.3968 16.1237 35.3718 16.1967C35.3718 16.2227 35.3338 16.2347 35.2608 16.2347C35.1358 16.4577 34.9268 16.5687 34.6308 16.5687C33.4208 16.8657 32.4548 16.8777 31.7368 16.6067C31.0458 16.3357 30.5878 16.1117 30.3658 15.9387C30.3158 16.0137 30.2548 16.0627 30.1798 16.0857L29.5118 16.4207C28.7458 18.1507 28.2888 19.5717 28.1408 20.6857C28.0168 21.7977 27.9548 22.6137 27.9548 23.1327V23.7257C27.9548 23.8257 27.9308 23.8877 27.8808 23.9117C27.8308 23.9117 27.8058 23.9487 27.8058 24.0237C27.3868 24.0237 25.9898 23.3927 23.6158 22.1317L23.3938 22.0207V21.9087C23.6898 21.2407 23.9988 20.5367 24.3208 19.7957C24.5938 19.0287 24.8648 18.3247 25.1368 17.6807C25.3838 17.0387 25.5818 16.4577 25.7298 15.9387C25.8778 15.4947 25.9638 15.2217 25.9898 15.1237C25.9898 15.0257 25.9518 14.9267 25.8788 14.8267C25.8298 14.7287 25.8048 14.6297 25.8048 14.5307C25.7298 14.4817 25.6438 14.3827 25.5458 14.2347C25.4458 14.1357 25.3468 14.0347 25.2478 13.9377C25.1248 13.8377 25.0368 13.7287 24.9878 13.6047C24.8398 13.5317 24.4938 13.4927 23.9498 13.4927C23.3318 13.4927 22.6388 13.5057 21.8728 13.5317C21.0818 13.5807 20.2038 13.6167 19.2398 13.6417C18.3268 13.7167 17.4728 13.7667 16.6818 13.7897L13.5668 13.9007C11.6138 13.9007 8.64883 15.6687 4.66783 19.2037L4.37083 19.4997C4.19783 19.7477 3.95183 19.9577 3.62983 20.1297C3.28383 20.5497 3.06083 20.8087 2.96283 20.9087C2.83783 21.0077 2.73983 21.0587 2.66483 21.0587C2.46883 21.0587 2.28183 20.9087 2.10983 20.6107C1.96083 20.2157 1.88583 19.9087 1.88583 19.6837C1.88583 19.5607 1.87383 19.1787 1.84883 18.5347C1.82583 17.9157 1.76283 17.1867 1.66383 16.3467C1.59083 15.5307 1.51583 14.6897 1.44083 13.8257C1.34283 12.9847 1.24283 12.2907 1.14583 11.7487C0.873827 11.2047 0.921827 10.6617 1.29283 10.1167C1.53983 9.84368 1.86183 9.70768 2.25683 9.70768C2.67683 9.70768 2.93683 9.70768 3.03583 9.70768H20.2788C20.4038 9.70768 20.5518 9.70768 20.7238 9.70768C20.8728 9.70768 20.9838 9.65868 21.0578 9.55968V9.41468C21.1568 9.34068 21.2198 9.26768 21.2448 9.19168C21.2688 9.11768 21.3178 9.01868 21.3918 8.89468C21.5648 8.77168 21.8248 8.70968 22.1698 8.70968C22.5418 8.70968 22.8008 8.65968 22.9488 8.56268C23.0978 8.51168 23.2458 8.48868 23.3948 8.48868C23.5668 8.48868 23.7158 8.43868 23.8398 8.33968C24.2098 8.24168 24.5178 8.13068 24.7658 8.00668C25.0618 7.88268 25.2718 7.70968 25.3958 7.48768C25.5928 7.36368 25.7048 7.16668 25.7288 6.89468C25.7778 6.64568 25.8288 6.27668 25.8768 5.78068V5.44768C25.8768 5.00268 25.9878 4.69268 26.2108 4.51868C26.4088 4.41968 26.6798 4.37068 27.0258 4.37068H27.3218L27.4328 4.51868L28.2498 5.29868C28.2498 5.47168 28.5588 5.43368 29.1758 5.18768H29.6578C29.8058 5.26068 29.9288 5.45968 30.0278 5.77968C30.1028 6.10168 30.1768 6.43568 30.2518 6.78068C30.9918 6.68368 31.7948 6.63368 32.6608 6.63368C33.5018 6.63368 33.9958 6.68368 34.1438 6.78168C34.2428 6.80668 34.3298 6.81968 34.4038 6.81968C34.5018 6.86968 34.6388 6.89468 34.8118 6.89468H44.2688C44.2688 6.64568 44.2308 6.43668 44.1578 6.26368L44.0458 5.96868H45.7148V6.26368C45.7148 6.38868 45.7398 6.46168 45.7888 6.48668C45.7888 6.50968 45.8138 6.52368 45.8618 6.52368H68.7428C68.7428 6.47568 68.7308 6.38868 68.7058 6.26368C68.7058 6.16568 68.7058 6.00468 68.7058 5.78168C68.6308 5.63368 68.5948 5.43568 68.5948 5.18968L69.1128 4.22368L70.6708 4.07568H70.8188V6.78268L70.7068 6.82068C70.6828 6.87068 70.6468 6.89568 70.5968 6.89568C70.5718 6.91868 70.5468 6.95668 70.5218 7.00668C70.7198 7.22968 71.1028 7.51368 71.6718 7.85868C72.2648 8.18068 72.9208 8.34068 73.6378 8.34068C73.9088 8.36668 74.4028 8.39068 75.1198 8.41568C75.8368 8.46568 76.6278 8.49068 77.4938 8.49068C78.3598 8.49068 79.2368 8.46568 80.1268 8.41568C81.0908 8.39168 81.9438 8.37768 82.6858 8.37768C83.4778 8.37768 84.1438 8.36668 84.6878 8.34068C85.1818 8.34068 85.4908 8.34068 85.6138 8.34068C85.7128 8.34068 85.9478 8.30468 86.3198 8.22968C86.5918 8.18168 86.9128 8.11868 87.2848 8.04568C87.7028 8.02068 88.0868 7.99468 88.4338 7.96968C88.8048 7.91868 89.0528 7.98068 89.1748 8.15468ZM31.7708 13.1607C31.5718 13.1607 31.3748 13.2467 31.1768 13.4207C31.0038 13.6427 30.9178 13.9147 30.9178 14.2367C30.9178 14.5577 31.0038 14.8287 31.1768 15.0517C31.3748 15.2497 31.5718 15.3487 31.7708 15.3487H34.4768C34.6998 15.3487 34.9218 15.2497 35.1448 15.0517C35.3178 14.8287 35.4038 14.5577 35.4038 14.2367C35.4038 13.9147 35.3178 13.6427 35.1448 13.4207C34.9208 13.2477 34.6998 13.1607 34.4768 13.1607H31.7708ZM3.06783 13.0867C3.14283 13.5817 3.21583 14.0877 3.28983 14.6077C3.36583 15.2007 3.41483 15.7697 3.43883 16.3137C3.51383 16.7837 3.57483 17.2037 3.62483 17.5737C3.84783 17.3517 4.15683 17.0797 4.55183 16.7577C4.99683 16.4117 5.44083 16.0407 5.88583 15.6467C6.87583 14.9297 7.82683 14.2127 8.74183 13.4947C9.68083 12.8267 10.5218 12.2217 11.2628 11.6787H2.88283C2.90683 12.0717 2.96883 12.5417 3.06783 13.0867Z" fill="#9FB1C9"/>
</g>
<defs>
<clipPath id="clip0_28409_24644">
<rect width="90.25" height="32" fill="white" transform="translate(0.333008 0.133789)"/>
</clipPath>
</defs>
</svg>
