<svg width="46" height="32" viewBox="0 0 46 32" fill="none" xmlns="http://www.w3.org/2000/svg">
<g clip-path="url(#clip0_28409_24645)">
<path fill-rule="evenodd" clip-rule="evenodd" d="M44.4411 10.7698C44.3571 10.8248 44.2211 10.8528 44.0291 10.8528C43.6481 10.9348 43.0321 10.9898 42.1851 11.0178C41.3101 11.0428 40.3651 11.0698 39.3541 11.0968C38.3411 11.1818 37.3441 11.2228 36.3571 11.2228C35.3761 11.2478 34.5681 11.2618 33.9351 11.2618C33.2261 11.2618 32.6531 11.3018 32.2141 11.3868C31.7771 11.4668 31.4361 11.5348 31.1901 11.5918C30.9731 11.7288 30.8341 11.8668 30.7781 12.0018C30.7241 12.1368 30.6971 12.3168 30.6971 12.5358V12.8658C30.6971 13.1118 30.7111 13.4108 30.7401 13.7658C30.7671 14.0928 30.8071 14.4088 30.8631 14.7078C30.9411 15.0908 31.0251 15.4608 31.1071 15.8168V15.9398L30.5331 16.5958V16.7198C30.3421 16.8288 29.8481 16.8838 29.0541 16.8838C27.4701 16.9658 26.1321 16.9888 25.0361 16.9658C23.9971 16.9658 23.1071 16.9378 22.3691 16.8838C21.7141 16.8008 21.1931 16.7198 20.8111 16.6378C20.4821 16.5258 20.2511 16.4308 20.1141 16.3498C19.8951 16.3498 19.6741 16.3918 19.4561 16.4748C19.2401 16.6388 18.9791 16.9128 18.6771 17.2948C18.3231 17.7048 17.9111 18.3338 17.4471 19.1818C17.0081 20.0848 16.5021 21.2888 15.9301 22.7908C15.3281 24.2658 14.6581 26.1268 13.9201 28.3678L13.8371 28.4518C13.8371 29.1078 13.6581 29.5168 13.3041 29.6828C13.1131 29.8718 12.9601 29.9138 12.8521 29.8058H3.66507C3.66507 29.6698 3.68107 29.5438 3.70707 29.4368C3.81307 29.1618 3.87307 28.9438 3.87307 28.7798H3.21407C3.10407 28.7798 2.99407 28.7678 2.88707 28.7388C2.25607 28.6838 1.76507 28.3968 1.41007 27.8798C1.21707 27.5748 1.12207 27.1938 1.12207 26.7298C1.12207 26.1568 1.20207 25.6628 1.36707 25.2528C1.50507 24.7868 1.57207 24.5268 1.57207 24.4738V24.5558C1.60007 24.5278 1.77707 24.2958 2.10607 23.8578C2.38007 23.4198 2.73507 22.8738 3.17307 22.2158C3.63907 21.5348 4.11607 20.8068 4.61007 20.0438C5.18407 19.2768 5.71607 18.5258 6.20907 17.7858C6.75407 16.7468 7.18107 15.8178 7.47907 14.9978C7.75607 14.1758 7.89007 13.4538 7.89007 12.8218C7.89007 12.4128 7.82307 12.0028 7.68807 11.5928C7.43907 11.0718 7.09707 10.6618 6.66207 10.3628C6.25107 10.1148 5.82507 9.88178 5.38907 9.66278C5.00507 9.58278 4.74607 9.40478 4.61007 9.12978C4.49807 8.82978 4.44507 8.49978 4.44507 8.14578C4.44507 8.01178 4.46107 7.87178 4.48607 7.73578C4.48607 7.65478 4.48607 7.55778 4.48607 7.44778L4.44507 7.36678V5.19078C4.44507 4.83478 4.44507 4.53678 4.44507 4.28778C4.44507 4.04178 4.40407 3.87978 4.32107 3.79578H4.28007C4.25307 3.79578 4.24007 3.75478 4.24007 3.67578C4.24007 3.64578 4.25307 3.60578 4.28007 3.55178L4.32107 3.46678C4.34907 3.41378 4.47307 3.33378 4.69107 3.22378C4.88407 3.14178 5.47207 3.07278 6.45407 3.01678C6.51007 2.93478 6.53807 2.85278 6.53807 2.76978C6.53807 2.71478 6.57907 2.66178 6.66307 2.60678C6.71607 2.49678 6.76807 2.40178 6.82607 2.31778L6.94707 2.19678L8.13507 2.23878L8.26107 2.52578C8.31307 2.57978 8.34107 2.66178 8.34107 2.77078C8.36907 2.85378 8.38307 2.93678 8.38307 3.01778H42.2671L42.3481 2.85378C42.4021 2.79878 42.4441 2.77078 42.4721 2.77078L43.2511 2.52578C43.2791 2.57978 43.3341 2.63578 43.4161 2.68978L43.6201 2.89178H45.0971L45.3851 7.36678C45.3831 9.24978 45.0701 10.3868 44.4411 10.7698ZM28.2361 11.5918H22.4091C22.3301 11.5918 22.2321 11.6578 22.1251 11.7958C21.9861 11.9338 21.9191 12.1238 21.9191 12.3728V14.3408C21.9191 14.6418 21.9861 14.8448 22.1251 14.9538C22.2311 15.0908 22.3301 15.1618 22.4091 15.1618H28.2361C28.3751 15.1618 28.4851 15.0908 28.5641 14.9538C28.7011 14.8448 28.7721 14.6408 28.7721 14.3408V12.3728C28.7721 12.1238 28.7011 11.9348 28.5641 11.7958C28.4851 11.6578 28.3751 11.5918 28.2361 11.5918Z" fill="#9FB1C9"/>
</g>
<defs>
<clipPath id="clip0_28409_24645">
<rect width="44.875" height="32" fill="white" transform="translate(0.875)"/>
</clipPath>
</defs>
</svg>
