<svg width="55" height="38" viewBox="0 0 55 38" fill="none" xmlns="http://www.w3.org/2000/svg">
<g clip-path="url(#clip0_28439_23081)">
<path opacity="0.6" d="M26.8899 0.157375C25.3731 0.400737 23.7707 2.97631 23.1591 4.23369L18.6943 5.08545L34.107 18.8354C37.2465 21.1068 43.5871 25.6982 43.8316 25.8929C44.1374 26.1362 44.9326 27.0488 46.4005 28.2048C49.0304 27.9006 48.6022 26.623 48.6022 25.8929C48.6022 25.1628 44.6878 21.8166 44.4433 21.6341C44.1985 21.4516 42.3646 19.9313 41.9971 19.6265L41.9968 19.6263C41.6299 19.3221 41.9968 19.0179 42.3637 19.0787C42.7306 19.1396 42.9754 19.748 43.5257 20.0522C44.0761 20.3564 47.3048 23.0956 47.6236 23.2767C48.0518 23.5201 50.3992 25.8202 51.4766 26.0754C52.2319 26.2542 52.9003 25.6341 53.128 24.9194C53.2878 24.4185 53.2504 23.8851 53.128 23.5201C52.8568 22.71 50.1925 20.904 49.8866 20.6606C49.5808 20.4172 44.5043 17.0102 44.2598 16.6451C44.015 16.2801 44.3209 15.9759 44.8102 16.1584C45.2995 16.3409 49.3973 19.748 50.0701 20.0522C50.7428 20.3564 52.2718 21.3299 53.128 21.4515C53.9845 21.5732 54.5348 20.2956 54.4738 19.4438C54.3716 19.3221 54.1679 19.0301 54.1679 18.8354C54.1679 18.592 52.6387 17.3144 52.4552 17.071C52.2718 16.8277 48.3574 14.029 47.3177 13.3597C46.2456 12.6696 41.2627 10.6828 41.5075 10.2569C41.752 9.83101 42.3637 9.95268 42.853 10.5003C43.3423 11.0478 44.8102 11.7779 45.4219 12.1429C46.0333 12.508 47.807 12.6905 49.0915 12.1429C50.1188 11.7049 49.2341 10.703 48.6632 10.2569C48.0518 9.95268 46.4005 8.00578 45.9112 7.45823C45.4219 6.91065 42.0578 3.99032 41.5075 3.74696C40.9572 3.50359 39.1221 3.07772 38.3883 3.13856C37.6542 3.19941 37.7155 2.95604 37.1038 2.83436C36.4921 2.71268 35.0856 2.71267 32.1498 2.65183C29.214 2.59099 28.7861 -0.146827 26.8899 0.157375Z" fill="#9FB1C9"/>
<path d="M13.2457 1.37422C13.7961 1.55674 16.9153 3.19945 16.8542 3.01691C16.793 2.83439 17.0377 2.71271 17.16 2.46935C17.2823 2.22599 17.9551 2.10431 18.322 2.22599C18.689 2.34767 21.1966 2.89523 21.7471 3.13859C22.2975 3.38197 22.481 3.68615 22.3587 4.29455C24.9274 3.80785 28.2302 4.84213 28.536 5.14632C28.8419 5.45053 30.1263 6.36315 30.4318 6.66733C30.7377 6.97155 32.1445 7.45828 32.6338 7.70161C33.1231 7.94498 33.3066 8.31004 33.7345 8.67508C34.1628 9.04011 34.591 9.04011 34.8966 9.89188C35.2024 10.7436 37.282 12.508 38.1382 13.2989C38.9944 14.0899 39.0558 13.8465 38.9944 14.4549C38.9334 15.0633 37.6489 15.5501 37.0986 15.9151C36.5482 16.2801 33.7345 15.185 33.3066 15.0633C32.8783 14.9417 28.4747 10.622 27.9855 10.622C27.4962 10.622 28.2912 11.2304 28.7805 11.6563C29.2698 12.0821 32.5725 14.7591 33.3066 15.5501C34.0404 16.341 42.8477 23.0943 43.8874 24.1286C44.927 25.1628 45.1108 25.6496 45.1718 26.5622C45.2329 27.4748 43.8322 28.144 43.0373 28.3265C42.2422 28.5091 38.8723 26.3188 38.5051 26.1363C38.1382 25.9538 33.3066 21.9383 30.4318 19.9914C28.6584 18.7901 29.1477 19.9914 29.5146 20.2956C29.8815 20.5998 31.8997 22.4858 32.2056 22.7901C32.5114 23.0942 36.4258 26.258 36.7927 26.5622C37.1596 26.8664 41.3185 29.8476 41.6244 30.2126C41.9302 30.5777 42.3585 31.4295 42.5419 31.7338C42.7253 32.0377 42.4809 32.8897 42.0526 33.6197C41.6244 34.3496 41.1351 34.4714 39.5451 34.1671C37.9548 33.8632 34.8355 31.186 34.2852 30.9428C33.7345 30.6993 31.4104 28.7524 31.227 28.6308C31.0435 28.5091 29.0864 26.8055 28.6584 26.5013C28.2302 26.1971 26.9458 25.0411 25.906 24.2502C24.8051 24.0069 24.9886 24.8586 25.1721 25.1628C25.2856 25.3509 26.6399 26.3796 27.7409 27.2923C28.5381 27.9532 31.7163 30.3343 33.3066 31.4902C33.3066 31.4902 36.9151 33.8021 37.282 34.5324C37.6489 35.2623 37.6244 35.7124 36.7927 36.54C35.2024 38.3045 32.0832 35.6273 30.9211 35.0798C29.7591 34.5324 25.3556 30.5776 25.1721 30.456C24.9886 30.3343 21.6248 27.6573 21.1355 27.2923C20.6462 26.9272 20.2792 27.4139 20.5238 27.6573C20.7685 27.9007 23.0926 29.8476 23.9489 30.456C24.8051 31.0642 27.2312 33.1329 28.536 33.9239C28.8419 34.2889 29.5756 34.2889 29.8204 35.4448C29.698 36.7833 27.7409 36.8443 27.3739 36.7833C27.0069 36.7225 23.3984 34.4714 22.9703 34.2889C22.5422 34.1064 21.3801 33.0722 20.8296 32.7679C20.2792 32.4637 18.1386 30.3951 17.8939 30.2126C17.6493 30.0301 13.2457 25.1628 12.8787 24.9803C12.5117 24.7978 6.76258 18.1054 5.72285 17.2536C4.68311 16.4018 4.25498 15.7934 4.01033 15.3067C3.76568 14.82 2.06284 15.3771 0.83959 13.6127C-0.383619 11.8484 1.97837 7.63379 3.47844 5.13379C4.97852 2.63379 8.42356 0.478836 8.42356 0.478836C9.37283 0.26182 10.4768 0.418694 11.4244 0.680252C11.4573 0.689327 11.49 0.698529 11.5225 0.707846C12.2429 0.914401 12.8645 1.17738 13.2457 1.37422Z" fill="#9FB1C9"/>
</g>
<defs>
<clipPath id="clip0_28439_23081">
<rect width="53.9787" height="37" fill="white" transform="translate(0.5 0.133789)"/>
</clipPath>
</defs>
</svg>
