<svg width="88" height="33" viewBox="0 0 88 33" fill="none" xmlns="http://www.w3.org/2000/svg">
<g clip-path="url(#clip0_28409_24649)">
<path fill-rule="evenodd" clip-rule="evenodd" d="M68.3826 18.2476C68.5026 18.3516 68.6356 18.4206 68.7786 18.4636H70.8306L70.9246 18.4006C71.0256 18.3606 71.1086 18.2986 71.1696 18.2166C71.3936 17.9916 71.5076 17.7066 71.5076 17.3596C71.4866 17.0126 71.3836 16.7476 71.1996 16.5636C71.1376 16.5216 71.0766 16.4816 71.0156 16.4406L70.9236 16.4116H68.6866C68.5636 16.4716 68.4426 16.5636 68.3196 16.6866C68.0936 16.9296 67.9826 17.2076 67.9826 17.5126C67.9826 17.8176 68.1156 18.0646 68.3826 18.2476ZM87.4996 17.8186C86.8466 18.2486 86.0806 18.7166 85.2026 19.2296C83.4446 20.2706 81.9756 20.9956 80.7906 21.4036C78.6666 22.1606 76.6026 22.6706 74.6016 22.9356C73.9906 22.9976 73.4166 23.0386 72.8866 23.0586L42.0926 23.2116C42.0716 23.1506 42.0306 23.0996 41.9696 23.0586C41.8466 22.9356 41.7036 22.8436 41.5416 22.7826C41.3976 22.7026 41.1856 22.6386 40.8976 22.5996L40.5296 22.5366L34.6786 22.5676L34.6476 27.2556L34.4336 27.3786C34.2686 27.4586 34.1056 27.4996 33.9406 27.4996C33.7986 27.4996 33.6466 27.4586 33.4836 27.3786L33.2376 27.2836L33.1776 22.4436L32.9016 22.3826L32.8396 21.5526L32.6556 21.9226L28.5516 21.8336L28.3986 21.4366L27.9986 21.4036L27.8466 21.8626L24.5366 21.9866L24.3226 21.5896L23.8636 21.5556L23.6496 21.9876H20.2176L19.9726 21.5276H19.6966L19.4526 21.9256L16.2346 21.9876L15.9596 21.5906H15.6516L15.4376 22.0186L12.0376 21.8956L11.7306 21.4386H11.2716L11.0556 21.6216L10.3236 21.9886C9.68759 22.0296 8.99359 22.0706 8.23859 22.1106C6.72559 22.1926 5.64459 22.2216 4.99059 22.2026C4.23459 22.1816 3.70259 22.1626 3.39859 22.1426C3.13159 22.1216 2.94759 22.0896 2.84459 22.0496C2.78259 22.0076 2.72159 21.9566 2.65959 21.8956L2.59959 21.8036L1.21959 21.9266C1.13759 21.8636 1.08859 21.7946 1.06759 21.7116C1.04659 21.6706 1.02559 21.6306 1.00559 21.5906L0.975594 20.0876L0.793594 19.5036C0.772594 19.2996 0.751594 19.0656 0.730594 18.7996C0.709594 18.2476 0.709594 17.8096 0.730594 17.4816C0.751594 17.1546 0.793594 16.8086 0.854594 16.4406L0.975594 16.0116V14.3886C0.975594 14.3476 0.975594 14.3066 0.975594 14.2656C0.996594 14.1436 1.02559 14.0506 1.06759 13.9896C1.13059 13.9296 1.19059 13.8966 1.25259 13.8966C1.27359 13.8756 1.29359 13.8756 1.31459 13.8966H2.81659L3.15159 13.8356C3.43759 13.7946 3.69359 13.7646 3.91759 13.7446C4.14459 13.7236 5.24559 13.7446 7.22759 13.8066C8.22759 13.8266 9.19959 13.8476 10.1386 13.8686L11.0886 14.2656L11.2096 14.3886L11.7306 14.3566L12.0376 13.9296L15.3766 13.8066L15.6516 14.2036H15.9276L16.2656 13.8066H19.3596L19.6346 14.2336L19.9426 14.2656L20.1876 13.8066L23.6176 13.7746L23.8326 14.2046L24.2946 14.1746L24.5366 13.7456L27.7546 13.8686L27.9076 14.2656L28.3366 14.2946L28.5196 13.8676L32.6266 13.7446L32.7796 14.1426L32.8416 13.2846L33.1176 13.2536V5.01162L33.2686 4.88963C33.3916 4.80763 33.5356 4.76562 33.7006 4.76562C33.8836 4.76562 34.0776 4.80763 34.2806 4.88963C34.4036 4.92963 34.4956 4.97162 34.5566 5.01162L34.6486 12.8876H39.6116L40.1946 13.4366L40.7756 14.6956L40.9896 14.7246C41.1736 14.7456 41.3176 14.7036 41.4196 14.6016C41.6466 14.4176 41.6546 14.1326 41.4486 13.7456C41.3896 13.6226 41.3066 13.4996 41.2046 13.3776L41.0836 13.2246L44.0546 13.3476L44.6376 14.4806L44.7286 14.5426C44.7906 14.6036 44.8626 14.6446 44.9446 14.6646C45.1676 14.7676 45.3636 14.7266 45.5266 14.5426C45.6686 14.3796 45.6586 14.1346 45.4946 13.8086C45.4536 13.6856 45.3936 13.5736 45.3116 13.4696L45.2186 13.3486L47.1176 13.5316L47.6996 14.6356L47.7626 14.6976C47.8446 14.7166 47.9146 14.7386 47.9786 14.7576C48.2016 14.7986 48.3756 14.7166 48.4976 14.5136C48.6196 14.3296 48.6116 14.1056 48.4686 13.8386C48.4266 13.7566 48.3766 13.6766 48.3156 13.5936L48.2526 13.5016H50.0926L50.6126 14.5746L50.6746 14.6366C50.7366 14.6746 50.8076 14.7066 50.8906 14.7276C51.0946 14.7896 51.2986 14.7066 51.5016 14.4826C51.6246 14.3386 51.6036 14.1256 51.4396 13.8386C51.3976 13.7566 51.3486 13.6766 51.2876 13.5936L51.1946 13.4706H53.0956L53.5846 14.4826L53.6756 14.5756C53.7586 14.6376 53.8406 14.6756 53.9206 14.6986C54.1656 14.7996 54.3706 14.7076 54.5346 14.4216C54.6146 14.2776 54.5966 14.0746 54.4726 13.8106C54.4316 13.7486 54.3786 13.6776 54.3196 13.5946L54.2276 13.5026L55.8506 13.4396L56.2806 14.4826L56.3736 14.5446C56.4756 14.5856 56.5656 14.6266 56.6476 14.6666C56.9546 14.7486 57.1786 14.6986 57.3206 14.5146C57.4436 14.3716 57.4236 14.1476 57.2606 13.8396C57.2196 13.7366 57.1576 13.6366 57.0776 13.5326L56.9836 13.4116L58.6686 13.4716L59.2516 14.5146L59.3136 14.6056C59.3966 14.6466 59.4656 14.6756 59.5276 14.6996C59.7526 14.7596 59.9366 14.6876 60.0786 14.4836C60.2226 14.2786 60.2126 14.0546 60.0496 13.8106C59.9866 13.7486 59.9166 13.6776 59.8356 13.5946L59.7426 13.5326L61.6106 13.5636L62.0706 14.4516L62.1626 14.4826C62.2246 14.5026 62.2866 14.5236 62.3486 14.5446C62.5506 14.5446 62.6946 14.4626 62.7756 14.2986C62.8786 14.1156 62.8786 13.9206 62.7756 13.7156C62.7356 13.6366 62.6836 13.5646 62.6226 13.5026L62.5636 13.4396L64.5856 13.4116L81.6806 16.4746L87.4996 17.8186Z" fill="#9FB1C9"/>
</g>
<defs>
<clipPath id="clip0_28409_24649">
<rect width="87.167" height="32" fill="white" transform="translate(0.5625 0.133789)"/>
</clipPath>
</defs>
</svg>
