<svg width="97" height="32" viewBox="0 0 97 32" fill="none" xmlns="http://www.w3.org/2000/svg">
<g clip-path="url(#clip0_28409_24661)">
<path fill-rule="evenodd" clip-rule="evenodd" d="M55.141 3.71699H56.051L56.487 3.86199C56.56 4.00699 56.67 4.09299 56.815 4.11699C56.936 4.11699 57.045 4.11699 57.142 4.11699L57.214 4.26299C57.335 4.26299 57.42 4.27599 57.468 4.29899C57.566 4.34699 57.65 4.33499 57.724 4.26299C57.82 4.26299 57.966 4.27599 58.16 4.29899C58.329 4.34699 58.499 4.42099 58.668 4.51699C58.862 4.58899 59.021 4.67399 59.141 4.77099C59.287 4.84399 59.372 4.89299 59.396 4.91699C59.468 4.94199 59.542 4.95399 59.613 4.95399C59.712 5.02699 59.796 5.06299 59.868 5.06299H60.196C60.244 5.06299 60.329 5.07499 60.45 5.09899C60.596 5.14699 60.742 5.22099 60.887 5.31699C61.056 5.36599 61.201 5.41399 61.323 5.46299L61.505 5.57099H61.614C61.686 5.76499 61.747 5.94599 61.796 6.11699C61.868 6.28499 61.929 6.47999 61.977 6.69799C62.026 6.91599 62.05 7.12199 62.05 7.31599C62.05 7.48599 62.038 7.65599 62.012 7.82499C62.012 7.99499 61.976 8.16499 61.904 8.33299C61.709 8.96399 61.516 9.36399 61.321 9.53399C61.127 9.72799 61.03 9.88499 61.03 10.007C60.958 10.055 60.909 10.079 60.885 10.079C60.815 10.103 60.755 10.116 60.703 10.117H70.376C70.424 10.214 70.461 10.298 70.485 10.371C70.558 10.541 70.631 10.65 70.703 10.699C71.164 10.772 71.673 10.869 72.231 10.99C72.764 11.136 73.296 11.268 73.831 11.39C74.364 11.488 74.812 11.572 75.176 11.644C75.588 11.742 75.843 11.777 75.94 11.753C76.158 11.753 76.292 11.547 76.34 11.135C76.388 11.014 76.412 10.844 76.412 10.625L77.139 9.17099C77.139 9.14699 77.139 9.03799 77.139 8.84399C77.139 8.67399 77.151 8.47899 77.176 8.26099C77.2 7.99499 77.237 7.72699 77.285 7.46199H78.449V11.461L78.411 11.752V11.825C78.411 11.897 78.509 11.933 78.702 11.933C78.775 12.006 79.212 12.043 80.012 12.043C80.836 12.043 81.83 12.03 82.993 12.006C84.181 12.006 85.454 11.994 86.811 11.969C88.144 11.945 89.405 11.933 90.593 11.933C90.981 11.909 91.369 11.897 91.757 11.897C92.071 11.897 92.387 11.897 92.702 11.897C92.993 11.897 93.223 11.909 93.393 11.933C93.659 11.933 93.927 11.933 94.192 11.933C94.484 11.933 94.762 11.897 95.029 11.825C95.563 11.825 95.926 11.825 96.119 11.825C96.289 11.825 96.374 11.861 96.374 11.933C96.617 12.83 96.726 13.4 96.701 13.643C96.652 13.837 96.543 13.934 96.374 13.934C96.301 14.006 95.999 14.043 95.465 14.043C94.908 14.043 94.314 14.019 93.683 13.97C93.102 13.945 92.533 13.921 91.975 13.897C91.416 13.897 91.101 13.873 91.03 13.825H78.887C78.887 13.897 78.741 13.934 78.451 13.934V14.443H80.087L80.669 15.062V16.771H79.905C79.808 16.747 79.711 16.698 79.614 16.625C79.541 16.602 79.493 16.566 79.468 16.517C79.395 16.492 79.347 16.48 79.322 16.48C79.249 16.48 79.164 16.492 79.068 16.517C78.97 16.517 78.838 16.517 78.668 16.517C78.499 16.566 78.305 16.589 78.087 16.589L72.487 16.771C71.711 16.844 70.995 16.903 70.341 16.952C69.687 16.977 69.347 16.989 69.323 16.989C69.225 17.158 69.069 17.39 68.85 17.68C68.632 17.994 68.305 18.153 67.869 18.153C67.48 18.153 67.032 17.849 66.522 17.244C66.354 17.244 66.208 17.208 66.087 17.134C65.941 17.038 65.832 16.989 65.759 16.989C65.832 17.377 65.868 17.68 65.868 17.898C65.868 18.117 65.868 18.347 65.868 18.59C65.868 18.929 65.856 19.183 65.832 19.353C65.783 19.499 65.723 19.62 65.65 19.717C65.48 19.741 65.286 19.741 65.067 19.717C64.898 19.668 64.703 19.595 64.486 19.499C64.389 19.475 63.965 19.463 63.214 19.463C62.414 19.463 61.48 19.463 60.414 19.463C59.323 19.463 58.171 19.475 56.958 19.499C56.107 19.499 55.295 19.499 54.522 19.499C54.559 19.628 54.596 19.762 54.631 19.899C54.922 21.013 55.067 21.898 55.067 22.552V29.389C55.067 29.971 55.007 30.286 54.885 30.334C54.716 30.286 54.547 30.262 54.376 30.262H46.485C46.122 30.262 45.891 30.226 45.794 30.154C45.649 30.081 45.576 29.887 45.576 29.571L45.505 17.861C45.554 17.764 45.578 17.667 45.578 17.57C45.537 17.405 45.373 17.302 45.088 17.261C45.058 17.266 45.029 17.271 44.996 17.279C44.924 17.303 44.839 17.4 44.742 17.57C44.645 17.57 44.596 17.655 44.596 17.825C44.596 17.995 44.608 18.153 44.631 18.297C44.631 18.419 44.668 18.516 44.741 18.589C44.717 18.661 44.668 18.746 44.595 18.842C44.497 18.916 44.413 18.951 44.34 18.951C44.413 19.121 44.449 19.278 44.449 19.424C44.473 19.57 44.486 19.752 44.486 19.969C44.486 20.357 44.438 20.709 44.34 21.025C44.194 21.339 43.928 21.546 43.54 21.642C43.225 21.812 42.836 21.921 42.376 21.97C41.939 22.018 41.528 22.018 41.14 21.97C40.727 21.921 40.388 21.873 40.121 21.824C39.854 21.776 39.722 21.715 39.722 21.642C39.625 21.618 39.527 21.594 39.43 21.57C39.236 21.522 39.114 21.462 39.066 21.387C39.043 21.461 38.946 21.751 38.776 22.26C38.582 22.745 38.364 23.291 38.121 23.897C37.879 24.479 37.672 25.024 37.503 25.532C37.333 25.993 37.248 26.248 37.248 26.297C37.297 26.369 37.37 26.503 37.467 26.696C37.492 26.866 37.504 26.988 37.504 27.06C37.504 27.157 37.443 27.266 37.322 27.387C37.273 27.557 37.14 27.763 36.922 28.006C36.656 28.223 36.147 28.223 35.395 28.006C35.008 27.909 34.595 27.787 34.159 27.642C33.722 27.472 33.323 27.314 32.958 27.169C32.546 27.023 32.11 26.853 31.65 26.66H31.394L31.54 26.441C31.831 25.932 32.171 25.351 32.559 24.695C32.971 24.041 33.347 23.423 33.686 22.841C34.049 22.258 34.34 21.761 34.558 21.349C34.801 20.938 34.922 20.695 34.922 20.622C34.995 20.453 34.983 20.21 34.886 19.895C34.764 19.556 34.583 19.325 34.341 19.203L33.867 18.949C33.738 18.884 33.61 18.823 33.485 18.768L26.304 18.258H20.158C18.849 18.258 17.504 18.391 16.122 18.658C14.571 18.949 13.722 19.3 13.577 19.713C13.48 19.931 13.455 20.258 13.504 20.694C13.577 21.227 13.758 21.688 14.049 22.076C14.339 22.44 14.424 22.694 14.304 22.84C14.255 22.913 14.17 22.948 14.049 22.948L1.289 23.534C0.949 23.534 0.67 23.365 0.452 23.025C0.233 22.686 0.125 22.273 0.125 21.789V11.243C0.246 11.073 0.439 10.94 0.706 10.844C1.265 10.601 1.906 10.625 2.633 10.917C3.143 11.111 5.506 11.438 9.725 11.898C10.137 11.922 10.609 12.249 11.143 12.88C11.676 13.485 12.21 13.825 12.744 13.898C13.252 13.946 13.98 13.922 14.925 13.826C15.75 13.753 16.501 13.644 17.18 13.498C18.732 13.207 20.09 12.844 21.253 12.406C21.956 12.14 22.938 11.716 24.199 11.135C25.766 10.466 27.474 10.115 29.326 10.079C29.479 10.055 29.637 10.031 29.798 10.007C30.477 9.91099 31.156 9.81299 31.834 9.71499C32.489 9.64399 32.998 9.61899 33.362 9.64399V9.35299C33.508 9.01399 33.629 8.68599 33.726 8.37199C33.799 8.10399 33.908 7.88599 34.053 7.71699C34.222 7.52299 34.441 7.37799 34.708 7.28099C34.95 7.20799 35.291 7.18299 35.727 7.20799C36.09 7.28099 36.478 7.36599 36.89 7.46299C37.303 7.53499 37.678 7.61999 38.018 7.71699L39.071 8.07999C39.145 8.10399 39.217 8.18999 39.29 8.33399C39.363 8.35899 39.422 8.45599 39.472 8.62599C39.52 8.77099 39.544 8.95299 39.544 9.17099V9.64399H45.398V9.17099H48.489V9.64399C48.731 9.64399 49.034 9.65599 49.398 9.67999C49.811 9.67999 50.221 9.67999 50.634 9.67999C51.046 9.67999 51.422 9.69199 51.761 9.71499C52.052 9.76399 52.234 9.78899 52.307 9.78899C52.379 9.78899 52.682 9.76499 53.215 9.71499C53.749 9.69199 54.391 9.65499 55.142 9.60699C55.894 9.58299 56.67 9.52299 57.469 9.42499C58.318 9.37699 59.082 9.29199 59.761 9.17099C59.833 9.14699 59.942 9.04999 60.088 8.87999C60.209 8.80699 60.33 8.68699 60.451 8.51699C60.549 8.32299 60.658 8.04399 60.778 7.67999C60.487 7.43799 60.269 7.29299 60.124 7.24399C60.003 7.19599 59.882 7.13499 59.761 7.06199C59.518 7.06199 59.373 7.00199 59.324 6.87999C59.082 6.78199 58.802 6.69799 58.488 6.62599C58.149 6.55299 57.857 6.49299 57.615 6.44399H57.469C57.3 6.32299 57.009 6.26199 56.597 6.26199L55.905 6.11699C55.613 6.04299 55.421 5.98199 55.322 5.93399C55.25 5.88599 55.128 5.76399 54.958 5.56999V5.53399H54.195C53.929 5.53399 53.723 5.54699 53.576 5.57099C53.456 5.57099 53.334 5.55899 53.213 5.53399C52.996 5.26799 52.862 4.97699 52.814 4.66099C52.741 4.37099 52.948 3.82499 53.432 3.02499V2.91699H53.505C54.135 3.08599 54.536 3.21999 54.704 3.31599C54.899 3.46199 55.045 3.59499 55.141 3.71699ZM43.196 19.098C42.782 19.154 41.94 19.166 40.669 19.134C40.523 19.328 40.45 19.522 40.45 19.717C40.45 20.032 40.56 20.287 40.778 20.48C40.972 20.674 41.238 20.771 41.578 20.771H42.524C42.718 20.771 42.912 20.674 43.106 20.48C43.3 20.287 43.396 20.032 43.396 19.717C43.396 19.512 43.33 19.305 43.196 19.098Z" fill="#9FB1C9"/>
</g>
<defs>
<clipPath id="clip0_28409_24661">
<rect width="96.583" height="32" fill="white" transform="translate(0.125)"/>
</clipPath>
</defs>
</svg>
