<svg width="98" height="33" viewBox="0 0 98 33" fill="none" xmlns="http://www.w3.org/2000/svg">
<g clip-path="url(#clip0_28409_24668)">
<path fill-rule="evenodd" clip-rule="evenodd" d="M97.06 9.24458V12.9096L96.944 13.1026L79.27 13.0646L79.231 12.3696L79.579 12.3316L79.618 12.0606L73.946 11.9846V11.8296L71.592 11.8686L71.129 12.0216L67.039 11.9836L67.849 12.1386V12.8336L67.656 13.0656L66.769 13.0266V13.3356H66.112V12.1776H66.267V12.0216L63.758 11.9456L63.681 12.1776L63.603 12.7556C63.578 12.8066 63.552 12.8456 63.526 12.8716C63.475 12.9226 63.41 12.9486 63.333 12.9486C63.282 12.9236 63.217 12.8846 63.14 12.8336L62.986 12.7556L63.024 12.2146L62.947 11.9836H62.446L62.406 12.8326C62.381 12.9086 62.33 12.9606 62.253 12.9866L62.098 13.1026H61.828L61.597 13.6046L47.357 13.7196L47.087 13.5666L46.739 13.4886L46.006 13.7586L45.929 12.7936L45.233 12.8336L45.271 13.4506L45.233 13.5286C45.207 13.6056 45.169 13.6696 45.117 13.7206C45.065 13.7466 44.988 13.7726 44.885 13.7986L44.769 13.8376C44.744 13.8116 44.704 13.7986 44.653 13.7986C44.55 13.7986 44.474 13.8496 44.421 13.9536C44.369 14.0306 44.318 14.1076 44.267 14.1846L44.19 14.3386V17.6186L44.42 17.6966L44.459 17.9666L43.957 18.1596V19.3556C44.009 20.2826 44.125 21.1436 44.305 21.9406C44.486 22.7386 44.768 23.7426 45.154 24.9516C45.335 25.5696 45.502 26.0966 45.656 26.5326L45.809 26.7266L39.983 28.3476H39.829V28.1926C39.649 27.5756 39.443 26.8936 39.211 26.1476C38.773 24.6046 38.478 23.4596 38.323 22.7136C38.17 21.9676 38.065 21.1956 38.014 20.3986L37.937 19.3956L37.512 19.4726L36.972 19.3956H33.345L32.149 19.5106C32.097 19.5106 32.033 19.5106 31.957 19.5106C31.776 19.5106 31.634 19.5486 31.532 19.6266C31.455 19.7036 31.377 19.7816 31.3 19.8586L30.452 21.4796L30.875 21.9816L30.76 22.0576C30.605 22.1096 30.425 22.1866 30.218 22.2886C30.116 22.3406 30.026 22.4166 29.949 22.5206L29.871 22.6366L28.211 25.8786C28.16 25.9806 28.148 26.0836 28.173 26.1866C28.198 26.2636 28.263 26.3666 28.366 26.4946C28.417 26.5456 28.468 26.5846 28.52 26.6116L28.366 26.9576L22.925 25.6846L27.826 17.1946C27.877 17.0916 27.915 16.9766 27.942 16.8466C28.045 16.6156 28.071 16.3846 28.019 16.1526C27.942 15.8706 27.853 15.6386 27.749 15.4596C27.621 15.2796 27.479 15.1246 27.325 14.9966C27.17 14.8936 27.016 14.8166 26.862 14.7646L25.627 14.7256V14.8806L25.279 14.9186L25.241 12.7956L24.276 12.7576L24.237 12.4096H20.34L19.414 13.1046L15.747 13.1826V13.5306L12.544 13.5696L12.583 15.5756H10.346V16.3866H9.26601V15.6156L5.63801 17.8926V16.0396L1.04601 18.1236L1.00801 18.8946L0.969008 19.0106C0.917008 19.1136 0.852008 19.1646 0.776008 19.1646C0.700008 19.1646 0.648008 19.1136 0.622008 19.0106L0.583008 18.8916L0.661008 8.62758H4.75101C4.82801 8.65258 4.87901 8.70358 4.90501 8.78158C4.95601 8.88458 4.99501 9.06458 5.02201 9.32158L15.557 9.43858C15.609 9.46458 15.647 9.48958 15.672 9.51458C15.723 9.56658 15.749 9.63058 15.749 9.70658L24.278 9.74658L24.239 9.39858H25.242V9.12858L25.589 9.09058L25.628 9.35958L26.63 9.32158V8.85858H27.634L27.712 8.93658L30.297 4.80658L30.412 4.65358C30.516 4.52458 30.618 4.44758 30.722 4.42258C30.824 4.34458 30.954 4.29358 31.107 4.26758C31.185 4.26758 31.262 4.26758 31.339 4.26758L44.19 5.65658L44.575 5.73358C44.884 5.83658 45.102 5.96558 45.231 6.11958C45.359 6.30058 45.488 6.51858 45.616 6.77558C45.668 6.90358 45.72 7.01958 45.77 7.12358L45.694 9.63158L45.964 9.59258L46.002 8.47258L46.813 8.62758V8.35658L47.083 8.31758C47.083 8.29258 47.083 8.26658 47.083 8.24158C47.109 8.18958 47.135 8.15058 47.16 8.12458C47.211 8.09858 47.277 8.07358 47.353 8.04758L61.632 8.27858L61.787 8.58858V8.97358L62.173 9.01358L62.25 9.05158C62.327 9.10258 62.365 9.15458 62.365 9.20558C62.39 9.30858 62.417 9.61758 62.443 10.1316H62.944L62.983 8.62758L65.337 5.30858L65.568 5.11558C65.722 4.98658 65.877 4.93558 66.031 4.96158C66.417 5.01258 66.7 5.15358 66.88 5.38558C66.957 5.46258 66.995 5.55258 66.995 5.65558C66.995 5.70658 66.982 5.74558 66.957 5.77158L66.995 10.1316H71.087L71.627 10.3246L73.943 10.2866V10.1316H79.615V9.09058H96.903L97.06 9.24458ZM66.149 7.85458C66.072 7.80358 66.008 7.73958 65.957 7.66158C65.931 7.58458 65.879 7.41758 65.802 7.16058L65.763 6.77458L64.875 6.69758L63.486 8.85758L63.68 9.01258H66.304L66.496 8.78058V7.85458H66.149ZM63.718 10.1316H66.187L66.303 9.74658H63.718V10.1316ZM44.268 6.27258H33.462C33.385 6.27258 33.295 6.27258 33.193 6.27258C33.012 6.32458 32.871 6.38858 32.768 6.46558C32.665 6.54358 32.549 6.65858 32.421 6.81258L32.266 7.00558L31.649 8.51158L31.88 8.74258L44.191 8.66458L44.344 8.62658C44.448 8.60058 44.55 8.54858 44.653 8.47158C44.962 8.26558 45.116 7.93058 45.116 7.46758C45.116 7.08158 44.974 6.77358 44.691 6.54258C44.588 6.46458 44.485 6.40058 44.383 6.34958L44.268 6.27258ZM4.28801 13.5286L4.13301 13.4896H1.27801L1.12401 13.5286C1.04601 13.6056 1.00801 13.6826 1.00801 13.7596C1.00801 13.8366 1.05901 13.9006 1.16201 13.9526C1.18701 13.9786 1.22601 14.0036 1.27801 14.0296H4.17301C4.22501 14.0036 4.26301 13.9656 4.28901 13.9136C4.36601 13.8366 4.40501 13.7726 4.40501 13.7206C4.40401 13.6436 4.36501 13.5806 4.28801 13.5286ZM1.00801 8.97358V9.39858H4.67401C4.67401 9.32158 4.66101 9.23158 4.63501 9.12858C4.63501 9.05158 4.59601 9.00058 4.51901 8.97358L4.36501 8.93558L1.00801 8.97358ZM36.473 16.3446C36.37 16.2926 36.267 16.2556 36.164 16.2296H34.698C34.595 16.3056 34.479 16.4216 34.35 16.5756C34.144 16.9106 34.029 17.2186 34.002 17.5016C33.977 17.7846 34.068 18.0676 34.273 18.3506C34.376 18.4796 34.491 18.5836 34.621 18.6596L34.466 18.7756C34.312 18.6976 34.145 18.5696 33.964 18.3896C33.631 18.0806 33.45 17.7466 33.424 17.3866C33.399 17.1556 33.45 16.8856 33.579 16.5756L33.733 16.2296C33.501 16.2546 33.282 16.3316 33.076 16.4596C32.614 16.7686 32.409 17.2186 32.46 17.8106C32.486 18.1456 32.653 18.4546 32.961 18.7376C33.115 18.8916 33.27 19.0076 33.424 19.0856H36.897V18.6226C37.026 18.5196 37.128 18.3656 37.206 18.1596C37.334 17.7986 37.309 17.4006 37.128 16.9636C37 16.7056 36.782 16.4996 36.473 16.3446Z" fill="#9FB1C9"/>
</g>
<defs>
<clipPath id="clip0_28409_24668">
<rect width="96.5" height="32" fill="white" transform="translate(0.583008 0.133789)"/>
</clipPath>
</defs>
</svg>
