<svg width="79" height="33" viewBox="0 0 79 33" fill="none" xmlns="http://www.w3.org/2000/svg">
<g clip-path="url(#clip0_28409_24664)">
<path fill-rule="evenodd" clip-rule="evenodd" d="M39.171 16.9989C39.171 16.6619 39.08 16.3899 38.898 16.1819C38.717 15.9739 38.496 15.8699 38.237 15.8699H36.368C36.342 15.8439 36.329 15.8569 36.329 15.9089C36.277 15.9609 36.224 16.1149 36.173 16.3769C36.148 16.5839 36.224 16.8819 36.406 17.2719C36.535 17.5839 36.575 17.7649 36.523 17.8159C36.368 17.9199 36.069 17.6739 35.627 17.0769C35.498 16.9219 35.407 16.6759 35.355 16.3379L35.316 15.8709C35.16 15.9479 35.004 16.0519 34.848 16.1829C34.563 16.4429 34.42 16.7139 34.42 16.9999C34.447 17.3629 34.563 17.7009 34.77 18.0119C35.005 18.3249 35.291 18.4799 35.627 18.4799H38.002C38.469 18.4799 38.794 18.3109 38.975 17.9729C39.105 17.7379 39.171 17.4139 39.171 16.9989ZM69.031 6.64386C68.901 6.90386 68.824 7.07186 68.798 7.14886C68.772 7.22786 68.784 7.38286 68.836 7.61786L69.07 8.12386H70.822L70.939 5.82586H69.46L69.031 6.64386ZM73.118 11.1589C73.041 11.1589 72.976 11.1199 72.925 11.0429L72.847 10.9259H71.639C71.484 11.3669 71.314 11.5879 71.134 11.5879H70.549C70.471 11.5879 70.394 11.5229 70.316 11.3939L70.199 11.2379H67.785V11.8599C67.785 12.0149 67.681 12.1719 67.473 12.3279C67.266 12.5089 67.046 12.5999 66.812 12.5999H48.007C47.878 12.5999 47.749 12.4829 47.617 12.2499L47.463 11.8989L47.034 12.5989H46.762V17.0759L47.073 17.4659C47.048 17.5699 46.944 17.6739 46.762 17.7779C46.632 17.8309 46.594 18.1029 46.644 18.5959C46.722 19.4779 46.762 19.9959 46.762 20.1529C46.762 20.6729 46.788 21.1389 46.84 21.5539C46.917 21.8659 47.034 22.3069 47.19 22.8779C47.371 23.5529 47.722 24.7459 48.242 26.4589L48.436 26.5749C48.514 26.6789 48.475 26.7709 48.32 26.8479C44.452 28.0939 42.403 28.7429 42.168 28.7939C42.013 28.7939 41.896 28.7299 41.819 28.5999C41.766 28.4699 41.766 28.3529 41.819 28.2489C41.845 28.1959 41.727 27.7169 41.467 26.8099C41.104 25.6159 40.832 24.4869 40.65 23.4209C40.443 22.2539 40.325 21.2019 40.299 20.2679L40.338 19.2169L39.831 19.0619V18.6339C39.598 18.9699 39.429 19.1399 39.326 19.1399H34.888C34.731 19.4249 34.589 19.5679 34.459 19.5679C34.38 19.5679 34.277 19.4899 34.147 19.3349L34.03 19.1409C33.926 19.0879 33.822 19.0629 33.718 19.0629C33.51 19.0629 33.354 19.1789 33.251 19.4139C33.147 19.6459 33.03 19.8289 32.901 19.9589C32.745 20.1399 32.642 20.2699 32.589 20.3489C32.537 20.4789 32.577 20.6469 32.707 20.8549C32.862 21.0869 32.926 21.2449 32.901 21.3229C32.875 21.3739 32.693 21.4649 32.355 21.5939C32.018 21.6979 31.811 21.8539 31.733 22.0609C31.708 22.1129 31.435 22.6189 30.916 23.5799C30.475 24.3849 30.253 24.8519 30.253 24.9809C30.253 25.0339 30.344 25.2019 30.526 25.4869C30.681 25.6949 30.695 25.8889 30.565 26.0719C30.279 26.4349 29.125 26.4739 27.1 26.1879C26.322 26.0839 25.723 25.9029 25.309 25.6429C24.842 25.3839 24.685 25.0979 24.842 24.7869C25.075 24.3719 26.724 21.5289 29.785 16.2619C29.942 15.9759 29.942 15.5739 29.785 15.0539C29.63 14.5099 29.383 14.2239 29.046 14.1979C28.813 14.1979 28.592 14.2119 28.384 14.2379C28.229 14.2639 28.086 14.2509 27.955 14.1979C27.67 14.0689 27.526 13.8749 27.526 13.6149C27.502 13.2769 27.487 12.9779 27.487 12.7189C27.461 12.2259 27.474 11.8629 27.526 11.6299H27.332L26.826 11.4349V11.2409H20.83L20.752 11.6689C20.621 12.0069 20.389 12.3059 20.051 12.5649C19.688 12.8239 19.376 13.0839 19.117 13.3429L18.805 13.6149L18.104 14.8989H17.171L16.546 15.9899H14.25V15.4049H12.887C10.889 16.9369 9.78601 17.7669 9.57901 17.8969C9.37101 18.0259 9.21501 18.1049 9.11101 18.1309C8.98101 18.1559 8.89001 18.0779 8.83901 17.8969L8.80001 17.5069L2.57101 21.5179L2.45301 21.9849C2.32401 22.2969 2.18101 22.4639 2.02601 22.4909C1.81701 22.5429 1.58501 22.5299 1.32501 22.4519C1.04001 22.3999 0.819008 22.3089 0.663008 22.1799C0.404008 21.9719 0.274008 21.8559 0.274008 21.8299C0.148008 21.6969 0.0830078 21.4889 0.0830078 21.2029V9.28986C0.0830078 8.97886 0.200008 8.70586 0.435008 8.47386C0.693008 8.21386 1.05601 8.08286 1.52501 8.08286H20.912C21.016 8.08286 21.095 8.18686 21.146 8.39486C21.173 8.49986 21.199 8.60286 21.224 8.70686H26.83V8.47386L27.336 8.27886H28.309V7.42186L28.504 7.22786C28.712 7.09786 29.062 7.03386 29.555 7.03386H31.89L32.709 5.86486L32.631 5.47586C32.474 5.42286 32.318 5.34586 32.164 5.24286C31.852 5.00886 31.696 4.69686 31.696 4.30786C31.696 4.04786 31.8 3.81386 32.007 3.60686C32.241 3.37386 32.5 3.25586 32.786 3.25586C33.124 3.25586 33.41 3.37286 33.643 3.60686C33.85 3.81386 33.954 4.06086 33.954 4.34686V6.68186H34.421V6.05986H35.862V6.87586H46.841C46.997 6.87586 47.138 6.95386 47.269 7.10986C47.373 7.23986 47.451 7.35586 47.503 7.46086C47.528 7.59086 47.697 7.51286 48.008 7.22786H49.177C49.177 7.14886 49.19 7.08386 49.216 7.03386C49.268 6.90386 49.372 6.83886 49.528 6.83886H66.89C67.047 6.83886 67.188 6.91586 67.32 7.07186C67.371 7.14886 67.423 7.21586 67.474 7.26686L68.292 6.13786C68.864 5.33286 69.24 4.85286 69.421 4.69686L69.615 4.50386C69.848 4.37286 70.173 4.30886 70.589 4.30886H71.561V9.29086H72.729L72.885 9.09686C72.989 8.99286 73.093 8.94186 73.196 8.94186H77.867C78.075 8.94186 78.244 9.01886 78.374 9.17486C78.582 9.35686 78.686 9.61586 78.686 9.95286V10.3439C78.686 10.6019 78.595 10.8109 78.413 10.9649C78.257 11.0959 78.089 11.1599 77.908 11.1599H73.118V11.1589Z" fill="#9FB1C9"/>
</g>
<defs>
<clipPath id="clip0_28409_24664">
<rect width="78.604" height="32" fill="white" transform="translate(0.0830078 0.133789)"/>
</clipPath>
</defs>
</svg>
