<svg width="46" height="33" viewBox="0 0 46 33" fill="none" xmlns="http://www.w3.org/2000/svg">
<g clip-path="url(#clip0_28409_24650)">
<path fill-rule="evenodd" clip-rule="evenodd" d="M45.0901 6.19281V7.63381L44.5311 8.23981H42.2491C42.1881 8.30181 42.1271 8.33381 42.0641 8.33381C42.0011 8.36481 41.9401 8.38081 41.8791 8.38081V10.8018H35.8281C35.8281 10.9268 35.8281 11.0498 35.8281 11.1738C35.8281 11.2978 35.8601 11.4238 35.9211 11.5448C35.9211 11.6718 35.9361 11.8118 35.9681 11.9648C35.9361 11.9958 35.8741 12.0438 35.7801 12.1058C35.6901 12.1368 35.5951 12.2138 35.5021 12.3398C35.5341 12.4008 35.5811 12.6178 35.6421 12.9888C35.7031 13.1768 35.7351 13.3478 35.7351 13.5018H34.5251C33.7791 13.5018 33.3141 13.4868 33.1261 13.4558C33.0341 13.5808 32.9101 13.8118 32.7541 14.1558C32.6301 14.4948 32.4291 14.8538 32.1501 15.2238C31.9011 15.5958 31.6081 15.9378 31.2661 16.2478C30.9251 16.5258 30.5371 16.6988 30.1021 16.7598C29.4191 16.8538 28.6291 16.8678 27.7271 16.8068C26.7971 16.7768 26.0671 16.5578 25.5391 16.1548C25.3551 16.1548 25.2641 16.0948 25.2611 15.9688V24.3488C25.1051 24.3788 24.9971 24.4088 24.9331 24.4408C24.8101 24.5018 24.6711 24.5338 24.5151 24.5338V31.7488H19.0691V24.7198C19.0381 24.6888 19.0071 24.6578 18.9761 24.6278C18.9441 24.6278 18.8981 24.6118 18.8361 24.5808C18.8051 24.5498 18.7751 24.5338 18.7441 24.5338H15.6251L14.9731 23.6508C15.3451 21.9128 15.7031 20.3298 16.0451 18.9028C16.3231 17.6928 16.5721 16.5918 16.7891 15.5968L17.1601 14.0618C16.8191 13.4398 16.5261 12.8978 16.2791 12.4318C15.9681 11.9358 15.7181 11.6578 15.5321 11.5958C15.3451 11.5008 14.9101 11.4548 14.2301 11.4548C13.5781 11.4548 12.9571 11.5008 12.3671 11.5958C12.3361 11.6238 12.2911 11.6728 12.2281 11.7338C12.1341 11.7968 12.0591 11.8578 11.9951 11.9198L11.7161 12.1988L11.0181 12.1068C11.0181 12.0448 10.9881 11.9808 10.9241 11.9198C10.9241 11.8918 10.9091 11.8578 10.8801 11.8268C10.8471 11.7648 10.8171 11.7188 10.7861 11.6868H6.36309V15.1318H6.13109C6.06909 15.1938 5.85209 15.2858 5.47909 15.4098C5.10609 15.4718 4.75009 15.4718 4.41009 15.4098C4.19209 15.3488 4.00409 15.2858 3.85109 15.2248C3.69509 15.1618 3.58609 15.1318 3.52509 15.1318C3.49309 15.1318 3.43109 15.1318 3.33709 15.1318C3.18209 15.1318 3.02809 15.1168 2.87209 15.0858C2.71709 15.0858 2.53109 15.0688 2.31309 15.0378C2.25109 15.0378 2.14209 14.9758 1.98709 14.8538C1.80009 14.6968 1.61509 14.4638 1.42709 14.1558C1.33609 14.0608 1.28809 13.9368 1.28809 13.7818C1.28809 13.5958 1.28809 13.4858 1.28809 13.4548C1.28809 12.9588 1.39709 12.4458 1.61509 11.9188C1.61509 11.8568 1.64509 11.5138 1.70709 10.8958C1.70709 10.3058 1.70709 9.74881 1.70709 9.21981L2.08009 2.23881L3.19709 0.793809V0.653809L5.57109 0.793809C6.10209 0.856809 6.70609 0.918809 7.38709 0.980809C8.00909 1.04281 8.61409 1.07181 9.20309 1.07181C9.76309 1.13381 10.2411 1.18181 10.6461 1.21281C11.0181 1.27481 11.2661 1.30481 11.3921 1.30481C11.4531 1.30481 11.7321 1.32181 12.2281 1.35281C12.7231 1.44581 13.2681 1.52181 13.8561 1.58481C14.4151 1.64781 14.9421 1.72481 15.4391 1.81681C15.9341 1.87981 16.2311 1.91081 16.3231 1.91081H16.4621V2.05081C16.5551 2.05081 16.6181 2.11381 16.6501 2.23681C16.7421 2.36181 16.7421 2.51581 16.6501 2.70281C16.5551 2.85781 16.3381 2.99681 15.9991 3.11981C15.7501 3.18181 15.4391 3.22981 15.0671 3.25981C14.6331 3.25981 14.2301 3.25981 13.8561 3.25981C13.4531 3.25981 13.0971 3.25981 12.7871 3.25981C12.4751 3.22981 12.3061 3.21281 12.2741 3.21281L7.89909 2.88681H7.80609C7.77709 2.88681 7.76209 2.85681 7.75909 2.79581V3.21381C7.94509 3.21381 8.22409 3.23081 8.59709 3.26081C8.99809 3.26081 9.40409 3.29281 9.80709 3.35581C10.2401 3.38581 10.6291 3.43181 10.9701 3.49381C11.3441 3.49381 11.5921 3.50981 11.7161 3.54081C11.8091 3.54081 12.4441 3.54081 13.6251 3.54081C14.8351 3.54081 16.2791 3.54081 17.9531 3.54081C19.6921 3.54081 21.5541 3.54081 23.5401 3.54081C25.4951 3.54081 27.3391 3.54081 29.0781 3.54081C29.0781 3.50981 29.0781 3.38581 29.0781 3.16781C29.0781 2.98181 29.1071 2.79681 29.1711 2.60981C29.2011 2.36181 29.2331 2.11381 29.2631 1.86281H29.3581C29.5131 1.83381 29.7761 1.80281 30.1491 1.77281C30.4601 1.77281 30.7701 1.77281 31.0821 1.77281C31.3911 1.77281 31.6701 1.77281 31.9171 1.77281C32.1991 1.80281 32.3671 1.84681 32.4311 1.91181C32.5241 2.00481 32.6481 2.17581 32.8041 2.42381C32.9261 2.70381 33.0361 2.93581 33.1281 3.12081H37.8291C37.8291 3.02981 37.8291 2.94981 37.8291 2.88781C37.8291 2.76381 37.8611 2.63981 37.9221 2.51581C37.9221 2.39181 37.9381 2.26781 37.9691 2.14381H38.0641C38.2181 2.08081 38.4511 1.98981 38.7621 1.86181C39.0091 1.73781 39.3061 1.63081 39.6471 1.53981C39.8941 1.41481 40.1561 1.33681 40.4381 1.30381C40.7171 1.24281 40.9191 1.24281 41.0431 1.30381C41.3531 1.43081 41.5401 1.58381 41.6021 1.77181C41.6931 1.95681 41.7411 2.08081 41.7411 2.14381V5.26281L42.2071 5.68081H44.7691L45.0901 6.19281ZM26.7501 15.3168H30.2871C30.5991 15.3168 30.8471 15.2228 31.0341 15.0358C31.2501 14.8518 31.3581 14.6048 31.3581 14.2908V13.7318C31.3581 13.4208 31.2501 13.1738 31.0341 12.9868C30.8471 12.8018 30.5991 12.7088 30.2871 12.7088H26.7501C26.4391 12.7088 26.1771 12.8018 25.9581 12.9868C25.7091 13.1748 25.5851 13.4218 25.5851 13.7318V14.2908C25.5851 14.6038 25.7091 14.8518 25.9581 15.0358C26.1781 15.2228 26.4391 15.3168 26.7501 15.3168ZM4.40909 3.35481C4.16109 3.35481 3.97309 3.35481 3.85009 3.35481C3.78809 3.44681 3.75809 3.58781 3.75809 3.77181C3.75809 3.98881 3.75809 4.20781 3.75809 4.42281C3.75809 4.79581 3.77109 5.21581 3.80209 5.67981C3.83409 6.14581 3.88009 6.68881 3.94209 7.30881C4.06609 6.50181 4.25209 5.72681 4.50209 4.98181C4.71909 4.26981 4.87309 3.77081 4.96609 3.49181C4.78209 3.40081 4.59409 3.35481 4.40909 3.35481Z" fill="#9FB1C9"/>
</g>
<defs>
<clipPath id="clip0_28409_24650">
<rect width="44.625" height="32" fill="white" transform="translate(0.625 0.133789)"/>
</clipPath>
</defs>
</svg>
