<svg width="68" height="32" viewBox="0 0 68 32" fill="none" xmlns="http://www.w3.org/2000/svg">
<g clip-path="url(#clip0_28409_24675)">
<path fill-rule="evenodd" clip-rule="evenodd" d="M2.25483 4.08513C2.28083 4.08513 2.31883 4.08513 2.36983 4.08513V4.04713H2.40883C2.43383 4.04713 2.46083 4.04713 2.48583 4.04713C7.47183 4.04713 12.4598 4.04713 17.4458 4.04713C17.7798 4.02313 18.1018 4.00913 18.4108 4.00913C18.4358 3.98313 18.4618 3.95813 18.4858 3.93213C18.5378 3.93213 18.5768 3.93213 18.6028 3.93213C18.6288 3.93213 18.6538 3.93213 18.6788 3.93213C18.7298 3.93213 18.7818 3.94513 18.8338 3.97113C18.8598 3.99513 18.8848 4.02313 18.9108 4.04713C30.7598 4.04713 42.5978 4.04713 54.4208 4.04713C54.4728 4.04713 54.5108 4.04713 54.5358 4.04713C54.5878 4.04713 54.6268 4.04713 54.6538 4.04713C54.7038 4.04713 54.7548 4.06013 54.8058 4.08613C54.8318 4.11213 54.8588 4.13813 54.8838 4.16313C54.9088 4.18913 54.9348 4.21613 54.9598 4.24113C54.9858 4.26613 54.9998 4.29313 54.9998 4.31813C55.0248 4.34313 55.0388 4.36813 55.0388 4.39513C55.0628 4.39513 55.0778 4.40813 55.0778 4.43313C55.2048 4.43313 55.3348 4.43313 55.4628 4.43313C55.4628 4.45813 55.4628 4.48513 55.4628 4.50913C55.4628 4.53513 55.4628 4.56113 55.4628 4.58713C55.4628 4.61213 55.4628 4.63913 55.4628 4.66413C55.4628 4.69013 55.4628 4.71613 55.4628 4.74113C55.4628 4.76713 55.4628 4.79313 55.4628 4.81813C55.4628 4.84313 55.4628 4.86913 55.4628 4.89413C55.4628 4.92013 55.4628 4.94713 55.4628 4.97213V5.01113C55.4628 5.03613 55.4628 5.06313 55.4628 5.08813C55.4628 5.11313 55.4628 5.14113 55.4628 5.16613C55.4628 5.19113 55.4628 5.21713 55.4628 5.24213C55.4628 5.26813 55.4628 5.29313 55.4628 5.31913V5.35913L55.5018 5.39713C55.5018 5.42213 55.5018 5.44813 55.5018 5.47413C55.5018 5.49913 55.5018 5.52513 55.5018 5.55013C55.4758 5.57613 55.4638 5.60213 55.4628 5.62813V5.66713C55.4628 5.69213 55.4628 5.71913 55.4628 5.74313C55.4628 5.76913 55.4628 5.79513 55.4628 5.82113C55.4628 5.84613 55.4628 5.87313 55.4628 5.89813V5.97413C55.4108 5.97413 55.3598 5.97413 55.3088 5.97413C55.3088 6.00013 55.3088 6.02713 55.3088 6.05213C55.3348 6.05213 55.3728 6.05213 55.4238 6.05213C55.4758 6.05213 55.5268 6.06413 55.5778 6.09113L55.6158 6.13113C55.6418 6.10513 55.6678 6.07813 55.6928 6.05313C55.7198 6.05313 55.7568 6.05313 55.8098 6.05313C55.9628 6.05313 56.1308 6.05313 56.3108 6.05313C56.3368 6.05313 56.3618 6.06513 56.3878 6.09213V6.05313C56.4398 6.05313 56.4898 6.06513 56.5418 6.09213C56.5668 6.11713 56.5928 6.14413 56.6188 6.16913C56.6188 6.19413 56.6318 6.22113 56.6578 6.24613C56.6578 6.27113 56.6708 6.29713 56.6958 6.32413V6.36013C56.6958 6.38613 56.6958 6.41313 56.6958 6.43813C56.6958 6.46413 56.6958 6.49013 56.6958 6.51613C56.6958 6.54013 56.6958 6.56713 56.6958 6.59213C56.6958 6.61813 56.6958 6.64413 56.6958 6.66913C56.6958 6.69413 56.6958 6.72113 56.6958 6.74613C56.6958 6.77213 56.6958 6.79713 56.6958 6.82313C56.6958 6.84913 56.6958 6.87513 56.6958 6.90113V6.94013C56.6958 6.96513 56.6958 6.99113 56.6958 7.01613C60.0118 7.01613 63.3148 7.01613 66.6058 7.01613C66.6558 7.01613 66.7088 7.02913 66.7588 7.05613C66.7838 7.08113 66.8118 7.10613 66.8368 7.13313C66.8618 7.13313 66.9008 7.14513 66.9518 7.17013C66.9778 7.19513 67.0028 7.22213 67.0298 7.24813C67.0298 7.27313 67.0418 7.30013 67.0688 7.32513C67.0688 7.35013 67.0828 7.37713 67.1078 7.40213C67.1078 7.42713 67.1078 7.45413 67.1078 7.47913V7.51813C67.1078 7.54213 67.1078 7.57013 67.1078 7.59513C67.1078 7.62013 67.1078 7.64613 67.1078 7.67213C67.1078 7.69713 67.1078 7.72313 67.1078 7.74813C67.1078 7.77513 67.1078 7.80113 67.1078 7.82613C67.1078 7.85113 67.1078 7.87913 67.1078 7.90413C67.1078 7.92813 67.1078 7.95513 67.1078 7.98113C67.1078 8.00513 67.1078 8.03213 67.1078 8.05713V8.09613C67.1078 8.12213 67.1078 8.14813 67.1078 8.17313C67.1078 8.19813 67.1078 8.22413 67.1078 8.25013C67.1078 8.27613 67.1078 8.30213 67.1078 8.32813C67.1078 8.35313 67.1078 8.37913 67.1078 8.40413C67.1078 8.43013 67.1078 8.45613 67.1078 8.48213C67.1078 8.50713 67.1078 8.53413 67.1078 8.55913C67.1078 8.58413 67.1078 8.60913 67.1078 8.63613V8.67413C67.1078 8.69913 67.1078 8.72713 67.1078 8.75213C67.1078 8.77713 67.1078 8.80313 67.1078 8.82913C67.1078 8.85413 67.1078 8.88113 67.1078 8.90613C67.1078 8.93113 67.1078 8.95613 67.1078 8.98313C67.1078 9.00813 67.1078 9.03513 67.1078 9.06013C67.0828 9.08513 67.0688 9.11113 67.0688 9.13713C67.0688 9.16213 67.0828 9.18813 67.1078 9.21413V9.25313C67.0828 9.27913 67.0568 9.30413 67.0308 9.33113C67.0308 9.35513 67.0308 9.38213 67.0308 9.40713V9.44613C67.0048 9.47113 66.9788 9.49713 66.9528 9.52313C66.9528 9.54913 66.9528 9.57513 66.9528 9.60013L66.9138 9.63813C66.8878 9.66313 66.8618 9.67713 66.8368 9.67713C66.8128 9.67713 66.7728 9.68913 66.7218 9.71613C65.1388 9.71613 63.5468 9.71613 61.9398 9.71613C61.9398 9.74213 61.9398 9.76813 61.9398 9.79413V9.83113C61.9398 9.85613 61.9398 9.88313 61.9398 9.90813C61.9398 9.93413 61.9398 9.96113 61.9398 9.98613C61.9398 10.0111 61.9398 10.0361 61.9398 10.0621V10.1391H61.9018V10.1791C61.8768 10.1791 61.8498 10.1921 61.8238 10.2181C61.8238 10.2421 61.8238 10.2681 61.8238 10.2951C61.7988 10.3201 61.7718 10.3451 61.7458 10.3721H61.7078C61.6828 10.3721 61.6438 10.3841 61.5928 10.4101C61.5408 10.3851 61.4888 10.3721 61.4378 10.3721C61.4118 10.3721 61.3748 10.3841 61.3218 10.4101C59.9088 10.4101 58.4948 10.4101 57.0808 10.4101C57.0538 10.4351 57.0288 10.4491 57.0028 10.4491C56.9778 10.4491 56.9388 10.4621 56.8868 10.4881C56.8618 10.4881 56.8358 10.4881 56.8098 10.4881C56.7848 10.5141 56.7588 10.5401 56.7328 10.5661L56.7718 10.6051C56.7718 10.6301 56.7838 10.6571 56.8098 10.6821C56.8098 10.7081 56.8098 10.7341 56.8098 10.7591C56.7848 10.7841 56.7588 10.7971 56.7328 10.7971C56.7328 10.8241 56.7328 10.8501 56.7328 10.8751C56.7068 10.9001 56.6938 10.9271 56.6938 10.9521C56.6688 10.9521 56.6428 10.9521 56.6168 10.9521C56.5918 10.9771 56.5528 10.9911 56.5008 10.9911C56.4758 10.9911 56.4378 10.9911 56.3858 10.9911C56.3598 10.9911 56.3348 10.9911 56.3088 10.9911C56.2568 10.9911 56.2058 10.9911 56.1538 10.9911V11.1071C55.7018 11.1071 55.2528 11.1071 54.8038 11.1071V11.1461C54.8038 11.1721 54.8038 11.1971 54.8038 11.2241C54.8038 11.2481 54.8038 11.2741 54.8038 11.3001C54.8038 11.3261 54.8038 11.3521 54.8038 11.3781C54.8038 11.4031 54.8038 11.4291 54.8038 11.4551C54.8038 11.4801 54.8038 11.5061 54.8038 11.5311V11.5711C54.8038 11.5961 54.8038 11.6211 54.8038 11.6481C54.8038 11.6731 54.8038 11.6981 54.8038 11.7251C54.8038 11.7501 54.8038 11.7761 54.8038 11.8011V11.8791C54.7008 11.9041 54.5858 11.9181 54.4578 11.9181V11.9571C54.4578 11.9821 54.4448 12.0081 54.4178 12.0341C54.4178 12.0591 54.4048 12.0841 54.3798 12.1111C54.3798 12.1361 54.3668 12.1491 54.3418 12.1491C54.3418 12.1741 54.3278 12.2001 54.3018 12.2261C54.3018 12.2511 54.3018 12.2781 54.3018 12.3031C54.2768 12.3281 54.2508 12.3541 54.2238 12.3801C54.2238 12.4061 54.2238 12.4321 54.2238 12.4571C54.1988 12.4831 54.1738 12.5091 54.1478 12.5341C54.1478 12.5591 54.1478 12.5851 54.1478 12.6111C54.1218 12.6361 54.1088 12.6631 54.1088 12.6881L54.0698 12.7271C54.0448 12.7521 54.0308 12.7791 54.0308 12.8041C54.0048 12.8301 53.9918 12.8561 53.9918 12.8811C53.9668 12.9071 53.9528 12.9331 53.9528 12.9581C53.9278 12.9831 53.9018 13.0091 53.8758 13.0351C53.8758 13.0611 53.8618 13.0871 53.8358 13.1131V13.1521C53.8358 13.1771 53.8238 13.2031 53.7978 13.2281C53.7848 13.2401 53.7718 13.2541 53.7588 13.2681C53.7458 13.2841 53.7318 13.2951 53.7208 13.3071C53.6948 13.3331 53.6818 13.3591 53.6818 13.3841C53.6558 13.4081 53.6428 13.4331 53.6428 13.4611C53.6428 13.4861 53.6298 13.4981 53.6048 13.4981C53.5778 13.5261 53.5518 13.5511 53.5268 13.5761C53.5018 13.6011 53.4888 13.6271 53.4888 13.6531C53.4628 13.6791 53.4368 13.7051 53.4108 13.7301C53.3868 13.7551 53.3588 13.7821 53.3328 13.8071L53.2568 13.8841C53.2268 13.8841 53.1938 13.8901 53.1598 13.9041C53.1468 13.9211 53.1408 13.9391 53.1408 13.9611C53.1148 13.9861 53.0888 14.0121 53.0638 14.0381H53.0338C53.0128 14.0481 52.9938 14.0561 52.9748 14.0571L52.9558 14.0771C52.9298 14.1021 52.9178 14.1291 52.9178 14.1541C52.9178 14.1801 52.9048 14.2061 52.8778 14.2311C52.8778 14.2571 52.8648 14.2701 52.8398 14.2701C52.8148 14.2951 52.7888 14.3221 52.7628 14.3471C52.6868 14.3741 52.6088 14.3991 52.5318 14.4261C52.4558 14.4501 52.3898 14.4761 52.3388 14.5021V14.5411L52.3008 14.5811C52.1478 14.5811 51.9928 14.5811 51.8388 14.5811C51.8388 14.6061 51.8248 14.6201 51.7998 14.6201C51.7488 14.6451 51.6968 14.6581 51.6448 14.6581C51.1298 14.6581 50.6158 14.6581 50.1028 14.6581C50.0518 14.6331 49.9998 14.6201 49.9488 14.6201C49.9228 14.5941 49.9088 14.5681 49.9088 14.5421C49.8838 14.5421 49.8588 14.5421 49.8328 14.5421C49.7288 14.5421 49.6248 14.5421 49.5228 14.5421C49.4988 14.5171 49.4598 14.5031 49.4078 14.5031L49.3688 14.4641C49.3428 14.4641 49.3178 14.4641 49.2908 14.4641C49.2128 14.4391 49.1498 14.4271 49.0998 14.4271C49.0738 14.4001 49.0478 14.3751 49.0218 14.3481C49.0218 14.3231 49.0088 14.2961 48.9828 14.2711H48.9448C48.8938 14.2461 48.8418 14.2321 48.7898 14.2321C48.7648 14.2071 48.7388 14.1811 48.7138 14.1551C48.7138 14.1301 48.7018 14.1031 48.6748 14.0781C48.6488 14.0521 48.6108 14.0261 48.5598 14.0001V13.9621C47.1458 13.9621 45.7458 13.9751 44.3558 14.0001C44.3308 14.0001 44.3188 14.0131 44.3188 14.0401H44.2788C44.2268 14.0661 44.1758 14.0791 44.1248 14.0791C43.9718 14.0791 43.8158 14.0791 43.6628 14.0791L43.6228 14.1181C43.5728 14.1181 43.5328 14.1311 43.5078 14.1571C43.4558 14.1571 43.4038 14.1701 43.3528 14.1961C43.3278 14.2211 43.3148 14.2481 43.3148 14.2731C43.2628 14.2981 43.2118 14.3251 43.1598 14.3501C43.1348 14.3771 43.0958 14.4021 43.0448 14.4291C43.0188 14.4531 42.9918 14.4661 42.9668 14.4661C42.9668 14.4911 42.9538 14.5181 42.9288 14.5431C42.9288 14.5691 42.9158 14.5951 42.8908 14.6211H42.8518C42.7738 14.6461 42.7108 14.6591 42.6588 14.6591C42.6328 14.6851 42.5948 14.7111 42.5428 14.7371C42.5178 14.7621 42.4908 14.7891 42.4658 14.8141C42.4398 14.8381 42.4158 14.8641 42.3888 14.8901C42.3888 14.9161 42.3888 14.9421 42.3888 14.9671C42.3638 14.9921 42.3508 15.0191 42.3508 15.0441C42.2978 15.0701 42.2468 15.0961 42.1968 15.1221C42.1708 15.1471 42.1328 15.1741 42.0798 15.1981C42.0548 15.2261 42.0288 15.2381 42.0038 15.2381C42.0038 15.2631 41.9908 15.2881 41.9638 15.3151C41.9398 15.3421 41.9138 15.3661 41.8878 15.3911C41.8878 15.4171 41.8878 15.4431 41.8878 15.4691C41.8628 15.4941 41.8358 15.5211 41.8108 15.5461C41.7848 15.5711 41.7718 15.5981 41.7718 15.6241C41.7458 15.6491 41.7198 15.6751 41.6938 15.7001C41.6938 15.7251 41.6818 15.7521 41.6558 15.7771V15.8161C41.6298 15.8411 41.6158 15.8681 41.6158 15.8931C41.5908 15.9181 41.5768 15.9441 41.5768 15.9711C41.5508 15.9961 41.5248 16.0221 41.5008 16.0471C41.5008 16.0731 41.5008 16.0991 41.5008 16.1241C41.4758 16.1491 41.4628 16.1771 41.4628 16.2031C41.4628 16.2281 41.4498 16.2531 41.4228 16.2801C41.4228 16.3041 41.4098 16.3311 41.3838 16.3561C41.3838 16.3821 41.3718 16.3951 41.3448 16.3951C41.3198 16.4211 41.3058 16.4471 41.3058 16.4731C41.2808 16.4981 41.2678 16.5241 41.2678 16.5501C41.2678 16.5751 41.2548 16.6001 41.2288 16.6271C41.2288 16.6521 41.2288 16.6791 41.2288 16.7041C41.2038 16.7291 41.1898 16.7551 41.1898 16.7811C41.1378 16.8061 41.0998 16.8321 41.0748 16.8571C41.0498 16.8831 41.0368 16.9101 41.0368 16.9351C41.0108 16.9601 40.9728 16.9741 40.9218 16.9741C40.9218 16.9991 40.9078 17.0261 40.8818 17.0511C40.8568 17.0761 40.8308 17.1031 40.8048 17.1281C40.8048 17.1531 40.7918 17.1661 40.7668 17.1661L40.7278 17.2061C40.6758 17.2061 40.6378 17.2191 40.6118 17.2451C40.5618 17.2451 40.5098 17.2581 40.4588 17.2841L40.4198 17.3231C40.3688 17.3481 40.3168 17.3621 40.2648 17.3621C40.1878 17.3621 40.0978 17.3621 39.9958 17.3621L39.9568 17.4011C39.9058 17.4011 39.8668 17.4151 39.8408 17.4401C39.7128 17.4401 39.5968 17.4401 39.4938 17.4401C39.4688 17.4161 39.4288 17.4011 39.3778 17.4011L39.3388 17.3621C39.3148 17.3621 39.2888 17.3621 39.2628 17.3621C39.1848 17.3371 39.1208 17.3231 39.0698 17.3231C39.0698 17.2971 39.0568 17.2711 39.0298 17.2461C39.0048 17.2461 38.9668 17.2461 38.9138 17.2461C38.8628 17.2211 38.8108 17.1941 38.7608 17.1681C38.7358 17.1681 38.7098 17.1561 38.6828 17.1301C38.6608 17.1071 38.6408 17.0881 38.6258 17.0731C38.5388 17.0631 38.4548 17.0561 38.3748 17.0531C38.3498 17.0281 38.3238 17.0011 38.2978 16.9761C38.2728 16.9761 38.2598 16.9631 38.2598 16.9371C38.2338 16.9121 38.2208 16.8851 38.2208 16.8591C38.2208 16.8341 38.2078 16.8081 38.1818 16.7831C38.1568 16.7571 38.1308 16.7311 38.1048 16.7061C38.1048 16.6811 38.1048 16.6541 38.1048 16.6291C38.0788 16.6021 38.0668 16.5771 38.0668 16.5521C38.0668 16.5261 38.0538 16.5001 38.0278 16.4751C38.0278 16.4491 38.0278 16.4231 38.0278 16.3971V16.3581C38.0278 16.3331 38.0278 16.3061 38.0278 16.2821C38.0278 16.2561 38.0148 16.2301 37.9888 16.2051C37.9638 16.1801 37.9368 16.1521 37.9118 16.1261C37.9118 16.1011 37.9118 16.0761 37.9118 16.0491C37.9118 16.0241 37.9118 15.9981 37.9118 15.9731C37.9118 15.9461 37.9118 15.9201 37.9118 15.8951C37.9118 15.8701 37.9118 15.8431 37.9118 15.8181V15.7401C37.8868 15.7161 37.8738 15.6891 37.8738 15.6641C37.8738 15.6391 37.8738 15.6121 37.8738 15.5871C37.8738 15.5621 37.8738 15.5361 37.8738 15.5101C37.8738 15.4851 37.8738 15.4581 37.8738 15.4331V15.3931C37.8738 15.3681 37.8738 15.3441 37.8738 15.3171C37.8738 15.2911 37.8738 15.2651 37.8738 15.2401C37.8738 15.2141 37.8738 15.1871 37.8738 15.1631C37.8738 15.1381 37.8738 15.1111 37.8738 15.0861C37.8738 15.0601 37.8738 15.0341 37.8738 15.0081C37.8738 14.9841 37.8608 14.9571 37.8338 14.9321C37.8338 14.9071 37.8338 14.8801 37.8338 14.8541C37.8088 14.8541 37.7958 14.8411 37.7958 14.8171C37.7958 14.7921 37.7958 14.7651 37.7958 14.7401C35.8418 14.7401 33.8748 14.7521 31.8958 14.7791C31.8958 14.8041 31.8828 14.8181 31.8578 14.8181C31.8068 14.8421 31.7538 14.8551 31.7028 14.8551C31.6768 14.8551 31.6398 14.8551 31.5858 14.8551C31.5618 14.8551 31.5358 14.8551 31.5098 14.8551C31.5098 14.8811 31.5098 14.9081 31.5098 14.9331C31.5098 14.9581 31.4958 14.9851 31.4708 15.0091C31.4708 15.0361 31.4708 15.0621 31.4708 15.0871C31.4458 15.1121 31.4198 15.1391 31.3928 15.1641C31.3838 15.1751 31.3718 15.1871 31.3548 15.2011L31.3158 15.2221V15.2411L31.2388 15.3181C31.2128 15.3451 31.1988 15.3691 31.1988 15.3941C31.1478 15.4201 31.1108 15.4341 31.0858 15.4341C31.0858 15.4591 31.0728 15.4861 31.0468 15.5111C31.0468 15.5371 31.0338 15.5631 31.0078 15.5881C31.0078 15.6131 31.0078 15.6401 31.0078 15.6651C30.9828 15.6901 30.9558 15.7171 30.9308 15.7411C30.9048 15.7691 30.8668 15.7941 30.8148 15.8191C30.8148 15.8441 30.8018 15.8711 30.7768 15.8961C30.7498 15.9211 30.7238 15.9471 30.6978 15.9741C30.6738 15.9991 30.6468 16.0131 30.6218 16.0131C30.5958 16.0371 30.5838 16.0651 30.5838 16.0891C30.5578 16.1141 30.5318 16.1391 30.5058 16.1671C30.4808 16.1921 30.4548 16.2171 30.4288 16.2431C30.4288 16.2691 30.4288 16.2951 30.4288 16.3201C30.4038 16.3451 30.3778 16.3731 30.3518 16.3971C30.3258 16.4231 30.2998 16.4491 30.2738 16.4751C30.2488 16.5001 30.2348 16.5261 30.2348 16.5521C30.1848 16.5771 30.1458 16.5911 30.1198 16.5911C30.1198 16.6161 30.1068 16.6411 30.0818 16.6671C30.0568 16.6931 30.0308 16.7191 30.0038 16.7451C29.9788 16.7701 29.9518 16.7961 29.9258 16.8221C29.9008 16.8471 29.8758 16.8731 29.8498 16.8991C29.8228 16.9251 29.7978 16.9511 29.7728 16.9761C29.7458 17.0011 29.7078 17.0281 29.6568 17.0531C29.6058 17.0781 29.5668 17.1051 29.5398 17.1301C29.5158 17.1551 29.4888 17.1681 29.4638 17.1681C29.4638 17.1941 29.4508 17.2211 29.4258 17.2461C29.3988 17.2711 29.3858 17.2971 29.3858 17.3231H29.3468C29.2958 17.3481 29.2448 17.3621 29.1938 17.3621C29.1678 17.3871 29.1548 17.4151 29.1548 17.4391C29.1298 17.4651 29.1168 17.4911 29.1168 17.5171L29.0768 17.5541C29.0518 17.5791 29.0258 17.5931 29.0008 17.5931C28.9758 17.5931 28.9358 17.6061 28.8838 17.6331C28.8338 17.6071 28.7948 17.5931 28.7698 17.5931C28.7438 17.5931 28.7308 17.6061 28.7308 17.6331C28.7048 17.6581 28.6918 17.6841 28.6918 17.7091C28.6668 17.7091 28.6398 17.7091 28.6148 17.7091C28.5888 17.7351 28.5498 17.7481 28.4978 17.7481C26.8018 17.7481 25.1048 17.7481 23.4088 17.7481C23.3828 17.7481 23.3448 17.7481 23.2918 17.7481C23.2668 17.7481 23.2418 17.7481 23.2158 17.7481C23.1638 17.7231 23.1128 17.7091 23.0608 17.7091C23.0358 17.6841 23.0088 17.6581 22.9838 17.6331C22.9838 17.6071 22.9708 17.5801 22.9448 17.5551C22.9448 17.5301 22.9448 17.5031 22.9448 17.4791C22.9448 17.4531 22.9448 17.4271 22.9448 17.4011L22.9638 17.3621C22.9198 17.3621 22.8738 17.3621 22.8288 17.3621C22.8288 17.3871 22.8288 17.4151 22.8288 17.4391C22.8038 17.4391 22.7898 17.4521 22.7898 17.4791C22.7898 17.5031 22.7898 17.5291 22.7898 17.5551C22.7638 17.5551 22.7508 17.5681 22.7508 17.5941C22.7508 17.6221 22.7378 17.6461 22.7118 17.6721V17.7101C22.6858 17.7361 22.6728 17.7621 22.6728 17.7871C22.6478 17.7871 22.6218 17.8001 22.5948 17.8281C22.5948 17.8521 22.5948 17.8781 22.5948 17.9041V17.9431C22.5948 17.9681 22.5948 17.9931 22.5948 18.0191C22.5698 18.0191 22.5438 18.0321 22.5188 18.0581C22.5188 18.0841 22.5188 18.1101 22.5188 18.1351V18.1751C22.5188 18.2001 22.5188 18.2261 22.5188 18.2511V18.2911C22.5188 18.3171 22.5058 18.3421 22.4798 18.3681V18.4071C22.4548 18.4321 22.4418 18.4571 22.4418 18.4851V18.5221C22.4158 18.5471 22.4018 18.5741 22.4018 18.5981C22.3768 18.5981 22.3638 18.6111 22.3638 18.6371C22.3388 18.6631 22.3248 18.6901 22.3248 18.7151C22.2988 18.7151 22.2858 18.7281 22.2858 18.7541C22.2858 18.7801 22.2858 18.8041 22.2858 18.8311V18.8711C22.2858 18.8961 22.2858 18.9211 22.2858 18.9471C22.2598 18.9471 22.2338 18.9601 22.2078 18.9861C22.1838 19.0111 22.1708 19.0371 22.1708 19.0641C22.1448 19.0641 22.1308 19.0761 22.1308 19.1021C22.1308 19.1281 22.1308 19.1541 22.1308 19.1791V19.2001C22.1048 19.2251 22.0928 19.2521 22.0928 19.2771C22.0658 19.2771 22.0408 19.2901 22.0158 19.3171C22.0158 19.3421 22.0028 19.3671 21.9778 19.3941V19.4321C21.9778 19.4581 21.9778 19.4841 21.9778 19.5101C21.9528 19.5101 21.9388 19.5221 21.9388 19.5491C21.9388 19.5741 21.9388 19.6011 21.9388 19.6261C21.9128 19.6261 21.8998 19.6381 21.8998 19.6651C21.8998 19.6901 21.8878 19.7171 21.8618 19.7421V19.7791C21.8358 19.8071 21.8228 19.8321 21.8228 19.8571C21.7978 19.8571 21.7728 19.8691 21.7458 19.8951C21.7458 19.9211 21.7458 19.9471 21.7458 19.9721C21.7208 19.9721 21.7068 19.9851 21.7068 20.0111C21.7068 20.0371 21.7068 20.0631 21.7068 20.0891C21.6818 20.0891 21.6688 20.1021 21.6688 20.1291C21.6418 20.1541 21.6288 20.1781 21.6288 20.2051C21.6038 20.2051 21.5918 20.2181 21.5918 20.2431C21.5918 20.2681 21.5918 20.2951 21.5918 20.3201V20.3591C21.5668 20.3841 21.5528 20.4111 21.5528 20.4351C21.5268 20.4351 21.5018 20.4481 21.4758 20.4741C21.4758 20.5011 21.4628 20.5271 21.4368 20.5531V20.5911C21.4108 20.6161 21.3978 20.6411 21.3978 20.6681C21.3718 20.6681 21.3588 20.6821 21.3588 20.7071C21.3588 20.7321 21.3588 20.7591 21.3588 20.7851C21.3338 20.7851 21.3198 20.7971 21.3198 20.8231C21.3198 20.8471 21.3068 20.8731 21.2818 20.9001C21.2558 20.9251 21.2438 20.9521 21.2438 20.9781C21.2168 20.9781 21.2048 20.9911 21.2048 21.0171C21.1778 21.0421 21.1648 21.0691 21.1648 21.0931C21.1398 21.0931 21.1268 21.1071 21.1268 21.1331C21.1008 21.1581 21.0888 21.1831 21.0888 21.2101C21.0628 21.2101 21.0368 21.2231 21.0108 21.2491C20.9858 21.2731 20.9718 21.3001 20.9718 21.3261C20.9468 21.3261 20.9338 21.3381 20.9338 21.3651C20.9338 21.3901 20.9338 21.4181 20.9338 21.4421C20.9088 21.4421 20.8948 21.4541 20.8948 21.4801C20.8948 21.5061 20.8818 21.5321 20.8558 21.5581L20.8168 21.5951C20.8168 21.6211 20.8038 21.6471 20.7788 21.6721V21.7121C20.7528 21.7371 20.7398 21.7641 20.7398 21.7891C20.7138 21.7891 20.7008 21.8011 20.7008 21.8281V21.8671L20.6618 21.9451C20.6358 21.9451 20.6228 21.9571 20.6228 21.9831V22.0601H20.6038L20.5838 22.0991C20.5838 22.1241 20.5838 22.1511 20.5838 22.1761C20.5698 22.1761 20.5558 22.1831 20.5448 22.1961C20.5298 22.1981 20.5158 22.2031 20.5068 22.2151V22.2921L20.4678 22.3321L20.4278 22.4081C20.4028 22.4081 20.3768 22.4211 20.3508 22.4481C20.3248 22.4731 20.3118 22.4981 20.3118 22.5241C20.2858 22.5241 20.2608 22.5371 20.2348 22.5631C20.2088 22.5891 20.1958 22.6151 20.1958 22.6411C20.1698 22.6411 20.1448 22.6531 20.1188 22.6791V22.7561C20.1638 22.7561 20.2088 22.7561 20.2538 22.7561C20.2978 22.7571 20.3428 22.7571 20.3888 22.7561C20.3888 22.7821 20.3888 22.8091 20.3888 22.8341C20.3628 22.8341 20.3378 22.8461 20.3108 22.8711C20.3108 22.8981 20.3108 22.9231 20.3108 22.9481L20.2718 22.9881C20.2718 23.0131 20.2598 23.0391 20.2338 23.0641V23.1041C20.2338 23.1291 20.2338 23.1551 20.2338 23.1801V23.2201C20.2338 23.2451 20.2338 23.2711 20.2338 23.2971C20.2078 23.2971 20.1818 23.3101 20.1558 23.3361C20.1558 23.3611 20.1558 23.3881 20.1558 23.4141L20.1168 23.4511C20.1168 23.4761 20.1038 23.5031 20.0788 23.5281V23.5671C20.0788 23.5911 20.0788 23.6191 20.0788 23.6441V23.6831C20.0788 23.7091 20.0788 23.7351 20.0788 23.7601V23.7991C20.0788 23.8251 20.0788 23.8501 20.0788 23.8761V23.9531C20.0788 23.9661 20.0718 23.9791 20.0608 23.9921C20.0428 23.9961 20.0238 24.0091 20.0018 24.0321C19.9768 24.0571 19.9618 24.0831 19.9618 24.1081C19.9368 24.1081 19.9238 24.1201 19.9238 24.1471C19.9238 24.1741 19.9238 24.1991 19.9238 24.2251V24.3791C19.8978 24.3791 19.8718 24.3921 19.8458 24.4181C19.8458 24.4431 19.8458 24.4701 19.8458 24.4941L19.8088 24.5331C19.8088 24.5591 19.7948 24.5851 19.7698 24.6111V24.6501C19.7438 24.6751 19.7308 24.7001 19.7308 24.7271C19.7048 24.7271 19.6918 24.7401 19.6918 24.7661V24.8041C19.6408 24.8291 19.6018 24.8421 19.5758 24.8421C19.5508 24.8421 19.5118 24.8561 19.4618 24.8821C19.4368 24.8821 19.3958 24.8821 19.3438 24.8821C19.3188 24.8821 19.2808 24.8941 19.2278 24.9211C19.2078 24.9211 19.1888 24.9211 19.1708 24.9211C19.1368 24.9311 19.1048 24.9441 19.0738 24.9601C19.0488 24.9601 19.0348 24.9731 19.0348 24.9991C19.0098 25.0231 18.9958 25.0501 18.9958 25.0771C18.9708 25.0771 18.9438 25.0891 18.9188 25.1161C18.9188 25.1411 18.9048 25.1681 18.8798 25.1921V25.2291C18.8798 25.2551 18.8798 25.2821 18.8798 25.3081C18.8538 25.3081 18.8288 25.3201 18.8028 25.3461C18.7778 25.3711 18.7508 25.3981 18.7248 25.4231V25.4621C18.6988 25.4881 18.6858 25.5141 18.6858 25.5391C18.6608 25.5391 18.6468 25.5521 18.6468 25.5781C18.6468 25.6041 18.6468 25.6301 18.6468 25.6551V25.6951C18.6468 25.7201 18.6468 25.7451 18.6468 25.7711V25.8111C18.6468 25.8361 18.6468 25.8621 18.6468 25.8871C18.6218 25.8871 18.5968 25.9001 18.5708 25.9261C18.5708 25.9521 18.5708 25.9781 18.5708 26.0051V26.0431C18.5708 26.0681 18.5708 26.0931 18.5708 26.1201V26.1581C18.5708 26.1831 18.5708 26.2091 18.5708 26.2351L18.5318 26.2731C18.5318 26.2991 18.5198 26.3261 18.4918 26.3511V26.3901C18.4918 26.4161 18.4918 26.4421 18.4918 26.4671V26.5061C18.4668 26.5321 18.4528 26.5581 18.4528 26.5841C18.5048 26.6091 18.5438 26.6331 18.5698 26.6601C18.5958 26.6601 18.6208 26.6731 18.6458 26.6991C18.6458 26.7241 18.6458 26.7511 18.6458 26.7761C18.6458 26.8011 18.6458 26.8271 18.6458 26.8531C18.6208 26.8791 18.5958 26.9051 18.5698 26.9301C18.5438 26.9561 18.5048 26.9701 18.4528 26.9701C18.4028 26.9701 18.3508 26.9701 18.2998 26.9701C18.2748 26.9941 18.2598 27.0211 18.2598 27.0461C18.2348 27.0461 18.2088 27.0611 18.1838 27.0851C18.1838 27.1111 18.1708 27.1371 18.1448 27.1631L18.1058 27.2011C18.1058 27.2261 18.0928 27.2541 18.0678 27.2791L18.0288 27.3181C18.0288 27.3421 18.0148 27.3701 17.9888 27.3951V27.4321C17.9648 27.4591 17.9508 27.4841 17.9508 27.5101C17.9248 27.5101 17.9118 27.5221 17.9118 27.5481H17.8738C17.7708 27.5481 17.6678 27.5481 17.5638 27.5481V27.6251C17.5638 27.6511 17.5638 27.6771 17.5638 27.7021V27.7411C17.5638 27.7681 17.5638 27.7941 17.5638 27.8191C17.5898 27.8441 17.6168 27.8701 17.6418 27.8951L17.6808 27.9351V27.9741C17.7068 28.0011 17.7198 28.0261 17.7198 28.0511C17.7198 28.0761 17.7198 28.1021 17.7198 28.1281C17.6948 28.1531 17.6808 28.1791 17.6808 28.2041C17.6598 28.2041 17.6468 28.2111 17.6418 28.2251V28.2451C17.6178 28.2701 17.6048 28.2941 17.6048 28.3221H17.5638C17.5138 28.3471 17.4618 28.3591 17.4108 28.3591C14.9188 28.3591 12.4368 28.3731 9.96983 28.3981C9.94483 28.3981 9.91883 28.3981 9.89383 28.3981C9.86683 28.3981 9.82883 28.4111 9.77683 28.4371C9.72583 28.4121 9.67383 28.3981 9.62283 28.3981C9.57083 28.3731 9.51983 28.3591 9.46783 28.3591C9.44183 28.3591 9.41683 28.3591 9.39083 28.3591C9.36483 28.3591 9.33983 28.3591 9.31483 28.3591C9.26283 28.3341 9.21183 28.3221 9.15883 28.3221C9.13483 28.2941 9.10783 28.2701 9.08283 28.2451C9.05783 28.2201 9.03083 28.1921 9.00483 28.1671C8.98083 28.1421 8.95483 28.1151 8.92883 28.0901C8.90283 28.0641 8.87783 28.0381 8.85083 28.0131C8.85083 27.9881 8.83883 27.9611 8.81183 27.9361C8.78683 27.9111 8.76183 27.8851 8.73583 27.8591C8.70883 27.8341 8.68383 27.8201 8.65783 27.8201C8.63183 27.7951 8.60583 27.7691 8.58083 27.7421C8.55583 27.7171 8.52883 27.6901 8.50283 27.6661C8.47783 27.6401 8.46483 27.6141 8.46483 27.5891C8.46483 27.5641 8.46483 27.5361 8.46483 27.5121C8.46483 27.4861 8.46483 27.4611 8.46483 27.4341C8.46483 27.4091 8.46483 27.3841 8.46483 27.3581C8.46483 27.3321 8.46483 27.3061 8.46483 27.2811V27.2411C8.48983 27.2161 8.51483 27.1901 8.54283 27.1651C8.56783 27.1391 8.59383 27.1131 8.61883 27.0871C8.67083 27.0871 8.70883 27.0871 8.73583 27.0871C8.76083 27.0871 8.78683 27.0871 8.81183 27.0871C8.86383 27.0871 8.91483 27.1001 8.96683 27.1261C8.99183 27.1511 9.01683 27.1781 9.04383 27.2031C9.04383 27.2281 9.05783 27.2561 9.08283 27.2811V27.2031C9.08283 27.1781 9.08283 27.1511 9.08283 27.1261V27.0491C9.05783 27.0241 9.03083 26.9971 9.00483 26.9731C9.00483 26.9471 8.99183 26.9211 8.96683 26.8951C8.96683 26.8711 8.95383 26.8561 8.92783 26.8561V26.7791C8.95383 26.7541 8.96683 26.7271 8.96683 26.7021L9.04383 26.6251H9.08283C9.08283 26.6001 9.08283 26.5751 9.08283 26.5481V26.5091C9.08283 26.4831 9.08283 26.4571 9.08283 26.4311C9.08283 26.4071 9.09583 26.3931 9.12183 26.3931C9.12183 26.3681 9.13483 26.3411 9.15883 26.3151C9.17083 26.3051 9.18383 26.2971 9.19883 26.2961C9.20983 26.2821 9.22283 26.2761 9.23783 26.2761C9.26283 26.2511 9.28983 26.2261 9.31583 26.2001C9.34083 26.1751 9.36583 26.1611 9.39183 26.1611C9.39183 26.1361 9.39183 26.1111 9.39183 26.0831C9.41783 26.0591 9.44283 26.0461 9.46883 26.0461C9.46883 26.0211 9.48283 25.9931 9.50783 25.9691L9.54583 25.9291C9.54583 25.9041 9.54583 25.8771 9.54583 25.8531C9.57083 25.8281 9.59883 25.8141 9.62383 25.8141C9.62383 25.7871 9.62383 25.7621 9.62383 25.7361C9.62383 25.7121 9.63683 25.6991 9.66183 25.6991C9.66183 25.6721 9.67483 25.6471 9.70083 25.6221V25.5821C9.70083 25.5571 9.70083 25.5311 9.70083 25.5061V25.4661C9.70083 25.4411 9.70083 25.4151 9.70083 25.3891C9.72583 25.3641 9.75183 25.3501 9.77783 25.3501C9.77783 25.3251 9.77783 25.2991 9.77783 25.2731C9.77783 25.2471 9.79183 25.2331 9.81683 25.2331C9.81683 25.2091 9.82983 25.1841 9.85483 25.1571C9.88083 25.1321 9.90683 25.1191 9.93383 25.1191C9.93383 25.0931 9.93383 25.0671 9.93383 25.0401V25.0021C9.93383 24.9771 9.93383 24.9511 9.93383 24.9251C9.95883 24.8991 9.98383 24.8861 10.0098 24.8861C10.0098 24.8611 10.0098 24.8341 10.0098 24.8091C10.0098 24.7831 10.0228 24.7711 10.0488 24.7711C10.0488 24.7461 10.0488 24.7191 10.0488 24.6941C10.0488 24.6691 10.0608 24.6551 10.0878 24.6551C10.0878 24.6291 10.1018 24.6031 10.1268 24.5771V24.5381C10.1518 24.5131 10.1648 24.4871 10.1648 24.4621V24.4231C10.1908 24.3981 10.2038 24.3711 10.2038 24.3451C10.2298 24.3201 10.2548 24.3081 10.2808 24.3081C10.2808 24.2811 10.2938 24.2561 10.3198 24.2311V24.1921C10.3198 24.1671 10.3198 24.1401 10.3198 24.1141C10.3198 24.0891 10.3318 24.0761 10.3588 24.0761C10.3588 24.0491 10.3588 24.0241 10.3588 23.9981C10.3848 23.9731 10.4088 23.9591 10.4348 23.9591C10.4598 23.9341 10.4738 23.9081 10.4738 23.8821L10.5128 23.8431C10.5128 23.8181 10.5258 23.7921 10.5508 23.7661V23.7281C10.5508 23.7031 10.5508 23.6751 10.5508 23.6501C10.5508 23.6251 10.5648 23.6111 10.5898 23.6111C10.5898 23.5851 10.6018 23.5591 10.6288 23.5341V23.4801C10.6538 23.4551 10.6668 23.4301 10.6668 23.4041L10.7058 23.3631C10.7308 23.3381 10.7448 23.3131 10.7448 23.2871C10.7448 23.2611 10.7578 23.2481 10.7828 23.2481C10.7828 23.2221 10.7828 23.1961 10.7828 23.1701C10.7828 23.1451 10.7968 23.1311 10.8218 23.1311C10.8218 23.1061 10.8348 23.0801 10.8618 23.0541V23.0161C10.8868 22.9911 10.9008 22.9641 10.9008 22.9381C10.9258 22.9131 10.9518 22.9011 10.9778 22.9011C10.9778 22.8751 10.9908 22.8491 11.0158 22.8241C11.0158 22.7991 11.0288 22.7851 11.0548 22.7851C11.0548 22.7601 11.0548 22.7321 11.0548 22.7081C11.0548 22.6821 11.0688 22.6681 11.0948 22.6681C11.0948 22.6431 11.0948 22.6171 11.0948 22.5911V22.5521C11.1198 22.5271 11.1328 22.5001 11.1328 22.4751L11.1728 22.4381C11.1728 22.4121 11.1728 22.3851 11.1728 22.3601C11.1978 22.3351 11.2238 22.3221 11.2488 22.3221C11.2488 22.2961 11.2618 22.2691 11.2878 22.2441V22.2051C11.3128 22.1791 11.3258 22.1541 11.3258 22.1281V22.0891C11.3518 22.0641 11.3658 22.0391 11.3658 22.0121L11.4038 21.9741C11.4038 21.9491 11.4038 21.9221 11.4038 21.8971C11.4548 21.8721 11.4938 21.8581 11.5188 21.8581C11.5458 21.8321 11.5568 21.8061 11.5568 21.7811C11.5568 21.7561 11.5708 21.7431 11.5968 21.7431C11.5968 21.7171 11.6088 21.6901 11.6348 21.6641V21.6261C11.6348 21.6011 11.6348 21.5741 11.6348 21.5491C11.6348 21.5231 11.6478 21.5101 11.6718 21.5101C11.6718 21.4851 11.6848 21.4581 11.7108 21.4331V21.3941C11.7108 21.3681 11.7248 21.3421 11.7498 21.3171V21.2771C11.7748 21.2521 11.7898 21.2261 11.7898 21.2011V21.1611C11.8148 21.1361 11.8278 21.1111 11.8278 21.0841L11.8658 21.0471C11.8918 21.0211 11.9048 20.9951 11.9048 20.9701C11.9048 20.9441 11.9178 20.9301 11.9438 20.9301C11.9438 20.9051 11.9568 20.8791 11.9818 20.8541L12.0198 20.8141V20.7371C12.0468 20.7371 12.0718 20.7241 12.0978 20.6981V20.6591C12.0978 20.6331 12.0978 20.6071 12.0978 20.5821V20.5441C12.0978 20.5181 12.1098 20.4921 12.1358 20.4651V20.4261L12.1558 20.4081L12.1758 20.3681V20.3491L12.2138 20.3101C12.2398 20.2851 12.2528 20.2581 12.2528 20.2331L12.2918 20.1951C12.2918 20.1681 12.3038 20.1441 12.3308 20.1191V20.0791C12.3568 20.0531 12.3698 20.0271 12.3698 20.0011C12.3948 19.9761 12.4208 19.9621 12.4468 19.9621C12.4468 19.9371 12.4598 19.9111 12.4848 19.8851V19.8471C12.5108 19.8221 12.5238 19.7971 12.5238 19.7691L12.5618 19.7321C12.5878 19.7071 12.6018 19.6801 12.6018 19.6551C12.6018 19.6291 12.6138 19.6161 12.6408 19.6161C12.6408 19.5911 12.6408 19.5641 12.6408 19.5391C12.6408 19.5131 12.6538 19.5001 12.6788 19.5001C12.6788 19.4741 12.6788 19.4481 12.6788 19.4221C12.6788 19.3971 12.6918 19.3841 12.7178 19.3841C12.7178 19.3581 12.7178 19.3321 12.7178 19.3071V19.2671H12.7378C12.7568 19.2651 12.7888 19.2511 12.8338 19.2281V19.2001C12.8598 19.1751 12.8728 19.1491 12.8728 19.1231L12.9118 19.0841C12.9378 19.0591 12.9498 19.0321 12.9498 19.0071L12.9898 18.9681C12.9898 18.9431 13.0028 18.9181 13.0278 18.8911V18.8541C13.0278 18.8261 13.0278 18.8011 13.0278 18.7761V18.7371C13.0278 18.7181 13.0278 18.6991 13.0278 18.6781V18.6201C13.0278 18.5951 13.0278 18.5691 13.0278 18.5431V18.5051C13.0278 18.4801 13.0278 18.4531 13.0278 18.4271V18.3901C13.0278 18.3651 13.0278 18.3371 13.0278 18.3121V18.2741C13.0278 18.2491 13.0278 18.2211 13.0278 18.1971V18.1601C13.0278 18.1341 13.0278 18.1081 13.0278 18.0831V18.0431C13.0278 18.0181 13.0278 17.9921 13.0278 17.9671V17.9281C13.0278 17.9021 13.0278 17.8751 13.0278 17.8511V17.8131C13.0278 17.7861 13.0278 17.7601 13.0278 17.7341C13.0538 17.7091 13.0788 17.6951 13.1058 17.6951C13.1058 17.6701 13.1178 17.6441 13.1428 17.6191C13.1428 17.5931 13.1568 17.5791 13.1818 17.5791C13.1818 17.5541 13.1818 17.5291 13.1818 17.5031L13.2198 17.4641C13.2458 17.4381 13.2598 17.4121 13.2598 17.3861L13.2988 17.3471C13.2988 17.3221 13.3108 17.2961 13.3368 17.2701C13.3368 17.2451 13.3498 17.2311 13.3768 17.2311C13.3768 17.2061 13.3768 17.1791 13.3768 17.1531V17.1151C13.3768 17.0901 13.3898 17.0631 13.4148 17.0381V16.9991C13.4148 16.9741 13.4278 16.9471 13.4538 16.9221V16.8831C13.4798 16.8571 13.4928 16.8311 13.4928 16.8061C13.4928 16.7801 13.5048 16.7671 13.5298 16.7671C13.5298 16.7411 13.5438 16.7151 13.5708 16.6901C13.5708 16.6651 13.5838 16.6501 13.6088 16.6501C13.6088 16.6251 13.6218 16.6001 13.6468 16.5741C13.6728 16.5481 13.6988 16.5351 13.7238 16.5351C13.7238 16.5091 13.7368 16.4831 13.7628 16.4581V16.4191C13.7888 16.3931 13.8018 16.3671 13.8018 16.3411C13.8018 16.3161 13.8148 16.3021 13.8398 16.3021C13.8398 16.2771 13.8538 16.2511 13.8788 16.2251V16.1881C13.8788 16.1631 13.8918 16.1351 13.9178 16.1091V16.0711C13.9178 16.0471 13.9308 16.0191 13.9558 15.9951C13.9558 15.9701 13.9688 15.9561 13.9958 15.9561C13.9958 15.9291 14.0078 15.9031 14.0348 15.8781C14.0348 15.8531 14.0468 15.8391 14.0728 15.8391C14.0728 15.8141 14.0858 15.7871 14.1118 15.7621C14.1118 15.7371 14.1248 15.7221 14.1508 15.7221C14.1758 15.6981 14.1888 15.6711 14.1888 15.6461L14.2288 15.6081C14.2538 15.5821 14.2668 15.5551 14.2668 15.5301L14.3058 15.4911C14.3308 15.4671 14.3438 15.4401 14.3448 15.4141C14.3198 15.3881 14.2938 15.3741 14.2678 15.3741C14.2428 15.3491 14.2298 15.3251 14.2298 15.2981C14.1518 15.2981 14.0878 15.2981 14.0378 15.2981C14.0108 15.2721 13.9718 15.2591 13.9208 15.2591C13.8948 15.2591 13.8818 15.2461 13.8818 15.2211C13.7788 15.2211 13.6758 15.2211 13.5748 15.2211C13.5218 15.1951 13.4708 15.1811 13.4188 15.1811C13.3938 15.1571 13.3808 15.1311 13.3808 15.1051C13.2008 15.1051 13.0338 15.1051 12.8788 15.1051C12.8538 15.0791 12.8148 15.0661 12.7628 15.0661C12.7368 15.0661 12.7238 15.0531 12.7238 15.0261C12.5948 15.0261 12.4538 15.0261 12.2998 15.0261C12.2488 15.0011 12.1968 14.9871 12.1448 14.9871C12.1188 14.9631 12.1068 14.9361 12.1068 14.9111C11.9778 14.9111 11.8498 14.9111 11.7208 14.9111C11.6948 14.8861 11.6578 14.8711 11.6068 14.8711C11.5808 14.8711 11.5668 14.8591 11.5668 14.8321C11.4648 14.8321 11.3618 14.8321 11.2588 14.8321C11.2078 14.8071 11.1568 14.7951 11.1058 14.7951C11.0808 14.7701 11.0658 14.7431 11.0658 14.7181C10.9638 14.7181 10.8618 14.7181 10.7578 14.7181C10.7318 14.6921 10.6938 14.6781 10.6428 14.6781C10.6158 14.6781 10.6038 14.6661 10.6038 14.6391C10.4488 14.6391 10.2818 14.6391 10.1028 14.6391C10.0518 14.6141 9.99983 14.6011 9.94983 14.6011C9.92283 14.5751 9.91083 14.5491 9.91083 14.5231C9.78183 14.5231 9.65283 14.5231 9.52483 14.5231C9.49983 14.4981 9.45983 14.4841 9.40883 14.4841L9.36883 14.4451C9.29283 14.4451 9.21583 14.4451 9.13983 14.4451C9.08783 14.4201 9.03583 14.4081 8.98583 14.4081C8.95983 14.3811 8.94683 14.3561 8.94683 14.3291C8.89583 14.3291 8.82983 14.3291 8.75483 14.3291C8.72783 14.3041 8.68983 14.2911 8.63783 14.2911L8.59883 14.2521C8.52083 14.2521 8.44583 14.2521 8.36783 14.2521C8.31583 14.2271 8.26483 14.2131 8.21383 14.2131C8.18783 14.1881 8.17383 14.1621 8.17383 14.1361C8.12283 14.1361 8.08483 14.1361 8.05983 14.1361C8.03383 14.1111 7.99483 14.0971 7.94383 14.0971C7.91883 14.0971 7.90483 14.0841 7.90483 14.0581C7.87883 14.0581 7.84083 14.0581 7.78883 14.0581C7.73783 14.0321 7.68683 14.0191 7.63483 14.0191C7.60883 13.9931 7.59683 13.9671 7.59683 13.9421C7.54583 13.9421 7.48183 13.9421 7.40483 13.9421C7.37883 13.9161 7.34083 13.9031 7.28883 13.9031L7.26783 13.8801C7.21683 13.8801 7.16383 13.8801 7.11183 13.8801C7.06183 13.8551 7.00983 13.8411 6.95883 13.8411C6.93383 13.8161 6.91983 13.7891 6.91983 13.7641C6.89383 13.7641 6.86883 13.7641 6.84283 13.7641C6.81783 13.7381 6.77983 13.7251 6.72583 13.7251L6.68683 13.6861C6.63683 13.6861 6.58583 13.6861 6.53283 13.6861C6.48283 13.6601 6.43083 13.6471 6.38083 13.6471C6.35383 13.6211 6.33983 13.5951 6.33983 13.5701C6.31583 13.5701 6.28983 13.5701 6.26283 13.5701C6.23783 13.5451 6.19983 13.5301 6.14783 13.5301L6.10983 13.4911C6.05783 13.4911 6.00583 13.4911 5.95583 13.4911C5.90383 13.4671 5.85383 13.4541 5.80083 13.4541C5.77683 13.4261 5.73783 13.4011 5.68583 13.3771C5.66083 13.3521 5.63483 13.3261 5.60883 13.3001H5.57083C5.51883 13.2751 5.46683 13.2611 5.41583 13.2611C5.39083 13.2341 5.35183 13.2081 5.29983 13.1831C5.27383 13.1581 5.24883 13.1321 5.22383 13.1071H5.18483C5.13383 13.0811 5.08183 13.0671 5.03183 13.0671C5.00483 13.0421 4.96683 13.0171 4.91483 12.9901C4.88883 12.9651 4.86283 12.9401 4.83783 12.9141C4.81183 12.9141 4.77383 12.9141 4.72283 12.9141C4.67083 12.8881 4.61983 12.8741 4.56783 12.8741C4.54383 12.8491 4.51783 12.8231 4.49183 12.7971C4.46483 12.7721 4.45183 12.7451 4.45183 12.7201H4.41383C4.36183 12.6951 4.31083 12.6811 4.25883 12.6811C4.23383 12.6561 4.22083 12.6291 4.22083 12.6041C4.19483 12.6041 4.17083 12.6041 4.14283 12.6041C4.09183 12.5791 4.03983 12.5521 3.98983 12.5271C3.93783 12.5271 3.89883 12.5131 3.87283 12.4881C3.84683 12.4631 3.82183 12.4361 3.79583 12.4111C3.76983 12.3861 3.75683 12.3591 3.75683 12.3331C3.70483 12.3081 3.66683 12.2821 3.64283 12.2571C3.61583 12.2311 3.57783 12.2051 3.52583 12.1791C3.49983 12.1541 3.47483 12.1281 3.44883 12.1031C3.42183 12.0761 3.39583 12.0511 3.37083 12.0261C3.31883 12.0001 3.26783 11.9741 3.21683 11.9491C3.16483 11.9491 3.12783 11.9361 3.10083 11.9101C3.07583 11.8841 3.04983 11.8581 3.02383 11.8321C2.99783 11.8071 2.98483 11.7801 2.98483 11.7561C2.93383 11.7301 2.89483 11.7041 2.86883 11.6781C2.84283 11.6531 2.81783 11.6281 2.79183 11.6011C2.79183 11.5761 2.77883 11.5511 2.75283 11.5241C2.72783 11.4991 2.70183 11.4731 2.67483 11.4481C2.62383 11.4221 2.57283 11.3961 2.52183 11.3711C2.49583 11.3711 2.46983 11.3571 2.44483 11.3301C2.41883 11.3061 2.37983 11.2791 2.32883 11.2541C2.30283 11.2291 2.26383 11.2041 2.21183 11.1781C2.16083 11.1521 2.12283 11.1251 2.09683 11.1001C2.08483 11.0871 2.07183 11.0751 2.05783 11.0621C1.96883 11.0621 1.87883 11.0621 1.78883 11.0621C1.78883 11.0361 1.78883 11.0101 1.78883 10.9841C1.78883 10.9581 1.78883 10.9201 1.78883 10.8681C1.76083 10.8431 1.73683 10.8171 1.71083 10.7901C1.68583 10.7651 1.65983 10.7391 1.63383 10.7141C1.60783 10.6871 1.56983 10.6621 1.51783 10.6371C1.49283 10.6121 1.45383 10.5851 1.40183 10.5601C1.37683 10.5341 1.35183 10.5081 1.32583 10.4821C1.29883 10.4571 1.27483 10.4301 1.24883 10.4051L1.20883 10.3671C1.18383 10.3411 1.17083 10.3151 1.17083 10.2901V10.2501C1.14483 10.2501 1.11883 10.2371 1.09283 10.2131C1.06783 10.1881 1.04183 10.1741 1.01583 10.1741C0.989828 10.1491 0.976828 10.1221 0.976828 10.0971C0.976828 10.0721 0.976828 10.0441 0.976828 10.0191C0.956828 9.99813 0.944828 9.97313 0.944828 9.94613C0.917828 9.92113 0.892828 9.89613 0.866828 9.86913C0.866828 9.84313 0.866828 9.81913 0.866828 9.79313C0.840828 9.76713 0.814828 9.74213 0.789828 9.71513C0.789828 9.68913 0.776828 9.66313 0.750828 9.63813C0.750828 9.61313 0.737828 9.59913 0.711828 9.59913C0.686828 9.57413 0.673828 9.54913 0.673828 9.52213C0.673828 9.49513 0.673828 9.47013 0.673828 9.44513C0.673828 9.42013 0.673828 9.39313 0.673828 9.36813C0.673828 9.34313 0.673828 9.31813 0.673828 9.29113C0.673828 9.26613 0.673828 9.24013 0.673828 9.21413C0.673828 9.18813 0.673828 9.16213 0.673828 9.13713C0.673828 9.11113 0.673828 9.08513 0.673828 9.06013V9.02013C0.673828 8.99513 0.673828 8.96913 0.673828 8.94313C0.673828 8.91813 0.673828 8.89313 0.673828 8.86713C0.673828 8.84113 0.673828 8.81513 0.673828 8.79013C0.673828 8.76513 0.673828 8.73913 0.673828 8.71413C0.673828 8.68713 0.673828 8.66013 0.673828 8.63613C0.673828 8.60913 0.673828 8.58413 0.673828 8.55913C0.673828 8.53413 0.673828 8.50713 0.673828 8.48213V8.44213C0.673828 8.41713 0.673828 8.39013 0.673828 8.36513C0.673828 8.34013 0.686828 8.31413 0.711828 8.28913C0.737828 8.26313 0.750828 8.23613 0.750828 8.21113C0.750828 8.18613 0.762828 8.16013 0.789828 8.13413C0.789828 8.10913 0.789828 8.08313 0.789828 8.05713C0.789828 8.03213 0.789828 8.00513 0.789828 7.98113C0.789828 7.95513 0.789828 7.92813 0.789828 7.90413V7.86413C0.789828 7.83813 0.789828 7.81313 0.789828 7.78813C0.789828 7.76113 0.789828 7.73513 0.789828 7.71013C0.789828 7.68513 0.789828 7.65913 0.789828 7.63313C0.789828 7.60713 0.789828 7.58113 0.789828 7.55513C0.789828 7.53113 0.789828 7.50513 0.789828 7.47913C0.814828 7.45413 0.828828 7.42713 0.828828 7.40213C0.828828 7.37713 0.841828 7.35013 0.867828 7.32513V7.28713C0.893828 7.26213 0.917828 7.23513 0.944828 7.20913C0.969828 7.18413 0.994828 7.15813 1.02083 7.13313C1.02083 7.10613 1.03483 7.08113 1.05983 7.05613C1.05983 7.03013 1.05983 7.00313 1.05983 6.97813C1.08583 6.95313 1.11083 6.92713 1.13683 6.90213C1.16183 6.87513 1.18783 6.85013 1.21283 6.82313C1.23883 6.79713 1.25283 6.77213 1.25283 6.74613C1.27783 6.72113 1.30283 6.70713 1.32983 6.70713C1.32983 6.68213 1.34383 6.65713 1.36883 6.63113C1.36883 6.60513 1.38083 6.57913 1.40683 6.55313C1.40683 6.52813 1.41983 6.50113 1.44783 6.47613C1.44783 6.45113 1.44783 6.42513 1.44783 6.39913C1.44783 6.37413 1.44783 6.34713 1.44783 6.32313C1.47183 6.29613 1.49783 6.27013 1.52283 6.24513C1.52283 6.22013 1.53683 6.19313 1.56183 6.16813V6.13113C1.56183 6.10513 1.56183 6.07813 1.56183 6.05313C1.56183 6.02813 1.56183 6.00113 1.56183 5.97513C1.56183 5.95013 1.56183 5.92413 1.56183 5.89913C1.56183 5.87413 1.56183 5.84713 1.56183 5.82213C1.58683 5.79513 1.59883 5.77013 1.59883 5.74313C1.59883 5.71913 1.61183 5.69313 1.63783 5.66713C1.63783 5.64213 1.63783 5.61513 1.63783 5.59013V5.55013C1.63783 5.52513 1.63783 5.49913 1.63783 5.47413C1.63783 5.44813 1.63783 5.42213 1.63783 5.39713C1.63783 5.37113 1.63783 5.34413 1.63783 5.31913C1.63783 5.29413 1.63783 5.26913 1.63783 5.24213C1.63783 5.21713 1.63783 5.19113 1.63783 5.16613C1.63783 5.14113 1.63783 5.11313 1.63783 5.08813C1.63783 5.06313 1.63783 5.03613 1.63783 5.01113V4.97313C1.66383 4.94713 1.68883 4.92113 1.71483 4.89513C1.71483 4.87113 1.72783 4.84413 1.75283 4.81913C1.75283 4.79413 1.75283 4.76813 1.75283 4.74213C1.75283 4.71713 1.75283 4.69113 1.75283 4.66513C1.77983 4.64013 1.79283 4.61313 1.79283 4.58813C1.79283 4.56213 1.80583 4.53613 1.83183 4.51013C1.83183 4.48613 1.83183 4.45913 1.83183 4.43413C1.85683 4.40913 1.88283 4.39613 1.90783 4.39613C1.93283 4.36813 1.97183 4.34313 2.02383 4.31813C2.02383 4.29313 2.03683 4.26613 2.06183 4.24113C2.08783 4.21613 2.11383 4.18913 2.13983 4.16313C2.16483 4.13713 2.20183 4.11213 2.25483 4.08513ZM29.2058 14.1491C28.0218 14.1751 26.8278 14.1881 25.6198 14.1881V14.2271C25.6198 14.2531 25.6198 14.2791 25.6198 14.3041C25.6198 14.3301 25.6198 14.3561 25.6198 14.3811C25.6198 14.4061 25.6198 14.4331 25.6198 14.4581C25.6198 14.4831 25.6198 14.5101 25.6198 14.5351C25.6198 14.5611 25.6198 14.5871 25.6198 14.6131V14.6511C25.6198 14.6771 25.6198 14.7031 25.6198 14.7291C25.6198 14.7541 25.6198 14.7811 25.6198 14.8061C25.6198 14.8301 25.6198 14.8561 25.6198 14.8821C25.6458 14.9081 25.6588 14.9341 25.6588 14.9591C25.6838 14.9841 25.6968 15.0111 25.6968 15.0361C25.7218 15.0621 25.7368 15.0881 25.7368 15.1141C25.7368 15.1391 25.7368 15.1661 25.7368 15.1901V15.2301C25.7618 15.2551 25.7878 15.2801 25.8128 15.3071C25.8388 15.3341 25.8648 15.3581 25.8908 15.3831L25.9688 15.4611H26.0068L26.0458 15.5001V15.5391C26.0718 15.5391 26.0848 15.5521 26.0848 15.5781L26.1228 15.6181V15.6941C26.1728 15.7191 26.2248 15.7461 26.2778 15.7711C26.7398 15.7711 27.2038 15.7711 27.6648 15.7711C27.7428 15.7711 27.8058 15.7711 27.8578 15.7711C27.8828 15.7711 27.9098 15.7711 27.9358 15.7711L27.9738 15.7311C28.0248 15.7071 28.0638 15.6931 28.0898 15.6931C28.1148 15.6681 28.1288 15.6431 28.1288 15.6171H28.1678C28.1938 15.6171 28.2188 15.6031 28.2448 15.5771C28.3218 15.5771 28.3868 15.5641 28.4378 15.5381C28.4628 15.5131 28.4888 15.4861 28.5138 15.4611C28.5398 15.4351 28.5658 15.4091 28.5918 15.3831C28.6168 15.3581 28.6308 15.3341 28.6308 15.3071C28.6558 15.2811 28.6818 15.2551 28.7078 15.2301V15.1901C28.7328 15.1661 28.7468 15.1401 28.7468 15.1141C28.7718 15.0881 28.7988 15.0621 28.8238 15.0361C28.8488 15.0111 28.8738 14.9841 28.8998 14.9591C28.8998 14.9341 28.8998 14.9081 28.8998 14.8821C28.9268 14.8571 28.9518 14.8301 28.9788 14.8061C28.9788 14.7811 28.9928 14.7541 29.0178 14.7291C29.0178 14.7031 29.0178 14.6771 29.0178 14.6511V14.6131C29.0428 14.5871 29.0558 14.5611 29.0558 14.5351C29.0818 14.5101 29.1068 14.4831 29.1338 14.4581L29.2108 14.3811C29.2368 14.3811 29.2618 14.3811 29.2868 14.3811V14.3421C29.2868 14.3171 29.2738 14.2901 29.2488 14.2651C29.2488 14.2401 29.2358 14.2131 29.2098 14.1881V14.1491H29.2058ZM24.3848 14.8431C24.3848 14.8191 24.3848 14.7931 24.3848 14.7671C24.3848 14.7921 24.3718 14.8191 24.3468 14.8431C24.3218 14.8691 24.2958 14.8961 24.2688 14.9211C24.2438 14.9461 24.2178 14.9731 24.1918 14.9971V15.0361H24.1528V15.0761L24.1138 15.1151V15.1541H24.0758V15.1911C24.0618 15.2051 24.0498 15.2191 24.0358 15.2311V15.2691H23.9978C23.9718 15.2961 23.9578 15.3211 23.9578 15.3461C23.9448 15.3581 23.9328 15.3711 23.9198 15.3841C23.9078 15.3971 23.8948 15.4101 23.8818 15.4241C23.8818 15.4491 23.8688 15.4761 23.8428 15.5011V15.5401H23.8238C23.8238 15.5531 23.8168 15.5661 23.8038 15.5791V15.6191C23.7788 15.6441 23.7658 15.6711 23.7658 15.6951C23.7658 15.7201 23.7658 15.7471 23.7658 15.7721C24.0748 15.7721 24.3688 15.7721 24.6528 15.7721C24.6528 15.7471 24.6528 15.7201 24.6528 15.6951C24.6528 15.6701 24.6528 15.6451 24.6528 15.6191C24.6278 15.6191 24.6018 15.6051 24.5748 15.5791C24.5498 15.5541 24.5238 15.5281 24.4978 15.5021C24.4978 15.4771 24.4848 15.4501 24.4588 15.4251C24.4588 15.3991 24.4588 15.3731 24.4588 15.3481C24.4588 15.3231 24.4588 15.2961 24.4588 15.2711C24.4338 15.2461 24.4078 15.2211 24.3808 15.1931C24.3808 15.1691 24.3808 15.1431 24.3808 15.1171C24.3808 15.0911 24.3808 15.0651 24.3808 15.0391V15.0001C24.3808 14.9761 24.3808 14.9491 24.3808 14.9241C24.3808 14.8991 24.3848 14.8691 24.3848 14.8431ZM1.79283 10.0831C1.79283 10.0461 1.79283 10.0141 1.79283 9.98613C1.79283 9.96613 1.79283 9.94713 1.79283 9.92813C1.77283 9.92813 1.75283 9.92813 1.73383 9.92813L1.75283 9.94713C1.75283 9.97313 1.75283 9.99913 1.75283 10.0241V10.0631L1.79283 10.0831ZM6.47683 11.0831C6.52183 11.0961 6.56583 11.1031 6.61183 11.1031V11.0831C6.56583 11.0831 6.52183 11.0831 6.47683 11.0831Z" fill="#9FB1C9"/>
</g>
<defs>
<clipPath id="clip0_28409_24675">
<rect width="67.5" height="32" fill="white" transform="translate(0.173828)"/>
</clipPath>
</defs>
</svg>
