<svg width="93" height="40" viewBox="0 0 93 40" fill="none" xmlns="http://www.w3.org/2000/svg">
<path fill-rule="evenodd" clip-rule="evenodd" d="M91.1051 10.1742C91.1051 10.7402 91.0211 11.3902 90.8551 12.1242C90.7891 12.4912 90.7051 12.8082 90.6051 13.0742H63.5051V13.8742L63.2051 14.2742H38.5551V13.1742H37.5551C37.3881 13.2742 37.3711 13.5412 37.5051 13.9742L38.2051 16.1242H38.5551L38.6551 16.4742L38.0551 16.7242L38.2051 17.2742C38.3721 17.7082 38.5551 18.2082 38.7551 18.7742C39.4221 20.5072 40.2891 22.3902 41.3551 24.4242C42.3881 26.4572 43.8381 28.8412 45.7051 31.5732C46.6051 32.9072 47.4221 34.0572 48.1551 35.0232L44.4551 37.8742C43.7551 36.9742 42.9381 35.8562 42.0051 34.5232C40.1721 31.7902 38.6891 29.3072 37.5551 27.0732C36.4221 24.8072 35.4381 22.6902 34.6051 20.7232L33.6551 18.4232L33.3051 18.5232H31.9551L31.5551 20.6232H31.2551L31.5551 18.6232H30.1051L29.7551 18.9732L28.0051 22.4732C27.9051 22.7402 27.6891 22.8892 27.3551 22.9232H21.8551C21.3881 22.8892 20.9881 22.7732 20.6551 22.5722L20.4551 22.7222C20.3221 22.8882 20.2221 23.0562 20.1551 23.2222C20.0881 23.3552 20.0381 23.5722 20.0051 23.8722C19.9721 24.1722 19.9051 24.4052 19.8051 24.5712C19.7721 24.6722 19.6721 24.8542 19.5051 25.1222C19.3051 25.3542 19.1551 25.6042 19.0551 25.8722C18.9551 26.1722 18.8881 26.4552 18.8551 26.7222C18.8551 27.0562 18.8221 27.2882 18.7551 27.4222C18.7221 27.5892 18.5881 27.8392 18.3551 28.1722C18.1551 28.5052 18.0051 28.8062 17.9051 29.0712C17.8381 29.2712 17.7881 29.5712 17.7551 29.9712C17.7221 30.2712 17.6721 30.5042 17.6051 30.6712C17.5051 30.9042 17.3381 31.1372 17.1051 31.3712C16.9381 31.5042 16.8051 31.6032 16.7051 31.6712L10.7551 28.4212C10.7891 28.1212 10.8881 27.7212 11.0551 27.2212C11.3881 26.2212 11.7881 25.2042 12.2551 24.1712C12.6891 23.3052 13.2221 22.4382 13.8551 21.5702C14.1551 21.1712 14.3551 20.9032 14.4551 20.7702C14.5881 20.5032 14.7051 20.2702 14.8051 20.0702C15.0051 19.4702 15.1211 18.9532 15.1551 18.5202C15.2211 17.9542 15.1381 17.4872 14.9051 17.1202C14.7051 16.7872 14.4221 16.5202 14.0551 16.3202C13.8551 16.2532 13.7051 16.1872 13.6051 16.1202C13.4721 16.0872 13.3881 16.0372 13.3551 15.9702C13.2551 15.8702 13.1881 15.7702 13.1551 15.6702H9.35507C9.02207 15.6702 8.75507 15.4202 8.55507 14.9202L7.95507 12.0202L7.70507 11.9702L7.60507 12.3202L8.25507 14.4702L7.95507 15.0202H6.40507L6.05507 14.3702L7.05507 12.3702L7.00507 11.9202L6.60507 12.1202C6.30507 12.3872 6.07207 12.6872 5.90507 13.0202C5.70507 13.3872 5.55507 13.7532 5.45507 14.1202C5.38807 14.2872 5.35507 14.4202 5.35507 14.5202L4.80507 17.9202C4.43807 20.1532 4.18807 21.3372 4.05507 21.4702C3.92207 21.5702 3.78807 21.6872 3.65507 21.8202C3.58807 21.8862 3.48807 21.9212 3.35507 21.9212C3.12207 21.9542 2.85507 21.9542 2.55507 21.9212C2.15507 21.8542 1.88807 21.7372 1.75507 21.5702C1.58807 21.4032 1.48807 21.2542 1.45507 21.1202C1.42207 21.0542 1.43807 20.8872 1.50507 20.6202C1.50507 20.5872 1.62207 19.8372 1.85507 18.3702C2.08807 17.0032 2.23807 15.9702 2.30507 15.2702C2.33807 14.8372 2.35507 13.5202 2.35507 11.3202V8.62021C2.32207 8.12021 2.35507 7.77022 2.45507 7.57022C2.62207 7.40322 2.82207 7.32022 3.05507 7.32022C3.32207 7.28722 3.98807 7.35322 5.05507 7.52022C5.58807 7.65321 6.10507 7.77021 6.60507 7.87021H7.95507L8.00507 7.07022C8.10507 6.73722 8.20507 6.38622 8.30507 6.02022C8.57207 5.32021 8.75507 4.88721 8.85507 4.72021C8.98807 4.58721 9.12207 4.50321 9.25507 4.47021C9.32207 4.47021 9.37207 4.47021 9.40507 4.47021H13.0551L13.4051 4.62021H15.1551L15.2051 3.22021C15.3051 2.88721 15.4551 2.65321 15.6551 2.52021C15.8551 2.38721 16.0551 2.33721 16.2551 2.37021C16.4551 2.37021 16.6221 2.37021 16.7551 2.37021L16.9551 3.12021L17.3551 2.12021L19.4551 3.02021L19.0051 3.82021L19.4551 4.57021H38.3551L38.7551 4.62021H61.5051V4.12021H61.2051V1.72021L61.4051 1.47021H62.2551L62.9551 3.42021V4.62021H63.4051L63.7551 5.12021V6.82022H63.4551V7.37021H90.7051L90.9051 8.27022C91.0391 8.97422 91.1051 9.60721 91.1051 10.1742ZM28.5551 18.9742L28.2051 18.6242H24.1551L23.9551 19.0242C23.8221 19.2912 23.7221 19.5582 23.6551 19.8242C23.6211 20.0572 23.6551 20.3572 23.7551 20.7242C23.8221 21.0572 23.8881 21.3072 23.9551 21.4742L24.0051 21.9742L23.6051 21.7742C23.3051 21.3412 23.1051 20.9072 23.0051 20.4742C22.9391 20.0742 22.8881 19.6412 22.8551 19.1742V18.6242H21.8551L21.4051 19.6742C21.1381 20.3742 20.9881 20.7742 20.9551 20.8742C20.9221 21.1072 20.9221 21.4072 20.9551 21.7742C21.2221 22.0412 21.5721 22.2242 22.0051 22.3242H27.0551C27.2551 22.2912 27.4051 22.1582 27.5051 21.9252L28.5551 18.9742Z" fill="#9FB1C9"/>
</svg>
