<svg width="50" height="33" viewBox="0 0 50 33" fill="none" xmlns="http://www.w3.org/2000/svg">
<g clip-path="url(#clip0_28409_24685)">
<path fill-rule="evenodd" clip-rule="evenodd" d="M28.9066 10.4109C28.9066 10.3819 28.9066 10.3529 28.9066 10.3249C27.7526 10.3249 26.6136 10.3249 25.4886 10.3249V10.4109C25.4886 10.4409 25.4886 10.4689 25.4886 10.4979V10.5839C25.5186 10.6129 25.5326 10.6409 25.5326 10.6689V10.7139L25.5766 10.7559V10.7979C25.6326 10.8279 25.6906 10.8559 25.7476 10.8839C25.7756 10.9129 25.8046 10.9429 25.8356 10.9719C25.8626 10.9999 25.8786 11.0269 25.8786 11.0549V11.0979C25.9066 11.1269 25.9356 11.1429 25.9636 11.1429C25.9636 11.1709 25.9786 11.1989 26.0076 11.2279C26.0076 11.2579 26.0206 11.2869 26.0496 11.3139C26.0496 11.3439 26.0636 11.3579 26.0936 11.3579C26.1206 11.3859 26.1366 11.4129 26.1366 11.4439C26.1646 11.4719 26.1786 11.5019 26.1786 11.5309C26.1786 11.5579 26.1786 11.5879 26.1786 11.6159L26.2216 11.6589V11.7029C26.2506 11.7309 26.2786 11.7599 26.3076 11.7879C26.3076 11.8179 26.3236 11.8459 26.3516 11.8749C26.3806 11.9039 26.4096 11.9329 26.4386 11.9609V12.0049H26.4806V12.0499C26.5096 12.0769 26.5396 12.1059 26.5666 12.1349C26.5666 12.1629 26.5666 12.1909 26.5666 12.2199L26.6096 12.2649V12.3069C26.6376 12.3069 26.6666 12.3219 26.6946 12.3509C26.6946 12.3799 26.7096 12.4089 26.7376 12.4379C27.1136 12.4379 27.5026 12.4379 27.9076 12.4379C27.9356 12.4379 27.9516 12.4219 27.9516 12.3939C27.9786 12.3939 28.0076 12.3799 28.0346 12.3509V12.3139C28.0666 12.3139 28.0936 12.3139 28.1216 12.3139C28.1216 12.2859 28.1216 12.2569 28.1216 12.2269C28.1506 12.1979 28.1796 12.1699 28.2086 12.1419C28.2656 12.1419 28.3096 12.1249 28.3376 12.0979C28.3376 12.0689 28.3506 12.0399 28.3806 12.0119V11.9679C28.3806 11.9399 28.3806 11.9109 28.3806 11.8819C28.3806 11.8529 28.3956 11.8249 28.4236 11.7949C28.4236 11.7659 28.4236 11.7379 28.4236 11.7099V11.6659C28.4516 11.6659 28.4676 11.6509 28.4676 11.6229C28.4956 11.5939 28.5096 11.5649 28.5096 11.5379C28.5376 11.5089 28.5656 11.4789 28.5966 11.4509C28.5966 11.4199 28.6106 11.3929 28.6386 11.3649V11.3209C28.6676 11.2929 28.6826 11.2639 28.6826 11.2349C28.6826 11.2059 28.6966 11.1769 28.7256 11.1499C28.7536 11.1499 28.7826 11.1339 28.8116 11.1049C28.8396 11.0779 28.8696 11.0619 28.8986 11.0619V10.9789C28.8986 10.9499 28.8986 10.9189 28.8986 10.8909C28.8986 10.8629 28.8986 10.8339 28.8986 10.8049C28.8986 10.7769 28.8986 10.7479 28.8986 10.7199V10.6749C28.8986 10.6469 28.9136 10.6189 28.9416 10.5899C28.9416 10.5609 28.9256 10.5329 28.8986 10.5039C28.9066 10.4689 28.9066 10.4409 28.9066 10.4109ZM44.9916 6.51888C45.0196 6.54888 45.0356 6.57788 45.0356 6.60488C45.0356 6.63688 45.0486 6.64888 45.0776 6.64888C45.2796 6.64888 45.4826 6.64888 45.6846 6.64888V6.69288H49.6206L49.8346 6.90988V9.24288L49.5776 9.50288H45.9446V9.59088C45.7716 9.59088 45.5816 9.60288 45.3816 9.63288L45.3376 9.67688C45.3086 9.70388 45.2676 9.74788 45.2086 9.80588C45.1806 9.80588 45.1496 9.82088 45.1206 9.84788C45.1496 9.87988 45.1656 9.90788 45.1656 9.93588C45.1936 9.96388 45.2086 9.99488 45.2086 10.0229C45.2086 10.0509 45.2216 10.0809 45.2506 10.1079V10.1509C45.2506 10.1809 45.2506 10.2099 45.2506 10.2369C45.2506 10.2679 45.2506 10.2969 45.2506 10.3249C45.2506 10.3529 45.2506 10.3819 45.2506 10.4109C45.2506 10.4409 45.2506 10.4689 45.2506 10.4979C45.2206 10.5279 45.2086 10.5559 45.2086 10.5839C45.1806 10.6129 45.1496 10.6409 45.1206 10.6689V10.7139C45.1206 10.7419 45.1206 10.7709 45.1206 10.7989C45.1206 10.8289 45.1206 10.8569 45.1206 10.8849C45.1206 10.9139 45.1206 10.9439 45.1206 10.9729V11.0149L45.0776 11.0569C45.0486 11.0889 45.0356 11.1149 45.0356 11.1459C44.9766 11.1739 44.9216 11.1869 44.8636 11.1869C44.8056 11.1869 44.7476 11.1739 44.6906 11.1459C44.6606 11.1149 44.6466 11.0889 44.6466 11.0569C44.6166 11.0569 44.5876 11.0439 44.5606 11.0149L44.5176 10.9729C44.5176 10.9439 44.5026 10.9129 44.4736 10.8849C44.4736 10.8569 44.4606 10.8279 44.4306 10.7989C44.4306 10.7709 44.4176 10.7419 44.3886 10.7139L44.3456 10.6689C44.3186 10.6409 44.2896 10.6129 44.2596 10.5839C44.2306 10.5549 44.2026 10.5269 44.1736 10.4979C44.1446 10.4689 44.1306 10.4409 44.1306 10.4109C44.1016 10.4109 44.0736 10.4109 44.0436 10.4109C44.0146 10.3819 43.9866 10.3529 43.9576 10.3249C43.9306 10.2969 43.9006 10.2679 43.8726 10.2369C43.8726 10.2099 43.8566 10.1799 43.8296 10.1509C43.8296 10.1229 43.8016 10.1079 43.7436 10.1079C43.7146 10.0799 43.6996 10.0499 43.6996 10.0229C43.6716 9.99488 43.6416 9.96388 43.6136 9.93588C43.5856 9.90788 43.5566 9.87988 43.5286 9.84788L43.4406 9.76288C43.4406 9.73488 43.4266 9.70388 43.3986 9.67688H43.3546C43.2976 9.67688 43.2396 9.66188 43.1816 9.63288L43.1396 9.59088C43.0816 9.59088 43.0376 9.59088 43.0096 9.59088C42.9806 9.64788 42.9516 9.68988 42.9226 9.71888C42.8946 9.77588 42.8796 9.81988 42.8796 9.84688C42.8516 9.87888 42.8076 9.91988 42.7516 9.97788C42.6926 10.0349 42.6346 10.0789 42.5786 10.1069C42.5196 10.1359 42.4486 10.1799 42.3626 10.2359C42.3036 10.2359 42.2606 10.2519 42.2326 10.2809H42.1896V10.3239C42.1896 10.3519 42.1746 10.3809 42.1466 10.4099C42.0876 10.4099 42.0446 10.4099 42.0166 10.4099C41.9586 10.4399 41.9166 10.4679 41.8876 10.4969C41.8876 10.5269 41.8716 10.5549 41.8446 10.5829C41.8446 10.6119 41.8446 10.6399 41.8446 10.6679C41.8446 10.6989 41.8286 10.7129 41.8026 10.7129C41.8026 10.7409 41.8026 10.7699 41.8026 10.7979C41.7716 10.7979 41.7426 10.8139 41.7156 10.8419V10.8839C41.7156 10.9129 41.7156 10.9429 41.7156 10.9719V11.0549C41.7156 11.0869 41.7156 11.1129 41.7156 11.1439C41.7156 11.1719 41.7156 11.1999 41.7156 11.2289C41.7156 11.2589 41.7156 11.2879 41.7156 11.3149V11.3589C41.7156 11.3869 41.7156 11.4139 41.7156 11.4449C41.7156 11.4729 41.7156 11.5029 41.7156 11.5319V11.5739C41.7156 11.6049 41.7156 11.6319 41.7156 11.6609V11.7049C41.7156 11.7329 41.7156 11.7619 41.7156 11.7899C41.7156 11.8199 41.7156 11.8479 41.7156 11.8769C41.7156 11.9059 41.7156 11.9349 41.7156 11.9629V12.0069C41.7156 12.0349 41.7156 12.0649 41.7156 12.0929V12.1369C41.7156 12.1649 41.7156 12.1929 41.7156 12.2219C41.7156 12.2519 41.7156 12.2809 41.7156 12.3089V12.3529C41.7156 12.3819 41.7156 12.4109 41.7156 12.4399C41.7156 12.4669 41.7156 12.4949 41.7156 12.5239C41.7156 12.5529 41.7156 12.5839 41.7156 12.6109V12.6979C41.7156 12.7249 41.7156 12.7539 41.7156 12.7849C41.7156 12.8139 41.7156 12.8419 41.7156 12.8699V12.9129C41.7156 12.9399 41.7156 12.9699 41.7156 12.9989C41.7156 13.0259 41.7156 13.0559 41.7156 13.0849C41.7156 13.1149 41.7156 13.1439 41.7156 13.1719C41.7156 13.1999 41.7156 13.2299 41.7156 13.2579C41.7156 13.2859 41.7156 13.3179 41.7156 13.3449C41.7156 13.3719 41.7156 13.4029 41.7156 13.4309C41.7156 13.4589 41.7156 13.4889 41.7156 13.5169V13.5589C41.7156 13.5889 41.7156 13.6189 41.7156 13.6459C41.7156 13.6749 41.7156 13.7029 41.7156 13.7319C41.7156 13.7619 41.7156 13.7919 41.7156 13.8179V13.9049C41.7156 13.9349 41.7156 13.9639 41.7156 13.9929C41.7156 14.0199 41.7156 14.0499 41.7156 14.0789C41.7156 14.1079 41.7156 14.1369 41.7156 14.1649V14.2099C41.7156 14.2369 41.7156 14.2659 41.7156 14.2959C41.7156 14.3239 41.7156 14.3519 41.7156 14.3789V14.4339C41.7156 14.4629 41.7156 14.4909 41.7156 14.5199V14.5619C41.7156 14.5919 41.7156 14.6209 41.7156 14.6489C41.7156 14.6789 41.7156 14.7059 41.7156 14.7359C41.7156 14.7649 41.7156 14.7939 41.7156 14.8219V14.8669C41.7156 14.8939 41.7156 14.9229 41.7156 14.9529V14.9949C41.7156 15.0249 41.7156 15.0539 41.7156 15.0819V15.1239C41.7156 15.1539 41.7156 15.1819 41.7156 15.2119C41.7156 15.2399 41.7156 15.2689 41.7156 15.2979C41.7156 15.3259 41.7156 15.3559 41.7156 15.3849C41.7156 15.4119 41.7156 15.4409 41.7156 15.4719V15.5559C41.7156 15.5849 41.7156 15.6149 41.7156 15.6409C41.7156 15.6699 41.7156 15.7009 41.7156 15.7269V15.7709C41.7156 15.7979 41.7156 15.8269 41.7156 15.8589C41.7156 15.8869 41.7156 15.9149 41.7156 15.9439C41.7156 15.9719 41.7156 16.0009 41.7156 16.0309V16.1169C41.7156 16.1459 41.7156 16.1739 41.7156 16.2039C41.7156 16.2309 41.7156 16.2589 41.7156 16.2899C41.7156 16.3169 41.7156 16.3469 41.7156 16.3739V16.4189C41.7156 16.4469 41.7156 16.4769 41.7156 16.5049C41.7156 16.5349 41.7156 16.5649 41.7156 16.5919C41.7156 16.6209 41.7156 16.6509 41.7156 16.6789V16.7649C41.7156 16.7929 41.7156 16.8219 41.7156 16.8509C41.7156 16.8789 41.7156 16.9109 41.7156 16.9369C41.7156 16.9649 41.7156 16.9949 41.7156 17.0249V17.0659C41.7156 17.0969 41.7156 17.1259 41.7156 17.1529C41.7156 17.1819 41.7156 17.2129 41.7156 17.2419V17.3269C41.7156 17.3549 41.7156 17.3839 41.7156 17.4129C41.7156 17.4419 41.7156 17.4709 41.7156 17.4999C41.7156 17.5289 41.7156 17.5569 41.7156 17.5859C41.7156 17.6149 41.7156 17.6459 41.7156 17.6719V17.7159C41.7156 17.7449 41.7156 17.7729 41.7156 17.8009V17.8449C41.7156 17.8719 41.7156 17.9019 41.7156 17.9319V17.9749C41.7156 18.0029 41.7156 18.0329 41.7156 18.0599C41.7156 18.0899 41.7156 18.1179 41.7156 18.1459C41.7156 18.1769 41.7156 18.2059 41.7156 18.2329V18.2769C41.7156 18.3049 41.7156 18.3339 41.7156 18.3629V18.4059C41.7156 18.4349 41.7156 18.4649 41.7156 18.4929C41.7156 18.5209 41.7156 18.5509 41.7156 18.5789V18.6219C41.7156 18.6509 41.7156 18.6809 41.7156 18.7089C41.7156 18.7369 41.7156 18.7659 41.7156 18.7939C41.7156 18.8229 41.7156 18.8529 41.7156 18.8809V18.9659C41.7156 18.9959 41.7156 19.0249 41.7156 19.0549C41.7156 19.0829 41.7156 19.1119 41.7156 19.1399C41.7156 19.1709 41.7156 19.1979 41.7156 19.2259V19.2699C41.7156 19.2969 41.7156 19.3259 41.7156 19.3569C41.7156 19.3859 41.7156 19.4129 41.7156 19.4429C41.7156 19.4699 41.7156 19.4999 41.7156 19.5299C41.7156 19.5589 41.7156 19.5869 41.7156 19.6139C41.7156 19.6429 41.7156 19.6729 41.7156 19.7039C41.7156 19.7309 41.7156 19.7599 41.7156 19.7869C41.7156 19.8189 41.7156 19.8459 41.7156 19.8739V19.9189C41.7156 19.9479 41.7156 19.9749 41.7156 20.0039C41.7156 20.0329 41.7156 20.0639 41.7156 20.0909V20.1769C41.7156 20.2059 41.7156 20.2329 41.7156 20.2629C41.7156 20.2909 41.7156 20.3209 41.7156 20.3499C41.7156 20.3789 41.7156 20.4069 41.7156 20.4369V20.4799C41.7156 20.5079 41.7156 20.5379 41.7156 20.5669C41.7156 20.5939 41.7156 20.6239 41.7156 20.6509V20.6939C41.7156 20.7249 41.7156 20.7529 41.7156 20.7809V20.8229C41.7156 20.8519 41.7156 20.8829 41.7156 20.9099C41.7156 20.9389 41.7156 20.9689 41.7156 20.9959C41.7156 21.0249 41.7156 21.0549 41.7156 21.0819V21.1239C41.7156 21.1549 41.7156 21.1819 41.7156 21.2119V21.2549C41.7156 21.2839 41.7156 21.3119 41.7156 21.3419C41.7156 21.3699 41.7156 21.3979 41.7156 21.4279V21.4709C41.7156 21.4989 41.7156 21.5289 41.7156 21.5569C41.7156 21.5849 41.7156 21.6149 41.7156 21.6419C41.7156 21.6719 41.7156 21.6999 41.7156 21.7299V21.8139C41.7156 21.8439 41.7156 21.8739 41.7156 21.9009C41.7156 21.9299 41.7156 21.9599 41.7156 21.9869C41.7156 22.0159 41.6996 22.0459 41.6726 22.0739L41.6296 22.1169V22.2029C41.5996 22.2029 41.5706 22.2159 41.5416 22.2449L41.4996 22.2889C41.4406 22.2889 41.3986 22.2889 41.3696 22.2889C41.3416 22.2889 41.3126 22.2889 41.2836 22.2889C41.2256 22.2889 41.1826 22.2889 41.1546 22.2889C41.1256 22.2599 41.0966 22.2449 41.0676 22.2449C40.9226 22.2449 40.7786 22.2309 40.6356 22.2029C40.5766 22.2029 40.5216 22.1879 40.4616 22.1609C40.4056 22.1309 40.3766 22.1019 40.3766 22.0739C40.3476 22.0739 40.3196 22.0739 40.2906 22.0739C40.2606 22.0739 40.2456 22.0589 40.2456 22.0309C40.1896 22.0309 40.1316 22.0169 40.0736 21.9879C40.0446 21.9879 40.0296 21.9749 40.0296 21.9459C39.9736 21.9459 39.9146 21.9309 39.8576 21.9019C39.8006 21.9019 39.7576 21.9019 39.7276 21.9019V21.8569C39.6706 21.8569 39.6136 21.8439 39.5556 21.8149C39.4966 21.8149 39.4396 21.8009 39.3846 21.7739L39.3406 21.7309C39.2806 21.7309 39.2256 21.7309 39.1686 21.7309C39.1386 21.7309 39.1106 21.7309 39.0806 21.7309C39.0506 21.7009 39.0226 21.6859 38.9946 21.6859C38.9636 21.6859 38.9366 21.6729 38.9076 21.6429C38.8486 21.6429 38.8066 21.6289 38.7776 21.6009C38.7206 21.5709 38.6756 21.5439 38.6476 21.5149C38.5916 21.4849 38.5326 21.4569 38.4746 21.4279H38.4316C38.3736 21.3979 38.3306 21.3699 38.3016 21.3419C38.2456 21.3109 38.2026 21.2839 38.1736 21.2549C38.1736 21.2249 38.1586 21.1969 38.1296 21.1689C38.1006 21.1389 38.0706 21.1249 38.0426 21.1249C38.0136 21.0979 37.9996 21.0679 37.9996 21.0399C37.9706 21.0119 37.9436 20.9819 37.9146 20.9539C37.8836 20.9239 37.8706 20.8969 37.8706 20.8649C37.8416 20.8649 37.8136 20.8519 37.7836 20.8229C37.7556 20.8229 37.7266 20.8089 37.6986 20.7809C37.6986 20.7529 37.6846 20.7249 37.6556 20.6939C37.6556 20.6669 37.6406 20.6379 37.6136 20.6059C37.6136 20.5789 37.5986 20.5509 37.5696 20.5229C37.5696 20.4939 37.5556 20.4799 37.5266 20.4799C37.5266 20.4519 37.5266 20.4209 37.5266 20.3919C37.5266 20.3649 37.5116 20.3369 37.4816 20.3059V20.2629C37.4536 20.2329 37.4256 20.2059 37.3966 20.1769L37.3536 20.1329C37.3536 20.1049 37.3536 20.0759 37.3536 20.0459C37.3246 20.0189 37.3116 19.9899 37.3116 19.9609C37.3116 19.9329 37.2966 19.9029 37.2686 19.8729V19.8309C37.2686 19.8029 37.2686 19.7729 37.2686 19.7449V19.7029C37.2686 19.6719 37.2686 19.6419 37.2686 19.6129C37.2686 19.5859 37.2686 19.5579 37.2686 19.5289V19.3639C37.2686 19.3329 37.2686 19.3039 37.2686 19.2769V19.2329C37.2686 19.2049 37.2686 19.1779 37.2686 19.1469C37.2686 19.1179 37.2686 19.0889 37.2686 19.0619C37.2686 19.0319 37.2686 19.0029 37.2686 18.9729V18.8879C37.2686 18.8599 37.2686 18.8299 37.2686 18.8009C37.2686 18.7729 37.2686 18.7439 37.2686 18.7159C37.2686 18.6869 37.2686 18.6569 37.2686 18.6289V18.5859C37.2686 18.5579 37.2686 18.5279 37.2686 18.4999C37.2686 18.4719 37.2686 18.4419 37.2686 18.4129V18.3699C37.2686 18.3409 37.2686 18.3119 37.2686 18.2839V18.2399C37.2686 18.2119 37.2686 18.1829 37.2686 18.1529C37.2686 18.1249 37.2686 18.0969 37.2686 18.0669C37.2686 18.0389 37.2686 18.0099 37.2686 17.9819V17.9389C37.2686 17.9079 37.2686 17.8789 37.2686 17.8519V17.8079C37.2686 17.7789 37.2686 17.7509 37.2686 17.7229V17.6789C37.2686 17.6529 37.2686 17.6219 37.2686 17.5929C37.2976 17.5639 37.3116 17.5359 37.3116 17.5069C37.3396 17.4779 37.3536 17.4489 37.3536 17.4199C37.3536 17.3909 37.3536 17.3619 37.3536 17.3339V17.2489C37.3536 17.2199 37.3536 17.1889 37.3536 17.1599C37.3536 17.1319 37.3536 17.1029 37.3536 17.0729V17.0319C37.3536 17.0019 37.3536 16.9719 37.3536 16.9439C37.3536 16.9179 37.3536 16.8849 37.3536 16.8579C37.3536 16.8289 37.3536 16.7989 37.3536 16.7719V16.6859C37.3836 16.6579 37.3966 16.6279 37.3966 16.5989C37.4256 16.5719 37.4396 16.5419 37.4396 16.5119C37.4676 16.4839 37.4816 16.4539 37.4816 16.4259V16.3809C37.4816 16.3539 37.4816 16.3239 37.4816 16.2969C37.4816 16.2659 37.4816 16.2379 37.4816 16.2109C37.4816 16.1809 37.4816 16.1529 37.4816 16.1239V16.0379C37.4816 16.0069 37.4816 15.9779 37.4816 15.9509C37.4816 15.9219 37.4816 15.8939 37.4816 15.8659C37.4816 15.8339 37.4816 15.8049 37.4816 15.7779V15.7339C37.4816 15.7069 37.4816 15.6769 37.4816 15.6479C37.4816 15.6209 37.4816 15.5909 37.4816 15.5629V15.4789C37.4816 15.4479 37.4816 15.4189 37.4816 15.3919C37.4816 15.3619 37.4816 15.3319 37.4816 15.3049C37.4816 15.2759 37.4816 15.2459 37.4816 15.2189C37.4816 15.1889 37.4816 15.1609 37.4816 15.1309V15.0889C37.4816 15.0609 37.4816 15.0319 37.4816 15.0019V14.9539C37.4816 14.9229 37.4816 14.8949 37.4816 14.8679V14.8229C37.4816 14.7949 37.4816 14.7649 37.4816 14.7369C37.4816 14.7069 37.4816 14.6799 37.4816 14.6499C37.4816 14.6219 37.4816 14.5929 37.4816 14.5629V14.5209C37.4816 14.4919 37.4816 14.4639 37.4816 14.4349V14.3899C37.4816 14.3619 37.4816 14.3339 37.4816 14.3069C37.4816 14.2759 37.4816 14.2479 37.4816 14.2209V14.1739C37.4816 14.1459 37.4816 14.1159 37.4816 14.0879C37.4816 14.0589 37.4816 14.0289 37.4816 14.0019C37.4816 13.9729 37.4816 13.9439 37.4816 13.9139V13.8269C37.4816 13.8009 37.4816 13.7709 37.4816 13.7409C37.4816 13.7119 37.4816 13.6839 37.4816 13.6549C37.4816 13.6279 37.4816 13.5979 37.4816 13.5679V13.5259C37.4816 13.4979 37.4816 13.4679 37.4816 13.4399C37.4816 13.4119 37.4816 13.3809 37.4816 13.3539C37.4816 13.3259 37.4816 13.2949 37.4816 13.2669C37.4816 13.2379 37.4816 13.2079 37.4816 13.1809C37.4816 13.1529 37.4816 13.1239 37.4816 13.0939C37.4816 13.0649 37.4816 13.0349 37.4816 13.0079C37.4816 12.9789 37.4816 12.9489 37.4816 12.9219V12.8789C37.4816 12.8499 37.4816 12.8219 37.4816 12.7939C37.4816 12.7629 37.4816 12.7339 37.4816 12.7069V12.6199C37.4816 12.5919 37.4816 12.5619 37.4816 12.5329C37.4816 12.5039 37.4816 12.4759 37.4816 12.4489C37.4816 12.4189 37.4816 12.3909 37.4816 12.3619V12.3139C37.4816 12.2859 37.4816 12.2569 37.4816 12.2269C37.4816 12.1979 37.4816 12.1699 37.4816 12.1419V12.0979C37.4816 12.0689 37.4816 12.0399 37.4816 12.0119V11.9679C37.4816 11.9399 37.4816 11.9109 37.4816 11.8819C37.4816 11.8529 37.4816 11.8249 37.4816 11.7949C37.4816 11.7659 37.4816 11.7379 37.4816 11.7099V11.6659C37.4816 11.6359 37.4816 11.6089 37.4816 11.5789V11.5369C37.4816 11.5079 37.4816 11.4779 37.4816 11.4499C37.4816 11.4189 37.4816 11.3919 37.4816 11.3639V11.3199C37.4816 11.2919 37.4816 11.2629 37.4816 11.2339C37.4816 11.2049 37.4816 11.1759 37.4816 11.1489C37.4816 11.1179 37.4816 11.0919 37.4816 11.0599V10.9769C37.4816 10.9479 37.4816 10.9169 37.4816 10.8889C37.4816 10.8609 37.4816 10.8319 37.4816 10.8029C37.4816 10.7749 37.4816 10.7459 37.4816 10.7179V10.6729C37.4816 10.6449 37.4816 10.6169 37.4816 10.5879C37.4816 10.5589 37.4816 10.5309 37.4816 10.5019C37.4816 10.4729 37.4816 10.4449 37.4816 10.4149V10.3729C37.4256 10.3449 37.3826 10.3289 37.3536 10.3289C35.1356 10.3289 32.9006 10.3289 30.6506 10.3289C30.6506 10.3569 30.6356 10.3729 30.6076 10.3729L30.6506 10.4149C30.6796 10.4449 30.6936 10.4729 30.6936 10.5019C30.6936 10.5319 30.6936 10.5599 30.6936 10.5879V10.6309C30.6936 10.6599 30.6936 10.6879 30.6936 10.7189V10.7609C30.6936 10.7879 30.6936 10.8189 30.6936 10.8469C30.6936 10.8769 30.6936 10.9039 30.6936 10.9329C30.6936 10.9609 30.6936 10.9909 30.6936 11.0189V11.0609C30.6936 11.0929 30.6936 11.1189 30.6936 11.1499V11.1909C30.6646 11.2209 30.6356 11.2499 30.6076 11.2799C30.6076 11.3089 30.6076 11.3379 30.6076 11.3669V11.4089C30.6076 11.4389 30.6076 11.4669 30.6076 11.4959C30.6076 11.5249 30.6076 11.5549 30.6076 11.5809C30.5496 11.6119 30.4916 11.6389 30.4346 11.6679C30.4066 11.6679 30.3766 11.6809 30.3476 11.7119C30.3206 11.7399 30.2916 11.7549 30.2616 11.7549C30.2326 11.7839 30.2176 11.8119 30.2176 11.8409C30.1906 11.8709 30.1606 11.8989 30.1326 11.9269C30.0756 11.9539 30.0306 11.9839 30.0026 12.0129V12.0579C29.9756 12.0849 29.9596 12.1139 29.9596 12.1429C29.9596 12.1709 29.9596 12.1989 29.9596 12.2279C29.9596 12.2579 29.9596 12.2869 29.9596 12.3149C29.9306 12.3439 29.9006 12.3739 29.8736 12.4019C29.8736 12.4299 29.8736 12.4609 29.8736 12.4879C29.8736 12.5169 29.8736 12.5469 29.8736 12.5739V12.6169C29.8736 12.6449 29.8736 12.6769 29.8736 12.7039C29.8736 12.7309 29.8736 12.7599 29.8736 12.7909C29.8736 12.8199 29.8736 12.8479 29.8736 12.8759V12.9189C29.8436 12.9189 29.8296 12.9329 29.8296 12.9629C29.8016 12.9909 29.7726 13.0179 29.7436 13.0499C29.7436 13.0769 29.7436 13.1069 29.7436 13.1339C29.7436 13.1619 29.7296 13.1909 29.7006 13.2219C29.7006 13.2489 29.6866 13.2639 29.6576 13.2639C29.6576 13.2919 29.6576 13.3239 29.6576 13.3509C29.6576 13.3779 29.6576 13.4089 29.6576 13.4369C29.6576 13.4649 29.6426 13.4789 29.6146 13.4789C29.5866 13.5099 29.5426 13.5389 29.4856 13.5659L29.4426 13.6099C29.4136 13.6379 29.3836 13.6689 29.3556 13.6959C29.3256 13.7249 29.2826 13.7379 29.2256 13.7379C29.1096 13.7679 28.9806 13.7979 28.8366 13.8239C28.8066 13.8239 28.7776 13.8389 28.7506 13.8689C28.7216 13.8689 28.6926 13.8689 28.6636 13.8689C28.2316 13.8689 27.7996 13.8689 27.3666 13.8689L27.3236 13.9109C27.2656 13.9109 27.2226 13.9109 27.1946 13.9109C26.1566 13.9409 25.1186 13.9699 24.0806 13.9989C24.0516 13.9989 24.0226 14.0129 23.9936 14.0419C23.9656 14.0419 23.9366 14.0419 23.9086 14.0419C23.8216 14.0419 23.7496 14.0419 23.6926 14.0419C23.6926 14.0699 23.6776 14.0839 23.6496 14.0839C23.6216 14.1129 23.5926 14.1419 23.5656 14.1699L23.5196 14.2149H23.4776C23.4776 14.2419 23.4776 14.2709 23.4776 14.3009C23.4776 14.3289 23.4776 14.3569 23.4776 14.3839C23.4776 14.4139 23.4776 14.4439 23.4776 14.4709V14.5149C23.4776 14.5449 23.4776 14.5729 23.4776 14.6009C23.4776 14.6309 23.4776 14.6569 23.4776 14.6879C23.4776 14.7159 23.4776 14.7459 23.4776 14.7739V14.8619C23.4776 14.8889 23.4776 14.9179 23.4776 14.9479C23.4776 14.9749 23.4776 15.0039 23.4776 15.0329C23.4776 15.0619 23.4776 15.0899 23.4776 15.1179V15.1619C23.4776 15.1889 23.4776 15.2199 23.4776 15.2489C23.4776 15.2779 23.4776 15.3049 23.4776 15.3339V15.3789C23.4776 15.4059 23.4776 15.4349 23.4776 15.4659V15.5069C23.4776 15.5349 23.4776 15.5649 23.4776 15.5939C23.4776 15.6229 23.4776 15.6519 23.4776 15.6809C23.4776 15.7079 23.4776 15.7369 23.4776 15.7659C23.4496 15.7659 23.4336 15.7809 23.4336 15.8089C23.4336 15.8369 23.4216 15.8669 23.3916 15.8959V15.9389C23.3916 15.9669 23.3916 15.9959 23.3916 16.0259V16.0679C23.3916 16.0969 23.3916 16.1259 23.3916 16.1529C23.3916 16.1809 23.3916 16.2109 23.3916 16.2409C23.3916 16.2679 23.3916 16.2999 23.3916 16.3259C23.3916 16.3559 23.3916 16.3859 23.3916 16.4139V16.4999C23.3916 16.5299 23.3916 16.5599 23.3916 16.5869C23.3916 16.6159 23.3916 16.6459 23.3916 16.6739V16.7159C23.3916 16.7459 23.3916 16.7739 23.3916 16.8019C23.3916 16.8309 23.3916 16.8609 23.3916 16.8889C23.3916 16.9209 23.3916 16.9479 23.3916 16.9749V17.0599C23.3916 17.0909 23.3916 17.1199 23.3916 17.1469C23.3916 17.1759 23.3916 17.2069 23.3916 17.2359C23.3916 17.2629 23.3916 17.2919 23.3916 17.3209V17.3639C23.3916 17.3919 23.3916 17.4219 23.3916 17.4509C23.3916 17.4789 23.3916 17.5069 23.3916 17.5379C23.3916 17.5649 23.3916 17.5939 23.3916 17.6219V17.7089C23.3916 17.7379 23.3916 17.7659 23.3916 17.7939C23.4206 17.8239 23.4336 17.8529 23.4336 17.8799C23.4336 17.9109 23.4496 17.9399 23.4776 17.9679V18.0109C23.4776 18.0389 23.4776 18.0679 23.4776 18.0979C23.4776 18.1269 23.4776 18.1539 23.4776 18.1839V18.2709C23.4776 18.2989 23.4776 18.3279 23.4776 18.3569C23.4776 18.3849 23.4776 18.4149 23.4776 18.4439C23.4776 18.4739 23.4776 18.5019 23.4776 18.5319C23.4776 18.5589 23.4776 18.5869 23.4776 18.6149V18.6589C23.4776 18.6869 23.4776 18.7159 23.4776 18.7459V18.7879C23.5066 18.8169 23.5196 18.8469 23.5196 18.8749L23.5656 18.9189C23.5656 18.9479 23.5796 18.9759 23.6076 19.0049C23.6076 19.0339 23.6076 19.0619 23.6076 19.0919C23.6076 19.1189 23.6076 19.1489 23.6076 19.1769V19.2189C23.6076 19.2469 23.6076 19.2769 23.6076 19.3059V19.3499C23.6076 19.3789 23.6076 19.4059 23.6076 19.4359C23.6356 19.4629 23.6496 19.4929 23.6496 19.5229L23.6926 19.5649C23.6926 19.5939 23.6926 19.6229 23.6926 19.6509C23.6926 19.6789 23.6926 19.7079 23.6926 19.7369C23.6926 19.7649 23.6926 19.7949 23.6926 19.8229V19.9109C23.6926 19.9399 23.6926 19.9669 23.6926 19.9959C23.6926 20.0249 23.6926 20.0559 23.6926 20.0829C23.6926 20.1119 23.6926 20.1399 23.6926 20.1689V20.2119C23.6926 20.2389 23.7066 20.2699 23.7346 20.2969C23.7346 20.3279 23.7346 20.3559 23.7346 20.3829C23.7646 20.4119 23.7796 20.4429 23.7796 20.4709C23.7796 20.4989 23.7796 20.5289 23.7796 20.5579C23.7796 20.5849 23.7796 20.6149 23.7796 20.6419C23.7796 20.6699 23.7796 20.7009 23.7796 20.7299C23.7796 20.7579 23.7796 20.7869 23.7796 20.8139V20.8559C23.7796 20.8879 23.7796 20.9149 23.7796 20.9449C23.7796 20.9729 23.7796 21.0029 23.7796 21.0309V21.0739L23.7346 21.1159C23.7066 21.1469 23.6926 21.1739 23.6926 21.2039C23.6636 21.2329 23.6346 21.2469 23.6076 21.2469C23.6076 21.2759 23.6076 21.3039 23.6076 21.3339C23.6076 21.3619 23.6076 21.3899 23.6076 21.4199L23.5656 21.4629C23.5656 21.4909 23.5656 21.5209 23.5656 21.5489C23.5356 21.5769 23.5056 21.6069 23.4776 21.6339C23.4776 21.6639 23.4776 21.6919 23.4776 21.7219V21.8059C23.4776 21.8359 23.4776 21.8659 23.4776 21.8929C23.4776 21.9219 23.4776 21.9519 23.4776 21.9789C23.4776 22.0079 23.4776 22.0379 23.4776 22.0659V22.1089C23.4776 22.1379 23.4776 22.1669 23.4776 22.1949C23.4776 22.2239 23.4776 22.2529 23.4776 22.2819C23.4776 22.3099 23.4776 22.3389 23.4776 22.3689C23.5066 22.3689 23.5356 22.3689 23.5656 22.3689C23.5656 22.3959 23.5796 22.4259 23.6076 22.4549C23.6076 22.4819 23.6076 22.5129 23.6076 22.5409C23.6076 22.5679 23.6076 22.5979 23.6076 22.6259V22.6699C23.6076 22.6989 23.6076 22.7269 23.6076 22.7569C23.6076 22.7849 23.6076 22.8129 23.6076 22.8419C23.6076 22.8709 23.6076 22.8999 23.6076 22.9289V23.0149C23.6076 23.0449 23.6076 23.0739 23.6076 23.1029C23.6076 23.1309 23.6076 23.1589 23.6076 23.1879C23.6076 23.2179 23.6076 23.2449 23.6076 23.2739L23.6496 23.3189C23.6786 23.3469 23.6926 23.3739 23.6926 23.4029C23.6926 23.4329 23.6926 23.4629 23.6926 23.4899V23.5329C23.6926 23.5609 23.6926 23.5909 23.6926 23.6199V23.6619C23.6926 23.6909 23.6926 23.7219 23.6926 23.7489C23.6926 23.7779 23.6926 23.8059 23.6926 23.8339C23.6926 23.8629 23.6926 23.8939 23.6926 23.9199V23.9639C23.6926 23.9919 23.7066 24.0219 23.7346 24.0489C23.7346 24.0779 23.7506 24.0919 23.7796 24.0919C23.7796 24.1219 23.7796 24.1509 23.7796 24.1789C23.7796 24.2089 23.7796 24.2379 23.7796 24.2649V24.3079C23.7796 24.3369 23.7796 24.3649 23.7796 24.3949C23.7796 24.4239 23.7796 24.4519 23.7796 24.4829C23.7796 24.5109 23.7796 24.5389 23.7796 24.5679V24.6099C23.8086 24.6399 23.8376 24.6539 23.8666 24.6539C23.8666 24.6839 23.8666 24.7129 23.8666 24.7419C23.8666 24.7689 23.8666 24.7969 23.8666 24.8249V24.8689C23.8666 24.8989 23.8666 24.9279 23.8666 24.9569C23.8666 24.9839 23.8666 25.0139 23.8666 25.0429C23.8666 25.0719 23.8666 25.1009 23.8666 25.1299C23.8946 25.1569 23.9226 25.1869 23.9516 25.2149H23.9936C23.9936 25.2419 23.9936 25.2729 23.9936 25.3019C23.9936 25.3299 23.9936 25.3589 23.9936 25.3869C23.9936 25.4149 23.9936 25.4439 23.9936 25.4729V25.5169C23.9936 25.5459 23.9936 25.5739 23.9936 25.6029C23.9936 25.6329 23.9936 25.6609 23.9936 25.6899C23.9936 25.7169 23.9936 25.7469 23.9936 25.7759C23.9936 25.8039 24.0096 25.8189 24.0376 25.8189V25.8619C24.0376 25.8889 24.0376 25.9189 24.0376 25.9479C24.0376 25.9759 24.0376 26.0059 24.0376 26.0349C24.0376 26.0629 24.0376 26.0929 24.0376 26.1209V26.1629C24.0376 26.1929 24.0376 26.2209 24.0376 26.2489C24.0376 26.2789 24.0376 26.3089 24.0376 26.3359C24.0676 26.3639 24.0966 26.3789 24.1246 26.3789C24.1246 26.4069 24.1376 26.4349 24.1676 26.4639V26.5089C24.1676 26.5379 24.1676 26.5659 24.1676 26.5949C24.1676 26.6249 24.1676 26.6529 24.1676 26.6809C24.1676 26.7089 24.1676 26.7399 24.1676 26.7669V26.8129C24.1676 26.8399 24.1676 26.8689 24.1676 26.8959V26.9409C24.1976 26.9689 24.2246 26.9979 24.2526 27.0279V27.0719C24.2526 27.0999 24.2526 27.1289 24.2526 27.1559C24.2526 27.1849 24.2526 27.2129 24.2526 27.2409C24.2526 27.2719 24.2526 27.3009 24.2526 27.3269C24.2526 27.3569 24.2526 27.3839 24.2526 27.4149V27.4579L24.2966 27.4999C24.2966 27.5309 24.3096 27.5569 24.3396 27.5869C24.3396 27.6169 24.3396 27.6459 24.3396 27.6729V27.7169C24.3396 27.7449 24.3396 27.7739 24.3396 27.8039C24.3396 27.8319 24.3396 27.8589 24.3396 27.8889C24.3686 27.9189 24.3846 27.9469 24.3846 27.9739L24.4256 28.0189V28.0609C24.4256 28.0919 24.4256 28.1209 24.4256 28.1499C24.4566 28.1769 24.4686 28.2069 24.4686 28.2339C24.4996 28.2639 24.5136 28.2899 24.5136 28.3199L24.5556 28.3639C24.5556 28.3909 24.5556 28.4219 24.5556 28.4509C24.5556 28.4789 24.5556 28.5069 24.5556 28.5369C24.5556 28.5639 24.5556 28.5929 24.5556 28.6239C24.5836 28.6539 24.6126 28.6659 24.6406 28.6659V28.7109C24.6696 28.7369 24.6836 28.7669 24.6836 28.7959C24.6836 28.8239 24.6986 28.8529 24.7266 28.8809C24.7266 28.9099 24.7266 28.9369 24.7266 28.9689V29.0109C24.7556 29.0399 24.7706 29.0699 24.7706 29.0979C24.7996 29.1259 24.8146 29.1559 24.8146 29.1839C24.8436 29.2129 24.8716 29.2269 24.9016 29.2269C24.9016 29.2559 24.9136 29.2709 24.9446 29.2709C24.9446 29.2989 24.9446 29.3289 24.9446 29.3569C24.9446 29.3839 24.9446 29.4129 24.9446 29.4429C24.9446 29.4709 24.9576 29.4999 24.9866 29.5299C24.9866 29.5579 24.9866 29.5899 24.9866 29.6159H25.0296C25.0876 29.6159 25.1456 29.6309 25.2036 29.6579C25.2316 29.6869 25.2456 29.7149 25.2456 29.7429C25.2456 29.7709 25.2596 29.7889 25.2896 29.7889C25.2896 29.8149 25.2896 29.8439 25.2896 29.8739V29.9159C25.2896 29.9439 25.2896 29.9749 25.2896 30.0029C25.2896 30.0309 25.2896 30.0629 25.2896 30.0899C25.2896 30.1189 25.2896 30.1469 25.2896 30.1759V30.2209C25.2896 30.2479 25.2896 30.2769 25.2896 30.3049V30.3479C25.2896 30.3779 25.2896 30.4069 25.2896 30.4359C25.2896 30.4629 25.2896 30.4939 25.2896 30.5219V30.5639C25.2896 30.5949 25.2896 30.6239 25.2896 30.6519C25.2896 30.6809 25.2896 30.7109 25.2896 30.7379C25.3186 30.7679 25.3326 30.7959 25.3326 30.8239L25.3766 30.8679V30.9099C25.3766 30.9409 25.3766 30.9669 25.3766 30.9959C25.3466 31.0259 25.3176 31.0549 25.2886 31.0829C25.2586 31.1129 25.2446 31.1419 25.2446 31.1699C25.2156 31.1699 25.1736 31.1699 25.1156 31.1699C24.6276 31.1699 24.1346 31.1699 23.6446 31.1699C23.6166 31.1699 23.5736 31.1849 23.5146 31.2139H23.4726C23.3876 31.2419 23.3136 31.2569 23.2556 31.2569C23.2276 31.2859 23.1846 31.3129 23.1276 31.3419H23.0846C23.0566 31.3709 23.0126 31.3849 22.9546 31.3849C22.3766 31.3849 21.8016 31.3849 21.2236 31.3849C21.1686 31.3559 21.0966 31.3419 21.0076 31.3419C20.9516 31.3129 20.8936 31.2859 20.8366 31.2569V31.2139C20.7776 31.1839 20.7196 31.1699 20.6616 31.1699C20.4316 31.1699 20.2016 31.1699 19.9696 31.1699C19.9416 31.1699 19.9126 31.1699 19.8846 31.1699C19.8566 31.1699 19.8266 31.1699 19.7976 31.1699C19.7406 31.1699 19.6666 31.1699 19.5806 31.1699V31.1279H19.5216C19.4616 31.1279 19.4056 31.1129 19.3486 31.0839C19.3196 31.0559 19.2906 31.0269 19.2626 30.9969C19.2626 30.9679 19.2466 30.9419 19.2186 30.9109V30.8689C19.1896 30.8689 19.1616 30.8529 19.1326 30.8249C19.1326 30.7969 19.1176 30.7679 19.0896 30.7389C19.0896 30.7119 19.0896 30.6819 19.0896 30.6529C19.0896 30.6249 19.0896 30.5959 19.0896 30.5649C19.0606 30.5369 19.0316 30.5049 19.0026 30.4779C19.0026 30.4489 19.0026 30.4199 19.0026 30.3899V30.3469C18.9736 30.3189 18.9456 30.2899 18.9166 30.2629V30.2179C18.9166 30.1889 18.9166 30.1609 18.9166 30.1319C18.9166 30.1049 18.9166 30.0729 18.9166 30.0449C18.9166 30.0159 18.9166 29.9859 18.9166 29.9579V29.9159C18.8866 29.8859 18.8576 29.8569 18.8296 29.8309V29.7839C18.8296 29.7559 18.8296 29.7279 18.8296 29.6989C18.8296 29.6709 18.8146 29.6569 18.7876 29.6569C18.7876 29.6299 18.7726 29.5979 18.7426 29.5709C18.7426 29.5409 18.7286 29.5119 18.6986 29.4839C18.6986 29.4539 18.6986 29.4249 18.6986 29.3979C18.6986 29.3689 18.6986 29.3389 18.6986 29.3119V29.2679L18.6556 29.2249C18.6556 29.1969 18.6416 29.1669 18.6136 29.1389C18.6136 29.1109 18.6136 29.0809 18.6136 29.0519V29.0099C18.6136 28.9779 18.6136 28.9509 18.6136 28.9219C18.6136 28.8929 18.6136 28.8639 18.6136 28.8369C18.5846 28.8079 18.5566 28.7779 18.5266 28.7519V28.6649C18.5266 28.6339 18.5266 28.6049 18.5266 28.5779C18.5266 28.5479 18.5266 28.5199 18.5266 28.4919C18.4986 28.4629 18.4856 28.4319 18.4856 28.4049C18.4856 28.3759 18.4696 28.3609 18.4416 28.3609C18.4416 28.3309 18.4416 28.3049 18.4416 28.2749C18.4416 28.2469 18.4416 28.2179 18.4416 28.1909C18.4416 28.1609 18.4416 28.1319 18.4416 28.1019C18.4126 28.1019 18.3826 28.0879 18.3546 28.0599L18.3116 28.0149C18.3116 27.9879 18.3116 27.9589 18.3116 27.9299C18.3116 27.8999 18.3116 27.8729 18.3116 27.8449C18.3116 27.8149 18.3116 27.7859 18.3116 27.7579V27.7139C18.3116 27.6869 18.2976 27.6569 18.2696 27.6279C18.2696 27.5979 18.2696 27.5719 18.2696 27.5409V27.4549C18.2696 27.4239 18.2546 27.3969 18.2266 27.3669C18.2266 27.3399 18.2136 27.3109 18.1826 27.2809C18.1826 27.2529 18.1686 27.2249 18.1406 27.1959C18.1406 27.1689 18.1406 27.1389 18.1406 27.1119V27.0679C18.1406 27.0379 18.1406 27.0089 18.1406 26.9809V26.9359C18.1406 26.9089 18.1406 26.8799 18.1406 26.8529V26.8069C18.1116 26.7799 18.0976 26.7489 18.0976 26.7209C18.0976 26.6929 18.0836 26.6639 18.0546 26.6349C18.0546 26.6059 18.0546 26.5779 18.0546 26.5489V26.5039C18.0546 26.4749 18.0546 26.4469 18.0546 26.4189V26.3759C18.0546 26.3479 18.0546 26.3189 18.0546 26.2889C18.0546 26.2599 18.0546 26.2329 18.0546 26.2029V26.1539C18.0546 26.1249 18.0546 26.0959 18.0546 26.0679C18.0246 26.0379 18.0116 26.0079 18.0116 25.9809C18.0116 25.9519 17.9966 25.9219 17.9686 25.8949V25.8089C17.9686 25.7799 17.9686 25.7489 17.9686 25.7229C17.9686 25.6939 17.9686 25.6659 17.9686 25.6359C17.9686 25.6069 17.9686 25.5789 17.9686 25.5499C17.9396 25.5499 17.9246 25.5339 17.9246 25.5059C17.9246 25.4769 17.9116 25.4479 17.8826 25.4199C17.8826 25.3909 17.8826 25.3619 17.8826 25.3349C17.8826 25.3059 17.8826 25.2749 17.8826 25.2479C17.8826 25.2189 17.8826 25.1889 17.8826 25.1629C17.8826 25.1329 17.8826 25.1039 17.8826 25.0759C17.8826 25.0479 17.8676 25.0169 17.8396 24.9899C17.8396 24.9609 17.8236 24.9309 17.7956 24.9019L17.7526 24.8579C17.7526 24.8299 17.7526 24.8019 17.7526 24.7749C17.7526 24.7459 17.7526 24.7159 17.7526 24.6869L17.7096 24.6429C17.7096 24.6149 17.6946 24.6009 17.6656 24.6009C17.6656 24.5719 17.6656 24.5439 17.6656 24.5159C17.6656 24.4849 17.6656 24.4569 17.6656 24.4279C17.6656 24.3979 17.6656 24.3699 17.6656 24.3409V24.2979C17.6656 24.2709 17.6656 24.2419 17.6656 24.2119C17.6656 24.1839 17.6656 24.1549 17.6656 24.1249V24.0819C17.6656 24.0539 17.6656 24.0239 17.6656 23.9969V23.9529C17.6656 23.9269 17.6516 23.8959 17.6226 23.8669C17.6226 23.8389 17.6086 23.8109 17.5806 23.7819C17.5806 23.7549 17.5806 23.7239 17.5806 23.6949V23.6529C17.5806 23.6239 17.5806 23.5939 17.5806 23.5659V23.5229C17.5806 23.4959 17.5806 23.4659 17.5806 23.4359C17.5806 23.4069 17.5806 23.3789 17.5806 23.3519V23.3069C17.5806 23.2779 17.5806 23.2499 17.5806 23.2209C17.5806 23.1919 17.5806 23.1639 17.5806 23.1359C17.5806 23.1059 17.5806 23.0779 17.5806 23.0479V22.9619C17.5806 22.9329 17.5806 22.9039 17.5806 22.8749C17.5806 22.8459 17.5806 22.8179 17.5806 22.7899C17.5806 22.7589 17.5806 22.7309 17.5806 22.7029V22.6589C17.5806 22.6309 17.5806 22.6009 17.5806 22.5739C17.5806 22.5449 17.5806 22.5149 17.5806 22.4879C17.5806 22.4579 17.5806 22.4279 17.5806 22.4019C17.5806 22.3719 17.5806 22.3429 17.5806 22.3149C17.5806 22.2859 17.5806 22.2569 17.5806 22.2279C17.5806 22.1999 17.5806 22.1709 17.5806 22.1419V22.0989C17.5806 22.0709 17.5806 22.0409 17.5806 22.0119C17.5806 21.9849 17.5806 21.9549 17.5806 21.9259C17.5806 21.8979 17.5806 21.8679 17.5806 21.8389V21.7549C17.5806 21.7249 17.5806 21.6969 17.5806 21.6669C17.5806 21.6389 17.5806 21.6089 17.5806 21.5819C17.5806 21.5539 17.5806 21.5229 17.5806 21.4959V21.4529H17.4086C17.3796 21.4529 17.3376 21.4529 17.2796 21.4529C17.2506 21.4529 17.2216 21.4369 17.1926 21.4079C17.1646 21.4079 17.1346 21.3949 17.1066 21.3669H17.0646C17.0046 21.3669 16.9496 21.3519 16.8906 21.3219C16.8626 21.2939 16.8326 21.2659 16.8046 21.2369C16.7776 21.2069 16.7486 21.1799 16.7196 21.1489V21.0639C16.7196 21.0359 16.7196 21.0059 16.7196 20.9779C16.7196 20.9479 16.7196 20.9209 16.7196 20.8889V20.8469C16.7196 20.8199 16.7036 20.7909 16.6746 20.7629C16.6746 20.7339 16.6616 20.7029 16.6326 20.6749C16.6326 20.6479 16.6326 20.6169 16.6326 20.5909C16.6326 20.5619 16.6326 20.5319 16.6326 20.5039C16.6326 20.4759 16.6326 20.4449 16.6326 20.4159C16.6326 20.3889 16.6326 20.3609 16.6326 20.3299C16.6326 20.3019 16.6326 20.2709 16.6326 20.2449V20.2019C16.6326 20.1729 16.6326 20.1449 16.6326 20.1159C16.6046 20.0879 16.5746 20.0579 16.5456 20.0289C16.5456 19.9999 16.5456 19.9719 16.5456 19.9439V19.8559C16.5456 19.8279 16.5456 19.7979 16.5456 19.7699C16.5456 19.7409 16.5456 19.7119 16.5456 19.6839C16.5456 19.6559 16.5456 19.6269 16.5456 19.5979V19.5559C16.5456 19.5259 16.5456 19.4959 16.5456 19.4689C16.5456 19.4389 16.5456 19.4119 16.5456 19.3829V19.3389C16.5456 19.3099 16.5456 19.2799 16.5456 19.2519V19.2099C16.5456 19.1809 16.5456 19.1519 16.5456 19.1249C16.5456 19.0939 16.5456 19.0659 16.5456 19.0379C16.5456 19.0079 16.5456 18.9799 16.5456 18.9519V18.9079C16.5456 18.8799 16.5456 18.8499 16.5456 18.8209V18.7789C16.5456 18.7489 16.5456 18.7199 16.5456 18.6919V18.6479C16.5456 18.6199 16.5456 18.5909 16.5456 18.5649C16.5456 18.5339 16.5456 18.5059 16.5456 18.4769C16.5456 18.4479 16.5456 18.4179 16.5456 18.3899C16.5456 18.3609 16.5456 18.3319 16.5456 18.3039V18.2169C16.5456 18.1869 16.5456 18.1599 16.5456 18.1309C16.5456 18.1009 16.5456 18.0719 16.5456 18.0439V18.0009C16.5456 17.9719 16.5456 17.9429 16.5456 17.9129C16.5456 17.8859 16.5456 17.8569 16.5456 17.8269C16.5456 17.7979 16.5456 17.7699 16.5456 17.7419V17.6549C16.5456 17.6269 16.5456 17.5969 16.5456 17.5709C16.5456 17.5399 16.5456 17.5119 16.5456 17.4839C16.5456 17.4549 16.5456 17.4249 16.5456 17.3969V17.3539C16.5456 17.3249 16.5456 17.2959 16.5456 17.2689C16.5456 17.2399 16.5456 17.2089 16.5456 17.1799C16.5456 17.1519 16.5456 17.1229 16.5456 17.0929V17.0079C16.5456 16.9809 16.5456 16.9529 16.5456 16.9219C16.5456 16.8939 16.5456 16.8639 16.5456 16.8349C16.5456 16.8069 16.5456 16.7779 16.5456 16.7489C16.5746 16.7489 16.5896 16.7359 16.5896 16.7069C16.6186 16.6789 16.6326 16.6489 16.6326 16.6199C16.6326 16.5929 16.6326 16.5629 16.6326 16.5329V16.4469C16.6326 16.4189 16.6326 16.3889 16.6326 16.3589C16.6326 16.3329 16.6326 16.3009 16.6326 16.2739C16.6326 16.2439 16.6326 16.2139 16.6326 16.1859C16.6326 16.1589 16.6326 16.1299 16.6326 16.1009V16.0589C16.6326 16.0279 16.6326 15.9989 16.6326 15.9719H16.6746C16.6746 15.9429 16.6746 15.9149 16.6746 15.8869C16.7036 15.8549 16.7196 15.8259 16.7196 15.7989V15.7139C16.7196 15.6849 16.7196 15.6559 16.7196 15.6269C16.7196 15.5979 16.7196 15.5679 16.7196 15.5399V15.4989C16.7196 15.4679 16.7196 15.4389 16.7196 15.4119C16.7486 15.4119 16.7776 15.3959 16.8046 15.3669V15.2819C16.8046 15.2519 16.8046 15.2219 16.8046 15.1949V15.1509C16.8336 15.1219 16.8486 15.0939 16.8486 15.0659C16.8776 15.0369 16.9056 15.0069 16.9346 14.9809C16.9346 14.9499 16.9346 14.9219 16.9346 14.8949V14.8499C16.9636 14.8499 16.9926 14.8349 17.0206 14.8069C17.0206 14.7789 17.0206 14.7489 17.0206 14.7209C17.0206 14.6899 17.0206 14.6639 17.0206 14.6339C17.0206 14.6049 17.0206 14.5769 17.0206 14.5479V14.5039C17.0506 14.4759 17.0646 14.4459 17.0646 14.4169C17.0646 14.3889 17.0776 14.3609 17.1066 14.3339C17.1066 14.3029 17.1066 14.2749 17.1066 14.2479C17.1346 14.2479 17.1656 14.2479 17.1926 14.2479C17.1926 14.2169 17.1926 14.1879 17.1926 14.1589C17.1926 14.1319 17.1926 14.1019 17.1926 14.0739C17.1926 14.0449 17.1926 14.0149 17.1926 13.9869C17.2216 13.9579 17.2356 13.9299 17.2356 13.9009C17.2656 13.9009 17.2916 13.8869 17.3216 13.8559C17.3216 13.8299 17.3216 13.7999 17.3216 13.7699C17.3216 13.7409 17.3216 13.7129 17.3216 13.6839V13.6409L17.3656 13.5969C17.3656 13.5689 17.3656 13.5399 17.3656 13.5099C17.3656 13.4839 17.3656 13.4539 17.3656 13.4249C17.3656 13.3959 17.3656 13.3679 17.3656 13.3379V13.2959C17.3656 13.2669 17.3656 13.2369 17.3656 13.2099C17.3656 13.1819 17.3656 13.1529 17.3656 13.1229V13.0819C17.3656 13.0489 17.3656 13.0219 17.3656 12.9949V12.9509C17.3656 12.9239 17.3656 12.8939 17.3656 12.8649C17.3656 12.8349 17.3656 12.8069 17.3656 12.7779C17.3656 12.7489 17.3656 12.7219 17.3656 12.6929V12.6489C17.3936 12.6209 17.4226 12.5909 17.4506 12.5619L17.4936 12.5199C17.4936 12.4919 17.4936 12.4619 17.4936 12.4339C17.4936 12.4059 17.4936 12.3759 17.4936 12.3469V12.3049C17.4936 12.2749 17.4936 12.2439 17.4936 12.2169C17.4936 12.1899 17.4936 12.1579 17.4936 12.1309C17.4656 12.1019 17.4506 12.0729 17.4506 12.0449C17.4226 12.0449 17.3936 12.0289 17.3656 12.0009V11.9589C17.3656 11.9299 17.3656 11.9019 17.3656 11.8729C17.3656 11.8439 17.3656 11.8159 17.3656 11.7869C17.3656 11.7579 17.3656 11.7299 17.3656 11.6999V11.6569C17.3376 11.6279 17.3216 11.5989 17.3216 11.5719C17.2916 11.5429 17.2646 11.5129 17.2356 11.4849C17.2066 11.4539 17.1766 11.4409 17.1496 11.4409L17.1066 11.4849C17.1066 11.5129 17.1066 11.5429 17.1066 11.5719C17.1066 11.5989 17.0906 11.6289 17.0646 11.6569V11.6999C17.0356 11.7299 17.0046 11.7579 16.9766 11.7869C16.9496 11.7869 16.9196 11.8009 16.8906 11.8289L16.8486 11.8729C16.7896 11.8729 16.7486 11.8729 16.7196 11.8729C16.6896 11.8729 16.6326 11.8589 16.5456 11.8289C16.5186 11.7999 16.4726 11.7869 16.4156 11.7869C16.3896 11.7869 16.3456 11.7869 16.2876 11.7869C15.3356 11.8159 14.3566 11.8439 13.3466 11.8729C13.3176 11.9029 13.3036 11.9309 13.3036 11.9589C13.2756 11.9589 13.2606 11.9739 13.2606 12.0009C13.2026 12.0009 13.1596 12.0009 13.1326 12.0009C13.0736 12.0009 13.0146 11.9859 12.9596 11.9589C12.9596 11.9299 12.9436 11.9019 12.9166 11.8729C12.8866 11.8439 12.8596 11.8159 12.8306 11.7869L12.7886 11.7439C12.7886 11.7129 12.7726 11.6999 12.7456 11.6999C12.7456 11.6699 12.7316 11.6429 12.6996 11.6129V11.5709L12.6566 11.5269C12.6306 11.5269 12.6006 11.5119 12.5716 11.4839C12.5136 11.4839 12.4716 11.4839 12.4406 11.4839H12.3996C12.3696 11.4839 12.3406 11.4839 12.3126 11.4839C12.2266 11.4839 12.1536 11.4839 12.0966 11.4839C12.0666 11.4839 12.0376 11.4839 12.0116 11.4839H11.9226C11.8646 11.4839 11.8216 11.4839 11.7946 11.4839C11.7636 11.4839 11.7356 11.4839 11.7076 11.4839C10.1216 11.4839 8.55158 11.4839 6.99358 11.4839C6.93558 11.4839 6.87758 11.4689 6.82058 11.4399C6.79158 11.4109 6.76258 11.3979 6.73458 11.3979C6.70558 11.3689 6.67658 11.3399 6.64858 11.3109C6.64858 11.2809 6.64858 11.2519 6.64858 11.2219V11.1809C6.64858 11.1499 6.64858 11.1239 6.64858 11.0919C6.62058 11.0919 6.59258 11.0789 6.56158 11.0499C6.53258 11.0499 6.50258 11.0359 6.47458 11.0079C6.44658 10.9789 6.41658 10.9479 6.38858 10.9199C6.38858 10.8919 6.37558 10.8629 6.34458 10.8339C6.34458 10.8059 6.34458 10.7769 6.34458 10.7489V10.7039C6.34458 10.6759 6.33058 10.6479 6.30358 10.6189C6.30358 10.5899 6.30358 10.5619 6.30358 10.5329C6.30358 10.5039 6.30358 10.4759 6.30358 10.4459C6.27258 10.4459 6.24358 10.4459 6.21558 10.4459C6.18858 10.4459 6.17258 10.4619 6.17258 10.4889C6.17258 10.5179 6.17258 10.5489 6.17258 10.5769C6.17258 10.6039 6.17258 10.6319 6.17258 10.6619C6.14558 10.6909 6.12958 10.7189 6.12958 10.7499V10.7919C6.12958 10.8189 6.11458 10.8499 6.08858 10.8779V10.9199C6.08858 10.9489 6.08858 10.9789 6.08858 11.0079C6.08858 11.0359 6.07358 11.0629 6.04258 11.0909V11.1339C6.04258 11.1629 6.04258 11.1929 6.04258 11.2199C6.01558 11.2499 5.99958 11.2789 5.99958 11.3089C5.99958 11.3379 5.99958 11.3669 5.99958 11.3959C5.97158 11.3959 5.95758 11.4089 5.95758 11.4379V11.4819C5.95758 11.5099 5.95758 11.5399 5.95758 11.5689C5.95758 11.5959 5.95758 11.6259 5.95758 11.6539V11.6969C5.95758 11.7269 5.95758 11.7549 5.95758 11.7839C5.95758 11.8129 5.95758 11.8409 5.95758 11.8699C5.95758 11.8999 5.94358 11.9279 5.91458 11.9559C5.91458 11.9829 5.91458 12.0129 5.91458 12.0419H5.85558C5.85558 12.0699 5.84058 12.0999 5.81258 12.1279C5.81258 12.1549 5.81258 12.1859 5.81258 12.2139C5.81258 12.2419 5.81258 12.2729 5.81258 12.3019V12.3439C5.81258 12.3729 5.79958 12.4029 5.77058 12.4309C5.77058 12.4589 5.77058 12.4899 5.77058 12.5169C5.77058 12.5459 5.77058 12.5759 5.77058 12.6029V12.6899C5.74158 12.7189 5.71158 12.7469 5.68458 12.7749C5.62558 12.8329 5.56858 12.8919 5.51058 12.9489C5.48158 12.9489 5.46758 12.9759 5.46758 13.0349C5.43758 13.0919 5.42358 13.1509 5.42358 13.2079C5.42358 13.2659 5.40858 13.3089 5.38058 13.3359C5.35158 13.3939 5.33758 13.4529 5.33758 13.5089C5.30858 13.5399 5.29558 13.5689 5.29558 13.5959C5.23558 13.6559 5.19358 13.7119 5.16458 13.7689C5.16458 13.8289 5.16458 13.8699 5.16458 13.8999C5.13558 13.9569 5.12058 14.0139 5.12058 14.0729C5.12058 14.1009 5.12058 14.1439 5.12058 14.2019C5.06258 14.2289 5.01958 14.2739 4.99258 14.3329C4.96258 14.3889 4.94758 14.4459 4.94758 14.5039C4.91958 14.5339 4.87558 14.5779 4.81858 14.6339C4.81858 14.6639 4.81858 14.7059 4.81858 14.7629C4.79058 14.8209 4.76158 14.8639 4.73358 14.8939C4.70358 14.9499 4.67658 15.0069 4.64658 15.0659C4.64658 15.1229 4.63158 15.1679 4.60358 15.1949C4.60358 15.2219 4.60358 15.2529 4.60358 15.2819C4.60358 15.3109 4.60358 15.3379 4.60358 15.3669L4.56158 15.4119C4.53158 15.4389 4.51858 15.4679 4.51858 15.4989C4.48858 15.5259 4.47458 15.5679 4.47458 15.6269C4.44558 15.6849 4.41758 15.7409 4.38858 15.7999C4.35958 15.7999 4.33158 15.8149 4.30258 15.8429L4.25958 15.8869V15.9289C4.22958 15.9579 4.20158 15.9869 4.17358 16.0139C4.17358 16.0419 4.17358 16.0729 4.17358 16.1019L4.12958 16.1449C4.12958 16.1739 4.12958 16.2019 4.12958 16.2319C4.12958 16.2589 4.11658 16.2869 4.08758 16.3179C4.08758 16.3449 4.07258 16.3599 4.04458 16.3599C4.01458 16.3899 4.00058 16.4199 4.00058 16.4479C3.97058 16.4479 3.94258 16.4619 3.91458 16.4919C3.91458 16.5189 3.91458 16.5479 3.91458 16.5759C3.91458 16.6069 3.90158 16.6359 3.87158 16.6619C3.87158 16.6919 3.87158 16.7219 3.87158 16.7489C3.84358 16.7489 3.81358 16.7629 3.78458 16.7929C3.75558 16.8209 3.74158 16.8499 3.74158 16.8789C3.71358 16.8789 3.68458 16.8939 3.65658 16.9219C3.59958 16.9219 3.57058 16.9389 3.57058 16.9649C3.54158 16.9929 3.52658 17.0229 3.52658 17.0529C3.49858 17.0529 3.46958 17.0529 3.44058 17.0529C3.44058 17.0799 3.42558 17.0939 3.39758 17.0939C3.36958 17.0939 3.32558 17.0939 3.26758 17.0939C3.21058 17.0939 3.15358 17.0939 3.09458 17.0939C3.03658 17.0939 2.99358 17.0939 2.96458 17.0939C2.93758 17.0939 2.89458 17.1099 2.83458 17.1399C2.72158 17.1399 2.61858 17.1539 2.53358 17.1819C2.47558 17.1819 2.40358 17.1819 2.31658 17.1819C2.17258 17.1539 2.04358 17.1249 1.92658 17.0949C1.84058 17.0689 1.77058 17.0539 1.71158 17.0539C1.62458 17.0239 1.53958 17.0089 1.45258 17.0089C1.39358 17.0089 1.33758 16.9939 1.27858 16.9659C1.27858 16.9399 1.26558 16.9069 1.23658 16.8799C1.20758 16.8509 1.17758 16.8209 1.15058 16.7939V16.7079C1.15058 16.6799 1.15058 16.6499 1.15058 16.6209C1.15058 16.5939 1.15058 16.5639 1.15058 16.5339C1.15058 16.5059 1.15058 16.4759 1.15058 16.4479V16.4029C1.15058 16.3759 1.15058 16.3459 1.15058 16.3189C1.15058 16.2879 1.15058 16.2599 1.15058 16.2329C1.15058 16.2029 1.15058 16.1749 1.15058 16.1459V16.0599C1.15058 16.0289 1.15058 15.9999 1.15058 15.9729C1.15058 15.9439 1.15058 15.9159 1.15058 15.8879C1.15058 15.8559 1.15058 15.8269 1.15058 15.7999V15.7559C1.15058 15.7289 1.15058 15.6989 1.15058 15.6699C1.15058 15.6429 1.15058 15.6129 1.15058 15.5849V15.5009C1.15058 15.4699 1.15058 15.4409 1.15058 15.4139C1.15058 15.3839 1.15058 15.3539 1.15058 15.3269C1.15058 15.2979 1.15058 15.2679 1.15058 15.2409C1.15058 15.2109 1.15058 15.1829 1.15058 15.1529V15.1109C1.15058 15.0829 1.15058 15.0539 1.15058 15.0239V14.9539C1.15058 14.9229 1.15058 14.8949 1.15058 14.8679V14.8229C1.15058 14.7949 1.15058 14.7649 1.15058 14.7369C1.15058 14.7069 1.15058 14.6799 1.15058 14.6499C1.15058 14.6219 1.15058 14.5929 1.15058 14.5629V14.5209C1.15058 14.4919 1.15058 14.4639 1.15058 14.4349V14.3899C1.15058 14.3619 1.15058 14.3339 1.15058 14.3069C1.15058 14.2759 1.15058 14.2479 1.15058 14.2209V14.1739C1.15058 14.1459 1.15058 14.1159 1.15058 14.0879C1.15058 14.0589 1.15058 14.0289 1.15058 14.0019C1.15058 13.9729 1.15058 13.9439 1.15058 13.9139V13.8269C1.15058 13.8009 1.15058 13.7709 1.15058 13.7409C1.15058 13.7119 1.15058 13.6839 1.15058 13.6549C1.15058 13.6279 1.15058 13.5979 1.15058 13.5679V13.5259C1.15058 13.4979 1.15058 13.4679 1.15058 13.4399C1.15058 13.4119 1.15058 13.3809 1.15058 13.3539C1.15058 13.3259 1.15058 13.2949 1.15058 13.2669C1.15058 13.2379 1.15058 13.2079 1.15058 13.1809C1.15058 13.1529 1.15058 13.1239 1.15058 13.0939C1.15058 13.0649 1.15058 13.0349 1.15058 13.0079C1.15058 12.9789 1.15058 12.9489 1.15058 12.9219V12.8789C1.15058 12.8499 1.15058 12.8219 1.15058 12.7939C1.15058 12.7629 1.15058 12.7339 1.15058 12.7069V12.6199C1.15058 12.5919 1.15058 12.5619 1.15058 12.5329C1.15058 12.5039 1.15058 12.4759 1.15058 12.4489C1.15058 12.4189 1.15058 12.3909 1.15058 12.3619V12.3139C1.15058 12.2859 1.15058 12.2569 1.15058 12.2269C1.15058 12.1979 1.15058 12.1699 1.15058 12.1419V12.0979C1.15058 12.0689 1.15058 12.0399 1.15058 12.0119V11.9679C1.15058 11.9399 1.15058 11.9109 1.15058 11.8819C1.15058 11.8529 1.15058 11.8249 1.15058 11.7949C1.15058 11.7659 1.15058 11.7379 1.15058 11.7099V11.6659C1.15058 11.6359 1.15058 11.6089 1.15058 11.5789V11.5369C1.15058 11.5079 1.15058 11.4779 1.15058 11.4499C1.15058 11.4189 1.15058 11.3919 1.15058 11.3639V11.3199C1.15058 11.2919 1.15058 11.2629 1.15058 11.2339C1.15058 11.2049 1.15058 11.1759 1.15058 11.1489C1.15058 11.1179 1.15058 11.0919 1.15058 11.0599V10.9769C1.15058 10.9479 1.15058 10.9169 1.15058 10.8889C1.15058 10.8609 1.15058 10.8319 1.15058 10.8029C1.15058 10.7749 1.15058 10.7459 1.15058 10.7179V10.6729C1.15058 10.6449 1.15058 10.6169 1.15058 10.5879C1.15058 10.5589 1.15058 10.5309 1.15058 10.5019C1.15058 10.4729 1.15058 10.4449 1.15058 10.4149C1.15058 10.3859 1.15058 10.3569 1.15058 10.3289C1.15058 10.3009 1.15058 10.2719 1.15058 10.2409C1.15058 10.2139 1.15058 10.1839 1.15058 10.1549V10.1079C1.15058 10.0799 1.15058 10.0499 1.15058 10.0229C1.15058 9.99488 1.15058 9.96388 1.15058 9.93588C1.15058 9.90788 1.15058 9.87988 1.15058 9.84788V9.76288C1.15058 9.73488 1.15058 9.70388 1.15058 9.67688C1.15058 9.64788 1.15058 9.61688 1.15058 9.59188C1.15058 9.56188 1.15058 9.53188 1.15058 9.50388V9.46188C1.15058 9.43288 1.15058 9.40188 1.15058 9.37588C1.15058 9.34688 1.15058 9.31588 1.15058 9.28688V9.24288C1.15058 9.21388 1.15058 9.18588 1.15058 9.15688V9.11388C1.15058 9.08588 1.15058 9.05488 1.15058 9.02688C1.15058 8.99888 1.15058 8.96888 1.15058 8.94288C1.15058 8.91388 1.15058 8.88188 1.15058 8.85388V8.81288C1.15058 8.78188 1.15058 8.75488 1.15058 8.72588V8.68188C1.15058 8.65288 1.15058 8.62188 1.15058 8.59588C1.15058 8.56588 1.15058 8.53788 1.15058 8.50988V8.46688C1.15058 8.43488 1.15058 8.40788 1.15058 8.37888C1.15058 8.35088 1.15058 8.32088 1.15058 8.29188C1.15058 8.26388 1.15058 8.23388 1.15058 8.20488V8.11888C1.15058 8.09088 1.15058 8.06188 1.15058 8.03388C1.15058 8.00488 1.15058 7.97488 1.15058 7.94688V7.90388C1.15058 7.87388 1.15058 7.84688 1.15058 7.81688C1.15058 7.78688 1.15058 7.75988 1.15058 7.73288C1.15058 7.70088 1.15058 7.67188 1.15058 7.64488V7.55688C1.15058 7.52988 1.15058 7.49988 1.15058 7.47088C1.15058 7.44188 1.15058 7.41388 1.15058 7.38488C1.15058 7.35488 1.15058 7.32788 1.15058 7.29788V7.25488C1.15058 7.22688 1.15058 7.19688 1.15058 7.16788C1.15058 7.13988 1.15058 7.10988 1.15058 7.08188C1.15058 7.05388 1.15058 7.02488 1.15058 6.99388V6.90988C1.15058 6.88088 1.15058 6.85188 1.15058 6.82288C1.15058 6.79388 1.15058 6.76588 1.15058 6.73688C1.15058 6.70688 1.15058 6.67688 1.15058 6.64988V6.60488C1.15058 6.57788 1.15058 6.54888 1.15058 6.51888C1.15058 6.49088 1.15058 6.46188 1.15058 6.43388V6.38988C1.15058 6.36088 1.15058 6.33288 1.15058 6.30388V6.25888C1.15058 6.23188 1.15058 6.20188 1.15058 6.17388C1.15058 6.14488 1.15058 6.11688 1.15058 6.08588C1.15058 6.05788 1.15058 6.02888 1.15058 5.99988V5.95988C1.15058 5.92888 1.15058 5.90088 1.15058 5.87288V5.82588C1.15058 5.79788 1.15058 5.77088 1.15058 5.74188V5.69888C1.15058 5.66988 1.15058 5.63888 1.15058 5.61088C1.15058 5.58088 1.15058 5.55488 1.15058 5.52488H1.19258L1.14258 5.48188C1.14258 5.45288 1.14258 5.42388 1.14258 5.39588V5.35188C1.16958 5.32388 1.18558 5.29388 1.18558 5.26588C1.21358 5.23788 1.24158 5.20788 1.27158 5.17688C1.30058 5.14988 1.33058 5.12088 1.35858 5.09188L1.44458 5.00688C1.44458 4.97688 1.45958 4.94888 1.48758 4.91988C1.51658 4.88988 1.53258 4.86088 1.53258 4.83388C1.56058 4.80388 1.57358 4.77488 1.57358 4.74788C1.60258 4.74788 1.63358 4.73188 1.65958 4.70488L1.70358 4.65788C1.76258 4.62988 1.80358 4.61688 1.83258 4.61688C1.91858 4.58788 1.97858 4.55788 2.00658 4.52988C2.06358 4.52988 2.13458 4.51688 2.22258 4.48788C2.25058 4.48788 2.26558 4.47088 2.26558 4.44288C2.32258 4.44288 2.36758 4.44288 2.39458 4.44288C2.48358 4.41388 2.55458 4.40088 2.61158 4.40088V4.35588H2.69758C2.75758 4.38688 2.81458 4.41388 2.87058 4.44388C2.90158 4.44388 2.91458 4.45788 2.91458 4.48888C2.91458 4.51788 2.93058 4.53088 2.95658 4.53088C2.95658 4.55988 2.95658 4.58888 2.95658 4.61788C3.73158 4.61788 4.51158 4.61788 5.29458 4.61788C5.27858 4.60288 5.26458 4.58788 5.25058 4.57288C5.25058 4.54388 5.23558 4.51688 5.20758 4.48788V4.44388C5.17958 4.41388 5.15058 4.38688 5.11958 4.35588V4.31388C5.11958 4.28488 5.11958 4.25688 5.11958 4.22888V4.00988C5.11958 3.98188 5.11958 3.95288 5.11958 3.92488V3.83788C5.14958 3.80988 5.17958 3.79488 5.20658 3.79488V3.74988C5.23558 3.72288 5.25058 3.69388 5.25058 3.66688C5.27858 3.63688 5.29558 3.60688 5.29558 3.57988C5.32158 3.54988 5.33658 3.52088 5.33658 3.49288C5.36558 3.49288 5.37958 3.47688 5.37958 3.44788C5.37958 3.42188 5.39458 3.39088 5.42258 3.36188C5.45058 3.36188 5.48058 3.34688 5.50958 3.31988C5.53758 3.31988 5.58158 3.30488 5.63858 3.27488C5.66758 3.27488 5.69758 3.26088 5.72558 3.23188V3.19088C5.72558 3.16188 5.72558 3.13188 5.72558 3.10288C5.72558 3.07488 5.72558 3.04488 5.72558 3.01488V2.97388C5.72558 2.94488 5.72558 2.91388 5.72558 2.88788V2.84288C5.75358 2.81388 5.76858 2.78588 5.76858 2.75588C5.82558 2.72788 5.86858 2.69888 5.89658 2.67188C5.92558 2.64288 5.96958 2.61188 6.02558 2.58288L6.07158 2.54088C6.09758 2.54088 6.14258 2.54088 6.19858 2.54088C6.31458 2.54088 6.44358 2.54088 6.58858 2.54088C6.61758 2.54088 6.66058 2.55488 6.71858 2.58288C6.74658 2.61188 6.77558 2.62788 6.80458 2.62788C6.86258 2.65688 6.91958 2.68688 6.97758 2.71488C6.97758 2.74288 6.99158 2.77288 7.01958 2.79988C7.05058 2.82888 7.09358 2.84288 7.14958 2.84288C7.20658 2.84288 7.25258 2.84288 7.27858 2.84288V2.88688C7.36558 2.85888 7.43858 2.84288 7.49558 2.84288C7.52558 2.84288 7.55458 2.82888 7.58358 2.79988C7.60958 2.79988 7.63958 2.78588 7.66858 2.75688C7.69658 2.75688 7.74058 2.74388 7.79658 2.71488C7.82558 2.71488 7.87058 2.71488 7.92658 2.71488C7.92658 2.74288 7.95758 2.77288 8.01258 2.79988C8.01258 2.77288 8.02758 2.74288 8.05758 2.71488C8.05758 2.68688 8.05758 2.65688 8.05758 2.62788C8.08658 2.62788 8.11458 2.61188 8.14258 2.58288L8.18558 2.54088C8.21558 2.51288 8.24458 2.48288 8.27358 2.45488C8.30758 2.42688 8.32158 2.39588 8.32158 2.36788C8.34958 2.33988 8.37858 2.31088 8.40658 2.28188L8.44958 2.23988C8.44958 2.20988 8.44958 2.17988 8.44958 2.15288C8.44958 2.12388 8.44958 2.09588 8.44958 2.06688C8.47858 2.06688 8.50658 2.05088 8.53758 2.02288C8.53758 1.99488 8.53758 1.96588 8.53758 1.93688C8.56558 1.90888 8.59358 1.89388 8.62158 1.89388C8.65158 1.86388 8.68158 1.84788 8.71058 1.84788C8.71058 1.82088 8.72458 1.80588 8.75458 1.80588C8.81158 1.77588 8.85558 1.76088 8.88158 1.76088C8.94058 1.73388 8.99758 1.71888 9.05658 1.71888V1.67788H9.09958C9.12858 1.67788 9.14258 1.65988 9.14258 1.63288C9.17058 1.63288 9.18458 1.61788 9.18458 1.59088C9.21558 1.59088 9.25758 1.59088 9.31658 1.59088C9.37358 1.59088 9.42958 1.59088 9.48858 1.59088C19.6066 1.59088 29.7266 1.59088 39.8456 1.59088H39.8886C39.8886 1.55988 39.9026 1.54588 39.9326 1.54588C39.9616 1.54588 39.9896 1.54588 40.0176 1.54588V1.50488C40.0486 1.50488 40.0786 1.50488 40.1066 1.50488C40.1646 1.53288 40.2216 1.56088 40.2796 1.59088C40.3366 1.59088 40.3956 1.60388 40.4506 1.63288C40.4796 1.65988 40.5106 1.67788 40.5386 1.67788C40.5956 1.70588 40.6376 1.73388 40.6656 1.76088C40.6956 1.79088 40.7396 1.82088 40.7966 1.84688L40.8416 1.89188C40.8706 1.92188 40.8996 1.94788 40.9276 1.97788C40.9576 2.00688 40.9836 2.03788 41.0146 2.06488C41.0146 2.09388 41.0146 2.12188 41.0146 2.15088C41.0436 2.17888 41.0576 2.20888 41.0576 2.23788C41.1156 2.26488 41.1586 2.29388 41.1876 2.32388C41.2156 2.35288 41.2306 2.38088 41.2306 2.40988C41.2596 2.43788 41.2886 2.46688 41.3166 2.49588C41.3166 2.52388 41.3456 2.53888 41.4036 2.53888C41.4036 2.56688 41.4156 2.58088 41.4456 2.58088V2.62588C41.5046 2.62588 41.5466 2.62588 41.5766 2.62588C41.6056 2.65488 41.6326 2.66988 41.6636 2.66988C41.6916 2.66988 41.7066 2.68488 41.7066 2.71288C41.9086 2.71288 42.1236 2.71288 42.3556 2.71288C42.3556 2.68488 42.3696 2.66988 42.3986 2.66988C42.4266 2.66988 42.4706 2.65488 42.5266 2.62588C42.5556 2.62588 42.6156 2.62588 42.7006 2.62588C42.7286 2.65488 42.7716 2.66988 42.8296 2.66988C42.8586 2.66988 42.8726 2.68488 42.8726 2.71288C42.9026 2.71288 42.9316 2.71288 42.9596 2.71288C43.0176 2.74088 43.0756 2.77088 43.1336 2.79788L43.1756 2.84088C43.2336 2.84088 43.2766 2.85688 43.3056 2.88488H43.3476C43.4056 2.91088 43.4636 2.94188 43.5216 2.97088V3.01188C43.5786 3.04188 43.6356 3.07188 43.6936 3.09988C43.6936 3.12888 43.7086 3.15888 43.7376 3.18788C43.7666 3.18788 43.7956 3.18788 43.8236 3.18788C43.8236 3.21588 43.8236 3.24488 43.8236 3.27288C43.8236 3.30288 43.8236 3.33188 43.8236 3.35888C43.8236 3.38788 43.8236 3.41888 43.8236 3.44488V3.48988C43.8236 3.54688 43.8236 3.59088 43.8236 3.61788C43.8516 3.67588 43.8946 3.73388 43.9516 3.79088L43.9966 3.87788C43.9966 3.93588 44.0086 3.99388 44.0376 4.05088C44.0376 4.07988 44.0376 4.12388 44.0376 4.17988C44.0376 4.23888 44.0376 4.29688 44.0376 4.35188C44.0116 4.38688 43.9996 4.41388 43.9996 4.44388C44.0546 4.44388 44.0986 4.44388 44.1276 4.44388C44.1566 4.44388 44.2006 4.45788 44.2576 4.48888C44.2576 4.51788 44.2736 4.53088 44.3016 4.53088C44.3296 4.55988 44.3586 4.58888 44.3876 4.61788C44.4176 4.64588 44.4296 4.67588 44.4296 4.70488C44.4296 4.73288 44.4446 4.74788 44.4726 4.74788V4.78888C44.4726 4.81888 44.4726 4.84788 44.4726 4.87588C44.4726 4.90488 44.4596 4.93488 44.4296 4.96188C44.4296 4.99188 44.4296 5.02088 44.4296 5.04988L44.3876 5.09188C44.3876 5.12088 44.3876 5.15088 44.3876 5.17688C44.3876 5.20788 44.3876 5.23688 44.3876 5.26588V5.30788C44.3876 5.33788 44.3876 5.36488 44.3876 5.39488C44.3876 5.42288 44.4026 5.46588 44.4296 5.52288C44.4296 5.57888 44.4596 5.63788 44.5176 5.69688L44.5606 5.78188C44.5606 5.83988 44.5746 5.89788 44.6036 5.95688C44.6036 5.98388 44.6036 6.02588 44.6036 6.08288C44.6036 6.14188 44.6036 6.19988 44.6036 6.25588L44.5606 6.29988H44.6036C44.6616 6.32888 44.7186 6.35688 44.7766 6.38588C44.7766 6.41488 44.7916 6.42888 44.8206 6.42888C44.8766 6.46188 44.9346 6.49088 44.9916 6.51888ZM24.3216 11.7529C24.2916 11.7239 24.2786 11.6959 24.2786 11.6659C24.2486 11.6659 24.2196 11.6509 24.1906 11.6229C24.1636 11.5939 24.1486 11.5649 24.1486 11.5379C24.1486 11.5089 24.1486 11.4789 24.1486 11.4509C24.1186 11.4219 24.1056 11.3929 24.1056 11.3649C24.1056 11.3929 24.0906 11.4219 24.0616 11.4509C24.0616 11.4789 24.0616 11.5089 24.0616 11.5379C24.0616 11.5649 24.0616 11.5949 24.0616 11.6229V11.6659C24.0616 11.6959 24.0616 11.7239 24.0616 11.7529C24.0616 11.7819 24.0776 11.8099 24.1056 11.8389C24.1056 11.8689 24.1056 11.8969 24.1056 11.9249C24.1056 11.9519 24.1186 11.9669 24.1486 11.9669V12.0109C24.1486 12.0389 24.1486 12.0689 24.1486 12.0969C24.1486 12.1239 24.1486 12.1549 24.1486 12.1829C24.1486 12.2109 24.1486 12.2419 24.1486 12.2709V12.3129C24.1786 12.3419 24.2056 12.3719 24.2336 12.3999V12.4439C24.4356 12.4439 24.6516 12.4439 24.8846 12.4439C24.8526 12.4429 24.8246 12.4279 24.7976 12.3999C24.7676 12.3719 24.7386 12.3419 24.7096 12.3129C24.6816 12.3129 24.6666 12.2979 24.6666 12.2709C24.6376 12.2409 24.6116 12.2099 24.5816 12.1829C24.5516 12.1559 24.5386 12.1239 24.5386 12.0969C24.5386 12.0679 24.5386 12.0389 24.5386 12.0109C24.5076 12.0109 24.4966 11.9949 24.4966 11.9669C24.4656 11.9669 24.4386 11.9519 24.4076 11.9249C24.3806 11.8959 24.3516 11.8679 24.3226 11.8389C24.3216 11.8099 24.3216 11.7819 24.3216 11.7529ZM1.70458 7.25488C1.70458 7.28388 1.70458 7.31388 1.70458 7.33988C1.70458 7.36988 1.70458 7.39988 1.70458 7.42588C1.70458 7.45688 1.70458 7.48688 1.70458 7.51388C1.70458 7.54488 1.70458 7.57088 1.70458 7.59888V7.64388C1.70458 7.67088 1.70458 7.69988 1.70458 7.73188V7.77288C1.70458 7.80188 1.70458 7.83188 1.70458 7.85888V7.90388C1.70458 7.93288 1.70458 7.95988 1.70458 7.98888C1.70458 8.01988 1.70458 8.04688 1.70458 8.07388C1.70458 8.10388 1.70458 8.13388 1.70458 8.16288V8.20488C1.70458 8.23388 1.70458 8.26388 1.70458 8.29188V8.33488C1.70458 8.36488 1.70458 8.39088 1.70458 8.42088C1.70458 8.45088 1.70458 8.47888 1.70458 8.50888V8.59488C1.73258 8.56488 1.74758 8.53688 1.74758 8.50888C1.74758 8.47888 1.74758 8.43488 1.74758 8.37888C1.74758 8.32088 1.74758 8.26388 1.74758 8.20488C1.74758 8.17388 1.74758 8.13388 1.74758 8.07388C1.74758 8.01888 1.74758 7.97488 1.74758 7.94688C1.74758 7.91788 1.74758 7.87288 1.74758 7.81688C1.74758 7.75988 1.74758 7.69988 1.74758 7.64388C1.74758 7.61388 1.74758 7.57088 1.74758 7.51388C1.74758 7.45588 1.74758 7.41288 1.74758 7.38488C1.74758 7.32788 1.74758 7.28288 1.74758 7.25488C1.74758 7.19688 1.74758 7.13988 1.74758 7.08188C1.74758 7.02488 1.74758 6.98088 1.74758 6.95388C1.74758 6.89388 1.74758 6.85188 1.74758 6.82288C1.74758 6.79388 1.73258 6.76488 1.70458 6.73688V6.77888C1.70458 6.80788 1.70458 6.83788 1.70458 6.86488C1.70458 6.89388 1.70458 6.92388 1.70458 6.95288V6.99288C1.70458 7.02488 1.70458 7.05288 1.70458 7.08088C1.70458 7.10888 1.70458 7.13888 1.70458 7.16688V7.25488Z" fill="#9FB1C9"/>
</g>
<defs>
<clipPath id="clip0_28409_24685">
<rect width="49.125" height="32" fill="white" transform="translate(0.841797 0.133789)"/>
</clipPath>
</defs>
</svg>
