<svg width="74" height="33" viewBox="0 0 74 33" fill="none" xmlns="http://www.w3.org/2000/svg">
<g clip-path="url(#clip0_28409_24671)">
<path fill-rule="evenodd" clip-rule="evenodd" d="M32.0921 2.22764C32.1201 2.19964 32.1611 2.17164 32.2171 2.14464C32.2171 2.11564 32.2171 2.08864 32.2171 2.06064V1.97464C32.2171 1.94664 32.2171 1.91864 32.2171 1.89164V1.80664C32.3861 1.83564 32.5541 1.84864 32.7221 1.84864C32.7221 1.87664 32.7221 1.90364 32.7221 1.93164C32.8891 1.93164 33.0571 1.94664 33.2241 1.97364V2.05764C33.2531 2.05764 33.2951 2.07164 33.3521 2.09864C33.3521 2.12764 33.3521 2.15564 33.3521 2.18264C33.4081 2.18264 33.4511 2.19764 33.4781 2.22564C33.4781 2.25264 33.4781 2.29364 33.4781 2.35264C33.5061 2.35264 33.5341 2.38064 33.5611 2.43564C33.5891 2.46364 33.6171 2.49164 33.6441 2.51764C33.7011 2.54564 33.7421 2.57664 33.7711 2.60364C33.8261 2.63164 33.8691 2.67264 33.8961 2.72864L33.9381 2.77064C34.0511 2.79764 34.1631 2.82864 34.2741 2.85464V2.93764C34.3021 2.96564 34.3441 2.97964 34.4001 2.97964C34.4001 3.00764 34.4001 3.03464 34.4001 3.06364C44.7631 3.06364 55.1401 3.06364 65.5311 3.06364C65.5871 3.09164 65.6561 3.11864 65.7411 3.14664C65.7671 3.17464 65.7981 3.20364 65.8231 3.22964C65.8521 3.25864 65.8951 3.28664 65.9501 3.31464L65.9921 3.39864C66.0201 3.42664 66.0341 3.46764 66.0341 3.52464C66.0601 3.55364 66.0761 3.58164 66.0761 3.60864V3.65064H66.1191C66.1451 3.70664 66.1741 3.74664 66.2021 3.77464C66.2291 3.80264 66.3701 4.29564 66.6221 5.24664C66.9011 6.22664 67.1541 6.71664 67.3781 6.71664H68.6811L68.9311 6.63364H69.1841V6.59564H70.4021L70.6951 6.63764L70.9481 6.72064H72.7531L72.9231 6.80464L73.0061 6.93064L73.4681 6.97264L73.4261 11.0046L73.3831 11.0876L73.3411 11.2166L73.1741 11.3836H73.0061L72.8001 11.3416V11.3856H69.1021L70.7411 15.0806C70.7411 15.1366 70.7411 15.1796 70.7411 15.2076C70.7411 15.2366 70.7411 15.2646 70.7411 15.2916C70.7411 15.3186 70.7551 15.3596 70.7841 15.4166V15.4586C70.7841 15.5146 70.7841 15.5556 70.7841 15.5846C70.7841 15.6136 70.7841 15.6396 70.7841 15.6696C70.7841 15.6976 70.7841 15.7376 70.7841 15.7936V16.5916C70.7841 16.6196 70.2231 16.6346 69.1021 16.6346C69.0481 16.6066 68.5021 15.6136 67.4641 13.6516C67.0181 13.6806 66.5681 13.7086 66.1221 13.7356C66.0371 13.7356 65.9661 13.7486 65.9111 13.7766C65.8251 13.7766 65.7571 13.7766 65.7021 13.7766H65.6181C65.6181 13.8046 65.6051 13.8316 65.5761 13.8606C65.5761 13.9196 65.5611 13.9446 65.5341 13.9446C65.5341 14.0006 65.5341 14.0436 65.5341 14.0696C65.5341 14.1006 65.5341 14.1296 65.5341 14.1566C65.5341 14.1836 65.5201 14.2126 65.4901 14.2396C65.4901 14.2956 65.4771 14.3376 65.4491 14.3636C65.4491 14.3916 65.4491 14.4226 65.4491 14.4496C65.4491 14.4766 65.4491 14.5186 65.4491 14.5746V14.6156C65.4491 14.6736 65.4491 14.7146 65.4491 14.7436C65.4491 14.7696 65.4491 14.7996 65.4491 14.8266C65.4491 14.8556 65.4491 14.8976 65.4491 14.9526C65.4491 14.9806 65.4491 15.0086 65.4491 15.0356C65.4491 15.0626 65.4491 15.0916 65.4491 15.1216V15.2046C65.4491 15.2336 65.4491 15.2746 65.4491 15.3296C65.4491 15.3566 65.4491 15.3856 65.4491 15.4136C65.4491 15.4416 65.4491 15.4706 65.4491 15.4976C65.4491 15.5516 65.4491 15.5936 65.4491 15.6226V15.7066C65.4491 15.7346 65.4491 15.7776 65.4491 15.8316V15.8736C65.4491 15.9306 65.4491 15.9726 65.4491 16.0006C65.4491 16.0286 65.4491 16.0566 65.4491 16.0836C65.4491 16.1106 65.4491 16.1556 65.4491 16.2116V16.2526C65.4491 16.3086 65.4491 16.3506 65.4491 16.3776C65.4491 16.4066 65.4491 16.4346 65.4491 16.4616C65.4491 16.4886 65.4491 16.5316 65.4491 16.5866V16.6296C65.4491 16.6856 65.4491 16.7266 65.4491 16.7556V16.7976C65.4491 16.8256 65.4491 16.8666 65.4491 16.9226C65.4491 16.9506 65.4491 16.9786 65.4491 17.0056C65.4771 17.0346 65.5051 17.0626 65.5331 17.0896C65.5331 17.1476 65.5331 17.1876 65.5331 17.2156V17.2986C65.5331 17.3276 65.5331 17.3686 65.5331 17.4256V17.4676C65.5331 17.5236 65.5331 17.5646 65.5331 17.5926C65.5331 17.6216 65.5331 17.6486 65.5331 17.6766C65.5331 17.7046 65.5331 17.7476 65.5331 17.8036V17.8446C65.5331 17.9026 65.5331 17.9446 65.5331 17.9706V18.0536C65.5331 18.0816 65.5331 18.1236 65.5331 18.1806C65.5611 18.2096 65.5751 18.2356 65.5751 18.2646C65.6041 18.2906 65.6301 18.3196 65.6581 18.3476C65.6581 18.4066 65.6731 18.4466 65.7021 18.4746V18.5576C65.7021 18.5866 65.7021 18.6146 65.7021 18.6416C65.7021 18.6706 65.7021 18.6986 65.7021 18.7256C65.7021 18.7806 65.7021 18.8236 65.7021 18.8506V18.9346C65.7021 18.9626 65.7021 19.0046 65.7021 19.0606V19.1016C65.7021 19.1576 65.7021 19.2016 65.7021 19.2286C65.7021 19.2556 65.7021 19.2846 65.7021 19.3126C65.7021 19.3406 65.7021 19.3806 65.7021 19.4376C65.7021 19.4666 65.7141 19.4786 65.7441 19.4786C65.7441 19.5356 65.7581 19.5786 65.7851 19.6056C65.7851 19.6346 65.8011 19.6616 65.8261 19.6906C65.8261 19.7176 65.8261 19.7586 65.8261 19.8146C65.8261 19.8426 65.8261 19.8706 65.8261 19.8986C65.8261 19.9266 65.8421 19.9556 65.8701 19.9826C65.8701 20.0386 65.8831 20.0806 65.9121 20.1076V20.1936C65.9121 20.2206 65.9121 20.2486 65.9121 20.2766C65.9401 20.3046 65.9531 20.3326 65.9531 20.3596C65.9811 20.4156 65.9951 20.4586 65.9951 20.4856C66.0231 20.5136 66.0371 20.5436 66.0371 20.5696C66.0631 20.5966 66.0791 20.6256 66.0791 20.6526V20.7366C66.1081 20.7926 66.1361 20.8326 66.1631 20.8616C66.1631 20.8896 66.1771 20.9206 66.2051 20.9476C66.2051 20.9756 66.2051 21.0166 66.2051 21.0726C66.2051 21.1006 66.2051 21.1276 66.2051 21.1566C66.2051 21.1856 66.2171 21.2146 66.2471 21.2406C66.2471 21.2676 66.2471 21.3106 66.2471 21.3656C66.2751 21.3656 66.2881 21.3936 66.2881 21.4496C66.3171 21.4776 66.3321 21.5056 66.3321 21.5336C66.3611 21.5616 66.3741 21.5896 66.3741 21.6166C66.4021 21.6726 66.4151 21.7156 66.4151 21.7436C66.4431 21.7436 66.4571 21.7716 66.4571 21.8266C66.4571 21.8546 66.4571 21.8816 66.4571 21.9106C66.4851 21.9366 66.5141 21.9676 66.5411 21.9956C66.5411 22.0516 66.5561 22.0916 66.5821 22.1196C66.5821 22.1476 66.5821 22.1756 66.5821 22.2046C66.5821 22.2326 66.5821 22.2596 66.5821 22.2876V22.3696C66.5821 22.4266 66.5821 22.4706 66.5821 22.4976C66.6101 22.5256 66.6391 22.5536 66.6671 22.5806C66.6671 22.6086 66.6671 22.6496 66.6671 22.7066C66.6671 22.7346 66.6671 22.7626 66.6671 22.7896C66.6671 22.8186 66.6671 22.8466 66.6671 22.8736C66.6951 22.9016 66.7231 22.9446 66.7501 22.9996C66.7781 22.9996 66.7921 23.0296 66.7921 23.0836C66.8201 23.1116 66.8341 23.1396 66.8341 23.1666C66.8341 23.1956 66.8341 23.2236 66.8341 23.2506C66.8341 23.2776 66.8341 23.3206 66.8341 23.3756C66.8621 23.4036 66.8771 23.4316 66.8771 23.4596C66.8771 23.4876 66.8911 23.5156 66.9191 23.5436C66.9481 23.5996 66.9761 23.6266 67.0021 23.6266C67.0021 23.6826 67.0021 23.7266 67.0021 23.7536C67.0021 23.7806 67.0021 23.8106 67.0021 23.8376C67.0021 23.8646 67.0021 23.8926 67.0021 23.9206C67.0321 23.9776 67.0601 24.0206 67.0871 24.0476C67.0871 24.0756 67.0871 24.1036 67.0871 24.1306C67.0871 24.1586 67.0871 24.2016 67.0871 24.2576V24.2996C67.0871 24.3556 67.1011 24.3976 67.1301 24.4256C67.1581 24.4546 67.1861 24.4826 67.2131 24.5096C67.2131 24.5376 67.2131 24.5786 67.2131 24.6346V24.7196C67.2131 24.7466 67.2131 24.7756 67.2131 24.8026C67.2411 24.8306 67.2551 24.8566 67.2551 24.8856C67.2831 24.9126 67.3111 24.9546 67.3381 25.0126C67.3381 25.0406 67.3521 25.0676 67.3801 25.0956C67.3801 25.1246 67.3801 25.1526 67.3801 25.1796V25.2636C67.3801 25.2916 67.3931 25.3316 67.4211 25.3896C67.4211 25.4166 67.4361 25.4446 67.4631 25.4736C67.4631 25.5006 67.4631 25.5296 67.4631 25.5566C67.4631 25.6126 67.4631 25.6536 67.4631 25.6816C67.4631 25.7106 67.4631 25.7386 67.4631 25.7676C67.4631 25.7946 67.4631 25.8356 67.4631 25.8916L67.5061 25.9346C67.5331 25.9916 67.5611 26.0336 67.5891 26.0606C67.6171 26.0876 67.6311 26.1166 67.6311 26.1446C67.6311 26.1726 67.6311 26.2146 67.6311 26.2706V26.3126C67.6311 26.3686 67.6311 26.4096 67.6311 26.4376V26.5246C67.6311 26.5516 67.6311 26.5926 67.6311 26.6466C67.6311 26.6756 67.6311 26.7036 67.6311 26.7336C67.6311 26.7596 67.6311 26.7896 67.6311 26.8156C67.6311 26.8716 67.6311 26.9136 67.6311 26.9426V27.0266C67.6311 27.0546 67.6311 27.0816 67.6311 27.1096C67.6311 27.1376 67.6311 27.1656 67.6311 27.1926C67.6311 27.2486 67.6311 27.2926 67.6311 27.3206V27.4026C67.6311 27.4336 67.6311 27.4746 67.6311 27.5316V27.5716C67.6311 27.6286 67.6311 27.6706 67.6311 27.6986C67.6311 27.7276 67.6311 27.7556 67.6311 27.7826C67.6311 27.8096 67.6311 27.8516 67.6311 27.9076V27.9486C67.6311 28.0076 67.6311 28.0486 67.6311 28.0766V28.1596C67.6311 28.1876 67.6311 28.2306 67.6311 28.2856C67.6311 28.3146 67.6311 28.3416 67.6311 28.3686C67.6311 28.3956 67.6311 28.4256 67.6311 28.4526C67.6311 28.5096 67.6161 28.5496 67.5891 28.5786V28.6206C67.6171 28.6476 67.6311 28.6906 67.6311 28.7466V28.7886C67.6031 28.8456 67.5741 28.8866 67.5471 28.9136C67.5471 28.9696 67.5331 28.9986 67.5061 28.9986C67.4771 29.0266 67.4631 29.0546 67.4631 29.0816C67.4361 29.0816 67.4211 29.0956 67.4211 29.1226C67.3101 29.1506 67.2251 29.1796 67.1711 29.2066C67.0861 29.2066 67.0171 29.2226 66.9611 29.2486C66.9041 29.2766 66.8611 29.3046 66.8341 29.3326C66.8061 29.3606 66.7511 29.3746 66.6671 29.3746C66.6101 29.4036 66.5411 29.4166 66.4571 29.4166C66.4291 29.4446 66.4011 29.4716 66.3741 29.5006C66.3171 29.5006 66.2631 29.5156 66.2061 29.5406C66.0641 29.5406 65.9251 29.5566 65.7851 29.5836C65.7581 29.5836 65.7281 29.5836 65.7021 29.5836C65.6451 29.6116 65.5891 29.6266 65.5331 29.6266C65.3371 29.6266 65.1551 29.6396 64.9861 29.6676C64.9301 29.6956 64.8611 29.7236 64.7771 29.7516C64.3001 29.7796 63.8241 29.7936 63.3491 29.7936C63.3201 29.8216 63.2921 29.8496 63.2651 29.8776C63.2091 29.8776 63.1541 29.8926 63.0971 29.9196C62.8171 29.9486 62.5371 29.9776 62.2571 30.0046C62.2291 30.0046 62.2001 30.0176 62.1731 30.0456C62.0901 30.0736 62.0191 30.1016 61.9641 30.1286C61.8801 30.1006 61.8101 30.0726 61.7541 30.0456C61.6981 30.0186 61.6561 30.0046 61.6281 30.0046H61.5861C61.5021 30.0046 61.4311 29.9896 61.3751 29.9616C61.2921 29.9046 61.2361 29.8636 61.2061 29.8366C61.1801 29.8066 61.1391 29.7786 61.0821 29.7516C61.0541 29.7226 61.0241 29.6816 60.9981 29.6266V29.5836C60.9701 29.5276 60.9561 29.4866 60.9561 29.4576C60.9561 29.4296 60.9561 29.4016 60.9561 29.3736C60.9281 29.3456 60.9151 29.3036 60.9151 29.2476C60.8851 29.2216 60.8591 29.2056 60.8291 29.2056C60.8291 29.1486 60.8291 29.1086 60.8291 29.0806V28.9976C60.8011 28.9676 60.7731 28.9256 60.7461 28.8696C60.7171 28.8436 60.6881 28.8156 60.6621 28.7866C60.6621 28.7566 60.6481 28.7306 60.6201 28.7006C60.6201 28.6446 60.6201 28.6036 60.6201 28.5756L60.5761 28.4926C60.5761 28.4646 60.5761 28.4216 60.5761 28.3646V28.3216C60.5491 28.2666 60.5201 28.2256 60.4931 28.1966C60.4651 28.1686 60.4391 28.1406 60.4101 28.1136C60.4101 28.0866 60.4101 28.0436 60.4101 27.9886V27.9446C60.4101 27.8886 60.3951 27.8476 60.3691 27.8196C60.3391 27.7636 60.3111 27.7366 60.2841 27.7366C60.2841 27.7086 60.2711 27.6656 60.2431 27.6086C60.2431 27.5806 60.2431 27.5526 60.2431 27.5256C60.2431 27.4966 60.2431 27.4686 60.2431 27.4406C60.2431 27.3846 60.2281 27.3416 60.2011 27.3156V27.2326C60.2011 27.2046 60.2011 27.1756 60.2011 27.1476C60.2011 27.1196 60.2011 27.0916 60.2011 27.0646C60.2011 27.0086 60.2011 26.9666 60.2011 26.9386V26.8546C60.1731 26.8266 60.1451 26.7856 60.1181 26.7296C60.0891 26.7296 60.0601 26.7146 60.0331 26.6866C60.0001 26.6636 59.9861 26.6216 59.9861 26.5936C59.9581 26.5656 59.9291 26.5376 59.9021 26.5106C59.9021 26.4806 59.8891 26.4386 59.8601 26.3826V26.3416C59.8601 26.2856 59.8601 26.2446 59.8601 26.2156V26.1316C59.8601 26.1036 59.8601 26.0626 59.8601 26.0076C59.8601 25.9796 59.8471 25.9486 59.8191 25.9206C59.8191 25.8936 59.8051 25.8646 59.7771 25.8386C59.7771 25.7826 59.7771 25.7396 59.7771 25.7106V25.6276C59.7771 25.5996 59.7771 25.5716 59.7771 25.5436C59.7771 25.5166 59.7771 25.4886 59.7771 25.4596C59.7771 25.4046 59.7771 25.3606 59.7771 25.3336C59.7481 25.3056 59.7201 25.2776 59.6911 25.2516C59.6631 25.2206 59.6501 25.1806 59.6501 25.1236V25.0806C59.6501 25.0266 59.6501 24.9826 59.6501 24.9556C59.6501 24.9266 59.6501 24.8986 59.6501 24.8716C59.6501 24.8446 59.6501 24.8026 59.6501 24.7466C59.6501 24.7186 59.6501 24.6896 59.6501 24.6616C59.6501 24.6346 59.6501 24.6046 59.6501 24.5776C59.6501 24.5506 59.6501 24.5086 59.6501 24.4526V24.3696C59.6221 24.3416 59.6091 24.3126 59.6091 24.2856C59.5791 24.2586 59.5671 24.2296 59.5671 24.2006C59.5671 24.1446 59.5521 24.1036 59.5241 24.0756V23.9916C59.5241 23.9626 59.5241 23.9346 59.5241 23.9076C59.5241 23.8806 59.5241 23.8516 59.5241 23.8246C59.5241 23.7676 59.5241 23.7276 59.5241 23.6986C59.5241 23.6706 59.5241 23.6426 59.5241 23.6156C59.5241 23.5886 59.5241 23.5596 59.5241 23.5316V23.4466C59.5241 23.3906 59.5241 23.3496 59.5241 23.3216C59.5241 23.2936 59.5241 23.2656 59.5241 23.2376C59.5241 23.2076 59.5241 23.1666 59.5241 23.1116C59.5241 23.0846 59.5241 23.0566 59.5241 23.0276C59.5241 23.0006 59.5241 22.9726 59.5241 22.9436C59.5241 22.9166 59.5241 22.8746 59.5241 22.8176V22.7346C59.5241 22.7056 59.5111 22.6776 59.4831 22.6506C59.4531 22.6226 59.4251 22.5946 59.3991 22.5676C59.3701 22.5396 59.3561 22.4976 59.3561 22.4396C59.3561 22.4126 59.3561 22.3836 59.3561 22.3566C59.3561 22.3286 59.3561 22.2996 59.3561 22.2726V22.1876C59.3561 22.1336 59.3561 22.0906 59.3561 22.0626C59.3561 22.0346 59.3561 22.0056 59.3561 21.9786C59.3561 21.9506 59.3561 21.9226 59.3561 21.8946C59.3561 21.8386 59.3561 21.7966 59.3561 21.7696C59.3561 21.7426 59.3561 21.7136 59.3561 21.6856C59.3561 21.6576 59.3561 21.6166 59.3561 21.5606V21.5176C59.3561 21.4596 59.3561 21.4196 59.3561 21.3916C59.3561 21.3636 59.3561 21.3356 59.3561 21.3076C59.3561 21.2806 59.3561 21.2396 59.3561 21.1826V21.0986C59.3561 21.0706 59.3561 21.0426 59.3561 21.0156C59.3561 20.9886 59.3561 20.9596 59.3561 20.9316C59.3291 20.9036 59.3001 20.8596 59.2731 20.8046C59.2731 20.7786 59.2731 20.7506 59.2731 20.7216C59.2731 20.6946 59.2731 20.6646 59.2731 20.6376V20.5546C59.2731 20.5266 59.2731 20.4856 59.2731 20.4266C59.2731 20.3986 59.2731 20.3706 59.2731 20.3436C59.2731 20.3166 59.2731 20.2886 59.2731 20.2606C59.2731 20.2046 59.2731 20.1606 59.2731 20.1336C59.2731 20.1056 59.2731 20.0766 59.2731 20.0496C59.2731 20.0226 59.2731 19.9806 59.2731 19.9246V19.8816C59.2731 19.8276 59.2731 19.7846 59.2731 19.7586C59.2731 19.7286 59.2731 19.7016 59.2731 19.6716C59.2731 19.6446 59.2731 19.6036 59.2731 19.5466V19.5036C59.2731 19.4466 59.2731 19.4056 59.2731 19.3786V19.2936C59.2731 19.2656 59.2731 19.2256 59.2731 19.1686C59.2731 19.1406 59.2731 19.1126 59.2731 19.0856C59.2731 19.0566 59.2731 19.0286 59.2731 19.0016C59.2451 18.9456 59.2311 18.9036 59.2311 18.8756C59.2031 18.8756 59.1741 18.8476 59.1471 18.7926C59.1471 18.7646 59.1471 18.7366 59.1471 18.7096C59.1471 18.6826 59.1471 18.6516 59.1471 18.6256C59.1471 18.5676 59.1471 18.5266 59.1471 18.4996V18.4156C59.1471 18.3876 59.1471 18.3456 59.1471 18.2906V18.2486C59.1471 18.1916 59.1471 18.1496 59.1471 18.1216C59.1471 18.0936 59.1471 18.0656 59.1471 18.0386C59.1471 18.0116 59.1471 17.9696 59.1471 17.9116V17.8696C59.1471 17.8146 59.1471 17.7726 59.1471 17.7446V17.6606C59.1471 17.6326 59.1471 17.5896 59.1471 17.5356C59.1471 17.5066 59.1471 17.4786 59.1471 17.4516C59.1471 17.4226 59.1471 17.3946 59.1471 17.3676C59.1471 17.3116 59.1471 17.2686 59.1471 17.2416V17.1576C59.1471 17.1296 59.1471 17.0886 59.1471 17.0316V16.9736C59.1471 16.9176 59.1341 16.8746 59.1061 16.8466C59.0781 16.8186 59.0341 16.8056 58.9791 16.8056C58.9791 16.7766 58.9661 16.7346 58.9371 16.6786V16.6366C58.9371 16.5796 58.9371 16.5386 58.9371 16.5096V16.3846C58.8811 16.3566 58.8401 16.3146 58.8121 16.2596C58.7831 16.2316 58.7541 16.2186 58.7271 16.2186C58.7271 16.1616 58.7271 16.1176 58.7271 16.0906C58.7271 16.0636 58.7271 16.0346 58.7271 16.0076C58.7271 15.9806 58.7271 15.9376 58.7271 15.8806C58.7271 15.8526 58.7141 15.8386 58.6861 15.8386C58.6581 15.8106 58.6301 15.7836 58.6011 15.7556L58.5181 15.7126C58.4071 15.6846 58.3231 15.6546 58.2661 15.6286C58.2401 15.6286 58.1981 15.5996 58.1421 15.5446V15.5036C58.1131 15.4756 58.0851 15.4606 58.0581 15.4606C57.9731 15.4606 57.8891 15.4466 57.8061 15.4186H57.7231C57.6951 15.4186 57.6531 15.4186 57.5971 15.4186C57.5411 15.4186 57.4551 15.4186 57.3441 15.4186C57.2871 15.4186 57.2051 15.4186 57.0921 15.4186C57.0361 15.4186 56.9661 15.4336 56.8831 15.4606C56.8831 15.5166 56.8701 15.5576 56.8421 15.5866C56.7571 15.6156 56.7011 15.6416 56.6731 15.6716C56.6161 15.6996 56.5611 15.7396 56.5041 15.7956C56.5041 15.8246 56.4911 15.8376 56.4631 15.8376C56.4631 15.8936 56.4631 15.9356 56.4631 15.9636C56.4071 16.0206 56.3641 16.0476 56.3371 16.0476C56.3101 16.0746 56.2811 16.1166 56.2531 16.1736C56.1971 16.2016 56.1541 16.2306 56.1271 16.2576C56.0701 16.2846 56.0441 16.3136 56.0441 16.3396L56.0021 16.4266C55.9461 16.4536 55.9051 16.4956 55.8761 16.5516C55.8481 16.5796 55.8071 16.6086 55.7501 16.6356C55.7221 16.6636 55.6951 16.6916 55.6671 16.7186L55.6231 16.8036C55.5671 16.8036 55.4981 16.8316 55.4151 16.8856C55.3861 16.9156 55.3451 16.9566 55.2891 17.0126C55.2611 17.0126 55.2331 17.0286 55.2061 17.0556C55.2061 17.1106 55.1911 17.1546 55.1611 17.1816C55.1071 17.2096 55.0651 17.2376 55.0371 17.2646C55.0091 17.2916 54.9811 17.3336 54.9531 17.3896C54.9261 17.4186 54.8981 17.4316 54.8691 17.4316C54.8141 17.4866 54.7441 17.5296 54.6611 17.5556C54.6321 17.6146 54.6041 17.6416 54.5761 17.6416C54.5481 17.6706 54.5051 17.7106 54.4501 17.7666C54.3941 17.7966 54.3521 17.8236 54.3261 17.8506C54.2981 17.8786 54.2681 17.9086 54.2411 17.9356C54.2131 17.9916 54.1851 18.0326 54.1581 18.0606L54.0751 18.1436C54.0461 18.1726 54.0171 18.2026 53.9901 18.2296C53.9071 18.2566 53.8231 18.2716 53.7401 18.2716C53.6831 18.2976 53.6281 18.3266 53.5701 18.3546C53.5431 18.4136 53.5141 18.4536 53.4871 18.4816C53.4591 18.4816 53.4191 18.5096 53.3611 18.5646C53.2771 18.5936 53.1941 18.6216 53.1101 18.6486C52.9981 18.6776 52.9011 18.7056 52.8151 18.7326C52.7321 18.7876 52.6751 18.8306 52.6461 18.8576C52.5921 18.8576 52.5371 18.8856 52.4791 18.9416C52.4231 18.9696 52.3681 18.9976 52.3121 19.0246C52.2011 19.0246 52.1021 19.0396 52.0181 19.0676C51.9891 19.0676 51.9621 19.0676 51.9351 19.0676C51.8771 19.0676 51.8221 19.0676 51.7661 19.0676C51.5421 19.0956 51.3031 19.1236 51.0511 19.1506C50.9681 19.1796 50.8981 19.2076 50.8421 19.2346C50.2551 19.2346 49.6661 19.2346 49.0771 19.2346C49.0221 19.2066 48.9381 19.1786 48.8261 19.1506C48.6861 19.1226 48.5311 19.0946 48.3641 19.0676C48.3091 19.0676 48.2391 19.0676 48.1541 19.0676C48.1541 19.0106 48.1261 18.9686 48.0701 18.9416C48.0421 18.8856 47.9991 18.8576 47.9441 18.8576C47.9441 18.8296 47.9291 18.7866 47.9021 18.7326C47.8461 18.7046 47.8051 18.6766 47.7771 18.6486C47.7191 18.6206 47.6351 18.5926 47.5251 18.5646C47.5251 18.5086 47.4971 18.4816 47.4401 18.4816C47.3841 18.4536 47.3431 18.4136 47.3151 18.3546C47.2861 18.3266 47.2441 18.2976 47.1881 18.2716C47.1881 18.2976 47.1731 18.3266 47.1451 18.3546C47.1181 18.4136 47.1041 18.4536 47.1041 18.4816C47.0751 18.4816 47.0461 18.5096 47.0191 18.5646C47.0191 18.5936 47.0191 18.6216 47.0191 18.6486C46.9931 18.6776 46.9781 18.7056 46.9781 18.7326C46.9491 18.7876 46.9361 18.8306 46.9361 18.8576C46.9091 18.8576 46.8801 18.8856 46.8531 18.9416C46.8531 18.9696 46.8381 19.0116 46.8101 19.0676C46.7821 19.0676 46.7541 19.0816 46.7271 19.1086C46.7271 19.1646 46.7271 19.2086 46.7271 19.2356C46.7271 19.2626 46.7271 19.2916 46.7271 19.3196C46.6991 19.3476 46.6851 19.3876 46.6851 19.4446L46.6431 19.4856C46.6151 19.5426 46.6001 19.5856 46.6001 19.6126C46.5731 19.6416 46.5441 19.6686 46.5171 19.6976C46.5171 19.7246 46.5171 19.7656 46.5171 19.8216C46.5171 19.8496 46.5171 19.8776 46.5171 19.9056C46.5171 19.9336 46.5171 19.9626 46.5171 19.9896C46.5171 20.0456 46.5031 20.0876 46.4751 20.1146L46.4311 20.2006C46.4041 20.2276 46.3761 20.2556 46.3481 20.2836C46.3481 20.3116 46.3481 20.3396 46.3481 20.3666C46.3481 20.4226 46.3481 20.4656 46.3481 20.4926C46.3481 20.5206 46.3481 20.5506 46.3481 20.5766C46.3191 20.6036 46.3061 20.6326 46.3061 20.6596C46.3061 20.7166 46.2921 20.7436 46.2631 20.7436C46.2341 20.7996 46.2221 20.8396 46.2221 20.8686C46.1931 20.8966 46.1791 20.9276 46.1791 20.9546C46.1501 20.9826 46.1231 21.0236 46.0941 21.0796C46.0941 21.1076 46.0941 21.1346 46.0941 21.1636C46.0941 21.1926 46.0941 21.2216 46.0941 21.2476C46.0941 21.2736 46.0811 21.3176 46.0531 21.3726C46.0251 21.3726 45.9971 21.4006 45.9701 21.4566C45.9701 21.4846 45.9551 21.5126 45.9281 21.5406C45.9281 21.5686 45.9281 21.5966 45.9281 21.6236C45.9001 21.6796 45.8861 21.7226 45.8861 21.7506V21.8336C45.8861 21.8616 45.8861 21.8886 45.8861 21.9176C45.8861 21.9436 45.8861 21.9746 45.8861 22.0026C45.8861 22.0586 45.8861 22.0986 45.8861 22.1266C45.8861 22.1546 45.8861 22.1826 45.8861 22.2116C45.8861 22.2396 45.8861 22.2666 45.8861 22.2946L45.8441 22.3766C45.8161 22.4336 45.8031 22.4776 45.8031 22.5046C45.7731 22.5326 45.7451 22.5606 45.7171 22.5876C45.7171 22.6156 45.7171 22.6566 45.7171 22.7136C45.7171 22.7416 45.7171 22.7696 45.7171 22.7966C45.7171 22.8256 45.7171 22.8536 45.7171 22.8806C45.7171 22.9076 45.7171 22.9516 45.7171 23.0066V23.0906C45.7171 23.1186 45.7171 23.1466 45.7171 23.1736C45.6891 23.2026 45.6751 23.2306 45.6751 23.2576C45.6751 23.2846 45.6611 23.3276 45.6331 23.3826C45.6051 23.4106 45.5761 23.4386 45.5501 23.4666C45.5501 23.4946 45.5501 23.5226 45.5501 23.5506V23.6336C45.5501 23.6896 45.5501 23.7336 45.5501 23.7606C45.5501 23.7876 45.5501 23.8176 45.5501 23.8446C45.5501 23.8716 45.5501 23.8996 45.5501 23.9276C45.5501 23.9846 45.5501 24.0276 45.5501 24.0546C45.5221 24.0826 45.5081 24.1106 45.5081 24.1376C45.4791 24.1656 45.4661 24.2086 45.4661 24.2646V24.3066C45.4661 24.3626 45.4661 24.4046 45.4661 24.4326C45.4661 24.4616 45.4661 24.4896 45.4661 24.5166C45.4661 24.5436 45.4661 24.5856 45.4661 24.6416V24.7266C45.4661 24.7536 45.4661 24.7826 45.4661 24.8096C45.4661 24.8366 45.4661 24.8636 45.4661 24.8926C45.4661 24.9196 45.4661 24.9616 45.4661 25.0196C45.4661 25.0476 45.4661 25.0746 45.4661 25.1026C45.4661 25.1316 45.4661 25.1596 45.4661 25.1866V25.2706C45.4661 25.2986 45.4661 25.3386 45.4661 25.3966C45.4661 25.4236 45.4661 25.4516 45.4661 25.4806C45.4661 25.5076 45.4661 25.5366 45.4661 25.5636C45.4661 25.6196 45.4661 25.6606 45.4661 25.6886C45.4661 25.7176 45.4661 25.7456 45.4661 25.7746C45.4661 25.8016 45.4661 25.8426 45.4661 25.8986V25.9416C45.4661 25.9986 45.4661 26.0406 45.4661 26.0676C45.4661 26.0946 45.4661 26.1236 45.4661 26.1516C45.4661 26.1796 45.4661 26.2216 45.4661 26.2776V26.3196C45.4661 26.3756 45.4661 26.4166 45.4661 26.4446V26.5316C45.4661 26.5586 45.4661 26.5996 45.4661 26.6536C45.4661 26.6826 45.4661 26.7106 45.4661 26.7406C45.4661 26.7666 45.4661 26.7966 45.4661 26.8226C45.4661 26.8786 45.4661 26.9206 45.4661 26.9496V27.0336C45.4661 27.0616 45.4661 27.0886 45.4661 27.1166C45.4661 27.1446 45.4661 27.1726 45.4661 27.1996C45.4661 27.2556 45.4661 27.2996 45.4661 27.3276V27.4096C45.4661 27.4406 45.4661 27.4816 45.4661 27.5386V27.5786C45.4661 27.6356 45.4661 27.6776 45.4661 27.7056C45.4661 27.7346 45.4661 27.7626 45.4661 27.7896C45.4661 27.8166 45.4661 27.8586 45.4661 27.9146V27.9556C45.4661 28.0146 45.4661 28.0556 45.4661 28.0836V28.1666C45.4661 28.1946 45.4661 28.2376 45.4661 28.2926C45.4661 28.3216 45.4661 28.3486 45.4661 28.3756C45.4661 28.4026 45.4661 28.4326 45.4661 28.4596C45.4661 28.5166 45.4661 28.5566 45.4661 28.5856V28.6686C45.4661 28.6966 45.4661 28.7396 45.4661 28.7956V28.8376C45.4661 28.8936 45.4661 28.9346 45.4661 28.9626C45.4661 28.9916 45.4661 29.0216 45.4661 29.0486C45.4661 29.0746 45.4661 29.1176 45.4661 29.1716V29.2146C45.4661 29.2716 45.4661 29.3126 45.4661 29.3406C45.4661 29.3686 45.4661 29.3966 45.4661 29.4246C45.4661 29.4526 45.4661 29.4956 45.4661 29.5496C45.4661 29.5806 45.4661 29.6086 45.4661 29.6356C45.4661 29.6626 45.4661 29.6906 45.4661 29.7186L45.4221 29.8026C45.3961 29.8306 45.3681 29.8726 45.3401 29.9286C45.3131 29.9576 45.2821 29.9866 45.2551 30.0136C45.1991 30.0136 45.1441 30.0136 45.0861 30.0136V30.0546C45.0861 30.1106 45.0861 30.1526 45.0861 30.1796C45.0861 30.2066 45.0861 30.2356 45.0861 30.2636C45.0861 30.2916 45.0861 30.3346 45.0861 30.3906V30.4316C45.0861 30.4876 45.0861 30.5306 45.0861 30.5576C45.0861 30.5876 45.0861 30.6156 45.0861 30.6416C45.0861 30.6676 45.0861 30.7116 45.0861 30.7676C45.0861 30.7966 45.0861 30.8246 45.0861 30.8516C42.6511 30.8516 40.2151 30.8516 37.7761 30.8516V30.8096C37.7761 30.7816 37.7761 30.7536 37.7761 30.7256V30.6426C37.7761 30.6156 37.7761 30.5736 37.7761 30.5166C37.7761 30.4876 37.7761 30.4596 37.7761 30.4326C37.7761 30.4056 37.7761 30.3766 37.7761 30.3496C37.7761 30.2926 37.7761 30.2496 37.7761 30.2236V30.1636C37.7761 30.1356 37.7761 30.0956 37.7761 30.0396V29.9966C37.4981 29.9966 37.2171 29.9966 36.9371 29.9966C36.9091 29.9966 36.8811 30.0126 36.8541 30.0396C36.7981 30.0396 36.7411 30.0396 36.6861 30.0396C36.6021 30.0396 36.5321 30.0396 36.4751 30.0396C36.4201 30.0396 36.3761 30.0396 36.3491 30.0396C36.2921 30.0396 36.2381 30.0396 36.1811 30.0396C36.0981 30.0396 36.0291 30.0396 35.9731 30.0396C35.8871 30.0396 35.8181 30.0246 35.7621 29.9966C35.7061 29.9396 35.6641 29.8986 35.6371 29.8716C35.6071 29.8416 35.5801 29.8136 35.5521 29.7866C35.5521 29.7576 35.5521 29.7166 35.5521 29.6616V29.6186C35.5521 29.5626 35.5521 29.5216 35.5521 29.4926C35.5241 29.4646 35.4951 29.4366 35.4691 29.4086C35.4411 29.3806 35.4121 29.3386 35.3831 29.2826V29.2406C35.3831 29.1836 35.3831 29.1436 35.3831 29.1156V29.0326C35.3831 29.0026 35.3831 28.9606 35.3831 28.9046C35.3831 28.8786 35.3831 28.8506 35.3831 28.8216C35.3831 28.7916 35.3831 28.7656 35.3831 28.7356C35.3831 28.6796 35.3831 28.6386 35.3831 28.6106V28.5276C35.3831 28.4996 35.3831 28.4566 35.3831 28.3996V28.3566C35.3831 28.3016 35.3831 28.2606 35.3831 28.2316C35.3831 28.2036 35.3831 28.1756 35.3831 28.1486C35.3561 28.1216 35.3421 28.0786 35.3421 28.0236V27.9796C35.3421 27.9236 35.3421 27.8826 35.3421 27.8546V27.7716C35.3421 27.7436 35.3421 27.7006 35.3421 27.6436C35.3421 27.6156 35.3421 27.5876 35.3421 27.5606C35.3421 27.5316 35.3421 27.5036 35.3421 27.4756C35.3421 27.4196 35.3421 27.3766 35.3421 27.3506V27.2676C35.3421 27.2396 35.3421 27.2106 35.3421 27.1826C35.3421 27.1546 35.3421 27.1266 35.3421 27.0996C35.3421 27.0436 35.3421 27.0016 35.3421 26.9736V26.8896C35.3421 26.8616 35.3421 26.8206 35.3421 26.7646V26.7216C35.3421 26.6656 35.3421 26.6236 35.3421 26.5966C35.3421 26.5696 35.3421 26.5406 35.3421 26.5136C35.3421 26.4836 35.3421 26.4416 35.3421 26.3856V26.3446C35.3421 26.2886 35.3421 26.2476 35.3421 26.2186V26.1346C35.3421 26.1066 35.3421 26.0656 35.3421 26.0106C35.3701 25.9826 35.3831 25.9516 35.3831 25.9236C35.3831 25.8966 35.3831 25.8676 35.3831 25.8416C35.3831 25.7856 35.3831 25.7426 35.3831 25.7136V25.6306C35.3831 25.6026 35.3831 25.5746 35.3831 25.5466C35.3831 25.5196 35.3831 25.4916 35.3831 25.4626C35.3831 25.4076 35.3831 25.3636 35.3831 25.3366C35.3831 25.3096 35.3831 25.2806 35.3831 25.2546C35.3831 25.2236 35.3831 25.1836 35.3831 25.1266V25.0836C35.3831 25.0296 35.3831 24.9856 35.3831 24.9586C35.3831 24.9296 35.3831 24.9016 35.3831 24.8746C35.3831 24.8476 35.3831 24.8056 35.3831 24.7496C35.3831 24.7216 35.3831 24.6926 35.3831 24.6646C35.3831 24.6376 35.3831 24.6076 35.3831 24.5806C35.3831 24.5536 35.3831 24.5116 35.3831 24.4556V24.3726C35.3831 24.3446 35.3831 24.3156 35.3831 24.2886C35.3831 24.2616 35.3831 24.2326 35.3831 24.2036C35.3831 24.1476 35.3831 24.1066 35.3831 24.0786V23.9946C35.3831 23.9656 35.3831 23.9376 35.3831 23.9106C35.4131 23.8826 35.4261 23.8546 35.4261 23.8276C35.4831 23.7706 35.5241 23.7306 35.5521 23.7016C35.5521 23.6736 35.5521 23.6456 35.5521 23.6186C35.5521 23.5916 35.5521 23.5626 35.5521 23.5346V23.4496C35.5521 23.3936 35.5521 23.3526 35.5521 23.3246C35.5521 23.2966 35.5521 23.2686 35.5521 23.2406C35.5521 23.2106 35.5521 23.1696 35.5521 23.1146C35.5521 23.0876 35.5661 23.0596 35.5951 23.0306C35.6211 23.0036 35.6511 22.9756 35.6781 22.9466C35.6781 22.9196 35.6921 22.8776 35.7191 22.8206V22.7376C35.7191 22.7086 35.7191 22.6806 35.7191 22.6536C35.7191 22.6266 35.7341 22.5976 35.7621 22.5706C35.7621 22.5426 35.7621 22.5006 35.7621 22.4426C35.7621 22.4156 35.7621 22.3866 35.7621 22.3596C35.7621 22.3316 35.7621 22.3026 35.7621 22.2756V22.1906C35.7621 22.1366 35.7621 22.0936 35.7621 22.0656C35.7621 22.0376 35.7621 22.0086 35.7621 21.9816C35.7901 21.9536 35.8041 21.9256 35.8041 21.8976C35.8611 21.8416 35.9021 21.7996 35.9291 21.7726C35.9571 21.7446 35.9731 21.7166 35.9731 21.6886C35.9991 21.6606 36.0301 21.6196 36.0571 21.5636L36.0981 21.5206C36.0981 21.4626 36.0981 21.4226 36.0981 21.3946C36.0981 21.3666 36.1111 21.3386 36.1411 21.3106C36.1411 21.2836 36.1541 21.2426 36.1821 21.1856V21.1016C36.1821 21.0736 36.1821 21.0456 36.1821 21.0186C36.2101 20.9906 36.2251 20.9626 36.2251 20.9346C36.2531 20.9066 36.2671 20.8626 36.2671 20.8076C36.2931 20.7816 36.3081 20.7536 36.3081 20.7246C36.3081 20.6976 36.3081 20.6676 36.3081 20.6406L36.3501 20.5576C36.3501 20.5296 36.3641 20.4886 36.3921 20.4296C36.4211 20.4016 36.4631 20.3736 36.5191 20.3466C36.5471 20.3196 36.5751 20.2916 36.6021 20.2636C36.6021 20.2076 36.6021 20.1636 36.6021 20.1366C36.6301 20.1086 36.6431 20.0796 36.6431 20.0526C36.6721 20.0246 36.6871 19.9836 36.6871 19.9276V19.8846C36.6871 19.8306 36.6871 19.7876 36.6871 19.7616C36.7141 19.7316 36.7421 19.7046 36.7711 19.6746C36.7711 19.6476 36.7861 19.6066 36.8121 19.5496C36.8421 19.5216 36.8681 19.5066 36.8971 19.5066C36.9251 19.4496 36.9531 19.4086 36.9801 19.3816V19.2966C36.9801 19.2686 36.9941 19.2286 37.0211 19.1716C37.0491 19.1436 37.0641 19.1156 37.0641 19.0886C37.0641 19.0596 37.0641 19.0316 37.0641 19.0046C37.0641 18.9486 37.0641 18.9066 37.0641 18.8786C37.0911 18.8786 37.1201 18.8506 37.1481 18.7956C37.1761 18.7676 37.1901 18.7396 37.1901 18.7126C37.1901 18.6856 37.2041 18.6546 37.2311 18.6286C37.2591 18.5706 37.2861 18.5296 37.3141 18.5026C37.3441 18.5026 37.3721 18.4746 37.4001 18.4186C37.4001 18.3906 37.4141 18.3486 37.4421 18.2936V18.2516C37.4421 18.1946 37.4421 18.1526 37.4421 18.1246C37.4691 18.0966 37.4981 18.0686 37.5241 18.0416C37.5541 18.0136 37.5821 17.9726 37.6091 17.9146V17.8726C37.6091 17.8176 37.6091 17.7756 37.6091 17.7476V17.6636C37.6091 17.6356 37.6241 17.5926 37.6521 17.5386C37.6801 17.5096 37.7081 17.4816 37.7351 17.4546C37.7351 17.4256 37.7481 17.3976 37.7761 17.3706C37.7761 17.3146 37.7761 17.2716 37.7761 17.2446V17.1606C37.7761 17.1326 37.7761 17.0916 37.7761 17.0346V16.9736C37.7761 16.9176 37.7911 16.8746 37.8191 16.8466V16.8056C37.8191 16.7766 37.8191 16.7346 37.8191 16.6786V16.6366C37.8191 16.5796 37.8191 16.5386 37.8191 16.5096V16.4276C37.8191 16.3976 37.8191 16.3566 37.8191 16.2996C37.8191 16.2736 37.8191 16.2436 37.8191 16.2176C37.7911 16.1886 37.7761 16.1606 37.7761 16.1326V16.0486C37.7761 16.0206 37.7761 15.9786 37.7761 15.9226C37.7481 15.8936 37.7351 15.8656 37.7351 15.8386C37.7071 15.8106 37.6791 15.7836 37.6521 15.7556C37.6241 15.6996 37.6091 15.6546 37.6091 15.6286L37.5241 15.5446C37.4981 15.5166 37.4691 15.4766 37.4421 15.4196V15.3766C37.4131 15.3226 37.4001 15.2796 37.4001 15.2516C37.3711 15.2236 37.3431 15.1956 37.3141 15.1676C37.2861 15.1386 37.2591 15.0976 37.2311 15.0416L37.1901 15.0006C37.1901 14.9446 37.1761 14.9026 37.1481 14.8726C37.1191 14.8456 37.0761 14.8166 37.0201 14.7896C36.9931 14.7606 36.9791 14.7186 36.9791 14.6636C36.9791 14.6366 36.9791 14.6066 36.9791 14.5796C36.9511 14.5516 36.9091 14.5236 36.8531 14.4966C36.7971 14.4406 36.7701 14.3966 36.7701 14.3686L29.8791 14.4126C28.2821 14.4406 26.6851 14.4546 25.0911 14.4546C25.0621 14.4826 25.0341 14.5236 25.0051 14.5796C24.9781 14.5796 24.9491 14.5926 24.9211 14.6206C24.8661 14.6206 24.8241 14.6206 24.7961 14.6206C24.7401 14.6206 24.6841 14.6206 24.6271 14.6206C24.5721 14.6206 24.5021 14.6076 24.4171 14.5796C24.3611 14.5516 24.3081 14.5236 24.2501 14.4966C24.2221 14.4406 24.1931 14.3966 24.1651 14.3686C24.1391 14.3686 24.1111 14.3426 24.0821 14.2856C24.0821 14.2576 24.0821 14.2296 24.0821 14.2026V14.1616C24.0541 14.1336 24.0251 14.1176 23.9981 14.1176C23.9691 14.0606 23.9571 14.0186 23.9571 13.9906C23.9281 13.9636 23.8991 13.9356 23.8711 13.9086C23.8711 13.8786 23.8711 13.8506 23.8711 13.8236V13.7406C23.8711 13.6846 23.8711 13.6426 23.8711 13.6146C23.8711 13.5846 23.8711 13.5566 23.8711 13.5306C23.8711 13.5026 23.8711 13.4596 23.8711 13.4046C23.8711 13.3786 23.8711 13.3466 23.8711 13.3216C23.8711 13.2936 23.8711 13.2626 23.8711 13.2356C23.8711 13.2086 23.8711 13.1816 23.8711 13.1526C23.8711 13.1236 23.8711 13.0816 23.8711 13.0256C23.8711 12.9976 23.8711 12.9696 23.8711 12.9416C23.8711 12.9156 23.8711 12.8876 23.8711 12.8576C23.8711 12.8316 23.8711 12.7906 23.8711 12.7336V12.6496C23.8711 12.6206 23.8711 12.5936 23.8711 12.5666C23.8711 12.5366 23.8711 12.5076 23.8711 12.4806C23.8711 12.4246 23.8711 12.3836 23.8711 12.3556C23.8711 12.3276 23.8711 12.2996 23.8711 12.2706C23.8711 12.2436 23.8711 12.2156 23.8711 12.1876V12.1026C23.8711 12.0466 23.8711 12.0056 23.8711 11.9776C23.8711 11.9486 23.8711 11.9216 23.8711 11.8936C23.8711 11.8676 23.8711 11.8366 23.8711 11.8106C23.8711 11.7536 23.8711 11.7136 23.8711 11.6846C23.8711 11.6566 23.8711 11.6286 23.8711 11.6006C23.8711 11.5726 23.8711 11.5296 23.8711 11.4736V11.3916C23.8711 11.3626 23.8711 11.3346 23.8711 11.3066C23.8711 11.2786 23.8711 11.2506 23.8711 11.2236C23.8711 11.1946 23.8711 11.1506 23.8711 11.0946C23.8711 11.0666 23.8711 11.0386 23.8711 11.0116C23.8711 10.9846 23.8711 10.9556 23.8711 10.9286V10.8446C23.8711 10.8166 23.8711 10.7746 23.8711 10.7196C23.8711 10.6896 23.8711 10.6626 23.8711 10.6356V10.5926C23.7041 10.5926 23.5221 10.5926 23.3261 10.5926C23.2431 10.5926 23.1741 10.5926 23.1161 10.5926C23.0331 10.5656 22.9491 10.5366 22.8661 10.5096C22.8381 10.4816 22.8101 10.4536 22.7831 10.4266C22.7531 10.4266 22.7251 10.4416 22.6981 10.4686C22.6151 10.4406 22.5441 10.4126 22.4881 10.3846C22.4591 10.3576 22.4321 10.3136 22.4031 10.2576C22.3751 10.2576 22.3481 10.2316 22.3201 10.1746C22.3201 10.1466 22.3201 10.1186 22.3201 10.0906V10.0406H2.89413V10.7966L2.85313 10.8806L2.80813 10.9236V11.4276H2.85213L2.89313 11.4686L2.85213 11.5526L2.09313 19.7876L2.05213 19.8286V19.9126L2.01013 19.9556L1.63113 21.2166L0.286133 21.3426V7.51964H0.372133L0.540133 7.47864V7.43764H0.624133L0.750133 7.51964L0.833133 7.60364V7.68764H3.02013L3.14513 7.72964L3.18813 7.77064L3.27113 7.81264H22.5541C22.8061 7.81264 23.0441 7.81264 23.2691 7.81264C23.9691 7.81264 24.6691 7.79864 25.3681 7.77064C25.3971 7.77064 25.4261 7.77064 25.4531 7.77064C25.5101 7.77064 25.5651 7.77064 25.6211 7.77064V7.73164C25.6211 7.70364 25.6211 7.67564 25.6211 7.64564V7.56064C25.6211 7.53364 25.6211 7.49164 25.6211 7.43664C25.6211 7.40864 25.6211 7.37864 25.6211 7.35364C25.6211 7.32564 25.6211 7.29664 25.6211 7.26864C25.6211 7.21164 25.6211 7.17064 25.6211 7.14264V7.05664C25.6211 7.02864 25.6211 6.98864 25.6211 6.93264V6.89064C25.6211 6.83164 25.6211 6.79264 25.6211 6.76364C25.6211 6.73564 25.6211 6.70764 25.6211 6.68064C25.6211 6.65364 25.6211 6.60964 25.6211 6.55464V6.51064C25.6211 6.45664 25.6211 6.41364 25.6211 6.38564V6.30164C25.6211 6.27364 25.6211 6.23164 25.6211 6.17564C25.6211 6.14864 25.6211 6.11964 25.6211 6.09264C25.6211 6.06364 25.6211 6.03564 25.6211 6.00864C25.6211 5.95164 25.6211 5.91164 25.6211 5.88364V5.79864C25.6211 5.77064 25.6211 5.72764 25.6211 5.67164V5.63064C25.6211 5.57464 25.6211 5.53264 25.6211 5.50464C25.6211 5.47464 25.6211 5.44764 25.6211 5.42164C25.6211 5.39364 25.6211 5.35164 25.6211 5.29464V5.25164C25.6211 5.19564 25.6211 5.15364 25.6211 5.12664C25.6211 5.09964 25.6211 5.07064 25.6211 5.04264C25.6211 5.01464 25.6211 4.97264 25.6211 4.91564V4.87364C25.6211 4.81764 25.6211 4.77464 25.6211 4.74764V4.66364C25.6211 4.63664 25.6211 4.59364 25.6211 4.53664C25.6211 4.50864 25.6211 4.48064 25.6211 4.45364C25.6211 4.42664 25.6211 4.39864 25.6211 4.37064C25.6211 4.31464 25.6211 4.27064 25.6211 4.24364V4.15864C25.6211 4.13064 25.6211 4.10264 25.6211 4.07564C25.6211 4.04664 25.6211 4.01864 25.6211 3.99164C25.6211 3.93664 25.6211 3.89364 25.6211 3.86564C25.6211 3.83864 25.6211 3.80864 25.6211 3.78164C25.6211 3.75464 25.6211 3.71364 25.6211 3.65764V3.61364C25.6211 3.55764 25.6211 3.51464 25.6211 3.48664C25.6211 3.45864 25.6351 3.43064 25.6631 3.40364C25.7191 3.37564 25.7601 3.33364 25.7881 3.27764C25.8181 3.27764 25.8731 3.27764 25.9571 3.27764C25.9851 3.24864 26.0001 3.22164 26.0001 3.19364L26.0421 3.15064C26.0691 3.12264 26.0981 3.10864 26.1251 3.10864C26.1811 3.10864 26.2361 3.10864 26.2941 3.10864V3.06764C28.1131 3.06764 29.9201 3.06764 31.7111 3.06764C31.7111 3.03764 31.7111 3.01064 31.7111 2.98364C31.7111 2.95664 31.7111 2.91364 31.7111 2.85764C31.7111 2.83064 31.7111 2.79964 31.7111 2.77364C31.7111 2.74464 31.7111 2.71664 31.7111 2.68964C31.7111 2.66264 31.7111 2.63464 31.7111 2.60664V2.56364C31.7701 2.56364 31.8371 2.54764 31.9211 2.51964C31.9211 2.49364 31.9211 2.46564 31.9211 2.43764V2.35464C31.9791 2.29564 32.0351 2.25464 32.0921 2.22764ZM49.9451 17.0146C49.2451 16.3146 48.8541 15.5036 48.7701 14.5776C48.6581 14.6616 48.5591 14.7466 48.4761 14.8296C48.1121 15.1946 47.8311 15.5986 47.6351 16.0476C47.6631 16.0746 47.7051 16.1166 47.7631 16.1736C48.5171 16.9016 49.3871 17.3076 50.3671 17.3916C50.2271 17.2806 50.0841 17.1566 49.9451 17.0146ZM54.5661 14.9996C54.5101 14.9436 54.4551 14.8856 54.3991 14.8306C53.5851 14.0176 52.6051 13.6126 51.4571 13.6126C51.0111 13.6126 50.5891 13.6826 50.1971 13.8216C50.1401 14.0716 50.1121 14.3536 50.1121 14.6616C50.1121 15.6996 50.4491 16.6086 51.1221 17.3916C52.1011 17.3076 52.9551 16.9006 53.6851 16.1736C54.0491 15.8106 54.3421 15.4186 54.5661 14.9996ZM36.2081 28.9036C36.2081 28.8776 36.2081 28.8496 36.2081 28.8206H36.1651C36.1651 28.8776 36.1801 28.9186 36.2081 28.9456V28.9036Z" fill="#9FB1C9"/>
</g>
<defs>
<clipPath id="clip0_28409_24671">
<rect width="73.625" height="32" fill="white" transform="translate(0 0.133789)"/>
</clipPath>
</defs>
</svg>
