<svg width="83" height="32" viewBox="0 0 83 32" fill="none" xmlns="http://www.w3.org/2000/svg">
<g clip-path="url(#clip0_28409_24654)">
<path fill-rule="evenodd" clip-rule="evenodd" d="M81.47 7.29019C81.502 7.32219 81.533 7.36919 81.564 7.43119C81.627 7.49419 81.689 7.54119 81.752 7.57319C81.752 7.63519 81.752 7.69819 81.752 7.76019C81.784 7.79119 81.83 7.83819 81.894 7.90119C81.894 7.93319 81.91 7.94819 81.94 7.94819C81.972 7.94819 82.003 7.96419 82.035 7.99719C82.035 8.02719 82.05 8.05919 82.082 8.08719C82.112 8.12019 82.145 8.13519 82.175 8.13519V8.18319C82.175 8.21519 82.175 8.24619 82.175 8.27619C82.175 8.30819 82.175 8.33819 82.175 8.37119V8.41919C82.175 8.45019 82.175 8.48119 82.175 8.51119C82.175 8.54319 82.175 8.57419 82.175 8.60519L82.128 8.65319C82.128 8.68319 82.144 8.69919 82.174 8.69919C82.174 8.73019 82.174 8.76119 82.174 8.79219C82.174 8.82319 82.174 8.85519 82.174 8.88619C82.174 8.91819 82.158 8.94919 82.128 8.98019C82.128 9.01219 82.111 9.04319 82.081 9.07319L81.987 9.12119C81.956 9.12119 81.924 9.12119 81.893 9.12119H81.846L81.893 9.16719C81.893 9.19919 81.893 9.23019 81.893 9.26219C81.893 9.29219 81.893 9.32519 81.893 9.35519C81.861 9.35519 81.846 9.37119 81.846 9.40219C81.846 9.43319 81.829 9.44919 81.798 9.44919C81.767 9.48019 81.751 9.51219 81.751 9.54319C81.72 9.54319 81.688 9.54319 81.658 9.54319V9.59019C81.626 9.59019 81.595 9.59019 81.564 9.59019C81.564 9.62219 81.55 9.63719 81.518 9.63719H81.471C80.625 9.66819 79.797 9.68419 78.983 9.68419L78.937 9.73119C78.874 9.73119 78.826 9.73119 78.794 9.73119H78.748C78.717 9.73119 78.685 9.73119 78.654 9.73119C78.623 9.73119 78.591 9.73119 78.559 9.73119C71.986 9.76119 65.443 9.79419 58.933 9.82519C58.902 9.82519 58.87 9.82519 58.839 9.82519V9.87119C58.839 9.90319 58.839 9.93419 58.839 9.96519V10.0592C58.839 10.0912 58.839 10.1222 58.839 10.1542C58.839 10.1862 58.839 10.2162 58.839 10.2462V10.2952C58.839 10.3252 58.824 10.3572 58.793 10.3872C58.793 10.4202 58.777 10.4502 58.746 10.4812V10.7642C58.746 10.7952 58.746 10.8262 58.746 10.8572V10.9042C58.746 10.9352 58.746 10.9672 58.746 10.9982C58.746 11.0302 58.746 11.0612 58.746 11.0922V11.1862C58.746 11.2192 58.746 11.2502 58.746 11.2812V11.4212C58.777 11.4212 58.81 11.4212 58.84 11.4212C58.872 11.4212 58.903 11.4382 58.934 11.4692H58.98C59.011 11.4992 59.06 11.5152 59.122 11.5152C59.152 11.5152 59.184 11.5292 59.215 11.5612C59.245 11.5912 59.262 11.6242 59.262 11.6552H59.308C59.308 11.6872 59.308 11.7182 59.308 11.7492V11.7962C59.339 11.7962 59.371 11.7962 59.401 11.7962V11.8432C59.401 11.8732 59.401 11.9062 59.401 11.9382C59.401 11.9682 59.418 12.0002 59.448 12.0312V12.0772L59.495 12.1242C59.432 12.1562 59.401 12.1872 59.401 12.2182V12.3122C59.401 12.3432 59.401 12.3752 59.401 12.4052C59.401 12.4382 59.401 12.4682 59.401 12.5012V12.5942C59.401 12.6252 59.401 12.6562 59.401 12.6882V12.7812C59.401 12.8132 59.401 12.8452 59.401 12.8762C59.401 12.9082 59.401 12.9392 59.401 12.9722V13.0172C59.401 13.0492 59.401 13.0802 59.401 13.1102C59.401 13.1432 59.401 13.1732 59.401 13.2052V13.2512C59.401 13.2822 59.401 13.3142 59.401 13.3462V13.3932C59.401 13.4242 59.401 13.4562 59.401 13.4862C59.401 13.5172 59.401 13.5492 59.401 13.5822C59.401 13.6132 59.401 13.6452 59.401 13.6752V13.7202C59.401 13.7522 59.401 13.7842 59.401 13.8152C59.401 13.8462 59.401 13.8772 59.401 13.9082C59.401 13.9412 59.401 13.9712 59.401 14.0032C59.401 14.0352 59.401 14.0662 59.401 14.0972V14.1432C59.401 14.1752 59.401 14.2062 59.401 14.2372C59.401 14.2692 59.401 14.3002 59.401 14.3312V14.4712C59.401 14.5052 59.401 14.5362 59.401 14.5672V14.6132C59.401 14.6442 59.401 14.6762 59.401 14.7062C59.401 14.7402 59.401 14.7692 59.401 14.8012V14.8472C59.401 14.8782 59.401 14.9092 59.401 14.9402C59.401 14.9732 59.401 15.0032 59.401 15.0352C59.401 15.0682 59.401 15.0982 59.401 15.1292C59.401 15.1602 59.401 15.1922 59.401 15.2232V15.2702L59.356 15.3162V15.3632C59.293 15.3632 59.244 15.3792 59.213 15.4112C59.12 15.4112 59.025 15.4112 58.932 15.4112C58.901 15.4112 58.854 15.3952 58.791 15.3632H58.744V15.4112C58.744 15.4422 58.744 15.4742 58.744 15.5052V15.5522C58.744 15.5822 58.744 15.6152 58.744 15.6452C58.744 15.6772 58.744 15.7102 58.744 15.7402V15.7862C58.744 15.8172 58.744 15.8492 58.744 15.8792C58.744 15.9112 58.744 15.9432 58.744 15.9742C58.744 16.0052 58.744 16.0362 58.744 16.0672C58.744 16.0982 58.744 16.1302 58.744 16.1612V16.2552C58.744 16.2862 58.744 16.3172 58.744 16.3482V16.3952C58.744 16.4272 58.744 16.4582 58.744 16.4892V16.5352C58.744 16.5672 58.744 16.5982 58.744 16.6302V16.6762C58.744 16.7092 58.744 16.7392 58.744 16.7702C58.744 16.8012 58.744 16.8332 58.744 16.8652V16.9122C58.744 16.9422 58.744 16.9752 58.744 17.0052C58.744 17.0362 58.744 17.0682 58.744 17.1002C58.744 17.1302 58.744 17.1622 58.744 17.1932V17.2882C58.744 17.3202 58.744 17.3512 58.744 17.3822C58.744 17.4132 58.744 17.4442 58.744 17.4752V17.5232C58.744 17.5552 58.744 17.5862 58.744 17.6162V17.6642C58.713 17.6952 58.696 17.7272 58.696 17.7582V17.8052H58.838L58.885 17.8512C58.917 17.8512 58.947 17.8672 58.978 17.8992C58.978 17.9302 58.978 17.9622 58.978 17.9932L59.024 18.0392C59.024 18.0722 59.041 18.1022 59.072 18.1342V18.1792C59.072 18.2122 59.088 18.2272 59.119 18.2272H59.164C59.195 18.2582 59.211 18.2892 59.211 18.3222C59.211 18.3542 59.211 18.3842 59.211 18.4152V18.4632C59.211 18.4932 59.195 18.5252 59.164 18.5572L59.119 18.6032C59.119 18.6352 59.119 18.6662 59.119 18.6972V18.7452C59.119 18.7762 59.119 18.8072 59.119 18.8382C59.119 18.8702 59.119 18.9012 59.119 18.9322V19.0272C59.119 19.0572 59.119 19.0892 59.119 19.1202C59.119 19.1512 59.119 19.1832 59.119 19.2142C59.119 19.2472 59.119 19.2772 59.119 19.3092V19.3552C59.119 19.3852 59.119 19.4182 59.119 19.4492C59.119 19.4812 59.119 19.5122 59.119 19.5442V19.5902C59.119 19.6202 59.119 19.6532 59.119 19.6842V19.7312C59.119 19.7632 59.119 19.7942 59.119 19.8242V19.8702C59.119 19.9032 59.119 19.9332 59.119 19.9652V20.0602C59.119 20.0912 59.119 20.1232 59.119 20.1542C59.119 20.1852 59.119 20.2162 59.119 20.2472V20.3402C59.119 20.3732 59.119 20.4042 59.119 20.4352C59.119 20.4662 59.119 20.4972 59.119 20.5282V20.5762C59.119 20.6092 59.119 20.6402 59.119 20.6712C59.119 20.7032 59.119 20.7342 59.119 20.7652V20.9512C59.119 20.9842 59.119 21.0142 59.119 21.0462C59.119 21.0782 59.119 21.1102 59.119 21.1412V21.1882C59.119 21.2182 59.119 21.2512 59.119 21.2832C59.119 21.3142 59.119 21.3462 59.119 21.3762V21.4692C59.119 21.5012 59.119 21.5322 59.119 21.5632C59.119 21.5952 59.119 21.6252 59.119 21.6562V21.7032C59.119 21.7352 59.119 21.7672 59.119 21.7992V21.9382C59.119 21.9692 59.119 22.0002 59.119 22.0332C59.119 22.0632 59.119 22.0962 59.119 22.1262V22.1722C59.119 22.2032 59.119 22.2352 59.119 22.2672C59.119 22.2982 59.119 22.3292 59.119 22.3612V22.4072C59.119 22.4382 59.119 22.4702 59.119 22.5012V22.5952C59.119 22.6262 59.119 22.6562 59.119 22.6882V22.7842C59.119 22.8142 59.119 22.8462 59.119 22.8762C59.119 22.9072 59.119 22.9392 59.119 22.9702V23.0652C59.119 23.0952 59.119 23.1262 59.119 23.1582C59.119 23.1892 59.119 23.2212 59.119 23.2532V23.2982C59.119 23.3302 59.119 23.3612 59.119 23.3932C59.119 23.4252 59.119 23.4562 59.119 23.4862V23.5332C59.119 23.5652 59.119 23.5962 59.119 23.6272V23.6752C59.119 23.7052 59.119 23.7372 59.119 23.7682C59.119 23.8002 59.119 23.8312 59.119 23.8632V23.9102C59.119 23.9412 59.119 23.9732 59.119 24.0032C59.119 24.0352 59.119 24.0662 59.119 24.0972V24.1912C59.119 24.2232 59.119 24.2542 59.119 24.2862C59.119 24.3162 59.119 24.3492 59.119 24.3792V24.4252C59.119 24.4582 59.119 24.4892 59.119 24.5212V24.6142C59.119 24.6452 59.119 24.6762 59.119 24.7082V24.7552C59.119 24.7852 59.119 24.8182 59.119 24.8482V24.8952C59.119 24.9262 59.119 24.9582 59.119 24.9882C59.119 25.0202 59.119 25.0522 59.119 25.0832V25.1302C59.119 25.1622 59.119 25.1922 59.119 25.2232C59.119 25.2542 59.119 25.2862 59.119 25.3182C59.119 25.3492 59.119 25.3812 59.119 25.4112C59.119 25.4412 59.119 25.4722 59.119 25.5042C59.119 25.5362 59.119 25.5692 59.119 25.6002C59.119 25.6312 59.119 25.6622 59.119 25.6932V25.7392C59.119 25.7722 59.119 25.8032 59.119 25.8342V25.8792C59.119 25.9112 59.119 25.9412 59.119 25.9742V26.0212C59.119 26.0532 59.119 26.0842 59.119 26.1152C59.119 26.1462 59.119 26.1772 59.119 26.2092V26.2562C59.119 26.2882 59.119 26.3182 59.119 26.3492C59.119 26.3802 59.119 26.4122 59.119 26.4432V26.4902C59.119 26.5212 59.119 26.5512 59.119 26.5832C59.119 26.6132 59.119 26.6462 59.119 26.6772V26.7242C59.119 26.7562 59.119 26.7872 59.119 26.8182C59.119 26.8492 59.119 26.8812 59.119 26.9122V27.0052C59.119 27.0372 59.119 27.0692 59.119 27.1002V27.1472C59.119 27.1792 59.119 27.2102 59.119 27.2412C59.119 27.2722 59.119 27.3042 59.119 27.3342C59.119 27.3662 59.119 27.3982 59.119 27.4292C59.119 27.4602 59.119 27.4922 59.119 27.5232V27.6182C59.119 27.6492 59.119 27.6812 59.119 27.7112C59.119 27.7432 59.119 27.7742 59.119 27.8052V27.8522C59.119 27.8842 59.119 27.9152 59.119 27.9472C59.119 27.9782 59.119 28.0092 59.119 28.0412V28.1352C59.119 28.1672 59.119 28.1982 59.119 28.2292V28.3232C59.119 28.3562 59.119 28.3862 59.119 28.4182V28.4642C59.119 28.4952 59.119 28.5262 59.119 28.5582C59.119 28.5912 59.119 28.6212 59.119 28.6532V28.7442C59.119 28.7762 59.119 28.8072 59.119 28.8412C59.119 28.8722 59.119 28.9032 59.119 28.9322V28.9802C59.087 29.0112 59.072 29.0432 59.072 29.0752C59.103 29.0752 59.135 29.0902 59.165 29.1212C59.196 29.1522 59.212 29.1832 59.212 29.2152C59.212 29.2462 59.212 29.2772 59.212 29.3092C59.212 29.3392 59.196 29.3712 59.165 29.4032C59.103 29.4032 59.057 29.4032 59.024 29.4032C58.9 29.4032 58.774 29.4032 58.649 29.4032C58.618 29.4352 58.601 29.4662 58.601 29.4962C58.57 29.5292 58.539 29.5592 58.508 29.5902V29.6372C58.508 29.6682 58.508 29.6992 58.508 29.7302C58.508 29.7622 58.508 29.7932 58.508 29.8242V29.8722C58.508 29.9032 58.508 29.9342 58.508 29.9652V30.0132C58.508 30.0442 58.508 30.0762 58.508 30.1072C58.508 30.1372 58.508 30.1692 58.508 30.2002C58.508 30.2312 58.508 30.2632 58.508 30.2942V30.3422C58.508 30.3722 58.508 30.4042 58.508 30.4342C58.508 30.4662 58.508 30.4992 58.508 30.5302C58.508 30.5622 58.508 30.5932 58.508 30.6242C58.508 30.6562 58.508 30.6872 58.508 30.7182V30.7652C58.508 30.7962 58.508 30.8282 58.508 30.8582C58.508 30.8902 58.508 30.9212 58.508 30.9532C58.508 30.9842 58.508 31.0152 58.508 31.0462V31.0932C58.508 31.1242 58.508 31.1562 58.508 31.1882V31.2352C58.508 31.2662 58.508 31.2972 58.508 31.3282C58.508 31.3592 58.508 31.3912 58.508 31.4222V31.4692C58.508 31.5012 58.508 31.5312 58.508 31.5622V31.6102C58.539 31.6432 58.585 31.6572 58.649 31.6572L58.695 31.7042C58.695 31.7352 58.712 31.7672 58.743 31.7972C58.712 31.8292 58.695 31.8622 58.695 31.8922C58.695 31.9232 58.68 31.9392 58.649 31.9392C58.586 31.9392 58.539 31.9532 58.508 31.9852C58.131 31.9852 57.756 31.9852 57.381 31.9852C57.318 31.9522 57.271 31.9392 57.238 31.9392C57.208 31.9392 57.176 31.9232 57.146 31.8922C57.146 31.8622 57.146 31.8292 57.146 31.7972C57.146 31.7672 57.146 31.7352 57.146 31.7042C57.176 31.7042 57.208 31.6892 57.238 31.6572C57.271 31.6572 57.317 31.6422 57.381 31.6102H57.427C57.427 31.5792 57.427 31.5472 57.427 31.5162V31.4692C57.427 31.4392 57.427 31.4062 57.427 31.3762C57.427 31.3452 57.427 31.3132 57.427 31.2822V31.1902C57.427 31.1592 57.427 31.1262 57.427 31.0952V31.0012C57.427 30.9702 57.427 30.9382 57.427 30.9072C57.427 30.8742 57.427 30.8442 57.427 30.8132V30.7202C57.427 30.6892 57.427 30.6582 57.427 30.6262C57.427 30.5952 57.427 30.5642 57.427 30.5322V30.4852C57.427 30.4532 57.427 30.4232 57.427 30.3912C57.427 30.3602 57.427 30.3292 57.427 30.2972V30.2502C57.427 30.2192 57.427 30.1872 57.427 30.1572V30.1102C57.427 30.0792 57.427 30.0472 57.427 30.0162C57.427 29.9852 57.427 29.9532 57.427 29.9212V29.8752C57.427 29.8432 57.427 29.8122 57.427 29.7812C57.427 29.7512 57.427 29.7172 57.427 29.6872V29.6402H57.381C57.381 29.6092 57.381 29.5772 57.381 29.5472C57.318 29.5162 57.271 29.4982 57.238 29.4982C57.208 29.4682 57.193 29.4372 57.193 29.4052H57.148C57.116 29.4052 57.085 29.4052 57.053 29.4052C56.991 29.3732 56.943 29.3412 56.912 29.3112C56.912 29.2792 56.896 29.2482 56.864 29.2172V29.1232L56.818 29.0772C56.818 29.0442 56.802 29.0132 56.771 28.9822L56.725 28.9342C56.725 28.9042 56.725 28.8732 56.725 28.8432C56.725 28.8092 56.708 28.7782 56.677 28.7462V28.6552C56.677 28.6232 56.677 28.5922 56.677 28.5602C56.677 28.5282 56.677 28.4972 56.677 28.4662V28.4202C56.677 28.3882 56.677 28.3572 56.677 28.3252V28.2312C56.677 28.2002 56.677 28.1692 56.677 28.1372V28.0432C56.677 28.0112 56.677 27.9802 56.677 27.9492C56.677 27.9182 56.677 27.8862 56.677 27.8542V27.8072C56.677 27.7762 56.677 27.7452 56.677 27.7132C56.677 27.6822 56.677 27.6502 56.677 27.6202V27.5252C56.677 27.4942 56.677 27.4622 56.677 27.4312C56.677 27.4012 56.677 27.3682 56.677 27.3362C56.677 27.3062 56.677 27.2742 56.677 27.2432C56.677 27.2122 56.677 27.1812 56.677 27.1492V27.1022C56.677 27.0722 56.677 27.0392 56.677 27.0072V26.9142C56.677 26.8842 56.677 26.8512 56.677 26.8202C56.677 26.7892 56.677 26.7582 56.677 26.7262V26.6792C56.677 26.6492 56.677 26.6162 56.677 26.5852C56.677 26.5532 56.677 26.5232 56.677 26.4922V26.4452C56.677 26.4142 56.677 26.3822 56.677 26.3512C56.677 26.3202 56.677 26.2892 56.677 26.2582V26.2112C56.677 26.1792 56.677 26.1482 56.677 26.1172C56.677 26.0862 56.677 26.0552 56.677 26.0232V25.9762C56.677 25.9432 56.677 25.9132 56.677 25.8812V25.8362C56.677 25.8052 56.677 25.7732 56.677 25.7412V25.6952C56.677 25.6642 56.677 25.6332 56.677 25.6022C56.677 25.5722 56.677 25.5392 56.677 25.5062C56.677 25.4742 56.677 25.4442 56.677 25.4132C56.677 25.3822 56.677 25.3502 56.677 25.3202C56.677 25.2882 56.677 25.2562 56.677 25.2252C56.677 25.1942 56.677 25.1642 56.677 25.1322V25.0852C56.677 25.0542 56.677 25.0222 56.677 24.9902C56.677 24.9592 56.677 24.9282 56.677 24.8972V24.8502C56.677 24.8192 56.677 24.7872 56.677 24.7572V24.7102C56.677 24.6782 56.677 24.6472 56.677 24.6162V24.5232C56.677 24.4912 56.677 24.4602 56.677 24.4272V24.3812C56.677 24.3502 56.677 24.3182 56.677 24.2882C56.677 24.2552 56.677 24.2252 56.677 24.1932V24.0992C56.677 24.0682 56.677 24.0372 56.677 24.0052C56.677 23.9742 56.677 23.9432 56.677 23.9122V23.8652C56.677 23.8332 56.677 23.8022 56.677 23.7702C56.677 23.7392 56.677 23.7072 56.677 23.6772V23.6302C56.677 23.5992 56.677 23.5672 56.677 23.5362V23.4892C56.677 23.4592 56.677 23.4272 56.677 23.3962C56.677 23.3652 56.677 23.3332 56.677 23.3012V23.2562C56.677 23.2232 56.677 23.1922 56.677 23.1612C56.677 23.1292 56.677 23.0982 56.677 23.0682V22.9732C56.677 22.9422 56.677 22.9102 56.677 22.8792C56.677 22.8492 56.677 22.8172 56.677 22.7872V22.6902C56.677 22.6582 56.677 22.6282 56.677 22.5972V22.5032C56.677 22.4722 56.677 22.4402 56.677 22.4092V22.3632C56.677 22.3312 56.677 22.3002 56.677 22.2692C56.677 22.2372 56.677 22.2052 56.677 22.1742V22.1282C56.677 22.0972 56.677 22.0652 56.677 22.0352C56.677 22.0022 56.677 21.9712 56.677 21.9402V21.8002C56.677 21.7682 56.677 21.7362 56.677 21.7042V21.6572C56.677 21.6252 56.677 21.5952 56.677 21.5642C56.677 21.5332 56.677 21.5022 56.677 21.4702V21.3772C56.677 21.3462 56.677 21.3152 56.677 21.2842C56.677 21.2522 56.677 21.2192 56.677 21.1892V21.1422C56.677 21.1112 56.677 21.0792 56.677 21.0472C56.677 21.0162 56.677 20.9852 56.677 20.9522V20.7662C56.677 20.7352 56.677 20.7042 56.677 20.6722C56.677 20.6422 56.677 20.6102 56.677 20.5772V20.5302C56.677 20.4992 56.677 20.4682 56.677 20.4372C56.677 20.4062 56.677 20.3752 56.677 20.3422V20.2502C56.677 20.2192 56.677 20.1872 56.677 20.1572C56.677 20.1262 56.677 20.0942 56.677 20.0632V19.9682C56.677 19.9362 56.677 19.9062 56.677 19.8732V19.8272C56.677 19.7962 56.677 19.7652 56.677 19.7342V19.6872C56.677 19.6562 56.677 19.6232 56.677 19.5932V19.5472C56.677 19.5162 56.677 19.4842 56.677 19.4522C56.677 19.4212 56.677 19.3882 56.677 19.3582V19.3122C56.677 19.2802 56.677 19.2502 56.677 19.2172C56.677 19.1872 56.677 19.1542 56.677 19.1232C56.677 19.0912 56.677 19.0602 56.677 19.0302V18.9352C56.677 18.9042 56.677 18.8722 56.677 18.8412C56.677 18.8102 56.677 18.7792 56.677 18.7482V18.7002C56.677 18.6692 56.677 18.6382 56.677 18.6062V18.5602C56.677 18.5272 56.677 18.4962 56.677 18.4662V18.4182C56.677 18.3872 56.677 18.3562 56.677 18.3252C56.677 18.2922 56.677 18.2622 56.677 18.2302C56.677 18.1982 56.677 18.1672 56.677 18.1372V18.0902C56.677 18.0592 56.693 18.0422 56.725 18.0422C56.756 18.0422 56.803 18.0422 56.864 18.0422V17.9962C56.864 17.9652 56.864 17.9332 56.864 17.9022C56.896 17.8702 56.912 17.8392 56.912 17.8082C56.942 17.8082 56.974 17.7922 57.005 17.7612L57.053 17.7142V17.6202C57.053 17.5902 57.053 17.5592 57.053 17.5272V17.4332C57.053 17.4012 57.053 17.3702 57.053 17.3402V17.2922C57.053 17.2612 57.053 17.2292 57.053 17.1972V17.1042C57.053 17.0722 57.053 17.0402 57.053 17.0092C57.053 16.9792 57.053 16.9462 57.053 16.9162V16.8212C57.053 16.7902 57.053 16.7592 57.053 16.7282C57.053 16.6972 57.053 16.6652 57.053 16.6342V16.5862C57.053 16.5552 57.053 16.5232 57.053 16.4922C57.053 16.4612 57.053 16.4302 57.053 16.3982V16.2112C57.053 16.1792 57.053 16.1482 57.053 16.1152C57.053 16.0852 57.053 16.0522 57.053 16.0222V15.9752C57.053 15.9442 57.053 15.9122 57.053 15.8802C57.053 15.8492 57.053 15.8182 57.053 15.7872V15.6942C57.053 15.6622 57.053 15.6312 57.053 15.6002C57.053 15.5682 57.053 15.5382 57.053 15.5062V15.4602C57.053 15.4282 57.053 15.3972 57.053 15.3652C57.022 15.3652 56.991 15.3652 56.96 15.3652C56.929 15.3652 56.897 15.3652 56.865 15.3652C56.803 15.3652 56.741 15.3652 56.678 15.3652C56.647 15.3652 56.615 15.3652 56.584 15.3652V15.4132L56.49 15.3182V15.2722C56.49 15.2402 56.49 15.2092 56.49 15.1782C56.49 15.1462 56.49 15.1152 56.49 15.0842V15.0372C56.49 15.0052 56.49 14.9752 56.49 14.9422C56.49 14.9112 56.49 14.8802 56.49 14.8492V14.7562C56.522 14.7262 56.538 14.6922 56.538 14.6622C56.538 14.6312 56.554 14.6152 56.584 14.6152C56.554 14.5842 56.521 14.5692 56.49 14.5692C56.49 14.5392 56.49 14.5072 56.49 14.4732V14.3802C56.522 14.3802 56.538 14.3632 56.538 14.3332C56.538 14.3032 56.554 14.2712 56.584 14.2392C56.584 14.2082 56.584 14.1772 56.584 14.1452V14.0992C56.584 14.0682 56.584 14.0372 56.584 14.0052C56.584 13.9742 56.584 13.9432 56.584 13.9102C56.584 13.8792 56.568 13.8482 56.538 13.8172C56.538 13.7862 56.522 13.7542 56.49 13.7222V13.6772C56.49 13.6462 56.49 13.6142 56.49 13.5842C56.49 13.5522 56.49 13.5202 56.49 13.4882C56.49 13.4582 56.49 13.4262 56.49 13.3952C56.522 13.3952 56.554 13.3952 56.584 13.3952C56.554 13.3632 56.521 13.3482 56.49 13.3482L56.443 13.2532C56.381 13.2532 56.319 13.2372 56.256 13.2072L56.208 13.1602C56.178 13.1282 56.146 13.0972 56.116 13.0652C56.116 13.0352 56.116 13.0022 56.116 12.9732C56.116 12.9402 56.116 12.9092 56.116 12.8772C56.116 12.8472 56.1 12.8142 56.069 12.7822C56.069 12.7522 56.054 12.7372 56.021 12.7372C56.021 12.7052 56.021 12.6742 56.021 12.6412V12.5482L55.927 12.4542C55.896 12.4862 55.849 12.5022 55.786 12.5022V12.5952C55.786 12.6262 55.786 12.6572 55.786 12.6892V12.7822C55.786 12.8142 55.771 12.8462 55.739 12.8772C55.739 12.9092 55.723 12.9402 55.693 12.9732L55.647 13.0182C55.584 13.0502 55.537 13.0652 55.506 13.0652C55.381 13.0972 55.272 13.1282 55.178 13.1602C55.146 13.1912 55.114 13.2062 55.083 13.2062V13.2522C55.083 13.2832 55.083 13.3152 55.083 13.3472C55.083 13.3782 55.083 13.4102 55.083 13.4412C55.083 13.4722 55.068 13.4862 55.038 13.4862L54.99 13.5332C54.99 13.5652 54.975 13.5962 54.943 13.6282C54.943 13.6582 54.928 13.6742 54.897 13.6742C54.865 13.6742 54.849 13.6892 54.849 13.7192H54.755C54.692 13.7512 54.614 13.7672 54.52 13.7672L54.473 13.8142C54.442 13.8142 54.41 13.8142 54.381 13.8142C54.318 13.8142 54.255 13.7982 54.192 13.7672V13.7192C54.13 13.7192 54.067 13.7192 54.004 13.7192C53.972 13.7192 53.957 13.7352 53.957 13.7672L53.908 13.8172H53.815C53.784 13.8172 53.752 13.8172 53.72 13.8172C53.626 13.8172 53.564 13.8172 53.532 13.8172C53.376 13.8172 53.236 13.8172 53.109 13.8172C53.079 13.8172 53.047 13.8172 53.017 13.8172C52.891 13.8482 52.75 13.8792 52.594 13.9102C52.563 13.9102 52.531 13.9102 52.499 13.9102C52.437 13.9102 52.389 13.9102 52.359 13.9102H52.312C52.249 13.9102 52.187 13.9102 52.125 13.9102C52.125 13.8792 52.108 13.8482 52.076 13.8172C52.045 13.8172 52.013 13.8172 51.983 13.8172C51.951 13.8172 51.904 13.8012 51.841 13.7702C51.81 13.7382 51.794 13.7082 51.794 13.6772C51.763 13.6772 51.732 13.6602 51.701 13.6312C51.701 13.5992 51.701 13.5682 51.701 13.5362V13.4892C51.701 13.4592 51.701 13.4272 51.701 13.3962C51.701 13.3642 51.701 13.3332 51.701 13.3002C51.701 13.2702 51.701 13.2382 51.701 13.2072V13.1602C51.701 13.1282 51.701 13.0972 51.701 13.0652C51.701 13.0352 51.701 13.0022 51.701 12.9732C51.701 12.9402 51.701 12.9092 51.701 12.8772C51.638 12.8772 51.56 12.8772 51.465 12.8772C51.433 12.8772 51.387 12.8772 51.325 12.8772H41.369C41.369 12.9092 41.369 12.9402 41.369 12.9732C41.369 13.0022 41.369 13.0352 41.369 13.0652C41.369 13.0972 41.369 13.1282 41.369 13.1602V13.2062C41.369 13.2372 41.369 13.2692 41.369 13.2992C41.369 13.3322 41.369 13.3632 41.369 13.3952C41.369 13.4262 41.369 13.4582 41.369 13.4882V13.5352C41.369 13.5672 41.369 13.5982 41.369 13.6302V13.7222C41.401 13.7222 41.431 13.7222 41.464 13.7222C41.494 13.7222 41.527 13.7222 41.557 13.7222C41.619 13.7542 41.668 13.7862 41.699 13.8172C41.699 13.8482 41.715 13.8792 41.746 13.9102H41.793C41.793 13.9432 41.793 13.9732 41.793 14.0052C41.793 14.0372 41.793 14.0682 41.793 14.0992V14.1942C41.793 14.2242 41.793 14.2572 41.793 14.2872C41.793 14.3182 41.793 14.3502 41.793 14.3802V14.4732C41.793 14.5072 41.793 14.5382 41.793 14.5692V14.7092C41.823 14.7722 41.87 14.8192 41.934 14.8512C41.934 14.9132 41.95 14.9762 41.98 15.0392C42.012 15.0722 42.042 15.1182 42.073 15.1812C42.105 15.2122 42.137 15.2282 42.169 15.2282C42.2 15.2592 42.231 15.2752 42.263 15.2752H42.309C42.341 15.2752 42.388 15.2912 42.45 15.3212C42.45 15.3532 42.466 15.3682 42.498 15.3682C42.528 15.4002 42.56 15.4162 42.591 15.4162C42.591 15.4472 42.591 15.4792 42.591 15.5102V15.5572C42.591 15.5872 42.591 15.6202 42.591 15.6502C42.591 15.6822 42.591 15.7152 42.591 15.7452V15.7912C42.591 15.8222 42.591 15.8542 42.591 15.8842C42.591 15.9162 42.591 15.9482 42.591 15.9792C42.591 16.0102 42.591 16.0412 42.591 16.0722C42.591 16.1032 42.591 16.1352 42.591 16.1662V16.2602C42.591 16.2912 42.591 16.3222 42.591 16.3532V16.4002C42.591 16.4322 42.591 16.4632 42.591 16.4942V16.5402C42.591 16.5722 42.591 16.6032 42.591 16.6352V16.6812C42.591 16.7142 42.591 16.7442 42.591 16.7752C42.591 16.8062 42.591 16.8382 42.591 16.8702V16.9172C42.591 16.9472 42.591 16.9802 42.591 17.0102C42.591 17.0412 42.591 17.0732 42.591 17.1052C42.591 17.1352 42.591 17.1672 42.591 17.1982V17.2932C42.591 17.3252 42.591 17.3562 42.591 17.3872C42.591 17.4182 42.591 17.4492 42.591 17.4802V17.5282C42.591 17.5602 42.591 17.5912 42.591 17.6212V17.6692C42.591 17.7002 42.591 17.7322 42.591 17.7632V17.8102C42.591 17.8422 42.591 17.8732 42.591 17.9042C42.591 17.9352 42.591 17.9672 42.591 17.9982V18.0442C42.591 18.0772 42.591 18.1072 42.591 18.1392V18.2812C42.591 18.3112 42.591 18.3432 42.591 18.3742C42.591 18.4052 42.591 18.4372 42.591 18.4692V18.5162C42.591 18.5482 42.591 18.5792 42.591 18.6092C42.591 18.6412 42.591 18.6722 42.591 18.7032V18.7972C42.591 18.8282 42.591 18.8592 42.591 18.8902V18.9372C42.591 18.9692 42.591 19.0002 42.591 19.0322V19.1252C42.591 19.1562 42.591 19.1882 42.591 19.2192C42.591 19.2522 42.591 19.2822 42.591 19.3142V19.4052C42.591 19.4382 42.591 19.4702 42.591 19.5012C42.591 19.5332 42.591 19.5642 42.591 19.5952V19.6412C42.591 19.6732 42.591 19.7042 42.591 19.7362C42.591 19.7682 42.591 19.7992 42.591 19.8292V19.9702C42.591 20.0012 42.591 20.0342 42.591 20.0652V20.1112C42.591 20.1432 42.591 20.1742 42.591 20.2062C42.591 20.2372 42.591 20.2692 42.591 20.2992V20.3452C42.591 20.3782 42.591 20.4092 42.591 20.4402V20.5332C42.591 20.5662 42.591 20.5982 42.591 20.6292C42.591 20.6592 42.591 20.6912 42.591 20.7212V20.7692C42.591 20.8002 42.591 20.8322 42.591 20.8632V21.0042C42.591 21.0352 42.591 21.0672 42.591 21.0972C42.591 21.1292 42.591 21.1602 42.591 21.1912V21.2382C42.591 21.2702 42.591 21.3002 42.591 21.3322C42.591 21.3632 42.591 21.3942 42.591 21.4252V21.4722C42.591 21.5042 42.591 21.5352 42.591 21.5662V21.6592C42.591 21.6912 42.591 21.7232 42.591 21.7542V21.8482C42.591 21.8792 42.591 21.9112 42.591 21.9412C42.591 21.9712 42.591 22.0032 42.591 22.0362C42.591 22.0662 42.591 22.0992 42.591 22.1292C42.591 22.1612 42.591 22.1912 42.591 22.2232C42.591 22.2542 42.591 22.2862 42.591 22.3172V22.3642C42.591 22.3952 42.591 22.4262 42.591 22.4572C42.591 22.4892 42.591 22.5212 42.591 22.5522V22.5992C42.591 22.6302 42.591 22.6602 42.591 22.6922V22.8352C42.591 22.8652 42.591 22.8972 42.591 22.9272C42.591 22.9602 42.591 22.9912 42.591 23.0232V23.0702C42.591 23.1002 42.591 23.1312 42.591 23.1632C42.591 23.1942 42.591 23.2262 42.591 23.2582C42.591 23.2882 42.591 23.3202 42.591 23.3512C42.591 23.3822 42.591 23.4142 42.591 23.4452V23.4912C42.591 23.5222 42.591 23.5542 42.591 23.5852C42.591 23.6162 42.591 23.6482 42.591 23.6802C42.591 23.7102 42.591 23.7422 42.591 23.7732V23.8192C42.591 23.8522 42.591 23.8842 42.591 23.9142V23.9612C42.591 23.9922 42.591 24.0232 42.591 24.0552C42.591 24.0872 42.591 24.1182 42.591 24.1502V24.1952C42.591 24.2272 42.591 24.2582 42.591 24.2902C42.591 24.3202 42.591 24.3532 42.591 24.3832V24.4772C42.591 24.5082 42.591 24.5402 42.591 24.5702V24.6632C42.591 24.6962 42.591 24.7262 42.591 24.7592C42.591 24.7892 42.591 24.8222 42.591 24.8522V24.9452C42.591 24.9772 42.591 25.0082 42.591 25.0382V25.0872C42.591 25.1172 42.591 25.1492 42.591 25.1802C42.591 25.2102 42.591 25.2422 42.591 25.2732V25.3222C42.591 25.3532 42.591 25.3852 42.591 25.4152C42.591 25.4452 42.591 25.4762 42.591 25.5082V25.5572C42.591 25.5882 42.591 25.6202 42.591 25.6502C42.591 25.6802 42.591 25.7122 42.591 25.7432V25.7912C42.591 25.8222 42.591 25.8532 42.591 25.8832C42.591 25.9152 42.591 25.9452 42.591 25.9782V26.0722C42.591 26.1042 42.591 26.1352 42.591 26.1662V26.2132C42.591 26.2442 42.591 26.2762 42.591 26.3072V26.5422C42.591 26.5732 42.591 26.6052 42.591 26.6362V26.6822C42.591 26.7152 42.591 26.7452 42.591 26.7762V26.8232C42.56 26.8542 42.528 26.8862 42.498 26.9172V26.9642C42.498 26.9952 42.498 27.0262 42.498 27.0592C42.498 27.0902 42.498 27.1212 42.498 27.1522V27.1992C42.498 27.2292 42.498 27.2612 42.498 27.2942V27.3392C42.498 27.3712 42.498 27.4032 42.498 27.4342C42.466 27.4652 42.45 27.4972 42.45 27.5282C42.419 27.5612 42.388 27.5742 42.357 27.5742C42.326 27.6062 42.278 27.6222 42.216 27.6222C39.43 27.6222 36.66 27.6222 33.905 27.6222C33.874 27.6222 33.828 27.6222 33.763 27.6222H33.717C33.686 27.6222 33.655 27.6222 33.624 27.6222C33.561 27.6222 33.514 27.6222 33.483 27.6222C33.451 27.6222 33.405 27.6052 33.342 27.5742C33.279 27.5742 33.216 27.5602 33.154 27.5282C33.154 27.4972 33.138 27.4652 33.107 27.4342C33.077 27.4042 33.045 27.3712 33.014 27.3392H32.873C32.811 27.3392 32.762 27.3392 32.732 27.3392C32.701 27.3392 32.669 27.3262 32.638 27.2942C32.608 27.2612 32.592 27.2302 32.592 27.1992V27.1052C32.592 27.0752 32.592 27.0422 32.592 27.0102C32.592 26.9802 32.592 26.9492 32.592 26.9172V26.8702C32.592 26.8392 32.592 26.8072 32.592 26.7762C32.592 26.7452 32.592 26.7142 32.592 26.6822V26.5882C32.592 26.5562 32.592 26.5262 32.592 26.4952V26.4002C32.592 26.3692 32.592 26.3382 32.592 26.3072C32.592 26.2762 32.592 26.2442 32.592 26.2132V26.1662C32.592 26.1342 32.592 26.1032 32.592 26.0722V25.9782C32.592 25.9452 32.592 25.9152 32.592 25.8832C32.592 25.8532 32.592 25.8212 32.592 25.7912V25.7432C32.592 25.7122 32.592 25.6802 32.592 25.6502C32.592 25.6202 32.592 25.5882 32.592 25.5572V25.5082C32.592 25.4762 32.592 25.4462 32.592 25.4152C32.592 25.3842 32.592 25.3522 32.592 25.3222V25.2732C32.592 25.2422 32.592 25.2102 32.592 25.1802C32.592 25.1492 32.592 25.1172 32.592 25.0872V25.0382C32.592 25.0082 32.592 24.9772 32.592 24.9452V24.8522C32.592 24.8212 32.592 24.7892 32.592 24.7592C32.592 24.7272 32.592 24.6962 32.592 24.6632V24.5702C32.592 24.5402 32.592 24.5072 32.592 24.4772V24.3832C32.592 24.3522 32.592 24.3202 32.592 24.2902C32.592 24.2572 32.592 24.2272 32.592 24.1952V24.1502C32.592 24.1182 32.592 24.0872 32.592 24.0552C32.592 24.0232 32.592 23.9922 32.592 23.9612V23.9142C32.592 23.8842 32.592 23.8512 32.592 23.8192V23.7732C32.592 23.7422 32.592 23.7102 32.592 23.6802C32.592 23.6492 32.592 23.6172 32.592 23.5852C32.592 23.5532 32.592 23.5222 32.592 23.4912V23.4452C32.592 23.4132 32.592 23.3822 32.592 23.3512C32.592 23.3202 32.592 23.2882 32.592 23.2582C32.592 23.2252 32.592 23.1942 32.592 23.1632C32.592 23.1312 32.592 23.1002 32.592 23.0702V23.0232C32.592 22.9912 32.592 22.9602 32.592 22.9272C32.592 22.8972 32.592 22.8652 32.592 22.8352V22.6902C32.592 22.6582 32.592 22.6282 32.592 22.5972V22.5502C32.592 22.5202 32.592 22.4872 32.592 22.4552C32.592 22.4242 32.592 22.3932 32.592 22.3622V22.3152C32.592 22.2842 32.592 22.2522 32.592 22.2212C32.592 22.1892 32.592 22.1582 32.592 22.1272C32.592 22.0962 32.592 22.0642 32.592 22.0342C32.592 22.0012 32.592 21.9702 32.592 21.9392C32.592 21.9082 32.592 21.8772 32.592 21.8462V21.7522C32.592 21.7212 32.592 21.6892 32.592 21.6572V21.5642C32.592 21.5332 32.592 21.5022 32.592 21.4702V21.4232C32.592 21.3912 32.592 21.3602 32.592 21.3302C32.592 21.2982 32.592 21.2682 32.592 21.2362V21.1892C32.592 21.1582 32.592 21.1262 32.592 21.0952C32.592 21.0652 32.592 21.0322 32.592 21.0022V20.8602C32.592 20.8292 32.592 20.7972 32.592 20.7662V20.7182C32.592 20.6872 32.592 20.6562 32.592 20.6262C32.592 20.5952 32.592 20.5632 32.592 20.5302V20.4372C32.592 20.4062 32.592 20.3752 32.592 20.3422V20.2962C32.592 20.2662 32.592 20.2342 32.592 20.2032C32.592 20.1712 32.592 20.1402 32.592 20.1082V20.0622C32.592 20.0312 32.592 19.9992 32.592 19.9672V19.8262C32.592 19.7952 32.592 19.7642 32.592 19.7332C32.592 19.7002 32.592 19.6702 32.592 19.6382V19.5922C32.592 19.5612 32.592 19.5302 32.592 19.4982C32.592 19.4672 32.592 19.4352 32.592 19.4022V19.3112C32.592 19.2792 32.592 19.2492 32.592 19.2162C32.592 19.1862 32.592 19.1532 32.592 19.1222V19.0292C32.592 18.9982 32.592 18.9662 32.592 18.9342V18.8872C32.592 18.8552 32.592 18.8242 32.592 18.7942V18.7002C32.592 18.6692 32.592 18.6382 32.592 18.6062C32.592 18.5762 32.592 18.5442 32.592 18.5132V18.4662C32.592 18.4342 32.592 18.4032 32.592 18.3712C32.592 18.3392 32.592 18.3082 32.592 18.2782V18.1362C32.592 18.1042 32.592 18.0742 32.592 18.0412V17.9952C32.592 17.9642 32.592 17.9322 32.592 17.9012C32.592 17.8692 32.592 17.8382 32.592 17.8072V17.7602C32.592 17.7292 32.592 17.6972 32.592 17.6662V17.6182C32.592 17.5882 32.592 17.5572 32.592 17.5252V17.4772C32.592 17.4462 32.592 17.4152 32.592 17.3842C32.592 17.3522 32.592 17.3212 32.592 17.2902V17.1952C32.592 17.1642 32.592 17.1322 32.592 17.1022C32.592 17.0702 32.592 17.0382 32.592 17.0072C32.592 16.9772 32.592 16.9442 32.592 16.9142V16.8672C32.592 16.8362 32.592 16.8042 32.592 16.7722C32.592 16.7412 32.592 16.7102 32.592 16.6782V16.6322C32.592 16.6002 32.592 16.5692 32.592 16.5372V16.4912C32.592 16.4602 32.592 16.4292 32.592 16.3972V16.3502C32.592 16.3182 32.592 16.2872 32.592 16.2572V16.2112C32.56 16.2112 32.544 16.1942 32.544 16.1632C32.544 16.1312 32.528 16.1002 32.497 16.0692C32.497 16.0372 32.497 16.0072 32.497 15.9762C32.497 15.9452 32.497 15.9132 32.497 15.8812C32.497 15.8502 32.497 15.8192 32.497 15.7882V15.6952C32.497 15.6632 32.497 15.6322 32.497 15.6012C32.497 15.5692 32.497 15.5392 32.497 15.5072V15.4602C32.497 15.4282 32.497 15.3972 32.497 15.3652V15.2252C32.497 15.1942 32.497 15.1622 32.497 15.1312C32.497 15.1002 32.497 15.0692 32.497 15.0372V14.9912C32.497 14.9602 32.497 14.9282 32.497 14.8962C32.529 14.8662 32.544 14.8342 32.544 14.8032L32.592 14.7562H32.638C32.608 14.7262 32.592 14.6922 32.592 14.6622V14.5682C32.592 14.5382 32.592 14.5062 32.592 14.4722L32.684 14.3792C32.717 14.3482 32.732 14.3172 32.732 14.2862C32.762 14.2862 32.795 14.2702 32.827 14.2382C32.858 14.2072 32.904 14.1932 32.968 14.1932V14.1442C32.968 14.1142 32.983 14.0832 33.014 14.0522C33.014 14.0212 33.014 13.9892 33.014 13.9582L33.06 13.9102C33.092 13.8812 33.123 13.8652 33.154 13.8642C32.59 13.8642 32.027 13.8802 31.464 13.9102C31.433 13.9102 31.401 13.9102 31.37 13.9102V13.9582C31.37 14.0212 31.37 14.0842 31.37 14.1452C31.37 14.1772 31.37 14.2242 31.37 14.2872C31.37 14.3502 31.37 14.3942 31.37 14.4272V14.5222C31.37 14.5532 31.37 14.5992 31.37 14.6622C31.34 14.7262 31.324 14.7712 31.324 14.8032C31.324 14.8342 31.34 14.8662 31.37 14.8962C31.37 14.9282 31.386 14.9602 31.417 14.9912L31.464 15.0372C31.496 15.0702 31.527 15.1002 31.558 15.1312C31.588 15.1622 31.62 15.1942 31.651 15.2252V15.3652C31.651 15.3972 31.667 15.4282 31.699 15.4602V15.5062C31.699 15.5382 31.699 15.5682 31.699 15.6002C31.667 15.6312 31.651 15.6632 31.651 15.6942L31.605 15.7872H31.558V15.8342C31.558 15.8662 31.541 15.8972 31.511 15.9282C31.511 15.9602 31.495 15.9762 31.464 15.9762L31.37 16.0692C31.34 16.0692 31.308 16.0692 31.277 16.0692C31.121 16.1002 30.964 16.1322 30.807 16.1632C30.775 16.1632 30.744 16.1792 30.713 16.2112H30.666C30.604 16.2112 30.556 16.2112 30.524 16.2112H30.478C30.289 16.2112 30.103 16.2112 29.915 16.2112L29.868 16.2572H29.821C29.821 16.2882 29.821 16.3192 29.821 16.3502V16.3972C29.821 16.4292 29.821 16.4602 29.821 16.4912V16.5372C29.79 16.5692 29.775 16.6002 29.775 16.6322C29.742 16.6322 29.712 16.6482 29.681 16.6782C29.681 16.7112 29.681 16.7412 29.681 16.7722C29.681 16.8032 29.665 16.8352 29.633 16.8672L29.587 16.9142C29.587 16.9442 29.587 16.9772 29.587 17.0072C29.587 17.0382 29.587 17.0702 29.587 17.1022C29.587 17.1322 29.587 17.1642 29.587 17.1952C29.556 17.1952 29.524 17.2112 29.493 17.2422V17.2892C29.493 17.3212 29.477 17.3522 29.446 17.3832C29.446 17.4142 29.429 17.4452 29.398 17.4762V17.5242C29.398 17.5562 29.398 17.5872 29.398 17.6172V17.6652C29.398 17.6962 29.398 17.7282 29.398 17.7592L29.352 17.8062C29.352 17.8382 29.336 17.8692 29.306 17.9002C29.306 17.9312 29.306 17.9632 29.306 17.9942V18.0402C29.274 18.0732 29.259 18.1032 29.259 18.1352L29.211 18.1802V18.2762C29.18 18.3062 29.165 18.3382 29.165 18.3692C29.134 18.4002 29.102 18.4322 29.071 18.4642V18.5112C29.071 18.5432 29.071 18.5742 29.071 18.6042C29.071 18.6362 29.071 18.6672 29.071 18.6982V18.7462C29.071 18.7772 29.055 18.7922 29.024 18.7922C29.024 18.8232 29.024 18.8542 29.024 18.8852V18.9322C29.024 18.9642 29.024 18.9952 29.024 19.0272L28.977 19.0732V19.1202C28.946 19.1512 28.914 19.1832 28.884 19.2142C28.884 19.2472 28.884 19.2772 28.884 19.3092V19.4002C28.884 19.4332 28.884 19.4652 28.884 19.4962C28.884 19.5282 28.868 19.5592 28.837 19.5902V19.6362C28.806 19.6682 28.774 19.6992 28.743 19.7312C28.743 19.7632 28.743 19.7942 28.743 19.8242V19.9652C28.713 19.9962 28.68 20.0292 28.65 20.0602V20.1062C28.65 20.1382 28.65 20.1692 28.65 20.2012C28.65 20.2322 28.65 20.2642 28.65 20.2942V20.3402C28.65 20.3732 28.65 20.4042 28.65 20.4352V20.5282C28.65 20.5612 28.65 20.5932 28.65 20.6242C28.65 20.6542 28.65 20.6862 28.65 20.7162V20.7642C28.65 20.7952 28.65 20.8272 28.65 20.8582C28.618 20.8892 28.588 20.9042 28.555 20.9042V20.9992C28.555 21.0302 28.555 21.0622 28.555 21.0922C28.524 21.1242 28.492 21.1552 28.461 21.1862V21.2332C28.461 21.2652 28.461 21.2952 28.461 21.3272C28.461 21.3582 28.461 21.3892 28.461 21.4202L28.415 21.4672C28.415 21.4992 28.415 21.5302 28.415 21.5612C28.383 21.5612 28.352 21.5772 28.32 21.6082C28.29 21.6082 28.243 21.6082 28.179 21.6082L28.132 21.6542C28.101 21.6862 28.086 21.7182 28.086 21.7492C28.055 21.7492 28.024 21.7662 27.992 21.7972H27.945C27.882 21.7972 27.821 21.7812 27.757 21.7492L27.71 21.7022C27.679 21.7342 27.647 21.7492 27.617 21.7492C27.617 21.7812 27.601 21.7972 27.57 21.7972C27.539 21.7972 27.507 21.7972 27.476 21.7972C26.882 21.7972 26.288 21.7972 25.692 21.7972C25.63 21.7972 25.551 21.7812 25.457 21.7492V21.7022C25.363 21.7022 25.284 21.6862 25.223 21.6552C25.191 21.6552 25.159 21.6552 25.128 21.6552H25.082C25.049 21.6552 25.003 21.6402 24.939 21.6092C24.878 21.6092 24.815 21.5932 24.753 21.5622L24.658 21.4682C24.595 21.4682 24.549 21.4522 24.517 21.4212C24.484 21.4212 24.454 21.4052 24.421 21.3752C24.391 21.3442 24.358 21.3132 24.328 21.2822V21.1872C24.297 21.1872 24.25 21.1872 24.186 21.1872C24.186 21.1562 24.171 21.1242 24.14 21.0932C24.108 21.0632 24.093 21.0302 24.093 21.0002V20.8602C24.093 20.8292 24.093 20.7972 24.093 20.7662C24.061 20.7352 24.03 20.7042 23.999 20.6722V20.6262C23.999 20.5952 23.999 20.5632 23.999 20.5302V20.4852C23.999 20.4532 23.999 20.4222 23.999 20.3912C24.03 20.3602 24.046 20.3282 24.046 20.2962C24.077 20.2962 24.093 20.2802 24.093 20.2502C24.093 20.2192 24.093 20.1872 24.093 20.1572C24.093 20.1262 24.093 20.0942 24.093 20.0632C24.093 20.0322 24.093 20.0002 24.093 19.9682C24.124 19.9682 24.14 19.9522 24.14 19.9212C24.171 19.8912 24.186 19.8582 24.186 19.8282C24.218 19.8282 24.234 19.8122 24.234 19.7812C24.266 19.7502 24.281 19.7182 24.281 19.6882C24.281 19.6572 24.281 19.6242 24.281 19.5942V19.5002C24.281 19.4692 24.296 19.4372 24.327 19.4042V19.3592C24.327 19.3272 24.327 19.2962 24.327 19.2652C24.357 19.2352 24.374 19.2022 24.374 19.1692L24.419 19.1242C24.419 19.0922 24.419 19.0612 24.419 19.0312V18.9842C24.451 18.9842 24.482 18.9682 24.515 18.9362V18.8892C24.515 18.8572 24.515 18.8262 24.515 18.7962C24.515 18.7652 24.515 18.7342 24.515 18.7022C24.547 18.7022 24.561 18.6862 24.561 18.6552C24.593 18.6242 24.608 18.5922 24.608 18.5622C24.608 18.5292 24.608 18.4982 24.608 18.4682V18.4202C24.639 18.4202 24.67 18.4042 24.7 18.3732C24.7 18.3422 24.716 18.3102 24.749 18.2802V18.2302C24.749 18.1992 24.749 18.1672 24.749 18.1372V18.0902L24.795 18.0422C24.795 18.0122 24.795 17.9792 24.795 17.9482C24.795 17.9162 24.795 17.8852 24.795 17.8542V17.8082C24.826 17.8082 24.842 17.7922 24.842 17.7612C24.874 17.7302 24.889 17.6982 24.889 17.6672C24.919 17.6352 24.935 17.6052 24.935 17.5732V17.5272C24.935 17.4952 24.935 17.4652 24.935 17.4332C24.935 17.4012 24.935 17.3702 24.935 17.3402C24.967 17.3082 24.999 17.2922 25.03 17.2922V17.1972C25.061 17.1662 25.078 17.1342 25.078 17.1042C25.109 17.1042 25.124 17.0882 25.124 17.0562C25.124 17.0262 25.124 16.9942 25.124 16.9632C25.155 16.9322 25.171 16.9002 25.171 16.8702V16.8222C25.171 16.7912 25.171 16.7602 25.171 16.7292V16.6352C25.202 16.6032 25.219 16.5722 25.219 16.5402C25.219 16.5112 25.219 16.4782 25.219 16.4482L25.265 16.4002C25.265 16.3692 25.265 16.3372 25.265 16.3072V16.2142C25.296 16.2142 25.328 16.1972 25.359 16.1662C25.359 16.1342 25.359 16.1032 25.359 16.0722C25.359 16.0402 25.359 16.0102 25.359 15.9792V15.9312C25.39 15.9002 25.406 15.8692 25.406 15.8372C25.438 15.8062 25.453 15.7752 25.453 15.7442V15.6972C25.453 15.6652 25.453 15.6342 25.453 15.6032V15.5562L25.499 15.5092C25.499 15.4782 25.515 15.4462 25.547 15.4152V15.3672L25.499 15.3202C25.499 15.2902 25.484 15.2742 25.453 15.2742C25.453 15.2422 25.453 15.2112 25.453 15.1802C25.453 15.1482 25.438 15.1172 25.406 15.0862C25.406 15.0552 25.39 15.0392 25.359 15.0392C25.359 15.0072 25.359 14.9772 25.359 14.9442C25.328 14.9132 25.296 14.8822 25.265 14.8512C25.234 14.8512 25.219 14.8362 25.219 14.8052L25.171 14.7582C25.171 14.7282 25.171 14.6942 25.171 14.6642C25.14 14.6332 25.109 14.6012 25.078 14.5702L25.03 14.5242C25.03 14.4932 24.999 14.4602 24.935 14.4292C24.905 14.4292 24.874 14.4132 24.842 14.3822C24.811 14.3822 24.78 14.3822 24.749 14.3822V14.3352C24.685 14.3352 24.607 14.3202 24.514 14.2892L24.465 14.1962C24.403 14.1962 24.342 14.1792 24.279 14.1472C24.247 14.1472 24.201 14.1312 24.138 14.1012C24.106 14.0702 24.091 14.0392 24.091 14.0072C24.059 14.0072 24.028 13.9922 23.997 13.9612V13.9102C23.934 13.9102 23.87 13.9102 23.808 13.9102C23.777 13.8792 23.745 13.8482 23.715 13.8172C23.652 13.7862 23.621 13.7542 23.621 13.7222C23.59 13.7222 23.558 13.7082 23.527 13.6772C23.496 13.6772 23.481 13.6602 23.481 13.6312C23.418 13.5992 23.386 13.5682 23.386 13.5362C23.386 13.5052 23.37 13.4892 23.338 13.4892V13.4442C23.309 13.4132 23.276 13.3812 23.246 13.3502C23.246 13.3172 23.229 13.2862 23.197 13.2552C23.197 13.2252 23.182 13.2092 23.151 13.2092L23.105 13.1632C23.105 13.1312 23.09 13.1002 23.059 13.0682C23.059 13.0382 23.059 13.0052 23.059 12.9762V12.9282C23.059 12.8962 23.059 12.8652 23.059 12.8342C23.026 12.8022 23.012 12.7712 23.012 12.7402C22.982 12.7402 22.964 12.7242 22.964 12.6922C22.964 12.6602 22.964 12.6292 22.964 12.5982H22.918C22.918 12.5672 22.902 12.5512 22.871 12.5512C22.871 12.5202 22.871 12.4892 22.871 12.4572C22.871 12.4272 22.871 12.3942 22.871 12.3632V12.2702C22.84 12.2702 22.808 12.2702 22.777 12.2702C22.746 12.2702 22.714 12.2702 22.682 12.2702C22.65 12.2702 22.621 12.2702 22.589 12.2702C22.527 12.2702 22.479 12.2702 22.449 12.2702C22.418 12.2702 22.37 12.2542 22.308 12.2222C22.276 12.1922 22.26 12.1602 22.26 12.1282C22.197 12.0962 22.151 12.0812 22.118 12.0812C22.088 12.0812 22.056 12.0662 22.025 12.0352C22.025 12.0042 22.025 11.9722 22.025 11.9422C22.025 11.9102 22.025 11.8772 22.025 11.8472V11.7502C20.334 11.7502 18.614 11.7502 16.86 11.7502C16.828 11.7502 16.781 11.7352 16.719 11.7042V11.6562C16.656 11.6562 16.593 11.6562 16.531 11.6562L16.485 11.6092C16.453 11.5782 16.422 11.5462 16.39 11.5162L16.343 11.4702C16.343 11.4392 16.328 11.4222 16.297 11.4222C16.266 11.3912 16.234 11.3592 16.202 11.3282V11.2832C16.202 11.2522 16.202 11.2212 16.202 11.1882V11.1402C16.202 11.1092 16.202 11.0782 16.202 11.0472C16.202 11.0172 16.202 10.9852 16.202 10.9522V10.9062C16.202 10.8742 16.202 10.8442 16.202 10.8122C16.202 10.7812 16.202 10.7492 16.202 10.7172V10.6712C16.202 10.6412 16.202 10.6082 16.202 10.5772C15.452 10.5772 14.715 10.5772 13.995 10.5772C13.87 10.5452 13.775 10.5302 13.714 10.5302C13.619 10.4982 13.557 10.4822 13.526 10.4822C13.494 10.5132 13.447 10.5612 13.384 10.6232C13.321 10.6852 13.242 10.7172 13.15 10.7172H12.962C12.93 10.7172 12.884 10.7172 12.821 10.7172V10.8122C12.79 10.9062 12.742 11.0002 12.679 11.0932L6.15301 16.1642C6.09101 16.2272 5.99601 16.2432 5.87101 16.2122C5.84001 16.2122 5.80801 16.2122 5.77701 16.2122C5.71401 16.2122 5.66801 16.2282 5.63501 16.2582C5.57301 16.2892 5.50901 16.3202 5.44701 16.3512C5.47901 16.4142 5.47901 16.4922 5.44701 16.5852C5.41601 16.6792 5.36901 16.7732 5.30601 16.8682L5.11901 17.0082C5.05601 17.0392 4.99301 17.0552 4.93101 17.0552C4.93101 17.0882 4.91501 17.1032 4.88401 17.1032H4.84201C4.80901 17.1332 4.77801 17.1652 4.74701 17.1962L4.70101 17.2432C4.70101 17.2742 4.68601 17.2902 4.65401 17.2902C4.59101 17.3222 4.54401 17.3532 4.51201 17.3842L4.46601 17.4302C4.46601 17.4622 4.45101 17.4762 4.41901 17.4762C4.38901 17.4762 4.35601 17.4922 4.32601 17.5242C4.29301 17.5242 4.26301 17.5242 4.23201 17.5242C4.20001 17.5562 4.16901 17.5872 4.13801 17.6172H4.09001C4.05801 17.6492 4.02601 17.6652 3.99501 17.6652H3.57301C3.51001 17.6652 3.44701 17.6492 3.38401 17.6172C3.35401 17.6172 3.33801 17.6032 3.33801 17.5712C3.30701 17.5712 3.27501 17.5562 3.24501 17.5252C3.18201 17.5252 3.12101 17.5252 3.05701 17.5252C3.02501 17.4932 2.96201 17.4632 2.86901 17.4312C2.86901 17.3992 2.85401 17.3682 2.82301 17.3382C2.76001 17.3062 2.71301 17.2902 2.68101 17.2902C2.65101 17.2902 2.63501 17.2732 2.63501 17.2432C2.60301 17.2122 2.57301 17.1962 2.54001 17.1962C2.50801 17.1662 2.47801 17.1342 2.44601 17.1042C2.41501 17.1042 2.39901 17.0882 2.39901 17.0562C2.39901 17.0262 2.38301 16.9942 2.35201 16.9632C2.32201 16.9322 2.30601 16.9002 2.30601 16.8702C2.27301 16.8702 2.25901 16.8552 2.25901 16.8222C2.22701 16.7912 2.19601 16.7602 2.16401 16.7292V16.6352C2.16401 16.6032 2.16401 16.5722 2.16401 16.5402C2.16401 16.5112 2.16401 16.4782 2.16401 16.4482C2.16401 16.4162 2.14901 16.4002 2.11701 16.4002C2.11701 16.3692 2.11701 16.3372 2.11701 16.3072V16.2142L2.07101 16.1662C2.07101 16.1342 2.05501 16.1032 2.02401 16.0722C2.02401 16.0402 2.02401 16.0102 2.02401 15.9792V15.9312C1.99201 15.9002 1.97801 15.8692 1.97801 15.8372C1.97801 15.8062 1.97801 15.7752 1.97801 15.7442V15.6972C1.97801 15.6652 1.97801 15.6342 1.97801 15.6032C1.94601 15.6032 1.91601 15.5862 1.88301 15.5562C1.88301 15.5252 1.86601 15.5092 1.83601 15.5092C1.83601 15.4782 1.83601 15.4462 1.83601 15.4152V15.3672C1.83601 15.3372 1.83601 15.3052 1.83601 15.2742V15.2272C1.80401 15.1962 1.77301 15.1642 1.74201 15.1332C1.74201 15.1022 1.74201 15.0712 1.74201 15.0392C1.74201 15.0072 1.74201 14.9772 1.74201 14.9442C1.74201 14.9132 1.74201 14.8822 1.74201 14.8512V14.8052C1.74201 14.7732 1.72601 14.7432 1.69601 14.7102C1.69601 14.6792 1.68001 14.6482 1.64901 14.6172V14.5712C1.64901 14.5412 1.64901 14.5092 1.64901 14.4752V14.4292L1.55501 14.3352C1.55501 14.3052 1.55501 14.2732 1.55501 14.2412C1.55501 14.2102 1.55501 14.1792 1.55501 14.1472V14.1012C1.55501 14.0702 1.55501 14.0392 1.55501 14.0072C1.55501 13.9762 1.55501 13.9452 1.55501 13.9122C1.52301 13.8812 1.50801 13.8502 1.50801 13.8192C1.50801 13.7882 1.49301 13.7562 1.46201 13.7242V13.6792C1.46201 13.6482 1.46201 13.6162 1.46201 13.5862C1.46201 13.5542 1.46201 13.5222 1.46201 13.4902C1.43101 13.4602 1.39901 13.4282 1.36901 13.3972V13.3502C1.36901 13.3172 1.36901 13.2862 1.36901 13.2552C1.36901 13.2252 1.35201 13.2092 1.32001 13.2092C1.32001 13.1772 1.30501 13.1472 1.27401 13.1142C1.27401 13.0842 1.27401 13.0522 1.27401 13.0212V12.9762C1.27401 12.9432 1.27401 12.9122 1.27401 12.8802C1.27401 12.8502 1.27401 12.8172 1.27401 12.7852V12.7402L1.22701 12.6922C1.22701 12.6602 1.21201 12.6292 1.18101 12.5982V12.5052C1.18101 12.4732 1.18101 12.4422 1.18101 12.4092C1.18101 12.3792 1.18101 12.3472 1.18101 12.3162V12.2702L1.13201 12.2202C1.13201 12.1902 1.11601 12.1582 1.08501 12.1262V12.0792C1.08501 12.0482 1.08501 12.0172 1.08501 11.9862C1.08501 11.9562 1.08501 11.9242 1.08501 11.8932V11.8452C1.08501 11.8142 1.08501 11.7822 1.08501 11.7512C1.08501 11.7202 1.07001 11.6892 1.03801 11.6572V11.6102C1.03801 11.5792 1.03801 11.5472 1.03801 11.5172C1.03801 11.4862 1.02101 11.4552 0.990008 11.4232L0.944008 11.3762C0.944008 11.3452 0.928008 11.3142 0.898008 11.2842C0.898008 11.2532 0.898008 11.2222 0.898008 11.1892V11.0952C0.898008 11.0642 0.898008 11.0332 0.898008 11.0012C0.898008 10.9702 0.898008 10.9382 0.898008 10.9072V10.8602C0.898008 10.8292 0.898008 10.7982 0.898008 10.7672V10.7192C0.867008 10.7192 0.851008 10.7042 0.851008 10.6732C0.851008 10.6432 0.851008 10.6102 0.851008 10.5792V10.4842C0.851008 10.4532 0.851008 10.4222 0.851008 10.3902C0.851008 10.3602 0.851008 10.3272 0.851008 10.2982V10.2492C0.820008 10.2192 0.805008 10.1882 0.805008 10.1572C0.772008 10.1242 0.740008 10.0922 0.708008 10.0602V9.96619C0.708008 9.93619 0.708008 9.90419 0.708008 9.87219V9.77819C0.708008 9.74719 0.708008 9.71619 0.708008 9.68519C0.708008 9.65419 0.708008 9.62219 0.708008 9.59119V9.54419C0.708008 9.51319 0.708008 9.48019 0.708008 9.45019V9.35519C0.708008 9.32519 0.708008 9.29219 0.708008 9.26219C0.708008 9.23019 0.708008 9.19919 0.708008 9.16719V9.12219C0.708008 9.09119 0.708008 9.05919 0.708008 9.02819C0.708008 8.99719 0.708008 8.96519 0.708008 8.93519V8.88619C0.708008 8.85519 0.708008 8.82319 0.708008 8.79219C0.708008 8.76119 0.708008 8.72919 0.708008 8.69919V8.65319C0.708008 8.62019 0.708008 8.58919 0.708008 8.55719C0.708008 8.52619 0.708008 8.49419 0.708008 8.46619V8.41819C0.740008 8.38619 0.772008 8.35319 0.804008 8.32119L0.850008 8.27519C0.850008 8.24519 0.850008 8.21419 0.850008 8.18219L0.897008 8.13419C0.897008 8.10319 0.897008 8.07119 0.897008 8.04219C0.927008 8.01019 0.943008 7.97919 0.943008 7.94719C0.974008 7.94719 1.00601 7.94719 1.03701 7.94719C1.03701 7.91719 1.03701 7.88519 1.03701 7.85219C1.06901 7.82219 1.08401 7.79019 1.08401 7.75919C1.11601 7.75919 1.14601 7.75919 1.17801 7.75919C1.17801 7.72719 1.17801 7.69619 1.17801 7.66419C1.20901 7.63319 1.24101 7.60219 1.27201 7.57219C1.27201 7.54019 1.28801 7.52419 1.31801 7.52419H1.36701C1.42901 7.49419 1.47601 7.47819 1.50701 7.47819C1.57001 7.44819 1.63201 7.43119 1.69501 7.43119V7.38419C1.72601 7.38419 1.78801 7.38419 1.88301 7.38419L1.92901 7.43119V7.38419C1.96201 7.38419 1.97801 7.36919 1.97801 7.33819C2.00901 7.33819 2.04001 7.33819 2.07101 7.33819L2.11701 7.29019C2.14901 7.29019 2.19501 7.29019 2.25901 7.29019C2.32201 7.29019 2.36801 7.29019 2.39901 7.29019C2.43001 7.32219 2.47801 7.33819 2.53901 7.33819C2.57201 7.33819 2.60201 7.35319 2.63401 7.38419C2.66501 7.32219 2.74301 7.29019 2.86901 7.29019H12.258C12.385 7.29019 12.463 7.30619 12.494 7.33819C12.558 7.30519 12.621 7.27519 12.682 7.24319C12.745 7.21219 12.807 7.18019 12.87 7.15019C12.902 7.11819 12.933 7.10119 12.965 7.10119C13.028 7.07019 13.09 7.05519 13.153 7.05519C13.216 7.05519 13.293 7.05519 13.387 7.05519C15.234 7.05519 17.096 7.05519 18.974 7.05519V7.00919C19.006 6.97719 19.021 6.94619 19.021 6.91519V6.82019C19.052 6.79019 19.067 6.75819 19.067 6.72619C19.067 6.69519 19.067 6.66419 19.067 6.63319C19.099 6.60119 19.13 6.58519 19.161 6.58519H19.208C19.208 6.55419 19.208 6.52319 19.208 6.49119C19.208 6.46119 19.208 6.42819 19.208 6.39919V6.35219C19.24 6.32019 19.271 6.29019 19.302 6.25719V6.21019C19.365 6.17819 19.427 6.14719 19.489 6.11619C19.521 6.11619 19.552 6.11619 19.584 6.11619C19.615 6.08519 19.63 6.05419 19.63 6.02119L19.724 5.92819C19.755 5.92819 19.803 5.92819 19.863 5.92819C19.959 5.92819 20.068 5.92819 20.194 5.92819C20.225 5.92819 20.257 5.92819 20.287 5.92819C20.318 5.92819 20.333 5.94419 20.333 5.97519L20.427 5.92819V5.88119C20.427 5.85019 20.427 5.81819 20.427 5.78719C20.427 5.75619 20.427 5.72519 20.427 5.69319C20.46 5.69319 20.491 5.69319 20.522 5.69319C20.522 5.66319 20.522 5.63119 20.522 5.60019C20.522 5.56919 20.522 5.53719 20.522 5.50619V5.45919C20.553 5.42819 20.568 5.39719 20.568 5.36619C20.568 5.33319 20.553 5.30219 20.522 5.27119V5.22419C20.491 5.19419 20.459 5.17819 20.427 5.17819L20.382 5.13219C20.382 5.09919 20.364 5.06719 20.333 5.03619V4.98919C20.333 4.95919 20.333 4.92719 20.333 4.89619C20.333 4.86419 20.333 4.83319 20.333 4.80119V4.75419C20.333 4.72319 20.333 4.69119 20.333 4.66119C20.333 4.63019 20.333 4.59819 20.333 4.56719C20.364 4.53419 20.382 4.50219 20.382 4.47219C20.412 4.44119 20.427 4.41019 20.427 4.37719V4.33319C20.46 4.30019 20.491 4.28619 20.522 4.28619C20.553 4.28619 20.584 4.28619 20.615 4.28619H20.661V4.23719C20.694 4.20719 20.725 4.19119 20.756 4.19119C20.756 4.16119 20.771 4.14419 20.802 4.14419C20.833 4.14419 20.865 4.12919 20.896 4.09819C20.928 4.09819 20.959 4.09819 20.991 4.09819C21.022 4.09819 21.054 4.09819 21.084 4.09819C21.114 4.09819 21.145 4.08219 21.177 4.05119C21.209 4.05119 21.257 4.03519 21.319 4.00519C21.35 3.97319 21.365 3.94119 21.365 3.91019V3.86219C21.365 3.83019 21.365 3.79919 21.365 3.76819C21.396 3.73719 21.412 3.70519 21.412 3.67519C21.442 3.64319 21.475 3.62719 21.506 3.62719C21.506 3.59619 21.522 3.56419 21.554 3.53419C21.554 3.50319 21.569 3.47119 21.6 3.44019C21.631 3.44019 21.663 3.42419 21.693 3.39219C21.756 3.39219 21.803 3.39219 21.835 3.39219V3.34519C22.023 3.34519 22.211 3.34519 22.399 3.34519C22.43 3.37819 22.476 3.39119 22.54 3.39119C22.571 3.42319 22.603 3.43919 22.634 3.43919C22.634 3.47019 22.649 3.50219 22.68 3.53319C22.711 3.56319 22.744 3.59519 22.775 3.62619C22.806 3.62619 22.822 3.64219 22.822 3.67419C22.854 3.70419 22.869 3.73619 22.869 3.76719C22.9 3.79819 22.916 3.82919 22.916 3.86119C22.947 3.86119 22.996 3.86119 23.058 3.86119C23.182 3.86119 23.292 3.86119 23.385 3.86119C23.448 3.86119 23.511 3.87719 23.573 3.90819C23.605 3.93919 23.636 3.97119 23.668 4.00319C23.699 4.03319 23.731 4.04919 23.761 4.04919C23.761 4.08019 23.777 4.09619 23.808 4.09619C23.808 4.12719 23.808 4.15919 23.808 4.18919C23.808 4.22219 23.808 4.25219 23.808 4.28419H23.856C23.856 4.31519 23.887 4.34619 23.95 4.37619C24.013 4.37619 24.059 4.39419 24.091 4.42419C24.122 4.42419 24.138 4.44019 24.138 4.47119C24.201 4.47119 24.247 4.47119 24.279 4.47119C24.811 4.47119 25.327 4.47119 25.828 4.47119C26.047 4.47119 26.297 4.47119 26.579 4.47119C26.61 4.44019 26.641 4.42419 26.673 4.42419C26.705 4.42419 26.751 4.42419 26.814 4.42419V4.37819H26.908C26.97 4.41119 27.016 4.44119 27.048 4.47319V4.42619H27.144V4.37819C27.206 4.41119 27.251 4.44119 27.283 4.47319C27.316 4.50319 27.331 4.53519 27.331 4.56819C27.363 4.56819 27.393 4.56819 27.425 4.56819C27.425 4.59819 27.441 4.63119 27.471 4.66219C27.502 4.69219 27.517 4.72419 27.517 4.75519V4.84819C27.55 4.81719 27.58 4.80219 27.612 4.80219C27.642 4.80219 27.69 4.80219 27.753 4.80219C27.785 4.80219 27.832 4.81819 27.894 4.84819C27.925 4.88119 27.94 4.91119 27.94 4.94319V5.03619C27.94 5.06719 27.94 5.09919 27.94 5.13219V5.22519C27.94 5.25519 27.94 5.28719 27.94 5.31819C27.94 5.34919 27.94 5.38219 27.94 5.41319L27.987 5.45919C27.987 5.49019 28.003 5.50619 28.035 5.50619C28.035 5.53619 28.035 5.56919 28.035 5.60019C28.035 5.63219 28.035 5.66319 28.035 5.69319C28.065 5.69319 28.081 5.70919 28.081 5.74119V5.78719L28.127 5.83519C28.127 5.86619 28.127 5.89719 28.127 5.92819V5.97519C28.127 6.00619 28.127 6.03919 28.127 6.07019V6.11619H28.268C29.425 6.11619 30.601 6.10019 31.789 6.07019V6.02119L31.838 5.97519C31.838 5.94419 31.853 5.92819 31.884 5.92819C31.915 5.92819 31.962 5.92819 32.024 5.92819C32.057 5.92819 32.119 5.91419 32.212 5.88219C32.212 5.85119 32.212 5.81919 32.212 5.78819C32.245 5.75719 32.275 5.72619 32.307 5.69419H32.354C32.385 5.66419 32.416 5.63219 32.448 5.60119C32.48 5.57019 32.494 5.53819 32.494 5.50719L32.589 5.41419C32.589 5.38319 32.605 5.36819 32.635 5.36819C32.666 5.36819 32.698 5.36819 32.729 5.36819V5.31719C32.792 5.31719 32.87 5.31719 32.965 5.31719C32.995 5.34819 33.042 5.38119 33.104 5.41219L33.198 5.50519C33.198 5.53519 33.198 5.56819 33.198 5.59919C33.261 5.53619 33.34 5.48919 33.433 5.45819C33.496 5.45819 33.575 5.42719 33.668 5.36519C33.761 5.36519 33.856 5.36519 33.951 5.36519V5.31719C34.075 5.34819 34.184 5.36619 34.278 5.36619C34.31 5.39719 34.341 5.42819 34.373 5.45919C34.403 5.39719 34.419 5.34919 34.419 5.31719C34.514 5.25419 34.608 5.22419 34.702 5.22419H37.002C37.098 5.22419 37.176 5.25419 37.238 5.31719C37.268 5.38119 37.3 5.44319 37.332 5.50519C37.487 5.50519 37.63 5.48919 37.754 5.45819C37.817 5.45819 37.88 5.45819 37.942 5.45819C37.974 5.45819 38.02 5.44319 38.083 5.41219C39.084 5.41219 40.07 5.41219 41.041 5.41219C41.104 5.44319 41.152 5.45819 41.183 5.45819C41.245 5.45819 41.292 5.45819 41.323 5.45819C41.386 5.48919 41.431 5.52019 41.465 5.55119C41.495 5.58319 41.543 5.61419 41.605 5.64619L41.652 5.69219C41.683 5.69219 41.699 5.67819 41.699 5.64619C41.73 5.61519 41.762 5.58319 41.793 5.55119C41.793 5.52019 41.807 5.48919 41.838 5.45819H41.886C41.917 5.45819 41.964 5.45819 42.027 5.45819V5.41319C42.058 5.44419 42.105 5.45919 42.168 5.45919C42.199 5.49019 42.23 5.50619 42.262 5.50619C42.262 5.53619 42.277 5.56919 42.308 5.60019C42.308 5.63219 42.308 5.66319 42.308 5.69319V5.74119H42.355C42.386 5.74119 42.434 5.72519 42.496 5.69319C42.558 5.69319 42.62 5.69319 42.683 5.69319C42.715 5.72519 42.746 5.74119 42.777 5.74119V5.78719C43.373 5.75619 43.983 5.74119 44.609 5.74119V5.69319C44.639 5.66319 44.672 5.63119 44.704 5.60019C44.736 5.56919 44.766 5.53719 44.798 5.50619C44.828 5.50619 44.843 5.49019 44.843 5.45919C44.906 5.45919 44.97 5.44419 45.033 5.41319C45.251 5.41319 45.471 5.39719 45.689 5.36719C45.72 5.33419 45.737 5.30319 45.737 5.27219C45.768 5.24119 45.799 5.22519 45.83 5.22519C45.862 5.19519 45.893 5.17919 45.924 5.17919C45.956 5.17919 45.972 5.16319 45.972 5.13319C46.035 5.10019 46.097 5.06819 46.159 5.03719C46.222 5.03719 46.316 5.03719 46.441 5.03719H46.488C46.52 5.03719 46.535 5.02119 46.535 4.99019L46.629 4.89719C46.692 4.86519 46.738 4.84819 46.77 4.84819C46.864 4.81719 46.926 4.80219 46.958 4.80219C46.988 4.80219 47.02 4.80219 47.051 4.80219H47.098L47.144 4.75619H47.193C47.222 4.72519 47.255 4.71019 47.286 4.71019C47.348 4.71019 47.38 4.69419 47.38 4.66419H47.427C47.457 4.66419 47.49 4.66419 47.52 4.66419V4.56819C47.52 4.53519 47.52 4.50319 47.52 4.47319C47.52 4.44219 47.52 4.41119 47.52 4.37819C47.489 4.37819 47.457 4.36319 47.427 4.33319C47.427 4.30019 47.411 4.28619 47.38 4.28619V4.23719L43.719 2.97019C43.656 2.93819 43.594 2.87619 43.531 2.78219C43.501 2.71919 43.485 2.65719 43.485 2.59619H43.438C43.406 2.56419 43.375 2.54819 43.343 2.54819C43.312 2.54819 43.282 2.53419 43.25 2.50119H43.155C43.093 2.50119 43.048 2.50119 43.015 2.50119C42.89 2.47019 42.796 2.43819 42.734 2.40819C42.703 2.40819 42.655 2.40819 42.592 2.40819H42.545C42.514 2.40819 42.483 2.39219 42.451 2.36119C42.389 2.36119 42.343 2.36119 42.31 2.36119C42.247 2.32919 42.185 2.31419 42.122 2.31419C42.092 2.28219 42.059 2.26619 42.029 2.26619C41.997 2.23419 41.966 2.20419 41.935 2.17319C41.904 2.14219 41.872 2.11019 41.84 2.07919C41.809 2.04719 41.778 2.03019 41.748 2.03019C41.685 2.03019 41.638 2.01519 41.606 1.98419C41.543 1.98419 41.496 1.96919 41.466 1.93819C41.433 1.90719 41.418 1.87519 41.418 1.84519C41.387 1.81219 41.355 1.79619 41.324 1.79619C41.293 1.76519 41.277 1.73319 41.277 1.70219L41.231 1.65519H41.185V1.60919L41.137 1.56119C41.106 1.52919 41.075 1.51419 41.043 1.51419C41.011 1.48319 40.98 1.45219 40.949 1.42219L40.903 1.32619C40.903 1.29619 40.903 1.26319 40.903 1.23219C40.872 1.20119 40.855 1.17019 40.855 1.13919L40.808 1.09219C40.808 1.06119 40.808 1.02919 40.808 0.998188C40.808 0.967188 40.808 0.936188 40.808 0.905188V0.857188C40.839 0.857188 40.854 0.842188 40.854 0.811188C40.854 0.779188 40.871 0.749188 40.902 0.717188V0.669188C40.902 0.638188 40.902 0.606188 40.902 0.575188V0.528188L40.948 0.482188C40.979 0.450188 41.01 0.419188 41.042 0.388188C41.074 0.388188 41.105 0.388188 41.136 0.388188V0.341188C41.168 0.246188 41.231 0.170188 41.324 0.105188C41.387 0.0111883 41.481 -0.0188117 41.606 0.0111883L41.888 0.105188C42.013 0.136188 42.107 0.201188 42.17 0.293188C42.232 0.388188 42.248 0.482188 42.216 0.576188C42.247 0.576188 42.279 0.576188 42.31 0.576188H42.404C42.436 0.607188 42.482 0.622188 42.544 0.622188C42.576 0.654188 42.607 0.670188 42.639 0.670188C42.702 0.670188 42.748 0.670188 42.779 0.670188L42.827 0.717188C42.857 0.717188 42.889 0.717188 42.92 0.717188C42.983 0.749188 43.03 0.763188 43.061 0.763188L43.107 0.811188C43.107 0.749188 43.139 0.702188 43.201 0.669188C43.265 0.606188 43.358 0.575188 43.484 0.575188C43.546 0.575188 43.609 0.590188 43.672 0.621188L48.555 1.93719C48.648 1.93719 48.725 1.98319 48.789 2.07819C48.789 2.10919 48.805 2.14119 48.837 2.17219C48.868 2.20419 48.9 2.21919 48.93 2.21919C48.962 2.24919 49.009 2.26519 49.071 2.26519C49.133 2.26519 49.18 2.28219 49.212 2.31319C49.212 2.34419 49.212 2.37619 49.212 2.40719C49.243 2.40719 49.275 2.42219 49.306 2.45319C49.338 2.48419 49.369 2.50019 49.4 2.50019C49.4 2.53319 49.415 2.56319 49.447 2.59519C49.478 2.56319 49.51 2.54719 49.541 2.54719V2.50019H49.588C49.651 2.46919 49.713 2.45319 49.776 2.45319V2.40719C49.839 2.43819 49.885 2.46919 49.916 2.50019H49.965C49.997 2.53319 50.027 2.56319 50.058 2.59519C50.058 2.62519 50.058 2.65719 50.058 2.68719V2.73419C50.058 2.76619 50.058 2.79719 50.058 2.82919C50.058 2.86119 50.058 2.89219 50.058 2.92319V2.97019C50.058 3.00219 50.058 3.03319 50.058 3.06319V3.11219C50.058 3.14219 50.058 3.17319 50.058 3.20519V3.25219C50.058 3.28319 50.058 3.31519 50.058 3.34519V3.44019C50.058 3.47119 50.058 3.50319 50.058 3.53419C50.058 3.56419 50.058 3.59619 50.058 3.62719C50.058 3.65919 50.058 3.69019 50.058 3.72219C50.058 3.75319 50.058 3.78419 50.058 3.81519V3.86219C50.058 3.89219 50.058 3.92519 50.058 3.95719C50.058 3.98919 50.058 4.01919 50.058 4.05019V4.09719C50.058 4.12819 50.058 4.16019 50.058 4.19019V4.33219C50.058 4.36319 50.058 4.39519 50.058 4.42519C50.058 4.45619 50.058 4.48819 50.058 4.51819V4.56719C50.058 4.59719 50.058 4.63019 50.058 4.66119C50.058 4.69119 50.058 4.72319 50.058 4.75419V4.84719C50.058 4.88019 50.058 4.91019 50.058 4.94219C50.058 4.97319 50.058 5.00519 50.058 5.03519V5.08219C50.058 5.11619 50.058 5.14619 50.058 5.17719V5.31719C50.058 5.34819 50.058 5.38119 50.058 5.41219V5.45819C50.058 5.48919 50.058 5.52019 50.058 5.55119C50.058 5.58319 50.058 5.61419 50.058 5.64619V5.69219C50.058 5.72419 50.058 5.75519 50.058 5.78619C50.058 5.81719 50.058 5.84919 50.058 5.88019V5.92619C50.027 5.92619 49.997 5.94219 49.965 5.97319C49.933 6.00419 49.916 6.03719 49.916 6.06819C49.885 6.09819 49.838 6.11419 49.776 6.11419C49.745 6.11419 49.713 6.11419 49.682 6.11419H49.636L49.588 6.16319C49.588 6.19419 49.573 6.21119 49.541 6.21119C49.541 6.24219 49.526 6.25719 49.495 6.25719H49.401C48.901 6.25719 48.399 6.25719 47.897 6.25719C47.897 6.29119 47.881 6.30519 47.852 6.30519V6.35219L47.805 6.39919C47.805 6.42919 47.788 6.44519 47.758 6.44519C47.695 6.44519 47.648 6.44519 47.617 6.44519C47.553 6.47719 47.476 6.50819 47.383 6.53919V6.63319C47.383 6.66419 47.383 6.69619 47.383 6.72619C47.383 6.75819 47.383 6.79019 47.383 6.82019V6.91419C49.668 6.91419 51.985 6.91419 54.332 6.91419V6.86819C54.332 6.83519 54.332 6.80519 54.332 6.77319C54.332 6.74119 54.332 6.71019 54.332 6.67919V6.53919C54.364 6.50819 54.379 6.47719 54.379 6.44519C54.408 6.41419 54.425 6.38219 54.425 6.35219C54.456 6.32019 54.487 6.30519 54.518 6.30519C54.55 6.30519 54.598 6.29019 54.659 6.25719C54.69 6.25719 54.737 6.24219 54.801 6.21119C54.832 6.17919 54.847 6.14819 54.847 6.11719C54.878 6.11719 54.911 6.11719 54.941 6.11719L54.988 6.07019V6.02119C54.988 5.99119 54.988 5.95819 54.988 5.92819V5.88119C54.988 5.85019 54.988 5.81819 54.988 5.78719C54.988 5.75619 54.988 5.72519 54.988 5.69319C54.988 5.66319 54.988 5.63119 54.988 5.60019C54.988 5.56919 54.988 5.53719 54.988 5.50619V5.45919C54.988 5.42819 54.988 5.39719 54.988 5.36619C54.988 5.33319 54.988 5.30219 54.988 5.27119L54.941 5.22419C54.911 5.19419 54.878 5.17819 54.847 5.17819V5.13119C54.847 5.09819 54.847 5.06619 54.847 5.03519C54.878 5.03519 54.895 5.01919 54.895 4.98819C54.926 4.95819 54.941 4.92619 54.941 4.89519C54.973 4.86319 55.004 4.83219 55.036 4.80019C55.066 4.80019 55.081 4.78419 55.081 4.75419C55.112 4.75419 55.144 4.73819 55.176 4.70819C55.207 4.67619 55.253 4.66219 55.316 4.66219C55.316 4.63119 55.316 4.59919 55.316 4.56819C55.347 4.56819 55.379 4.55019 55.411 4.51919C55.442 4.48819 55.458 4.45619 55.458 4.42619C55.488 4.39619 55.505 4.36319 55.505 4.33319L55.552 4.28619V4.23719C55.583 4.23719 55.615 4.23719 55.646 4.23719C55.646 4.20719 55.646 4.17619 55.646 4.14419L55.692 4.09819H55.738C55.771 4.09819 55.801 4.08219 55.834 4.05119C56.021 4.05119 56.223 4.03519 56.443 4.00519C56.475 4.00519 56.49 3.98919 56.49 3.95819C56.522 3.95819 56.554 3.95819 56.584 3.95819V3.90919C56.647 3.90919 56.709 3.90919 56.772 3.90919C56.835 3.94019 56.882 3.97219 56.913 4.00419L56.96 4.05019C56.991 4.05019 57.005 4.03419 57.005 4.00419C57.069 3.97219 57.116 3.95719 57.148 3.95719V3.90919C57.21 3.94019 57.273 3.97219 57.336 4.00419L57.383 4.05019C57.383 4.08119 57.399 4.09719 57.429 4.09719C57.429 4.12819 57.429 4.16019 57.429 4.19019C57.429 4.22319 57.429 4.25319 57.429 4.28519C57.429 4.31619 57.429 4.34719 57.429 4.37719C57.429 4.41019 57.429 4.44019 57.429 4.47219C57.429 4.50219 57.429 4.53419 57.429 4.56719C57.429 4.59719 57.429 4.63019 57.429 4.66119C57.429 4.69119 57.429 4.72319 57.429 4.75419V4.80019H57.476C57.506 4.80019 57.523 4.81619 57.523 4.84619H57.57C57.633 4.87919 57.695 4.90919 57.758 4.94119C57.758 4.97219 57.775 4.98719 57.805 4.98719C57.805 5.01819 57.821 5.03419 57.851 5.03419C57.851 5.06519 57.851 5.09719 57.851 5.13019C57.882 5.16119 57.913 5.17619 57.946 5.17619L57.992 5.22219V5.26919C57.992 5.30019 57.992 5.33219 57.992 5.36419C57.992 5.39519 57.992 5.42619 57.992 5.45719V5.50419C57.992 5.53419 57.992 5.56719 57.992 5.59819C57.992 5.63019 57.992 5.66119 57.992 5.69119C57.992 5.72319 57.992 5.75419 57.992 5.78519C57.992 5.81619 57.992 5.84819 57.992 5.87919V5.92519C57.992 5.95619 57.992 5.98819 57.992 6.01819C57.992 6.05119 57.992 6.08219 57.992 6.11319C57.992 6.14419 57.992 6.17619 57.992 6.20719V6.25319C57.992 6.28719 57.992 6.31619 57.992 6.34819V6.53519L58.087 6.58119C58.117 6.61319 58.148 6.62919 58.182 6.62919C58.244 6.66019 58.29 6.69219 58.322 6.72219C58.322 6.75419 58.337 6.78619 58.368 6.81619C58.399 6.84719 58.431 6.86419 58.462 6.86419V6.91019C58.462 6.94119 58.462 6.97319 58.462 7.00419V7.05019C65.849 7.05019 73.237 7.05019 80.624 7.05019C80.749 7.05019 80.86 7.05019 80.953 7.05019C81.047 7.08219 81.14 7.11319 81.235 7.14519C81.298 7.21219 81.376 7.25919 81.47 7.29019ZM59.025 15.0372C59.025 15.0062 59.025 14.9752 59.025 14.9422C59.025 14.9752 59.008 15.0062 58.979 15.0372H59.025ZM57.383 5.45919C57.383 5.49019 57.383 5.52119 57.383 5.55219C57.383 5.58419 57.383 5.61519 57.383 5.64719V5.69319C57.413 5.72319 57.429 5.75519 57.429 5.78719V5.69319C57.429 5.66319 57.429 5.63119 57.429 5.60019C57.429 5.56919 57.429 5.53719 57.429 5.50619V5.45919H57.383ZM55.411 6.53919L55.364 6.58519H55.411V6.53919ZM55.223 6.72619C55.286 6.69519 55.316 6.66419 55.316 6.63319C55.253 6.66419 55.19 6.69619 55.128 6.72619V6.77319C55.161 6.74219 55.19 6.72619 55.223 6.72619ZM48.085 4.37819C48.085 4.41119 48.085 4.44119 48.085 4.47319L48.132 4.51919V4.47319C48.132 4.44219 48.132 4.41119 48.132 4.37819C48.132 4.34719 48.132 4.31619 48.132 4.28619H48.085V4.37819ZM45.55 6.02119C45.455 6.02219 45.345 6.03919 45.221 6.07019C45.314 6.07019 45.409 6.07019 45.503 6.07019C45.503 6.03919 45.519 6.02319 45.55 6.02119ZM57.148 14.9912L57.101 14.9422V14.9912H57.148ZM22.73 11.6092V11.5162H22.682C22.682 11.5462 22.682 11.5782 22.682 11.6092H22.73ZM25.735 14.4272C25.767 14.4582 25.798 14.4732 25.83 14.4732V14.4272C25.793 14.4272 25.761 14.4272 25.735 14.4272ZM30.948 15.3652C30.916 15.4282 30.885 15.4762 30.854 15.5072C30.886 15.5072 30.931 15.5072 30.994 15.5072C30.994 15.4762 30.978 15.4442 30.948 15.4132V15.3652ZM11.79 9.59119H3.94901C3.94901 9.62319 3.94901 9.65419 3.94901 9.68519C3.98001 9.74719 3.99501 9.79519 3.99501 9.82619C3.99501 9.85619 3.99501 9.90419 3.99501 9.96619C3.99501 9.99819 4.01101 10.0452 4.04301 10.1082C4.04301 10.1402 4.04301 10.1872 4.04301 10.2482C4.07501 10.2802 4.09001 10.3272 4.09001 10.3892C4.12101 10.4522 4.15301 10.4992 4.18301 10.5312C4.18301 10.5932 4.19901 10.6562 4.23001 10.7182V10.7662C4.23001 10.8282 4.23001 10.8742 4.23001 10.9062C4.23001 10.9692 4.23001 11.0312 4.23001 11.0942C4.26101 11.1562 4.30901 11.2042 4.37101 11.2362C4.37101 11.2682 4.38701 11.3142 4.41701 11.3762V11.4232C4.48001 11.4232 4.55801 11.4232 4.65201 11.4232C4.71501 11.4862 4.77701 11.5632 4.84001 11.6572L5.54301 13.7222L6.76401 12.8322C6.85801 12.7692 6.95301 12.7382 7.04501 12.7382C7.14001 12.7682 7.20201 12.8152 7.23301 12.8782C7.26501 12.8482 7.29601 12.8152 7.32701 12.7832L7.42201 12.6902C7.45201 12.6582 7.46801 12.6272 7.46801 12.5962L7.51501 12.5492C7.54701 12.5492 7.57801 12.5342 7.61001 12.5032C7.64001 12.4712 7.65701 12.4402 7.65701 12.4072C7.75001 12.3772 7.82901 12.3452 7.89101 12.3142L7.93801 12.2682C7.97001 12.2682 8.00001 12.2522 8.03201 12.2202C8.06401 12.1902 8.09501 12.1582 8.12501 12.1262C8.15701 12.0942 8.18801 12.0792 8.21901 12.0792C8.24901 12.0482 8.29801 12.0332 8.36001 12.0332C8.36001 12.0022 8.39101 11.9702 8.45401 11.9402C8.48601 11.9082 8.51701 11.8752 8.54701 11.8452C8.57901 11.8142 8.61101 11.7822 8.64201 11.7512C8.70501 11.7202 8.75101 11.6892 8.78201 11.6572H8.87801C8.91101 11.6572 8.95701 11.6422 9.01901 11.6102C9.01901 11.5792 9.03401 11.5472 9.06701 11.5172C9.09801 11.5172 9.13001 11.5012 9.16001 11.4712C9.19101 11.4402 9.22201 11.4232 9.25401 11.4232C9.25401 11.3922 9.27001 11.3602 9.30101 11.3292C9.36401 11.2982 9.41001 11.2682 9.44201 11.2362L9.48901 11.1882C9.52001 11.1562 9.56701 11.1242 9.63101 11.0942C9.69301 11.0622 9.72401 11.0312 9.72401 11.0002C9.78701 10.9692 9.83301 10.9372 9.86601 10.9062H9.91201C9.94401 10.8742 9.96001 10.8442 9.96001 10.8122C9.99101 10.7812 10.022 10.7492 10.053 10.7172C10.084 10.7172 10.116 10.7172 10.146 10.7172C10.179 10.6852 10.226 10.6552 10.289 10.6232C10.319 10.5922 10.334 10.5602 10.334 10.5302C10.366 10.4982 10.398 10.4822 10.431 10.4822C10.431 10.4512 10.445 10.4202 10.476 10.3882C10.538 10.3882 10.584 10.3752 10.616 10.3422C10.648 10.3102 10.678 10.2792 10.708 10.2472C10.74 10.2472 10.773 10.2332 10.803 10.2012C10.835 10.1712 10.866 10.1392 10.898 10.1072C10.928 10.0752 10.975 10.0442 11.039 10.0122C11.07 10.0122 11.102 9.99719 11.132 9.96619C11.195 9.93619 11.242 9.90419 11.274 9.87219C11.305 9.84119 11.351 9.82619 11.414 9.82619H11.461C11.492 9.79519 11.508 9.76319 11.508 9.73219C11.571 9.70119 11.616 9.66919 11.649 9.63819C11.678 9.60819 11.726 9.59319 11.79 9.59119Z" fill="#9FB1C9"/>
</g>
<defs>
<clipPath id="clip0_28409_24654">
<rect width="81.466" height="32" fill="white" transform="translate(0.708008)"/>
</clipPath>
</defs>
</svg>
