<svg width="101" height="33" viewBox="0 0 101 33" fill="none" xmlns="http://www.w3.org/2000/svg">
<g clip-path="url(#clip0_28409_24673)">
<path fill-rule="evenodd" clip-rule="evenodd" d="M98.3709 7.30889C98.3709 7.35589 98.3829 7.40489 98.4058 7.45189C98.4058 7.49989 98.4058 7.54789 98.4058 7.59689C98.4058 7.61889 98.4058 7.65689 98.4058 7.70289C98.4058 7.75189 98.4058 7.79889 98.4058 7.84789V8.17089C98.9554 8.17089 99.5031 8.17089 100.053 8.17089C100.125 8.17089 100.183 8.18189 100.23 8.20589C100.256 8.20589 100.278 8.21789 100.303 8.24189H100.339V8.20589C100.363 8.20589 100.386 8.20589 100.411 8.20589C100.458 8.22889 100.519 8.25489 100.59 8.27589C100.613 8.29989 100.637 8.33789 100.66 8.38489C100.685 8.38489 100.698 8.40789 100.698 8.45489C100.722 8.47889 100.733 8.50389 100.733 8.52789V8.59889C100.709 8.64689 100.698 8.68189 100.698 8.70589C100.68 8.72289 100.669 8.74789 100.66 8.77889C100.686 8.77889 100.709 8.77889 100.733 8.77889C100.733 8.82589 100.733 8.87289 100.733 8.92189C100.733 8.96989 100.733 9.01789 100.733 9.06589C100.733 9.11389 100.733 9.16189 100.733 9.20989C100.733 9.23289 100.733 9.26989 100.733 9.31689C100.733 9.34689 100.733 9.37689 100.733 9.40689C100.745 9.41989 100.757 9.43589 100.769 9.46089C100.793 9.48489 100.806 9.52089 100.806 9.56789L100.841 9.60489C100.841 9.65189 100.841 9.68889 100.841 9.71189C100.841 9.73489 100.841 9.77189 100.841 9.81889V9.88989C100.841 9.91389 100.83 9.93689 100.806 9.96189C100.783 9.98389 100.758 10.0089 100.734 10.0319C100.734 10.0689 100.734 10.1039 100.734 10.1409C100.734 10.1869 100.734 10.2359 100.734 10.2839C100.734 10.3079 100.734 10.3439 100.734 10.3909C100.734 10.4379 100.734 10.4879 100.734 10.5359C100.734 10.5829 100.734 10.6319 100.734 10.6789C100.734 10.7269 100.734 10.7739 100.734 10.8229C100.734 10.8469 100.734 10.8709 100.734 10.8949C100.559 10.8949 100.387 10.8949 100.215 10.8949L100.231 10.9299C100.231 10.9539 100.244 10.9789 100.269 11.0019C100.291 11.0259 100.316 11.0499 100.34 11.0739C100.34 11.1219 100.34 11.1579 100.34 11.1799L100.321 11.1979C97.2078 11.1869 94.0986 11.1809 90.9973 11.1799C90.9505 11.2049 90.9145 11.2289 90.8906 11.2529C90.747 11.2589 90.6033 11.2649 90.4607 11.2699C90.4607 11.2999 90.4607 11.3309 90.4607 11.3599H90.4268V11.3249C90.4268 11.3049 90.4268 11.2889 90.4268 11.2699C90.0318 11.2919 89.6367 11.3159 89.2447 11.3419V11.3599C89.1968 11.3599 89.149 11.3599 89.1011 11.3599C89.1011 11.3839 89.1011 11.4099 89.1011 11.4319C88.9265 11.4259 88.755 11.4189 88.5814 11.4129C88.5634 11.4329 88.5465 11.4499 88.5285 11.4679C88.5046 11.5149 88.4926 11.5629 88.4926 11.6109C88.4577 11.6179 88.4208 11.6259 88.3859 11.6309C88.3859 11.6749 88.3859 11.7159 88.3859 11.7549C88.3859 11.8039 88.3859 11.8519 88.3859 11.8999C88.3859 11.9229 88.3859 11.9599 88.3859 12.0069C88.3859 12.0539 88.3859 12.1039 88.3859 12.1509V12.1699C88.4467 12.1739 88.5066 12.1789 88.5634 12.1879C88.5634 12.2359 88.5634 12.2839 88.5634 12.3319C88.5634 12.3799 88.5634 12.4279 88.5634 12.4759C88.5634 12.5229 88.5634 12.5719 88.5634 12.6199C88.5634 12.6429 88.5634 12.6789 88.5634 12.7259C88.5634 12.7749 88.5634 12.8229 88.5634 12.8699C88.5634 12.9189 88.5634 12.9679 88.5634 13.0149C88.5634 13.0629 88.5634 13.1109 88.5634 13.1589C88.5634 13.1819 88.5634 13.2199 88.5634 13.2649C88.5634 13.3149 88.5634 13.3609 88.5634 13.4099C88.5634 13.4589 88.5634 13.5059 88.5634 13.5549C88.5634 13.6019 88.5634 13.6489 88.5634 13.6969C88.5634 13.7209 88.5634 13.7579 88.5634 13.8049C88.5634 13.8519 88.5634 13.9019 88.5634 13.9499C88.5634 13.9979 88.5634 14.0439 88.5634 14.0929C88.5634 14.1409 88.5634 14.1889 88.5634 14.2369C88.5634 14.2599 88.5634 14.2849 88.5634 14.3089C88.4457 14.3059 88.326 14.3059 88.2063 14.3089C88.2063 14.3419 88.2063 14.3769 88.2063 14.4159C88.2063 14.4389 88.2063 14.4639 88.2063 14.4879C88.0876 14.4879 87.9669 14.4879 87.8492 14.4879C87.6457 14.4879 87.4432 14.4879 87.2407 14.4879V14.5229C87.2407 14.5459 87.2407 14.5719 87.2407 14.5949C87.2407 14.6179 87.2278 14.6429 87.2038 14.6659C87.1809 14.6909 87.1679 14.7269 87.1679 14.7739C87.145 14.7979 87.121 14.8089 87.0981 14.8089C87.0732 14.8089 87.0492 14.8219 87.0243 14.8459C87.0013 14.8679 86.9774 14.8809 86.9544 14.8809L86.9185 14.9159C86.8707 14.9399 86.8228 14.9509 86.7739 14.9509C86.7021 14.9509 86.6313 14.9509 86.5594 14.9509C86.5116 14.9509 86.4647 14.9509 86.4168 14.9509V14.9869C86.1774 15.0359 85.939 15.0849 85.7006 15.1319C85.7006 15.1549 85.7006 15.1799 85.7006 15.2029C85.4861 15.2269 85.2836 15.2639 85.0921 15.3109C85.0442 15.3339 85.0083 15.3589 84.9844 15.3809C84.3639 15.4049 83.7435 15.4429 83.124 15.4889C83.0761 15.5119 83.0392 15.5379 83.0163 15.5609C82.5255 15.5479 82.0377 15.5349 81.548 15.5259C81.524 15.5489 81.5001 15.5729 81.4762 15.5969H81.4392C81.3924 15.6219 81.3315 15.6329 81.2607 15.6329C77.9031 15.6329 74.5455 15.6329 71.1849 15.6329C71.0742 15.6439 70.9604 15.6549 70.8447 15.6689C70.8447 15.6919 70.8447 15.7159 70.8447 15.7389C70.32 15.7629 69.7824 15.7999 69.2327 15.8469C69.2327 15.8699 69.2327 15.8949 69.2327 15.9179C68.6612 15.9409 68.0996 15.9779 67.551 16.0249C67.5041 16.0489 67.4682 16.0729 67.4442 16.0979C66.9904 16.1209 66.5485 16.1569 66.1195 16.2039C66.0717 16.2279 66.0358 16.2519 66.0118 16.2759C65.6068 16.2989 65.1889 16.3359 64.7599 16.3839C64.7599 16.4069 64.7599 16.4309 64.7599 16.4549C64.2821 16.4779 63.8043 16.5149 63.3265 16.5619C63.3265 16.5849 63.3265 16.6099 63.3265 16.6329C62.8737 16.6569 62.4318 16.6929 62.0018 16.7399C61.955 16.7629 61.919 16.7889 61.8951 16.8119C61.3215 16.8359 60.7609 16.8729 60.2123 16.9179C60.1654 16.9419 60.1285 16.9669 60.1046 16.9899C59.3654 16.9669 58.6372 16.9549 57.921 16.9549C57.8981 16.9309 57.8622 16.8949 57.8143 16.8479C57.4323 16.8239 57.0512 16.7999 56.6692 16.7759C56.6452 16.7519 56.6093 16.7149 56.5624 16.6679C56.4427 16.6449 56.3131 16.6209 56.1684 16.5969C56.1684 16.5729 56.1684 16.5369 56.1684 16.4889C56.0487 16.4679 55.93 16.4429 55.8103 16.4199C55.8103 16.3959 55.8103 16.3579 55.8103 16.3109C55.7624 16.2889 55.7036 16.2639 55.6328 16.2399C55.6328 16.2169 55.6328 16.1799 55.6328 16.1329C55.5131 16.1099 55.3934 16.0849 55.2747 16.0609C55.2747 16.0379 55.2747 16.0009 55.2747 15.9539C55.2268 15.9299 55.1669 15.9059 55.0951 15.8819C55.0712 15.8339 55.0582 15.7859 55.0582 15.7379C55.0353 15.6909 54.9993 15.6439 54.9535 15.5949C54.9056 15.5469 54.8687 15.5099 54.8447 15.4869C54.751 15.4399 54.6532 15.3909 54.5584 15.3429C54.5355 15.2949 54.5225 15.2479 54.5225 15.1989C54.4976 15.1509 54.4617 15.1039 54.4148 15.0539C51.9011 15.0749 49.3854 15.0989 46.8617 15.1269C46.8617 15.1499 46.8617 15.1749 46.8617 15.1979C46.0737 15.1749 45.2856 15.1619 44.4996 15.1619C44.4757 15.1389 44.4387 15.1029 44.3919 15.0539C44.2722 15.0319 44.1415 15.0069 43.9978 14.9829C43.9978 14.9559 43.9978 14.9249 43.9978 14.8949C43.9769 14.9059 43.954 14.9119 43.926 14.9119C43.926 14.9359 43.9151 14.9469 43.8911 14.9469L43.7844 15.0539C43.7604 15.0799 43.7365 15.0909 43.7116 15.0909C43.7116 15.1149 43.6996 15.1269 43.6757 15.1269C43.6757 15.1499 43.6637 15.1619 43.6397 15.1619L43.6048 15.1979C43.5799 15.1979 43.555 15.2109 43.532 15.2339H43.4971C43.4492 15.2579 43.4143 15.2709 43.3894 15.2709L43.3545 15.3059H43.3185V15.3409L43.2467 15.3759L43.2108 15.4119H43.1919C43.1759 15.4169 43.1579 15.4289 43.14 15.4489H43.1021C43.0542 15.4719 43.0193 15.4839 42.9954 15.4839C42.9954 15.5069 42.9844 15.5209 42.9594 15.5209C42.9365 15.5209 42.9235 15.5329 42.9235 15.5559C42.9006 15.5559 42.8876 15.5679 42.8876 15.5919C42.8637 15.5919 42.8517 15.6039 42.8517 15.6279C42.8288 15.6279 42.8148 15.6409 42.8148 15.6639C42.7919 15.6639 42.7679 15.6749 42.745 15.6999C42.721 15.6999 42.7091 15.7109 42.7091 15.7339C42.6841 15.7339 42.6612 15.7459 42.6372 15.7699H42.6003C42.6003 15.7939 42.5884 15.8059 42.5654 15.8059C42.5425 15.8289 42.5185 15.8419 42.4946 15.8419C42.4946 15.8649 42.4826 15.8769 42.4577 15.8769V15.9129C42.337 15.9359 42.2183 15.9489 42.0996 15.9489L42.0637 15.9839C42.0387 16.0079 42.0148 16.0199 41.9909 16.0199L41.92 16.0929V16.1279L41.8841 16.1629V16.1989C41.8363 16.2229 41.8003 16.2349 41.7774 16.2349L41.7415 16.2709V16.3059H41.7066C41.6826 16.3299 41.6587 16.3419 41.6348 16.3419L41.527 16.4499V16.5199C41.4791 16.5449 41.4442 16.5569 41.4193 16.5569L41.3475 16.6279V16.6999C41.2996 16.7219 41.2637 16.7349 41.2397 16.7349C41.2168 16.7579 41.1929 16.7709 41.1679 16.7709V16.8429C41.122 16.8429 41.0851 16.8429 41.0602 16.8429V16.8789C41.0372 16.9019 41.0133 16.9129 40.9894 16.9129C40.9894 16.9369 40.9784 16.9499 40.9545 16.9499C40.9305 16.9499 40.9195 16.9619 40.9195 16.9849L40.8816 17.0339V17.1039C40.8148 17.1039 40.743 17.1039 40.6692 17.1039C40.6692 17.1279 40.6562 17.1409 40.6323 17.1409V17.2109C40.6083 17.2109 40.5724 17.2109 40.5255 17.2109C40.5016 17.2359 40.4776 17.2489 40.4537 17.2489C40.3829 17.2719 40.2991 17.2839 40.2043 17.2839C40.1315 17.3069 40.0497 17.3189 39.953 17.3189V17.3909C39.8821 17.3909 39.8103 17.3909 39.7385 17.3909C39.6916 17.4139 39.6437 17.4269 39.5959 17.4269C39.3086 17.4499 39.0233 17.4619 38.737 17.4619C38.4517 17.4619 38.1764 17.4619 37.9131 17.4619C37.8662 17.4619 37.8163 17.4499 37.7684 17.4269C37.7215 17.4269 37.6856 17.4139 37.6627 17.3909C37.6377 17.3909 37.6148 17.3789 37.5899 17.3549V17.3189C37.545 17.2969 37.4971 17.2839 37.4472 17.2839C37.4712 17.2839 37.4831 17.2969 37.4831 17.3189V17.6059C37.4951 17.6189 37.5071 17.6299 37.52 17.6419L37.556 17.6779V17.7139C37.556 17.7619 37.556 17.7969 37.556 17.8209C37.543 17.8329 37.532 17.8449 37.52 17.8569C37.5071 17.8449 37.4961 17.8329 37.4831 17.8209C37.2926 17.8209 37.0901 17.8209 36.8737 17.8209C36.8497 17.8209 36.8138 17.8089 36.7659 17.7849L36.6961 17.7139V17.6419C36.6482 17.6189 36.6113 17.6059 36.5884 17.6059V17.5699L36.5535 17.5349V17.4989C36.5285 17.4989 36.5165 17.4869 36.5165 17.4629L36.4806 17.4279C36.4567 17.4279 36.4318 17.4149 36.4088 17.3919C36.4088 17.3669 36.3979 17.3559 36.3729 17.3559V17.2849L36.337 17.2499V17.2119L36.1215 16.9969V16.9619C36.0976 16.9619 36.0866 16.9489 36.0866 16.9249L36.0138 16.8549V16.8189C36.0138 16.7959 36.0018 16.7829 35.9779 16.7829V16.7119C35.955 16.6889 35.931 16.6749 35.9081 16.6749L35.8722 16.6399C35.8722 16.6169 35.8602 16.6039 35.8353 16.6039V16.5689C35.8133 16.5689 35.8003 16.5569 35.8003 16.5319V16.4939L35.7644 16.4599V16.4249C35.7405 16.4249 35.7295 16.4119 35.7295 16.3889L35.6916 16.3519V16.3159H35.6557V16.2809C35.6557 16.2569 35.6437 16.2449 35.6198 16.2449C35.6198 16.2219 35.6078 16.2089 35.5839 16.2089L35.5121 16.1379V16.1029C35.5121 16.0779 35.4991 16.0659 35.4762 16.0659V16.0299L35.4402 15.9939V15.7789H35.4043C35.4043 15.7549 35.3934 15.7429 35.3684 15.7429V15.7089L35.3325 15.6729V15.6339H35.2986C35.2377 15.6289 35.1789 15.6169 35.12 15.5979C34.6891 15.5979 34.2722 15.5979 33.8662 15.5979C33.6338 15.6159 33.4073 15.6269 33.1849 15.6339V15.6699C33.138 15.6699 33.0911 15.6699 33.0422 15.6699C32.9704 15.6929 32.8996 15.7169 32.8278 15.7399C32.5654 15.7639 32.2901 15.7879 32.0038 15.8119C31.9799 15.8119 31.944 15.8239 31.8961 15.8479C31.8482 15.8479 31.8133 15.8599 31.7894 15.8829C31.7175 15.8829 31.6707 15.8959 31.6457 15.9189C31.6218 15.9189 31.5978 15.9309 31.5749 15.9549C31.5021 15.9549 31.4542 15.9679 31.4313 15.9899C31.3834 16.0139 31.3475 16.0259 31.3235 16.0259C31.2766 16.0499 31.2278 16.0619 31.1809 16.0619C31.1101 16.0859 31.0612 16.1109 31.0382 16.1339C30.9654 16.1569 30.8946 16.1819 30.8228 16.2049C30.8228 16.2289 30.7998 16.2529 30.752 16.2769C30.7041 16.2769 30.6682 16.2899 30.6442 16.3119C30.5973 16.3359 30.5614 16.3599 30.5375 16.3849C30.4896 16.4079 30.4417 16.4209 30.3949 16.4209V16.4559C30.3809 16.4639 30.3629 16.4689 30.341 16.4749C30.339 16.4929 30.331 16.5099 30.323 16.5269C30.2991 16.5519 30.2752 16.5749 30.2512 16.5989L30.2153 16.6349H30.1784V16.6699C30.1315 16.7179 30.0836 16.7659 30.0368 16.8149C29.9879 16.8629 29.941 16.9109 29.8931 16.9589C29.8213 17.0069 29.7495 17.0559 29.6776 17.1019C29.6776 17.1259 29.6776 17.1639 29.6776 17.2089C29.6776 17.2579 29.6776 17.2939 29.6776 17.3169V17.3529C29.6308 17.3769 29.5719 17.4129 29.4981 17.4599C29.4981 17.4839 29.4981 17.5079 29.4981 17.5319C29.4512 17.5549 29.3914 17.5919 29.3185 17.6389C29.3185 17.6629 29.3185 17.6989 29.3185 17.7469C29.3185 17.7939 29.3185 17.8299 29.3185 17.8539V17.8889C29.2717 17.9129 29.2128 17.9499 29.14 17.9969C29.14 18.0199 29.14 18.0569 29.14 18.1039C29.14 18.1529 29.14 18.1879 29.14 18.2109V18.2459C29.0941 18.2699 29.0333 18.3069 28.9604 18.3539C28.9604 18.3779 28.9604 18.4139 28.9604 18.4609C28.9604 18.5079 28.9604 18.5569 28.9604 18.6059C28.9604 18.6529 28.9604 18.7019 28.9604 18.7499C28.9604 18.7979 28.9604 18.8449 28.9604 18.8929C28.9604 18.9169 28.9604 18.9539 28.9604 18.9999C28.9604 19.0479 28.9604 19.0959 28.9604 19.1439C28.9604 19.1919 28.9604 19.2399 28.9604 19.2889C28.9604 19.3359 28.9604 19.3849 28.9604 19.4319C28.9604 19.4559 28.9604 19.4929 28.9604 19.5399C28.9604 19.5869 28.9604 19.6359 28.9604 19.6819C28.9604 19.7319 28.9604 19.7799 28.9604 19.8269C28.9604 19.8749 28.9604 19.9239 28.9604 19.9709C28.9375 19.9939 28.9255 20.0319 28.9255 20.0789C28.9026 20.1269 28.8657 20.1629 28.8178 20.1859L28.7829 20.2219C28.723 20.2199 28.6632 20.2199 28.6033 20.2219C28.5794 20.2449 28.5664 20.2709 28.5664 20.2929C28.5425 20.3419 28.5195 20.3779 28.4946 20.4009L28.4238 20.4359C28.3749 20.4359 28.316 20.4489 28.2452 20.4719H28.1724C28.1016 20.4489 28.0288 20.4359 27.9579 20.4359C27.936 20.3879 27.9111 20.3519 27.8871 20.3299C27.8632 20.3059 27.8512 20.2699 27.8512 20.2219V20.2049C27.6846 20.1969 27.518 20.1919 27.3505 20.1849V20.2209C27.3016 20.2439 27.2427 20.2819 27.1709 20.3289C27.1709 20.3509 27.1709 20.3769 27.1709 20.3999C27.1111 20.4119 27.0522 20.4279 26.9924 20.4529C26.9924 20.4789 26.9924 20.5109 26.9924 20.5439C26.9924 20.5929 26.9924 20.6399 26.9924 20.6879C26.9924 20.7109 26.9924 20.7349 26.9924 20.7589C26.9445 20.7829 26.8846 20.8189 26.8128 20.8659C26.8128 20.8889 26.8128 20.9139 26.8128 20.9369C26.5335 20.9289 26.2512 20.9229 25.9719 20.9199C25.5839 20.9079 25.1968 20.9029 24.8088 20.9009C24.8088 20.9249 24.8088 20.9479 24.8088 20.9719C24.8308 20.9949 24.8567 21.0199 24.8796 21.0439C24.9036 21.0679 24.9395 21.1049 24.9864 21.1509C25.0103 21.1749 25.0213 21.1989 25.0213 21.2219V21.2599L25.0582 21.2939C25.0582 21.3429 25.0582 21.3779 25.0582 21.4009C25.0343 21.4259 25.0213 21.4499 25.0213 21.4739C24.9983 21.4959 24.9864 21.5329 24.9864 21.5799C24.9634 21.6039 24.9395 21.6149 24.9146 21.6149C24.8906 21.6149 24.8667 21.6149 24.8427 21.6149C24.8188 21.6389 24.7829 21.6519 24.735 21.6519C24.6632 21.6519 24.6153 21.6519 24.5924 21.6519C24.5195 21.6279 24.4487 21.6149 24.3779 21.6149C24.353 21.5919 24.318 21.5679 24.2702 21.5449C24.2462 21.4959 24.2223 21.4609 24.1983 21.4379C24.1744 21.4379 24.1505 21.4129 24.1265 21.3659C24.1265 21.3429 24.1265 21.3049 24.1265 21.2599V21.2219C24.1265 21.1749 24.1265 21.1389 24.1265 21.1159C24.1265 21.0679 24.1265 21.0319 24.1265 21.0089C24.1036 21.0089 24.0786 20.9839 24.0557 20.9359C24.0557 20.9129 24.0427 20.8879 24.0198 20.8649C24.0198 20.8409 24.0198 20.8169 24.0198 20.7939C23.9729 20.7459 23.936 20.7099 23.9121 20.6869C23.8642 20.6629 23.8412 20.6389 23.8412 20.6149C23.8412 20.5929 23.8293 20.5669 23.8053 20.5439C23.7804 20.4959 23.7565 20.4599 23.7335 20.4359C23.7096 20.4129 23.6856 20.3879 23.6617 20.3649C23.6387 20.3419 23.6268 20.3049 23.6268 20.2569C23.6028 20.2339 23.5899 20.2099 23.5899 20.1859V20.1499C23.519 20.1269 23.4462 20.1019 23.3754 20.0789C23.3505 20.0309 23.3275 20.0069 23.3036 20.0069C23.2806 19.9839 23.2567 19.9479 23.2328 19.9009C23.1609 19.8759 23.1011 19.8519 23.0542 19.8279C22.9814 19.8279 22.9096 19.8279 22.8397 19.8279C22.7909 19.8279 22.732 19.8399 22.6602 19.8639C22.6123 19.8399 22.5535 19.8279 22.4816 19.8279C22.4577 19.8049 22.4348 19.7809 22.4098 19.7579C22.3869 19.7089 22.3629 19.6729 22.338 19.6499C22.338 19.6259 22.338 19.6009 22.338 19.5779C22.338 19.5559 22.338 19.5309 22.338 19.5069V19.4349C22.338 19.3879 22.338 19.3519 22.338 19.3279C22.338 19.3099 22.338 19.2859 22.338 19.2569C22.2422 19.2799 22.1584 19.3159 22.0876 19.3639C21.9919 19.4119 21.8971 19.4599 21.8013 19.5079C21.8013 19.5569 21.8013 19.6029 21.8013 19.6519C21.7056 19.6999 21.6218 19.7489 21.551 19.7969C21.4552 19.8189 21.3594 19.8429 21.2627 19.8669C21.145 19.8899 21.0263 19.9279 20.9066 19.9739C20.8587 19.9969 20.7998 20.0219 20.727 20.0459C20.6323 20.0689 20.5485 20.1059 20.4776 20.1529C20.4308 20.1769 20.3939 20.2009 20.3709 20.2249C20.2522 20.2479 20.1315 20.2859 20.0128 20.3329C20.0128 20.3549 20.0128 20.3809 20.0128 20.4039C19.8941 20.4269 19.7734 20.4639 19.6547 20.5109C19.6547 20.5329 19.6547 20.5589 19.6547 20.5819C19.535 20.6069 19.4163 20.6429 19.2976 20.6899C19.2976 20.7129 19.2976 20.7369 19.2976 20.7609C19.154 20.7849 19.0113 20.8209 18.8667 20.8679C18.8198 20.8909 18.7839 20.9159 18.7599 20.9389C18.7121 20.9629 18.6542 20.9989 18.5804 21.0469C18.5804 21.0709 18.5804 21.0959 18.5804 21.1189C18.4377 21.1419 18.2951 21.1789 18.1515 21.2249C18.1046 21.2489 18.0687 21.2739 18.0437 21.2969C17.925 21.3209 17.8053 21.3569 17.6876 21.4039C17.6876 21.4289 17.6876 21.4529 17.6876 21.4769C17.5669 21.4989 17.4492 21.5359 17.3295 21.5829C17.3295 21.6069 17.3295 21.6309 17.3295 21.6549C17.1859 21.6769 17.0422 21.7149 16.9006 21.7619C16.8527 21.7849 16.8168 21.8099 16.7919 21.8329C16.6742 21.8569 16.5535 21.8939 16.4358 21.9419C16.4358 21.9639 16.4358 21.9879 16.4358 22.0119C16.3879 22.0359 16.327 22.0719 16.2552 22.1199V22.1909C16.1614 22.2149 16.0766 22.2509 16.0048 22.2979C15.9589 22.3219 15.921 22.3459 15.8971 22.3699C15.7784 22.3929 15.6587 22.4309 15.54 22.4769C15.54 22.4999 15.54 22.5239 15.54 22.5479C15.4193 22.5709 15.3016 22.6089 15.1819 22.6549C15.1819 22.6779 15.1819 22.7039 15.1819 22.7269C15.0861 22.7499 15.0033 22.7879 14.9305 22.8339C14.8826 22.8579 14.8477 22.8829 14.8248 22.9059C14.728 22.9289 14.6452 22.9659 14.5724 23.0129C14.5255 23.0369 14.4896 23.0619 14.4657 23.0849C14.3709 23.1089 14.2871 23.1449 14.2153 23.1919C14.1684 23.2149 14.1315 23.2399 14.1076 23.2639C14.0597 23.2859 14.0008 23.3239 13.929 23.3709C13.929 23.3939 13.929 23.4179 13.929 23.4409C13.8093 23.4649 13.6916 23.5019 13.5719 23.5499C13.5719 23.5739 13.5719 23.5979 13.5719 23.6199C13.4522 23.6449 13.3335 23.6809 13.2128 23.7289C13.2128 23.7519 13.2128 23.7759 13.2128 23.7999C13.0941 23.8219 12.9734 23.8599 12.8567 23.9069C12.8567 23.9299 12.8567 23.9549 12.8567 23.9779C12.6891 24.0009 12.5096 24.0379 12.319 24.0849C12.319 24.1089 12.319 24.1329 12.319 24.1569C12.2233 24.1799 12.1395 24.2179 12.0677 24.2639C12.0198 24.2869 11.9849 24.3129 11.9619 24.3359C11.8422 24.3599 11.7225 24.3959 11.6038 24.4429C11.6038 24.4659 11.6038 24.4909 11.6038 24.5149C11.4841 24.5379 11.3644 24.5759 11.2447 24.6219C11.2447 24.6449 11.2447 24.6689 11.2447 24.6929C11.126 24.7169 11.0063 24.7539 10.8876 24.7999C10.8876 24.8229 10.8876 24.8489 10.8876 24.8709C10.72 24.8959 10.5415 24.9319 10.351 24.9789C10.351 25.0019 10.351 25.0269 10.351 25.0509C10.2313 25.0739 10.1106 25.1109 9.99286 25.1569C9.99286 25.1819 9.99286 25.2059 9.99286 25.2299C9.87316 25.2529 9.75445 25.2899 9.63376 25.3369C9.63376 25.3599 9.63376 25.3849 9.63376 25.4079C9.51505 25.4309 9.39635 25.4679 9.27665 25.5159C9.27665 25.5389 9.27665 25.5629 9.27665 25.5869C9.15695 25.6089 9.03825 25.6469 8.91854 25.6949C8.91854 25.7179 8.91854 25.7419 8.91854 25.7659C8.82378 25.7889 8.73899 25.8249 8.66817 25.8729C8.62129 25.8959 8.58438 25.9209 8.56144 25.9439C8.44174 25.9679 8.32104 26.0049 8.20234 26.0529C8.20234 26.0749 8.20234 26.0999 8.20234 26.1229C8.08363 26.1469 7.96393 26.1839 7.84523 26.2309C7.84523 26.2539 7.84523 26.2779 7.84523 26.3019C7.67864 26.3249 7.49909 26.3629 7.30757 26.4089C7.30757 26.4319 7.30757 26.4569 7.30757 26.4809C7.16393 26.5029 7.02129 26.5409 6.87864 26.5869C6.83076 26.6109 6.79386 26.6359 6.77091 26.6589C6.62727 26.6819 6.48463 26.7199 6.34199 26.7649C6.29411 26.7889 6.2572 26.8149 6.23426 26.8379C6.11555 26.8609 5.99485 26.8989 5.87715 26.9449C5.87715 26.9679 5.87715 26.9939 5.87715 27.0169C5.78039 27.0139 5.68563 27.0139 5.58987 27.0169C5.58987 27.0409 5.58987 27.0769 5.58987 27.1239C5.58987 27.1469 5.58987 27.1839 5.58987 27.2309V27.2659C5.56593 27.3149 5.54199 27.3499 5.51805 27.3739L5.48214 27.4099C5.45919 27.4099 5.44523 27.4219 5.44523 27.4449C5.42229 27.4449 5.38637 27.4569 5.33949 27.4809C5.29161 27.4809 5.2557 27.4809 5.23276 27.4809C5.18488 27.4569 5.137 27.4329 5.08912 27.4099H5.05221C5.02927 27.4099 4.99136 27.4099 4.94448 27.4099C4.8976 27.4329 4.84972 27.4569 4.80184 27.4809C4.75495 27.4809 4.70707 27.4809 4.6582 27.4809C4.61231 27.4569 4.55146 27.4329 4.47964 27.4099C4.4557 27.4099 4.43276 27.3869 4.40982 27.3379V27.3029C4.38488 27.2779 4.36094 27.2539 4.337 27.2309C4.337 27.2539 4.337 27.2779 4.337 27.3029V27.3379C4.31306 27.3619 4.29012 27.3869 4.26518 27.4099L4.22927 27.4809C4.22927 27.5049 4.2173 27.5419 4.19336 27.5879C4.14448 27.6109 4.0976 27.6249 4.04972 27.6249C4.00184 27.6469 3.94298 27.6729 3.87116 27.6949C3.7764 27.6949 3.66767 27.6949 3.54897 27.6949C3.47715 27.6729 3.41929 27.6469 3.36942 27.6249C3.34548 27.6249 3.32154 27.6249 3.2976 27.6249C3.25071 27.5999 3.20184 27.5759 3.15396 27.5519C3.13002 27.5289 3.10608 27.5049 3.08413 27.4809C3.03525 27.4569 2.9754 27.4329 2.90458 27.4099C2.8567 27.4099 2.83276 27.3969 2.83276 27.3739C2.738 27.3499 2.66618 27.3249 2.6183 27.3029C2.57042 27.3069 2.52154 27.2839 2.47465 27.2599C2.45071 27.2369 2.42578 27.2119 2.40283 27.1889C2.35495 27.1399 2.31904 27.1049 2.2951 27.0819C2.27116 27.0569 2.26019 27.0339 2.26019 27.0099C2.26019 26.9839 2.24722 26.9489 2.22328 26.9019C2.22328 26.8789 2.21131 26.8539 2.18837 26.8299C2.18837 26.8049 2.1754 26.7819 2.15146 26.7589C2.15146 26.7349 2.13949 26.6989 2.11655 26.6519V26.5799C2.11655 26.5569 2.11655 26.5309 2.11655 26.5089V26.4369C2.11655 26.4139 2.11655 26.3779 2.11655 26.3299C2.11655 26.3059 2.11655 26.2819 2.11655 26.2589C2.11655 26.2349 2.11655 26.2109 2.11655 26.1869C2.11655 26.1389 2.11655 26.1029 2.11655 26.0809C2.11655 26.0559 2.11655 26.0319 2.11655 26.0069C2.11655 25.9839 2.11655 25.9479 2.11655 25.9009C2.11655 25.8779 2.10558 25.8519 2.08164 25.8289C2.0567 25.8049 2.04473 25.7809 2.04473 25.7579C2.02179 25.7109 2.00882 25.6739 2.00882 25.6489V25.5789C2.00882 25.5559 2.00882 25.5309 2.00882 25.5079V25.4359C2.00882 25.3879 2.00882 25.3529 2.00882 25.3289C2.00882 25.3059 2.00882 25.2809 2.00882 25.2579C2.00882 25.2339 2.00882 25.1969 2.00882 25.1499C2.00882 25.1279 2.00882 25.1019 2.00882 25.0789C1.98488 25.0549 1.97291 25.0299 1.97291 25.0069C1.94997 24.9829 1.92603 24.9469 1.90209 24.8989C1.90209 24.8769 1.89012 24.8509 1.86518 24.8279C1.86518 24.8029 1.86518 24.7809 1.86518 24.7579C1.86518 24.7089 1.86518 24.6729 1.86518 24.6499V24.5779C1.86518 24.5549 1.86518 24.5179 1.86518 24.4709V24.4349C1.86518 24.3879 1.86518 24.3509 1.86518 24.3269V24.2569C1.86518 24.2329 1.86518 24.1969 1.86518 24.1499C1.86518 24.1249 1.86518 24.1009 1.86518 24.0779C1.86518 24.0539 1.86518 24.0289 1.86518 24.0059C1.86518 23.9579 1.86518 23.9229 1.86518 23.8989C1.86518 23.8759 1.85321 23.8499 1.82927 23.8279C1.82927 23.8039 1.82927 23.7799 1.82927 23.7569C1.82927 23.7079 1.8183 23.6729 1.79336 23.6479C1.79336 23.6259 1.79336 23.6019 1.79336 23.5779C1.79336 23.5539 1.79336 23.5169 1.79336 23.4689C1.79336 23.4459 1.79336 23.4219 1.79336 23.3989C1.79336 23.3739 1.79336 23.3509 1.79336 23.3269V23.2559C1.79336 23.2309 1.79336 23.1959 1.79336 23.1489C1.79336 23.1249 1.79336 23.0889 1.79336 23.0409V23.0059C1.79336 22.9569 1.79336 22.9219 1.79336 22.8979C1.79336 22.8749 1.79336 22.8499 1.79336 22.8269C1.79336 22.8029 1.79336 22.7669 1.79336 22.7199C1.79336 22.6949 1.79336 22.6719 1.79336 22.6479C1.79336 22.6249 1.79336 22.5989 1.79336 22.5759C1.79336 22.5279 1.79336 22.4919 1.79336 22.4689V22.3979C1.79336 22.3739 1.78139 22.3499 1.75745 22.3259C1.75745 22.2779 1.74648 22.2549 1.72154 22.2549C1.6976 22.2059 1.67266 22.1699 1.64872 22.1479C1.64872 22.1239 1.64872 22.0879 1.64872 22.0399V21.9699C1.64872 21.9459 1.64872 21.9209 1.64872 21.8969C1.64872 21.8739 1.64872 21.8489 1.64872 21.8249C1.64872 21.8019 1.64872 21.7659 1.64872 21.7179C1.64872 21.6949 1.64872 21.6699 1.64872 21.6459C1.64872 21.6229 1.64872 21.5989 1.64872 21.5759C1.64872 21.5269 1.64872 21.4919 1.64872 21.4689V21.3969C1.64872 21.3739 1.64872 21.3359 1.64872 21.2909V21.2529C1.64872 21.2059 1.64872 21.1699 1.64872 21.1469C1.64872 21.0989 1.64872 21.0629 1.64872 21.0399V20.9439C1.64872 20.9209 1.64872 20.8959 1.64872 20.8729C1.64872 20.8489 1.64872 20.8249 1.64872 20.8019C1.64872 20.7539 1.64872 20.7179 1.64872 20.6949C1.64872 20.6709 1.64872 20.6469 1.64872 20.6229C1.64872 20.6009 1.64872 20.5749 1.64872 20.5519C1.64872 20.5039 1.64872 20.4679 1.64872 20.4439C1.62578 20.4209 1.60184 20.3959 1.5779 20.3729C1.5779 20.3499 1.56593 20.3129 1.54298 20.2649C1.54298 20.2419 1.54298 20.2179 1.54298 20.1939C1.54298 20.1709 1.54298 20.1469 1.54298 20.1229C1.54298 20.0739 1.54298 20.0389 1.54298 20.0149V19.9439C1.54298 19.9199 1.54298 19.8829 1.54298 19.8359V19.8019C1.54298 19.7539 1.54298 19.7169 1.54298 19.6919C1.54298 19.6689 1.54298 19.6459 1.54298 19.6219C1.54298 19.5989 1.54298 19.5629 1.54298 19.5149C1.54298 19.4919 1.54298 19.4669 1.54298 19.4429C1.54298 19.4199 1.54298 19.3959 1.54298 19.3719C1.54298 19.3229 1.54298 19.2879 1.54298 19.2649C1.54298 19.2399 1.54298 19.2179 1.54298 19.1929C1.54298 19.1699 1.54298 19.1449 1.54298 19.1219V19.0499C1.54298 19.0009 1.54298 18.9669 1.54298 18.9429C1.51904 18.9189 1.4951 18.8829 1.47116 18.8359C1.44722 18.8359 1.43625 18.8239 1.43625 18.8009C1.43625 18.7519 1.43625 18.7169 1.43625 18.6929V18.6219C1.43625 18.5989 1.43625 18.5609 1.43625 18.5139C1.43625 18.4909 1.43625 18.4659 1.43625 18.4419C1.43625 18.4189 1.43625 18.3949 1.43625 18.3709C1.43625 18.3229 1.43625 18.2869 1.43625 18.2629C1.43625 18.2409 1.43625 18.2159 1.43625 18.1929C1.43625 18.1699 1.43625 18.1329 1.43625 18.0849V18.0489C1.43625 18.0009 1.43625 17.9659 1.43625 17.9419C1.43625 17.9189 1.43625 17.8819 1.43625 17.8349V17.7639C1.41231 17.7399 1.38737 17.7149 1.36443 17.6919L1.32852 17.6199C1.32852 17.5719 1.32852 17.5359 1.32852 17.5129C1.32852 17.4889 1.32852 17.4649 1.32852 17.4419C1.32852 17.4189 1.32852 17.3939 1.32852 17.3699C1.32852 17.3219 1.32852 17.2869 1.32852 17.2639C1.32852 17.2399 1.32852 17.2149 1.32852 17.1909C1.32852 17.1679 1.32852 17.1309 1.32852 17.0849V17.0339C1.32852 16.9849 1.32852 16.9489 1.32852 16.9249C1.32852 16.8789 1.32852 16.8429 1.32852 16.8189V16.7469C1.32852 16.7229 1.32852 16.6879 1.32852 16.6399V16.6039C1.30558 16.5569 1.28164 16.5209 1.2577 16.4959C1.2577 16.4749 1.24672 16.4499 1.21979 16.4269C1.21979 16.4029 1.21979 16.3649 1.21979 16.3179C1.21979 16.2959 1.21979 16.2709 1.21979 16.2469C1.21979 16.2239 1.21979 16.1989 1.21979 16.1749C1.21979 16.1279 1.21979 16.0919 1.21979 16.0679C1.21979 16.0449 1.21979 16.0199 1.21979 15.9959C1.21979 15.9739 1.21979 15.9479 1.21979 15.9249C1.21979 15.8769 1.21979 15.8409 1.21979 15.8179C1.21979 15.7939 1.21979 15.7699 1.21979 15.7459C1.21979 15.7229 1.20782 15.6859 1.18488 15.6399C1.16094 15.6399 1.138 15.6289 1.11306 15.6039C1.11306 15.5559 1.10209 15.5189 1.07715 15.4959V15.4239C1.07715 15.4009 1.07715 15.3649 1.07715 15.3179C1.07715 15.2949 1.07715 15.2579 1.07715 15.2099V15.1739C1.07715 15.1269 1.07715 15.0919 1.07715 15.0659C1.07715 15.0439 1.07715 15.0189 1.07715 14.9949C1.07715 14.9719 1.07715 14.9359 1.07715 14.8889C1.07715 14.8649 1.07715 14.8399 1.07715 14.8169C1.10209 14.7939 1.11306 14.7709 1.11306 14.7469C1.137 14.7229 1.16094 14.6849 1.18488 14.6379C1.20782 14.6379 1.23276 14.6259 1.2577 14.6029L1.29361 14.5679H1.32852C1.32852 14.5429 1.32852 14.5189 1.32852 14.4959V14.4139C1.32852 14.3659 1.32852 14.3309 1.32852 14.3069C1.32852 14.2829 1.34049 14.2459 1.36443 14.1989C1.38737 14.1989 1.41231 14.1869 1.43625 14.1629C1.45919 14.1159 1.4951 14.0799 1.54298 14.0559C1.56593 14.0319 1.58987 14.0089 1.6148 13.9849C1.63775 13.9619 1.66268 13.9259 1.68662 13.8779C1.71056 13.8539 1.7345 13.8299 1.75745 13.8059C1.80433 13.8059 1.82927 13.7939 1.82927 13.7709C1.90109 13.7469 1.95994 13.7219 2.00882 13.6979C2.03276 13.6739 2.0567 13.6499 2.08164 13.6269C2.12952 13.6269 2.1754 13.6269 2.22328 13.6269C2.2951 13.6039 2.36692 13.5789 2.43775 13.5569C2.53451 13.5329 2.60533 13.4959 2.65221 13.4489C2.67615 13.4489 2.71306 13.4369 2.75994 13.4129C2.80782 13.4129 2.84373 13.4129 2.86867 13.4129C2.96244 13.4129 3.04722 13.4129 3.11805 13.4129C3.16593 13.4129 3.2148 13.4249 3.26169 13.4489C3.30857 13.4489 3.34448 13.4619 3.36842 13.4849C3.39236 13.4849 3.4173 13.4849 3.44124 13.4849C3.48812 13.5079 3.54697 13.5329 3.61979 13.5569C3.64273 13.6039 3.66667 13.6269 3.69161 13.6269C3.71555 13.6499 3.73849 13.6869 3.76144 13.7359C3.80034 13.7359 3.83625 13.7359 3.87017 13.7359C4.01381 13.7109 4.15645 13.6859 4.29909 13.6629C4.32204 13.6409 4.335 13.6149 4.335 13.5919H4.37091C4.39485 13.5919 4.41879 13.5919 4.44273 13.5919C4.79984 13.5919 5.15795 13.5919 5.51505 13.5919L5.53301 13.6099C6.02179 13.6219 6.50657 13.6279 6.98338 13.6279C7.0173 13.6629 7.04124 13.6879 7.05421 13.6989L7.07216 13.7179C7.2148 13.7249 7.35046 13.7299 7.48413 13.7379C7.67565 13.7599 7.85421 13.7729 8.02179 13.7729C8.04573 13.7959 8.06867 13.8209 8.09261 13.8439C8.33101 13.8439 8.56942 13.8439 8.80882 13.8439C8.83176 13.8209 8.8557 13.7959 8.88064 13.7729H8.91555C9.536 13.7729 10.1574 13.7599 10.7779 13.7379C10.8248 13.7379 10.8607 13.7379 10.8846 13.7379C10.9325 13.7129 10.9674 13.6999 10.9914 13.6999C11.0502 13.6949 11.1101 13.6879 11.1709 13.6819V13.2639C11.3136 13.2639 11.4442 13.2639 11.5639 13.2639C11.5869 13.2639 11.6118 13.2639 11.6348 13.2639C11.7076 13.2409 11.7794 13.2289 11.8512 13.2289C11.8512 13.2059 11.8622 13.1939 11.8871 13.1939V13.1579C11.9589 13.1579 12.0427 13.1579 12.1365 13.1579H12.1714C12.1964 13.1579 12.2083 13.1459 12.2083 13.1229C12.352 13.1229 12.4946 13.1229 12.6392 13.1229H12.6742C12.6981 13.1229 12.7101 13.1099 12.7101 13.0859C12.7809 13.0859 12.8537 13.0859 12.9235 13.0859C12.9475 13.0859 12.9714 13.0859 12.9954 13.0859C13.0203 13.0859 13.0442 13.0859 13.0672 13.0859C13.1869 13.0629 13.3175 13.0509 13.4612 13.0509C13.4851 13.0279 13.5101 13.0149 13.533 13.0149C13.556 13.0149 13.5799 13.0019 13.6048 12.9789C13.6757 12.9789 13.7465 12.9789 13.8183 12.9789C13.8422 12.9789 13.8662 12.9789 13.8901 12.9789C13.9141 12.9789 13.938 12.9679 13.9609 12.9429H13.9968C14.0208 12.9429 14.0447 12.9429 14.0687 12.9429C14.0916 12.9429 14.1146 12.9309 14.1395 12.9069C14.2592 12.9069 14.3909 12.9069 14.5345 12.9069C14.6771 12.8839 14.8218 12.8709 14.9634 12.8709C14.9864 12.8489 15.0113 12.8359 15.0353 12.8359C15.0572 12.8359 15.0702 12.8239 15.0702 12.8009C15.2148 12.8009 15.3564 12.8009 15.5001 12.8009C15.524 12.8009 15.548 12.8009 15.5719 12.8009V12.7649C15.8432 12.7849 16.1056 12.7959 16.3599 12.8009C16.4078 12.8009 16.4557 12.8009 16.5036 12.8009C16.5156 12.7969 16.5275 12.7909 16.5395 12.7819C16.721 12.7809 16.9006 12.7749 17.0771 12.7639C17.1011 12.7639 17.125 12.7639 17.148 12.7639H17.1849L17.2198 12.7269C17.2437 12.7269 17.2697 12.7269 17.2926 12.7269H17.3634C17.5071 12.7039 17.6377 12.6919 17.7584 12.6919C17.8053 12.6919 17.8532 12.6919 17.9001 12.6919C17.948 12.6919 17.9959 12.6919 18.0437 12.6919C18.0687 12.6689 18.1056 12.6569 18.1515 12.6569C18.1993 12.6569 18.2472 12.6569 18.2951 12.6569C18.342 12.6569 18.3899 12.6569 18.4377 12.6569C18.4617 12.6569 18.4976 12.6439 18.5455 12.6209C18.5934 12.6209 18.6412 12.6209 18.6871 12.6209C18.735 12.6209 18.7709 12.6209 18.7949 12.6209C19.0103 12.6209 19.2138 12.6089 19.4053 12.5859C19.4283 12.5859 19.4522 12.5859 19.4771 12.5859C19.5001 12.5859 19.524 12.5859 19.548 12.5859C19.5719 12.5859 19.5839 12.5729 19.5839 12.5489C19.6068 12.5489 19.6318 12.5489 19.6547 12.5489C19.6786 12.5489 19.7026 12.5489 19.7255 12.5489C19.7495 12.5489 19.7734 12.5489 19.7983 12.5489C19.7983 12.5249 19.8103 12.5129 19.8343 12.5129C19.8811 12.5129 19.941 12.5129 20.0128 12.5129C20.0597 12.5129 20.1076 12.5129 20.1555 12.5129C20.2033 12.4899 20.2522 12.4779 20.2981 12.4779C20.3709 12.4779 20.4308 12.4779 20.4776 12.4779C20.5245 12.4779 20.5854 12.4779 20.6572 12.4779C20.7041 12.4779 20.752 12.4649 20.7998 12.4419C20.8467 12.4419 20.8956 12.4419 20.9425 12.4419C20.9904 12.4419 21.0382 12.4419 21.0861 12.4419C21.134 12.4419 21.1809 12.4299 21.2288 12.4059C21.2527 12.4059 21.2757 12.4059 21.3006 12.4059C21.3255 12.4059 21.3485 12.4059 21.3714 12.4059C21.3954 12.4059 21.4203 12.3939 21.4442 12.3719C21.4672 12.3719 21.4921 12.3719 21.5161 12.3719C21.54 12.3719 21.5629 12.3719 21.5879 12.3719C21.6118 12.3719 21.6348 12.3719 21.6587 12.3719C21.6826 12.3469 21.7076 12.3349 21.7305 12.3349C21.7784 12.3349 21.8263 12.3349 21.8752 12.3349C21.922 12.3349 21.9699 12.3349 22.0178 12.3349C22.0657 12.3109 22.1126 12.2999 22.1604 12.2999C22.2093 12.2999 22.2692 12.2999 22.34 12.2999C22.3889 12.2999 22.4368 12.2999 22.4836 12.2999C22.5305 12.2999 22.5794 12.2869 22.6263 12.2639C22.6752 12.2639 22.722 12.2639 22.7699 12.2639C22.8178 12.2639 22.8657 12.2639 22.9126 12.2639C23.1041 12.2639 23.2956 12.2509 23.4861 12.2279C23.5101 12.2279 23.534 12.2279 23.5579 12.2279H23.5929C23.6168 12.2279 23.6407 12.2159 23.6647 12.1919H23.7006C23.7235 12.1919 23.7485 12.1919 23.7724 12.1919H23.8093L23.8452 12.1559C23.8921 12.1559 23.94 12.1559 23.9889 12.1559C24.0128 12.1559 24.0477 12.1559 24.0956 12.1559C24.1425 12.1319 24.1784 12.1199 24.2023 12.1199C24.2502 12.1199 24.2861 12.1199 24.3091 12.1199C24.333 12.1199 24.3709 12.1199 24.4158 12.1199C24.5225 12.1199 24.6313 12.1089 24.738 12.0839V12.1199C24.7859 12.1199 24.8328 12.1199 24.8816 12.1199V12.3009L24.9175 12.3359V12.3729L24.9545 12.4069V12.4429C25.0013 12.4429 25.0372 12.4549 25.0612 12.4789C25.132 12.4789 25.1919 12.4909 25.2397 12.5139C25.2637 12.5379 25.2876 12.5499 25.3116 12.5499V12.5869C25.3834 12.5869 25.4542 12.5989 25.527 12.6219C25.6228 12.6219 25.7056 12.6339 25.7764 12.6579C25.92 12.6579 26.0507 12.6579 26.1704 12.6579C26.2422 12.6339 26.3021 12.6219 26.35 12.6219C26.3739 12.5989 26.3978 12.5869 26.4218 12.5869L26.4577 12.5499C26.5066 12.5499 26.5535 12.5379 26.6023 12.5139C26.6253 12.5139 26.6492 12.5009 26.6742 12.4789C26.721 12.4789 26.7689 12.4789 26.8168 12.4789C26.8387 12.4549 26.8757 12.4429 26.9245 12.4429C26.9724 12.4189 27.0193 12.4069 27.0682 12.4069V12.3729C27.1151 12.3729 27.151 12.3589 27.1749 12.3359C27.1978 12.3359 27.2098 12.3239 27.2098 12.3009C27.2597 12.3009 27.3056 12.3009 27.3545 12.3009C27.3784 12.2769 27.4143 12.2649 27.4622 12.2649C27.4851 12.2649 27.5091 12.2649 27.534 12.2649H27.5699C27.5699 12.2409 27.5809 12.2289 27.6048 12.2289V12.1929C27.6527 12.1929 27.6886 12.1809 27.7116 12.1569C27.7355 12.1569 27.7485 12.1449 27.7485 12.1209C27.7954 12.1209 27.8432 12.1209 27.8911 12.1209C27.9151 12.0979 27.951 12.0849 27.9978 12.0849C28.0467 12.0619 28.0926 12.0489 28.1405 12.0489V12.0139C28.1884 12.0139 28.2372 12.0009 28.2851 11.9789V11.9419C28.3091 11.9419 28.333 11.9419 28.356 11.9419C28.4278 11.9189 28.4876 11.9069 28.5345 11.9069C28.5574 11.8839 28.5954 11.8709 28.6422 11.8709V11.8349C28.6662 11.8349 28.6901 11.8229 28.7141 11.7999V11.7629C28.7859 11.7629 28.8447 11.7629 28.8936 11.7629C28.9405 11.7389 28.9764 11.7269 29.0003 11.7269C29.0482 11.7039 29.0831 11.6929 29.1081 11.6929L29.143 11.6559C29.1669 11.6559 29.2038 11.6439 29.2507 11.6199V11.5849C29.3215 11.5849 29.3824 11.5849 29.4293 11.5849C29.4771 11.5609 29.5121 11.5489 29.537 11.5489C29.5609 11.5249 29.5859 11.5139 29.6088 11.5139V11.4779C29.6557 11.4779 29.6916 11.4659 29.7146 11.4419C29.7395 11.4419 29.7515 11.4309 29.7515 11.4059C29.7993 11.4059 29.8353 11.4059 29.8592 11.4059C29.8831 11.3819 29.9071 11.3699 29.932 11.3699C29.9559 11.3469 29.9779 11.3349 30.0028 11.3349L30.0387 11.2989C30.0856 11.2989 30.1335 11.2859 30.1804 11.2639C30.2053 11.2639 30.2283 11.2509 30.2532 11.2279H30.2881C30.3121 11.2029 30.348 11.1909 30.3959 11.1909C30.4198 11.1689 30.4427 11.1559 30.4667 11.1559L30.5026 11.1199C30.5275 11.1199 30.5624 11.1079 30.6103 11.0849V11.0489C30.6572 11.0489 30.7061 11.0489 30.754 11.0489C30.7779 11.0259 30.8018 11.0129 30.8248 11.0129C30.8717 10.9899 30.9205 10.9779 30.9674 10.9779L31.0033 10.9409C31.0263 10.9409 31.0502 10.9289 31.0752 10.9059C31.0991 10.9059 31.123 10.8929 31.147 10.8699H31.1829C31.2298 10.8459 31.2786 10.8339 31.3255 10.8339C31.3495 10.8109 31.3744 10.7979 31.3973 10.7979V10.7619C31.4213 10.7619 31.4572 10.7509 31.5041 10.7279V10.6909C31.528 10.6909 31.553 10.6909 31.5769 10.6909C31.5998 10.6909 31.6238 10.6909 31.6477 10.6909L31.6836 10.6569H31.7185C31.7664 10.6319 31.8143 10.6199 31.8622 10.6199V10.5849C31.8861 10.5849 31.9091 10.5719 31.933 10.5489V10.5119C31.9809 10.5119 32.0168 10.5119 32.0407 10.5119C32.0647 10.4899 32.0886 10.4779 32.1126 10.4779C32.1594 10.4529 32.2083 10.4419 32.2562 10.4419V10.3939C32.2791 10.3939 32.3031 10.3819 32.327 10.3579C32.35 10.3579 32.3749 10.3459 32.3978 10.3229C32.4228 10.3229 32.4467 10.3229 32.4707 10.3229C32.5185 10.2999 32.5535 10.2869 32.5774 10.2869C32.6013 10.2639 32.6243 10.2519 32.6492 10.2519V10.2139C32.6961 10.2139 32.744 10.2029 32.7919 10.1799V10.1439C32.8397 10.1439 32.8876 10.1439 32.9355 10.1439C32.9584 10.1199 32.9834 10.1069 33.0063 10.1069C33.0542 10.0839 33.1031 10.0719 33.15 10.0719V10.0349C33.1978 10.0349 33.2467 10.0229 33.2936 9.99889V9.96489C33.3175 9.96489 33.3415 9.96489 33.3654 9.96489C33.4133 9.93989 33.4612 9.92789 33.5081 9.92789C33.531 9.90589 33.555 9.89289 33.5799 9.89289L33.6158 9.85589C33.6387 9.85589 33.6647 9.84589 33.6866 9.82189V9.78589C33.7106 9.78589 33.7465 9.78589 33.7944 9.78589C33.8183 9.76089 33.8422 9.74889 33.8652 9.74889C33.9151 9.72389 33.9619 9.71389 34.0088 9.71389V9.67589C34.0348 9.67589 34.0577 9.66489 34.0816 9.64089V9.60589C34.1295 9.60589 34.1644 9.60589 34.1884 9.60589C34.2372 9.58189 34.2841 9.56889 34.332 9.56889C34.356 9.54489 34.3789 9.53389 34.4028 9.53389V9.49789C34.4268 9.49789 34.4507 9.48589 34.4747 9.46189C34.4986 9.46189 34.5225 9.44989 34.5465 9.42689C34.5704 9.42689 34.5944 9.42689 34.6193 9.42689C34.6662 9.40189 34.7141 9.38989 34.7619 9.38989C34.7859 9.36689 34.8098 9.35389 34.8338 9.35389L34.8687 9.31889C34.8926 9.31889 34.9295 9.30689 34.9764 9.28289V9.24589C35.0253 9.24589 35.0592 9.24589 35.0841 9.24589C35.1081 9.22289 35.131 9.21089 35.155 9.21089C35.2028 9.18689 35.2497 9.17489 35.2986 9.17489V9.13789C35.3215 9.13789 35.3345 9.12489 35.3345 9.10289V9.06689C35.3824 9.06689 35.4183 9.06689 35.4412 9.06689C35.4652 9.04289 35.4881 9.03089 35.5131 9.03089C35.5619 9.00789 35.5959 8.99589 35.6198 8.99589V8.95889C35.6437 8.95889 35.6677 8.94789 35.6916 8.92389V8.88689C35.7395 8.88689 35.7874 8.88689 35.8353 8.88689L35.8722 8.85089C35.919 8.82789 35.9659 8.81589 36.0138 8.81589V8.78089C36.0387 8.78089 36.0627 8.76789 36.0866 8.74389C36.1096 8.74389 36.1345 8.73189 36.1584 8.70789V8.67289C36.1814 8.67289 36.2053 8.67289 36.2293 8.67289C36.2761 8.64889 36.325 8.63689 36.3729 8.63689V8.59989C36.3969 8.59989 36.4198 8.58689 36.4437 8.56389C36.4677 8.56389 36.4916 8.55189 36.5156 8.52889H36.5525C36.5754 8.50489 36.6103 8.49189 36.6582 8.49189C36.6831 8.46989 36.7071 8.45589 36.732 8.45589V8.42189C36.7779 8.42189 36.8268 8.40889 36.8737 8.38589V8.34889C36.8986 8.34889 36.9215 8.34889 36.9455 8.34889C36.9934 8.32589 37.0293 8.31189 37.0532 8.31189L37.0901 8.27589V8.24189C37.1141 8.24189 37.137 8.22889 37.1609 8.20589C37.1849 8.20589 37.2078 8.19389 37.2318 8.17089H37.2677L37.3036 8.13389C37.3515 8.10989 37.3874 8.09689 37.4113 8.09689V8.06289C37.4352 8.06289 37.4592 8.04989 37.4821 8.02589V7.99089C37.53 7.99089 37.5659 7.99089 37.5879 7.99089L37.6248 7.95589C37.6477 7.93089 37.6717 7.91789 37.6966 7.91789L37.7315 7.88289C37.7555 7.88289 37.7794 7.86989 37.8023 7.84789V7.80989C37.8273 7.80989 37.8642 7.80989 37.9101 7.80989C37.9101 7.78689 37.921 7.77489 37.946 7.77489C37.946 7.75189 37.9579 7.73889 37.9819 7.73889V7.70289C38.0048 7.70289 38.0178 7.69089 38.0178 7.66789V7.63189C38.0417 7.63189 38.0776 7.63189 38.1245 7.63189V7.59589C38.1485 7.59589 38.1734 7.59589 38.1964 7.59589V7.09289C38.3171 7.09689 38.4348 7.10289 38.5545 7.11089V6.73389C38.9485 6.75189 39.3405 6.76289 39.7355 6.76989V6.73389C39.923 6.75489 40.1036 6.76689 40.2732 6.76989C40.2971 6.76989 40.32 6.76989 40.345 6.76989V7.12889C40.4397 7.12889 40.5365 7.12889 40.6313 7.12889V7.16389C40.7649 7.16389 40.8956 7.16389 41.0263 7.16389V7.20089C41.0492 7.20089 41.0602 7.21289 41.0602 7.23589V7.59489C43.2338 7.60189 45.4043 7.60689 47.5759 7.61289C47.5759 7.63089 47.5759 7.64789 47.5759 7.66689C47.6467 7.66689 47.7185 7.66689 47.7904 7.66689C47.7674 7.64389 47.7425 7.63089 47.7195 7.63089V7.61389C47.8632 7.61389 48.0058 7.61389 48.1485 7.61389V7.63189L48.1126 7.66789C48.8527 7.66789 49.5799 7.66789 50.2961 7.66789V7.63189C50.4517 7.62989 50.6073 7.62989 50.7619 7.63189V7.66789C50.8088 7.66789 50.8447 7.66789 50.8687 7.66789V7.63189C51.0123 7.63189 51.155 7.63189 51.2986 7.63189V7.66789C51.3944 7.66789 51.4781 7.66789 51.549 7.66789V7.63189C51.6916 7.63189 51.8353 7.63189 51.9789 7.63189V7.66789C52.4068 7.66789 52.8258 7.66789 53.2318 7.66789V7.63189C53.3734 7.63189 53.516 7.63189 53.6607 7.63189V7.66789C53.7794 7.66789 53.8881 7.66789 53.9829 7.66789V7.63189C54.2811 7.62989 54.5804 7.62989 54.8786 7.63189V7.66789C55.0093 7.66789 55.14 7.66789 55.2727 7.66789C55.2956 7.69089 55.3076 7.72789 55.3076 7.77489C55.3315 7.79789 55.3554 7.83589 55.3794 7.88189C55.7934 7.88189 56.2123 7.88189 56.6323 7.88189C56.6552 7.92989 56.6672 7.96589 56.6672 7.98989V8.06189C56.6911 8.06189 56.715 8.06189 56.738 8.06189C56.7629 8.08489 56.7998 8.12089 56.8457 8.16889V8.20389L56.8816 8.16889C56.9295 8.16889 56.9774 8.16889 57.0253 8.16889C69.4582 8.16889 81.8911 8.16889 94.324 8.16889C94.3001 8.14589 94.2771 8.11989 94.2522 8.09589C94.2522 8.04889 94.2522 8.01289 94.2522 7.98989V7.95589C94.5495 7.97089 94.8477 7.98189 95.148 7.99089C95.1719 8.01389 95.1948 8.03789 95.2198 8.06289C95.3864 8.06489 95.553 8.07289 95.7195 8.07989C95.7195 8.05889 95.7195 8.04089 95.7195 8.02589C95.7195 7.92989 95.7195 7.84689 95.7195 7.77489C95.7195 7.72689 95.7195 7.67889 95.7195 7.63089C95.7195 7.58289 95.7195 7.53489 95.7195 7.48689C95.7195 7.43789 95.7195 7.39189 95.7195 7.34289C95.7914 7.29489 95.8502 7.25989 95.8991 7.23589C95.8991 7.21289 95.8991 7.18889 95.8991 7.16389V7.12989C96.6871 7.15189 97.4741 7.16489 98.2612 7.16489C98.3111 7.21389 98.346 7.26089 98.3709 7.30889ZM35.8722 14.3059C35.8333 14.3119 35.7973 14.3169 35.7654 14.3249C35.7924 14.3239 35.8213 14.3239 35.8542 14.3249L35.8722 14.3059ZM37.4462 15.4549C37.4233 15.4779 37.3993 15.4899 37.3754 15.4899C37.3754 15.5129 37.3874 15.5269 37.4113 15.5269V16.2079C37.4352 16.2079 37.4592 16.2079 37.4821 16.2079V16.3519C37.5061 16.3769 37.53 16.3889 37.554 16.3889C37.554 16.4119 37.5659 16.4249 37.5879 16.4249V16.4599C37.5879 16.4829 37.6018 16.4939 37.6248 16.4939V16.5299C37.6477 16.5299 37.6607 16.5429 37.6607 16.5669C37.6836 16.5669 37.7195 16.5779 37.7664 16.6019V16.6729H37.8023C37.8213 16.6729 37.8392 16.6799 37.8562 16.6929C37.8871 16.6979 37.9161 16.7049 37.946 16.7109V16.7289C37.9609 16.7319 37.9719 16.7369 37.9819 16.7469C38.0298 16.7469 38.0776 16.7589 38.1245 16.7829V16.8189C38.1485 16.8429 38.1734 16.8549 38.1964 16.8549C38.2213 16.8549 38.2572 16.8669 38.3041 16.8909C38.353 16.8909 38.4108 16.8909 38.4816 16.8909C38.722 16.8669 38.9604 16.8549 39.1998 16.8549C39.2697 16.8309 39.3415 16.8189 39.4133 16.8189V16.7469C39.4602 16.7469 39.5091 16.7469 39.5579 16.7469C39.6766 16.7229 39.7964 16.7119 39.9141 16.7119C39.939 16.6889 39.9629 16.6749 39.9869 16.6749C40.0348 16.6519 40.0707 16.6399 40.0936 16.6399V16.6039C40.1166 16.6039 40.1285 16.5919 40.1285 16.5689V16.5319C40.1764 16.5319 40.2243 16.5319 40.2722 16.5319V15.1689C39.3295 15.1509 38.3869 15.1399 37.4442 15.1339V15.4549H37.4462ZM40.8816 14.6109C40.5983 14.6139 40.3101 14.6209 40.0248 14.6289C40.3111 14.6279 40.5973 14.6279 40.8816 14.6289V14.6109ZM1.83027 14.8809C1.83027 14.9039 1.81929 14.9159 1.79436 14.9159L1.75845 14.9509C1.75845 14.9749 1.75845 14.9989 1.75845 15.0229V15.0579C1.78239 15.0109 1.81929 14.9749 1.86518 14.9509C1.89012 14.9039 1.91406 14.8559 1.938 14.8079V14.7729C1.937 14.7969 1.92503 14.8209 1.90109 14.8449C1.87815 14.8679 1.85321 14.8809 1.83027 14.8809ZM2.04473 14.6289C2.06867 14.6169 2.09361 14.6059 2.11655 14.5939C2.11655 14.5669 2.11655 14.5409 2.11655 14.5219C2.09361 14.5449 2.06867 14.5709 2.04473 14.5939V14.6289ZM2.40283 14.3789C2.40283 14.3609 2.40782 14.3439 2.42079 14.3249L2.40283 14.3429C2.33002 14.3659 2.27116 14.3909 2.22328 14.4139C2.20633 14.4329 2.18338 14.4549 2.15146 14.4859C2.19934 14.4869 2.24722 14.4869 2.2951 14.4859V14.4139C2.31904 14.3899 2.35495 14.3789 2.40283 14.3789ZM2.08164 17.5709C2.08962 17.5809 2.10159 17.5919 2.11655 17.6069V17.5709H2.08164ZM4.22827 27.0819C4.25221 27.1049 4.27515 27.1409 4.29909 27.1889C4.32204 27.2119 4.33401 27.2359 4.335 27.2599V27.2249C4.335 27.1759 4.335 27.1399 4.335 27.1179C4.35894 27.0939 4.37091 27.0699 4.37091 27.0459C4.37989 27.0359 4.39186 27.0249 4.40782 27.0109C4.33301 27.0119 4.26019 27.0119 4.19236 27.0109C4.2163 27.0339 4.22827 27.0569 4.22827 27.0819Z" fill="#9FB1C9"/>
</g>
<defs>
<clipPath id="clip0_28409_24673">
<rect width="100" height="32" fill="white" transform="translate(0.875 0.133789)"/>
</clipPath>
</defs>
</svg>
