<svg width="39" height="32" viewBox="0 0 39 32" fill="none" xmlns="http://www.w3.org/2000/svg">
<g clip-path="url(#clip0_28409_24678)">
<path fill-rule="evenodd" clip-rule="evenodd" d="M37.725 10.6948C37.605 10.9338 37.411 11.0668 37.144 11.0968C36.698 11.1258 33.649 11.1698 28.008 11.2318C27.829 11.2318 27.636 11.2748 27.426 11.3638C27.066 11.4848 26.828 11.6928 26.709 11.9928C26.62 12.2318 26.605 12.7068 26.663 13.4258C26.693 13.7818 26.754 14.3198 26.843 15.0368C26.874 15.3958 26.933 15.7678 27.022 16.1598C27.022 16.3668 26.857 16.4868 26.528 16.5148C25.843 16.6638 25.216 16.7698 24.648 16.8298C23.634 16.9768 22.544 17.0678 21.38 17.0978C19.558 17.1268 17.529 17.0678 15.288 16.9188C13.349 22.0848 12.378 24.8298 12.378 25.1578C12.378 25.5168 12.455 26.6658 12.602 28.6078C13.05 28.9338 13.409 29.1598 13.677 29.2778C13.886 29.3698 13.974 29.4858 13.946 29.6378C13.946 29.7258 13.916 29.7848 13.856 29.8148L13.544 29.9938C13.214 30.0828 12.856 30.0988 12.467 30.0398C11.899 29.9498 8.09302 29.1898 1.04802 27.7558C0.691023 27.6948 0.691023 26.7128 1.04802 24.7988C1.19702 23.9938 1.54102 22.8278 2.07802 21.3068C2.64502 19.7528 3.16802 18.5298 3.64602 17.6358C4.15202 16.7078 4.55602 15.7108 4.85402 14.6358C5.21202 13.5598 5.36102 12.7978 5.30302 12.3508C5.24202 12.0238 4.82402 11.6348 4.04902 11.1858C3.45202 10.8878 2.88602 10.6648 2.34802 10.5138C2.04802 10.4838 1.80902 10.3358 1.63002 10.0668C1.51002 9.94677 1.37702 9.78177 1.22602 9.57377C1.13702 9.45377 1.09202 9.14277 1.09202 8.63377C1.09202 8.39377 1.09202 8.02277 1.09202 7.51377C1.09202 6.73877 1.15302 6.26077 1.27202 6.08077C1.84002 5.09677 2.27002 4.36377 2.56802 3.88777C2.83702 3.49977 3.09202 3.19977 3.33202 2.99077C3.60002 2.72277 3.83802 2.60277 4.04802 2.63177C4.25602 2.66177 4.49602 2.66177 4.76502 2.63177L5.21202 2.58777C5.36102 2.31877 5.49602 2.12377 5.61602 2.00577C5.73602 1.88777 6.18102 1.93177 6.96002 2.13977L7.13902 2.63177H19.453V3.03577H24.784V2.63177L37.054 2.58777L37.457 2.81077C37.695 2.95977 37.815 3.13977 37.815 3.34777C37.876 4.51477 37.933 5.60377 37.994 6.61877C38.054 8.61977 38.038 9.72177 37.948 9.93277C37.798 10.4098 37.725 10.6648 37.725 10.6948ZM24.871 11.8138C24.723 11.7528 24.603 11.7218 24.515 11.7218V11.8138L20.53 11.7698C20.378 12.3358 20.439 12.8128 20.706 13.2028C21.067 13.7678 21.364 14.1728 21.605 14.4118C21.844 14.6198 22.126 14.7528 22.455 14.8118C22.752 14.8418 22.889 14.9178 22.858 15.0368C22.829 15.1858 22.71 15.2628 22.499 15.2628C22.381 15.2628 22.187 15.2628 21.92 15.2628C21.591 15.2018 21.23 14.9938 20.843 14.6358C20.217 14.0978 19.813 13.6488 19.632 13.2928C19.515 12.9028 19.454 12.3948 19.454 11.7708L18.649 11.7238C18.17 11.7238 17.753 11.9178 17.395 12.3078C17.097 12.6648 16.947 13.0858 16.947 13.5608C16.947 13.8588 16.947 14.2608 16.947 14.7688C17.008 15.1288 17.308 15.4128 17.844 15.6208C18.619 15.9198 19.367 16.0388 20.082 15.9808C20.919 15.8588 21.575 15.7848 22.054 15.7548C22.292 15.7248 22.724 15.7408 23.351 15.7998C23.979 15.8588 24.412 15.8888 24.649 15.8888C25.039 15.8888 25.292 15.8588 25.41 15.7998C25.471 15.7398 25.591 15.6208 25.771 15.4428C25.889 15.2628 25.919 14.7838 25.858 14.0078C25.828 13.2598 25.71 12.7078 25.501 12.3508C25.38 12.0828 25.169 11.9018 24.871 11.8138Z" fill="#9FB1C9"/>
</g>
<defs>
<clipPath id="clip0_28409_24678">
<rect width="37.875" height="32" fill="white" transform="translate(0.5)"/>
</clipPath>
</defs>
</svg>
