<svg width="39" height="32" viewBox="0 0 39 32" fill="none" xmlns="http://www.w3.org/2000/svg">
<g clip-path="url(#clip0_28409_24679)">
<path fill-rule="evenodd" clip-rule="evenodd" d="M37.8232 2.48292V2.56592C37.8232 2.59492 37.8232 2.62192 37.8232 2.64892C37.8232 2.70492 37.8232 2.74792 37.8232 2.77392C37.8232 2.80292 37.8232 2.82792 37.8232 2.85692C37.9602 2.85692 38.1012 2.85692 38.2412 2.85692C38.2412 2.88292 38.2412 2.91192 38.2412 2.94092C38.2412 3.10792 38.2412 3.25992 38.2412 3.39892C38.2412 3.53692 38.2412 3.67692 38.2412 3.81492C38.2412 3.98292 38.2412 4.13592 38.2412 4.27492C38.2412 4.41492 38.2412 4.55092 38.2412 4.69192C38.2412 4.85992 38.2412 5.01092 38.2412 5.15192C38.2412 5.28992 38.2412 5.42892 38.2412 5.56792C38.2412 5.73492 38.2412 5.88792 38.2412 6.02492C38.2412 6.16592 38.2412 6.30392 38.2412 6.44192C38.2412 6.60892 38.2412 6.76492 38.2412 6.90292C38.2412 7.04292 38.2412 7.18092 38.2412 7.31892C38.2412 7.48692 38.2412 7.64192 38.2412 7.77892C38.2412 7.91592 38.2412 8.05792 38.2412 8.19492C38.2412 8.36292 38.2412 8.51492 38.2412 8.65492C38.2412 8.79492 38.2412 8.93192 38.2412 9.07192C38.2412 9.23792 38.2412 9.37892 38.2412 9.48992C38.2412 9.62792 38.2412 9.73892 38.2412 9.82192C38.2412 9.87792 38.2412 9.92092 38.2412 9.94692C38.2412 9.97292 38.2412 10.0159 38.2412 10.0719V10.3639C38.2412 10.4199 38.2412 10.4629 38.2412 10.4889C38.2412 10.5449 38.2412 10.5859 38.2412 10.6139V10.6969C38.2412 10.7249 38.2412 10.7659 38.2412 10.8219C38.2412 10.8499 38.2412 10.8919 38.2412 10.9479V11.0289C38.2412 11.0599 38.2412 11.0849 38.2412 11.1159V11.1559C38.2412 11.1839 38.2412 11.2119 38.2412 11.2389C34.8732 11.2389 31.4952 11.2389 28.1022 11.2389L28.0612 11.2829V11.3249C28.0612 11.3489 28.0612 11.3809 28.0612 11.4059C28.0332 11.4349 28.0042 11.4479 27.9772 11.4479C27.9232 11.4759 27.8802 11.5019 27.8532 11.5309L27.8102 11.5719V11.6139C27.7852 11.6139 27.7422 11.6279 27.6862 11.6579C27.6862 11.6839 27.6722 11.7109 27.6442 11.7399H27.6032C27.5762 11.7689 27.5472 11.7959 27.5202 11.8229C27.4922 11.8229 27.4772 11.8379 27.4772 11.8669V11.9079C27.4502 11.9079 27.4212 11.9229 27.3942 11.9499C27.3672 11.9499 27.3392 11.9499 27.3112 11.9499C27.3112 12.0059 27.3112 12.0609 27.3112 12.1159C27.3112 12.2289 27.3112 12.3529 27.3112 12.4909C27.3112 12.6029 27.3112 12.7279 27.3112 12.8679C27.3112 13.0069 27.3112 13.1309 27.3112 13.2429C27.3112 13.3809 27.3112 13.5049 27.3112 13.6169C27.3112 13.7599 27.3112 13.8819 27.3112 13.9929C27.3112 14.1329 27.3112 14.2589 27.3112 14.3679C27.3112 14.5089 27.3112 14.6469 27.3112 14.7869C27.3112 14.8979 27.3112 15.0209 27.3112 15.1629C27.3112 15.2739 27.3112 15.3969 27.3112 15.5379C27.3112 15.6499 27.3112 15.7719 27.3112 15.9129C27.3112 15.9419 27.3112 15.9689 27.3112 15.9959C27.3942 15.9959 27.4642 15.9959 27.5202 15.9959C27.5202 16.0249 27.5202 16.0519 27.5202 16.0809V16.1629C27.5202 16.1929 27.5202 16.2199 27.5202 16.2479C27.5202 16.2749 27.5202 16.3039 27.5202 16.3309V16.3709C27.5202 16.4009 27.5202 16.4289 27.5202 16.4549V16.5379C27.5202 16.5659 27.5202 16.5939 27.5202 16.6229V16.7079H27.4772V16.7479C27.4772 16.7739 27.4772 16.8039 27.4772 16.8319V16.9149C27.4772 16.9419 27.4772 16.9709 27.4772 16.9979V17.0389C27.4772 17.0689 27.4772 17.0929 27.4772 17.1239C27.4772 17.1499 27.4772 17.1799 27.4772 17.2059C23.3612 17.2059 19.2322 17.2059 15.0892 17.2059C15.0892 17.2619 15.0892 17.3029 15.0892 17.3309C15.0892 17.3889 15.0892 17.4279 15.0892 17.4549C15.0592 17.4839 15.0462 17.5109 15.0462 17.5399C15.0182 17.5959 14.9912 17.6389 14.9632 17.6669C14.9632 17.6929 14.9632 17.7339 14.9632 17.7899C14.9632 17.8189 14.9632 17.8609 14.9632 17.9149V17.9999C14.9632 18.0269 14.9632 18.0559 14.9632 18.0829C14.9632 18.1399 14.9632 18.1809 14.9632 18.2069C14.9632 18.2629 14.9632 18.3059 14.9632 18.3329C14.9362 18.3609 14.9232 18.3889 14.9232 18.4169C14.8662 18.4439 14.8262 18.4859 14.7962 18.5419C14.7962 18.5689 14.7962 18.6119 14.7962 18.6669C14.7962 18.6949 14.7962 18.7229 14.7962 18.7509C14.7962 18.7769 14.7962 18.8209 14.7962 18.8739C14.7962 18.9019 14.7962 18.9299 14.7962 18.9579C14.7962 19.0139 14.7962 19.0549 14.7962 19.0839C14.7702 19.1399 14.7542 19.1809 14.7542 19.2089C14.7002 19.2369 14.6722 19.2629 14.6722 19.2919C14.6722 19.3179 14.6722 19.3619 14.6722 19.4179C14.6722 19.4429 14.6722 19.4859 14.6722 19.5419C14.6722 19.5699 14.6722 19.5979 14.6722 19.6249C14.6722 19.6519 14.6722 19.6789 14.6722 19.7069C14.6722 19.7649 14.6722 19.8049 14.6722 19.8339C14.6722 19.8889 14.6722 19.9299 14.6722 19.9579C14.6172 19.9859 14.5602 20.0279 14.5052 20.0839C14.5052 20.1119 14.5052 20.1399 14.5052 20.1669C14.5052 20.1939 14.5052 20.2359 14.5052 20.2919C14.5052 20.3189 14.5052 20.3609 14.5052 20.4169C14.5052 20.4439 14.5052 20.4719 14.5052 20.4999C14.5052 20.5279 14.5052 20.5579 14.5052 20.5849C14.4772 20.5849 14.4352 20.6109 14.3802 20.6669C14.3802 20.6949 14.3802 20.7229 14.3802 20.7509C14.3802 20.7789 14.3802 20.8209 14.3802 20.8769C14.3802 20.9039 14.3802 20.9449 14.3802 21.0009C14.3802 21.0289 14.3802 21.0569 14.3802 21.0859C14.3542 21.1129 14.3392 21.1409 14.3392 21.1669C14.3102 21.2229 14.2692 21.2639 14.2132 21.2949C14.2132 21.3509 14.2132 21.3909 14.2132 21.4169C14.2132 21.4459 14.2132 21.4869 14.2132 21.5429C14.1872 21.5429 14.1722 21.5709 14.1722 21.6269C14.1442 21.6549 14.1172 21.6959 14.0882 21.7519C14.0882 21.7799 14.0882 21.8079 14.0882 21.8349C14.0882 21.8909 14.0882 21.9329 14.0882 21.9589C14.0612 21.9869 14.0462 22.0169 14.0462 22.0439C14.0202 22.0999 13.9762 22.1409 13.9212 22.1689C13.9212 22.2249 13.9212 22.2669 13.9212 22.2939C13.9212 22.3209 13.9212 22.3629 13.9212 22.4189C13.8942 22.4189 13.8812 22.4479 13.8812 22.5039C13.8532 22.5299 13.8242 22.5719 13.7972 22.6279C13.7972 22.6569 13.7972 22.6839 13.7972 22.7129C13.7972 22.7669 13.7972 22.8089 13.7972 22.8369C13.7972 22.8649 13.7972 22.8929 13.7972 22.9199C13.7412 22.9199 13.6862 22.9459 13.6312 23.0029C13.6022 23.0029 13.5892 23.0309 13.5892 23.0869C13.5612 23.1149 13.5352 23.1549 13.5042 23.2109C13.5042 23.2399 13.5042 23.2669 13.5042 23.2959C13.5042 23.3499 13.5042 23.3909 13.5042 23.4209C13.5042 23.4479 13.5042 23.4769 13.5042 23.5039V23.6299C13.4502 23.6569 13.3942 23.6849 13.3382 23.7129C13.3382 23.7409 13.3382 23.7689 13.3382 23.7959C13.3382 23.8519 13.3382 23.8939 13.3382 23.9209C13.3382 23.9489 13.3382 23.9899 13.3382 24.0459C13.3122 24.0749 13.2682 24.1159 13.2122 24.1709V24.2539C13.2122 24.2819 13.2122 24.3099 13.2122 24.3379C13.2122 24.3939 13.2122 24.4349 13.2122 24.4619C13.1582 24.5189 13.1032 24.5609 13.0472 24.5869C13.0472 24.6169 13.0472 24.6449 13.0472 24.6719C13.0472 24.7279 13.0472 24.7689 13.0472 24.7959C13.0472 24.8249 13.0472 24.8649 13.0472 24.9219C13.0192 24.9489 13.0052 24.9909 13.0052 25.0449C12.9492 25.0449 12.9222 25.0739 12.9222 25.1289C12.9222 25.1579 12.9222 25.1849 12.9222 25.2149C12.9222 25.2679 12.9222 25.3099 12.9222 25.3379C12.9222 25.3939 12.9222 25.4349 12.9222 25.4629V25.5049C12.8652 25.5339 12.8102 25.5759 12.7552 25.6299V25.7129C12.7552 25.7399 12.7552 25.7689 12.7552 25.7959C12.7552 25.8519 12.7552 25.8949 12.7552 25.9209C12.7552 25.9769 12.7552 26.0209 12.7552 26.0459V26.0879C12.7262 26.1179 12.6852 26.1439 12.6282 26.1719C12.6282 26.1989 12.6282 26.2419 12.6282 26.2979C12.6282 26.3239 12.6282 26.3509 12.6282 26.3789C12.6282 26.4349 12.6282 26.4789 12.6282 26.5059C12.6282 26.5619 12.6282 26.6019 12.6282 26.6289C12.6282 26.6579 12.6282 26.6849 12.6282 26.7159C12.6282 26.7409 12.6282 26.7699 12.6282 26.7969V26.8389C12.5722 26.8679 12.5172 26.8949 12.4612 26.9229C12.4612 26.9519 12.4612 26.9789 12.4612 27.0059C12.4612 27.0349 12.4612 27.0769 12.4612 27.1319C12.4612 27.1599 12.4612 27.2009 12.4612 27.2579C12.4612 27.2829 12.4612 27.3129 12.4612 27.3399C12.4612 27.3679 12.4612 27.3959 12.4612 27.4239C12.4612 27.4799 12.4612 27.5209 12.4612 27.5479C12.4612 27.6039 12.4612 27.6469 12.4612 27.6739C12.4612 27.7009 12.4612 27.7409 12.4612 27.7989C12.4612 27.8269 12.4612 27.8549 12.4612 27.8819C12.4612 27.9119 12.4612 27.9529 12.4612 28.0089C12.4612 28.0369 12.4612 28.0779 12.4612 28.1329C12.4612 28.1599 12.4612 28.1889 12.4612 28.2159C12.4612 28.2459 12.4612 28.2739 12.4612 28.3009V28.4259H12.5062C12.5322 28.4259 12.5472 28.4389 12.5472 28.4659V28.6759L12.5882 28.7179V28.8429C12.6162 28.8429 12.6282 28.8549 12.6282 28.8839V28.9259C12.6282 28.9549 12.6452 28.9669 12.6732 28.9669V29.0109C12.6732 29.0369 12.6852 29.0519 12.7152 29.0519V29.0939L12.7552 29.1359V29.3029C12.7822 29.3029 12.8112 29.3169 12.8382 29.3429V29.3859L12.8812 29.4289V29.4689H12.9232V29.5109C12.9232 29.5399 12.9362 29.5519 12.9652 29.5519H13.0062V29.5999C13.0352 29.5999 13.0482 29.6119 13.0482 29.6409V29.6829C13.0762 29.6829 13.1042 29.6829 13.1312 29.6829V29.7239C13.1592 29.7519 13.1872 29.7669 13.2132 29.7669C13.2432 29.7669 13.2692 29.7669 13.2992 29.7669V29.8079C13.2992 29.8359 13.3132 29.8509 13.3392 29.8509H13.4242C13.4792 29.8509 13.5192 29.8509 13.5472 29.8509V29.8919H13.5902V29.9349C13.6462 29.9349 13.6872 29.9349 13.7152 29.9349V29.9759C13.7432 29.9759 13.7702 29.9759 13.7982 29.9759C13.7982 30.0029 13.8132 30.0189 13.8412 30.0189V30.3519C13.6452 30.3519 13.4632 30.3519 13.2982 30.3519C13.2122 30.3519 13.1312 30.3519 13.0472 30.3519V30.3119C13.0192 30.3119 12.9882 30.3119 12.9642 30.3119L12.9222 30.3519C12.7552 30.3519 12.6032 30.3519 12.4612 30.3519C12.3542 30.3519 12.2552 30.3679 12.1712 30.3939C11.8382 30.3939 11.4882 30.3939 11.1292 30.3939C11.0422 30.3679 10.9752 30.3519 10.9212 30.3519V30.2249H10.8792C10.7672 30.2249 10.6702 30.2249 10.5862 30.2249C10.5302 30.1999 10.4742 30.1839 10.4192 30.1839V30.0189C10.3092 30.0189 10.1852 30.0189 10.0442 30.0189C9.9052 29.9909 9.7682 29.9759 9.6282 29.9759V29.8899C9.5102 29.8639 9.3862 29.8499 9.2472 29.8499C9.1082 29.8499 8.9692 29.8349 8.8302 29.8069V29.7659H8.7882C8.7312 29.7659 8.6912 29.7659 8.6632 29.7659H8.5802C8.2472 29.7379 7.9002 29.7229 7.5382 29.7229C7.5382 29.6949 7.5382 29.6669 7.5382 29.6399C7.2022 29.6109 6.8982 29.5829 6.6192 29.5559C6.5932 29.5559 6.5632 29.5289 6.5372 29.4729C6.3712 29.4729 6.2042 29.4599 6.0372 29.4329C6.0082 29.4029 5.9802 29.3769 5.9532 29.3459C5.7862 29.3199 5.6182 29.2899 5.4512 29.2649C5.4272 29.2649 5.3982 29.2359 5.3702 29.1799C5.2032 29.1799 5.03519 29.1659 4.8712 29.1379C4.8422 29.1119 4.8122 29.0819 4.7862 29.0549C4.61919 29.0259 4.4662 28.9989 4.3262 28.9699V28.8899C4.2142 28.8899 4.1032 28.8759 3.9942 28.8489C3.9662 28.8189 3.9382 28.7929 3.9092 28.7639C3.8542 28.7379 3.7842 28.7079 3.7012 28.6819C3.6172 28.6819 3.5352 28.6819 3.4502 28.6819C3.4502 28.6529 3.4502 28.6269 3.4502 28.5989C3.4502 28.5419 3.4502 28.4999 3.4502 28.4709C3.4502 28.4439 3.4502 28.4149 3.4502 28.3879C3.4502 28.3319 3.4502 28.2919 3.4502 28.2639C3.4502 28.2359 3.4502 28.1939 3.4502 28.1379V28.0549C2.6722 28.0549 1.8952 28.0549 1.1172 28.0549V28.0149C1.1172 27.9849 1.1172 27.9589 1.1172 27.9289V27.8469C1.0862 27.8469 1.0312 27.8469 0.950195 27.8469C0.950195 27.7909 0.950195 27.7479 0.950195 27.7219C0.950195 27.6659 0.950195 27.6249 0.950195 27.5979C0.950195 27.5689 0.950195 27.5419 0.950195 27.5129C0.950195 27.4569 0.950195 27.4159 0.950195 27.3869C0.950195 27.3619 0.950195 27.3189 0.950195 27.2639C0.950195 27.2339 0.950195 27.1939 0.950195 27.1379C0.950195 27.1099 0.950195 27.0819 0.950195 27.0559C0.950195 27.0269 0.950195 26.9979 0.950195 26.9709C0.950195 26.9149 0.950195 26.8739 0.950195 26.8449C0.950195 26.7909 0.950195 26.7479 0.950195 26.7229C0.950195 26.6919 0.950195 26.6649 0.950195 26.6359C0.950195 26.6089 0.950195 26.5689 0.950195 26.5129C0.950195 26.4849 0.950195 26.4419 0.950195 26.3859C0.950195 26.3579 0.950195 26.3309 0.950195 26.3049C0.950195 26.2489 0.950195 26.2059 0.950195 26.1789C0.950195 26.1509 0.950195 26.1239 0.950195 26.0949C0.950195 26.0389 0.950195 25.9979 0.950195 25.9699C0.950195 25.9139 0.950195 25.8719 0.950195 25.8449C0.950195 25.8159 0.950195 25.7889 0.950195 25.7599C0.950195 25.7349 0.950195 25.6919 0.950195 25.6359C0.950195 25.6079 0.950195 25.5669 0.950195 25.5109C0.950195 25.4849 0.950195 25.4549 0.950195 25.4279V25.3429C0.950195 25.2869 0.950195 25.2459 0.950195 25.2199C0.950195 25.1899 0.950195 25.1629 0.950195 25.1339V25.0929C1.0312 25.0649 1.0872 25.0499 1.1172 25.0499C1.1172 24.9969 1.1172 24.9539 1.1172 24.9269C1.1172 24.8689 1.1172 24.8299 1.1172 24.8009C1.1172 24.7749 1.1172 24.7329 1.1172 24.6769C1.1172 24.6489 1.1172 24.6209 1.1172 24.5919C1.1172 24.5659 1.1172 24.5229 1.1172 24.4669C1.1172 24.4399 1.1172 24.3989 1.1172 24.3429C1.1172 24.3149 1.1172 24.2869 1.1172 24.2589C1.1422 24.2029 1.1712 24.1759 1.1982 24.1759C1.2252 24.1219 1.2402 24.0809 1.2402 24.0509C1.2402 23.9949 1.2402 23.9529 1.2402 23.9259C1.2402 23.8999 1.2402 23.8569 1.2402 23.8009C1.2402 23.7729 1.2402 23.7449 1.2402 23.7179C1.2402 23.6899 1.2402 23.6619 1.2402 23.6349C1.3252 23.6059 1.3812 23.5949 1.4072 23.5949C1.4072 23.5379 1.4072 23.4939 1.4072 23.4669C1.4072 23.4129 1.4072 23.3679 1.4072 23.3419C1.4072 23.3159 1.4072 23.2729 1.4072 23.2169C1.4072 23.1909 1.4072 23.1609 1.4072 23.1349C1.4072 23.1049 1.4072 23.0649 1.4072 23.0099C1.4072 22.9819 1.4072 22.9529 1.4072 22.9269C1.4072 22.8709 1.4072 22.8299 1.4072 22.8009C1.4632 22.7449 1.5042 22.7199 1.5332 22.7199C1.5332 22.6639 1.5332 22.6199 1.5332 22.5939C1.5332 22.5649 1.5332 22.5249 1.5332 22.4679C1.5332 22.4409 1.5332 22.3999 1.5332 22.3439C1.5332 22.3159 1.5332 22.2879 1.5332 22.2589C1.5332 22.2319 1.5332 22.2039 1.5332 22.1759C1.6152 22.1479 1.6712 22.1339 1.7002 22.1339C1.7002 22.0779 1.7002 22.0379 1.7002 22.0089C1.7002 21.9809 1.7002 21.9399 1.7002 21.8839C1.7002 21.8549 1.7002 21.8149 1.7002 21.7589C1.7002 21.7309 1.7002 21.7029 1.7002 21.6759C1.7002 21.6509 1.7002 21.6209 1.7002 21.5949C1.7562 21.5649 1.7962 21.5509 1.8222 21.5509C1.8222 21.4949 1.8222 21.4539 1.8222 21.4249C1.8222 21.3989 1.8222 21.3589 1.8222 21.3029C1.8222 21.2719 1.8222 21.2309 1.8222 21.1749C1.9072 21.1489 1.9632 21.1209 1.9902 21.0939C1.9902 21.0649 1.9902 21.0369 1.9902 21.0089C1.9902 20.9529 1.9902 20.9119 1.9902 20.8849C1.9902 20.8289 1.9902 20.7869 1.9902 20.7589C2.0462 20.7309 2.0882 20.7029 2.1152 20.6749C2.1152 20.6189 2.1152 20.5779 2.1152 20.5499C2.1152 20.5209 2.1152 20.4799 2.1152 20.4249C2.1742 20.3989 2.2132 20.3549 2.2412 20.2999C2.2412 20.2719 2.2562 20.2439 2.2832 20.2159C2.2832 20.1889 2.2832 20.1599 2.2832 20.1329C2.3382 20.1329 2.3802 20.1199 2.4082 20.0919C2.4082 20.0359 2.4082 19.9929 2.4082 19.9659C2.4082 19.9389 2.4082 19.8969 2.4082 19.8419C2.4642 19.8129 2.5042 19.7729 2.5322 19.7149C2.5322 19.6869 2.5452 19.6609 2.5752 19.6329C2.5752 19.6049 2.5752 19.5769 2.5752 19.5499C2.5752 19.5229 2.5752 19.4939 2.5752 19.4639V19.4259C2.6312 19.3969 2.6712 19.3699 2.6992 19.3419C2.6992 19.3149 2.6992 19.2859 2.6992 19.2589C2.6992 19.1999 2.6992 19.1599 2.6992 19.1319C2.6992 19.0759 2.6992 19.0359 2.6992 19.0079C2.7552 18.9799 2.8112 18.9519 2.8662 18.9249C2.8662 18.8959 2.8662 18.8529 2.8662 18.7979C2.8662 18.7719 2.8662 18.7299 2.8662 18.6729C2.8942 18.6469 2.9352 18.6169 2.9912 18.5899C2.9912 18.5339 2.9912 18.4919 2.9912 18.4649C3.0172 18.4369 3.0332 18.4109 3.0332 18.3819C3.0612 18.3259 3.0892 18.2829 3.1162 18.2569C3.1162 18.2029 3.1292 18.1579 3.1582 18.1319C3.1852 18.1029 3.2132 18.0759 3.2412 18.0469C3.2702 18.0209 3.2852 17.9799 3.2852 17.9219C3.2852 17.8959 3.2852 17.8529 3.2852 17.7969C3.2852 17.7709 3.2852 17.7409 3.2852 17.7149C3.3392 17.6579 3.3962 17.6299 3.4492 17.6299C3.4492 17.5739 3.4492 17.5329 3.4492 17.5079C3.4492 17.4519 3.4492 17.4059 3.4492 17.3799C3.4782 17.3529 3.5192 17.3109 3.5752 17.2549C3.5752 17.2289 3.5752 17.1989 3.5752 17.1719C3.5752 17.1459 3.5752 17.0999 3.5752 17.0459C3.5752 17.0189 3.5752 16.9789 3.5752 16.9219C3.6312 16.8939 3.6732 16.8659 3.7002 16.8389C3.7002 16.7809 3.7142 16.7549 3.7422 16.7549V16.6729C3.7982 16.6449 3.8392 16.6169 3.8682 16.5879C3.8682 16.5589 3.8682 16.5189 3.8682 16.4619V16.3779C3.9212 16.3529 3.9792 16.3249 4.0342 16.2969C4.0342 16.2689 4.0342 16.2269 4.0342 16.1709C4.0902 16.1449 4.1322 16.1149 4.1612 16.0889C4.1612 16.0329 4.1612 15.9899 4.1612 15.9629C4.1902 15.9069 4.2142 15.8819 4.2442 15.8819C4.2702 15.8249 4.3002 15.7799 4.3262 15.7559C4.3262 15.6999 4.3262 15.6589 4.3262 15.6279C4.3262 15.6029 4.3262 15.5619 4.3262 15.5049C4.3262 15.4759 4.3542 15.4489 4.4092 15.4209C4.4362 15.3939 4.4532 15.3549 4.4532 15.2979C4.4532 15.2689 4.4532 15.2419 4.4532 15.2119C4.5062 15.1559 4.5492 15.1159 4.5772 15.0869C4.5772 15.0299 4.5922 15.0039 4.6192 15.0039C4.6192 14.9489 4.6192 14.9069 4.6192 14.8789C4.6752 14.8509 4.7142 14.8099 4.7442 14.7539C4.7442 14.7259 4.7442 14.6839 4.7442 14.6279C4.7442 14.5999 4.7442 14.5719 4.7442 14.5449C4.7442 14.5189 4.7442 14.4889 4.7442 14.4619C4.7992 14.4339 4.8552 14.4219 4.9112 14.4219C4.9112 14.3659 4.9112 14.3219 4.9112 14.2959C4.9112 14.2699 4.9112 14.2259 4.9112 14.1709C4.9112 14.1439 4.9112 14.1029 4.9112 14.0459C4.96819 14.0179 5.0072 13.9899 5.0352 13.9629C5.0352 13.9349 5.0352 13.8929 5.0352 13.8379C5.0352 13.8109 5.0352 13.7839 5.0352 13.7549C5.0352 13.6989 5.0352 13.6579 5.0352 13.6289C5.0352 13.6039 5.0352 13.5729 5.0352 13.5479C5.0352 13.4919 5.0352 13.4489 5.0352 13.4209C5.0352 13.3929 5.0352 13.3649 5.0352 13.3379V13.2969C5.0912 13.2969 5.1472 13.2819 5.2032 13.2539C5.2032 13.1969 5.2032 13.1559 5.2032 13.1289C5.2032 13.0999 5.2032 13.0589 5.2032 13.0029V12.8779C5.1472 12.8779 5.0912 12.8659 5.0352 12.8359C5.0352 12.8089 5.0352 12.7669 5.0352 12.7099V12.6689C5.0352 12.6419 5.0352 12.6129 5.0352 12.5859C4.9792 12.5859 4.92519 12.5699 4.8712 12.5429C4.8422 12.5139 4.7992 12.4749 4.7452 12.4189C4.7452 12.3899 4.7452 12.3489 4.7452 12.2949C4.7452 12.2669 4.7312 12.2389 4.7022 12.2079C4.6202 12.1809 4.5372 12.1519 4.4542 12.1249C4.4542 12.0959 4.4542 12.0709 4.4542 12.0399C4.3972 12.0149 4.3422 11.9869 4.2862 11.9589C4.2582 11.9319 4.2152 11.8879 4.1612 11.8319V11.7489C4.1032 11.7199 4.0502 11.6929 3.9942 11.6669C3.9662 11.6369 3.9382 11.6079 3.9092 11.5819C3.8542 11.5529 3.7992 11.5409 3.7432 11.5409C3.7432 11.5119 3.7432 11.4849 3.7432 11.4579C3.6862 11.4299 3.6322 11.4019 3.5762 11.3749C3.5762 11.3459 3.5762 11.3179 3.5762 11.2929C3.4932 11.2619 3.3982 11.2489 3.2862 11.2489C3.2862 11.2209 3.2862 11.1929 3.2862 11.1659C3.2302 11.1379 3.1732 11.1109 3.1182 11.0829C3.0902 11.0559 3.0632 11.0279 3.0352 10.9999C2.9782 10.9719 2.9242 10.9589 2.8682 10.9589C2.8682 10.9299 2.8682 10.9029 2.8682 10.8759C2.7012 10.8469 2.5472 10.8189 2.4102 10.7919C2.3822 10.7639 2.3532 10.7349 2.3252 10.7079C2.2702 10.6799 2.2012 10.6669 2.1162 10.6669C2.1162 10.6379 2.1162 10.6099 2.1162 10.5839C1.9242 10.5549 1.7282 10.5279 1.5342 10.4989C1.5342 10.4729 1.5342 10.4299 1.5342 10.3739C1.5342 10.3479 1.5342 10.3179 1.5342 10.2919C1.5342 10.2629 1.5342 10.2349 1.5342 10.2069C1.4222 10.2069 1.2842 10.2069 1.1182 10.2069C1.1182 10.1809 1.1182 10.1389 1.1182 10.0819C1.1182 10.0539 1.1182 10.0259 1.1182 9.99892V9.90892C1.1182 9.85292 1.1182 9.81192 1.1182 9.78292C1.1182 9.72692 1.1182 9.68592 1.1182 9.65792C1.1182 9.63092 1.1182 9.58992 1.1182 9.53392C1.1182 9.50392 1.1182 9.47792 1.1182 9.44892C1.1182 9.42292 1.1182 9.38092 1.1182 9.32492C1.1182 9.29592 1.1182 9.25492 1.1182 9.19892C1.1182 9.17092 1.1182 9.14292 1.1182 9.11592V9.03192C1.1182 8.97592 1.1182 8.93392 1.1182 8.90692C1.1182 8.85092 1.1182 8.81092 1.1182 8.78492C1.1182 8.75492 1.1182 8.71292 1.1182 8.65792C1.1682 8.62792 1.2102 8.60192 1.2362 8.57492C1.2362 8.54492 1.2362 8.50392 1.2362 8.44792C1.2362 8.41992 1.2362 8.39392 1.2362 8.36492C1.2362 8.30892 1.2362 8.26692 1.2362 8.23792V8.15692C1.2362 8.10092 1.2362 8.05992 1.2362 8.03092C1.2362 7.97492 1.2362 7.93392 1.2362 7.90692C1.2362 7.87892 1.2362 7.83692 1.2362 7.78092C1.2362 7.75492 1.2362 7.72492 1.2362 7.69792C1.2362 7.66892 1.2362 7.64392 1.2362 7.61392C1.4032 7.58692 1.5562 7.57292 1.6972 7.57292C1.6972 7.51692 1.6972 7.47592 1.6972 7.44792C1.6972 7.42192 1.6972 7.37692 1.6972 7.32192C1.6972 7.29592 1.6972 7.25392 1.6972 7.19792C1.6972 7.16892 1.6972 7.14192 1.6972 7.11392C1.6972 7.08592 1.6972 7.04592 1.6972 6.98992C1.6972 6.96092 1.6972 6.93392 1.6972 6.90592C1.6972 6.84992 1.6972 6.80792 1.6972 6.77992V6.69592C1.6972 6.64192 1.6972 6.59892 1.6972 6.57092C1.6972 6.54292 1.6972 6.50092 1.6972 6.44392C1.6972 6.41792 1.6972 6.37692 1.6972 6.32092C1.7532 6.29492 1.7932 6.26392 1.8192 6.23592C1.8192 6.20992 1.8192 6.17992 1.8192 6.15392C1.8192 6.09792 1.8192 6.05692 1.8192 6.02792C1.8782 5.97192 1.9192 5.93292 1.9472 5.90392C1.9472 5.87592 1.9602 5.84792 1.9872 5.81892C1.9872 5.76492 1.9872 5.72292 1.9872 5.69692C1.9872 5.66792 1.9872 5.63792 1.9872 5.61092V5.56992C2.0432 5.56992 2.0852 5.55492 2.1122 5.52792C2.1122 5.47192 2.1122 5.42992 2.1122 5.40292C2.1122 5.37292 2.1122 5.33292 2.1122 5.27592C2.1122 5.24792 2.1122 5.20592 2.1122 5.15292C2.1972 5.12392 2.2532 5.09692 2.2812 5.06792C2.2812 5.04192 2.2812 5.01192 2.2812 4.98492C2.2812 4.95692 2.2812 4.91392 2.2812 4.85992C2.3362 4.83092 2.3782 4.80392 2.4062 4.77492C2.4062 4.74892 2.4062 4.71892 2.4062 4.69192C2.4062 4.66292 2.4062 4.63792 2.4062 4.60692V4.56792C2.4622 4.54092 2.5172 4.51292 2.5732 4.48492C2.5732 4.45592 2.5732 4.42892 2.5732 4.40092C2.6292 4.40092 2.6692 4.38692 2.6972 4.35892C2.6972 4.33092 2.6972 4.28892 2.6972 4.23192C2.6972 4.20692 2.6972 4.17792 2.6972 4.15092V4.11092C2.7532 4.11092 2.8092 4.09692 2.8642 4.06692C2.8642 4.04092 2.8642 4.01392 2.8642 3.98492C2.9202 3.95592 2.9602 3.92892 2.9892 3.90192C2.9892 3.87392 2.9892 3.84292 2.9892 3.81692C2.9892 3.79092 2.9892 3.76092 2.9892 3.73492V3.69192C3.0452 3.66392 3.1012 3.63592 3.1572 3.60992C3.1572 3.58392 3.1572 3.55292 3.1572 3.52692C3.2122 3.52692 3.2542 3.51192 3.2832 3.48292C3.2832 3.45692 3.2832 3.42892 3.2832 3.40092C3.3372 3.37192 3.3942 3.34492 3.4472 3.31592C3.4472 3.28892 3.4472 3.26092 3.4472 3.23292C3.5032 3.23292 3.5462 3.21992 3.5732 3.19092C3.5732 3.16492 3.5732 3.13492 3.5732 3.10892C3.6292 3.08092 3.6842 3.06692 3.7402 3.06692C3.7402 3.03792 3.7402 3.01092 3.7402 2.98392V2.89992C3.7402 2.87092 3.7402 2.82892 3.7402 2.77492V2.64992C4.1292 2.64992 4.5192 2.66392 4.9082 2.69292C4.9082 2.66392 4.9082 2.63692 4.9082 2.60692C4.9082 2.58092 4.9082 2.53892 4.9082 2.48292C4.9082 2.45492 4.9082 2.41292 4.9082 2.35792C4.9082 2.33192 4.9082 2.30092 4.9082 2.27292V2.18992C4.9082 2.13392 4.9082 2.09392 4.9082 2.06492C4.9082 2.03792 4.9082 2.00892 4.9082 1.98192V1.94092C9.6642 1.96592 14.4182 1.98192 19.1752 1.98192C19.1752 2.00892 19.1752 2.03792 19.1752 2.06492C19.1752 2.12092 19.1752 2.16292 19.1752 2.18992C19.1752 2.24592 19.1752 2.28692 19.1752 2.31592C19.1752 2.34292 19.1752 2.37192 19.1752 2.39892C19.3692 2.39892 19.5632 2.39892 19.7582 2.39892V2.48292C19.8142 2.50992 19.8552 2.53892 19.8852 2.56592C19.8852 2.59492 19.8852 2.62192 19.8852 2.64892C19.8852 2.70492 19.8852 2.74792 19.8852 2.77392C19.8852 2.82792 19.8852 2.86992 19.8852 2.89892C19.8852 2.92492 19.8852 2.95492 19.8852 2.98392C19.8852 3.03792 19.8852 3.07992 19.8852 3.10892C19.8852 3.13492 19.8852 3.17792 19.8852 3.23292V3.27492C21.6342 3.27492 23.3872 3.27492 25.1402 3.27492V3.23392C25.1402 3.20392 25.1402 3.17892 25.1402 3.14992V3.06692C25.1402 3.01092 25.1402 2.96992 25.1402 2.94192C25.1402 2.88392 25.1402 2.84192 25.1402 2.81392C25.1402 2.78792 25.1402 2.74792 25.1402 2.69192C25.1402 2.66292 25.1402 2.63592 25.1402 2.60592C25.1402 2.57992 25.1402 2.53792 25.1402 2.48192C25.1402 2.45392 25.1402 2.41192 25.1402 2.35692C25.1402 2.33092 25.1402 2.29992 25.1402 2.27192V2.18992C25.1402 2.13392 25.1402 2.09392 25.1402 2.06492C25.1402 2.03792 25.1402 2.00892 25.1402 1.98192V1.94092C28.7002 1.96592 32.2432 1.98192 35.7762 1.98192V1.94092C36.1112 1.96592 36.4292 1.98192 36.7372 1.98192H37.0682C37.2642 1.98192 37.4582 1.98192 37.6542 1.98192C37.6542 2.00892 37.6542 2.03792 37.6542 2.06492C37.7102 2.06492 37.7652 2.07792 37.8212 2.10892C37.8212 2.16292 37.8212 2.20492 37.8212 2.23092C37.8212 2.25992 37.8212 2.30092 37.8212 2.35692C37.8232 2.38692 37.8232 2.42792 37.8232 2.48292ZM18.3002 11.7039C18.2152 11.7299 18.1452 11.7599 18.0922 11.7859C18.0642 11.8149 18.0212 11.8419 17.9662 11.8709C17.9372 11.8969 17.8972 11.9379 17.8412 11.9939C17.8412 12.0229 17.8412 12.0659 17.8412 12.1199C17.8132 12.1469 17.7742 12.1759 17.7172 12.2029C17.7172 12.2339 17.7172 12.2619 17.7172 12.2899C17.7172 12.3439 17.7172 12.3849 17.7172 12.4139C17.6612 12.4409 17.6062 12.4699 17.5502 12.4949C17.5502 12.5239 17.5502 12.5509 17.5502 12.5799C17.5502 12.6359 17.5502 12.6759 17.5502 12.7039C17.5222 12.7319 17.4812 12.7609 17.4232 12.7869C17.4232 12.8159 17.4232 12.8449 17.4232 12.8709C17.4232 12.9249 17.4232 12.9679 17.4232 12.9959C17.4232 13.0519 17.4232 13.0929 17.4232 13.1219C17.3952 13.1489 17.3672 13.1899 17.3402 13.2469C17.3132 13.2749 17.2842 13.3019 17.2572 13.3299C17.2572 13.3569 17.2572 13.3969 17.2572 13.4529C17.2572 13.4839 17.2572 13.5239 17.2572 13.5799C17.2572 13.6079 17.2432 13.6349 17.2152 13.6619C17.1892 13.6909 17.1582 13.7199 17.1322 13.7459C17.1322 13.8019 17.1322 13.8439 17.1322 13.8729C17.1322 13.9269 17.1322 13.9699 17.1322 13.9969C17.1032 14.0259 17.0902 14.0679 17.0902 14.1229L17.1322 14.2079C17.1322 14.2339 17.1322 14.2739 17.1322 14.3309C17.1322 14.3589 17.1322 14.3869 17.1322 14.4149C17.1582 14.4709 17.1892 14.5119 17.2152 14.5389C17.2432 14.5669 17.2572 14.5949 17.2572 14.6219C17.2572 14.6789 17.2572 14.7209 17.2572 14.7479C17.3132 14.8039 17.3542 14.8449 17.3822 14.8729C17.3822 14.9009 17.3952 14.9419 17.4232 14.9979C17.4512 14.9979 17.4642 15.0239 17.4642 15.0809C17.4942 15.1089 17.5222 15.1489 17.5502 15.2059C17.5502 15.2369 17.5502 15.2639 17.5502 15.2919C17.5502 15.3479 17.5502 15.3879 17.5502 15.4149C17.5502 15.4439 17.5502 15.4709 17.5502 15.4989C17.5502 15.5549 17.5502 15.5969 17.5502 15.6219C17.5502 15.6529 17.5502 15.6939 17.5502 15.7499C17.5502 15.7749 17.5502 15.8199 17.5502 15.8759V15.9569C17.5502 15.9849 17.5502 16.0279 17.5502 16.0829C17.5502 16.1089 17.5502 16.1389 17.5502 16.1649C17.5502 16.2219 17.5502 16.2639 17.5502 16.2909C17.5502 16.3179 17.5502 16.3469 17.5502 16.3719C17.5502 16.4299 17.5502 16.4719 17.5502 16.4989C20.3292 16.4989 23.0962 16.4989 25.8512 16.4989V16.3719C25.8512 16.3469 25.8512 16.3189 25.8512 16.2909V16.2499C25.8512 16.2209 25.8512 16.1939 25.8512 16.1649V15.9569C26.0722 15.9569 26.2942 15.9719 26.5162 15.9989V15.9569C26.5162 15.9309 26.5162 15.9009 26.5162 15.8759V15.8329C26.5462 15.8329 26.5742 15.8189 26.6012 15.7889V15.7489C26.6012 15.6369 26.6012 15.5249 26.6012 15.4139C26.6012 15.3039 26.6012 15.2049 26.6012 15.1239C26.6012 14.9809 26.6012 14.8729 26.6012 14.7889C26.6012 14.6779 26.6012 14.5519 26.6012 14.4139C26.6012 14.3299 26.6012 14.2329 26.6012 14.1219C26.6012 14.0099 26.6012 13.8979 26.6012 13.7869C26.6012 13.6749 26.6012 13.5629 26.6012 13.4519C26.6012 13.3449 26.6012 13.2329 26.6012 13.1209C26.6012 13.0359 26.6012 12.9249 26.6012 12.7859C26.6012 12.6749 26.6012 12.5789 26.6012 12.4939C26.6012 12.3559 26.6012 12.2459 26.6012 12.1609C26.6012 12.1349 26.6012 12.0909 26.6012 12.0349C26.4912 12.0349 26.3662 12.0349 26.2242 12.0349V11.9939C26.2242 11.9669 26.2242 11.9389 26.2242 11.9119C26.1992 11.9119 26.1702 11.8969 26.1422 11.8709V11.8269H26.0592C26.0592 11.7999 26.0462 11.7739 26.0172 11.7439V11.7029C26.0172 11.6739 26.0052 11.6609 25.9752 11.6609V11.6169C25.9472 11.6169 25.9082 11.6169 25.8512 11.6169V11.5339H25.7672C25.7672 11.5049 25.7522 11.4779 25.7252 11.4509L25.6422 11.4089C25.6142 11.3839 25.5852 11.3679 25.5582 11.3679C25.5042 11.3389 25.4632 11.3279 25.4342 11.3279V11.2429H25.3922C23.8922 11.2429 22.4032 11.2429 20.9282 11.2429C20.9282 11.2719 20.9282 11.2989 20.9282 11.3279V11.3679C20.9282 11.3959 20.9282 11.4239 20.9282 11.4509C20.9282 11.4779 20.9282 11.5049 20.9282 11.5339V11.6599C20.8722 11.6859 20.8162 11.7129 20.7612 11.7419C20.7612 11.7979 20.7612 11.8389 20.7612 11.8679C20.7612 11.8939 20.7612 11.9349 20.7612 11.9909C20.7612 12.0199 20.7612 12.0629 20.7612 12.1169C20.7612 12.1439 20.7612 12.1729 20.7612 12.1999C20.7612 12.2309 20.7612 12.2589 20.7612 12.2869C20.7612 12.3409 20.7612 12.3819 20.7612 12.4109C20.7612 12.4669 20.7612 12.5059 20.7612 12.5349C20.7612 12.5919 20.7612 12.6469 20.7612 12.7019V12.7449C20.7612 12.7719 20.7612 12.8139 20.7612 12.8699C20.7612 12.8979 20.7612 12.9389 20.7612 12.9949C20.7612 13.0229 20.7612 13.0509 20.7612 13.0779C20.7612 13.1069 20.7612 13.1339 20.7612 13.1629C20.7612 13.2189 20.7612 13.2599 20.7612 13.2889C20.7612 13.3449 20.7612 13.3839 20.7612 13.4119C20.7612 13.4399 20.7612 13.4669 20.7612 13.4959V13.5789C20.7892 13.6069 20.8042 13.6339 20.8042 13.6609C20.8302 13.6609 20.8442 13.6759 20.8442 13.7059C20.8442 13.7319 20.8572 13.7459 20.8872 13.7459C20.8872 13.7759 20.9002 13.7879 20.9282 13.7879C20.9282 13.8189 20.9422 13.8299 20.9712 13.8299C20.9712 13.8579 20.9712 13.8859 20.9712 13.9139C20.9972 13.9409 21.0242 13.9549 21.0522 13.9549C21.0802 13.9829 21.1102 14.0109 21.1362 14.0379V14.0799C21.1362 14.1079 21.1502 14.1229 21.1782 14.1229C21.2052 14.1509 21.2202 14.1789 21.2202 14.2079L21.2622 14.2479C21.2902 14.2479 21.3182 14.2479 21.3462 14.2479C21.3462 14.2749 21.3462 14.3039 21.3462 14.3309C21.3732 14.3309 21.4022 14.3469 21.4292 14.3709L21.4712 14.4149C21.4992 14.4149 21.5252 14.4269 21.5542 14.4549V14.5379C21.5802 14.5379 21.6102 14.5379 21.6352 14.5379C21.6662 14.5659 21.6912 14.5939 21.7212 14.6209V14.6629C21.7462 14.6629 21.7772 14.6779 21.8022 14.7059C21.8582 14.7059 21.9152 14.7199 21.9692 14.7479V14.8309C22.0522 14.8309 22.1112 14.8309 22.1372 14.8309C22.1932 14.8589 22.2332 14.8859 22.2622 14.9129V14.9569C22.3452 14.9569 22.4152 14.9679 22.4702 14.9969C22.5242 14.9969 22.5962 15.0129 22.6792 15.0389V15.1239C22.8732 15.1239 23.0682 15.1239 23.2622 15.1239C23.2622 15.1489 23.2622 15.1799 23.2622 15.2049V15.2909C23.2622 15.3159 23.2622 15.3469 23.2622 15.3719C23.2622 15.3979 23.2622 15.4279 23.2622 15.4539V15.4979C23.2622 15.5249 23.2622 15.5539 23.2622 15.5809V15.6649C23.2622 15.6919 23.2622 15.7199 23.2622 15.7479V15.8309C22.8172 15.8309 22.3732 15.8309 21.9282 15.8309V15.7869C21.8722 15.7619 21.8162 15.7469 21.7612 15.7469C21.7052 15.7189 21.6352 15.6909 21.5532 15.6639V15.6189C21.5242 15.5939 21.4832 15.5789 21.4272 15.5789C21.3712 15.5789 21.3152 15.5639 21.2602 15.5369V15.4959C21.2332 15.4669 21.1912 15.4519 21.1352 15.4519C21.0782 15.4259 21.0232 15.3959 20.9702 15.3699V15.3289L20.9272 15.2889C20.8992 15.2599 20.8712 15.2449 20.8432 15.2449V15.2029C20.7882 15.1779 20.7462 15.1469 20.7182 15.1219C20.6902 15.1219 20.6622 15.1069 20.6322 15.0789C20.6322 15.0519 20.6322 15.0219 20.6322 14.9959C20.6072 14.9669 20.5792 14.9559 20.5512 14.9559C20.5232 14.9259 20.4952 14.9119 20.4672 14.9119C20.4392 14.8859 20.4272 14.8579 20.4272 14.8299L20.3842 14.7879C20.3842 14.7599 20.3722 14.7319 20.3432 14.7049C20.3162 14.6769 20.2862 14.6619 20.2592 14.6619V14.6199C20.2322 14.5919 20.2072 14.5639 20.1762 14.5369V14.4949C20.1492 14.4689 20.1212 14.4399 20.0942 14.4129L20.0512 14.3689V14.3289C20.0252 14.3289 19.9982 14.3129 19.9692 14.2869V14.2459C19.9402 14.2169 19.9132 14.1899 19.8862 14.1619V14.1219C19.8862 14.0939 19.8562 14.0789 19.8012 14.0789V14.0369C19.8012 14.0089 19.8012 13.9809 19.8012 13.9539C19.7452 13.9539 19.6762 13.9539 19.5942 13.9539C19.5942 13.9259 19.5942 13.8979 19.5942 13.8719C19.5942 13.8429 19.5802 13.8289 19.5512 13.8289C19.5512 13.8019 19.5362 13.7749 19.5112 13.7459V13.5799C19.5112 13.5519 19.5112 13.5229 19.5112 13.4969V13.4529C19.5112 13.4279 19.5112 13.3969 19.5112 13.3719V13.2899C19.5112 13.2609 19.5112 13.2339 19.5112 13.2049V13.0789C19.5112 13.0519 19.5112 13.0239 19.5112 12.9959C19.5642 12.9959 19.5942 12.9829 19.5942 12.9549C19.5942 12.9259 19.5942 12.8989 19.5942 12.8719C19.5942 12.8169 19.5942 12.7739 19.5942 12.7469C19.5942 12.6889 19.5942 12.6359 19.5942 12.5799C19.5942 12.5239 19.5942 12.4689 19.5942 12.4129C19.5942 12.3559 19.5942 12.2999 19.5942 12.2459C19.5942 12.1899 19.5942 12.1339 19.5942 12.0789C19.5942 12.0229 19.5942 11.9669 19.5942 11.9119C19.5942 11.8549 19.5942 11.7999 19.5942 11.7449C19.5942 11.6899 19.5942 11.6329 19.5942 11.5779C19.5942 11.5229 19.5942 11.4809 19.5942 11.4529C19.5942 11.3699 19.5942 11.2999 19.5942 11.2439C19.3422 11.2439 19.1052 11.2439 18.8842 11.2439V11.2879C18.8842 11.3129 18.8842 11.3409 18.8842 11.3699V11.4109C18.7432 11.4399 18.5922 11.4679 18.4242 11.4949V11.5369C18.3962 11.5629 18.3552 11.5929 18.3002 11.6199C18.3002 11.6479 18.3002 11.6739 18.3002 11.7039ZM7.9112 29.5999C7.9962 29.5999 8.0672 29.6119 8.1232 29.6409V29.5999C8.0362 29.5709 7.9402 29.5559 7.8292 29.5559L7.9112 29.5999Z" fill="#9FB1C9"/>
</g>
<defs>
<clipPath id="clip0_28409_24679">
<rect width="37.75" height="32" fill="white" transform="translate(0.75)"/>
</clipPath>
</defs>
</svg>
