<svg width="69" height="33" viewBox="0 0 69 33" fill="none" xmlns="http://www.w3.org/2000/svg">
<path fill-rule="evenodd" clip-rule="evenodd" d="M47.0653 18.9479C46.6313 19.1129 46.3193 19.3009 46.1283 19.5189C45.9653 19.7619 45.8863 20.1149 45.8863 20.5769C45.8863 21.2299 45.8983 21.7979 45.9263 22.2859H47.5543V23.0999L47.8393 23.1819C48.0553 23.2649 48.1793 23.3299 48.2063 23.3859C48.3683 23.6019 48.6133 23.7519 48.9383 23.8319C49.4813 23.9949 50.0643 23.8469 50.6883 23.3859C51.3653 22.8979 51.5693 22.2469 51.2983 21.4319C51.0533 20.7249 50.6053 20.2239 49.9553 19.9249C49.7923 19.8429 49.6013 19.6259 49.3863 19.2729L49.1003 18.7869C48.9113 18.7589 48.6923 18.7449 48.4513 18.7449C47.9073 18.7169 47.4453 18.7869 47.0653 18.9479ZM35.9943 22.1229C36.4283 21.7159 36.6463 21.2679 36.6463 20.7799C36.6463 20.3179 36.5243 19.8439 36.2793 19.3559L35.9523 18.7879H30.3783C29.6723 19.4659 29.1303 19.9809 28.7483 20.3329C28.5603 20.4959 28.4783 20.7259 28.5063 21.0249C28.5063 21.1869 28.5323 21.4709 28.5873 21.8789C28.5873 22.8029 28.8453 23.4669 29.3603 23.8739C29.9843 24.3889 30.5663 24.6209 31.1103 24.5679C31.3543 24.5089 31.9383 24.2939 32.8603 23.9159C33.6733 23.5359 34.3113 23.2219 34.7733 22.9799C35.3443 22.6529 35.7503 22.3679 35.9943 22.1229ZM56.1013 10.6449C56.1563 10.5639 56.0473 10.4009 55.7763 10.1559C52.6543 10.1559 50.6203 10.1559 49.6703 10.1559C49.0453 10.1299 47.9753 10.0749 46.4553 9.99395L44.2963 9.87095V11.0949H55.9383C55.9653 11.0399 55.9793 10.9849 55.9793 10.9309C56.0353 10.7949 56.0733 10.6989 56.1013 10.6449ZM57.5253 9.99395C57.4433 9.96695 57.3093 9.96695 57.1173 9.99395H56.8753V10.7659L57.2013 10.8099C57.4173 10.8919 57.5263 11.0399 57.5263 11.2559C57.5263 11.4459 57.4593 11.6239 57.3223 11.7849L57.1183 11.9889L57.2833 13.9829H57.7713V10.5239C57.7713 10.3609 57.7593 10.2519 57.7313 10.1979C57.7023 10.0899 57.6333 10.0189 57.5253 9.99395ZM68.3923 17.0349C68.2853 17.2539 68.0943 17.3599 67.8233 17.3599H62.2063L62.0033 17.1169C61.9483 17.1429 61.8823 17.1839 61.7993 17.2389C61.6643 17.3199 61.5953 17.3749 61.5953 17.4019C61.5953 17.4289 61.7723 17.6329 62.1243 18.0129C62.4513 18.4449 62.6013 18.7869 62.5733 19.0299C62.5193 19.3559 62.4113 20.2239 62.2473 21.6349C62.1133 23.0439 62.0453 23.8599 62.0453 24.0759C62.0453 24.2399 61.9893 24.3479 61.8833 24.4019C61.8273 24.4549 61.6913 24.4829 61.4753 24.4829H59.1153C59.0073 24.4829 58.9113 24.3869 58.8283 24.1979C58.7213 23.9799 58.6663 23.6969 58.6663 23.3439C58.6663 22.8829 58.6523 22.4339 58.6253 21.9999C58.5693 21.5129 58.5033 21.2299 58.4213 21.1459C58.3663 21.0639 57.9593 20.9839 57.2013 20.9009C56.4673 20.8469 56.0473 20.8749 55.9383 20.9839C55.7763 21.1459 55.6403 21.2819 55.5323 21.3909C55.3413 21.5799 55.2473 21.7569 55.2473 21.9189C55.2193 22.0269 55.1523 22.7609 55.0433 24.1169C54.7443 25.5839 54.1743 26.7349 53.3343 27.5769C52.4663 28.4719 51.1073 29.0979 49.2653 29.4499C47.8513 29.7199 46.6993 29.7879 45.8043 29.6529C45.2613 29.5709 44.9353 29.4769 44.8273 29.3669C44.7723 29.3389 44.7723 29.2189 44.8273 29.0009C45.4783 26.7499 45.7773 25.5139 45.7233 25.2979C45.6683 25.1079 45.6153 24.9689 45.5593 24.8909C45.4523 24.7539 45.3033 24.6869 45.1133 24.6869C44.9503 24.6589 44.5013 24.6459 43.7693 24.6459C43.3913 24.6189 42.9953 24.6059 42.5893 24.6059C42.5083 24.6059 42.4263 24.6719 42.3453 24.8089C42.2623 24.9699 42.1803 25.0939 42.1003 25.1739C42.0183 25.2829 41.6933 25.5559 41.1243 25.9889C40.4183 26.5579 39.6843 27.0749 38.9273 27.5359C36.6193 28.9739 34.6653 29.6919 33.0643 29.6919C31.5203 29.6919 29.8633 29.6379 28.0993 29.5279L25.9413 29.3249L25.9023 27.9819C22.5923 26.6269 20.7053 25.9209 20.2463 25.8669C19.9713 25.8389 19.6733 25.8249 19.3503 25.8249L18.9423 25.7829L18.6173 26.3539C18.3733 26.7079 18.1413 26.8829 17.9233 26.8829H2.09027C1.84627 26.8829 1.63027 26.7079 1.44027 26.3539C1.30427 26.0559 1.23627 25.7309 1.23627 25.3779V18.5839C1.23627 17.1729 1.21027 15.6099 1.15427 13.9009C1.10027 12.5429 1.07227 11.8389 1.07227 11.7839C1.15427 11.2689 1.27627 11.0119 1.44027 11.0119H21.9923C22.1303 11.0119 22.5093 10.9439 23.1333 10.8099C23.7303 10.6989 24.1533 10.6449 24.3953 10.6449H39.0483L39.0903 8.89595C39.0903 8.78695 39.3063 8.26995 39.7383 7.34895C40.1743 6.39695 40.3913 5.82895 40.3913 5.63895C40.4183 5.47495 40.5943 5.29895 40.9203 5.10895C41.0833 5.02795 41.2453 4.95995 41.4103 4.90495C41.4103 4.66195 41.4363 4.41795 41.4913 4.17295C41.5713 3.68495 41.6393 3.39895 41.6933 3.31895C42.0473 2.80195 42.3453 2.54395 42.5893 2.54395C42.8603 2.54395 43.0633 2.69195 43.2003 2.98995C43.2553 3.15495 43.3083 3.38495 43.3633 3.68395C43.4173 3.87395 43.4173 4.28095 43.3633 4.90395C43.3363 4.90395 43.2943 4.91895 43.2413 4.94595C43.1863 4.99994 43.1583 5.09495 43.1583 5.23095V6.12394H54.7173L56.1823 5.26995C56.4543 5.26995 56.5903 5.17695 56.5903 4.98595V4.33595H56.3453V3.31995L56.5493 3.11495L56.9973 2.83095L57.9343 2.74895C57.9873 2.74895 58.0423 2.81695 58.0963 2.95295C58.1243 3.05995 58.1383 3.18295 58.1383 3.31995V5.10995L58.3013 5.71795C58.4353 6.10095 58.5333 6.30395 58.5853 6.32995C58.6953 6.35695 59.0613 6.35695 59.6863 6.32995C61.3133 8.09395 62.1683 9.01695 62.2493 9.09895C62.4403 9.34295 62.5353 9.59995 62.5353 9.87095V14.2679H68.1113L68.3553 14.5119C68.5443 14.7569 68.6413 15.1369 68.6413 15.6509C68.6383 16.3299 68.5553 16.7919 68.3923 17.0349Z" fill="#9FB1C9"/>
</svg>
