<svg width="53" height="32" viewBox="0 0 53 32" fill="none" xmlns="http://www.w3.org/2000/svg">
<g clip-path="url(#clip0_28409_24681)">
<path fill-rule="evenodd" clip-rule="evenodd" d="M52.6457 6.91709L52.1027 8.23209V10.6821H49.5617V10.3641H48.9727V10.7281H45.1157V10.3201L41.2147 10.2741L40.5327 10.5471H34.6817C34.4997 10.5471 34.2897 10.5771 34.0457 10.6381C33.5917 10.7271 33.2447 10.8651 33.0027 11.0451L32.9567 11.0921C32.5947 11.3941 32.3837 11.5751 32.3217 11.6351C32.1117 11.9061 31.9897 12.2101 31.9587 12.5421C31.9297 12.8741 31.9157 13.3901 31.9157 14.0841C31.9157 14.4171 31.9157 14.7361 31.9157 15.0371C31.4897 15.0071 31.0537 14.9901 30.5997 14.9901H30.5527C30.1297 14.9901 29.7517 14.9901 29.4197 14.9901C29.0867 14.9901 28.8277 15.0231 28.6477 15.0831C28.2557 15.1721 27.9677 15.2941 27.7867 15.4451C27.6667 15.5361 27.5457 15.7021 27.4227 15.9451C27.3647 16.0061 27.3157 16.0671 27.2867 16.1261C27.1657 16.3691 27.0767 16.7001 27.0167 17.1241C26.9537 17.6081 26.8797 17.9091 26.7887 18.0301C26.5777 18.4551 26.3637 18.7861 26.1537 19.0311C25.6697 19.5131 25.0637 19.8931 24.3377 20.1641C24.2797 20.1951 24.2157 20.2231 24.1567 20.2561C23.3997 20.4671 22.6757 20.6331 21.9797 20.7541C21.3147 20.8141 20.7087 20.8311 20.1657 20.7991C20.0437 20.7991 19.9097 20.7701 19.7567 20.7101C19.4847 20.6191 19.1967 20.4511 18.8947 20.2101C18.7727 20.0881 18.6527 19.9681 18.5327 19.8471L18.3517 19.6661L18.0797 19.9371C17.9277 19.9081 17.7777 19.8771 17.6247 19.8471C17.4117 19.8151 17.2167 19.7871 17.0357 19.7551C16.8537 19.7551 16.6877 19.7411 16.5367 19.7101C16.1717 19.6501 15.8567 19.6061 15.5827 19.5741C15.0077 19.5131 14.5997 19.5301 14.3577 19.6191C13.9657 19.8001 13.6477 20.0111 13.4057 20.2551C13.1337 20.5261 12.9827 20.8291 12.9527 21.1621C12.9227 21.6161 13.0427 22.0231 13.3157 22.3871C13.3757 22.5081 13.4657 22.6451 13.5877 22.7941C13.6477 22.9161 13.6627 23.0221 13.6327 23.1131C13.6327 23.1731 13.5727 23.2651 13.4507 23.3841C13.3907 23.4441 13.2697 23.5371 13.0867 23.6561C12.7547 23.9591 12.5717 24.2921 12.5427 24.6541C12.4537 25.1391 12.5427 25.5771 12.8147 25.9711L13.0417 26.3781C13.1027 26.5011 13.1167 26.6201 13.0857 26.7411C13.0557 26.8331 12.9957 26.9221 12.9037 27.0141C12.8137 27.0751 12.6627 27.1491 12.4517 27.2411C12.0267 27.4511 11.7387 27.6631 11.5887 27.8741C11.4387 28.0871 11.3167 28.3591 11.2277 28.6931C11.1637 28.9941 11.0447 29.2211 10.8627 29.3721C10.5917 29.5841 9.87868 29.7941 8.73168 30.0081C7.54968 30.1891 6.53668 30.2631 5.68968 30.2351C4.48168 30.1731 3.48368 30.0531 2.69568 29.8721C1.51668 29.5701 0.86768 29.1461 0.74568 28.6011C0.68668 28.3891 0.74568 28.1011 0.92768 27.7401C0.98768 27.6771 1.03268 27.6031 1.06068 27.5111C1.21368 27.2091 1.33568 26.9671 1.42568 26.7871C1.57668 26.4851 1.71268 26.1971 1.83268 25.9231C1.95468 25.6521 2.10568 25.2291 2.28768 24.6531C2.55968 23.9281 2.76968 23.3541 2.92268 22.9301C3.46568 21.4171 3.93468 20.2831 4.32768 19.5281C4.75168 18.7711 5.44768 17.6521 6.41468 16.1701C7.44368 14.6281 8.09468 13.6291 8.36568 13.1751C8.60968 12.8431 8.75968 12.5101 8.81968 12.1771C8.84968 11.9351 8.84968 11.6331 8.81968 11.2701C8.81968 10.8451 8.81968 10.5881 8.81968 10.4981C8.81968 10.2261 8.87868 9.96809 9.00068 9.72609C9.18268 9.42509 9.66668 9.19909 10.4537 9.04609C10.7257 8.98509 11.0147 8.94109 11.3157 8.91109H11.6327C11.7537 8.78909 11.8917 8.66809 12.0437 8.54909C12.3737 8.30509 12.6767 8.13909 12.9507 8.04809C13.1917 7.95909 13.4797 7.85209 13.8117 7.73109L14.2657 7.64009L13.9927 6.96009C13.7517 6.53709 13.4967 6.23309 13.2227 6.05209C12.9517 5.90109 12.5707 5.79609 12.0877 5.73509C12.0267 5.70409 11.9517 5.69109 11.8607 5.69109C11.5587 5.65909 11.2847 5.64409 11.0447 5.64409L11.0017 5.41609C11.2717 5.38709 11.5597 5.37109 11.8617 5.37109C12.5277 5.31009 12.9957 5.31009 13.2697 5.37109C13.5117 5.43209 13.8127 5.59809 14.1767 5.87109C14.2067 5.90009 14.2357 5.91709 14.2667 5.91709C14.5387 6.12609 14.7357 6.23309 14.8567 6.23309C15.0077 6.23309 15.2487 6.00609 15.5827 5.55209C15.7347 5.37009 15.8847 5.17509 16.0367 4.96309L17.0797 5.00709L17.4887 4.05509L17.3977 4.00909C17.3357 3.97809 17.2927 3.93409 17.2627 3.87309C17.1107 3.69209 17.0797 3.47909 17.1697 3.23809C17.2327 3.08709 17.3227 2.97909 17.4417 2.91909C17.4727 2.89009 17.5027 2.87609 17.5327 2.87609C17.6227 2.84509 17.6837 2.84509 17.7157 2.87609L17.8047 2.42109L18.3497 2.51209L18.3047 2.92409H19.8917L20.3917 3.24309H22.8407V2.60709L23.4757 2.01709L24.3827 2.06409V2.51709H25.1987V2.06409H26.1527V2.51709H26.9687V2.01709H27.9217V2.51709H28.7837V2.01709H29.6007V2.51709H30.5527V2.06409H31.3697V2.51709H32.2767V2.01709H33.1377V2.51709H34.0457V2.01709H34.9537V2.51709H35.8167V2.01709H36.6307V2.51709H37.5387V2.06409H38.3547V2.47209H39.2627V2.06409H39.8987L40.3517 2.20009C40.6857 2.32109 40.9717 2.42609 41.2147 2.51709C41.6077 2.66809 42.1517 2.94109 42.8477 3.33409H48.1547V2.51709H50.7417L50.9237 2.56109C51.0727 2.59309 51.1947 2.66809 51.2847 2.78909C51.3467 2.91009 51.3927 3.04609 51.4217 3.19709L51.3767 3.42409L52.6447 4.46809L52.6457 6.91709ZM22.8417 14.5831L23.1127 14.8121C22.9907 15.1161 22.8707 15.3561 22.7487 15.5381C22.6887 15.6591 22.5857 15.8251 22.4327 16.0361C22.4017 16.0361 22.3717 16.0531 22.3417 16.0811C22.1307 16.3231 21.9787 16.5361 21.8877 16.7171C21.8257 17.0501 21.8257 17.3521 21.8877 17.6251C21.9477 17.8961 22.1307 18.1681 22.4327 18.4421C22.6747 18.6831 22.9907 18.9251 23.3857 19.1671C23.5667 19.2871 23.7327 19.3791 23.8857 19.4391L23.7477 19.7111C23.5367 19.6511 23.2797 19.5621 22.9767 19.4391C22.4337 19.1981 21.9647 18.8941 21.5717 18.5321C21.3297 18.2591 21.1347 17.8821 20.9817 17.3981L20.7997 16.6701L21.0277 16.4911L21.0727 15.9461C20.9537 15.9461 20.8157 15.9291 20.6667 15.9021C20.3017 15.8701 20.0307 15.8251 19.8487 15.7651C19.6667 15.7041 19.5027 15.5821 19.3497 15.4011L19.1677 15.1741L18.9867 15.3121C18.8667 15.4311 18.7597 15.5821 18.6697 15.7651C18.3367 16.2181 18.1707 16.6571 18.1707 17.0801C18.1707 17.1411 18.1707 17.2021 18.1707 17.2611C18.1997 17.6851 18.2777 18.0781 18.3967 18.4421C18.5197 18.8941 18.6697 19.2271 18.8517 19.4391C19.0637 19.6511 19.3187 19.8311 19.6217 19.9841C19.9857 20.1361 20.4547 20.2241 21.0297 20.2561C21.5737 20.2851 22.1957 20.2391 22.8907 20.1181C23.2827 20.0271 23.6167 19.9511 23.8887 19.8931C24.0377 19.8291 24.1597 19.7871 24.2517 19.7541C24.4007 19.6951 24.5537 19.6191 24.7057 19.5291C24.8867 19.4371 25.0977 19.3011 25.3417 19.1191C25.8537 18.7571 26.1567 18.4541 26.2457 18.2131C26.3997 17.9401 26.4887 17.6521 26.5207 17.3501C26.5807 17.0481 26.5807 16.6681 26.5207 16.2161V16.1711C26.4887 15.8081 26.2927 15.4911 25.9287 15.2171C25.6877 15.0061 25.3557 14.7801 24.9317 14.5381C24.6287 14.3861 24.1757 14.3101 23.5697 14.3101H22.7947L22.8417 14.5831Z" fill="#9FB1C9"/>
</g>
<defs>
<clipPath id="clip0_28409_24681">
<rect width="52.5" height="32" fill="white" transform="translate(0.375)"/>
</clipPath>
</defs>
</svg>
