<svg width="86" height="33" viewBox="0 0 86 33" fill="none" xmlns="http://www.w3.org/2000/svg">
<g clip-path="url(#clip0_28409_24697)">
<path fill-rule="evenodd" clip-rule="evenodd" d="M21.4755 7.63184C26.0585 7.63184 30.6215 7.63184 35.1615 7.63184C35.2475 7.65284 35.3125 7.67484 35.3565 7.69784C35.4205 7.74084 35.4635 7.78384 35.4855 7.82584L35.5185 7.85884H35.5505C35.5725 7.87984 35.6155 7.91284 35.6815 7.95584C35.7025 7.99984 35.7235 8.04384 35.7445 8.08584C35.7445 8.10684 35.7555 8.12984 35.7765 8.14984C35.7765 8.17184 35.7765 8.20484 35.7765 8.24884C35.7985 8.24884 35.8315 8.24884 35.8755 8.24884V8.18484C35.9625 8.18484 36.0575 8.18484 36.1675 8.18484C36.2095 8.22684 36.2745 8.25884 36.3605 8.28184C36.4035 8.30284 36.4475 8.32584 36.4905 8.34584C52.6635 8.34584 68.8465 8.35784 85.0415 8.37884C85.1265 8.42184 85.2025 8.45384 85.2675 8.47484C85.2905 8.49584 85.3225 8.51884 85.3665 8.54084C85.3885 8.58384 85.4095 8.62684 85.4305 8.67084C85.4515 8.71284 85.4635 8.74584 85.4635 8.76784C85.4635 8.78984 85.4635 8.83184 85.4635 8.89584C85.4635 8.91884 85.4525 8.93084 85.4305 8.93084C85.4515 8.95184 85.4635 8.97284 85.4635 8.99384C85.4635 9.05884 85.4635 9.10284 85.4635 9.12584C85.4635 9.16684 85.4635 9.19984 85.4635 9.22284C85.4635 9.26584 85.4635 9.30884 85.4635 9.35284C85.4635 9.37484 85.4635 9.39584 85.4635 9.41784C85.4635 9.48084 85.4635 9.52484 85.4635 9.54584C85.4635 9.58984 85.4635 9.62184 85.4635 9.64384C85.4635 9.68684 85.4635 9.73184 85.4635 9.77484C85.4635 9.79584 85.4635 9.81684 85.4635 9.83884C85.4635 9.90184 85.4635 9.94584 85.4635 9.96884C85.4635 10.0118 85.4635 10.0428 85.4635 10.0648C85.4635 10.1088 85.4635 10.1528 85.4635 10.1958C85.4635 10.2178 85.4635 10.2608 85.4635 10.3258C85.4635 10.3468 85.4635 10.3688 85.4635 10.3898C85.4635 10.4328 85.4635 10.4658 85.4635 10.4868C85.4635 10.5318 85.4635 10.5748 85.4635 10.6178C85.4635 10.6388 85.4635 10.6818 85.4635 10.7468C85.4635 10.7688 85.4635 10.7898 85.4635 10.8118C85.4635 10.8548 85.4635 10.8878 85.4635 10.9108C85.4635 10.9528 85.4635 10.9958 85.4635 11.0398C85.4635 11.0608 85.4635 11.1048 85.4635 11.1688C85.4415 11.1688 85.4095 11.1798 85.3665 11.2018C85.3225 11.2448 85.2785 11.2778 85.2365 11.2988C85.2145 11.3628 85.1925 11.4058 85.1705 11.4278C85.1065 11.4498 85.0625 11.4828 85.0415 11.5268C85.0195 11.5698 85.0085 11.6018 85.0085 11.6258C84.9215 11.6028 84.8565 11.5698 84.8135 11.5268L84.7815 11.4938C84.2195 11.4938 83.6565 11.4938 83.0955 11.4938C83.0955 11.5148 83.0955 11.5478 83.0955 11.5908C83.0955 11.6128 83.0955 11.6348 83.0955 11.6568C83.0955 11.6778 83.0955 11.6988 83.0955 11.7198C83.0955 11.7418 83.0955 11.7738 83.0955 11.8188V11.8508C83.0955 11.8718 83.0955 11.8928 83.0955 11.9148C83.0955 11.9358 83.0955 11.9708 83.0955 12.0128V12.0448C83.0955 12.0668 83.1055 12.0888 83.1275 12.1108L83.1605 12.1418C83.3335 12.1418 83.4965 12.1528 83.6475 12.1728V12.1418C83.6475 12.0978 83.6475 12.0668 83.6475 12.0438C84.1655 12.0438 84.6855 12.0438 85.2035 12.0438C85.2035 12.0658 85.2035 12.0878 85.2035 12.1098C85.2035 12.1518 85.2035 12.2048 85.2035 12.2708C85.2035 12.3138 85.2035 12.3678 85.2035 12.4318C85.2035 12.4748 85.2035 12.5198 85.2035 12.5628C85.2035 12.5838 85.2035 12.6258 85.2035 12.6928C85.2035 12.7358 85.2035 12.7898 85.2035 12.8538C85.2035 12.8968 85.2035 12.9398 85.2035 12.9838C85.2035 13.0488 85.2035 13.1028 85.2035 13.1458C85.2035 13.1668 85.2035 13.2118 85.2035 13.2748C85.2035 13.3188 85.2035 13.3628 85.2035 13.4058C85.2035 13.4698 85.2035 13.5258 85.2035 13.5678C85.2035 13.6118 85.2035 13.6648 85.2035 13.7298V13.7608C85.2035 13.7828 85.2035 13.8058 85.2035 13.8258V13.9238C85.2035 13.9458 85.2035 13.9668 85.2035 13.9888V14.0538C85.2035 14.0958 85.2035 14.1288 85.2035 14.1508V14.2148C85.2035 14.2368 85.2035 14.2688 85.2035 14.3118V14.4098C85.2035 14.4318 85.2035 14.4538 85.2035 14.4748V14.5718C85.2035 14.5938 85.2035 14.6158 85.2035 14.6368V14.7338C85.2035 14.7568 85.2035 14.7778 85.2035 14.7988V14.9928C85.2035 15.0138 85.2035 15.0368 85.2035 15.0578V15.2198C85.2035 15.2408 85.2035 15.2628 85.2035 15.2848C85.2035 15.3058 85.2035 15.3488 85.2035 15.4138C84.7065 15.4138 84.2205 15.4028 83.7455 15.3818V15.4138C83.6155 15.4138 83.4855 15.4138 83.3555 15.4138C83.3335 15.4138 83.3215 15.4258 83.3215 15.4458C83.3005 15.4668 83.2685 15.4778 83.2245 15.4778C83.2035 15.4988 83.1815 15.5328 83.1605 15.5758C83.1605 15.5978 83.1605 15.6188 83.1605 15.6398C83.1395 15.6618 83.1275 15.6828 83.1275 15.7048C83.1055 15.7258 83.0955 15.7588 83.0955 15.8028C83.0955 15.8238 83.0845 15.8468 83.0625 15.8658C83.0625 15.8878 83.0405 15.9108 82.9985 15.9308C82.9765 15.9748 82.9555 16.0068 82.9335 16.0298C82.9335 16.0508 82.9215 16.0608 82.9005 16.0608C82.9005 16.0828 82.9005 16.1038 82.9005 16.1258C82.8365 16.1468 82.7925 16.1808 82.7715 16.2238C82.7505 16.2448 82.7295 16.2668 82.7065 16.2878C82.7065 16.3088 82.6955 16.3308 82.6755 16.3518C82.6535 16.3948 82.6195 16.4268 82.5775 16.4488C82.5565 16.4698 82.5435 16.4918 82.5435 16.5138C82.5225 16.5348 82.5115 16.5678 82.5115 16.6108V16.6438C82.4695 16.6438 82.4265 16.6548 82.3825 16.6758V16.7398C82.3395 16.7618 82.2845 16.7728 82.2205 16.7728C82.1775 16.8158 82.1455 16.8488 82.1235 16.8708V16.9348C81.9725 16.9348 81.8105 16.9348 81.6365 16.9348V16.9678C81.6365 17.0108 81.6365 17.0428 81.6365 17.0658V17.1288C74.6525 17.1508 67.6795 17.1608 60.7185 17.1608C60.7185 17.1828 60.7185 17.2148 60.7185 17.2588C60.7185 17.2798 60.7185 17.3018 60.7185 17.3218V17.3878C60.1775 17.3878 59.6355 17.3768 59.0955 17.3558C59.0955 17.3348 59.0955 17.3118 59.0955 17.2898C59.0955 17.2688 59.0955 17.2358 59.0955 17.1928V17.1608C59.0955 17.1398 59.0955 17.1178 59.0955 17.0968C59.0955 17.0758 59.0955 17.0528 59.0955 17.0328C59.0315 16.9888 58.9545 16.9688 58.8675 16.9688C58.7815 16.9468 58.6955 16.9248 58.6085 16.9018V16.8438C58.5225 16.8438 58.4575 16.8218 58.4145 16.7788C58.3495 16.7568 58.2845 16.7348 58.2185 16.7138V16.6498C58.1115 16.6498 58.0135 16.6388 57.9275 16.6168C57.8185 16.5738 57.7215 16.5418 57.6345 16.5198C57.6345 16.4978 57.6345 16.4758 57.6345 16.4548C54.1755 16.4548 50.6955 16.4548 47.1925 16.4548C47.1055 16.4338 47.0185 16.4008 46.9325 16.3578C46.8885 16.3368 46.8565 16.3138 46.8355 16.2938C46.7925 16.2728 46.7375 16.2498 46.6735 16.2298C46.6525 16.1868 46.6195 16.1428 46.5755 16.0978C46.5325 16.0768 46.5005 16.0558 46.4785 16.0348C46.4785 15.9708 46.4785 15.9248 46.4785 15.9038C46.4785 15.8828 46.4785 15.8508 46.4785 15.8068C46.4785 15.7628 46.4785 15.7198 46.4785 15.6768C45.6575 15.6768 44.8465 15.6768 44.0465 15.6768C44.0465 15.6978 44.0465 15.7198 44.0465 15.7408C44.0465 15.7828 44.0465 15.8178 44.0465 15.8388V15.8698C44.0465 15.8918 44.0465 15.9148 44.0465 15.9348C44.0465 15.9788 44.0465 16.0108 44.0465 16.0338C44.0465 16.0548 44.0465 16.0758 44.0465 16.0968V16.1618C43.8095 16.1618 43.5815 16.1618 43.3645 16.1618V16.2278C43.3645 16.2488 43.3645 16.2708 43.3645 16.2918C43.3645 16.3128 43.3645 16.3348 43.3645 16.3558C43.3645 16.3988 43.3645 16.4308 43.3645 16.4528C43.3645 16.4748 43.3645 16.4958 43.3645 16.5178V16.5488C42.8665 16.5488 42.3485 16.5388 41.8075 16.5178C41.7865 16.4958 41.7645 16.4738 41.7435 16.4528V16.4208C41.7435 16.3788 41.7435 16.3448 41.7435 16.3238C41.7435 16.3028 41.7435 16.2808 41.7435 16.2588C41.7435 16.2378 41.7435 16.2048 41.7435 16.1608C39.1265 16.1608 36.5105 16.1608 33.8945 16.1608H33.8655C33.8435 16.1608 33.8105 16.1838 33.7685 16.2268C33.7255 16.2268 33.6925 16.2268 33.6705 16.2268C33.6495 16.2478 33.6155 16.2578 33.5725 16.2578C33.5075 16.2798 33.4645 16.3018 33.4435 16.3228C33.3995 16.3438 33.3455 16.3778 33.2815 16.4198C33.2595 16.4198 33.2275 16.4198 33.1845 16.4198C33.1195 16.4418 33.0765 16.4518 33.0535 16.4518C33.0115 16.4728 32.9675 16.4948 32.9245 16.5168C32.9245 16.5378 32.9025 16.5708 32.8595 16.6138C32.8175 16.6358 32.7735 16.6578 32.7295 16.6788C32.7295 16.6998 32.7075 16.7108 32.6655 16.7108C32.6655 16.7318 32.6535 16.7428 32.6315 16.7428C32.5895 16.7648 32.5565 16.7758 32.5355 16.7758C32.4925 16.8188 32.4585 16.8518 32.4375 16.8738V16.9378C32.3955 16.9588 32.3605 16.9708 32.3405 16.9708C32.3405 17.0138 32.3405 17.0458 32.3405 17.0688V17.1318C32.3185 17.1318 32.2855 17.1318 32.2425 17.1318H32.1795V17.2928C32.0275 17.2928 31.8755 17.3048 31.7245 17.3248H31.6925C31.5835 17.3248 31.4875 17.3378 31.3995 17.3588H31.3675C31.3245 17.3588 31.2925 17.3688 31.2705 17.3908H31.2055C31.1185 17.3908 31.0205 17.4118 30.9135 17.4548H30.8815C30.7955 17.4548 30.7085 17.4668 30.6225 17.4868H30.5565C30.5355 17.4868 30.5035 17.4978 30.4595 17.5198H30.4275C30.3845 17.5198 30.3515 17.5318 30.3305 17.5508H30.2985C30.2755 17.5508 30.2555 17.5628 30.2345 17.5848H30.2015C30.1355 17.5848 30.0925 17.5938 30.0705 17.6158H30.0385C30.0165 17.6158 30.0055 17.6378 30.0055 17.6808H29.9405C29.8975 17.6808 29.8645 17.6918 29.8425 17.7128H29.8095C29.7455 17.7128 29.7025 17.7238 29.6805 17.7448H29.6485C29.6055 17.7448 29.5515 17.7568 29.4855 17.7768H29.4545C29.4325 17.7768 29.4115 17.7878 29.3905 17.8098H29.3235C29.3025 17.8098 29.2915 17.8318 29.2915 17.8738H29.2585C29.2375 17.8738 29.2155 17.8848 29.1945 17.9068H29.1615C29.1185 17.9068 29.0855 17.9168 29.0635 17.9378H29.0315C29.0315 17.9588 29.0205 17.9698 28.9985 17.9698C28.9765 17.9698 28.9445 17.9828 28.9015 18.0018H28.8685C28.8475 18.0018 28.8265 18.0138 28.8045 18.0338H28.7725C28.7505 18.0338 28.7175 18.0558 28.6745 18.0988H28.6425C28.6205 18.0988 28.5995 18.1118 28.5765 18.1318H28.5445L28.4805 18.1638H28.4485C28.4265 18.1638 28.4055 18.1748 28.3835 18.1958H28.3505C28.3285 18.1958 28.3185 18.2058 28.3185 18.2298H28.2525C28.2315 18.2298 28.2105 18.2508 28.1885 18.2928H28.1555C28.1555 18.3148 28.1445 18.3248 28.1235 18.3248C28.0795 18.3248 28.0475 18.3358 28.0265 18.3578H27.9945C27.9725 18.3578 27.9625 18.3688 27.9625 18.3908H27.9285C27.9075 18.3908 27.8965 18.4018 27.8965 18.4228H27.8325C27.8115 18.4228 27.7995 18.4328 27.7995 18.4538H27.7675C27.7445 18.4538 27.7235 18.4748 27.7015 18.5198C27.6595 18.5198 27.6265 18.5288 27.6055 18.5518H27.5715C27.5515 18.5518 27.5395 18.5628 27.5395 18.5838H27.5075C27.5075 18.6048 27.4965 18.6158 27.4765 18.6158C27.4325 18.6158 27.4005 18.6268 27.3775 18.6488C27.3565 18.6488 27.3455 18.6698 27.3455 18.7118H27.3135C27.3135 18.7338 27.3025 18.7438 27.2805 18.7438C27.2155 18.7438 27.1735 18.7548 27.1505 18.7778H27.1185L27.0535 18.8408V18.8738H26.9895C26.9685 18.8738 26.9565 18.8948 26.9565 18.9368H26.9245C26.9245 18.9588 26.9135 18.9698 26.8915 18.9698C26.8705 18.9698 26.8385 18.9808 26.7945 19.0028H26.7635C26.7635 19.0238 26.7515 19.0338 26.7285 19.0338C26.7075 19.0338 26.6865 19.0458 26.6645 19.0678H26.6315C26.6315 19.1098 26.6105 19.1318 26.5665 19.1318C26.5445 19.1318 26.5235 19.1418 26.5025 19.1638H26.4705C26.4485 19.1638 26.4375 19.1728 26.4375 19.1948H26.3735C26.3515 19.1948 26.3395 19.2058 26.3395 19.2278H26.3085C26.2865 19.2278 26.2765 19.2388 26.2765 19.2608H26.2425C26.2215 19.2608 26.2105 19.2718 26.2105 19.2928H26.1455C26.1455 19.3348 26.1345 19.3568 26.1135 19.3568C26.0925 19.3568 26.0815 19.3678 26.0815 19.3898H26.0485C26.0265 19.3898 26.0165 19.3998 26.0165 19.4208H25.9505L25.8865 19.4858C25.8655 19.4858 25.8535 19.5068 25.8535 19.5488H25.8215C25.7785 19.5488 25.7565 19.5598 25.7565 19.5808H25.7245C25.7245 19.6038 25.7135 19.6148 25.6925 19.6148C25.6705 19.6148 25.6595 19.6258 25.6595 19.6468H25.6275C25.6275 19.6678 25.6165 19.6788 25.5955 19.6788C25.5525 19.6788 25.5315 19.6998 25.5315 19.7438H25.4965C25.4965 19.7648 25.4855 19.7748 25.4655 19.7748C25.4435 19.7748 25.4325 19.7848 25.4325 19.8068H25.3995C25.3575 19.8068 25.3365 19.8178 25.3365 19.8398H25.3035C25.2825 19.8398 25.2705 19.8508 25.2705 19.8708H25.2385V19.9048C25.2175 19.9048 25.2065 19.9248 25.2065 19.9688H25.1745C25.1305 19.9688 25.1075 19.9798 25.1075 20.0018H25.0755C25.0545 20.0018 25.0435 20.0108 25.0435 20.0328H25.0105L24.9135 20.0978C24.8915 20.0978 24.8705 20.1188 24.8495 20.1608C24.8495 20.1818 24.8395 20.1958 24.8175 20.1958C24.7955 20.1958 24.7845 20.2048 24.7845 20.2268H24.7525L24.6235 20.3238C24.6015 20.3238 24.5915 20.3458 24.5915 20.3888H24.5595L24.4285 20.4868C24.4075 20.4868 24.3965 20.4968 24.3965 20.5178H24.3645C24.3425 20.5178 24.3335 20.5388 24.3335 20.5828H24.2675C24.2465 20.5828 24.2355 20.5938 24.2355 20.6148H24.2035C24.1825 20.6148 24.1605 20.6268 24.1395 20.6468C24.0955 20.6468 24.0635 20.6578 24.0425 20.6788C24.0205 20.6788 23.9995 20.6898 23.9775 20.7108H23.9445C23.9225 20.7108 23.8905 20.7218 23.8475 20.7428C23.8265 20.7428 23.8035 20.7648 23.7825 20.8088H23.7455C23.7235 20.8088 23.6915 20.8188 23.6475 20.8408C23.6265 20.8408 23.6045 20.8518 23.5825 20.8718H23.5505C23.5295 20.8718 23.5185 20.8838 23.5185 20.9048H23.4875C23.4215 20.9048 23.3785 20.9168 23.3575 20.9368H23.3245C23.3025 20.9368 23.2925 20.9578 23.2925 21.0008H23.2265C23.2055 21.0008 23.1845 21.0128 23.1615 21.0348H23.1305C23.1095 21.0348 23.0865 21.0438 23.0655 21.0658H23.0005C22.9575 21.0658 22.9255 21.0768 22.9035 21.0968H22.8695C22.8275 21.0968 22.7845 21.1098 22.7405 21.1308C22.6325 21.1308 22.5465 21.1418 22.4815 21.1628H22.4485C22.3835 21.1628 22.3415 21.1838 22.3195 21.2278H22.2865C22.2225 21.2278 22.1675 21.2388 22.1245 21.2588H22.0905C21.9835 21.2588 21.8765 21.2708 21.7665 21.2918H21.7355C21.3665 21.2918 20.9895 21.2918 20.5995 21.2918L20.5675 21.2588C20.5025 21.2588 20.4475 21.2588 20.4045 21.2588V21.2278C20.3605 21.2278 20.3185 21.2278 20.2745 21.2278L20.2425 21.1628C20.1995 21.1628 20.1455 21.1628 20.0785 21.1628L20.0465 21.1308C19.9825 21.1308 19.9065 21.1308 19.8195 21.1308L19.7875 21.0968C19.7655 21.0968 19.7435 21.0968 19.7215 21.0968V21.0658C19.6585 21.0658 19.6145 21.0658 19.5925 21.0658L19.5605 21.0348C19.5395 21.0348 19.5065 21.0348 19.4635 21.0348L19.4305 21.0008C19.4085 21.0008 19.3765 21.0008 19.3325 21.0008L19.3015 20.9368C19.2565 20.9368 19.2245 20.9368 19.2035 20.9368V20.9048C19.1615 20.9048 19.1275 20.9048 19.1065 20.9048L19.0415 20.8718H19.0095L18.9755 20.8408C18.9555 20.8408 18.9335 20.8408 18.9125 20.8408L18.8795 20.8088H18.8155L18.7835 20.7428C18.7625 20.7428 18.7405 20.7428 18.7195 20.7428V20.7108C18.6975 20.7108 18.6645 20.7108 18.6215 20.7108L18.5885 20.6788C18.5675 20.6788 18.5455 20.6788 18.5255 20.6788L18.4925 20.6468C18.4715 20.6468 18.4375 20.6468 18.3955 20.6468V20.6148H18.3615L18.2975 20.5168H18.2645V20.4858C18.2215 20.4858 18.1885 20.4858 18.1685 20.4858V20.4528H18.1345V20.4198H18.1025V20.3888H18.0705V20.3238H18.0375V20.2908H17.9725V20.2588L17.9405 20.2278H17.9085L17.7775 20.0978V20.0658H17.7455V20.0538L17.6825 19.9898V19.9258H17.6485V19.8918H17.6165V19.8608L17.5185 19.7958V19.7648L17.4525 19.6668V19.6348H17.4215V19.6008L17.3575 19.5688V19.5058L17.3255 19.4728H17.2915V19.4408L17.2595 19.4098V19.3768L17.2275 19.3128V19.2808C17.2055 19.2588 17.1735 19.2478 17.1295 19.2478V19.2148L17.0655 19.1518V19.0878L17.0315 19.0538C17.0315 19.0328 17.0225 19.0228 17.0005 19.0228V18.9568L16.9025 18.8598V18.8288L16.8705 18.7968V18.7628L16.8055 18.6668V18.6338L16.7735 18.6018H16.7085V18.5378L16.6755 18.4638V18.4328L16.6425 18.4008V18.3678L16.5775 18.3028V18.2398L16.4155 18.1078V18.0428L16.3835 18.0108V17.9788C16.3395 17.9788 16.3185 17.9678 16.3185 17.9468L16.0265 17.6228V17.5918H15.9945V17.5268C15.9735 17.5268 15.9615 17.5158 15.9615 17.4938H15.8965L15.7985 17.3648C15.7985 17.3438 15.7885 17.3308 15.7665 17.3308V17.2988L15.5715 17.1058C15.3975 17.1058 15.2035 17.1058 14.9885 17.1058C14.9655 17.1268 14.9455 17.1378 14.9245 17.1378C14.7065 17.1598 14.5125 17.2018 14.3405 17.2678C14.2975 17.2888 14.2545 17.3108 14.2115 17.3308C14.1895 17.3308 14.1565 17.3438 14.1125 17.3648C14.1125 17.3438 14.1125 17.3208 14.1125 17.2988C14.1125 17.2358 14.1125 17.1928 14.1125 17.1698C14.1125 17.1488 14.1125 17.1158 14.1125 17.0738H14.0805V17.1048L14.0485 17.1368C13.9835 17.1588 13.9285 17.1688 13.8855 17.1688C13.8215 17.1908 13.7665 17.2228 13.7235 17.2668C13.7025 17.2878 13.6805 17.3098 13.6585 17.3298C13.6365 17.3528 13.6045 17.3638 13.5605 17.3638L13.5295 17.3958C13.4865 17.3958 13.4545 17.4168 13.4315 17.4598C13.3885 17.4808 13.3545 17.5028 13.3345 17.5248L13.2685 17.5898C13.2255 17.5898 13.1715 17.5988 13.1065 17.6208C13.0855 17.6638 13.0645 17.6968 13.0435 17.7188C13.0435 17.7398 13.0325 17.7508 13.0105 17.7508L12.9455 17.7828C12.9035 17.7828 12.8695 17.7938 12.8485 17.8158C12.8275 17.8588 12.7935 17.8798 12.7515 17.8798V17.9128C12.7075 17.9338 12.6545 17.9438 12.5885 17.9438C12.5445 17.9648 12.5115 17.9888 12.4915 18.0078V18.1058C12.4495 18.1278 12.3935 18.1388 12.3275 18.1388C12.2635 18.1598 12.2085 18.1818 12.1655 18.2028C12.1225 18.2248 12.0895 18.2578 12.0685 18.2998C12.0685 18.3218 12.0575 18.3318 12.0355 18.3318L12.0045 18.3648C11.9395 18.3648 11.8955 18.3758 11.8745 18.3978C11.8535 18.4188 11.8325 18.4398 11.8105 18.4608L11.7455 18.5598C11.6815 18.5598 11.6255 18.5708 11.5835 18.5918V18.6238L11.5515 18.6568C11.4865 18.6998 11.4325 18.7198 11.3885 18.7198C11.3675 18.7418 11.3455 18.7628 11.3235 18.7858C11.2805 18.8068 11.2605 18.8268 11.2605 18.8488C11.2605 18.9138 11.2605 18.9578 11.2605 18.9788C11.2375 18.9788 11.2165 18.9898 11.1945 19.0118C11.1725 19.0328 11.1515 19.0548 11.1295 19.0768C11.0665 19.1408 11.0115 19.1948 10.9685 19.2378C10.8825 19.2588 10.8065 19.3028 10.7405 19.3678L10.7085 19.4008C10.7085 19.4218 10.7085 19.4438 10.7085 19.4638C10.6655 19.4638 10.6335 19.4638 10.6115 19.4638C10.5895 19.4858 10.5675 19.4968 10.5465 19.4968C10.5255 19.5398 10.5045 19.5708 10.4825 19.5928C10.4825 19.6158 10.4615 19.6378 10.4185 19.6588C10.3975 19.6798 10.3755 19.7128 10.3545 19.7568C10.3115 19.7778 10.2675 19.7978 10.2245 19.8198C10.2035 19.8408 10.1805 19.8638 10.1595 19.8838C10.1595 19.9058 10.1485 19.9378 10.1275 19.9828C10.1055 20.0038 10.0835 20.0248 10.0635 20.0468C10.0205 20.0688 9.98548 20.0798 9.96548 20.0798C9.94248 20.1008 9.92248 20.1328 9.90148 20.1758C9.87548 20.2038 9.84248 20.2268 9.79948 20.2488C9.77748 20.2698 9.76748 20.2918 9.76748 20.3118C9.74648 20.3338 9.72448 20.3678 9.70348 20.4108V20.4748C9.63848 20.4748 9.59548 20.4858 9.57448 20.5078C9.55248 20.5288 9.53048 20.5608 9.50948 20.6048V20.6688C9.46548 20.6688 9.42248 20.6798 9.37848 20.7008C9.35748 20.7218 9.33548 20.7438 9.31448 20.7648C9.29248 20.8098 9.27148 20.8408 9.25048 20.8638C9.20748 20.8848 9.17448 20.9068 9.15348 20.9278C9.13048 20.9488 9.11948 20.9818 9.11948 21.0248C9.11948 21.0468 9.10848 21.0588 9.08648 21.0588C9.08648 21.0788 9.07548 21.1008 9.05448 21.1218C9.03348 21.1438 8.99048 21.1668 8.92548 21.1878C8.92548 21.2308 8.91448 21.2638 8.89248 21.2848C8.87148 21.3058 8.84948 21.3278 8.82848 21.3498C8.78548 21.3708 8.75248 21.4038 8.72948 21.4468C8.70948 21.4678 8.69848 21.4898 8.69848 21.5108C8.67748 21.5328 8.65648 21.5548 8.63348 21.5748C8.61248 21.5968 8.58048 21.6068 8.53648 21.6068C8.53648 21.6518 8.53648 21.6828 8.53648 21.7058C8.51448 21.7268 8.49248 21.7488 8.47148 21.7698C8.45048 21.7908 8.43948 21.8238 8.43948 21.8668C8.41848 21.8888 8.38448 21.9118 8.34048 21.9328C8.31948 21.9538 8.29848 21.9738 8.27748 21.9968C8.25648 22.0178 8.23248 22.0508 8.21148 22.0948C8.19048 22.1158 8.17948 22.1378 8.17948 22.1588C8.17948 22.1808 8.15748 22.1908 8.11448 22.1908C8.11448 22.2118 8.10348 22.2448 8.08248 22.2888C8.06048 22.3108 8.02848 22.3318 7.98548 22.3518C7.98548 22.3738 7.98548 22.3958 7.98548 22.4178C7.98548 22.4398 7.96248 22.4718 7.92048 22.5148C7.92048 22.5358 7.90948 22.5578 7.88748 22.5788C7.88748 22.6018 7.88748 22.6238 7.88748 22.6438V22.7078C7.84448 22.7298 7.81348 22.7398 7.79148 22.7398C7.77048 22.7618 7.75848 22.7848 7.75848 22.8048C7.71648 22.8258 7.69448 22.8488 7.69448 22.8698C7.69448 22.9118 7.68348 22.9458 7.66248 22.9658C7.66248 22.9878 7.65148 23.0098 7.62948 23.0308C7.60848 23.0538 7.59648 23.0858 7.59648 23.1288C7.59648 23.1508 7.58648 23.1618 7.56448 23.1618C7.56448 23.1828 7.54348 23.2038 7.50048 23.2258C7.50048 23.2468 7.50048 23.2798 7.50048 23.3228C7.50048 23.3448 7.50048 23.3658 7.50048 23.3878V23.4518C7.45848 23.4738 7.42448 23.4858 7.40348 23.4858C7.38048 23.5278 7.37148 23.5588 7.37148 23.5808C7.34848 23.6018 7.33848 23.6258 7.33848 23.6468V23.7438C7.27348 23.7438 7.23048 23.7548 7.20848 23.7758C7.20848 23.7968 7.19748 23.8208 7.17648 23.8418C7.17648 23.8628 7.16548 23.8838 7.14348 23.9058C7.14348 23.9478 7.14348 23.9798 7.14348 24.0028C7.09748 24.0318 7.07548 24.0528 7.07548 24.0748C7.05448 24.0958 7.03348 24.1068 7.01048 24.1068C7.01048 24.1488 7.01048 24.1828 7.01048 24.2048C6.98948 24.2258 6.96748 24.2478 6.94648 24.2698C6.94648 24.2908 6.94648 24.3118 6.94648 24.3348C6.94648 24.3768 6.94648 24.4098 6.94648 24.4318C6.94648 24.4518 6.94648 24.4738 6.94648 24.4958C6.94648 24.5178 6.94648 24.5498 6.94648 24.5928C6.94648 24.6148 6.94648 24.6358 6.94648 24.6588V24.6908C6.88148 24.6908 6.83848 24.6908 6.81648 24.6908C6.81648 24.7118 6.81648 24.7328 6.81648 24.7548C6.81648 24.7988 6.81648 24.8288 6.81648 24.8518V24.8848C6.27448 24.8848 5.73448 24.8728 5.19448 24.8518C5.12948 24.8298 5.07548 24.7988 5.03248 24.7548V24.6908C4.96748 24.6908 4.92348 24.6788 4.90148 24.6588C4.81548 24.6358 4.75148 24.6148 4.70748 24.5928C4.70748 24.5498 4.69648 24.5188 4.67548 24.4958L4.64348 24.4638C4.55648 24.4428 4.49248 24.4228 4.44848 24.4008V24.3018C4.38448 24.3018 4.32948 24.2908 4.28648 24.2708C4.26548 24.2488 4.24348 24.2268 4.22148 24.2058L4.12448 24.1078C4.10148 24.1078 4.08048 24.0968 4.05848 24.0758C4.01548 24.0538 3.96148 24.0328 3.89648 24.0118C3.89648 23.9898 3.88648 23.9568 3.86448 23.9148C3.84348 23.9148 3.81048 23.9038 3.76648 23.8818C3.76648 23.8608 3.76648 23.8388 3.76648 23.8188C3.72448 23.7958 3.69148 23.7748 3.66948 23.7528C3.62748 23.7098 3.59448 23.6788 3.57248 23.6558C3.52848 23.6348 3.50748 23.6108 3.50748 23.5898C3.48548 23.5688 3.46448 23.5368 3.44348 23.4948C3.40048 23.4718 3.35648 23.4498 3.31248 23.4278C3.31248 23.4068 3.30248 23.3858 3.28048 23.3648C3.26048 23.3648 3.22748 23.3538 3.18348 23.3318C3.18348 23.2888 3.17248 23.2568 3.15148 23.2348C3.10848 23.2128 3.08748 23.1918 3.08748 23.1708V23.1378C3.04448 23.0948 3.00048 23.0638 2.95848 23.0398C2.95848 23.0188 2.93648 22.9968 2.89248 22.9748C2.87148 22.9748 2.83948 22.9648 2.79548 22.9438C2.79548 22.9008 2.79548 22.8688 2.79548 22.8458C2.77448 22.8248 2.75348 22.8038 2.73048 22.7818C2.66648 22.7608 2.62248 22.7388 2.60148 22.7168C2.57948 22.6748 2.56748 22.6418 2.56748 22.6198C2.54648 22.5988 2.51448 22.5758 2.47048 22.5548C2.44848 22.5298 2.42548 22.4968 2.40548 22.4538C2.40548 22.4318 2.39548 22.4108 2.37348 22.3888L2.34148 22.3558C2.27548 22.3348 2.23248 22.3148 2.21148 22.2928C2.21148 22.2488 2.20048 22.2168 2.17748 22.1948L2.14548 22.1618C2.08048 22.1408 2.03848 22.1178 2.01648 22.0978C2.01648 22.0538 2.01648 22.0218 2.01648 21.9998C1.99548 21.9998 1.98348 21.9888 1.98348 21.9678C1.96248 21.9458 1.95148 21.9248 1.95148 21.9038C1.95148 21.8828 1.95148 21.8488 1.95148 21.8058C1.90948 21.8058 1.86448 21.7928 1.82048 21.7728C1.82048 21.7518 1.81048 21.7298 1.78948 21.7088C1.78948 21.6868 1.77848 21.6548 1.75748 21.6098V21.5778C1.71448 21.5568 1.67048 21.5358 1.62748 21.5138C1.62748 21.4928 1.62748 21.4708 1.62748 21.4498V21.3848C1.60648 21.3638 1.59548 21.3418 1.59548 21.3218C1.57448 21.3008 1.56348 21.2778 1.56348 21.2578C1.56348 21.2138 1.56348 21.1818 1.56348 21.1598C1.56348 21.1378 1.56348 21.1168 1.56348 21.0948C1.56348 21.0728 1.56348 21.0518 1.56348 21.0298C1.56348 20.9868 1.56348 20.9538 1.56348 20.9328C1.56348 20.9118 1.56348 20.8888 1.56348 20.8688V20.8368C1.56348 20.7928 1.56348 20.7608 1.56348 20.7378C1.56348 20.7168 1.56348 20.6938 1.56348 20.6738C1.56348 20.6538 1.56348 20.6308 1.56348 20.6098C1.56348 20.5448 1.56348 20.4908 1.56348 20.4468C1.56348 20.4258 1.56348 20.3938 1.56348 20.3498C1.56348 20.3278 1.56348 20.3068 1.56348 20.2848V20.2538C1.56348 20.2318 1.56348 20.2088 1.56348 20.1878C1.56348 20.1448 1.56348 20.1128 1.56348 20.0918C1.56348 20.0708 1.56348 20.0478 1.56348 20.0278C1.56348 20.0058 1.56348 19.9718 1.56348 19.9298C1.56348 19.8848 1.56348 19.8418 1.56348 19.7988C1.56348 19.7778 1.56348 19.7448 1.56348 19.7018C1.58448 19.7018 1.60748 19.6908 1.62748 19.6698V19.6378C1.62748 19.5078 1.62748 19.3668 1.62748 19.2148C1.62748 19.0868 1.62748 18.9448 1.62748 18.7948C1.62748 18.6428 1.62748 18.5018 1.62748 18.3718C1.62748 18.2198 1.62748 18.0808 1.62748 17.9498C1.62748 17.7988 1.62748 17.6478 1.62748 17.4958C1.62748 17.3668 1.62748 17.2248 1.62748 17.0758C1.62748 16.9228 1.62748 16.7828 1.62748 16.6528C1.62748 16.5008 1.62748 16.3608 1.62748 16.2318C1.62748 16.0798 1.62748 15.9188 1.62748 15.7448C1.62748 15.6368 1.62748 15.4968 1.62748 15.3228C1.62748 15.1728 1.62748 15.0308 1.62748 14.8998C1.62748 14.8788 1.62748 14.8588 1.62748 14.8368C1.60648 14.8158 1.58448 14.8048 1.56348 14.8048C1.56348 14.7838 1.56348 14.7628 1.56348 14.7398V14.6758C1.56348 14.6548 1.56348 14.6328 1.56348 14.6118C1.56348 14.5898 1.56348 14.5678 1.56348 14.5478C1.56348 14.5038 1.56348 14.4718 1.56348 14.4508C1.56348 14.4288 1.56348 14.4068 1.56348 14.3848C1.56348 14.3638 1.56348 14.3418 1.56348 14.3198C1.56348 14.2768 1.56348 14.2458 1.56348 14.2228C1.56348 14.1998 1.56348 14.1798 1.56348 14.1588V14.1248C1.56348 14.0828 1.56348 14.0508 1.56348 14.0278C1.56348 14.0068 1.56348 13.9848 1.56348 13.9648C1.56348 13.9408 1.56348 13.9198 1.56348 13.8988C1.56348 13.8548 1.56348 13.8228 1.56348 13.8018C1.56348 13.7808 1.56348 13.7588 1.56348 13.7368C1.56348 13.7158 1.56348 13.6828 1.56348 13.6388C1.56348 13.6178 1.56348 13.5958 1.56348 13.5748V13.5428C1.56348 13.5198 1.56348 13.4998 1.56348 13.4778C1.56348 13.4348 1.56348 13.4018 1.56348 13.3808C1.56348 13.3588 1.56348 13.3368 1.56348 13.3148C1.56348 13.2518 1.56348 13.2088 1.56348 13.1858C2.10348 13.1858 2.64348 13.1858 3.18448 13.1858C3.18448 13.2078 3.18448 13.2408 3.18448 13.2828C3.20548 13.3048 3.23948 13.3268 3.28148 13.3478C3.30348 13.3698 3.33648 13.3808 3.37948 13.3808C3.37948 13.4018 3.37948 13.4348 3.37948 13.4778C3.42348 13.4998 3.46648 13.5198 3.50948 13.5428C3.57448 13.5648 3.62848 13.5748 3.67148 13.5748C3.67148 13.5958 3.68248 13.6188 3.70448 13.6388C3.70448 13.6828 3.72548 13.7148 3.76748 13.7368C3.81148 13.7588 3.86548 13.7678 3.93148 13.7678C3.93148 13.7898 3.93148 13.8128 3.93148 13.8328C3.99548 13.8758 4.05948 13.9098 4.12648 13.9308C4.19148 13.9528 4.25548 13.9648 4.32048 13.9648C4.32048 13.9848 4.32048 14.0058 4.32048 14.0278C4.40648 14.0498 4.47248 14.0828 4.51448 14.1248C4.64448 14.1488 4.77448 14.1588 4.90348 14.1588C4.90348 14.1798 4.90348 14.2008 4.90348 14.2228C5.01348 14.2448 5.10948 14.2768 5.19648 14.3198C5.56448 14.3198 5.94248 14.3198 6.33148 14.3198C6.41848 14.2768 6.52648 14.2458 6.65548 14.2228C6.69948 14.2008 6.72148 14.1798 6.72148 14.1588H6.75348C6.88348 14.1378 7.01348 14.1248 7.14248 14.1248C7.23048 14.0828 7.32748 14.0508 7.43548 14.0278C7.45748 14.0068 7.46648 13.9848 7.46648 13.9648H7.49948C7.62648 13.9338 7.75548 13.9238 7.88548 13.9238C8.01648 13.9028 8.14548 13.8688 8.27648 13.8258C8.27648 13.8048 8.27648 13.7828 8.27648 13.7608C8.40648 13.7398 8.53548 13.7298 8.66548 13.7298C8.72848 13.7088 8.80548 13.6758 8.89248 13.6318C8.89248 13.6108 8.89248 13.5888 8.89248 13.5678H8.92548C8.98948 13.5468 9.04348 13.5358 9.08648 13.5358C9.19548 13.5128 9.28148 13.4928 9.34648 13.4708C9.36748 13.4278 9.37848 13.3948 9.37848 13.3738H9.44348C9.48648 13.3518 9.53048 13.3408 9.57448 13.3408C9.68048 13.3198 9.80048 13.2978 9.92948 13.2758C9.95148 13.2338 9.96348 13.2018 9.96348 13.1788H9.99548C10.0605 13.1578 10.1245 13.1468 10.1905 13.1468C10.2765 13.1258 10.3735 13.1038 10.4815 13.0828C10.4815 13.0388 10.4815 13.0078 10.4815 12.9848C10.5455 12.9638 10.6335 12.9518 10.7405 12.9518C10.8065 12.9308 10.8825 12.9098 10.9685 12.8888C10.9685 12.8678 10.9685 12.8348 10.9685 12.7908C11.0115 12.7688 11.0755 12.7588 11.1625 12.7588C11.2055 12.7378 11.2695 12.7148 11.3565 12.6948C11.3565 12.6728 11.3565 12.6388 11.3565 12.5978C11.4215 12.5758 11.5075 12.5648 11.6145 12.5648C11.6605 12.5428 11.7125 12.5218 11.7785 12.5018C11.7785 12.4778 11.7785 12.4578 11.7785 12.4348H11.8115C11.8335 12.3928 11.8655 12.3708 11.9085 12.3708C11.9725 12.3498 12.0155 12.3278 12.0375 12.3048C12.0595 12.2838 12.0815 12.2628 12.1025 12.2418C12.1455 12.1988 12.1775 12.1768 12.1995 12.1768V12.1458C12.2645 12.1248 12.3405 12.1148 12.4275 12.1148C12.4505 12.0928 12.4715 12.0708 12.4925 12.0488L12.5895 11.9518C12.6325 11.9298 12.6865 11.9188 12.7525 11.9188C12.7525 11.8968 12.7525 11.8758 12.7525 11.8548C12.7945 11.8338 12.8385 11.8228 12.8815 11.8228C12.9245 11.7778 12.9665 11.7468 13.0105 11.7238C13.0325 11.7028 13.0435 11.6808 13.0435 11.6608H13.0745C13.1175 11.6388 13.1725 11.6298 13.2375 11.6298C13.2815 11.6068 13.3225 11.5738 13.3665 11.5308C13.4105 11.5098 13.4435 11.4868 13.4645 11.4648C13.4865 11.4438 13.5075 11.4328 13.5295 11.4328V11.4018C13.5945 11.3588 13.6475 11.3368 13.6915 11.3368C13.6915 11.3158 13.6915 11.2928 13.6915 11.2728H13.7235C13.7455 11.2518 13.7875 11.2398 13.8525 11.2398C13.9175 11.2188 13.9935 11.1968 14.0805 11.1758C14.0805 11.1328 14.0805 11.0998 14.0805 11.0788H14.1125C14.1555 11.0568 14.2115 11.0468 14.2745 11.0468C14.2975 11.0258 14.3185 11.0028 14.3405 10.9818C14.3615 10.9388 14.3835 10.9068 14.4045 10.8848C14.4475 10.8628 14.4805 10.8508 14.5025 10.8508V10.8198C14.5465 10.7978 14.5895 10.7868 14.6315 10.7868C14.6315 10.7658 14.6315 10.7328 14.6315 10.6898H14.6965C14.7185 10.6678 14.7515 10.6578 14.7945 10.6578C14.8585 10.6368 14.9025 10.6148 14.9255 10.5928C14.9465 10.5728 14.9565 10.5398 14.9565 10.4948H14.9905C15.0325 10.4738 15.0975 10.4638 15.1845 10.4638C15.2055 10.4418 15.2285 10.4198 15.2495 10.3988C15.2495 10.3778 15.2495 10.3558 15.2495 10.3348C15.3135 10.2908 15.3775 10.2708 15.4425 10.2708C15.5075 10.2488 15.5615 10.2278 15.6045 10.2058C15.6045 10.1848 15.6045 10.1628 15.6045 10.1418H15.6385C15.6595 10.0968 15.7015 10.0758 15.7675 10.0758C15.8105 10.0418 15.8755 10.0228 15.9615 9.99884C15.9615 9.97884 15.9615 9.95584 15.9615 9.93584C16.0265 9.89084 16.1025 9.87084 16.1875 9.87084C16.2315 9.84884 16.2975 9.82684 16.3835 9.80484C16.3835 9.78384 16.3835 9.76184 16.3835 9.73984H16.4155C16.4595 9.71884 16.5135 9.70984 16.5775 9.70984C16.6215 9.66484 16.6645 9.63284 16.7085 9.61084C16.7085 9.58984 16.7085 9.56784 16.7085 9.54584C16.7945 9.52484 16.8705 9.51484 16.9345 9.51484C16.9995 9.47084 17.0655 9.43884 17.1295 9.41784C17.1295 9.39584 17.1295 9.37484 17.1295 9.35284H17.1945C17.2375 9.33184 17.2915 9.31984 17.3575 9.31984C17.4215 9.29884 17.4865 9.26584 17.5525 9.22284C17.5525 9.20084 17.5525 9.18084 17.5525 9.15884C17.6825 9.13684 17.8005 9.12684 17.9095 9.12684C17.9525 9.10484 18.0165 9.07284 18.1025 9.02884C18.1025 9.00784 18.1025 8.98484 18.1025 8.96384H18.1345C18.1775 8.94184 18.2325 8.93284 18.2975 8.93284C18.3395 8.91084 18.4065 8.88784 18.4925 8.86784C18.4925 8.82384 18.4925 8.79184 18.4925 8.76984H18.5255C18.5465 8.74884 18.5785 8.73784 18.6225 8.73784C18.6865 8.71584 18.7305 8.69384 18.7515 8.67384C18.7735 8.62984 18.7845 8.59784 18.7845 8.57484H18.8165C18.9035 8.55384 18.9775 8.54384 19.0435 8.54384H19.1085C19.1085 8.52184 19.1085 8.49884 19.1085 8.47784C19.1085 8.45684 19.1085 8.42484 19.1085 8.38184C19.1725 8.36084 19.2585 8.34884 19.3685 8.34884C19.4105 8.32784 19.4655 8.31584 19.5305 8.31584C19.5515 8.29484 19.5735 8.28484 19.5945 8.28484C19.6165 8.26284 19.6375 8.25284 19.6605 8.25284V8.18484H19.7235C19.7455 8.16284 19.7665 8.14084 19.7895 8.11884C19.9405 8.09784 20.1035 8.07684 20.2755 8.05384C20.3185 7.98984 20.3515 7.94784 20.3725 7.92584C20.5885 7.90384 20.8145 7.88184 21.0545 7.86084C21.0755 7.79684 21.0975 7.75184 21.1185 7.72984C21.2265 7.70884 21.3355 7.68684 21.4435 7.66684C21.4435 7.64384 21.4545 7.63184 21.4755 7.63184ZM20.6325 17.1988V17.2638L20.5995 17.2948V17.3268C20.5785 17.3268 20.5675 17.3398 20.5675 17.3608V17.3928H20.5025V17.4568C20.4805 17.4568 20.4695 17.4688 20.4695 17.4888V17.5218L20.4365 17.5528V17.6178L20.4045 17.6828V17.7468H20.3715V17.7788C20.3505 17.7788 20.3395 17.7898 20.3395 17.8118V17.8758L20.2755 17.9138V17.9768H20.2435V18.1068H20.2115V18.3338H20.1785V18.3998C20.1565 18.3998 20.1465 18.4108 20.1465 18.4318V18.5938C20.1035 18.5938 20.0805 18.6058 20.0805 18.6258V18.7888H20.0485V19.1448L20.0805 19.1768V19.8238C19.8875 19.8238 19.6815 19.8238 19.4655 19.8238V19.7938H19.4325V19.6968L19.4005 19.6648V19.5988H19.3685V19.5668L19.3345 19.5038V19.4388H19.3035V19.3748L19.2375 19.3108V19.2458L19.2055 19.2128V19.0508L19.1725 19.0198V18.8258L19.1405 18.7938V18.7598C19.1405 18.6958 19.1405 18.6518 19.1405 18.6308C19.1405 18.5888 19.1405 18.5548 19.1405 18.5338C19.1405 18.4678 19.1405 18.4248 19.1405 18.4038C19.1405 18.3598 19.1405 18.3278 19.1405 18.3048C19.1405 18.2418 19.1405 18.1978 19.1405 18.1758C19.1405 18.1538 19.1405 18.1328 19.1405 18.1108C19.1405 18.0678 19.1405 18.0358 19.1405 18.0128C19.1405 17.9928 19.1405 17.9698 19.1405 17.9488C19.1405 17.9278 19.1405 17.9048 19.1405 17.8848C19.1405 17.8208 19.1405 17.7778 19.1405 17.7548C19.1405 17.7338 19.1405 17.7108 19.1405 17.6908C19.1405 17.6478 19.1405 17.6158 19.1405 17.5938C19.1405 17.5718 19.1405 17.5488 19.1405 17.5288V17.4958H19.1085L19.0435 17.5288C19.0435 17.5498 19.0315 17.5598 19.0115 17.5598L18.8815 17.7228V17.7548L18.7195 17.9178V17.9488L18.6865 17.9808V18.0448L18.6225 18.1098V18.1428L18.5895 18.1748V18.2408L18.5585 18.3038V18.4658L18.5265 18.5318V18.7918L18.5585 18.8238V19.0178L18.5895 19.0488V19.1798L18.6225 19.2108V19.2768L18.6865 19.3088V19.3728L18.7195 19.4058V19.4368L18.7835 19.5018V19.5648H18.8155L18.9455 19.6638V19.6958H18.9765L19.1075 19.8248H19.1395V19.8578H19.1715L19.2045 19.8888H19.2365L19.3025 19.9228H19.3335V19.9868H19.3675L19.3995 20.0198H19.4315L19.4645 20.0508C19.5075 20.0508 19.5405 20.0508 19.5615 20.0508V20.0838C19.5825 20.0838 19.6045 20.0838 19.6265 20.0838V20.1158H19.6595L19.7225 20.1788H19.7565C19.8205 20.1788 19.8855 20.1788 19.9505 20.1788V20.2138H19.9825V20.2448H20.0145V20.2758H20.0475V20.3078H20.0795V20.3408C20.1455 20.3408 20.2005 20.3408 20.2435 20.3408L20.2755 20.4058C20.3185 20.4058 20.3515 20.4058 20.3725 20.4058L20.4055 20.4368C20.4275 20.4368 20.4595 20.4368 20.5035 20.4368V20.4698C20.5465 20.4698 20.5785 20.4698 20.6005 20.4698L20.6335 20.5028H20.6655L20.6985 20.5338C20.8915 20.5338 21.0765 20.5338 21.2495 20.5338V20.5988C21.3795 20.5988 21.5085 20.5988 21.6385 20.5988V20.5338C21.6595 20.5338 21.6925 20.5338 21.7375 20.5338V20.5028C21.8445 20.5028 21.9635 20.5028 22.0925 20.5028V20.4698C22.1145 20.4698 22.1475 20.4698 22.1905 20.4698V20.4368C22.2345 20.4368 22.2765 20.4368 22.3205 20.4368V20.4058C22.3425 20.4058 22.3845 20.4058 22.4495 20.4058V20.3408C22.4715 20.3408 22.5045 20.3408 22.5475 20.3408V20.3078H22.5795V20.2758C22.6025 20.2758 22.6335 20.2758 22.6765 20.2758L22.7085 20.2448C22.7315 20.2448 22.7525 20.2448 22.7745 20.2448V20.2138C22.7965 20.2138 22.8385 20.2138 22.9045 20.2138V20.1788C22.9485 20.1788 22.9805 20.1788 23.0015 20.1788L23.0665 20.1158C23.0875 20.1158 23.1105 20.1158 23.1315 20.1158V20.0838C23.1515 20.0838 23.1735 20.0838 23.1965 20.0838L23.2275 20.0508C23.2715 20.0508 23.3035 20.0508 23.3255 20.0508V20.0198L23.3905 19.9218C23.4125 19.9218 23.4455 19.9218 23.4885 19.9218L23.5845 19.8228H23.6185C23.6185 19.8008 23.6285 19.7908 23.6495 19.7908L23.7135 19.7598C23.7355 19.7598 23.7575 19.7598 23.7795 19.7598V19.6948C23.8005 19.6948 23.8115 19.6838 23.8115 19.6628C23.8325 19.6628 23.8765 19.6628 23.9405 19.6628V19.6308L24.0055 19.5648C24.0265 19.5648 24.0475 19.5648 24.0695 19.5648C24.0695 19.5228 24.0905 19.5018 24.1345 19.5018C24.1345 19.4798 24.1465 19.4688 24.1665 19.4688L24.1985 19.4368H24.2305L24.2625 19.4058H24.3285L24.3595 19.3728V19.3088C24.3595 19.2878 24.3715 19.2768 24.3915 19.2768V19.2438H24.4235V19.2108C24.4235 19.1888 24.4355 19.1798 24.4575 19.1798V19.0178H24.4895V18.9838L24.5545 18.9508V18.8878H24.5865V18.8538C24.5865 18.8318 24.5965 18.8228 24.6185 18.8228V18.7908C24.6185 18.7678 24.6295 18.7568 24.6505 18.7568V18.7238L24.6835 18.6608C24.6835 18.6388 24.7045 18.6278 24.7475 18.6278V18.5638H24.7795V18.3338C24.7795 18.3128 24.7695 18.3018 24.7475 18.3018V18.2048L24.6835 18.1728V18.1078C24.6835 18.0648 24.6725 18.0428 24.6505 18.0428V17.9788L24.6185 17.9468V17.9138L24.5865 17.8808V17.8168L24.5545 17.7838V17.7518L24.4895 17.7198V17.6878L24.3285 17.4928V17.4608L24.2625 17.3968H24.2305L24.1985 17.3648V17.3308H24.1665L24.0685 17.2678C24.0465 17.2678 24.0255 17.2678 24.0045 17.2678L23.9395 17.1698C23.9175 17.1488 23.8855 17.1378 23.8425 17.1378C22.8045 17.1378 21.7565 17.1378 20.6965 17.1378C20.6755 17.1378 20.6635 17.1488 20.6635 17.1698C20.6645 17.1898 20.6535 17.1988 20.6325 17.1988ZM19.9515 20.0868C19.9515 20.0658 19.9635 20.0428 19.9835 20.0228C20.0265 20.0228 20.0795 20.0228 20.1465 20.0228C20.0585 20.0428 19.9945 20.0658 19.9515 20.0868ZM3.18348 19.5028C3.18448 19.4808 3.19548 19.4588 3.21548 19.4378C3.23848 19.4168 3.24848 19.3938 3.24848 19.3738C3.22748 19.3738 3.20448 19.3738 3.18348 19.3738V19.4068C3.18348 19.4278 3.18348 19.4588 3.18348 19.5028Z" fill="#9FB1C9"/>
</g>
<defs>
<clipPath id="clip0_28409_24697">
<rect width="84.75" height="32" fill="white" transform="translate(0.875 0.133789)"/>
</clipPath>
</defs>
</svg>
