<svg width="99" height="33" viewBox="0 0 99 33" fill="none" xmlns="http://www.w3.org/2000/svg">
<path fill-rule="evenodd" clip-rule="evenodd" d="M97.635 14.3586C97.635 14.3836 97.635 14.4206 97.635 14.4696V14.5066C97.635 14.5326 97.635 14.5696 97.635 14.6186C97.635 14.6436 97.635 14.6676 97.635 14.6936C97.635 14.7176 97.635 14.7426 97.635 14.7686C97.635 14.8176 97.635 14.8546 97.635 14.8796V14.9166C97.635 14.9416 97.635 14.9786 97.635 15.0286C97.635 15.0526 97.635 15.0776 97.635 15.1026C97.635 15.1276 97.635 15.1526 97.635 15.1766C97.635 15.2016 97.635 15.2266 97.635 15.2516C97.635 15.2756 97.635 15.3006 97.635 15.3256V15.4736C97.56 15.4736 97.486 15.4736 97.412 15.4736C96.222 15.4736 95.044 15.4736 93.879 15.4736V15.5866C93.73 15.5866 93.581 15.5866 93.433 15.5866V15.4736C91.772 15.4736 90.111 15.4736 88.45 15.4736C88.45 15.4996 88.45 15.5236 88.45 15.5486C88.45 15.5746 88.45 15.6106 88.45 15.6606C88.45 15.6846 88.45 15.7236 88.45 15.7726V15.8096C88.376 15.8096 88.314 15.8096 88.264 15.8096V15.7356C88.214 15.7356 88.164 15.7356 88.115 15.7356V15.6986C88.115 15.6746 88.115 15.6486 88.115 15.6236V15.5876C88.115 15.5626 88.115 15.5246 88.115 15.4746C87.966 15.4746 87.793 15.4746 87.595 15.4746V15.5876C87.545 15.5876 87.484 15.5876 87.409 15.5876V15.4746C87.26 15.4746 87.086 15.4746 86.889 15.4746C86.889 15.5006 86.889 15.5246 86.889 15.5496V15.6616C86.889 15.7106 86.889 15.7616 86.889 15.8106C86.839 15.8106 86.776 15.8106 86.702 15.8106C86.653 15.8106 86.602 15.8106 86.554 15.8106V15.8476C86.504 15.8476 86.442 15.8476 86.368 15.8476V15.8106C86.368 15.7616 86.368 15.7106 86.368 15.6616C86.368 15.6116 86.368 15.5756 86.368 15.5496C86.368 15.5006 86.368 15.4506 86.368 15.4016C86.368 15.3766 86.368 15.3516 86.368 15.3266C83.417 15.3266 80.479 15.3266 77.554 15.3266C77.53 15.3266 77.517 15.3146 77.517 15.2896C77.493 15.2896 77.48 15.2766 77.48 15.2526C77.456 15.2526 77.431 15.2526 77.406 15.2526H77.295V15.5126C77.171 15.5126 77.059 15.5126 76.96 15.5126C72.498 15.5126 68.035 15.5006 63.573 15.4746V15.8846C63.549 15.8846 63.524 15.8966 63.499 15.9216V16.5176C63.548 16.5176 63.586 16.5176 63.61 16.5176V16.8506C63.586 16.8506 63.548 16.8506 63.499 16.8506L63.462 16.8886H63.424C63.424 16.9126 63.412 16.9256 63.386 16.9256V16.8886C63.411 16.8886 63.424 16.8756 63.424 16.8506C63.3 16.8506 63.152 16.8506 62.978 16.8506V16.9256C62.854 16.9256 62.73 16.9256 62.606 16.9256V16.5906C62.357 16.5906 62.123 16.5906 61.9 16.5906V16.8886C61.8 16.8886 61.69 16.8886 61.566 16.8886V16.5906C61.417 16.5906 61.256 16.5906 61.083 16.5906V16.8506C60.934 16.8506 60.81 16.8506 60.711 16.8506V16.5906C60.537 16.5906 60.351 16.5906 60.152 16.5906V16.8506C60.004 16.8506 59.88 16.8506 59.781 16.8506V16.5906C59.607 16.5906 59.446 16.5906 59.298 16.5906V16.8506C59.148 16.8506 59.025 16.8506 58.926 16.8506V16.5906C58.752 16.5906 58.566 16.5906 58.367 16.5906V16.8506C58.268 16.8506 58.158 16.8506 58.034 16.8506V16.5906H57.884C57.786 16.5906 57.687 16.5906 57.588 16.5906V16.9256C57.464 16.9256 57.352 16.9256 57.254 16.9256V16.5906C57.08 16.5906 56.894 16.5906 56.695 16.5906V16.8506C56.597 16.8506 56.485 16.8506 56.362 16.8506V16.5906C56.212 16.5906 56.051 16.5906 55.879 16.5906V16.8506C55.73 16.8506 55.593 16.8506 55.469 16.8506V16.5906C55.295 16.5906 55.122 16.5906 54.948 16.5906V16.8506C54.823 16.8506 54.688 16.8506 54.539 16.8506V16.5906C54.365 16.5906 54.191 16.5906 54.018 16.5906V16.8136C53.893 16.8136 53.783 16.8136 53.685 16.8136V16.5906C53.535 16.5906 53.361 16.5906 53.163 16.5906V16.8506C53.064 16.8506 52.953 16.8506 52.829 16.8506V16.5906C52.68 16.5906 52.518 16.5906 52.346 16.5906V16.8506C52.221 16.8506 52.11 16.8506 52.011 16.8506V16.5906C51.813 16.5906 51.627 16.5906 51.453 16.5906V16.8136C51.329 16.8136 51.192 16.8136 51.044 16.8136V16.5906C50.895 16.5906 50.734 16.5906 50.561 16.5906V16.8506C50.436 16.8506 50.325 16.8506 50.227 16.8506V16.5906C50.029 16.5906 49.817 16.5906 49.594 16.5906V16.8506C49.198 16.8506 48.813 16.8506 48.442 16.8506V16.5906C48.293 16.5906 48.157 16.5906 48.032 16.5906V16.7026L47.995 16.7396V16.7766L47.957 16.8136V16.8886C47.957 16.9126 47.945 16.9256 47.919 16.9256C47.894 16.9256 47.882 16.9376 47.882 16.9626H47.845C47.746 16.9626 47.647 16.9626 47.548 16.9626C47.473 16.9876 47.399 17.0006 47.325 17.0006C47.3 17.0246 47.262 17.0376 47.213 17.0376L47.176 17.0746C47.152 17.0996 47.115 17.1116 47.064 17.1116L47.027 17.1496H46.99C46.916 17.1736 46.842 17.1866 46.767 17.1866C46.717 17.1866 46.667 17.1986 46.618 17.2226L46.581 17.2596V17.2966C46.556 17.2966 46.531 17.3096 46.507 17.3356L46.432 17.3726C46.432 17.3966 46.42 17.4096 46.395 17.4096L46.321 17.4836H46.284C46.284 17.5076 46.271 17.5206 46.246 17.5206V17.5946L46.209 17.6316H46.17V17.6686C46.17 17.6936 46.17 17.7186 46.17 17.7426V17.7806C46.17 17.8056 46.17 17.8296 46.17 17.8546V18.3746C46.17 18.4006 46.17 18.4246 46.17 18.4486C46.17 18.4986 46.17 18.5486 46.17 18.5976C46.17 18.6476 46.17 18.6856 46.17 18.7096V18.8576C46.17 18.9076 46.17 18.9576 46.17 19.0066C46.17 19.0566 46.17 19.0936 46.17 19.1186C46.17 19.1686 46.17 19.2186 46.17 19.2666C46.17 19.3146 46.17 19.3656 46.17 19.4156C46.17 19.4406 46.17 19.4656 46.17 19.4906V19.5276L46.282 19.6376H46.319C46.343 19.6376 46.368 19.6516 46.393 19.6766C46.417 19.6766 46.43 19.6886 46.43 19.7136L46.468 19.7506C46.492 19.7506 46.505 19.7626 46.505 19.7876V20.4936H46.468C46.468 20.5176 46.455 20.5316 46.43 20.5316V20.5686H46.393C46.319 20.5686 46.231 20.5686 46.133 20.5686V20.6796C46.109 20.6796 46.058 20.6796 45.984 20.6796C45.96 20.6796 45.935 20.6796 45.91 20.6796V20.7176C45.91 20.7926 45.91 20.8656 45.91 20.9406C45.91 21.0146 45.91 21.0886 45.91 21.1636C45.91 21.2126 45.91 21.2756 45.91 21.3506C45.91 21.4496 45.91 21.5246 45.91 21.5736C45.91 21.6476 45.91 21.7226 45.91 21.7976C45.91 21.8706 45.91 21.9456 45.91 22.0196C45.91 22.0936 45.91 22.1696 45.91 22.2436C45.91 22.3176 45.91 22.3916 45.91 22.4666C45.91 22.5406 45.91 22.6026 45.91 22.6536C45.91 22.7276 45.91 22.8146 45.91 22.9126C45.91 22.9626 45.91 23.0246 45.91 23.0986C45.91 23.1736 45.91 23.2466 45.91 23.3226C45.91 23.3966 45.91 23.4706 45.91 23.5446C45.91 23.6186 45.91 23.6936 45.91 23.7676C45.91 23.8426 45.91 23.9166 45.91 23.9916C45.91 24.0406 45.91 24.1016 45.91 24.1776C45.91 24.2756 45.91 24.3516 45.91 24.4006C45.91 24.4736 45.91 24.5496 45.91 24.6236C45.91 24.6976 45.91 24.7726 45.91 24.8466C45.91 24.9216 45.91 24.9956 45.91 25.0696C45.91 25.1186 45.91 25.1936 45.91 25.2926C45.91 25.3666 45.91 25.4306 45.91 25.4786C45.91 25.5526 45.91 25.6406 45.91 25.7396C45.91 25.7896 45.91 25.8506 45.91 25.9256C45.91 25.9996 45.91 26.0746 45.91 26.1496C45.91 26.2236 45.91 26.2976 45.91 26.3726C45.91 26.4466 45.91 26.5086 45.91 26.5586C45.91 26.6576 45.91 26.7446 45.91 26.8186C45.91 26.8676 45.91 26.9306 45.91 27.0056C45.91 27.1036 45.91 27.1776 45.91 27.2276C45.91 27.3026 45.91 27.3766 45.91 27.4506C45.91 27.4996 45.91 27.5746 45.91 27.6736C45.91 27.7486 45.91 27.8106 45.91 27.8606C45.91 27.9096 45.91 27.9596 45.91 28.0086V28.1206C45.91 28.1936 45.91 28.2566 45.91 28.3066V28.4546C45.91 28.4796 45.91 28.5166 45.91 28.5656C45.91 28.5916 45.91 28.6156 45.91 28.6406C45.935 28.6406 45.96 28.6406 45.984 28.6406V28.8636C43.827 28.8636 41.67 28.8636 39.514 28.8636C39.464 28.8636 39.415 28.8636 39.366 28.8636C39.341 28.8636 39.304 28.8636 39.253 28.8636V28.7896C39.253 28.7646 39.253 28.7406 39.253 28.7156C39.253 28.6906 39.253 28.6656 39.253 28.6406V28.5656C39.253 28.5416 39.253 28.5166 39.253 28.4916V28.4546C39.253 28.4296 39.253 28.4056 39.253 28.3796V28.3436C39.253 28.3186 39.253 28.2936 39.253 28.2686H39.217V28.2306C39.117 28.2306 39.018 28.2306 38.92 28.2306V27.7846C38.944 27.7846 38.969 27.7716 38.994 27.7466C38.994 27.6476 38.994 27.5736 38.994 27.5236C38.994 27.4486 38.994 27.3746 38.994 27.3006C38.994 27.2256 38.994 27.1516 38.994 27.0766C38.994 27.0036 38.994 26.9296 38.994 26.8536C38.994 26.8036 38.994 26.7296 38.994 26.6316C38.994 26.5576 38.994 26.4946 38.994 26.4456C38.994 26.3716 38.994 26.2846 38.994 26.1846C38.994 26.1356 38.994 26.0736 38.994 25.9986C38.994 25.9246 38.994 25.8496 38.994 25.7756C38.994 25.7016 38.994 25.6266 38.994 25.5516C38.994 25.4776 38.994 25.4166 38.994 25.3656C38.994 25.2676 38.994 25.1806 38.994 25.1056C38.994 25.0566 38.994 24.9946 38.994 24.9206C38.994 24.8206 38.994 24.7466 38.994 24.6966C38.994 24.6226 38.994 24.5486 38.994 24.4726C38.994 24.3996 38.994 24.3256 38.994 24.2506C38.994 24.1766 38.994 24.1016 38.994 24.0286C38.994 23.9786 38.994 23.9036 38.994 23.8036C38.994 23.7296 38.994 23.6686 38.994 23.6176C38.994 23.5436 38.994 23.4556 38.994 23.3576C38.994 23.3076 38.994 23.2456 38.994 23.1716C38.994 23.0966 38.994 23.0236 38.994 22.9486C38.994 22.8746 38.994 22.7996 38.994 22.7256C38.994 22.6516 38.994 22.5886 38.994 22.5386C38.994 22.4396 38.994 22.3526 38.994 22.2776C38.994 22.2286 38.994 22.1676 38.994 22.0916C38.994 22.0176 38.994 21.9566 38.994 21.9056C38.944 21.9056 38.895 21.9056 38.845 21.9056C38.745 21.9056 38.659 21.9056 38.584 21.9056H38.548C38.523 21.9056 38.498 21.9186 38.473 21.9436C38.448 21.9436 38.435 21.9566 38.435 21.9816H38.398C38.374 21.9816 38.337 21.9936 38.287 22.0176C38.237 22.0176 38.187 22.0296 38.139 22.0556V22.2036C36.552 22.2286 34.966 22.2416 33.379 22.2416C33.23 22.2416 33.106 22.2416 33.006 22.2416V22.4276L32.932 22.5016V22.5396L32.894 22.5766V22.6146H32.857L32.821 22.6526V22.7266H32.783C32.783 22.7506 32.771 22.7636 32.746 22.7636V22.8376C32.722 22.8376 32.708 22.8496 32.708 22.8756V22.9496H32.671L32.596 23.0246V23.0616C32.572 23.0616 32.56 23.0736 32.56 23.0986V23.1336H32.522V23.2086H32.485V23.2446C32.461 23.2446 32.448 23.2576 32.448 23.2816V23.3206H32.373V23.3946H32.41V23.5056L32.448 23.5426V23.5806C32.472 23.5806 32.485 23.5926 32.485 23.6166V23.6546H32.522V23.6916C32.547 23.6916 32.56 23.7036 32.56 23.7286V24.1746C32.535 24.1996 32.511 24.2116 32.485 24.2116C32.312 24.2116 32.125 24.2116 31.928 24.2116L31.89 24.2486V24.3236C31.866 24.3236 31.853 24.3366 31.853 24.3616V24.3986C31.853 24.4226 31.841 24.4356 31.816 24.4356L31.779 24.4716V24.5106H31.741V24.5486C31.741 24.5726 31.729 24.5856 31.704 24.5856V24.6226L31.667 24.6586V24.6966H31.63V24.7336H31.593V24.8066L31.556 24.8446V24.8816H31.52V24.9196C31.52 24.9446 31.507 24.9556 31.483 24.9556V24.9936H31.445V25.0306C31.445 25.0556 31.433 25.0686 31.407 25.0686C31.407 25.0926 31.395 25.1056 31.37 25.1056V25.1816H31.332V25.3666C31.332 25.3916 31.32 25.4046 31.295 25.4046C31.295 25.4306 31.282 25.4426 31.257 25.4426V25.4796C31.233 25.5036 31.208 25.5166 31.183 25.5166V25.5906H31.146V25.6656L31.109 25.7036V25.7406C31.109 25.7656 31.096 25.7776 31.071 25.7776V25.8146C31.071 25.8386 31.059 25.8516 31.034 25.8516V25.8906L30.997 25.9266C30.997 25.9516 30.985 25.9646 30.96 25.9646V26.0756C30.96 26.1006 30.947 26.1136 30.923 26.1136L30.884 26.1506C30.884 26.1746 30.873 26.1876 30.848 26.1876V26.2246L30.81 26.2626V26.2996H30.774V26.3376C30.748 26.3616 30.723 26.3756 30.698 26.3756V26.4126L30.661 26.4506C30.661 26.4746 30.648 26.4876 30.624 26.4876V26.5256C30.624 26.5496 30.612 26.5626 30.587 26.5626V26.5996C30.587 26.6236 30.575 26.6366 30.549 26.6366V26.7476C30.525 26.7476 30.512 26.7596 30.512 26.7846V26.8226H30.474L30.512 26.8586V26.8956C30.536 26.8956 30.549 26.9086 30.549 26.9346V26.9716H30.587V27.4546L30.549 27.4926C30.549 27.5166 30.536 27.5296 30.512 27.5296V27.5666H30.474V27.6336L30.436 27.6706V27.7456L30.399 27.7836C30.375 27.7836 30.349 27.7836 30.325 27.7836V27.8206C30.151 27.8206 29.965 27.8206 29.766 27.8206C29.743 27.7966 29.705 27.7836 29.655 27.7836C29.63 27.7836 29.605 27.7706 29.58 27.7456C29.556 27.7206 29.531 27.7076 29.507 27.7076C29.482 27.6826 29.444 27.6706 29.395 27.6706C29.321 27.6466 29.258 27.6336 29.209 27.6336V27.5966C29.134 27.5726 29.06 27.5596 28.986 27.5596C28.912 27.5346 28.849 27.5226 28.8 27.5226C28.751 27.5226 28.701 27.5226 28.652 27.5226C28.602 27.4966 28.565 27.4856 28.541 27.4856C28.466 27.4606 28.391 27.4476 28.317 27.4476C28.293 27.4226 28.255 27.4096 28.206 27.4096C28.181 27.4096 28.144 27.3986 28.094 27.3726C28.044 27.3486 28.008 27.3346 27.984 27.3346C27.933 27.3106 27.883 27.2976 27.835 27.2976C27.81 27.2976 27.784 27.2846 27.76 27.2586C27.685 27.2346 27.623 27.2226 27.574 27.2226C27.525 27.1976 27.475 27.1846 27.426 27.1846C27.401 27.1846 27.363 27.1846 27.314 27.1846V27.1476C27.264 27.1226 27.214 27.1106 27.166 27.1106C27.116 27.0866 27.079 27.0726 27.053 27.0726C27.004 27.0726 26.955 27.0606 26.905 27.0356C26.856 27.0116 26.805 26.9996 26.756 26.9996C26.732 26.9736 26.694 26.9616 26.645 26.9616C26.596 26.9366 26.545 26.9246 26.495 26.9246C26.421 26.9246 26.371 26.9126 26.347 26.8856C26.323 26.8616 26.298 26.8486 26.273 26.8486C26.224 26.8246 26.186 26.8126 26.162 26.8126C26.112 26.8126 26.062 26.8126 26.012 26.8126C25.939 26.7866 25.877 26.7746 25.826 26.7746L25.79 26.7376V26.2906H25.826V26.1426C25.851 26.1426 25.864 26.1306 25.864 26.1056H25.902C25.902 26.0806 25.914 26.0676 25.94 26.0676V26.0336L25.977 25.9966V25.9596C26.001 25.9346 26.026 25.9216 26.051 25.9216V25.8106H26.088V25.7736C26.113 25.7736 26.139 25.7736 26.163 25.7736V25.6996H26.2V25.6616C26.225 25.6376 26.25 25.6236 26.274 25.6236V25.5486H26.311C26.336 25.5486 26.348 25.5366 26.348 25.5116V25.4746H26.386V25.4006H26.423V25.3266C26.447 25.3266 26.46 25.3136 26.46 25.2886V25.2526H26.497V25.2146C26.522 25.1896 26.547 25.1776 26.572 25.1776V25.1016H26.61C26.61 25.0776 26.622 25.0646 26.647 25.0646L26.684 25.0266V24.9936L26.722 24.9556C26.722 24.9316 26.735 24.9196 26.759 24.9196V24.7706C26.784 24.7706 26.796 24.7586 26.796 24.7336V24.6956H26.871V24.6216L26.945 24.5476V24.4716C26.971 24.4716 26.982 24.4606 26.982 24.4356C27.007 24.4356 27.02 24.4226 27.02 24.3986H27.056C27.056 24.3746 27.069 24.3616 27.094 24.3616V24.2496L27.169 24.1756V24.1386L27.243 24.0646C27.268 24.0646 27.28 24.0516 27.28 24.0276V23.9896H27.356V23.9146L27.393 23.8776V23.8016L27.431 23.7646V23.6906H27.468V23.6536H27.506L27.58 23.6156V23.5416L27.617 23.5046V23.4306H27.654V23.3936C27.679 23.3936 27.691 23.3816 27.691 23.3566V23.3196H27.728L27.766 23.2806V23.2076H27.803V23.0576H27.841L27.878 23.0206V22.9456C27.903 22.9456 27.928 22.9456 27.952 22.9456H27.991V22.8336H28.027C28.027 22.8096 28.04 22.7966 28.064 22.7966V22.6856H28.101V22.6486L28.138 22.6106H28.176V22.5356C28.176 22.5116 28.188 22.4976 28.213 22.4976V22.3866L28.249 22.3496C28.249 22.3256 28.263 22.3126 28.288 22.3126V22.2386H28.363V22.1646C28.387 22.1646 28.412 22.1646 28.436 22.1646C28.436 22.1406 28.449 22.1266 28.474 22.1266V22.0886C28.498 22.0886 28.511 22.0766 28.511 22.0516V21.9406L28.549 21.9026H28.585L28.66 21.8286V21.7546C28.684 21.7546 28.71 21.7546 28.735 21.7546C28.735 21.7296 28.747 21.7166 28.772 21.7166V21.6416H28.809V21.6056L28.846 21.5676V21.5306H28.883C28.908 21.5306 28.921 21.5186 28.921 21.4936V21.4556L28.958 21.4196C28.958 21.3936 28.971 21.3816 28.996 21.3816V21.3086H29.034V21.2716L29.07 21.2346C29.095 21.2346 29.107 21.2206 29.107 21.1956H29.145V21.1586L29.183 21.1216V21.0466H29.22V20.9036H29.257V20.8656L29.294 20.8286C29.319 20.8286 29.332 20.8156 29.332 20.7916H29.369L29.443 20.7166V20.6786C29.468 20.6786 29.481 20.6656 29.481 20.6416V20.6046H29.519V20.5296C29.543 20.5296 29.556 20.5166 29.556 20.4916L29.593 20.4546V20.4176L29.632 20.3796V20.3426H29.669L29.706 20.3036C29.706 20.2796 29.719 20.2666 29.743 20.2666L29.78 20.2296V20.1916C29.805 20.1676 29.829 20.1556 29.855 20.1556V20.1176H29.929V20.0056H29.967V19.8936L30.004 19.8566V19.7826H30.041C30.041 19.7576 30.054 19.7456 30.078 19.7456V19.4476H30.116V19.3036L30.078 19.2656V19.1176C30.054 19.0926 30.028 19.0806 30.004 19.0806V19.0436C30.004 19.0186 29.992 19.0066 29.967 19.0066V18.9696L29.929 18.9316C29.929 18.9076 29.917 18.8936 29.892 18.8936V18.8566L29.854 18.8196H29.817L29.705 18.7456V18.7076H29.66C29.635 18.6836 29.61 18.6706 29.585 18.6706L29.548 18.6336V18.5586C29.523 18.5346 29.486 18.5226 29.436 18.5226L29.399 18.4846C29.399 18.4596 29.386 18.4466 29.361 18.4466C29.337 18.4226 29.312 18.4096 29.286 18.4096C29.286 18.3856 29.274 18.3726 29.249 18.3726H29.212V18.3366C29.212 18.3106 29.199 18.2986 29.175 18.2986C29.149 18.2986 29.137 18.2866 29.137 18.2616C29.112 18.2376 29.088 18.2246 29.062 18.2246C27.873 18.1996 26.695 18.1866 25.53 18.1866V18.1496C25.505 18.1496 25.492 18.1366 25.492 18.1116V18.0746C25.492 18.0506 25.479 18.0376 25.455 18.0376L25.307 17.8896C25.283 17.8896 25.258 17.8766 25.233 17.8516H25.195C25.17 17.8516 25.145 17.8516 25.121 17.8516C25.121 17.8266 25.109 17.8136 25.084 17.8136C25.035 17.8136 24.997 17.8136 24.972 17.8136V17.8516C24.948 17.8516 24.923 17.8516 24.898 17.8516H24.824C24.476 17.8516 24.154 17.8516 23.856 17.8516V17.7776C23.087 17.7776 22.319 17.7906 21.551 17.8146C21.526 17.8396 21.501 17.8526 21.476 17.8526C21.277 17.8526 21.092 17.8526 20.919 17.8526H20.881L20.807 17.9266C20.783 17.9266 20.769 17.9396 20.769 17.9646C20.745 17.9646 20.733 17.9766 20.733 18.0006H20.695C20.695 18.0256 20.683 18.0386 20.658 18.0386H20.621V18.0756L20.583 18.1126C20.583 18.1376 20.571 18.1506 20.547 18.1506C20.547 18.1756 20.534 18.1876 20.508 18.1876V18.2256L20.472 18.2626C20.472 18.2876 20.46 18.2996 20.434 18.2996V18.3736C20.409 18.3736 20.385 18.3736 20.36 18.3736L20.321 18.4106H20.29V18.4476L20.252 18.4856C20.228 18.4856 20.215 18.4976 20.215 18.5236C20.19 18.5236 20.178 18.5356 20.178 18.5596H20.141C20.116 18.5846 20.091 18.5966 20.066 18.5966V18.6346C20.042 18.6346 20.029 18.6466 20.029 18.6716H19.993V18.7086C19.967 18.7346 19.943 18.7466 19.917 18.7466C19.893 18.7466 19.868 18.7466 19.843 18.7466C19.818 18.7466 19.806 18.7586 19.806 18.7836H19.769V18.8576L19.732 18.8946V18.9326C19.732 18.9576 19.719 18.9706 19.694 18.9706V19.0076C19.669 19.0076 19.657 19.0196 19.657 19.0446C19.632 19.0446 19.619 19.0576 19.619 19.0826H19.582C19.582 19.1066 19.569 19.1196 19.545 19.1196V19.1566C19.519 19.1566 19.507 19.1696 19.507 19.1946H19.47V19.2686C19.446 19.2686 19.434 19.2816 19.434 19.3066L19.359 19.3806V19.4176C19.359 19.4426 19.347 19.4546 19.321 19.4546H19.284C19.26 19.4546 19.247 19.4676 19.247 19.4926H19.21C19.21 19.5166 19.197 19.5296 19.173 19.5296V19.5666C19.148 19.5666 19.135 19.5786 19.135 19.6046C19.111 19.6046 19.098 19.6156 19.098 19.6396H19.061V19.6786L19.024 19.7156V19.7526C18.999 19.7526 18.986 19.7646 18.986 19.7896H18.912V19.8256C18.887 19.8256 18.875 19.8396 18.875 19.8636V19.9006H18.837V19.9396H18.8C18.8 19.9626 18.788 19.9766 18.762 19.9766C18.738 19.9766 18.713 19.9886 18.688 20.0136H18.65V20.0506C18.65 20.0756 18.637 20.0876 18.613 20.0876V20.1256H18.575V20.1636L18.539 20.1996V20.2336L18.5 20.2706C18.5 20.2956 18.513 20.3206 18.539 20.3456V20.3826C18.514 20.4076 18.5 20.4326 18.5 20.4576C18.5 20.4826 18.513 20.4946 18.539 20.4946C18.539 20.5186 18.539 20.5446 18.539 20.5696C18.539 20.5936 18.539 20.6196 18.539 20.6436C18.539 20.6676 18.539 20.6926 18.539 20.7186C18.539 20.7436 18.539 20.7676 18.539 20.7936V20.8676C18.539 20.8926 18.539 20.9166 18.539 20.9426C18.539 20.9676 18.539 20.9916 18.539 21.0166C18.539 21.0416 18.539 21.0666 18.539 21.0906C18.539 21.1156 18.539 21.1406 18.539 21.1646V21.2016C18.539 21.2266 18.539 21.2526 18.539 21.2776C18.539 21.3016 18.539 21.3266 18.539 21.3516V21.3876C18.514 21.4126 18.488 21.4376 18.464 21.4616C18.464 21.4866 18.464 21.5116 18.464 21.5366C18.44 21.5366 18.414 21.5366 18.39 21.5366C18.39 21.5606 18.39 21.5856 18.39 21.6116C18.365 21.6356 18.341 21.6606 18.316 21.6856C18.291 21.7106 18.266 21.7226 18.242 21.7226C18.242 21.7476 18.229 21.7606 18.204 21.7606C18.179 21.7606 18.142 21.7726 18.093 21.7976C18.068 21.7976 18.043 21.7976 18.018 21.7976C17.994 21.7726 17.969 21.7606 17.944 21.7606C17.92 21.7606 17.907 21.7476 17.907 21.7226C15.7 21.7226 13.494 21.7226 11.287 21.7226C10.518 21.7226 9.73902 21.7226 8.94402 21.7226C8.25002 21.7226 7.55602 21.7226 6.86102 21.7226V21.6836C6.83602 21.6836 6.81202 21.6836 6.78702 21.6836V21.6096H6.75402C6.75402 21.5836 6.74102 21.5716 6.71602 21.5716V21.4236C6.69202 21.4236 6.65402 21.4236 6.60602 21.4236V21.3856C6.60602 21.3126 6.60602 21.2506 6.60602 21.1996V21.1626C6.52202 21.1386 6.44702 21.1256 6.38202 21.1256C6.38202 21.1006 6.38202 21.0756 6.38202 21.0506V21.0136C6.38202 20.9886 6.38202 20.9646 6.38202 20.9396V20.9036C6.38202 20.8786 6.38202 20.8536 6.38202 20.8296C5.66602 20.8296 4.96002 20.8296 4.26302 20.8296C4.26302 20.8786 4.26302 20.9286 4.26302 20.9776C4.26302 21.0516 4.26302 21.1266 4.26302 21.1996C4.26302 21.2756 4.26302 21.3496 4.26302 21.4236C4.26302 21.4976 4.26302 21.5596 4.26302 21.6096C4.26302 21.6836 4.26302 21.7706 4.26302 21.8686C4.26302 21.9186 4.26302 21.9816 4.26302 22.0556C4.26302 22.1306 4.26302 22.2036 4.26302 22.2786C4.26302 22.3536 4.26302 22.4276 4.26302 22.5016C4.26302 22.5766 4.26302 22.6516 4.26302 22.7256C4.26302 22.7996 4.26302 22.8746 4.26302 22.9486C4.26302 22.9986 4.26302 23.0596 4.26302 23.1346C4.26302 23.1596 4.26302 23.1846 4.26302 23.2096V23.6176C4.13802 23.6176 4.01502 23.6176 3.89102 23.6176V23.5816C3.56902 23.5566 3.22202 23.5436 2.84902 23.5436V23.8036C2.82402 23.8296 2.80002 23.8416 2.77402 23.8416V24.2136H2.73802C2.71302 24.2136 2.68802 24.2136 2.66302 24.2136C2.51602 24.2136 2.35302 24.2136 2.18102 24.2136C2.20502 24.2146 2.21702 24.2266 2.21702 24.2506L2.25402 24.2876H2.21702C2.16802 24.2876 2.13102 24.2876 2.10602 24.2876L2.06802 24.3236C2.04402 24.3236 2.01902 24.3236 1.99402 24.3236C1.89402 24.3236 1.82002 24.3236 1.77002 24.3236C1.64702 24.3236 1.53502 24.3236 1.43602 24.3236V24.2856C1.43602 24.2616 1.43602 24.2236 1.43602 24.1746C1.43602 24.1496 1.43602 24.1126 1.43602 24.0636V23.9886C1.43602 23.9386 1.43602 23.8886 1.43602 23.8396C1.43602 23.8146 1.43602 23.7766 1.43602 23.7286C1.43602 23.7036 1.43602 23.6796 1.43602 23.6546C1.43602 23.6046 1.43602 23.5686 1.43602 23.5426C1.43602 23.4936 1.43602 23.4556 1.43602 23.4316C1.43602 23.3826 1.43602 23.3456 1.43602 23.3206C1.43602 23.2946 1.43602 23.2576 1.43602 23.2096C1.43602 23.1596 1.43602 23.1226 1.43602 23.0966C1.43602 23.0476 1.43602 23.0106 1.43602 22.9856C1.43602 22.9616 1.43602 22.9236 1.43602 22.8746C1.43602 22.8486 1.43602 22.8126 1.43602 22.7626C1.43602 22.7376 1.43602 22.7006 1.43602 22.6516C1.43602 22.6266 1.43602 22.6016 1.43602 22.5766C1.43602 22.5266 1.43602 22.4776 1.43602 22.4286C1.43602 22.4036 1.43602 22.3656 1.43602 22.3176C1.48502 22.3176 1.54702 22.3176 1.62202 22.3176V22.0196C1.62202 21.9956 1.63502 21.9836 1.65902 21.9836V21.9456C1.65902 21.8956 1.65902 21.8216 1.65902 21.7226C1.65902 21.6476 1.65902 21.5856 1.65902 21.5366C1.65902 21.4616 1.65902 21.3876 1.65902 21.3136C1.65902 21.2396 1.65902 21.1646 1.65902 21.0896C1.65902 21.0146 1.65902 20.9416 1.65902 20.8666C1.65902 20.7926 1.65902 20.7186 1.65902 20.6436C1.65902 20.5696 1.65902 20.5076 1.65902 20.4576C1.65902 20.3826 1.65902 20.2956 1.65902 20.1966C1.65902 20.1476 1.65902 20.0856 1.65902 20.0106C1.65902 19.9376 1.65902 19.8616 1.65902 19.7876C1.65902 19.7136 1.65902 19.6376 1.65902 19.5646C1.65902 19.4906 1.65902 19.4156 1.65902 19.3406C1.65902 19.2666 1.65902 19.1926 1.65902 19.1176C1.65902 19.0686 1.65902 19.0056 1.65902 18.9316C1.65902 18.8326 1.65902 18.7586 1.65902 18.7086C1.65902 18.6346 1.65902 18.5596 1.65902 18.4856C1.65902 18.4106 1.65902 18.3376 1.65902 18.2626C1.65902 18.1886 1.65902 18.1136 1.65902 18.0396C1.65902 17.9656 1.65902 17.8916 1.65902 17.8156C1.65902 17.7406 1.65902 17.6786 1.65902 17.6296C1.65902 17.5546 1.65902 17.4686 1.65902 17.3696C1.65902 17.3206 1.65902 17.2576 1.65902 17.1836C1.65902 17.1086 1.65902 17.0346 1.65902 16.9596C1.65902 16.8846 1.65902 16.8106 1.65902 16.7366C1.65902 16.6626 1.65902 16.6006 1.65902 16.5506C1.65902 16.4516 1.65902 16.3646 1.65902 16.2896C1.65902 16.2396 1.65902 16.1786 1.65902 16.1036C1.65902 16.0046 1.65902 15.9316 1.65902 15.8806C1.65902 15.8066 1.65902 15.7326 1.65902 15.6576C1.65902 15.5846 1.65902 15.5096 1.65902 15.4336C1.65902 15.3596 1.65902 15.2856 1.65902 15.2116H1.62202V15.1736L1.58402 15.1366C1.55902 15.1126 1.54702 15.0866 1.54702 15.0626C1.54702 15.0376 1.54702 15.0136 1.54702 14.9876C1.54702 14.9636 1.54702 14.9396 1.54702 14.9136V14.8766C1.54702 14.8516 1.54702 14.8266 1.54702 14.8016C1.54702 14.7786 1.54702 14.7536 1.54702 14.7286C1.54702 14.7026 1.54702 14.6776 1.54702 14.6526V14.6156C1.54702 14.5916 1.54702 14.5666 1.54702 14.5416V14.5026C1.54702 14.4776 1.54702 14.4536 1.54702 14.4296C1.54702 14.4046 1.54702 14.3806 1.54702 14.3546C1.54702 14.3306 1.54702 14.3056 1.54702 14.2796C1.54702 14.2556 1.54702 14.2306 1.54702 14.2056V14.1316C1.54702 14.1066 1.54702 14.0826 1.54702 14.0576C1.54702 14.0316 1.54702 14.0076 1.54702 13.9826C1.54702 13.9576 1.54702 13.9326 1.54702 13.9076C1.54702 13.8826 1.54702 13.8576 1.54702 13.8326V13.7956C1.54702 13.7706 1.54702 13.7466 1.54702 13.7216C1.54702 13.6966 1.54702 13.6726 1.54702 13.6466V13.5726H1.47302C1.44802 13.5726 1.43602 13.5596 1.43602 13.5346V13.3486C1.43602 13.3236 1.43602 13.2976 1.43602 13.2736V13.0136C1.38602 13.0136 1.32402 13.0136 1.24902 13.0136V12.6786C1.52102 12.6786 1.79502 12.6786 2.06702 12.6786V12.7156C2.34002 12.7156 2.60102 12.7156 2.84802 12.7156V13.0506C2.82302 13.0506 2.78602 13.0506 2.73702 13.0506L2.77302 13.0876C3.24502 13.0876 3.70402 13.0876 4.15002 13.0876V13.3486C4.19902 13.3486 4.23602 13.3486 4.26102 13.3486V13.3866C4.26102 13.4366 4.26102 13.4976 4.26102 13.5726C4.26102 13.6716 4.26102 13.7456 4.26102 13.7956C4.26102 13.8706 4.26102 13.9446 4.26102 14.0186C4.26102 14.0936 4.26102 14.1676 4.26102 14.2436C4.26102 14.3176 4.26102 14.3916 4.26102 14.4656C4.26102 14.5156 4.26102 14.5906 4.26102 14.6896C4.26102 14.7646 4.26102 14.8256 4.26102 14.8756C4.26102 14.9496 4.26102 15.0356 4.26102 15.1356C4.26102 15.1856 4.26102 15.2476 4.26102 15.3216C4.26102 15.3966 4.26102 15.4696 4.26102 15.5446C4.26102 15.6196 4.26102 15.6936 4.26102 15.7686C4.26102 15.8426 4.26102 15.9036 4.26102 15.9546C4.26102 16.0536 4.26102 16.1416 4.26102 16.2146C4.26102 16.2636 4.26102 16.3266 4.26102 16.4006C5.02902 16.4006 5.81002 16.4006 6.60402 16.4006C6.60402 16.3266 6.60402 16.2526 6.60402 16.1776C6.60402 16.1026 6.60402 16.0296 6.60402 15.9546C6.60402 15.9036 6.60402 15.8296 6.60402 15.7316C6.60402 15.6816 6.60402 15.6326 6.60402 15.5836C6.65302 15.5836 6.69002 15.5836 6.71402 15.5836C6.78902 15.5836 6.86302 15.5836 6.93802 15.5836C8.05302 15.5836 9.15702 15.5836 10.247 15.5836C10.247 15.5326 10.247 15.4826 10.247 15.4336C10.247 15.3846 10.247 15.3346 10.247 15.2856C10.247 15.2366 10.247 15.1996 10.247 15.1736C10.247 15.1246 10.247 15.0746 10.247 15.0256C10.247 14.9746 10.247 14.9256 10.247 14.8766C10.247 14.8516 10.247 14.8136 10.247 14.7656C10.247 14.7156 10.247 14.6646 10.247 14.6166V14.5796C9.30502 14.5796 8.36302 14.5796 7.42102 14.5796V14.5046C7.29602 14.5046 7.17302 14.5046 7.04902 14.5046V14.0596C7.02402 14.0596 7.01202 14.0466 7.01202 14.0206V13.7236H6.97802V13.6866C6.97802 13.6376 6.97802 13.5756 6.97802 13.5006C6.97802 13.4756 6.97802 13.4396 6.97802 13.3896C6.97802 13.3136 6.97802 13.2526 6.97802 13.2026C6.97802 13.1286 6.97802 13.0776 6.97802 13.0546C6.97802 13.0056 6.97802 12.9426 6.97802 12.8676C6.97802 12.8176 6.97802 12.7686 6.97802 12.7196C6.97802 12.6696 6.97802 12.6086 6.97802 12.5336C6.97802 12.4836 6.97802 12.4456 6.97802 12.4216C6.97802 12.3476 6.97802 12.2856 6.97802 12.2366C6.97802 12.1616 6.97802 12.0996 6.97802 12.0496C6.97802 12.0006 6.97802 11.9496 6.97802 11.9006C6.97802 11.8516 6.97802 11.7906 6.97802 11.7146C6.97802 11.6906 6.97802 11.6406 6.97802 11.5666C6.97802 11.5166 6.97802 11.4676 6.97802 11.4176C6.97802 11.3686 6.97802 11.3196 6.97802 11.2686C6.97802 11.1946 6.97802 11.1326 6.97802 11.0816C6.97802 11.0326 6.97802 10.9836 6.97802 10.9346C6.97802 10.8846 6.97802 10.8236 6.97802 10.7486C6.95302 10.7486 6.94002 10.7356 6.94002 10.7106V10.3766C6.94002 10.3526 6.95202 10.3396 6.97802 10.3396V10.1936C7.02702 10.1936 7.07702 10.1936 7.12502 10.1936V10.0446C7.17502 10.0446 7.22502 10.0316 7.27402 10.0066V9.93364C7.34902 9.93364 7.42302 9.92164 7.49702 9.89564C7.52202 9.89564 7.53502 9.88264 7.53502 9.85764C7.65902 9.85764 7.78302 9.85764 7.90802 9.85764C11.055 9.85764 14.192 9.85764 17.314 9.85764C17.414 9.85764 17.501 9.85764 17.575 9.85764C18.021 9.83264 18.468 9.82064 18.914 9.82064H18.95V9.78464C19.198 9.80964 19.458 9.82164 19.732 9.82164C19.954 9.84564 20.165 9.85864 20.364 9.85864H20.586C20.958 9.85864 21.332 9.85864 21.702 9.85864V9.89664C21.777 9.89664 21.876 9.89664 22.001 9.89664L22.037 9.93364H22.074L22.112 9.97164C22.112 9.99564 22.125 10.0076 22.149 10.0076V10.4916C22.125 10.4916 22.112 10.5036 22.112 10.5286H22.074V10.6036L22.037 10.6406V10.7146C22.013 10.7146 22.001 10.7266 22.001 10.7526L21.964 10.7896C21.964 10.8136 21.951 10.8276 21.925 10.8276C21.925 10.8516 21.913 10.8636 21.888 10.8636L21.815 10.9386V10.9756L21.739 11.0486V11.0856L21.59 11.2346H21.553V11.3106L21.478 11.3466V11.3846L21.404 11.4956H21.367V11.5326L21.293 11.6076V11.6446L21.181 11.7186V11.7576C21.156 11.7576 21.144 11.7696 21.144 11.7946V11.8306C21.144 11.8556 21.131 11.8686 21.107 11.8686V11.9436C21.082 11.9436 21.056 11.9436 21.031 11.9436C21.031 11.9666 21.018 11.9806 20.995 11.9806C20.995 12.0046 20.983 12.0176 20.957 12.0176L20.921 12.0546C20.896 12.0546 20.871 12.0546 20.846 12.0546V12.1296C20.821 12.1296 20.809 12.1426 20.809 12.1666V12.2036H20.771V12.3156C20.747 12.3156 20.735 12.3286 20.735 12.3526L20.66 12.4266H20.623V12.4646C20.598 12.4646 20.585 12.4766 20.585 12.5026L20.55 12.5366C20.55 12.5616 20.537 12.5736 20.511 12.5736V12.6106C20.487 12.6106 20.475 12.6236 20.475 12.6476L20.4 12.7586H20.364V12.7966L20.289 12.8706V12.9076H20.251V12.9826C20.227 12.9826 20.214 12.9956 20.214 13.0206V13.0576H20.177C20.177 13.0816 20.164 13.0946 20.14 13.0946H20.102C20.077 13.0946 20.065 13.1066 20.065 13.1326L20.028 13.1696V13.2066H19.992L19.953 13.2436V13.2806H19.915C19.915 13.3046 19.903 13.3176 19.878 13.3176L19.804 13.3936H19.767V13.4306L19.73 13.4666V13.5046H19.692V13.5416L19.655 13.5796V13.6176L19.581 13.6916H19.544L19.468 13.7656C19.444 13.7656 19.432 13.7776 19.432 13.8026H19.36L19.248 13.9516H19.211V13.9896C19.186 13.9896 19.174 14.0016 19.174 14.0256V14.0646C19.125 14.0646 19.087 14.0646 19.062 14.0646L19.025 14.1006C19.025 14.1256 19.012 14.1386 18.987 14.1386L18.95 14.1716C18.926 14.1716 18.9 14.1716 18.876 14.1716C18.876 14.1966 18.863 14.2096 18.838 14.2096C18.813 14.2346 18.79 14.2476 18.764 14.2476L18.728 14.2836V14.3216H18.652C18.652 14.3466 18.639 14.3586 18.615 14.3586L18.541 14.4336H18.502V14.4696C18.477 14.4946 18.453 14.5066 18.428 14.5066H18.391C18.342 14.5066 18.305 14.5066 18.279 14.5066V14.5456C18.23 14.5456 18.192 14.5456 18.168 14.5456C16.854 14.5456 15.54 14.5456 14.226 14.5456V14.6556L14.189 14.6936V14.8046L14.077 14.8796C14.077 14.9026 14.077 14.9286 14.077 14.9536C14.077 14.9786 14.077 15.0036 14.077 15.0286V15.0656C14.077 15.0896 14.077 15.1156 14.077 15.1396V15.2146C14.077 15.2386 14.077 15.2636 14.077 15.2886V15.3256C14.077 15.3506 14.077 15.3756 14.077 15.4006C14.077 15.4246 14.077 15.4496 14.077 15.4736V15.5116C14.077 15.5356 14.077 15.5616 14.077 15.5866C15.019 15.5866 15.936 15.5866 16.829 15.5866C17.449 15.5866 18.057 15.5866 18.65 15.5866H18.688C18.688 15.5616 18.7 15.5476 18.726 15.5476V15.5106C18.75 15.5106 18.762 15.4986 18.762 15.4726H18.8C18.824 15.4726 18.849 15.4606 18.874 15.4356C18.898 15.4356 18.911 15.4236 18.911 15.3996H18.95C18.95 15.3746 18.963 15.3616 18.987 15.3616V15.3246C19.012 15.3246 19.025 15.3126 19.025 15.2876C19.049 15.2876 19.062 15.2746 19.062 15.2506H19.099C19.099 15.2256 19.112 15.2136 19.136 15.2136H19.174L19.248 15.1386H19.285C19.285 15.1146 19.297 15.1016 19.322 15.1016V15.0276C19.347 15.0276 19.36 15.0146 19.36 14.9886V14.9516C19.36 14.9276 19.372 14.9146 19.397 14.9146V14.8776H19.435C19.459 14.8776 19.471 14.8646 19.471 14.8396L19.509 14.8016V14.7286C19.534 14.7286 19.547 14.7146 19.547 14.6906H19.584C19.609 14.6646 19.633 14.6526 19.658 14.6526V14.6156C19.682 14.6156 19.707 14.6026 19.733 14.5786V14.5416C19.733 14.5156 19.746 14.5026 19.77 14.5026V14.4656L19.807 14.4296H19.844C19.844 14.4046 19.856 14.3926 19.881 14.3926V14.3176C19.906 14.3176 19.918 14.3056 19.918 14.2796H19.956V14.2056C19.981 14.2056 19.995 14.1936 19.995 14.1676H20.031L20.068 14.1306V14.0926C20.068 14.0686 20.08 14.0566 20.105 14.0566V13.9816H20.143L20.18 13.9436C20.204 13.9196 20.229 13.9066 20.253 13.9066V13.8696L20.291 13.8316H20.327C20.327 13.8086 20.34 13.7946 20.366 13.7946H20.402C20.427 13.7946 20.44 13.7816 20.44 13.7576C20.44 13.7336 20.453 13.7206 20.478 13.7206V13.6836H20.514C20.514 13.6586 20.527 13.6456 20.553 13.6456V13.5716C20.577 13.5716 20.589 13.5586 20.589 13.5336C20.615 13.5336 20.627 13.5216 20.627 13.4966L20.664 13.4586C20.688 13.4586 20.714 13.4586 20.739 13.4586V13.4226L20.775 13.3856V13.3096C20.8 13.3096 20.813 13.2966 20.813 13.2726C20.837 13.2726 20.85 13.2596 20.85 13.2356V13.1246H20.887L20.925 13.0866C20.925 13.0616 20.937 13.0496 20.961 13.0496V13.0126C20.987 13.0126 20.999 13.0006 20.999 12.9746H21.035V12.9376L21.072 12.8996V12.8626C21.097 12.8626 21.111 12.8506 21.111 12.8256L21.148 12.7886H21.185V12.7506H21.222C21.247 12.7506 21.259 12.7386 21.259 12.7136L21.336 12.6396V12.6026C21.36 12.6026 21.372 12.5896 21.372 12.5656C21.396 12.5656 21.409 12.5536 21.409 12.5286H21.446C21.446 12.5036 21.459 12.4916 21.484 12.4916V12.4166H21.522C21.522 12.3916 21.534 12.3786 21.559 12.3786C21.559 12.3546 21.572 12.3416 21.596 12.3416C21.621 12.3416 21.634 12.3296 21.634 12.3046C21.658 12.3046 21.671 12.2926 21.671 12.2676H21.708C21.708 12.2426 21.72 12.2306 21.746 12.2306V12.1556C21.771 12.1556 21.784 12.1426 21.784 12.1186C21.809 12.1186 21.822 12.1056 21.822 12.0806V12.0436C21.845 12.0436 21.858 12.0316 21.858 12.0066C21.882 12.0066 21.895 11.9946 21.895 11.9696H21.932C21.957 11.9436 21.982 11.9326 22.008 11.9326V11.9036L22.044 11.8676V11.8296H22.081C22.081 11.8056 22.093 11.7936 22.119 11.7936C22.119 11.7686 22.132 11.7566 22.156 11.7566V11.7176H22.194V11.6076C22.218 11.6076 22.231 11.5946 22.231 11.5696H22.269C22.344 11.5696 22.405 11.5696 22.455 11.5696V11.5316C22.679 11.5316 22.901 11.5316 23.124 11.5316H23.162C23.261 11.5316 23.373 11.5316 23.496 11.5316C23.546 11.5316 23.583 11.5316 23.608 11.5316C23.657 11.5316 23.707 11.5316 23.756 11.5316C23.83 11.5316 23.892 11.5316 23.942 11.5316H23.979C24.252 11.5316 24.524 11.5316 24.796 11.5316H25.094V11.4946H25.131V11.4566L25.168 11.4196V11.3836L25.206 11.3456H25.281V11.3096C25.281 11.2846 25.294 11.2586 25.318 11.2336C25.318 11.2096 25.33 11.1836 25.355 11.1606C25.355 11.1356 25.355 11.1106 25.355 11.0846C25.355 11.0616 25.355 11.0356 25.355 11.0106V10.9376C25.355 10.9126 25.355 10.8876 25.355 10.8626C25.355 10.8386 25.355 10.8126 25.355 10.7886C25.355 10.7636 25.355 10.7386 25.355 10.7136C25.38 10.6886 25.405 10.6646 25.43 10.6396C25.455 10.6396 25.48 10.6396 25.504 10.6396H25.542V10.4536C25.567 10.4536 25.58 10.4416 25.58 10.4166C25.629 10.3916 25.666 10.3786 25.691 10.3786C26.262 10.3786 26.831 10.3786 27.402 10.3786V9.93364C26.982 9.93364 26.547 9.93364 26.1 9.93364C26.025 9.93364 25.939 9.93364 25.839 9.93364C25.815 9.93364 25.791 9.93364 25.766 9.93364V9.22664C25.839 9.22664 25.914 9.22664 25.989 9.22664C26.683 9.22664 27.376 9.22664 28.071 9.22664C28.071 9.20164 28.083 9.18964 28.108 9.18964L28.145 9.15264C28.17 9.15264 28.183 9.13964 28.183 9.11464V9.07764H28.22C28.243 9.05364 28.282 9.03964 28.331 9.03964L28.369 9.00364H28.405C28.405 8.97864 28.418 8.96464 28.442 8.96464H28.48C28.653 8.96464 28.827 8.96464 29.001 8.96464C29.025 8.96464 29.05 8.97764 29.075 9.00364H29.112C29.137 9.02764 29.162 9.03964 29.188 9.03964V9.07764H29.225L29.262 9.15264C29.262 9.17664 29.274 9.18964 29.299 9.18964V9.52364C30.118 9.52364 30.924 9.52364 31.716 9.52364V9.59764C31.741 9.59764 31.766 9.59764 31.791 9.59764V9.67164C31.791 9.69664 31.791 9.72264 31.791 9.74664V9.78464C31.791 9.80964 31.791 9.83364 31.791 9.85864C31.791 9.88264 31.791 9.90964 31.791 9.93364C31.791 9.95864 31.791 9.98264 31.791 10.0076C31.791 10.0326 31.791 10.0566 31.791 10.0826V10.1196C31.791 10.1436 31.791 10.1696 31.791 10.1936V10.2306C31.791 10.2556 31.791 10.2806 31.791 10.3056V10.3436C32.931 10.3436 34.084 10.3436 35.249 10.3436C35.249 10.2936 35.249 10.2436 35.249 10.1946C35.249 10.1206 35.249 10.0466 35.249 9.97264C35.249 9.89764 35.249 9.82264 35.249 9.74864C35.249 9.67364 35.249 9.61264 35.249 9.56264C35.249 9.48864 35.249 9.40064 35.249 9.30164C35.249 9.25364 35.249 9.19064 35.249 9.11564C35.249 9.04164 35.249 8.96664 35.249 8.89264C35.249 8.81864 35.249 8.74464 35.249 8.66964C35.249 8.59564 35.249 8.53364 35.249 8.48264C35.249 8.38464 35.249 8.29564 35.249 8.22364C35.249 8.17364 35.249 8.11064 35.249 8.03764C35.249 7.93764 35.249 7.86364 35.249 7.81364C35.249 7.73964 35.249 7.66564 35.249 7.59164C35.001 7.59164 34.753 7.59164 34.504 7.59164C34.504 7.61564 34.492 7.62764 34.467 7.62764L34.42 7.66564H34.383C34.334 7.68964 34.282 7.70264 34.234 7.70264H34.197C34.197 7.72664 34.184 7.73964 34.16 7.73964C34.136 7.73964 34.122 7.75264 34.122 7.77764V7.81364H34.085V7.85164C34.06 7.85164 34.048 7.86364 34.048 7.88864C34.024 7.91264 33.998 7.92464 33.973 7.92464L33.936 7.96264C33.91 7.96264 33.899 7.97464 33.899 7.99964C33.849 7.99964 33.812 7.99964 33.787 7.99964L33.75 8.03764C33.701 8.03764 33.651 8.03764 33.602 8.03764C31.445 8.01164 29.288 7.99864 27.132 7.99864V8.03764C27.056 8.01164 26.971 7.99864 26.871 7.99864H26.796C26.796 7.92364 26.796 7.87464 26.796 7.85164V7.62764C26.796 7.57864 26.796 7.52864 26.796 7.47964V7.44164C26.796 7.36764 26.796 7.29364 26.796 7.21864C26.796 7.16864 26.796 7.10664 26.796 7.03364C26.796 6.95864 26.796 6.89664 26.796 6.84664C26.796 6.79664 26.796 6.73464 26.796 6.65964C26.796 6.58564 26.796 6.51164 26.796 6.43764C26.796 6.38864 26.796 6.33864 26.796 6.28864C26.796 6.21464 26.796 6.14064 26.796 6.06664C26.796 6.01664 26.796 5.95564 26.796 5.87964C26.796 5.83064 26.796 5.78064 26.796 5.73164C26.796 5.65664 26.796 5.58364 26.796 5.50864C26.796 5.43364 26.796 5.37264 26.796 5.32164C26.796 5.27264 26.796 5.21064 26.796 5.13564C26.796 5.06264 26.796 4.99964 26.796 4.94964C26.796 4.89964 26.796 4.83864 26.796 4.76364C26.945 4.76364 27.093 4.76364 27.242 4.76364L27.279 4.80064C29.486 4.80064 31.668 4.81364 33.823 4.83764V4.91164C33.873 4.91164 33.936 4.91164 34.01 4.91164V4.94864H34.085L34.122 4.98564C34.147 5.01064 34.184 5.02264 34.234 5.02264L34.308 5.06164H34.345C34.395 5.08564 34.444 5.09864 34.493 5.09864V5.17364C34.519 5.17364 34.543 5.17364 34.569 5.17364C34.569 5.19864 34.581 5.21164 34.606 5.21164C34.631 5.21164 34.643 5.22264 34.643 5.24864C34.667 5.24864 34.68 5.26164 34.68 5.28664H34.718C34.892 5.28664 35.065 5.28664 35.239 5.28664C35.239 5.26164 35.239 5.23564 35.239 5.21164C35.239 5.11264 35.239 5.03664 35.239 4.98764C35.239 4.91364 35.239 4.83964 35.239 4.76464C35.239 4.71464 35.239 4.64064 35.239 4.54064C35.339 4.54064 35.426 4.54064 35.499 4.54064C35.524 4.54064 35.548 4.54064 35.574 4.54064C36.367 4.54064 37.161 4.54064 37.953 4.54064V4.91264H37.915C37.915 4.98664 37.915 5.04864 37.915 5.09964C37.915 5.14864 37.915 5.19864 37.915 5.24764C38.56 5.24764 39.204 5.24764 39.85 5.24764V4.91264C39.874 4.91264 39.899 4.91264 39.924 4.91264V4.80164C40.098 4.80164 40.27 4.80164 40.444 4.80164V4.76464C40.42 4.76464 40.395 4.75264 40.371 4.72764V4.24464L40.407 4.20664V4.16964L40.444 4.13264V3.98364C40.544 4.00864 40.643 4.02064 40.743 4.02064V3.98364C40.743 3.93464 40.743 3.89764 40.743 3.87364C40.743 3.84864 40.743 3.82264 40.743 3.79864C40.743 3.77364 40.743 3.73664 40.743 3.68764C40.743 3.66264 40.743 3.63664 40.743 3.61264V3.53664L40.779 3.49964V3.20264C41.275 3.20264 41.771 3.20264 42.267 3.20264V3.38964C42.341 3.38964 42.404 3.38964 42.453 3.38964V3.90964C42.428 3.90964 42.416 3.92264 42.416 3.94764V4.02064C42.416 4.04564 42.416 4.07064 42.416 4.09564V4.13364C42.515 4.13364 42.589 4.13364 42.639 4.13364V4.80264C42.837 4.80264 43.023 4.80264 43.198 4.80264V5.02564H43.234V5.06464H43.271V5.10164L43.309 5.13864V5.17364L43.346 5.21164V5.24864C43.767 5.24864 44.213 5.24864 44.685 5.24864C44.685 5.17364 44.685 5.10064 44.685 5.02464C44.685 5.00064 44.685 4.96364 44.685 4.91364H44.647V4.57864C45.417 4.57864 46.184 4.57864 46.953 4.57864C47.077 4.57864 47.2 4.57864 47.326 4.57864V4.80164C47.326 4.85064 47.326 4.90064 47.326 4.94964V5.02364C47.326 5.09864 47.326 5.16064 47.326 5.21064C48.019 5.21064 48.714 5.21064 49.408 5.21064H49.445C49.445 5.18664 49.458 5.17264 49.484 5.17264C49.508 5.17264 49.546 5.16064 49.595 5.13564V5.09964C49.62 5.07464 49.644 5.06264 49.669 5.06264C49.694 5.06264 49.707 5.04864 49.707 5.02364C49.756 5.02364 49.793 5.02364 49.818 5.02364C49.843 5.02364 49.881 5.02364 49.93 5.02364C49.954 4.99964 49.991 4.98664 50.041 4.98664C50.091 4.96264 50.141 4.94964 50.19 4.94964H50.265C50.289 4.94964 50.315 4.93764 50.339 4.91264H50.376L50.414 4.87564C50.438 4.87564 50.462 4.87564 50.488 4.87564C50.514 4.85064 50.538 4.83864 50.563 4.83864L50.6 4.80164C50.649 4.80164 50.712 4.80164 50.786 4.80164C50.811 4.80164 50.848 4.78864 50.898 4.76464C50.947 4.74064 50.984 4.72764 51.009 4.72764H51.047C51.047 4.70264 51.059 4.68964 51.084 4.68964C51.133 4.68964 51.195 4.68964 51.27 4.68964V4.65364H51.308C51.332 4.62964 51.357 4.61664 51.382 4.61664L51.419 4.57964C51.444 4.57964 51.481 4.57964 51.531 4.57964C51.58 4.57964 51.629 4.56764 51.679 4.54164H51.717C51.766 4.51664 51.827 4.50364 51.904 4.50364H51.941C51.965 4.47964 52.003 4.46664 52.052 4.46664C52.077 4.46664 52.114 4.45464 52.164 4.42964H52.201C52.225 4.40464 52.263 4.39164 52.312 4.39164C52.387 4.36764 52.437 4.35464 52.461 4.35464L52.498 4.31664C52.548 4.31664 52.598 4.31664 52.647 4.31664C52.722 4.31664 52.783 4.31664 52.833 4.31664H52.87C52.896 4.29264 52.932 4.27964 52.981 4.27964H53.019C53.068 4.25564 53.106 4.24364 53.13 4.24364C53.204 4.24364 53.279 4.23064 53.354 4.20564V4.16964H53.391C53.415 4.14564 53.44 4.13264 53.465 4.13264V4.09464C53.54 4.09464 53.626 4.09464 53.726 4.09464C53.8 4.09464 53.862 4.08264 53.912 4.05764H53.949C53.997 4.03364 54.06 4.01964 54.135 4.01964H54.172C54.196 3.99564 54.246 3.98264 54.321 3.98264C54.37 3.98264 54.419 3.98264 54.469 3.98264C54.544 3.95864 54.617 3.94664 54.692 3.94664C54.766 3.92164 54.828 3.90864 54.877 3.90864L54.914 3.87264C54.939 3.87264 54.964 3.87264 54.989 3.87264H55.027C55.076 3.87264 55.114 3.87264 55.138 3.87264C55.163 3.87264 55.175 3.85964 55.175 3.83364L55.212 3.79664V3.72264H55.249V3.68664C55.373 3.68664 55.485 3.68664 55.583 3.68664V3.83464C57.467 3.81064 59.364 3.79764 61.272 3.79764H61.309C61.358 3.79764 61.408 3.79764 61.457 3.79764C61.583 3.79764 61.706 3.79764 61.83 3.79764V4.01964C61.83 4.04464 61.83 4.08264 61.83 4.13164C61.83 4.18064 61.83 4.23064 61.83 4.27964C61.83 4.32964 61.83 4.39164 61.83 4.46564C61.83 4.53964 61.83 4.61464 61.83 4.68864C61.83 4.76364 61.83 4.83764 61.83 4.91164C61.83 4.98564 61.83 5.04764 61.83 5.09864C61.83 5.19764 61.83 5.28464 61.83 5.35864C61.83 5.40764 61.83 5.46964 61.83 5.54564C61.83 5.64464 61.83 5.71864 61.83 5.76864C61.83 5.84264 61.83 5.91564 61.83 5.99164C61.83 6.04064 61.83 6.11464 61.83 6.21464C61.83 6.28864 61.83 6.36264 61.83 6.43764C61.83 6.48664 61.83 6.56164 61.83 6.65964C61.83 6.73464 61.83 6.79664 61.83 6.84664C61.83 6.92064 61.83 6.99464 61.83 7.06964C61.83 7.14464 61.83 7.21864 61.83 7.29264C61.83 7.36764 61.83 7.42864 61.83 7.47864C61.83 7.57764 61.83 7.66564 61.83 7.73864C61.83 7.81264 61.83 7.87464 61.83 7.92364C61.83 8.02364 61.83 8.10964 61.83 8.18464C61.83 8.23564 61.83 8.29464 61.83 8.37064C61.83 8.44464 61.83 8.51964 61.83 8.59364C61.83 8.66764 61.83 8.74264 61.83 8.81664C61.83 8.86564 61.83 8.93964 61.83 9.03964C61.706 9.03964 61.583 9.03964 61.457 9.03964V9.00464C59.55 9.00464 57.641 9.00464 55.731 9.00464H55.69C55.516 9.00464 55.33 9.00464 55.132 9.00464C55.057 8.97964 54.983 8.96564 54.908 8.96564C54.884 8.96564 54.871 8.95364 54.871 8.92864C54.822 8.90464 54.76 8.89164 54.686 8.89164C54.661 8.89164 54.636 8.89164 54.611 8.89164C54.538 8.89164 54.475 8.87864 54.424 8.85364V8.81764C54.4 8.79264 54.363 8.77964 54.314 8.77964C54.264 8.75564 54.215 8.74364 54.165 8.74364L54.128 8.70564C54.053 8.68064 53.98 8.66864 53.905 8.66864L53.831 8.63064C53.805 8.63064 53.781 8.61864 53.757 8.59364C53.706 8.56964 53.657 8.55664 53.607 8.55664C53.558 8.55664 53.509 8.55664 53.458 8.55664C53.434 8.53164 53.397 8.51864 53.348 8.51864C53.323 8.51864 53.286 8.50564 53.236 8.48064C53.186 8.45564 53.15 8.44364 53.125 8.44364C53.076 8.41864 53.025 8.40664 52.976 8.40664C52.927 8.40664 52.878 8.39464 52.828 8.36964V8.33464C52.778 8.30964 52.741 8.29564 52.717 8.29564C52.667 8.27164 52.605 8.25964 52.531 8.25964C52.482 8.25964 52.432 8.24664 52.383 8.22264C52.332 8.19764 52.296 8.18464 52.271 8.18464C52.197 8.18464 52.135 8.18464 52.086 8.18464C52.06 8.18464 52.01 8.17264 51.937 8.14764C51.861 8.12264 51.788 8.10864 51.714 8.10864C51.687 8.08564 51.648 8.07364 51.6 8.07364C51.55 8.04964 51.501 8.03764 51.451 8.03764C51.4 8.03764 51.365 8.02364 51.339 7.99864C51.29 7.97464 51.253 7.96164 51.228 7.96164H51.19C51.141 7.93664 51.092 7.92364 51.042 7.92364V7.88864C51.017 7.88864 50.992 7.88864 50.966 7.88864V7.85164C50.942 7.85164 50.917 7.85164 50.893 7.85164C50.843 7.82664 50.806 7.81364 50.781 7.81364C50.732 7.81364 50.696 7.80164 50.67 7.77664C50.62 7.75264 50.571 7.73864 50.521 7.73864C50.471 7.71364 50.422 7.70164 50.373 7.70164C50.324 7.67564 50.262 7.66464 50.187 7.66464C49.269 7.66464 48.352 7.66464 47.435 7.66464V7.70164C47.386 7.70164 47.336 7.70164 47.288 7.70164C47.288 7.77564 47.288 7.82564 47.288 7.85064C47.288 7.92364 47.288 7.99764 47.288 8.07264C47.312 8.14764 47.325 8.22164 47.325 8.29464C47.325 8.37064 47.325 8.44464 47.325 8.51964C47.325 8.56964 47.325 8.64364 47.325 8.74364C47.325 8.81764 47.325 8.87864 47.325 8.92864C47.325 9.00364 47.325 9.09064 47.325 9.18964C47.325 9.23964 47.325 9.30064 47.325 9.37564C47.325 9.44964 47.325 9.52464 47.325 9.59864C47.325 9.67264 47.325 9.74664 47.325 9.82164C47.325 9.89664 47.312 9.95864 47.288 10.0076C47.288 10.1076 47.288 10.1936 47.288 10.2676C47.288 10.2926 47.288 10.3176 47.288 10.3426C52.196 10.3426 57.104 10.3426 62.013 10.3426V10.3046C62.013 10.2796 62.013 10.2546 62.013 10.2296C62.013 10.2046 62.013 10.1806 62.013 10.1556V10.1186C62.013 10.0936 62.013 10.0686 62.013 10.0446V10.0076C62.013 9.98364 62.013 9.95864 62.013 9.93364V9.85864C62.013 9.83364 62.013 9.80964 62.013 9.78464V9.74664C62.013 9.72264 62.013 9.69664 62.013 9.67164C62.013 9.64664 62.013 9.62264 62.013 9.59764C62.013 9.57364 62.013 9.54864 62.013 9.52364L61.976 9.48664V8.89164C62.05 8.89164 62.113 8.89164 62.162 8.89164V8.81764C63.03 8.81764 63.885 8.81764 64.727 8.81764V8.85364C64.826 8.85364 64.925 8.85364 65.025 8.85364C65.05 8.85364 65.074 8.86664 65.1 8.89164H65.137V8.92864L65.174 8.96564C65.199 8.96564 65.224 8.97864 65.247 9.00464V9.04064H65.286L65.324 9.07864C65.373 9.07864 65.398 9.09164 65.398 9.11564V9.15364H65.434C65.434 9.17764 65.447 9.19064 65.473 9.19064C65.497 9.19064 65.535 9.20264 65.584 9.22764V8.85364C65.608 8.85364 65.634 8.85364 65.658 8.85364V8.81764C65.956 8.81764 66.254 8.81764 66.551 8.81764H66.588L66.625 8.85364V8.89164C66.65 8.89164 66.675 8.89164 66.699 8.89164V9.03964H66.738V9.07764L66.774 9.11464C66.799 9.11464 66.811 9.12664 66.811 9.15264V9.22664H66.848V9.30064H66.885V9.37564C66.91 9.37564 66.924 9.38764 66.924 9.41264V9.48764H66.96V9.52464C66.96 9.54964 66.973 9.56164 66.997 9.56164V9.59864H67.034V9.71064C67.059 9.71064 67.072 9.72364 67.072 9.74764V9.89664L67.106 9.93364V10.3426C68.098 10.3426 69.102 10.3426 70.118 10.3426C70.142 10.3176 70.167 10.3046 70.193 10.3046C70.217 10.3046 70.254 10.3166 70.304 10.3426H70.341C72.523 10.3426 74.716 10.3426 76.924 10.3426V10.6026C77.097 10.6266 77.258 10.6396 77.407 10.6396V10.9746C77.283 10.9746 77.146 10.9746 76.997 10.9746V11.1976C76.997 11.2226 77.01 11.2346 77.035 11.2346C77.109 11.2346 77.196 11.2346 77.295 11.2346V11.3466H77.331V11.7176C77.307 11.7176 77.282 11.7176 77.258 11.7176C77.258 11.7426 77.258 11.7686 77.258 11.7936C77.258 11.8426 77.258 11.9036 77.258 11.9796C77.258 12.0286 77.258 12.0656 77.258 12.0906C77.258 12.1406 77.258 12.2016 77.258 12.2766C77.258 12.3266 77.258 12.3766 77.258 12.4246C77.258 12.4746 77.258 12.5246 77.258 12.5736C77.258 12.6476 77.258 12.7096 77.258 12.7596C77.258 12.8096 77.258 12.8586 77.258 12.9076C77.258 12.9586 77.258 13.0206 77.258 13.0946C77.258 13.1196 77.258 13.1696 77.258 13.2436C77.258 13.2936 77.258 13.3556 77.258 13.4306C77.258 13.4546 77.258 13.4926 77.258 13.5416C77.258 13.6166 77.258 13.6786 77.258 13.7276C77.258 13.7766 77.258 13.8156 77.258 13.8386C80.307 13.8386 83.344 13.8386 86.369 13.8386C86.369 13.8156 86.369 13.7886 86.369 13.7646C86.369 13.7156 86.369 13.6656 86.369 13.6166C86.369 13.5666 86.369 13.5166 86.369 13.4666C86.392 13.4666 86.418 13.4666 86.443 13.4666C86.591 13.4666 86.74 13.4666 86.89 13.4666V13.6526C86.89 13.7026 86.89 13.7396 86.89 13.7646C86.914 13.7646 86.952 13.7646 87.001 13.7646H87.039C87.237 13.7646 87.435 13.7646 87.632 13.7646V13.4666C87.707 13.4666 87.781 13.4666 87.856 13.4666V13.5416L87.893 13.6166V13.6526L88.004 13.7646C88.029 13.7646 88.042 13.7766 88.042 13.8016C88.066 13.7766 88.091 13.7766 88.116 13.8016C88.116 13.7526 88.116 13.7156 88.116 13.6906C88.116 13.6416 88.116 13.5796 88.116 13.5046C88.116 13.4796 88.116 13.4556 88.116 13.4306C88.191 13.4306 88.253 13.4306 88.303 13.4306V13.4666C88.352 13.4666 88.401 13.4666 88.451 13.4666V13.5416C88.475 13.5416 88.488 13.5546 88.488 13.5796V13.8026C90.1 13.8026 91.7 13.8026 93.285 13.8026V13.5796C93.434 13.5796 93.57 13.5796 93.694 13.5796V13.8026C95.008 13.8026 96.321 13.8026 97.636 13.8026V13.9896C97.636 14.0146 97.636 14.0386 97.636 14.0646C97.636 14.0886 97.636 14.1136 97.636 14.1386V14.1756C97.636 14.2256 97.636 14.2626 97.636 14.2866C97.635 14.3096 97.635 14.3346 97.635 14.3586ZM64.056 10.3426C64.552 10.3426 65.06 10.3426 65.581 10.3426V10.1186C65.06 10.1186 64.551 10.1186 64.056 10.1186V10.3426ZM44.645 5.61964L44.683 5.65664V5.61964H44.645ZM40.742 7.88864C40.468 7.88864 40.184 7.88864 39.886 7.88864V7.62764C39.265 7.62764 38.633 7.62764 37.99 7.62764V7.66564H37.914V7.70264C37.914 7.77664 37.914 7.85164 37.914 7.92464C37.914 7.99964 37.914 8.07364 37.914 8.14964C37.914 8.19864 37.914 8.27264 37.914 8.37264C37.914 8.44664 37.927 8.50864 37.952 8.55964C37.952 8.63264 37.952 8.70764 37.952 8.78164C37.928 8.85564 37.914 8.93064 37.914 9.00564C37.914 9.07964 37.914 9.15364 37.914 9.22864C37.94 9.22864 37.965 9.22864 37.99 9.22864C40.219 9.25364 42.451 9.26564 44.683 9.26564C44.683 9.24164 44.683 9.21564 44.683 9.19164C44.683 9.09264 44.683 9.00564 44.683 8.93064C44.683 8.88064 44.683 8.81964 44.683 8.74564C44.683 8.64564 44.683 8.57164 44.683 8.52164C44.683 8.44664 44.683 8.37264 44.683 8.29664C44.683 8.22364 44.683 8.14964 44.683 8.07464C44.683 7.99964 44.683 7.92564 44.683 7.85264C44.683 7.80264 44.683 7.74064 44.683 7.66664C44.386 7.64164 44.088 7.62864 43.79 7.62864H43.679C43.531 7.62864 43.382 7.62864 43.232 7.62864V7.88964C42.91 7.88964 42.575 7.88964 42.228 7.88964V8.18664C41.757 8.16164 41.261 8.14964 40.742 8.14964V7.88864ZM34.122 19.1546V19.3036H34.085V19.5636C34.06 19.5886 34.035 19.6016 34.01 19.6016C34.01 19.6246 33.998 19.6366 33.973 19.6366V19.6756C33.973 19.6996 33.973 19.7376 33.973 19.7866C33.973 19.8106 33.973 19.8366 33.973 19.8606C33.973 19.9106 33.973 19.9486 33.973 19.9726C33.973 20.0226 33.973 20.0716 33.973 20.1206C33.973 20.1446 33.973 20.1826 33.973 20.2316C33.973 20.2566 33.973 20.2936 33.973 20.3436C33.973 20.3686 33.973 20.4056 33.973 20.4546C33.973 20.4786 33.973 20.5036 33.973 20.5286C33.973 20.5786 33.973 20.6276 33.973 20.6766C33.973 20.7016 33.973 20.7396 33.973 20.7896C33.973 20.8136 33.973 20.8386 33.973 20.8636C33.973 20.9126 33.973 20.9506 33.973 20.9756C33.973 20.9996 33.973 21.0246 33.973 21.0496H34.01C34.01 21.0736 34.024 21.0866 34.048 21.0866V21.1976L34.122 21.2736V21.3476L34.16 21.3836C34.184 21.3836 34.197 21.3956 34.197 21.4216C34.222 21.4216 34.234 21.4336 34.234 21.4576L34.27 21.4956C34.295 21.5206 34.321 21.5326 34.345 21.5326H34.383V21.5696L34.42 21.6076C34.444 21.6076 34.469 21.6206 34.493 21.6436C34.519 21.6696 34.543 21.6816 34.569 21.6816C34.593 21.7066 34.618 21.7186 34.643 21.7186C34.693 21.7186 34.742 21.7316 34.791 21.7566C35.808 21.7566 36.848 21.7566 37.915 21.7566C37.941 21.7316 37.966 21.7186 37.991 21.7186C38.04 21.7186 38.089 21.7066 38.139 21.6816C38.163 21.6566 38.2 21.6436 38.25 21.6436V21.5696C38.275 21.5446 38.3 21.5326 38.325 21.5326H38.363V21.4236H38.399V21.3856L38.474 21.3126V21.2756C38.499 21.2506 38.524 21.2386 38.549 21.2386V21.1996H38.585C38.585 21.1756 38.585 21.1506 38.585 21.1266C38.585 21.1016 38.585 21.0766 38.585 21.0516C38.585 21.0266 38.585 20.9896 38.585 20.9406C38.585 20.9156 38.585 20.8906 38.585 20.8656V20.8286C38.585 20.7786 38.585 20.7416 38.585 20.7166C38.585 20.6916 38.585 20.6656 38.585 20.6416C38.585 20.5916 38.585 20.5556 38.585 20.5306V20.4936C38.585 20.4696 38.585 20.4326 38.585 20.3826C38.585 20.3586 38.585 20.3326 38.585 20.3076C38.585 20.2836 38.585 20.2586 38.585 20.2336C38.585 20.1846 38.585 20.1466 38.585 20.1226V20.0846C38.585 20.0596 38.585 20.0236 38.585 19.9736C38.585 19.9496 38.585 19.9246 38.585 19.8976C38.585 19.8726 38.585 19.8366 38.585 19.7876L38.549 19.7506V19.4526C38.524 19.4526 38.512 19.4406 38.512 19.4156C38.487 19.4156 38.474 19.4036 38.474 19.3786H38.436L38.399 19.3406V19.2666C38.399 19.2416 38.386 19.2296 38.363 19.2296V19.1546L38.288 19.0806H38.25C38.226 19.0806 38.2 19.0806 38.176 19.0806H38.139C37.642 19.0806 37.135 19.0806 36.614 19.0806H36.576V19.1176C36.552 19.1176 36.539 19.1296 36.539 19.1546H36.501L36.465 19.1926C36.44 19.1926 36.427 19.2046 36.427 19.2296C36.403 19.2296 36.39 19.2416 36.39 19.2666H36.353C36.327 19.2666 36.303 19.2796 36.278 19.3046C36.253 19.3046 36.24 19.3156 36.24 19.3416C36.216 19.3656 36.191 19.3796 36.167 19.3796L36.128 19.4166C36.104 19.4166 36.091 19.4286 36.091 19.4536H36.053V19.4916C36.029 19.4916 36.016 19.5036 36.016 19.5286H35.979V19.5656L35.906 19.6776C35.88 19.6776 35.867 19.6896 35.867 19.7146H35.831L35.757 19.7886C35.733 19.7886 35.708 19.7996 35.682 19.8246V19.8626L35.644 19.8996V19.9386L35.607 19.9756V20.0126L35.533 20.0866V20.1246L35.496 20.1626V20.2336L35.458 20.2706V20.3076L35.422 20.3466V20.4576C35.397 20.4816 35.371 20.4946 35.347 20.4946V20.6436C35.371 20.6436 35.384 20.6566 35.384 20.6806C35.408 20.6806 35.422 20.6936 35.422 20.7186V20.9416L35.458 20.9786V21.2006H35.496V21.2766C35.521 21.2766 35.533 21.2886 35.533 21.3136V21.3506C35.533 21.3746 35.545 21.3866 35.571 21.3866C35.595 21.3866 35.608 21.3986 35.608 21.4246V21.6106C35.559 21.6106 35.522 21.6106 35.497 21.6106C35.472 21.6106 35.435 21.6106 35.386 21.6106C35.361 21.6106 35.324 21.6106 35.275 21.6106L35.237 21.5726V21.5356H35.126V21.4986H35.088L35.014 21.4246V21.3506L34.976 21.3136V21.2396H34.94V21.2006C34.917 21.2006 34.903 21.1886 34.903 21.1636V21.0896L34.866 21.0526V20.9036H34.828V20.6426L34.791 20.6056V20.4936H34.754V20.4566C34.754 20.4326 34.754 20.4076 34.754 20.3816V20.3446C34.754 20.3196 34.754 20.2946 34.754 20.2696V20.0466C34.754 20.0226 34.754 19.9976 34.754 19.9726V19.9356C34.754 19.9096 34.754 19.8846 34.754 19.8596V19.7856C34.754 19.7606 34.754 19.7356 34.754 19.7116V19.6356C34.754 19.6116 34.754 19.5876 34.754 19.5626V19.5256C34.754 19.5006 34.754 19.4756 34.754 19.4506V19.3766L34.791 19.3386V19.0786C34.692 19.0786 34.593 19.0786 34.493 19.0786V19.1156C34.42 19.1156 34.321 19.1156 34.197 19.1156H34.16V19.1526H34.122V19.1546ZM22.892 11.9416C22.892 11.9156 22.906 11.9026 22.931 11.9026V11.8666H22.892V11.9416ZM4.26202 17.2946C4.26202 17.3466 4.26202 17.4196 4.26202 17.5186C4.26202 17.5926 4.26202 17.6546 4.26202 17.7046C4.26202 17.7796 4.26202 17.8536 4.26202 17.9276C4.26202 18.0016 4.26202 18.0766 4.26202 18.1516C4.26202 18.2266 4.26202 18.2996 4.26202 18.3746C4.26202 18.4496 4.26202 18.5246 4.26202 18.5976C4.26202 18.6726 4.26202 18.7356 4.26202 18.7846C4.26202 18.8826 4.26202 18.9706 4.26202 19.0446C4.26202 19.0946 4.26202 19.1566 4.26202 19.2316C4.26202 19.3056 4.26202 19.3796 4.26202 19.4546C4.26202 19.5296 4.26202 19.6046 4.26202 19.6786C4.26202 19.7526 4.26202 19.8256 4.26202 19.9006C4.26202 19.9766 4.26202 20.0496 4.26202 20.1246C4.26202 20.1486 4.26202 20.1866 4.26202 20.2356C4.95902 20.2356 5.66502 20.2356 6.38102 20.2356C6.38102 20.2106 6.38102 20.1866 6.38102 20.1616V20.1236C6.38102 20.0986 6.38102 20.0736 6.38102 20.0486V20.0116C6.45702 20.0116 6.53002 20.0116 6.60502 20.0116V19.9736H6.56802V19.2666C6.56802 19.2416 6.58002 19.2296 6.60602 19.2296C6.60602 19.1546 6.60602 19.0806 6.60602 19.0056C6.60602 18.9316 6.60602 18.8566 6.60602 18.7826V18.6336C6.60602 18.6096 6.60602 18.5846 6.60602 18.5586C6.60602 18.4846 6.60602 18.4226 6.60602 18.3726C6.60602 18.2986 6.60602 18.2116 6.60602 18.1116C6.60602 18.0626 6.60602 18.0006 6.60602 17.9256C6.60602 17.8516 6.60602 17.7776 6.60602 17.7026C6.60602 17.6276 6.60602 17.5536 6.60602 17.4796C6.60602 17.4056 6.60602 17.3446 6.60602 17.2926C6.60602 17.2436 6.60602 17.1946 6.60602 17.1456C6.30702 17.1456 5.99802 17.1456 5.67602 17.1456C5.62702 17.1456 5.55202 17.1456 5.45302 17.1456C5.05602 17.1456 4.66002 17.1456 4.26302 17.1456C4.26202 17.1966 4.26202 17.2456 4.26202 17.2946ZM15.455 19.9736C15.479 19.9736 15.504 19.9736 15.529 19.9736C15.529 19.9496 15.517 19.9366 15.491 19.9366L15.455 19.9736Z" fill="#9FB1C9"/>
</svg>
