<svg width="90" height="33" viewBox="0 0 90 33" fill="none" xmlns="http://www.w3.org/2000/svg">
<g clip-path="url(#clip0_28409_24682)">
<path fill-rule="evenodd" clip-rule="evenodd" d="M26.829 2.24359H26.873C26.873 2.21359 26.888 2.19859 26.919 2.19859V2.15459C26.948 2.15459 26.979 2.15459 27.008 2.15459V2.06559H27.053L27.097 2.02059V1.84159L27.143 1.79659V1.21359C27.143 1.18359 27.143 1.15259 27.143 1.12359V0.943594C27.321 0.943594 27.472 0.943594 27.592 0.943594C27.592 0.913594 27.592 0.869594 27.592 0.808594C27.801 0.808594 28.01 0.808594 28.219 0.808594V0.853594C28.219 0.913594 28.219 0.988594 28.219 1.07759C28.219 1.13759 28.219 1.19859 28.219 1.25759C28.219 1.34759 28.219 1.42259 28.219 1.48159C28.219 1.54159 28.219 1.60159 28.219 1.66159C28.219 1.75059 28.219 1.82559 28.219 1.88659C28.219 1.94659 28.219 2.00559 28.219 2.06559C28.219 2.15459 28.219 2.22959 28.219 2.28959C28.219 2.34859 28.219 2.42359 28.219 2.51459C28.219 2.57359 28.219 2.61859 28.219 2.64859C28.369 2.64859 28.519 2.64859 28.667 2.64859C28.877 2.64859 29.086 2.64859 29.296 2.64859V2.33459C29.505 2.33459 29.715 2.33459 29.923 2.33459V2.51459L29.968 2.55959V2.69359C30.088 2.66359 30.193 2.66359 30.283 2.69359V2.64759C30.283 2.61859 30.283 2.58759 30.283 2.55859C30.283 2.52859 30.283 2.49859 30.283 2.46859C30.283 2.43859 30.283 2.40859 30.283 2.37859C30.283 2.34859 30.283 2.31959 30.283 2.28959C30.283 2.25959 30.283 2.22959 30.283 2.19959C30.283 2.17059 30.283 2.13959 30.283 2.11059V2.02059H30.372V1.97459C30.641 1.97459 30.926 1.97459 31.225 1.97459V1.92959C31.434 1.92959 31.644 1.92959 31.853 1.92959C31.853 1.98959 31.853 2.03459 31.853 2.06459V2.28859C31.853 2.31859 31.853 2.34759 31.853 2.37759V2.46759C31.853 2.49759 31.853 2.52759 31.853 2.55759C31.853 2.58659 31.853 2.61759 31.853 2.64659V2.69159C33.378 2.69159 34.918 2.69159 36.473 2.69159V2.24359H36.517C37.535 2.24359 38.536 2.24359 39.523 2.24359V2.15359C39.523 2.12359 39.523 2.09459 39.523 2.06459V2.01959C39.523 1.98959 39.523 1.95959 39.523 1.92959C39.523 1.89959 39.523 1.87059 39.523 1.84059V1.75059C39.523 1.72159 39.523 1.69059 39.523 1.66159V1.61659C39.732 1.61659 39.942 1.61659 40.151 1.61659V2.11059C40.151 2.13959 40.167 2.15459 40.196 2.15459V2.33459C40.345 2.33459 40.495 2.33459 40.644 2.33459V3.14159C40.615 3.14159 40.584 3.15659 40.554 3.18659V3.27559H40.51V3.45559C40.48 3.45559 40.465 3.46959 40.465 3.49959V3.54459C40.435 3.54459 40.42 3.55959 40.42 3.58959V3.67959H40.376V3.72359L40.33 3.76859V3.85859L40.286 3.90359V3.94759L40.24 3.99359V4.08359H40.195V4.12859L40.15 4.17259L40.105 4.26159C40.105 4.29359 40.091 4.30759 40.061 4.30759C40.061 4.33659 40.046 4.35259 40.016 4.35259V4.48759L39.971 4.53259V4.57759H39.926V4.71059H39.881V4.80159H39.837V4.89059C39.807 4.89059 39.792 4.90559 39.792 4.93459V4.97959H39.747V5.02559L39.702 5.06959V5.20459H39.657V5.25059C39.657 5.27959 39.643 5.29459 39.613 5.29459V5.42859C39.583 5.42859 39.568 5.44459 39.568 5.47459V5.51859H39.523V5.60759H39.479V5.69859H39.433V5.74259C39.404 5.74259 39.389 5.75759 39.389 5.78759V5.92159H39.343V5.96659H39.298V6.05559L39.253 6.10059H39.208V6.23559H39.163V6.32459H39.118V6.50459H39.073C39.073 6.53459 39.058 6.54959 39.029 6.54959V6.59459L38.983 6.63959L38.939 6.72859C38.909 6.72859 38.894 6.74359 38.894 6.77359V6.81859C38.864 6.81859 38.849 6.83359 38.849 6.86359V6.90859H38.805V7.04359C39.299 7.04359 39.807 7.04359 40.329 7.04359V7.44759C41.436 7.44759 42.542 7.44759 43.649 7.44759C44.577 7.44759 45.503 7.44759 46.43 7.44759V7.85159C55.191 7.85159 63.952 7.85159 72.714 7.85159V8.07559C72.833 8.07559 72.953 8.07559 73.072 8.07559V7.80659C73.163 7.80659 73.266 7.80659 73.387 7.80659C73.387 7.74559 73.387 7.68559 73.387 7.62559C73.387 7.53559 73.387 7.44659 73.387 7.35759C73.387 7.26759 73.387 7.17759 73.387 7.08759C73.387 6.99759 73.387 6.90859 73.387 6.81759C73.387 6.75759 73.387 6.68359 73.387 6.59359C73.387 6.47259 73.387 6.38459 73.387 6.32359C73.387 6.23459 73.387 6.14459 73.387 6.05459C73.387 5.96559 73.387 5.87559 73.387 5.78559C73.387 5.69559 73.387 5.60559 73.387 5.51559C73.387 5.42559 73.387 5.33659 73.387 5.24759C73.387 5.15659 73.387 5.06659 73.387 4.97659C73.387 4.91759 73.387 4.84259 73.387 4.75359C73.387 4.63259 73.387 4.54459 73.387 4.48459C73.387 4.39359 73.387 4.30459 73.387 4.21459C73.387 4.12559 73.387 4.03559 73.387 3.94559C73.387 3.85659 73.387 3.76659 73.387 3.67659C73.387 3.61659 73.387 3.52659 73.387 3.40759C73.387 3.31759 73.387 3.24159 73.387 3.18359C73.387 3.12259 73.387 3.07859 73.387 3.04759C73.476 3.04759 73.566 3.04759 73.656 3.04759C73.775 3.04759 73.896 3.04759 74.015 3.04759C74.104 3.04759 74.194 3.04759 74.284 3.04759H74.329V3.09259C74.389 3.09259 74.433 3.09259 74.464 3.09259L74.508 3.13759V3.45159C74.598 3.45159 74.688 3.45159 74.777 3.45159H74.822C74.853 3.48059 74.882 3.49559 74.912 3.49559V3.99359C74.912 4.08359 74.912 4.17259 74.912 4.26159V4.30759C74.912 4.36659 74.912 4.42659 74.912 4.48759C75.001 4.48759 75.106 4.48759 75.225 4.48759V4.84559H75.315V4.89059C75.315 4.95159 75.315 5.03959 75.315 5.15959C75.315 5.25059 75.315 5.32459 75.315 5.38359C75.315 5.47459 75.315 5.57759 75.315 5.69859C75.315 5.78759 75.315 5.86259 75.315 5.92259C75.315 6.01259 75.315 6.10159 75.315 6.19159C75.315 6.28059 75.315 6.37059 75.315 6.46159C75.315 6.55059 75.315 6.64059 75.315 6.72959C75.315 6.81959 75.315 6.90959 75.315 6.99859C75.315 7.08859 75.315 7.16359 75.315 7.22359C75.315 7.31259 75.315 7.38759 75.315 7.44759C75.435 7.44759 75.555 7.44759 75.673 7.44759C75.793 7.47759 75.898 7.49259 75.988 7.49259H76.033C76.063 7.49259 76.092 7.49259 76.122 7.49259V7.53659C76.122 7.59659 76.122 7.65759 76.122 7.71659C76.122 7.77659 76.122 7.82059 76.122 7.85159C76.122 7.91159 76.122 7.97159 76.122 8.03159C76.122 8.12059 76.122 8.19559 76.122 8.25559C76.122 8.31459 76.122 8.35959 76.122 8.38959V8.48059C76.212 8.48059 76.288 8.48059 76.346 8.48059V8.56959C76.945 8.56959 77.557 8.56959 78.186 8.56959V8.74859C78.216 8.74859 78.246 8.74859 78.275 8.74859V9.37659C78.006 9.37659 77.707 9.37659 77.379 9.37659V9.64559L77.289 9.69059V9.73559C77.588 9.73559 77.887 9.73559 78.186 9.73559V10.3626C77.498 10.3626 76.811 10.3626 76.122 10.3626V10.4976C79.023 10.4976 81.908 10.4976 84.779 10.4976V10.1836C86.244 10.1836 87.709 10.1836 89.174 10.1836C89.204 10.1836 89.234 10.1836 89.265 10.1836V10.9906C89.265 11.0496 89.265 11.0946 89.265 11.1246C89.265 11.1546 89.265 11.1846 89.265 11.2146V11.7076C89.265 11.7376 89.265 11.7666 89.265 11.7976C89.265 11.8276 89.265 11.8726 89.265 11.9326V11.9776C89.265 12.0066 89.265 12.0386 89.265 12.0666C89.265 12.0966 89.265 12.1266 89.265 12.1566V12.2906C89.294 12.2906 89.324 12.2906 89.354 12.2906V12.9186C89.234 12.9186 89.13 12.9186 89.041 12.9186C88.92 12.9186 88.801 12.9186 88.681 12.9186C87.096 12.9186 85.527 12.9186 83.972 12.9186V12.9636C83.764 12.9636 83.554 12.9636 83.345 12.9636C83.345 12.9336 83.33 12.9186 83.3 12.9186H83.253V12.5156C80.682 12.5156 78.11 12.5156 75.539 12.5156V12.9636C75.478 12.9636 75.434 12.9636 75.404 12.9636V13.2326C75.284 13.2326 75.165 13.2326 75.045 13.2326V13.2786C75.015 13.2786 74.985 13.2926 74.955 13.3236C74.955 13.3526 74.955 13.3826 74.955 13.4126C74.955 13.4426 74.955 13.4866 74.955 13.5476C74.955 13.5766 74.955 13.6066 74.955 13.6366C74.955 13.6966 74.955 13.7406 74.955 13.7726C74.955 13.7996 74.955 13.8316 74.955 13.8616C74.955 13.9216 74.955 13.9656 74.955 13.9966C74.955 14.0246 74.955 14.0556 74.955 14.0856C74.955 14.1456 74.955 14.1896 74.955 14.2206C74.955 14.2486 74.955 14.2796 74.955 14.3096C74.955 14.3396 74.955 14.3836 74.955 14.4446C74.955 14.4736 74.955 14.5196 74.955 14.5786C74.955 14.6086 74.955 14.6386 74.955 14.6686C74.955 14.6976 74.955 14.7286 74.955 14.7586C74.955 14.8176 74.955 14.8626 74.955 14.8926C74.955 14.9526 74.955 14.9966 74.955 15.0266C74.955 15.0566 74.955 15.1016 74.955 15.1626V15.2516C74.955 15.2816 74.955 15.3266 74.955 15.3856C74.955 15.4166 74.955 15.4456 74.955 15.4756C74.746 15.4756 74.537 15.4756 74.327 15.4756V15.4316H74.238C74.059 15.4016 73.864 15.3856 73.655 15.3856H73.476L73.387 15.3416V14.6236C73.417 14.6236 73.447 14.6086 73.476 14.5786C73.476 14.5486 73.476 14.5046 73.476 14.4446C73.476 14.4136 73.476 14.3836 73.476 14.3536C73.476 14.2946 73.476 14.2496 73.476 14.2206C73.476 14.1896 73.476 14.1456 73.476 14.0856C73.476 14.0556 73.476 14.0246 73.476 13.9966C73.476 13.9656 73.476 13.9216 73.476 13.8616C73.476 13.8316 73.476 13.7996 73.476 13.7726C73.476 13.7106 73.476 13.6676 73.476 13.6366C73.476 13.6066 73.476 13.5766 73.476 13.5476C73.476 13.4856 73.476 13.4426 73.476 13.4126C73.476 13.3526 73.476 13.3076 73.476 13.2786C73.387 13.2786 73.296 13.2786 73.207 13.2786C73.177 13.2486 73.133 13.2326 73.072 13.2326V12.9636C72.953 12.9636 72.833 12.9636 72.714 12.9636H72.67C72.67 12.9936 72.653 13.0076 72.624 13.0076V13.2326C72.624 13.2626 72.624 13.2926 72.624 13.3236V13.3676C72.624 13.3976 72.624 13.4266 72.624 13.4566V13.5476C72.624 13.5766 72.624 13.6066 72.624 13.6366V13.6806C72.624 13.7106 72.624 13.7406 72.624 13.7726V13.8616C72.624 13.8916 72.624 13.9216 72.624 13.9506V14.0856C72.624 14.1156 72.624 14.1456 72.624 14.1746V14.2646C72.624 14.2946 72.624 14.3236 72.624 14.3536V14.3986H72.58V14.5336C72.371 14.5336 72.177 14.5336 71.997 14.5336V14.5776H71.952V14.6676H71.907V14.7576L71.818 14.8466V14.8916C71.788 14.8916 71.774 14.9066 71.774 14.9366V14.9816C71.774 15.0116 71.774 15.0406 71.774 15.0706V15.1606C71.774 15.1906 71.774 15.2356 71.774 15.2946C71.774 15.3246 71.774 15.3556 71.774 15.3836C71.774 15.4436 71.774 15.4886 71.774 15.5186C71.774 15.5496 71.774 15.5796 71.774 15.6076V15.7426C71.624 15.7426 71.46 15.7426 71.28 15.7426L71.233 15.7906H71.188V15.8806H71.144V16.1046C70.874 16.1046 70.62 16.1046 70.381 16.1046L70.336 16.0586C64.176 16.0296 58.002 16.0146 51.812 16.0146V16.1936C51.572 16.1936 51.333 16.1936 51.094 16.1936V16.1046H51.049V16.0146C51.02 16.0146 51.005 15.9996 51.005 15.9696L50.96 15.9246V15.8806H50.916V15.7906C50.916 15.7606 50.9 15.7456 50.871 15.7456C48.658 15.7156 46.446 15.7006 44.233 15.7006H44.189L44.144 15.7456C44.113 15.7456 44.099 15.7606 44.099 15.7906C44.068 15.7906 44.039 15.7906 44.009 15.7906L43.965 15.8346C43.935 15.8346 43.905 15.8506 43.875 15.8806C43.845 15.8806 43.815 15.8806 43.785 15.8806C43.785 15.9096 43.77 15.9246 43.741 15.9246L43.696 15.9696H43.652C43.622 15.9996 43.592 16.0146 43.562 16.0146C43.562 16.0436 43.547 16.0586 43.518 16.0586L43.473 16.1046C43.443 16.1046 43.413 16.1046 43.384 16.1046V16.1486C43.354 16.1486 43.324 16.1636 43.295 16.1936C43.264 16.1936 43.234 16.2096 43.204 16.2386L43.159 16.2826C43.129 16.2826 43.099 16.2986 43.07 16.3286L43.024 16.3726H42.98C42.95 16.4026 42.92 16.4176 42.89 16.4176C42.89 16.4476 42.875 16.4626 42.846 16.4626L42.8 16.5066H42.756C42.756 16.5376 42.741 16.5526 42.711 16.5526L42.666 16.5966H42.622C42.591 16.5966 42.576 16.6116 42.576 16.6416L42.532 16.6866H42.487C42.457 16.6866 42.442 16.7016 42.442 16.7306L42.398 16.7766V16.8206C42.398 16.8816 42.398 16.9406 42.398 17.0006C42.398 17.0596 42.398 17.1206 42.398 17.1796C42.398 17.2396 42.398 17.2846 42.398 17.3146C42.398 17.3746 42.398 17.4346 42.398 17.4936C42.398 17.5836 42.398 17.6596 42.398 17.7186C42.398 17.7486 42.398 17.7936 42.398 17.8526C42.398 17.9126 42.398 17.9726 42.398 18.0326V18.1226C42.517 18.1226 42.637 18.1226 42.756 18.1226V18.7496C42.547 18.7496 42.322 18.7656 42.084 18.7956H42.039V20.0506H42.084V20.4556H42.128V20.8586L42.174 20.9036V21.2166C42.174 21.2466 42.189 21.2616 42.218 21.2616V21.5756H42.263V22.0686L42.308 22.1136C42.308 22.1436 42.323 22.1576 42.352 22.1576V22.6066C42.352 22.6376 42.367 22.6516 42.398 22.6516V22.6966L42.442 22.7416V22.9656L42.487 23.0106V23.1446L42.532 23.1896V23.2346L42.576 23.2786V23.5026L42.622 23.5476C42.622 23.5776 42.636 23.5926 42.666 23.5926V23.8176H42.711V23.8626C42.711 23.8916 42.726 23.9066 42.756 23.9066V24.0416L42.8 24.0866V24.1306L42.846 24.1756V24.2206H42.89V24.5346L42.98 24.5786V24.7586C42.98 24.7876 42.995 24.8026 43.024 24.8026V24.9376H43.07V25.0266L43.114 25.1166V25.1616H43.159V25.3406H43.204V25.4306L43.295 25.5196V25.6986C43.295 25.7296 43.309 25.7436 43.339 25.7436C43.339 25.7736 43.354 25.7886 43.384 25.7886V25.9226L43.429 25.9676V26.0576H43.473V26.2816H43.518V26.3716L43.562 26.4616V26.5516L43.607 26.5956V26.6856C43.607 26.7156 43.622 26.7306 43.652 26.7306V26.7756H43.696V26.9096C43.726 26.9096 43.741 26.9246 43.741 26.9546L43.785 26.9996V27.1336C43.785 27.1636 43.8 27.1786 43.83 27.1786V27.2676C43.83 27.2976 43.845 27.3126 43.875 27.3126L43.92 27.4026V27.4916C43.95 27.4916 43.965 27.5066 43.965 27.5366V27.5816L44.009 27.6266V27.7156C44.009 27.7456 44.024 27.7606 44.054 27.7606V27.8056H44.099V27.9846L44.144 28.0296V28.1186C44.144 28.1496 44.159 28.1636 44.189 28.1636V28.2086C44.189 28.2376 44.204 28.2536 44.233 28.2536V28.2986H44.278V28.4776L44.367 28.5226V28.5666L44.412 28.6116V28.7466C44.442 28.7466 44.456 28.7606 44.456 28.7906V28.8356C44.486 28.8356 44.501 28.8506 44.501 28.8806V28.9256H44.546C44.546 28.9556 44.561 28.9706 44.591 28.9706V29.0146C44.621 29.0146 44.651 29.0296 44.681 29.0596L44.726 29.1046V29.7326H44.681V29.8216C44.621 29.8216 44.546 29.8216 44.456 29.8216V29.9116C44.366 29.9116 44.277 29.9266 44.187 29.9566H44.142C44.111 29.9866 44.082 30.0016 44.052 30.0016C44.022 30.0016 43.977 30.0166 43.917 30.0456H43.873C43.843 30.0456 43.813 30.0606 43.783 30.0906L43.739 30.1356C43.709 30.1356 43.664 30.1356 43.604 30.1356C43.574 30.1356 43.53 30.1506 43.469 30.1806C43.439 30.1806 43.409 30.1956 43.38 30.2256H43.335L43.245 30.3146C43.216 30.3146 43.186 30.3146 43.156 30.3146H43.111C43.082 30.3146 43.036 30.3296 42.977 30.3596V30.4046C42.947 30.4046 42.917 30.4196 42.887 30.4496H42.797L42.753 30.4936H42.708C42.678 30.4936 42.648 30.5086 42.619 30.5386H42.573C42.544 30.5386 42.514 30.5536 42.484 30.5836C42.454 30.5836 42.425 30.5986 42.395 30.6286H42.349C42.32 30.6286 42.289 30.6286 42.26 30.6286C42.231 30.6286 42.2 30.6436 42.171 30.6736L42.125 30.7176C42.095 30.7176 42.065 30.7176 42.036 30.7176C41.976 30.7476 41.931 30.7626 41.901 30.7626C41.872 30.7626 41.827 30.7786 41.767 30.8076C41.738 30.8076 41.692 30.8226 41.633 30.8526H41.588C41.559 30.8526 41.528 30.8676 41.499 30.8976H41.453C41.423 30.9266 41.393 30.9416 41.364 30.9416H41.319C41.259 30.9416 41.229 30.9566 41.229 30.9866C41.2 30.9866 41.17 31.0016 41.14 31.0316H41.051C41.02 31.0606 40.991 31.0766 40.961 31.0766C40.931 31.0766 40.886 31.0916 40.827 31.1216C40.796 31.1216 40.767 31.1216 40.737 31.1216C40.707 31.1216 40.692 31.1356 40.692 31.1656C40.662 31.1656 40.632 31.1806 40.602 31.2106H40.553L40.509 31.2556C40.449 31.2556 40.405 31.2556 40.375 31.2556C40.285 31.2556 40.195 31.2706 40.105 31.3006V31.3456C40.075 31.3456 40.046 31.3456 40.016 31.3456V31.3896C39.955 31.4196 39.896 31.4346 39.836 31.4346C39.806 31.4346 39.761 31.4346 39.701 31.4346V31.4796C39.671 31.4796 39.641 31.4946 39.612 31.5246L39.522 31.5696C39.461 31.5696 39.418 31.5696 39.388 31.5696C39.358 31.5696 39.328 31.5836 39.298 31.6136V31.6586C39.268 31.6586 39.238 31.6586 39.208 31.6586C39.179 31.6886 39.149 31.7036 39.119 31.7036C39.059 31.7036 39.014 31.7186 38.984 31.7486C38.895 31.7486 38.806 31.7486 38.716 31.7486V31.7936C38.656 31.7936 38.611 31.8076 38.581 31.8376H38.536C38.507 31.8376 38.477 31.8376 38.447 31.8376C38.208 31.8376 37.953 31.8376 37.685 31.8376V31.5336H37.64C37.64 31.5036 37.625 31.4886 37.596 31.4886V31.3096C37.566 31.3096 37.551 31.2936 37.551 31.2646L37.506 31.2196V31.0406C37.476 31.0406 37.462 31.0256 37.462 30.9956V30.8166H37.417V30.6376H37.373V30.3236H37.282V30.0536H37.238V29.9196H37.193V29.8296L37.149 29.7856V29.7406C37.119 29.7406 37.104 29.7256 37.104 29.6956V29.6056H37.058V29.4266L36.969 29.3366V29.1126H36.925V29.0226C36.925 28.9916 36.909 28.9786 36.88 28.9786V28.8886C36.85 28.8886 36.834 28.8736 36.834 28.8436V28.7546C36.805 28.7546 36.79 28.7396 36.79 28.7096V28.6196L36.745 28.5746V28.3066C36.715 28.3066 36.685 28.3066 36.656 28.3066V27.9926L36.61 27.9476V27.8586L36.566 27.8136V27.6346C36.566 27.6036 36.551 27.5896 36.521 27.5896V27.4996H36.477V27.2296L36.432 27.1856V27.0956H36.386C36.386 27.0656 36.371 27.0506 36.342 27.0506V26.8706H36.297V26.7366L36.253 26.6916V26.5126L36.208 26.4676V26.4226C36.177 26.4226 36.163 26.4086 36.163 26.3776V26.1976C36.163 26.1676 36.147 26.1526 36.118 26.1526V26.0636L36.073 26.0186V25.9286C36.043 25.9286 36.029 25.9136 36.029 25.8846V25.7946L35.984 25.7496V25.6146L35.939 25.5696V25.4796L35.889 25.4336V25.3436H35.843V25.1646L35.799 25.1196V24.9856L35.754 24.9406V24.8506H35.709V24.7616L35.664 24.7166V24.5816L35.619 24.5376V24.4476C35.619 24.4176 35.605 24.4026 35.575 24.4026V24.2226H35.53V23.9086C35.53 23.8796 35.515 23.8646 35.485 23.8646V23.7296L35.44 23.6856V23.5956C35.41 23.5956 35.395 23.5806 35.395 23.5506V23.4166H35.351V23.0576C35.321 23.0576 35.305 23.0436 35.305 23.0136H35.261V22.7436C35.232 22.7436 35.217 22.7286 35.217 22.6986V22.3406L35.171 22.2956V22.0716L35.127 22.0266V21.8036H35.082V21.6226L35.037 21.5786V21.1746C35.037 21.1446 35.021 21.1306 34.993 21.1306V21.0836H34.948V20.6796H34.904V20.3656H34.859V20.2316C34.859 20.2016 34.845 20.1866 34.815 20.1866V19.9626C34.785 19.9626 34.771 19.9466 34.771 19.9176V19.7836C34.74 19.7836 34.726 19.7686 34.726 19.7386C32.483 19.7386 30.241 19.7386 27.997 19.7386C27.908 19.7386 27.819 19.7386 27.729 19.7386V19.9626L27.684 20.0076V20.0516C27.654 20.0516 27.624 20.0516 27.595 20.0516V20.1416L27.549 20.1866V20.2756L27.505 20.3206C27.505 20.3506 27.49 20.3656 27.46 20.3656C27.46 20.3956 27.445 20.4106 27.416 20.4106V20.6346C27.386 20.6346 27.371 20.6496 27.371 20.6796H27.281V20.8136L27.236 20.8586V20.9036L27.147 20.9926V21.0836C27.117 21.0836 27.101 21.0986 27.101 21.1286V21.2626H27.053V21.3066L27.008 21.3526V21.3966L26.964 21.4416V21.4866C26.935 21.4866 26.919 21.5026 26.919 21.5306V21.5766H26.873V21.6206C26.873 21.6506 26.859 21.6656 26.829 21.6656L26.784 21.7106V21.8446L26.695 21.9336V21.9786H26.648V22.0686C26.62 22.0686 26.604 22.0836 26.604 22.1136V22.1576L26.47 22.2476V22.3376L26.38 22.3816V22.5166H26.335V22.5616H26.291V22.6056C26.291 22.6366 26.275 22.6506 26.247 22.6506C26.247 22.6806 26.231 22.6956 26.201 22.6956V22.7856L26.157 22.8296V22.8746L26.112 22.9196C26.082 22.9196 26.068 22.9346 26.068 22.9646V23.0096H26.024L25.978 23.0536V23.1436C25.978 23.1736 25.963 23.1886 25.933 23.1886C25.933 23.2176 25.918 23.2336 25.888 23.2336L25.844 23.3226V23.3676C25.815 23.3676 25.8 23.3826 25.8 23.4126V23.4576L25.755 23.5016H25.71V23.5466L25.665 23.5916V23.7266C25.635 23.7266 25.605 23.7266 25.576 23.7266V23.8166C25.545 23.8166 25.531 23.8316 25.531 23.8616V23.9056L25.486 23.9506V24.0406H25.441V24.0856L25.397 24.1296H25.353V24.3096C25.322 24.3096 25.307 24.3246 25.307 24.3536C25.278 24.3536 25.262 24.3696 25.262 24.3986V24.4886L25.217 24.5336V24.5776C25.217 24.6086 25.203 24.6226 25.173 24.6226V24.7126L25.128 24.7576V24.8466C25.098 24.8466 25.083 24.8616 25.083 24.8916V25.0256C25.083 25.0566 25.068 25.0706 25.039 25.0706V25.2496C25.009 25.2496 24.979 25.2646 24.949 25.2946V25.6086L24.905 25.6536V25.7426H24.86V26.3256C24.86 26.3546 24.845 26.3696 24.816 26.3696V26.4146C24.576 26.4146 24.352 26.4146 24.143 26.4146V26.3696C24.143 26.3406 24.127 26.3256 24.098 26.3256L24.053 26.2806C24.024 26.2806 23.993 26.2806 23.963 26.2806C23.934 26.2506 23.903 26.2356 23.873 26.2356V26.1906H23.823V26.1456C23.763 26.1456 23.719 26.1456 23.689 26.1456C23.659 26.1166 23.629 26.1016 23.599 26.1016C23.569 26.0716 23.539 26.0566 23.51 26.0566H23.421V26.0116C23.391 25.9816 23.36 25.9666 23.331 25.9666C23.302 25.9666 23.272 25.9666 23.242 25.9666C23.212 25.9366 23.182 25.9216 23.153 25.9216V25.8776C23.123 25.8776 23.078 25.8776 23.018 25.8776V25.8326C22.988 25.8326 22.958 25.8326 22.929 25.8326C22.929 25.8026 22.913 25.7876 22.884 25.7876C22.854 25.7576 22.824 25.7426 22.795 25.7426H22.703C22.672 25.7116 22.642 25.6976 22.612 25.6976V25.6536C22.553 25.6536 22.508 25.6536 22.478 25.6536C22.448 25.6236 22.403 25.6086 22.344 25.6086L22.255 25.5186C22.224 25.5186 22.179 25.5186 22.12 25.5186L22.075 25.4736H22.03C22 25.4736 21.986 25.4586 21.986 25.4296L21.896 25.3846L21.851 25.3396H21.806C21.776 25.3096 21.746 25.2946 21.717 25.2946C21.688 25.2646 21.642 25.2496 21.582 25.2496C21.552 25.2206 21.522 25.2056 21.493 25.2056L21.448 25.1606H21.358C21.328 25.1606 21.314 25.1456 21.314 25.1156L21.269 25.0706H21.224V25.0256H21.09C21.06 25.0256 21.03 25.0106 21 24.9816L20.91 24.9366C20.88 24.9366 20.866 24.9216 20.866 24.8916C20.806 24.8916 20.762 24.8916 20.731 24.8916L20.686 24.8466C20.656 24.8466 20.627 24.8466 20.597 24.8466V24.8016C20.568 24.8016 20.523 24.8016 20.462 24.8016V24.7576H20.418C20.358 24.7276 20.314 24.7126 20.284 24.7126C20.253 24.6826 20.223 24.6676 20.194 24.6676V24.6226C20.163 24.6226 20.134 24.6226 20.105 24.6226H20.061C20.061 24.5936 20.045 24.5776 20.015 24.5776C19.986 24.5486 19.956 24.5336 19.926 24.5336C19.897 24.5336 19.852 24.5336 19.791 24.5336V24.4886C19.762 24.4886 19.731 24.4736 19.702 24.4436H19.658C19.597 24.4136 19.538 24.3986 19.478 24.3986C19.478 24.3696 19.463 24.3536 19.434 24.3536C19.404 24.3536 19.373 24.3386 19.343 24.3096V24.2646C19.314 24.2646 19.284 24.2646 19.254 24.2646C19.225 24.2346 19.195 24.2196 19.165 24.2196H19.075V24.1746H19.03L18.986 24.1296V24.0856C18.955 24.0856 18.91 24.0856 18.851 24.0856V23.9506H18.806V23.2336H18.851V23.0986C18.851 23.0676 18.866 23.0536 18.896 23.0536V22.9196H18.941V22.7406C18.971 22.7406 18.985 22.7256 18.985 22.6956H19.029C19.059 22.6956 19.074 22.6806 19.074 22.6506V22.5616L19.119 22.5166V22.4716L19.164 22.4266C19.164 22.3956 19.179 22.3816 19.208 22.3816V22.3376L19.252 22.2926V22.2026H19.297V22.1576H19.341V22.1136L19.387 22.0686V21.9786H19.432V21.9336L19.476 21.8896V21.8446L19.611 21.7106V21.6656H19.655V21.5766L19.744 21.4866H19.788C19.788 21.4566 19.803 21.4416 19.834 21.4416V21.3966L19.923 21.3066C19.953 21.3066 19.968 21.2926 19.968 21.2626V21.2176C19.968 21.1876 19.983 21.1726 20.012 21.1726C20.042 21.1726 20.058 21.1586 20.058 21.1286C20.087 21.1286 20.102 21.1126 20.102 21.0836L20.191 21.0386V20.9936L20.235 20.9486C20.235 20.9186 20.25 20.9046 20.281 20.9046V20.8596C20.281 20.8296 20.296 20.8146 20.325 20.8146V20.7696H20.369V20.7236C20.399 20.7236 20.429 20.7096 20.458 20.6796V20.6346C20.489 20.6346 20.504 20.6196 20.504 20.5896H20.548L20.592 20.4996C20.592 20.4696 20.607 20.4556 20.637 20.4556L20.681 20.4106C20.681 20.3796 20.696 20.3656 20.726 20.3656V20.3206C20.757 20.3206 20.772 20.3056 20.772 20.2756L20.816 20.2316C20.846 20.2316 20.861 20.2166 20.861 20.1866C20.89 20.1866 20.905 20.1716 20.905 20.1416V20.0966C20.935 20.0666 20.966 20.0516 20.995 20.0516V20.0076C20.995 19.9776 21.011 19.9626 21.04 19.9626L21.085 19.9176V19.8726H21.129V19.7836C21.16 19.7836 21.174 19.7686 21.174 19.7386H21.219V19.6936L21.264 19.6486H21.309C21.309 19.6186 21.324 19.6036 21.353 19.6036V19.5596L21.488 19.4246V19.3796C21.517 19.3796 21.533 19.3656 21.533 19.3356L21.577 19.2906C21.607 19.2906 21.622 19.2746 21.622 19.2456H21.667L21.757 19.1556C21.786 19.1556 21.801 19.1416 21.801 19.1116V19.0666L21.846 19.0216C21.877 19.0216 21.891 19.0066 21.891 18.9766V18.9316H21.935V18.8876H21.98V18.8426L22.024 18.7986C22.024 18.7686 22.039 18.7526 22.069 18.7526L22.114 18.7076V18.6636C22.144 18.6636 22.158 18.6486 22.158 18.6186C22.188 18.6186 22.203 18.6036 22.203 18.5746V18.4846L22.248 18.4396H22.292V18.3506H22.337V18.2606L22.381 18.2156C22.411 18.2156 22.426 18.2006 22.426 18.1706V18.0806L22.47 18.0366C22.501 18.0366 22.515 18.0216 22.515 17.9916V17.8126C22.546 17.7826 22.576 17.7676 22.604 17.7676V17.5426C22.634 17.5426 22.649 17.5276 22.649 17.4976V17.0946H22.604V16.8696C22.575 16.8396 22.545 16.8246 22.515 16.8246V16.6906H22.47V16.6456L22.433 16.5966V16.5526H22.388L22.209 16.3726C22.209 16.3426 22.193 16.3286 22.164 16.3286L22.12 16.2826V16.2386H22.075C22.045 16.2086 22.014 16.1936 21.985 16.1936H21.94C21.911 16.1636 21.881 16.1486 21.851 16.1486C21.851 16.1186 21.837 16.1046 21.806 16.1046H21.762C21.732 16.0746 21.688 16.0586 21.627 16.0586C21.596 16.0296 21.567 16.0146 21.538 16.0146C21.448 15.9846 21.358 15.9696 21.268 15.9696H21.223V15.9246C21.194 15.9246 21.164 15.9246 21.133 15.9246C21.073 15.8946 21.029 15.8806 20.999 15.8806C20.97 15.8806 20.939 15.8806 20.909 15.8806C20.879 15.8506 20.849 15.8346 20.82 15.8346V15.7906H20.776C20.715 15.7906 20.671 15.7906 20.641 15.7906C20.581 15.7606 20.522 15.7456 20.461 15.7456C20.401 15.7156 20.357 15.7006 20.327 15.7006C20.207 15.7006 20.088 15.7006 19.968 15.7006V15.5216C19.908 15.5216 19.834 15.5216 19.744 15.5216V15.4766C19.744 15.4466 19.744 15.4176 19.744 15.3866C19.744 15.3576 19.744 15.3276 19.744 15.2976C19.744 15.2386 19.744 15.1936 19.744 15.1636C19.744 15.1336 19.744 15.1026 19.744 15.0736C19.744 15.0146 19.744 14.9696 19.744 14.9396C19.744 14.8796 19.744 14.8346 19.744 14.8046C19.744 14.7746 19.744 14.7456 19.744 14.7156V14.6706C19.744 14.6096 19.744 14.5666 19.744 14.5366C19.744 14.4756 19.744 14.4316 19.744 14.4016C19.744 14.3726 19.744 14.3266 19.744 14.2676C19.744 14.2376 19.744 14.2076 19.744 14.1776C19.744 14.1486 19.744 14.1026 19.744 14.0436C19.744 14.0136 19.744 13.9826 19.744 13.9536C19.744 13.8946 19.744 13.8496 19.744 13.8196C19.744 13.7896 19.744 13.7586 19.744 13.7296V13.6846C19.594 13.6846 19.431 13.6846 19.25 13.6846V13.7766C19.161 13.7766 19.056 13.7766 18.937 13.7766C18.937 13.8036 18.937 13.8356 18.937 13.8656C18.937 13.9256 18.937 13.9846 18.937 14.0446C18.937 14.0746 18.937 14.1196 18.937 14.1786C18.937 14.2396 18.937 14.2836 18.937 14.3136C18.937 14.3736 18.937 14.4176 18.937 14.4486C18.937 14.5086 18.937 14.5686 18.937 14.6276C18.937 14.6576 18.937 14.7016 18.937 14.7626C18.937 14.8216 18.937 14.8666 18.937 14.8966C18.937 14.9566 18.937 15.0166 18.937 15.0756C18.937 15.1056 18.937 15.1356 18.937 15.1656C18.937 15.2246 18.937 15.2696 18.937 15.2996L18.981 15.3446V15.9716C18.92 15.9716 18.846 15.9716 18.757 15.9716V16.1066C17.799 16.1066 16.813 16.1066 15.796 16.1066V17.0036C15.767 17.0036 15.736 17.0036 15.707 17.0036V17.2726C15.498 17.2726 15.288 17.2726 15.079 17.2726V17.2286H14.99V17.2726C14.93 17.2726 14.856 17.2876 14.766 17.3176C14.646 17.3176 14.526 17.3176 14.407 17.3176C14.227 17.3176 14.033 17.3176 13.824 17.3176V17.3626L13.779 17.4066V17.8116C13.75 17.8116 13.719 17.8116 13.691 17.8116V18.0796L13.646 18.1256V18.2596C13.526 18.2596 13.392 18.2746 13.243 18.3036C12.884 18.3036 12.509 18.3036 12.122 18.3036V18.2146C12.122 18.1846 12.122 18.1546 12.122 18.1256V18.0356C12.122 18.0056 12.122 17.9756 12.122 17.9456V17.9016C12.122 17.8716 12.122 17.8406 12.122 17.8116H12.076C12.047 17.8116 12.032 17.8266 12.032 17.8556C12.002 17.8866 11.972 17.9156 11.942 17.9456L11.898 17.9906C11.867 17.9906 11.852 18.0056 11.852 18.0356C11.792 18.0356 11.733 18.0356 11.674 18.0356C11.642 18.0646 11.628 18.0956 11.628 18.1256C11.568 18.1256 11.539 18.1396 11.539 18.1696C11.479 18.2006 11.435 18.2146 11.404 18.2146C11.375 18.2446 11.36 18.2746 11.36 18.3036C11.33 18.3036 11.315 18.3196 11.315 18.3496C11.256 18.3496 11.195 18.3496 11.136 18.3496C11.106 18.3786 11.076 18.4086 11.047 18.4386C11.017 18.4386 11.003 18.4536 11.003 18.4836C10.972 18.5126 10.942 18.5276 10.913 18.5276C10.913 18.5576 10.913 18.5876 10.913 18.6176C10.853 18.6176 10.824 18.6326 10.824 18.6626C10.763 18.6626 10.719 18.6776 10.689 18.7066C10.659 18.7366 10.629 18.7516 10.6 18.7516C10.6 18.7816 10.6 18.8116 10.6 18.8416C10.539 18.8416 10.495 18.8576 10.465 18.8866L10.421 18.9306C10.361 18.9606 10.332 18.9916 10.332 19.0206C10.301 19.0206 10.286 19.0356 10.286 19.0656C10.227 19.0956 10.197 19.1256 10.197 19.1546C10.137 19.1546 10.092 19.1546 10.061 19.1546C10.032 19.1846 10.017 19.2156 10.017 19.2446L9.973 19.2896C9.913 19.3196 9.868 19.3346 9.838 19.3346C9.809 19.3646 9.794 19.3936 9.794 19.4236L9.705 19.4686C9.675 19.4986 9.66 19.5296 9.66 19.5586C9.629 19.5586 9.615 19.5726 9.615 19.6026C9.556 19.6026 9.511 19.6176 9.481 19.6476V19.6926C9.45 19.7226 9.42 19.7376 9.391 19.7376C9.362 19.7676 9.332 19.7966 9.302 19.8266V19.8716C9.272 19.9016 9.242 19.9316 9.213 19.9616V20.0066L9.078 20.1406C9.078 20.1716 9.078 20.2016 9.078 20.2306C8.66 20.2306 8.241 20.2306 7.822 20.2306C7.822 20.2006 7.822 20.1706 7.822 20.1406V19.2436C7.822 19.2146 7.822 19.1836 7.822 19.1536V18.9286C7.822 18.8996 7.822 18.8696 7.822 18.8396C7.822 18.8096 7.822 18.7796 7.822 18.7496V18.7046C7.822 18.6456 7.822 18.6006 7.822 18.5716C7.793 18.5716 7.762 18.5716 7.733 18.5716L7.688 18.6156C7.628 18.6456 7.569 18.6606 7.509 18.6606C7.509 18.6906 7.509 18.7196 7.509 18.7496V18.7956C7.449 18.8246 7.388 18.8396 7.329 18.8396C7.299 18.8396 7.269 18.8556 7.239 18.8846C7.239 18.9146 7.224 18.9286 7.195 18.9286C7.164 18.9586 7.12 18.9736 7.06 18.9736C7.031 19.0036 7 19.0186 6.971 19.0186V19.1086C6.91 19.1386 6.866 19.1526 6.836 19.1526C6.776 19.1526 6.746 19.1676 6.746 19.1976C6.746 19.2276 6.731 19.2426 6.701 19.2426C6.701 19.2726 6.686 19.2876 6.657 19.2876V19.3336C6.627 19.3336 6.597 19.3336 6.567 19.3336C6.567 19.3636 6.567 19.3926 6.567 19.4226C6.567 19.4526 6.552 19.4676 6.523 19.4676C6.462 19.4676 6.419 19.4826 6.388 19.5126L6.343 19.5576C6.313 19.5876 6.283 19.6166 6.253 19.6466L6.209 19.6916V19.7366C6.179 19.7366 6.149 19.7366 6.119 19.7366C6.089 19.7666 6.075 19.7956 6.075 19.8256V19.8706H6.016C5.987 19.9006 5.957 19.9156 5.927 19.9156C5.927 19.9456 5.913 19.9606 5.882 19.9606C5.882 19.9906 5.867 20.0196 5.838 20.0496L5.748 20.1396C5.718 20.1706 5.703 20.2006 5.703 20.2296C5.643 20.2296 5.614 20.2436 5.614 20.2736L5.569 20.3186C5.54 20.3486 5.51 20.3636 5.479 20.3636C5.479 20.3936 5.465 20.4236 5.434 20.4536L5.39 20.4976C5.36 20.5276 5.329 20.5586 5.3 20.5876V20.6326L5.21 20.7216C5.21 20.7516 5.195 20.7666 5.166 20.7666C5.136 20.7966 5.121 20.8266 5.121 20.8566C5.092 20.8566 5.076 20.8716 5.076 20.9016C5.046 20.9306 5.031 20.9606 5.031 20.9906C5.001 20.9906 4.971 21.0056 4.943 21.0356V21.0806C4.912 21.1096 4.898 21.1396 4.898 21.1696C4.868 21.1696 4.838 21.1696 4.808 21.1696C4.808 21.1996 4.808 21.2296 4.808 21.2596C4.778 21.2596 4.749 21.2746 4.719 21.3036C4.719 21.3336 4.703 21.3646 4.674 21.3936C4.645 21.3936 4.629 21.4086 4.629 21.4386C4.629 21.4686 4.615 21.4836 4.584 21.4836C4.584 21.5146 4.584 21.5446 4.584 21.5736H4.536C4.506 21.6026 4.462 21.6176 4.402 21.6176V21.6626C4.402 21.6926 4.387 21.7236 4.357 21.7526C4.357 21.7826 4.342 21.7986 4.313 21.7986C4.313 21.8276 4.313 21.8576 4.313 21.8876V21.9336C4.253 21.9336 4.208 21.9486 4.18 21.9786V22.0236C4.149 22.0536 4.119 22.0836 4.089 22.1136V22.1576C4.089 22.1896 4.075 22.2026 4.045 22.2026C4.045 22.2326 4.03 22.2626 4 22.2926V22.3816C3.941 22.3816 3.91 22.3966 3.91 22.4266C3.91 22.4566 3.91 22.4866 3.91 22.5166C3.881 22.5166 3.866 22.5316 3.866 22.5616L3.822 22.6056C3.792 22.6366 3.777 22.6676 3.777 22.6956L3.733 22.7406V22.7856C3.703 22.8166 3.687 22.8456 3.687 22.8746V22.9646C3.687 22.9936 3.658 23.0096 3.599 23.0096C3.599 23.0396 3.599 23.0686 3.599 23.0986V23.1436C3.599 23.1736 3.583 23.2036 3.554 23.2336V23.3676C3.524 23.3676 3.494 23.3826 3.464 23.4126V23.5016C3.464 23.5326 3.464 23.5626 3.464 23.5916V23.6816C3.345 23.6816 3.24 23.6816 3.151 23.6816C2.822 23.6516 2.507 23.6366 2.209 23.6366C2.089 23.6366 1.97 23.6366 1.85 23.6366C1.79 23.6366 1.76 23.6216 1.76 23.5916C1.76 23.5616 1.76 23.5316 1.76 23.5016C1.731 23.4726 1.716 23.4416 1.716 23.4126C1.685 23.4126 1.67 23.3976 1.67 23.3676V23.3226C1.67 23.2926 1.67 23.2636 1.67 23.2336V23.1886C1.67 23.1586 1.67 23.1286 1.67 23.0986V22.9636C1.64 22.9336 1.61 22.9186 1.581 22.9186C1.581 22.8886 1.581 22.8596 1.581 22.8286V22.7846C1.581 22.7546 1.581 22.7246 1.581 22.6946V22.6046L1.536 22.5606V22.5156C1.536 22.4856 1.536 22.4556 1.536 22.4256V22.3806C1.536 22.3516 1.536 22.3206 1.536 22.2916V22.2466L1.446 22.2016C1.446 22.1716 1.446 22.1426 1.446 22.1126C1.446 22.0826 1.446 22.0526 1.446 22.0226V21.9776C1.446 21.9476 1.446 21.9176 1.446 21.8886V21.8436C1.446 21.8136 1.432 21.7996 1.402 21.7996C1.402 21.7696 1.387 21.7396 1.358 21.7096V21.5756C1.358 21.5456 1.358 21.5156 1.358 21.4856C1.328 21.4856 1.298 21.4856 1.269 21.4856C1.269 21.4556 1.269 21.4256 1.269 21.3956V21.2616C1.269 21.2316 1.269 21.2016 1.269 21.1716V21.0836C1.269 21.0536 1.269 21.0226 1.269 20.9926V20.9476C1.269 20.9176 1.254 20.8876 1.223 20.8586C1.223 20.8286 1.223 20.7986 1.223 20.7686V20.6796C1.223 20.6496 1.223 20.6196 1.223 20.5896V20.5446C1.223 20.5146 1.208 20.4856 1.179 20.4556C1.149 20.4556 1.135 20.4406 1.135 20.4106V20.2746C1.135 20.2446 1.135 20.2156 1.135 20.1856V20.1406C1.135 20.1116 1.135 20.0806 1.135 20.0506L1.083 20.0066V19.9616L1.039 19.9166V19.8716C1.039 19.8416 1.039 19.8126 1.039 19.7826V19.7376C1.039 19.7066 1.039 19.6766 1.039 19.6466V19.5576C1.039 19.5276 1.039 19.4976 1.039 19.4676C1.039 19.4386 1.039 19.4076 1.039 19.3776V19.3336C1.039 19.3036 1.039 19.2726 1.039 19.2436V19.1536C1.039 19.1246 1.039 19.0946 1.039 19.0646V19.0196C1.039 18.9906 1.008 18.9746 0.949 18.9746V18.9296C0.949 18.9006 0.949 18.8706 0.949 18.8406V18.7506C0.949 18.7206 0.949 18.6916 0.949 18.6616V18.6166C0.949 18.5866 0.949 18.5566 0.949 18.5266C0.949 18.4966 0.949 18.4676 0.949 18.4376C0.919 18.4376 0.905 18.4226 0.905 18.3926V18.3486C0.905 18.3186 0.905 18.2876 0.905 18.2586V18.2136C0.905 18.1836 0.905 18.1536 0.905 18.1246V17.9446C0.905 17.9146 0.905 17.8856 0.905 17.8546V17.8106C0.905 17.7806 0.889 17.7496 0.86 17.7206V17.6766L0.815 17.6306V17.5866C0.815 17.5566 0.815 17.5266 0.815 17.4966V17.4066C0.815 17.3776 0.815 17.3476 0.815 17.3176V17.2286C0.815 17.1986 0.815 17.1676 0.815 17.1386C0.815 17.1086 0.8 17.0936 0.769 17.0936V17.0486L0.725 17.0046C0.725 16.9746 0.725 16.9436 0.725 16.9146V16.8246C0.725 16.7946 0.725 16.7656 0.725 16.7346V16.6006C0.725 16.5706 0.725 16.5416 0.725 16.5106V16.4636C0.725 16.4336 0.725 16.4026 0.725 16.3736V16.2836C0.725 16.2546 0.725 16.2246 0.725 16.1946H0.634C0.634 16.1646 0.634 16.1346 0.634 16.1056V16.0596C0.634 16.0306 0.634 16.0006 0.634 15.9706V15.8816C0.634 15.8516 0.634 15.8206 0.634 15.7916V15.6566C0.634 15.6266 0.634 15.5956 0.634 15.5666V15.4766C0.605 15.4466 0.589 15.4176 0.589 15.3866V15.2526C0.589 15.2226 0.589 15.1936 0.589 15.1636V15.0736C0.589 15.0436 0.589 15.0146 0.589 14.9846V14.9396C0.589 14.9096 0.589 14.8796 0.589 14.8496V14.6706C0.589 14.6406 0.589 14.6096 0.589 14.5806V14.5366C0.589 14.5066 0.589 14.4756 0.589 14.4466V14.2666C0.589 14.2366 0.589 14.2066 0.589 14.1766V14.1316C0.589 14.0726 0.589 14.0266 0.589 13.9986V13.9526C0.589 13.9236 0.589 13.8936 0.589 13.8636C0.56 13.8336 0.544 13.8016 0.544 13.7746L0.5 13.7286C0.5 13.6996 0.5 13.6696 0.5 13.6396C0.5 13.6096 0.5 13.5796 0.5 13.5506C0.5 13.4886 0.5 13.4456 0.5 13.4156C0.5 13.3856 0.5 13.3556 0.5 13.3266C0.5 13.2646 0.5 13.2216 0.5 13.1916C0.5 13.1616 0.5 13.1166 0.5 13.0576C0.5 13.0276 0.5 12.9826 0.5 12.9226V12.8336C0.5 12.8036 0.5 12.7736 0.5 12.7436C0.5 12.6836 0.5 12.6396 0.5 12.6096C0.5 12.5496 0.5 12.5046 0.5 12.4746C0.5 12.4436 0.5 12.3986 0.5 12.3396C0.5 12.2796 0.5 12.2356 0.5 12.2056C0.5 12.1436 0.5 12.1006 0.5 12.0706C0.5 12.0416 0.5 12.0096 0.5 11.9816C0.5 11.9506 0.5 11.9066 0.5 11.8466C0.5 11.8176 0.5 11.7706 0.5 11.7116C0.5 11.6816 0.5 11.6516 0.5 11.6216V11.5326C0.5 11.4726 0.5 11.4276 0.5 11.3976C0.5 11.3366 0.5 11.2936 0.5 11.2636C0.5 11.2336 0.5 11.1886 0.5 11.1286C0.5 11.0986 0.5 11.0696 0.5 11.0396C0.5 11.0096 0.5 10.9646 0.5 10.9046C0.53 10.9046 0.544 10.8896 0.544 10.8606L0.589 10.8156C0.589 10.7856 0.589 10.7556 0.589 10.7256V10.6806C0.589 10.6506 0.589 10.6216 0.589 10.5916C0.589 10.5616 0.589 10.5316 0.589 10.5016V10.4126C0.589 10.3826 0.589 10.3526 0.589 10.3226V10.2776C0.589 10.2486 0.589 10.2176 0.589 10.1886V10.0036C0.589 9.97359 0.589 9.94459 0.589 9.91459V9.86959C0.589 9.83959 0.605 9.81059 0.634 9.77959V9.64459C0.634 9.61459 0.634 9.58559 0.634 9.55459V9.46559C0.634 9.43559 0.634 9.40559 0.634 9.37559V9.28659C0.634 9.25659 0.634 9.22659 0.634 9.19659V9.06259C0.664 9.06259 0.694 9.04759 0.723 9.01759V8.97159C1.172 8.97159 1.62 8.98659 2.069 9.01659V9.10559C2.099 9.10559 2.129 9.10559 2.16 9.10559V9.15059L2.204 9.19559V9.86859C8.365 9.86859 14.538 9.86859 20.728 9.86859C20.759 9.86859 20.774 9.85359 20.774 9.82359L20.818 9.77859H20.863C20.892 9.77859 20.907 9.76359 20.907 9.73459V9.68959H20.997V9.64459L21.042 9.55459H21.087L21.131 9.46559H21.176L21.221 9.42059L21.311 9.37559V9.33059C21.341 9.33059 21.37 9.31659 21.401 9.28659L21.446 9.24159H21.491V9.19659C21.491 9.16659 21.505 9.15159 21.536 9.15159H21.58V9.10659L21.67 9.01759C21.7 9.01759 21.715 9.00259 21.715 8.97259C21.744 8.97259 21.76 8.95759 21.76 8.92759C21.789 8.92759 21.804 8.91359 21.804 8.88259L21.894 8.79359C21.924 8.79359 21.938 8.77859 21.938 8.74859H21.983C21.983 8.71859 21.998 8.70359 22.027 8.70359V8.65759L22.117 8.61359C22.117 8.58359 22.132 8.56859 22.161 8.56859H22.206L22.433 8.34359V8.29959H22.477L22.522 8.25559H22.567C22.567 8.22559 22.583 8.20959 22.611 8.20959V8.16459C22.641 8.13459 22.671 8.11959 22.702 8.11959C22.732 8.08959 22.761 8.07459 22.791 8.07459C22.821 8.07459 22.85 8.05959 22.88 8.03059L22.97 7.94059C23.03 7.94059 23.074 7.94059 23.104 7.94059V7.53559C23.133 7.53559 23.164 7.52159 23.194 7.49159V7.35859C23.403 7.35859 23.613 7.35859 23.822 7.35859V7.44759C26.005 7.44759 28.187 7.44759 30.37 7.44759V7.04359C30.37 7.01359 30.355 6.99859 30.326 6.99859V6.95359L30.283 6.90959V6.23659C30.193 6.23659 30.088 6.23659 29.968 6.23659V6.68559C29.939 6.68559 29.923 6.69959 29.923 6.72959C29.715 6.72959 29.505 6.72959 29.296 6.72959V6.55059L29.251 6.50559V6.23659C28.653 6.23659 28.056 6.23659 27.458 6.23659V6.64059H27.414V6.72959C27.204 6.72959 26.995 6.72959 26.786 6.72959V6.41559C26.756 6.41559 26.726 6.41559 26.697 6.41559V6.37059C26.697 6.28059 26.697 6.20659 26.697 6.14659C26.697 6.08659 26.697 6.02659 26.697 5.96759C26.697 5.87759 26.697 5.80159 26.697 5.74259C26.697 5.68259 26.697 5.60759 26.697 5.51859C26.697 5.45859 26.697 5.39959 26.697 5.33959C26.697 5.27959 26.697 5.20459 26.697 5.11559C26.697 5.05559 26.697 4.99659 26.697 4.93459C26.697 4.84559 26.697 4.77159 26.697 4.71059C26.697 4.65159 26.697 4.59159 26.697 4.53259C26.697 4.44259 26.697 4.36659 26.697 4.30759C26.697 4.24759 26.697 4.17259 26.697 4.08359C26.697 4.02259 26.697 3.96259 26.697 3.90459C26.697 3.84459 26.697 3.76959 26.697 3.67959C26.697 3.61959 26.697 3.55959 26.697 3.49959C26.697 3.44059 26.697 3.36559 26.697 3.27559C26.697 3.21659 26.697 3.15559 26.697 3.09559C26.697 3.00659 26.697 2.93159 26.697 2.87159C26.697 2.81159 26.697 2.75259 26.697 2.69259C26.697 2.63259 26.697 2.57259 26.697 2.51359C26.726 2.51359 26.756 2.51359 26.786 2.51359V2.33359L26.831 2.28859V2.24359H26.829ZM42.393 15.7446L42.437 15.6996H42.393V15.7446ZM33.511 16.5526C32.584 16.5526 31.643 16.5526 30.685 16.5526V16.5966L30.641 16.6866H30.596V16.8206C30.566 16.8206 30.552 16.8356 30.552 16.8656V17.0456L30.508 17.0906V17.2256H30.462V17.4036C30.462 17.4346 30.448 17.4496 30.418 17.4496V18.1226H30.462V18.2116L30.508 18.2566V18.3466H30.552V18.5246H30.596V19.1086C31.463 19.1086 32.316 19.1086 33.153 19.1086V18.8386H33.198V18.7946C33.228 18.7946 33.242 18.7786 33.242 18.7486H33.286L33.376 18.6596H33.421V18.6146L33.51 18.5706C33.51 18.5406 33.526 18.5246 33.556 18.5246L33.645 18.4356H33.779L33.823 18.3906C33.823 18.3606 33.838 18.3466 33.868 18.3466L33.957 18.2566C33.988 18.2566 34.003 18.2416 34.003 18.2116C34.033 18.2116 34.062 18.1966 34.093 18.1666V18.1226C34.122 18.1226 34.152 18.1226 34.182 18.1226V18.0766C34.212 18.0766 34.227 18.0616 34.227 18.0326H34.317C34.317 17.9726 34.317 17.9276 34.317 17.8986C34.317 17.8376 34.317 17.7936 34.317 17.7636C34.317 17.7326 34.317 17.6876 34.317 17.6276C34.317 17.5986 34.317 17.5686 34.317 17.5386C34.317 17.5086 34.317 17.4636 34.317 17.4036C34.317 17.3746 34.317 17.3446 34.317 17.3146C34.317 17.2846 34.317 17.2536 34.317 17.2256L34.272 17.1796C34.272 17.1506 34.257 17.1356 34.228 17.1356C34.228 17.1056 34.213 17.0906 34.183 17.0906L34.094 17.0456C34.063 17.0456 34.034 17.0306 34.004 17.0016V16.9556C33.974 16.9556 33.958 16.9406 33.958 16.9116H33.914C33.885 16.8816 33.854 16.8666 33.824 16.8666V16.7776C33.795 16.7776 33.765 16.7626 33.734 16.7316C33.704 16.7316 33.69 16.7166 33.69 16.6876L33.646 16.6426H33.601L33.557 16.5976C33.557 16.5666 33.541 16.5526 33.511 16.5526ZM28.802 17.2256C28.772 17.2256 28.758 17.2106 28.758 17.1796C28.728 17.1796 28.714 17.1646 28.714 17.1356V17.0906C28.624 17.0906 28.519 17.0906 28.4 17.0906C28.4 17.1506 28.4 17.1946 28.4 17.2256C28.4 17.2846 28.4 17.3446 28.4 17.4036C28.4 17.4346 28.4 17.4786 28.4 17.5386C28.4 17.5986 28.4 17.6436 28.4 17.6736C28.4 17.7326 28.4 17.7776 28.4 17.8076C28.4 17.8676 28.4 17.9266 28.4 17.9866C28.4 18.0166 28.4 18.0606 28.4 18.1216C28.4 18.1806 28.4 18.2256 28.4 18.2556C28.4 18.3156 28.4 18.3746 28.4 18.4356L28.444 18.4806C28.475 18.4806 28.49 18.4946 28.49 18.5246H28.533V18.6146H28.578V18.6596L28.623 18.7036V18.7486H28.713V18.7946L28.802 18.8386H28.847V18.8836C28.876 18.9136 28.907 18.9276 28.937 18.9276H28.981V18.9726H29.025L29.114 19.0176V19.1076C29.324 19.1076 29.533 19.1076 29.742 19.1076V19.0176C29.713 19.0176 29.682 19.0176 29.653 19.0176V18.9276C29.624 18.9276 29.609 18.9136 29.609 18.8836V18.8386H29.563V18.7946C29.533 18.7946 29.519 18.7786 29.519 18.7486H29.474V18.6596L29.43 18.6146V18.5246C29.4 18.5246 29.37 18.5096 29.34 18.4806V18.3466H29.295V18.2116L29.25 18.1666V18.0766L29.161 17.9876V17.9426H29.115V17.8986C29.115 17.8686 29.101 17.8526 29.071 17.8526C29.071 17.8236 29.055 17.8086 29.026 17.8086V17.7186L28.982 17.6746V17.6286H28.938V17.5396L28.892 17.4946V17.4046H28.848V17.3606C28.818 17.3606 28.803 17.3456 28.803 17.3156L28.802 17.2256Z" fill="#9FB1C9"/>
</g>
<defs>
<clipPath id="clip0_28409_24682">
<rect width="89.667" height="32" fill="white" transform="translate(0.333008 0.133789)"/>
</clipPath>
</defs>
</svg>
