<svg width="100" height="33" viewBox="0 0 100 33" fill="none" xmlns="http://www.w3.org/2000/svg">
<g clip-path="url(#clip0_28409_24683)">
<path fill-rule="evenodd" clip-rule="evenodd" d="M37.502 4.31373C37.526 4.28973 37.539 4.26573 37.539 4.23973C37.563 4.21473 37.577 4.18973 37.577 4.16473C37.601 4.13873 37.614 4.11373 37.614 4.08973C37.639 4.08973 37.664 4.08973 37.689 4.08973C37.714 4.08973 37.75 4.08973 37.8 4.08973V4.05273C38.446 4.05273 39.082 4.05273 39.704 4.05273C39.754 4.05273 39.79 4.05273 39.815 4.05273C39.915 4.05273 40.027 4.05273 40.151 4.05273C40.201 4.07673 40.238 4.08973 40.263 4.08973C40.288 4.11373 40.312 4.15173 40.337 4.20173L40.375 4.23973C40.4 4.26573 40.412 4.28873 40.412 4.31373C40.412 4.33873 40.412 4.36373 40.412 4.38873C40.412 4.41373 40.412 4.43773 40.412 4.46273C40.388 4.48773 40.375 4.51373 40.375 4.53773C40.349 4.56273 40.337 4.58773 40.337 4.61373C40.312 4.61373 40.3 4.62573 40.3 4.65073V4.68773C40.3 4.71273 40.3 4.73673 40.3 4.76273C40.3 4.78873 40.3 4.81273 40.3 4.83773C40.3 4.86173 40.3 4.88773 40.3 4.91173V4.94873C40.3 4.97373 40.3 4.99873 40.3 5.02373C40.3 5.04973 40.3 5.07373 40.3 5.09873C40.3 5.12373 40.3 5.16073 40.3 5.21073C40.3 5.23573 40.3 5.25973 40.3 5.28473V5.32173C40.3 5.34673 40.3 5.37173 40.3 5.39673C40.3 5.42173 40.3 5.44673 40.3 5.47173C40.3 5.49573 40.3 5.52073 40.3 5.54573C40.3 5.57073 40.3 5.59573 40.3 5.62073H40.337C40.362 5.62073 40.375 5.63273 40.375 5.65773C40.4 5.70673 40.412 5.74473 40.412 5.76973C40.412 5.79473 40.4 5.81973 40.375 5.84373C40.375 5.86873 40.362 5.89273 40.337 5.91873L40.3 5.95673C40.3 5.98073 40.3 6.00573 40.3 6.03073C40.3 6.05573 40.3 6.07973 40.3 6.10573C40.3 6.12973 40.3 6.15573 40.3 6.17973C40.3 6.22973 40.3 6.26573 40.3 6.29073V6.32873C40.3 6.35373 40.3 6.37873 40.3 6.40473C40.3 6.42773 40.3 6.45273 40.3 6.47773C40.3 6.50273 40.3 6.52773 40.3 6.55173C40.3 6.57773 40.3 6.60273 40.3 6.62773V6.66573C40.3 6.71473 40.3 6.75173 40.3 6.77673C40.3 6.80273 40.3 6.82773 40.3 6.85273C40.3 6.87773 40.3 6.90273 40.3 6.92773V6.96373C40.275 6.98773 40.263 7.01273 40.263 7.03873V7.07473C42.801 7.07473 45.363 7.07473 47.95 7.07473C47.975 7.07473 48 7.08773 48.026 7.11273C48.026 7.08773 48.038 7.07473 48.063 7.07473C48.187 7.04973 48.286 7.02673 48.362 7.00073C48.411 6.97473 48.472 6.96273 48.548 6.96273C48.647 6.93773 48.722 6.91273 48.771 6.88773C48.846 6.86373 48.909 6.83873 48.958 6.81373C49.033 6.78873 49.12 6.76373 49.219 6.73873C49.269 6.71373 49.331 6.68973 49.406 6.66473C49.456 6.63973 49.531 6.61473 49.63 6.58973C49.706 6.56473 49.755 6.53973 49.78 6.51473C49.854 6.48973 49.93 6.47673 50.004 6.47673C50.004 6.45173 50.016 6.42673 50.041 6.40373C50.066 6.37773 50.092 6.35273 50.118 6.32773C50.167 6.30273 50.204 6.28973 50.229 6.28973C50.254 6.26473 50.279 6.22773 50.305 6.17873C50.379 6.17873 50.428 6.16573 50.452 6.14173C50.502 6.11673 50.564 6.10373 50.64 6.10373C50.689 6.07773 50.739 6.04173 50.788 5.99173C50.813 5.96773 50.838 5.95473 50.863 5.95473C50.887 5.95473 50.913 5.94173 50.937 5.91673H50.975C50.975 5.89073 50.975 5.86673 50.975 5.84173C51 5.81773 51.023 5.79273 51.049 5.76773L51.124 5.69273C51.149 5.69273 51.186 5.69273 51.236 5.69273V5.65673C51.807 5.65673 52.356 5.65673 52.877 5.65673V5.62073C53.052 5.62073 53.238 5.62073 53.438 5.62073V5.65773C53.562 5.65773 53.674 5.65773 53.773 5.65773C53.797 5.65773 53.81 5.64573 53.81 5.62073C54.009 5.62073 54.184 5.62073 54.333 5.62073L54.37 5.65773C54.992 5.65773 55.615 5.65773 56.236 5.65773C56.261 5.65773 56.286 5.65773 56.312 5.65773C56.361 5.65773 56.411 5.67073 56.46 5.69573L56.497 5.77073C56.547 5.79573 56.597 5.82073 56.646 5.84473C56.671 5.86973 56.696 5.89373 56.721 5.91973L56.758 5.95773C56.783 5.98173 56.796 6.00673 56.796 6.03173C56.796 6.05673 56.796 6.08073 56.796 6.10673C56.796 6.13073 56.783 6.15673 56.758 6.18073C56.758 6.20573 56.746 6.23073 56.721 6.25573V6.29273C56.696 6.29273 56.671 6.30573 56.646 6.33073C56.646 6.38073 56.633 6.41773 56.609 6.44273C56.609 6.46673 56.609 6.49173 56.609 6.51673C56.609 6.54173 56.609 6.56573 56.609 6.59173V6.62873C56.609 6.65273 56.609 6.67873 56.609 6.70373V6.85273C56.609 6.87773 56.609 6.90273 56.609 6.92773C56.609 6.95273 56.609 6.97673 56.609 7.00273C56.609 7.02773 56.609 7.06473 56.609 7.11473C56.609 7.13873 56.609 7.17673 56.609 7.22673C56.609 7.25173 56.609 7.27673 56.609 7.30173C56.609 7.35073 56.609 7.38873 56.609 7.41273C56.609 7.46273 56.609 7.49873 56.609 7.52473C56.609 7.57373 56.609 7.61173 56.609 7.63573C56.609 7.66173 56.609 7.69873 56.609 7.74873C56.609 7.77173 56.609 7.81073 56.609 7.85873C56.609 7.88573 56.609 7.92173 56.609 7.97073V8.04573C56.609 8.07073 56.609 8.10773 56.609 8.15773C56.609 8.20774 56.609 8.24573 56.609 8.27073C56.609 8.29473 56.609 8.31974 56.609 8.34474C56.609 8.39373 56.609 8.43173 56.609 8.45673C56.609 8.50573 56.609 8.54274 56.609 8.56874V8.64373C56.609 8.69273 56.609 8.74173 56.609 8.79073C56.609 8.81573 56.609 8.85373 56.609 8.90374C56.609 8.92774 56.609 8.95174 56.609 8.97674C56.609 9.00274 56.609 9.03973 56.609 9.08974C56.609 9.11374 56.609 9.15173 56.609 9.20173C56.609 9.25173 56.609 9.28873 56.609 9.31273C56.609 9.33773 56.609 9.36273 56.609 9.38773C56.609 9.43873 56.609 9.47473 56.609 9.49973C56.609 9.54873 56.609 9.58673 56.609 9.61173C56.609 9.63673 56.609 9.67373 56.609 9.72273C56.609 9.74773 56.609 9.78574 56.609 9.83473C56.609 9.86073 56.609 9.89773 56.609 9.94673C56.609 9.97173 56.609 9.99673 56.609 10.0217C56.609 10.0457 56.609 10.0837 56.609 10.1337C56.609 10.1577 56.609 10.1957 56.609 10.2457V10.3207C56.609 10.3687 56.609 10.4087 56.609 10.4327C56.609 10.4827 56.609 10.5187 56.609 10.5437C56.609 10.5937 56.609 10.6307 56.609 10.6557C56.609 10.6807 56.609 10.7177 56.609 10.7677C56.609 10.7927 56.609 10.8187 56.609 10.8427C68.998 10.8427 81.375 10.8427 93.737 10.8427C95.504 10.8427 97.258 10.8427 98.999 10.8427C99.073 10.8667 99.148 10.8917 99.223 10.9167C99.273 10.9407 99.31 10.9657 99.335 10.9917V11.0287C99.384 11.0527 99.422 11.0897 99.447 11.1407C99.472 11.1647 99.497 11.2037 99.522 11.2527L99.558 11.3277C99.558 11.3777 99.558 11.4137 99.558 11.4387C99.558 11.4887 99.558 11.5257 99.558 11.5497C99.558 11.5997 99.558 11.6377 99.558 11.6637C99.558 11.6867 99.5461 11.7247 99.522 11.7747C99.522 11.7997 99.509 11.8377 99.484 11.8867C99.46 11.9107 99.4341 11.9487 99.41 11.9997V12.0737C99.41 12.0987 99.41 12.1357 99.41 12.1867C99.41 12.2357 99.41 12.2727 99.41 12.2967C99.41 12.3217 99.41 12.3467 99.41 12.3727C99.41 12.4217 99.41 12.4587 99.41 12.4847C99.41 12.5347 99.41 12.5707 99.41 12.5957V12.6717C99.41 12.6967 99.41 12.7217 99.41 12.7467C99.41 12.7707 99.41 12.7957 99.41 12.8217V12.8587C99.41 12.8827 99.41 12.9207 99.41 12.9707C99.41 12.9957 99.397 13.0207 99.372 13.0457C99.347 13.0707 99.335 13.1077 99.335 13.1577C99.31 13.1817 99.273 13.2197 99.223 13.2677C99.148 13.2927 99.073 13.3177 98.999 13.3437C98.925 13.3437 98.838 13.3437 98.738 13.3437C98.663 13.3437 98.6011 13.3437 98.551 13.3437C98.4771 13.3187 98.389 13.2927 98.29 13.2677C90.304 13.2437 82.319 13.2187 74.333 13.1937C74.333 13.2187 74.333 13.2437 74.333 13.2677C74.333 13.2927 74.333 13.3177 74.333 13.3437C74.333 13.3687 74.333 13.3937 74.333 13.4187C74.333 13.4677 74.333 13.5057 74.333 13.5307C74.333 13.5537 74.333 13.5797 74.333 13.6047L74.37 13.6417C74.37 13.6917 74.37 13.7287 74.37 13.7537C74.37 13.7777 74.37 13.8167 74.37 13.8657C74.37 13.8907 74.37 13.9277 74.37 13.9777C74.37 14.0017 74.37 14.0277 74.37 14.0527C74.37 14.0777 74.37 14.1157 74.37 14.1647V14.2777C74.37 14.3267 74.37 14.3637 74.37 14.3887C74.37 14.4137 74.37 14.4397 74.37 14.4647V14.5757C74.37 14.6247 74.37 14.6617 74.37 14.6867V14.7997C74.37 14.8237 74.37 14.8617 74.37 14.9107C74.37 14.9367 74.37 14.9737 74.37 15.0237C74.37 15.0477 74.37 15.0727 74.37 15.0987C74.37 15.1227 74.37 15.1617 74.37 15.2097V15.5087C74.37 15.5587 74.37 15.5957 74.37 15.6217C74.37 15.6707 74.37 15.7077 74.37 15.7327V15.8447C74.37 15.8697 74.37 15.9077 74.37 15.9567C74.37 15.9807 74.37 16.0197 74.37 16.0687V16.1437C74.37 16.1677 74.37 16.2057 74.37 16.2557V16.3677C74.37 16.3917 74.37 16.4167 74.37 16.4427V17.1507C74.346 17.1507 74.321 17.1627 74.296 17.1877H74.258C74.258 17.2137 74.258 17.2507 74.258 17.2997C74.258 17.3497 74.258 17.3867 74.258 17.4127C74.258 17.4377 74.258 17.4617 74.258 17.4867C74.258 17.5367 74.258 17.5737 74.258 17.5987C74.258 17.6487 74.258 17.6857 74.258 17.7107C74.258 17.7357 74.258 17.7737 74.258 17.8227C74.258 17.8477 74.258 17.8847 74.258 17.9347C74.258 17.9587 74.258 17.9977 74.258 18.0467C74.258 18.0717 74.258 18.0957 74.258 18.1207C74.258 18.1457 74.258 18.1837 74.258 18.2347C74.258 18.2587 74.258 18.2957 74.258 18.3447V18.4197C74.258 18.4687 74.258 18.5057 74.258 18.5307C74.232 18.5797 74.208 18.6177 74.182 18.6427C74.182 18.6937 74.169 18.7297 74.145 18.7557C74.12 18.7557 74.096 18.7797 74.07 18.8287C74.046 18.8287 74.033 18.8417 74.033 18.8667C74.033 18.8927 74.046 18.9177 74.07 18.9417C74.096 18.9667 74.109 19.0037 74.109 19.0537C74.109 19.0787 74.096 19.1037 74.07 19.1287C74.07 19.1537 74.058 19.1787 74.033 19.2037C74.033 19.3037 74.033 19.3897 74.033 19.4647C74.033 19.5647 74.033 19.6517 74.033 19.7257C74.033 19.7997 74.033 19.8867 74.033 19.9867C74.033 20.0617 74.033 20.1367 74.033 20.2117C74.033 20.3117 74.033 20.3987 74.033 20.4737C74.033 20.5727 74.033 20.6597 74.033 20.7337C74.033 20.8077 74.033 20.8967 74.033 20.9957C74.033 21.0957 74.033 21.1697 74.033 21.2187C74.033 21.3197 74.033 21.4057 74.033 21.4807C74.033 21.5797 74.033 21.6667 74.033 21.7427C74.033 21.8177 74.033 21.9047 74.033 22.0037C74.033 22.1037 74.033 22.1777 74.033 22.2277V22.2647C74.083 22.2647 74.12 22.2777 74.145 22.3017C74.169 22.3517 74.195 22.3887 74.219 22.4137L74.258 22.4877C74.258 22.5127 74.258 22.5377 74.258 22.5617H74.296C74.32 22.6117 74.345 22.6497 74.37 22.6747C74.37 22.7247 74.37 22.7607 74.37 22.7847C74.37 22.8107 74.37 22.8477 74.37 22.8987C74.346 22.9227 74.321 22.9597 74.296 23.0087V23.0467C74.296 23.0727 74.296 23.0967 74.296 23.1207V23.1957C74.296 23.2207 74.296 23.2457 74.296 23.2707C74.296 23.2957 74.296 23.3197 74.296 23.3447C74.296 23.3697 74.296 23.3937 74.296 23.4187C74.296 23.4437 74.296 23.4687 74.296 23.4937V23.5317C74.296 23.5567 74.296 23.5817 74.296 23.6057V23.6447H74.258V23.6817H74.296C74.296 23.7057 74.308 23.7187 74.333 23.7187H74.37C74.396 23.7437 74.445 23.7687 74.518 23.7937C74.543 23.8177 74.568 23.8307 74.594 23.8307C74.594 23.8557 74.606 23.8807 74.631 23.9047C74.656 23.9307 74.669 23.9547 74.669 23.9797C74.669 24.0037 74.669 24.0297 74.669 24.0547C74.669 24.0797 74.681 24.1167 74.706 24.1647V24.2037C74.706 24.2287 74.718 24.2537 74.744 24.2787C74.744 24.3037 74.744 24.3277 74.744 24.3527C74.744 24.3767 74.757 24.4037 74.782 24.4277C74.806 24.4527 74.819 24.4777 74.819 24.5027C74.843 24.5027 74.856 24.5137 74.856 24.5387C74.8811 24.5637 74.893 24.6017 74.893 24.6517C74.918 24.6757 74.931 24.7007 74.931 24.7247C74.956 24.7507 74.981 24.7757 75.005 24.8007C75.005 24.8257 75.019 24.8377 75.043 24.8377C75.043 24.8627 75.043 24.8877 75.043 24.9127C75.043 24.9377 75.056 24.9617 75.08 24.9887C75.08 25.0127 75.08 25.0377 75.08 25.0617C75.105 25.0867 75.119 25.1247 75.119 25.1747C75.1431 25.1747 75.157 25.1867 75.157 25.2107C75.157 25.2367 75.169 25.2617 75.194 25.2867C75.194 25.3107 75.194 25.3357 75.194 25.3597C75.219 25.3857 75.231 25.4107 75.231 25.4357C75.231 25.4607 75.243 25.4857 75.269 25.5107L75.306 25.5477C75.33 25.5727 75.343 25.6107 75.343 25.6607C75.343 25.6847 75.356 25.7107 75.381 25.7347C75.381 25.7597 75.381 25.7837 75.381 25.8097C75.381 25.8337 75.394 25.8477 75.419 25.8477C75.419 25.8727 75.419 25.8967 75.419 25.9217C75.443 25.9447 75.456 25.9717 75.456 25.9957C75.481 26.0197 75.494 26.0447 75.494 26.0697C75.494 26.0957 75.506 26.1327 75.531 26.1827L75.569 26.2197C75.569 26.2447 75.582 26.2697 75.607 26.2947C75.607 26.3187 75.62 26.3457 75.644 26.3697C75.668 26.3947 75.682 26.4187 75.682 26.4437C75.706 26.4687 75.719 26.4937 75.719 26.5187V26.5567C75.719 26.5807 75.719 26.6047 75.719 26.6317C75.744 26.6807 75.756 26.7177 75.756 26.7427C75.806 26.7677 75.843 26.7927 75.867 26.8187C75.891 26.8427 75.916 26.8557 75.942 26.8557C75.942 26.8807 75.942 26.9047 75.942 26.9297C75.968 26.9547 75.993 26.9807 76.017 27.0047C76.017 27.0307 76.017 27.0557 76.017 27.0797C76.043 27.1037 76.079 27.1297 76.128 27.1537C76.154 27.1787 76.18 27.1917 76.204 27.1917C76.2281 27.2167 76.253 27.2417 76.278 27.2667C76.278 27.2907 76.29 27.3167 76.315 27.3407C76.341 27.3657 76.366 27.3907 76.391 27.4157C76.391 27.4397 76.391 27.4657 76.391 27.4907C76.391 27.5157 76.391 27.5407 76.391 27.5657C76.391 27.5907 76.391 27.6147 76.391 27.6397C76.391 27.6647 76.391 27.6897 76.391 27.7147C76.391 27.7397 76.391 27.7647 76.391 27.7897C76.391 27.8147 76.391 27.8387 76.391 27.8647C76.366 27.8647 76.352 27.8767 76.352 27.9027C76.328 27.9267 76.315 27.9517 76.315 27.9767C76.341 27.9767 76.366 27.9767 76.391 27.9767C76.391 28.0267 76.402 28.0637 76.428 28.0887C76.428 28.1137 76.441 28.1387 76.466 28.1637L76.503 28.1997C76.503 28.2257 76.503 28.2517 76.503 28.2757C76.479 28.3007 76.453 28.3267 76.429 28.3507C76.429 28.3757 76.429 28.4007 76.429 28.4257C76.404 28.4507 76.392 28.4747 76.392 28.4997C76.392 28.5247 76.379 28.5487 76.353 28.5737C76.329 28.5987 76.304 28.6227 76.279 28.6477C76.279 28.6737 76.279 28.6977 76.279 28.7227C76.254 28.7477 76.23 28.7737 76.205 28.7977C76.205 28.8227 76.193 28.8467 76.168 28.8727C76.143 28.8727 76.1171 28.8847 76.092 28.9107C76.092 28.9347 76.092 28.9607 76.092 28.9837C76.092 29.0337 76.092 29.0717 76.092 29.0967C76.067 29.1207 76.054 29.1457 76.054 29.1717V29.2087C76.054 29.2337 76.043 29.2587 76.017 29.2837C75.993 29.3087 75.968 29.3207 75.942 29.3207C75.892 29.3457 75.843 29.3577 75.793 29.3577C75.769 29.3577 75.744 29.3577 75.719 29.3577C75.669 29.3577 75.6311 29.3577 75.607 29.3577C75.009 29.3577 74.401 29.3577 73.778 29.3577C73.728 29.3337 73.679 29.3207 73.63 29.3207C73.604 29.2967 73.58 29.2717 73.554 29.2457C73.53 29.2207 73.516 29.1957 73.516 29.1717C73.516 29.1467 73.516 29.1207 73.516 29.0967C73.516 29.0717 73.516 29.0467 73.516 29.0207C73.516 28.9967 73.516 28.9717 73.516 28.9467V28.9097C73.516 28.8837 73.516 28.8587 73.516 28.8337C73.516 28.8097 73.516 28.7847 73.516 28.7597C73.516 28.7357 73.516 28.7107 73.516 28.6857C73.516 28.6597 73.516 28.6347 73.516 28.6107C73.516 28.5857 73.516 28.5607 73.516 28.5357V28.4987C73.516 28.4737 73.516 28.4497 73.516 28.4247C73.516 28.3997 73.516 28.3617 73.516 28.3127C73.516 28.2877 73.516 28.2617 73.516 28.2377V28.1987C73.516 28.1747 73.516 28.1507 73.516 28.1257C73.516 28.1007 73.516 28.0767 73.516 28.0517C73.516 28.0267 73.516 28.0017 73.516 27.9767C73.516 27.9527 73.516 27.9267 73.516 27.9027C73.516 27.8777 73.516 27.8527 73.516 27.8267C73.516 27.8027 73.516 27.7777 73.516 27.7537C73.516 27.7277 73.516 27.7037 73.516 27.6777C73.516 27.6537 73.516 27.6267 73.516 27.6037C73.516 27.5787 73.516 27.5537 73.516 27.5287V27.4917C73.516 27.4667 73.529 27.4407 73.554 27.4167C73.58 27.3917 73.604 27.3547 73.63 27.3047C73.63 27.2787 73.63 27.2547 73.63 27.2297C73.63 27.2047 73.63 27.1807 73.63 27.1547C73.653 27.1307 73.666 27.1047 73.666 27.0807L73.703 27.0437C73.7281 27.0437 73.753 27.0317 73.778 27.0057C73.803 27.0057 73.841 26.9927 73.89 26.9677C73.939 26.9677 73.977 26.9557 74.002 26.9307H74.039L74.002 26.8937V26.8567C74.002 26.8317 74.002 26.8057 74.002 26.7817C74.002 26.7577 74.002 26.7327 74.002 26.7067C73.977 26.6827 73.965 26.6577 73.965 26.6337C73.94 26.6067 73.928 26.5827 73.928 26.5587C73.928 26.5347 73.928 26.5077 73.928 26.4837C73.903 26.4597 73.89 26.4337 73.89 26.4087C73.865 26.3847 73.841 26.3607 73.815 26.3347C73.815 26.3097 73.803 26.2847 73.777 26.2607C73.777 26.2357 73.765 26.2107 73.739 26.1857C73.715 26.1857 73.69 26.1737 73.665 26.1477C73.665 26.1237 73.665 26.0987 73.665 26.0727C73.665 26.0477 73.665 26.0227 73.665 25.9987C73.665 25.9477 73.665 25.9127 73.665 25.8857L73.629 25.8497C73.603 25.8247 73.59 25.7997 73.59 25.7747C73.566 25.7487 73.541 25.7237 73.515 25.6997C73.515 25.6757 73.515 25.6497 73.515 25.6247C73.515 25.5997 73.515 25.5757 73.515 25.5507L73.478 25.5137C73.453 25.4637 73.442 25.4267 73.442 25.4007C73.416 25.3767 73.404 25.3517 73.404 25.3267C73.379 25.3017 73.367 25.2777 73.367 25.2527C73.367 25.2267 73.3531 25.2017 73.328 25.1777V25.1397C73.328 25.1147 73.315 25.0897 73.291 25.0647C73.291 25.0407 73.279 25.0157 73.254 24.9917C73.229 24.9407 73.216 24.9037 73.216 24.8787L73.179 24.8417C73.154 24.8167 73.142 24.7927 73.142 24.7667C73.142 24.7417 73.142 24.7177 73.142 24.6917C73.142 24.6677 73.129 24.6427 73.104 24.6177C73.104 24.5937 73.092 24.5677 73.067 24.5417C73.042 24.5177 73.015 24.5057 72.992 24.5057C72.992 24.4557 72.992 24.4187 72.992 24.3927C72.992 24.3677 72.992 24.3427 72.992 24.3177C73.015 24.2937 73.029 24.2687 73.029 24.2437L73.067 24.2057C72.469 24.2057 71.86 24.2177 71.237 24.2437C71.188 24.2677 71.125 24.2937 71.051 24.3177C70.9761 24.3177 70.889 24.3177 70.789 24.3177C70.74 24.2937 70.702 24.2807 70.677 24.2807H70.64C70.614 24.2807 70.578 24.2937 70.528 24.3177C70.453 24.2937 70.379 24.2687 70.303 24.2437C70.303 24.1917 70.278 24.1667 70.228 24.1667C70.228 24.1187 70.228 24.0817 70.228 24.0567C70.228 24.0057 70.228 23.9697 70.228 23.9447C70.228 23.8947 70.228 23.8577 70.228 23.8327C70.228 23.8067 70.228 23.7697 70.228 23.7207C70.228 23.6967 70.228 23.6587 70.228 23.6087C70.228 23.5847 70.228 23.5467 70.228 23.4977V23.4227C70.228 23.3977 70.228 23.3607 70.228 23.3107C70.228 23.2617 70.228 23.2237 70.228 23.1987C70.228 23.1737 70.228 23.1487 70.228 23.1237C70.228 23.0757 70.228 23.0377 70.228 23.0117C70.228 22.9617 70.228 22.9257 70.228 22.9017C70.252 22.8507 70.265 22.8137 70.265 22.7877C70.265 22.7637 70.252 22.7267 70.228 22.6777C70.228 22.6527 70.228 22.6147 70.228 22.5647C70.252 22.5407 70.278 22.5157 70.303 22.4907C70.303 22.4657 70.316 22.4417 70.342 22.4167C70.3911 22.3917 70.44 22.3547 70.49 22.3047C70.54 22.2807 70.59 22.2557 70.639 22.2307C70.838 22.2307 71.025 22.2177 71.199 22.1927V22.1567C71.199 22.1297 71.199 22.1057 71.199 22.0807C71.199 22.0307 71.199 21.9937 71.199 21.9677C71.199 21.9187 71.199 21.8827 71.199 21.8567C71.199 21.8307 71.199 21.7947 71.199 21.7447C71.199 21.7207 71.199 21.6817 71.199 21.6317C71.223 21.6067 71.235 21.5697 71.235 21.5207C71.06 21.5207 70.863 21.5207 70.639 21.5207C70.59 21.4957 70.539 21.4827 70.49 21.4827C70.44 21.4587 70.39 21.4197 70.342 21.3717C70.342 21.3467 70.328 21.3347 70.303 21.3347C70.303 21.2847 70.278 21.2457 70.228 21.2207V21.1467C70.228 21.0977 70.228 21.0597 70.228 21.0357C70.228 20.9857 70.228 20.9487 70.228 20.9227C70.228 20.8737 70.228 20.8227 70.228 20.7737V20.6987C70.228 20.6747 70.228 20.6367 70.228 20.5877C70.228 20.5627 70.228 20.5257 70.228 20.4757C70.252 20.4507 70.278 20.4257 70.303 20.4007V20.3617C70.303 20.3127 70.278 20.2747 70.228 20.2497C70.228 20.1997 70.228 20.1637 70.228 20.1387C70.228 20.1147 70.228 20.0887 70.228 20.0637C70.228 20.0147 70.228 19.9777 70.228 19.9517C70.252 19.9017 70.278 19.8657 70.303 19.8407C70.303 19.7897 70.316 19.7657 70.342 19.7657C70.415 19.7657 70.477 19.7657 70.528 19.7657V19.7277C70.602 19.7277 70.689 19.7277 70.788 19.7277C70.888 19.7277 70.9751 19.7277 71.05 19.7277L71.013 19.6907C71.013 19.6657 71.013 19.6287 71.013 19.5787C71.013 19.5547 71.013 19.5167 71.013 19.4667C71.013 19.4427 71.013 19.4167 71.013 19.3917C71.013 19.3667 71.013 19.3287 71.013 19.2797C71.013 19.2297 71.013 19.1927 71.013 19.1677V19.0927C71.013 19.0437 71.013 19.0057 71.013 18.9817C71.013 18.9307 71.013 18.8957 71.013 18.8697C71.013 18.8207 71.013 18.7837 71.013 18.7587C71.013 18.7327 71.013 18.6967 71.013 18.6457C71.013 18.6217 71.013 18.5827 71.013 18.5337C71.013 18.5087 71.013 18.4717 71.013 18.4227V18.3437C71.013 18.2937 71.013 18.2577 71.013 18.2337C71.013 18.1827 71.013 18.1447 71.013 18.1197C71.013 18.0957 71.013 18.0707 71.013 18.0457C71.013 17.9967 71.013 17.9577 71.013 17.9337C71.013 17.8837 71.013 17.8467 71.013 17.8217C71.013 17.7727 71.013 17.7347 71.013 17.7097C71.013 17.6847 71.013 17.6477 71.013 17.5977C71.013 17.5737 71.013 17.5357 71.013 17.4857C71.013 17.4607 71.013 17.4367 71.013 17.4117C71.013 17.3867 71.013 17.3617 71.013 17.3367C70.987 17.3617 70.9621 17.3737 70.938 17.3737C70.8381 17.3497 70.751 17.3237 70.676 17.2987C70.651 17.2487 70.626 17.2127 70.602 17.1867V17.1497H70.565C70.515 17.0997 70.4771 17.0757 70.453 17.0757C70.429 17.0257 70.3911 16.9877 70.342 16.9627C70.342 16.9137 70.342 16.8767 70.342 16.8517C70.342 16.8277 70.342 16.7887 70.342 16.7397H70.303V16.6657C70.303 16.6417 70.303 16.6157 70.303 16.5897C70.303 16.5657 70.303 16.5397 70.303 16.5157C70.303 16.4907 70.303 16.4667 70.303 16.4417V16.3667C70.303 16.3427 70.303 16.3167 70.303 16.2927C70.303 16.2677 70.303 16.2427 70.303 16.2167C70.303 16.1927 70.303 16.1667 70.303 16.1427V15.9557C70.278 15.9067 70.253 15.8687 70.228 15.8437C70.228 15.8197 70.228 15.7937 70.228 15.7687V15.7317C62.441 15.7317 54.655 15.7197 46.869 15.6937C46.819 15.6697 46.769 15.6577 46.72 15.6577L46.683 15.6937C46.683 15.7197 46.67 15.7567 46.644 15.8057C46.621 15.8297 46.596 15.8677 46.57 15.9177C46.521 15.9427 46.484 15.9787 46.459 16.0287C46.409 16.0547 46.371 16.0807 46.346 16.1047C46.322 16.1287 46.297 16.1657 46.272 16.2147C46.247 16.2407 46.222 16.2777 46.198 16.3267C46.173 16.3767 46.148 16.4017 46.122 16.4017C46.098 16.4527 46.072 16.4887 46.047 16.5137C46.022 16.5637 45.999 16.5997 45.973 16.6257C45.948 16.6747 45.911 16.7127 45.86 16.7367C45.837 16.7607 45.799 16.7987 45.749 16.8487C45.749 16.8737 45.737 16.9117 45.711 16.9597C45.687 16.9847 45.673 17.0227 45.673 17.0727C45.649 17.0727 45.624 17.0967 45.599 17.1467C45.55 17.1717 45.512 17.2097 45.487 17.2587C45.437 17.3077 45.4 17.3457 45.375 17.3697C45.351 17.3947 45.325 17.4197 45.301 17.4447C45.277 17.4947 45.25 17.5317 45.226 17.5567C45.201 17.6067 45.177 17.6437 45.151 17.6687L45.115 17.7427C45.065 17.7937 45.028 17.8437 45.003 17.8937C44.978 17.9177 44.953 17.9547 44.929 18.0047C44.904 18.0307 44.879 18.0557 44.853 18.0797C44.853 18.1037 44.841 18.1417 44.815 18.1907C44.791 18.2167 44.752 18.2537 44.704 18.3027C44.679 18.3527 44.666 18.3897 44.666 18.4157C44.642 18.4407 44.617 18.4647 44.591 18.4907C44.567 18.5397 44.554 18.5767 44.554 18.6017C44.505 18.6527 44.467 18.6897 44.443 18.7137C44.392 18.7377 44.356 18.7767 44.33 18.8247C44.306 18.8497 44.281 18.8877 44.255 18.9367C44.23 18.9617 44.217 18.9987 44.217 19.0487C44.192 19.0737 44.167 19.0987 44.143 19.1237C44.118 19.1487 44.106 19.1857 44.106 19.2357C44.056 19.2597 44.019 19.2977 43.993 19.3467V19.4217C43.969 19.4717 43.93 19.5087 43.882 19.5347C43.858 19.5837 43.831 19.6217 43.806 19.6457C43.782 19.6957 43.757 19.7337 43.731 19.7577C43.731 19.7817 43.72 19.8207 43.695 19.8697C43.67 19.8937 43.645 19.9317 43.62 19.9807C43.595 20.0057 43.57 20.0437 43.545 20.0937C43.521 20.0937 43.496 20.1197 43.47 20.1687C43.445 20.1927 43.433 20.2177 43.433 20.2427C42.91 20.2427 42.377 20.2427 41.829 20.2427V20.2807C37.575 20.2807 33.334 20.2807 29.104 20.2807C29.003 20.2557 28.905 20.2307 28.806 20.2057V20.2807C28.781 20.2807 28.769 20.2927 28.769 20.3187V20.4337H28.731V20.5097L28.695 20.5467V20.5847C28.67 20.6087 28.632 20.6207 28.581 20.6207V20.6587C28.581 20.6837 28.569 20.6957 28.544 20.6957V20.8077C28.519 20.8077 28.507 20.8207 28.507 20.8467V20.8837C28.482 20.8837 28.468 20.8967 28.468 20.9207V21.0337C28.468 21.0577 28.457 21.0707 28.431 21.0707C28.431 21.0957 28.418 21.1087 28.393 21.1087V21.1457H28.36V21.2957C28.335 21.2957 28.323 21.3087 28.323 21.3337V21.3707C28.298 21.3707 28.285 21.3827 28.285 21.4067C28.26 21.4067 28.247 21.4197 28.247 21.4457V21.4827H28.21V21.5207L28.172 21.5577V21.5947C28.172 21.6187 28.159 21.6317 28.134 21.6317V21.7067C28.134 21.7317 28.122 21.7447 28.097 21.7447L28.059 21.7817V21.8567L28.023 21.8947H27.984C27.984 21.9427 27.972 21.9937 27.948 22.0427L27.463 23.0887L27.724 25.4767C27.748 25.5507 27.724 25.6377 27.649 25.7367C27.574 25.8117 27.5 25.8497 27.424 25.8497C27.351 25.8497 27.275 25.8367 27.2 25.8117C27.176 25.8357 27.151 25.8607 27.125 25.8847C27.101 25.9607 27.038 26.0097 26.939 26.0347L25.222 26.2957C25.147 26.3197 25.084 26.3197 25.035 26.2957L22.499 25.2897C22.422 25.2397 22.374 25.1777 22.348 25.1017C22.324 25.0767 22.3 25.0527 22.275 25.0267C22.199 24.9277 22.162 24.8407 22.162 24.7657L22.275 24.0937C22.275 23.9937 22.312 23.9207 22.385 23.8707C22.436 23.8457 22.486 23.8207 22.535 23.7957V23.0107C22.56 23.0107 22.572 22.9987 22.572 22.9737V22.4527C22.597 22.4527 22.609 22.4407 22.609 22.4147V22.3767L22.648 22.3397V22.2277C22.671 22.2027 22.697 22.1897 22.722 22.1897V22.1537H22.759V22.0777L22.871 21.9647V21.8917C22.896 21.8917 22.909 21.8797 22.909 21.8537C22.934 21.8537 22.946 21.8407 22.946 21.8167H23.021V21.7787L23.059 21.7417V21.6657L23.096 21.6287V21.5537C23.12 21.5537 23.146 21.5407 23.171 21.5167L23.207 21.4787V21.4417C23.232 21.4417 23.246 21.4287 23.246 21.4027L23.283 21.3667V21.3297L23.32 21.2917H23.358C23.358 21.2667 23.37 21.2537 23.394 21.2537V21.1047L23.433 21.0667V21.0297L23.47 20.9917V20.9537C23.495 20.9537 23.508 20.9417 23.508 20.9157L23.545 20.8787V20.8417C23.569 20.8417 23.582 20.8297 23.582 20.8027C23.606 20.8027 23.633 20.7907 23.657 20.7657L23.732 20.6907V20.6537L23.769 20.6157V20.5417C23.794 20.5417 23.82 20.5297 23.846 20.5047L23.882 20.4667V20.4337C23.907 20.4337 23.92 20.4217 23.92 20.3967L23.957 20.3577V20.2837C23.957 20.2587 23.97 20.2457 23.995 20.2457L24.069 20.1717V20.0587C24.093 20.0587 24.107 20.0477 24.107 20.0217L24.144 19.9837V19.9467C24.168 19.9467 24.181 19.9347 24.181 19.9097L24.218 19.8717V19.8347L24.257 19.7967V19.7597H24.294V19.6847C24.294 19.6597 24.307 19.6467 24.331 19.6467C24.331 19.6227 24.344 19.6097 24.368 19.6097V19.5717L24.406 19.5357V19.4227C24.43 19.4227 24.443 19.4097 24.443 19.3847V19.3137L24.481 19.2767V19.2397C24.505 19.2147 24.53 19.2017 24.556 19.2017L24.593 19.1637V19.1267L24.631 19.0887V19.0537L24.668 19.0157V18.9417C24.694 18.9417 24.706 18.9287 24.706 18.9047L24.744 18.8667V18.6057L24.668 18.5307V18.3817C24.644 18.3817 24.631 18.3687 24.631 18.3437V18.2337L24.593 18.1947V18.1567L24.556 18.1197V18.0077L24.479 17.9337V17.5237L24.441 17.4867C24.391 17.4867 24.342 17.4867 24.292 17.4867C23.82 17.4867 23.346 17.4867 22.874 17.4867C22.874 17.4617 22.862 17.4497 22.836 17.4497V17.4127C22.762 17.4127 22.674 17.4127 22.575 17.4127C22.502 17.3877 22.438 17.3747 22.387 17.3747V17.1877H22.35V16.8527H22.314C22.314 16.9017 22.314 16.9517 22.314 17.0007C22.314 17.0267 22.314 17.0517 22.314 17.0767V17.1137C22.314 17.1377 22.314 17.1757 22.314 17.2257C22.314 17.2747 22.314 17.3117 22.314 17.3377V17.3747C22.115 17.3747 21.916 17.3747 21.717 17.3747V17.4127H21.68V17.4497H21.643L21.605 17.4867C21.581 17.4867 21.567 17.4997 21.567 17.5237H21.53C21.506 17.5487 21.48 17.5617 21.456 17.5617V17.5987L21.418 17.6367C21.418 17.6607 21.405 17.6737 21.381 17.6737V17.7477H21.343C21.343 17.7737 21.33 17.7867 21.306 17.7867V17.8237C21.281 17.8737 21.256 17.9227 21.231 17.9717L21.194 18.0097V18.0477C21.169 18.0477 21.144 18.0477 21.119 18.0477V18.1217C21.119 18.1467 21.119 18.1847 21.119 18.2357C21.119 18.2847 21.119 18.3217 21.119 18.3457V18.3837C21.095 18.3837 21.069 18.3837 21.044 18.3837V18.4217C21.069 18.5217 21.069 18.6207 21.044 18.7197L20.597 19.3157C20.522 19.3907 20.448 19.4287 20.373 19.4287C20.272 19.4537 20.186 19.4537 20.111 19.4287C20.037 19.3537 20 19.2797 20 19.2047L18.769 19.2787C18.694 19.2787 18.62 19.2547 18.545 19.2047C18.42 19.2287 18.309 19.2667 18.209 19.3157C18.159 19.3417 18.123 19.3657 18.098 19.3907C18.072 19.3907 18.048 19.3907 18.022 19.3907C18.022 19.4157 18.022 19.4537 18.022 19.5017C17.997 19.6017 17.936 19.6647 17.837 19.6897L8.50805 23.6067C8.40705 23.6577 8.32005 23.6577 8.24505 23.6067C8.19505 23.5827 8.15905 23.5577 8.13405 23.5327C8.00905 23.5327 7.89705 23.5327 7.79705 23.5327C7.69705 23.5327 7.61105 23.5327 7.53505 23.5327C7.53505 23.5827 7.53505 23.6327 7.53505 23.6817C7.53505 23.7057 7.53505 23.7437 7.53505 23.7937C7.53505 23.8177 7.53505 23.8557 7.53505 23.9047C7.53505 23.9547 7.53505 24.0037 7.53505 24.0547C7.53505 24.1047 7.53505 24.1407 7.53505 24.1647C7.53505 24.1897 7.53505 24.2277 7.53505 24.2777C7.53505 24.3267 7.53505 24.3757 7.53505 24.4267C7.53505 24.4767 7.53505 24.5127 7.53505 24.5377C7.53505 24.5887 7.53505 24.6387 7.53505 24.6877C7.53505 24.7127 7.53505 24.7507 7.53505 24.7997C7.53505 24.8247 7.53505 24.8617 7.53505 24.9117C7.53505 24.9607 7.53505 25.0117 7.53505 25.0607C7.53505 25.1107 7.53505 25.1477 7.53505 25.1737V25.2097C7.58705 25.2097 7.64805 25.2487 7.72305 25.3217C7.79705 25.3957 7.83505 25.4717 7.83505 25.5457V25.9197C7.83505 26.0187 7.79705 26.1067 7.72305 26.1807C7.65005 26.2307 7.57605 26.2557 7.50005 26.2557L7.46105 26.2927C7.38805 26.3677 7.30005 26.4047 7.20105 26.4047H5.44805C5.37405 26.4047 5.31005 26.3807 5.26105 26.3307C5.23605 26.3567 5.21105 26.3687 5.18605 26.3687C5.16205 26.3687 5.11205 26.3807 5.03805 26.4057C4.98805 26.4057 4.93805 26.4057 4.88905 26.4057C4.81505 26.3817 4.73905 26.3577 4.66405 26.3317C4.61505 26.2817 4.56405 26.2447 4.51505 26.2197C4.51505 26.1967 4.50205 26.1717 4.47705 26.1447C4.47705 26.0957 4.47705 26.0577 4.47705 26.0337C4.47705 25.9837 4.47705 25.9457 4.47705 25.9217C4.47705 25.8967 4.47705 25.8727 4.47705 25.8477C3.35605 25.8477 2.22605 25.8727 1.08205 25.9217C1.00605 25.9447 0.932047 25.9717 0.857047 25.9957C0.782047 25.9957 0.695047 25.9957 0.596047 25.9957C0.521047 25.9717 0.434047 25.9447 0.334047 25.9217C0.309047 25.8727 0.271047 25.8347 0.222047 25.8097C0.198047 25.7837 0.173047 25.7467 0.147047 25.6977C0.147047 25.6737 0.147047 25.6477 0.147047 25.6227C0.147047 25.5977 0.122047 25.5597 0.0720469 25.5117C0.0480469 25.5117 0.0230469 25.4867 -0.00195312 25.4367C-0.00195312 25.3867 -0.00195312 25.3497 -0.00195312 25.3247C-0.00195312 25.2757 -0.00195312 25.2387 -0.00195312 25.2127C-0.00195312 25.1887 -0.00195312 25.1627 -0.00195312 25.1387C-0.00195312 25.0887 -0.00195312 25.0527 -0.00195312 25.0267C-0.00195312 24.9777 -0.00195312 24.9407 -0.00195312 24.9157C-0.00195312 24.8657 -0.00195312 24.8287 -0.00195312 24.8037C-0.00195312 24.7787 -0.00195312 24.7407 -0.00195312 24.6917C-0.00195312 24.6677 -0.00195312 24.6297 -0.00195312 24.5797C-0.00195312 24.5547 -0.00195312 24.5297 -0.00195312 24.5057C-0.00195312 24.4807 -0.00195312 24.4427 -0.00195312 24.3927C-0.00195312 24.3427 -0.00195312 24.3057 -0.00195312 24.2807C-0.00195312 24.2307 -0.00195312 24.1927 -0.00195312 24.1677C-0.00195312 24.1437 -0.00195312 24.1197 -0.00195312 24.0937C-0.00195312 24.0447 -0.00195312 24.0057 -0.00195312 23.9817C-0.00195312 23.9327 -0.00195312 23.8947 -0.00195312 23.8707C-0.00195312 23.8457 -0.00195312 23.8077 -0.00195312 23.7577C-0.00195312 23.7337 -0.00195312 23.6957 -0.00195312 23.6467C-0.00195312 23.6217 -0.00195312 23.5837 -0.00195312 23.5347C-0.00195312 23.5097 -0.00195312 23.4847 -0.00195312 23.4597C-0.00195312 23.4357 -0.00195312 23.3967 -0.00195312 23.3477C-0.00195312 23.2987 -0.00195312 23.2617 -0.00195312 23.2367V23.1617C-0.00195312 23.1117 -0.00195312 23.0757 -0.00195312 23.0497C-0.00195312 22.9997 -0.00195312 22.9617 -0.00195312 22.9377C-0.00195312 22.8877 -0.00195312 22.8497 -0.00195312 22.8247C-0.00195312 22.8007 -0.00195312 22.7637 -0.00195312 22.7147C-0.00195312 22.6887 -0.00195312 22.6517 -0.00195312 22.6017C-0.00195312 22.5767 -0.00195312 22.5397 -0.00195312 22.4897V22.4157C-0.00195312 22.3907 -0.00195312 22.3537 -0.00195312 22.3037C-0.00195312 22.2547 -0.00195312 22.2167 -0.00195312 22.1917C-0.00195312 22.1677 -0.00195312 22.1417 -0.00195312 22.1167C-0.00195312 22.0677 -0.00195312 22.0297 -0.00195312 22.0057C-0.00195312 21.9567 -0.00195312 21.9187 -0.00195312 21.8947C-0.00195312 21.8437 -0.00195312 21.8067 -0.00195312 21.7817C-0.00195312 21.7567 -0.00195312 21.7207 -0.00195312 21.6687C-0.00195312 21.6447 -0.00195312 21.6067 -0.00195312 21.5577C-0.00195312 21.5337 -0.00195312 21.5077 -0.00195312 21.4827C-0.00195312 21.4587 -0.00195312 21.4197 -0.00195312 21.3717C-0.00195312 21.3217 -0.00195312 21.2847 -0.00195312 21.2597C-0.00195312 21.2097 -0.00195312 21.1727 -0.00195312 21.1467C-0.00195312 21.1227 -0.00195312 21.0977 -0.00195312 21.0727C-0.00195312 21.0237 -0.00195312 20.9857 -0.00195312 20.9607C-0.00195312 20.9107 -0.00195312 20.8737 -0.00195312 20.8497C-0.00195312 20.7997 -0.00195312 20.7617 -0.00195312 20.7367C-0.00195312 20.7117 -0.00195312 20.6747 -0.00195312 20.6247C-0.00195312 20.6007 -0.00195312 20.5637 -0.00195312 20.5147C-0.00195312 20.4887 -0.00195312 20.4637 -0.00195312 20.4387C-0.00195312 20.4137 -0.00195312 20.3767 -0.00195312 20.3277C-0.00195312 20.2767 -0.00195312 20.2397 -0.00195312 20.2157C-0.00195312 20.1667 -0.00195312 20.1297 -0.00195312 20.1037C-0.00195312 20.0787 -0.00195312 20.0547 -0.00195312 20.0287C-0.00195312 19.9797 -0.00195312 19.9417 -0.00195312 19.9167C-0.00195312 19.8667 -0.00195312 19.8177 -0.00195312 19.7677V19.6927C-0.00195312 19.6677 -0.00195312 19.6307 -0.00195312 19.5807C-0.00195312 19.5567 -0.00195312 19.5187 -0.00195312 19.4687C-0.00195312 19.4447 -0.00195312 19.4187 -0.00195312 19.3937C-0.00195312 19.3687 -0.00195312 19.3307 -0.00195312 19.2817C-0.00195312 19.2317 -0.00195312 19.1947 -0.00195312 19.1697V19.0947C-0.00195312 19.0457 -0.00195312 19.0077 -0.00195312 18.9837C-0.00195312 18.9327 -0.00195312 18.8977 -0.00195312 18.8717C-0.00195312 18.8227 -0.00195312 18.7857 -0.00195312 18.7607C-0.00195312 18.7347 -0.00195312 18.6987 -0.00195312 18.6477C-0.00195312 18.6237 -0.00195312 18.5847 -0.00195312 18.5357C-0.00195312 18.5107 -0.00195312 18.4737 -0.00195312 18.4247V18.3437C-0.00195312 18.2937 -0.00195312 18.2577 -0.00195312 18.2337C-0.00195312 18.1827 -0.00195312 18.1447 -0.00195312 18.1197C-0.00195312 18.0957 -0.00195312 18.0707 -0.00195312 18.0457C-0.00195312 17.9967 -0.00195312 17.9577 -0.00195312 17.9337C-0.00195312 17.8837 -0.00195312 17.8467 -0.00195312 17.8217C-0.00195312 17.7727 -0.00195312 17.7347 -0.00195312 17.7097C-0.00195312 17.6847 -0.00195312 17.6477 -0.00195312 17.5977C-0.00195312 17.5737 -0.00195312 17.5357 -0.00195312 17.4857C-0.00195312 17.4607 -0.00195312 17.4367 -0.00195312 17.4117C-0.00195312 17.3867 -0.00195312 17.3487 -0.00195312 17.2987C-0.00195312 17.2487 -0.00195312 17.2127 -0.00195312 17.1867C-0.00195312 17.1377 -0.00195312 17.1007 -0.00195312 17.0767C-0.00195312 17.0517 -0.00195312 17.0267 -0.00195312 17.0007C-0.00195312 16.9507 -0.00195312 16.9147 -0.00195312 16.8897C-0.00195312 16.8407 -0.00195312 16.7897 -0.00195312 16.7407V16.6667C-0.00195312 16.6427 -0.00195312 16.6027 -0.00195312 16.5537C-0.00195312 16.5287 -0.00195312 16.4917 -0.00195312 16.4427C-0.00195312 16.4167 -0.00195312 16.3917 -0.00195312 16.3677C-0.00195312 16.3437 -0.00195312 16.3057 -0.00195312 16.2557C-0.00195312 16.2057 -0.00195312 16.1677 -0.00195312 16.1437V16.0687C-0.00195312 16.0197 -0.00195312 15.9817 -0.00195312 15.9567C-0.00195312 15.9077 -0.00195312 15.8697 -0.00195312 15.8447C-0.00195312 15.7947 -0.00195312 15.7577 -0.00195312 15.7327C-0.00195312 15.7077 -0.00195312 15.6707 -0.00195312 15.6217C-0.00195312 15.5957 -0.00195312 15.5587 -0.00195312 15.5087C-0.00195312 15.4847 -0.00195312 15.4467 -0.00195312 15.3967V15.3227C-0.00195312 15.2987 -0.00195312 15.2607 -0.00195312 15.2097C-0.00195312 15.1617 -0.00195312 15.1227 -0.00195312 15.0987C-0.00195312 15.0727 -0.00195312 15.0477 -0.00195312 15.0237C-0.00195312 14.9737 -0.00195312 14.9367 -0.00195312 14.9107C-0.00195312 14.8617 -0.00195312 14.8237 -0.00195312 14.7997C-0.00195312 14.7497 -0.00195312 14.7127 -0.00195312 14.6867C-0.00195312 14.6617 -0.00195312 14.6247 -0.00195312 14.5757C-0.00195312 14.5507 -0.00195312 14.5137 -0.00195312 14.4647C-0.00195312 14.4407 -0.00195312 14.4147 -0.00195312 14.3887C-0.00195312 14.3647 -0.00195312 14.3267 -0.00195312 14.2777C-0.00195312 14.2277 -0.00195312 14.1887 -0.00195312 14.1647C0.0230469 14.1157 0.0470469 14.0787 0.0720469 14.0527C0.122047 14.0287 0.147047 14.0027 0.147047 13.9777C0.247047 13.9527 0.334047 13.9407 0.408047 13.9407V13.9037C0.458047 13.9277 0.533047 13.9527 0.633047 13.9777C0.658047 13.9527 0.683047 13.9407 0.707047 13.9407C0.756047 13.9407 0.806047 13.9407 0.856047 13.9407V13.9037C2.02405 13.9037 3.18005 13.9037 4.32605 13.9037C4.35105 13.9037 4.38805 13.9157 4.43805 13.9407C4.46205 13.8917 4.48705 13.8537 4.51305 13.8287C4.58805 13.8027 4.67505 13.7907 4.77405 13.7907V13.7537C4.82405 13.7777 4.88705 13.8017 4.96105 13.8287C5.55905 13.8537 6.14205 13.8787 6.71505 13.9037C6.71505 13.8797 6.71505 13.8537 6.71505 13.8287V13.7907C6.69005 13.7657 6.65205 13.7417 6.60305 13.7167C6.57805 13.6917 6.55305 13.6537 6.52905 13.6047C6.50405 13.5807 6.46605 13.5427 6.41705 13.4927C6.39205 13.4687 6.35405 13.4307 6.30505 13.3817L6.26805 13.3067C6.26805 13.2817 6.26805 13.2447 6.26805 13.1947C6.26805 13.1447 6.26805 13.1077 6.26805 13.0827C6.26805 13.0577 6.26805 13.0327 6.26805 13.0087C6.26805 12.9587 6.26805 12.9217 6.26805 12.8967C6.26805 12.8467 6.26805 12.8097 6.26805 12.7837C6.29205 12.7347 6.31705 12.6977 6.34205 12.6727C6.36705 12.6477 6.39205 12.6107 6.41705 12.5607C6.41705 12.5367 6.41705 12.4977 6.41705 12.4487C6.41705 12.4237 6.41705 12.3867 6.41705 12.3367V12.2627C6.41705 12.2127 6.41705 12.1757 6.41705 12.1497C6.41705 12.1007 6.41705 12.0627 6.41705 12.0387C6.41705 12.0137 6.41705 11.9887 6.41705 11.9627C6.44205 11.9127 6.46705 11.8757 6.49105 11.8517C6.51605 11.8017 6.54105 11.7647 6.56605 11.7397H6.60405C6.62805 11.6897 6.65305 11.6657 6.67805 11.6657C6.70305 11.6407 6.72805 11.6147 6.75305 11.5897C6.77705 11.5897 6.80305 11.5777 6.82705 11.5517C6.85205 11.5517 6.90205 11.5517 6.97505 11.5517V11.5147C10.757 11.5147 14.551 11.5147 18.357 11.5147C18.431 11.5397 18.506 11.5647 18.581 11.5887C18.63 11.6397 18.667 11.6647 18.692 11.6647C18.692 11.7127 18.705 11.7637 18.729 11.8137C18.754 11.8387 18.779 11.8747 18.804 11.9237L18.842 11.9617C18.842 11.9877 18.854 12.0117 18.879 12.0377C18.904 12.0617 18.928 12.0997 18.954 12.1487C18.954 12.1737 18.954 12.2117 18.954 12.2617L18.916 12.3357C18.891 12.3867 18.867 12.4227 18.842 12.4477C18.842 12.4727 18.842 12.4967 18.842 12.5227C18.842 12.5487 18.842 12.5857 18.842 12.6347V12.6717C18.842 12.7217 18.842 12.7577 18.842 12.7827C18.842 12.8327 18.842 12.8707 18.842 12.8957C18.842 12.9207 18.842 12.9587 18.842 13.0077C18.842 13.0317 18.842 13.0567 18.842 13.0817C18.842 13.1067 18.842 13.1307 18.842 13.1567C18.842 13.2057 18.842 13.2427 18.842 13.2667C18.842 13.3167 18.842 13.3547 18.842 13.3797C18.842 13.4047 18.842 13.4287 18.842 13.4547C18.842 13.4787 18.842 13.5167 18.842 13.5667C18.842 13.5917 18.842 13.6287 18.842 13.6787V13.7167C18.842 13.7657 18.842 13.8017 18.842 13.8287C18.842 13.8787 18.842 13.9157 18.842 13.9407C18.842 13.9647 18.842 14.0027 18.842 14.0527H18.804V14.0907C18.754 14.1157 18.717 14.1527 18.692 14.2017C18.692 14.2537 18.692 14.2897 18.692 14.3147C18.667 14.3637 18.63 14.3887 18.581 14.3887C18.556 14.4137 18.53 14.4397 18.506 14.4647V14.5017C18.506 14.5507 18.506 14.5877 18.506 14.6127L18.544 14.6497V14.6877C19.166 14.6877 19.774 14.7017 20.373 14.7257V14.6877C20.397 14.6877 20.422 14.6877 20.448 14.6877V14.6497C20.547 14.6257 20.635 14.6017 20.709 14.5757C20.784 14.6007 20.859 14.6247 20.934 14.6497C21.032 14.6497 21.144 14.6497 21.268 14.6497C21.443 14.6257 21.618 14.6127 21.791 14.6127C21.916 14.6127 22.027 14.6007 22.127 14.5757C22.151 14.5757 22.176 14.5757 22.201 14.5757C22.251 14.5757 22.288 14.5627 22.314 14.5387C22.338 14.5387 22.35 14.5267 22.35 14.5017C22.4 14.5017 22.463 14.5017 22.538 14.5017C22.538 14.4757 22.55 14.4647 22.575 14.4647C22.6 14.4407 22.638 14.4267 22.687 14.4267C22.712 14.4267 22.724 14.4147 22.724 14.3887C22.748 14.3887 22.786 14.3887 22.835 14.3887C22.861 14.3887 22.873 14.3767 22.873 14.3517C22.923 14.3517 22.96 14.3517 22.986 14.3517C22.986 14.3277 22.999 14.3147 23.023 14.3147C23.047 14.3147 23.073 14.3027 23.098 14.2777C23.122 14.2777 23.148 14.2777 23.173 14.2777H23.209C23.234 14.2777 23.248 14.2647 23.248 14.2397C23.273 14.2397 23.297 14.2397 23.322 14.2397C23.347 14.2397 23.36 14.2277 23.36 14.2017H23.396V14.1647C23.422 14.1647 23.447 14.1647 23.472 14.1647C23.472 14.1397 23.485 14.1267 23.51 14.1267C23.535 14.1027 23.572 14.0897 23.622 14.0897C23.672 14.0897 23.709 14.0777 23.734 14.0517H23.771L23.809 14.0147C23.834 14.0147 23.848 14.0007 23.848 13.9767H23.884C23.933 13.9517 23.971 13.9397 23.996 13.9397C24.02 13.9397 24.046 13.9267 24.07 13.9027H24.108L24.145 13.8647H24.182C24.207 13.8647 24.219 13.8527 24.219 13.8277C24.245 13.8277 24.27 13.8277 24.295 13.8277V13.7897C24.32 13.7647 24.345 13.7527 24.369 13.7527C24.394 13.7527 24.407 13.7397 24.407 13.7157H24.444C24.469 13.7157 24.494 13.7027 24.519 13.6777H24.557C24.557 13.6527 24.569 13.6397 24.594 13.6397C24.645 13.6157 24.695 13.6027 24.744 13.6027L24.781 13.5657H24.856C24.881 13.5417 24.918 13.5287 24.967 13.5287L25 13.4927H25.039L25.077 13.4557C25.101 13.4307 25.126 13.4187 25.151 13.4187C25.201 13.4187 25.239 13.4057 25.264 13.3807C25.287 13.3807 25.326 13.3807 25.376 13.3807C25.401 13.3807 25.414 13.3677 25.414 13.3427L25.45 13.3047C25.45 13.2797 25.463 13.2667 25.488 13.2667C25.538 13.2667 25.576 13.2557 25.601 13.2307C25.625 13.2307 25.649 13.2177 25.675 13.1927C25.7 13.1927 25.712 13.1807 25.712 13.1557C25.737 13.1557 25.763 13.1557 25.787 13.1557V13.1187C25.812 13.0937 25.837 13.0807 25.862 13.0807C25.887 13.0807 25.9 13.0687 25.9 13.0437C25.95 13.0437 25.987 13.0437 26.011 13.0437C26.037 13.0437 26.049 13.0307 26.049 13.0057L26.124 12.9307C26.173 12.9307 26.223 12.9187 26.273 12.8937C26.297 12.8937 26.322 12.8807 26.346 12.8567C26.371 12.8567 26.385 12.8437 26.385 12.8197H26.423C26.423 12.7937 26.435 12.7807 26.461 12.7807C26.461 12.7567 26.473 12.7447 26.497 12.7447C26.522 12.7447 26.547 12.7317 26.572 12.7067C26.622 12.7067 26.672 12.6947 26.721 12.6697H26.796V12.6327L26.833 12.5937C26.884 12.5937 26.921 12.5827 26.946 12.5577C26.97 12.5577 26.995 12.5457 27.02 12.5197C27.045 12.5197 27.057 12.5067 27.057 12.4827H27.096C27.096 12.4577 27.108 12.4447 27.132 12.4447V12.4067C27.157 12.4067 27.17 12.3947 27.17 12.3707C27.195 12.3707 27.219 12.3577 27.245 12.3327H27.282C27.308 12.3327 27.319 12.3207 27.319 12.2947C27.344 12.2947 27.358 12.2827 27.358 12.2587C27.382 12.2587 27.407 12.2457 27.431 12.2207H27.47C27.47 12.1967 27.482 12.1837 27.507 12.1837C27.532 12.1837 27.545 12.1707 27.545 12.1447L27.582 12.1067V12.0697H27.619L27.657 12.0327C27.682 12.0327 27.706 12.0327 27.732 12.0327C27.732 12.0077 27.744 11.9957 27.769 11.9957C27.769 11.9707 27.781 11.9567 27.806 11.9567C27.806 11.9327 27.82 11.9187 27.844 11.9187C27.869 11.9187 27.893 11.9067 27.919 11.8817C27.943 11.8817 27.968 11.8687 27.992 11.8447L28.031 11.8077C28.055 11.8077 28.08 11.8077 28.105 11.8077L28.142 11.7697C28.142 11.7447 28.167 11.7067 28.217 11.6587C28.241 11.6587 28.266 11.6587 28.291 11.6587C28.317 11.6587 28.354 11.6457 28.402 11.6207C28.426 11.5947 28.452 11.5577 28.477 11.5077C28.477 11.4837 28.49 11.4587 28.516 11.4327C28.54 11.4327 28.565 11.4207 28.589 11.3957C28.614 11.3957 28.639 11.3957 28.665 11.3957V11.3577H28.703C28.726 11.3577 28.751 11.3577 28.777 11.3577V11.3207H28.814V11.2827H28.851C28.877 11.2587 28.901 11.2457 28.925 11.2457C28.951 11.2457 28.976 11.2337 29.001 11.2087H29.038C29.088 11.2087 29.139 11.2087 29.187 11.2087C29.212 11.2087 29.238 11.1957 29.262 11.1717C29.386 11.1207 29.486 11.0827 29.561 11.0587C29.61 11.0347 29.661 11.0097 29.71 10.9847C29.784 10.9847 29.833 10.9847 29.859 10.9847C30.456 10.9587 31.028 10.9347 31.576 10.9097C31.651 10.8847 31.724 10.8717 31.8 10.8717C31.8 10.8477 31.812 10.8227 31.838 10.7977C31.838 10.7467 31.838 10.6967 31.838 10.6487C30.27 10.6487 28.69 10.6487 27.099 10.6487V10.6117C27.073 10.6117 27.048 10.5997 27.023 10.5737C26.999 10.5737 26.974 10.5737 26.949 10.5737C26.724 10.5737 26.512 10.5737 26.314 10.5737C25.941 10.5737 25.543 10.5737 25.121 10.5737V10.5367C25.095 10.5367 25.071 10.5237 25.046 10.4997V10.4617C24.996 10.4617 24.933 10.4497 24.86 10.4247C24.835 10.4007 24.81 10.3737 24.785 10.3497V10.3117C24.785 10.2867 24.785 10.2497 24.785 10.1997C24.785 10.1737 24.785 10.1497 24.785 10.1247C24.785 10.0997 24.785 10.0747 24.785 10.0507C24.785 10.0247 24.785 10.0007 24.785 9.97473V9.94773C24.785 9.92373 24.785 9.89873 24.785 9.87373C24.785 9.84873 24.785 9.82273 24.785 9.79873C24.785 9.77373 24.785 9.73573 24.785 9.68674V9.65073C24.785 9.62573 24.785 9.59974 24.785 9.57574C24.785 9.55073 24.785 9.52573 24.785 9.50173C24.785 9.47673 24.785 9.45273 24.785 9.42773C24.785 9.40173 24.785 9.37574 24.785 9.35174V9.31374C24.785 9.28973 24.785 9.25274 24.785 9.20273C24.785 9.17773 24.785 9.15274 24.785 9.12774C24.785 9.10373 24.785 9.07873 24.785 9.05373C24.785 9.02873 24.785 9.00373 24.785 8.97773V8.94173C24.785 8.91673 24.785 8.89073 24.785 8.86673C24.785 8.84173 24.785 8.81673 24.785 8.79073C24.785 8.76673 24.785 8.72973 24.785 8.67873V8.64373C24.785 8.61873 24.785 8.59274 24.785 8.56874C24.785 8.54274 24.785 8.51774 24.785 8.49273C24.785 8.46873 24.785 8.44374 24.785 8.41774C24.785 8.39274 24.771 8.36873 24.748 8.34373V7.93273C24.771 7.93273 24.785 7.92073 24.785 7.89573C24.785 7.84573 24.785 7.80873 24.785 7.78373C24.785 7.73473 24.785 7.68373 24.785 7.63373V7.56073C24.785 7.53573 24.797 7.49773 24.821 7.44773C24.872 7.42273 24.908 7.39773 24.933 7.37273C24.983 7.37273 25.034 7.37273 25.084 7.37273V7.33573C25.108 7.33573 25.133 7.33573 25.158 7.33573V7.29973H25.194C25.194 7.27473 25.208 7.24973 25.233 7.22473C25.258 7.19973 25.283 7.17473 25.307 7.14973C25.307 7.12573 25.32 7.11273 25.345 7.11273C25.394 7.11273 25.431 7.11273 25.456 7.11273V7.07473C26.376 7.07473 27.298 7.07473 28.219 7.07473V7.03873C28.219 7.01273 28.219 6.98773 28.219 6.96373V6.92573C28.219 6.90173 28.219 6.87573 28.219 6.85073C28.219 6.82673 28.219 6.80173 28.219 6.77473C28.219 6.75073 28.219 6.71273 28.219 6.66373V6.62773C28.219 6.60373 28.219 6.57873 28.219 6.55173C28.219 6.52873 28.219 6.50273 28.219 6.47773C28.219 6.45273 28.219 6.42773 28.219 6.40473C28.219 6.37873 28.219 6.35373 28.219 6.32873V6.29073C28.219 6.26573 28.219 6.22873 28.219 6.17973C28.219 6.15573 28.219 6.12973 28.219 6.10573C28.219 6.07973 28.219 6.05573 28.219 6.03073C28.193 6.00673 28.181 5.98073 28.181 5.95673C28.156 5.95673 28.143 5.94373 28.143 5.91873C28.143 5.89273 28.143 5.86873 28.143 5.84373C28.143 5.81973 28.143 5.79473 28.143 5.76973C28.143 5.74473 28.143 5.70673 28.143 5.65773V5.62073C28.143 5.59573 28.143 5.57073 28.143 5.54573C28.143 5.52073 28.143 5.49573 28.143 5.47173C28.143 5.44673 28.155 5.42173 28.181 5.39673C28.205 5.37173 28.219 5.34673 28.219 5.32173V5.28373C28.243 5.25873 28.268 5.23473 28.293 5.20973L28.331 5.17173C28.348 5.14773 28.373 5.13373 28.396 5.13373C28.42 5.13373 28.446 5.13373 28.471 5.13373V5.09773C29.192 5.09773 29.902 5.09773 30.598 5.09773C30.624 5.12273 30.648 5.13373 30.673 5.13373H30.711V5.09773C30.76 5.12273 30.797 5.14773 30.823 5.17173C30.848 5.19773 30.872 5.22173 30.897 5.24673C30.922 5.27173 30.946 5.28473 30.971 5.28473C30.971 5.30973 30.983 5.33373 31.008 5.35873C31.008 5.38373 31.008 5.40873 31.008 5.43473C31.008 5.45873 31.008 5.48473 31.008 5.50873C31.008 5.55873 31.008 5.59573 31.008 5.62173V5.65873C31.008 5.68373 31.008 5.70773 31.008 5.73373C31.008 5.75873 31.008 5.78273 31.008 5.80773C31.008 5.83273 31.008 5.85773 31.008 5.88273C31.008 5.90673 31.008 5.93273 31.008 5.95773V5.99473C31.008 6.04473 31.008 6.08073 31.008 6.10673C31.008 6.13073 31.008 6.15673 31.008 6.18073C31.008 6.20573 31.008 6.23073 31.008 6.25573V6.29273C31.008 6.31773 31.008 6.34373 31.008 6.36873C31.008 6.39373 31.008 6.41873 31.008 6.44373C31.008 6.46773 31.008 6.49273 31.008 6.51773C31.008 6.56673 31.008 6.60473 31.008 6.62973V6.66773C31.008 6.69273 31.008 6.71673 31.008 6.74173C31.008 6.76673 31.008 6.79173 31.008 6.81673C31.008 6.84173 31.008 6.86673 31.008 6.89073C31.008 6.91473 31.008 6.94073 31.008 6.96573V7.00373C31.008 7.02873 31.008 7.05173 31.008 7.07773C33.149 7.07773 35.263 7.07773 37.353 7.07773V7.03873C37.353 7.01273 37.353 6.98773 37.353 6.96373V6.92573C37.353 6.90173 37.353 6.87573 37.353 6.85073C37.353 6.82673 37.353 6.80173 37.353 6.77473C37.353 6.75073 37.353 6.71273 37.353 6.66373V6.62773C37.353 6.60373 37.353 6.57873 37.353 6.55173C37.353 6.52873 37.353 6.50273 37.353 6.47773C37.353 6.45273 37.353 6.42773 37.353 6.40473C37.353 6.37873 37.353 6.35373 37.353 6.32873V6.29073C37.353 6.26573 37.353 6.22873 37.353 6.17973C37.353 6.15573 37.353 6.12973 37.353 6.10573C37.353 6.07973 37.353 6.05573 37.353 6.03073C37.353 6.00673 37.353 5.98073 37.353 5.95673V5.91873C37.353 5.89273 37.353 5.86873 37.353 5.84373C37.353 5.81973 37.353 5.79473 37.353 5.76973C37.353 5.74473 37.353 5.70673 37.353 5.65773V5.62073C37.353 5.59573 37.353 5.57073 37.353 5.54573C37.353 5.52073 37.353 5.49573 37.353 5.47173C37.353 5.44673 37.353 5.42173 37.353 5.39673C37.353 5.37173 37.353 5.34673 37.353 5.32173V5.28373C37.353 5.25873 37.353 5.23473 37.353 5.20973C37.353 5.15873 37.353 5.12273 37.353 5.09773C37.353 5.07373 37.353 5.04873 37.353 5.02273C37.353 4.99773 37.353 4.97273 37.353 4.94773V4.91073C37.353 4.88673 37.353 4.86073 37.353 4.83673C37.353 4.81273 37.353 4.78773 37.353 4.76173C37.353 4.73573 37.353 4.71273 37.353 4.68673V4.61273C37.353 4.58773 37.353 4.56273 37.353 4.53673C37.353 4.51273 37.365 4.48673 37.39 4.46173C37.414 4.43673 37.439 4.41273 37.465 4.38773C37.465 4.36273 37.478 4.33873 37.502 4.31373ZM71.646 18.2337C71.646 18.2067 71.646 18.1827 71.646 18.1567C71.646 18.1327 71.634 18.1067 71.608 18.0827C71.608 18.1067 71.608 18.1327 71.608 18.1567C71.608 18.1817 71.608 18.2197 71.608 18.2697L71.646 18.2337ZM31.046 17.7097C31.046 17.7347 31.046 17.7727 31.046 17.8217C31.046 17.8467 31.046 17.8837 31.046 17.9337C31.046 17.9577 31.046 17.9967 31.046 18.0457C31.046 18.0707 31.046 18.0947 31.046 18.1197C31.046 18.1447 31.046 18.1827 31.046 18.2337C31.046 18.2577 31.046 18.2827 31.046 18.3067V18.3447C31.096 18.3687 31.146 18.3947 31.195 18.4197C31.22 18.4447 31.245 18.4687 31.271 18.4947C31.271 18.5437 31.283 18.5807 31.308 18.6057C31.308 18.6297 31.308 18.6687 31.308 18.7177C31.431 18.6937 31.544 18.6807 31.643 18.6807C31.716 18.6807 31.779 18.6677 31.83 18.6427V18.6057C31.879 18.6057 31.941 18.6057 32.016 18.6057C32.09 18.5807 32.165 18.5557 32.24 18.5307C32.315 18.5057 32.389 18.4687 32.465 18.4197C32.49 18.4197 32.515 18.3947 32.539 18.3447C32.564 18.3207 32.59 18.2947 32.615 18.2707L32.652 18.2347C32.702 18.2077 32.752 18.1837 32.801 18.1577C32.826 18.1077 32.851 18.0837 32.875 18.0837C32.9 18.0347 32.937 17.9977 32.988 17.9707C33.012 17.9217 33.051 17.8847 33.099 17.8597C33.099 17.8097 33.111 17.7727 33.137 17.7467C33.137 17.7217 33.15 17.6847 33.175 17.6367C33.199 17.6117 33.212 17.5737 33.212 17.5237C33.212 17.4997 33.224 17.4617 33.249 17.4127V17.3377C33.249 17.2877 33.261 17.2497 33.286 17.2257C32.539 17.2497 31.806 17.2627 31.085 17.2627L31.047 17.2997C31.047 17.3497 31.047 17.3867 31.047 17.4127C31.047 17.4377 31.047 17.4617 31.047 17.4867C31.047 17.5367 31.047 17.5737 31.047 17.5987C31.046 17.6487 31.046 17.6847 31.046 17.7097ZM29.927 18.7177C29.852 18.6937 29.802 18.6557 29.777 18.6057C29.753 18.5807 29.716 18.5427 29.666 18.4947C29.64 18.4697 29.616 18.4447 29.591 18.4197C29.591 18.3947 29.591 18.3567 29.591 18.3067C29.591 18.2577 29.591 18.2207 29.591 18.1947C29.591 18.1447 29.591 18.1077 29.591 18.0837C29.591 18.0597 29.591 18.0347 29.591 18.0087C29.591 17.9587 29.591 17.9217 29.591 17.8977C29.591 17.8477 29.591 17.7977 29.591 17.7467V17.6727C29.591 17.6487 29.591 17.6107 29.591 17.5607C29.591 17.5357 29.591 17.4987 29.591 17.4487C29.591 17.4237 29.591 17.3987 29.591 17.3737C29.566 17.3737 29.529 17.3867 29.48 17.4117C29.48 17.4367 29.466 17.4607 29.441 17.4857C29.441 17.5107 29.429 17.5357 29.404 17.5607L29.367 17.5977C29.342 17.6227 29.305 17.6357 29.255 17.6357L29.218 17.6727C29.168 17.7217 29.143 17.7597 29.143 17.7847C29.094 17.8087 29.056 17.8467 29.031 17.8967C29.031 17.9447 29.031 17.9967 29.031 18.0457C29.031 18.0707 29.031 18.1067 29.031 18.1567C29.031 18.2067 29.031 18.2577 29.031 18.3057C29.031 18.3317 29.031 18.3557 29.031 18.3807C29.081 18.3807 29.118 18.3927 29.143 18.4187C29.168 18.4437 29.205 18.4677 29.255 18.4937C29.28 18.5427 29.305 18.5797 29.33 18.6047C29.33 18.6557 29.342 18.6927 29.367 18.7167V18.7547C29.566 18.7547 29.753 18.7547 29.927 18.7547V18.7177ZM23.919 17.0387C24.018 17.0387 24.13 17.0387 24.255 17.0387C24.279 17.0387 24.317 17.0387 24.366 17.0387V16.9997C24.292 16.9997 24.229 16.9997 24.179 16.9997C24.105 16.9997 24.018 16.9997 23.919 16.9997V17.0387ZM25 17.4867V17.4497C24.951 17.4497 24.915 17.4497 24.89 17.4497V17.4867C24.939 17.4867 24.976 17.4867 25 17.4867ZM9.14205 19.4637C9.14205 19.4877 9.13005 19.5007 9.10505 19.5007C9.10505 19.5257 9.09305 19.5397 9.06805 19.5397V19.6137C9.06805 19.6387 9.06805 19.6627 9.06805 19.6877V19.7627C9.06805 19.7867 9.06805 19.8127 9.06805 19.8377V19.9127C9.06805 19.9367 9.06805 19.9627 9.06805 19.9867C9.06805 20.0117 9.06805 20.0367 9.06805 20.0617V20.1367C9.06805 20.1617 9.06805 20.1867 9.06805 20.2117C9.06805 20.2357 9.06805 20.2617 9.06805 20.2867V20.3247C9.06805 20.3487 9.06805 20.3737 9.06805 20.3997V20.4337C9.06805 20.4587 9.06805 20.4837 9.06805 20.5097V20.5467C9.11705 20.5467 9.16705 20.5467 9.21705 20.5467C9.26705 20.5717 9.31605 20.5957 9.36705 20.6207C9.54105 20.6457 9.72705 20.6717 9.92605 20.6957C9.95005 20.7207 10.001 20.7467 10.074 20.7707L10.111 20.6957H10.149C10.173 20.6957 10.199 20.6837 10.225 20.6587H10.262C10.262 20.6337 10.275 20.6207 10.299 20.6207C10.324 20.5967 10.349 20.5847 10.373 20.5847C10.373 20.5597 10.386 20.5467 10.411 20.5467V20.5097C10.435 20.5097 10.448 20.4967 10.448 20.4717C10.497 20.4717 10.547 20.4587 10.596 20.4337H10.635C10.635 20.4087 10.647 20.3967 10.672 20.3967H10.71C10.734 20.3967 10.759 20.3967 10.784 20.3967L10.823 20.3577H10.859C10.885 20.3577 10.897 20.3457 10.897 20.3217C10.922 20.3217 10.934 20.3087 10.934 20.2837V20.2457H10.971C10.971 20.2207 10.984 20.2087 11.009 20.2087H11.047C11.072 20.2087 11.097 20.2087 11.122 20.2087C11.147 20.1837 11.184 20.1717 11.234 20.1717C11.26 20.1717 11.283 20.1597 11.309 20.1337C11.357 20.1337 11.409 20.1227 11.457 20.0967H11.494C11.518 20.0717 11.544 20.0587 11.569 20.0587C11.595 20.0587 11.608 20.0477 11.608 20.0217C11.656 20.0217 11.694 20.0217 11.717 20.0217C11.717 19.9967 11.717 19.9727 11.717 19.9467C11.743 19.8967 11.769 19.8607 11.794 19.8357C11.818 19.7847 11.843 19.7487 11.868 19.7237C11.868 19.6997 11.868 19.6617 11.868 19.6127C11.868 19.5877 11.868 19.5497 11.868 19.4997C11.868 19.4757 11.868 19.4507 11.868 19.4257V19.3877C10.972 19.3877 10.076 19.3877 9.18005 19.3877V19.4257C9.17905 19.4517 9.16705 19.4637 9.14205 19.4637ZM5.44805 25.7327C5.39905 25.7327 5.36005 25.7327 5.33605 25.7327L5.37405 25.7707C5.39805 25.7447 5.42205 25.7337 5.44805 25.7327ZM22.874 24.6877H22.912L22.874 24.6507V24.6877Z" fill="#9FB1C9"/>
</g>
<defs>
<clipPath id="clip0_28409_24683">
<rect width="99.75" height="32" fill="white" transform="translate(0 0.133789)"/>
</clipPath>
</defs>
</svg>
