<svg width="43" height="32" viewBox="0 0 43 32" fill="none" xmlns="http://www.w3.org/2000/svg">
<g clip-path="url(#clip0_28409_24686)">
<path fill-rule="evenodd" clip-rule="evenodd" d="M19.3182 11.7589H16.3012C15.9042 11.7589 15.7052 11.9579 15.7052 12.3539V14.0559C15.7052 14.4809 15.9042 14.6919 16.3012 14.6919H17.9162C18.4832 14.6919 18.9632 14.5229 19.3612 14.1829C19.7292 13.8429 19.9122 13.4889 19.9122 13.1199V12.6519C19.9122 12.4529 19.8562 12.2699 19.7432 12.0999C19.6302 11.8729 19.4882 11.7589 19.3182 11.7589ZM41.5952 5.12694C41.7632 5.15694 41.8642 5.19794 41.8932 5.25494C41.8932 5.28494 41.8782 5.43994 41.8492 5.72294L41.0432 11.5909C40.9302 12.0719 40.4902 12.4399 39.7252 12.6949L36.7912 13.5029C36.2532 13.6449 35.9562 13.7149 35.8992 13.7149L31.0942 13.7999C30.6692 13.7999 30.4562 13.9129 30.4562 14.1399V16.0109C30.4562 16.5779 30.2592 16.8469 29.8612 16.8179C29.5782 16.7339 29.3372 16.6909 29.1382 16.6909H22.5072C21.9682 16.8319 21.6002 16.9039 21.4012 16.9039C21.2872 16.9039 21.1892 16.7909 21.1022 16.5619L21.0612 16.1799C20.6362 16.8589 20.2102 17.2009 19.7842 17.2009H15.5762C15.0672 17.2009 14.7832 17.5409 14.7272 18.2209C14.6972 18.3059 14.5262 18.6599 14.2152 19.2829C13.9042 19.9079 13.6932 20.4459 13.5772 20.8999C12.7552 24.0729 12.2882 26.1709 12.1762 27.1919C12.1182 27.9569 12.1892 29.1049 12.3872 30.6349C12.3872 31.1159 12.0472 31.2149 11.3662 30.9319C11.0542 31.1589 10.6452 31.2139 10.1352 31.1029C9.45517 30.9889 8.23517 30.7339 6.47917 30.3369C4.29517 29.8559 2.90617 29.5019 2.31217 29.2739C1.63217 29.0179 1.22117 28.6219 1.07917 28.0839C0.908171 27.5459 0.951171 26.7089 1.20617 25.5759C1.43417 24.4999 1.91717 22.4999 2.65517 19.5819C3.36117 16.7759 3.74517 15.2599 3.80217 15.0329C3.97117 14.6639 4.11317 14.3249 4.22617 14.0129C4.42417 13.4169 4.53817 12.9069 4.56617 12.4819C4.59517 12.0559 4.35417 11.5609 3.84317 10.9929C3.75917 10.9369 3.37617 10.5969 2.69517 9.97294C2.41417 9.71794 2.27117 9.36394 2.27117 8.91094V4.57594C2.27117 3.95194 2.39917 3.47094 2.65517 3.12994C2.79617 2.95994 3.07917 2.67594 3.50317 2.27894C3.92817 1.93994 4.21117 1.71194 4.35417 1.59894C4.46717 1.54294 5.14717 1.64294 6.39517 1.89694C6.56417 1.92594 6.69217 1.99694 6.77717 2.10894C6.86117 2.19394 6.91917 2.23794 6.94617 2.23794C7.14417 2.17994 7.82517 2.29394 8.98617 2.57794C9.24217 2.63394 10.2492 2.66294 12.0052 2.66294C13.0262 2.66294 13.6202 2.74794 13.7912 2.91694C13.9332 3.05794 14.0032 3.22894 14.0032 3.42594L14.3012 3.29894C14.5272 3.21494 14.7272 3.17194 14.8962 3.17194H22.8032C23.1152 3.17194 23.4552 3.25694 23.8242 3.42594C23.7672 3.31394 23.7532 3.17194 23.7812 3.00094C23.8102 2.80294 24.0502 2.66294 24.5032 2.57694C24.6732 2.54694 24.9152 2.58994 25.2282 2.70394L25.6542 2.27794C25.6802 2.24894 25.7092 2.13694 25.7372 1.93894C25.7372 1.73994 25.8222 1.61294 25.9912 1.55694C26.6162 1.32894 27.0682 1.30094 27.3522 1.47194C27.5222 1.55694 27.9622 1.72594 28.6692 1.98094C29.3492 2.23794 29.7892 2.37894 29.9882 2.40694C30.1002 2.40694 30.2852 2.34994 30.5402 2.23794C30.7662 2.15094 30.9812 2.13794 31.1772 2.19494C31.5452 2.27894 32.7222 2.52094 34.7072 2.91794C34.9892 3.03094 35.3432 3.22994 35.7682 3.51294C35.8812 3.57094 36.1222 3.58394 36.4922 3.55594C36.8602 3.55594 37.1022 3.56994 37.2152 3.59794C37.3552 3.65494 37.4262 3.72594 37.4262 3.80994C37.4262 3.92394 37.4402 3.99594 37.4692 4.02194C37.6112 4.10694 38.2332 4.27794 39.3392 4.53294C39.5082 4.58894 39.6642 4.68794 39.8072 4.82894C39.9492 4.94294 40.0462 5.00094 40.1042 5.00094C40.1622 5.00094 40.2612 4.97094 40.4022 4.91594C40.5152 4.82994 40.6292 4.80294 40.7412 4.82994L41.5952 5.12694Z" fill="#9FB1C9"/>
</g>
<defs>
<clipPath id="clip0_28409_24686">
<rect width="41.5" height="32" fill="white" transform="translate(0.625)"/>
</clipPath>
</defs>
</svg>
