<svg width="53" height="32" viewBox="0 0 53 32" fill="none" xmlns="http://www.w3.org/2000/svg">
<g clip-path="url(#clip0_28409_24691)">
<path fill-rule="evenodd" clip-rule="evenodd" d="M24.5634 1.99796C24.5634 1.96896 24.5774 1.95296 24.6074 1.95296C24.6654 1.92496 24.7234 1.91096 24.7834 1.91096L24.8254 1.86796C24.8544 1.83796 24.8834 1.82096 24.9104 1.82096L24.9564 1.77896C24.9844 1.74896 25.0154 1.73496 25.0434 1.73496C25.0434 1.70596 25.0584 1.69196 25.0864 1.69196H25.1294V1.64696C25.1604 1.64696 25.1884 1.63396 25.2194 1.60296L25.3054 1.51596C25.3334 1.51596 25.3484 1.50096 25.3484 1.47296C25.3774 1.47296 25.3934 1.45996 25.3934 1.42996C25.4514 1.42996 25.4934 1.41496 25.5214 1.38596C25.5524 1.35596 25.5804 1.34196 25.6094 1.34196C25.6974 1.34196 25.7994 1.34196 25.9154 1.34196C25.9154 1.31396 25.9154 1.28296 25.9154 1.25496H25.9604V1.20996C26.1344 1.20996 26.3094 1.22496 26.4824 1.25396V1.29596C26.5124 1.32596 26.5414 1.34096 26.5704 1.34096V1.38496C26.5994 1.38496 26.6284 1.39996 26.6584 1.42896L26.7004 1.47196C26.7294 1.47196 26.7594 1.48596 26.7884 1.51496V1.56096C26.8174 1.56096 26.8314 1.57396 26.8314 1.60196C26.8894 1.60196 26.9174 1.61896 26.9174 1.64596C26.9474 1.67496 26.9754 1.68996 27.0064 1.68996C27.0354 1.68996 27.0494 1.70396 27.0494 1.73296C27.0794 1.73296 27.1074 1.74696 27.1374 1.77696C27.1374 1.80496 27.1524 1.81896 27.1814 1.81896H27.2684L27.3114 1.86596C27.3414 1.89296 27.3714 1.90896 27.3984 1.90896L27.4444 1.99596L27.5284 2.03796C27.5904 2.03796 27.6324 2.05496 27.6604 2.08296C27.6914 2.11096 27.7194 2.14096 27.7474 2.16996V2.25996C27.7474 2.28796 27.7474 2.33196 27.7474 2.38996V2.52096C27.7474 2.58096 27.7474 2.62396 27.7474 2.65396V2.86996C27.7474 2.92896 27.7474 2.97296 27.7474 3.00296C27.7474 3.03096 27.7474 3.06096 27.7474 3.08896V3.22096C27.7474 3.27896 27.7474 3.32196 27.7474 3.35096C34.0134 3.35096 40.2744 3.35096 46.5374 3.35096V3.30596C46.5374 3.27796 46.5374 3.24996 46.5374 3.22096C46.5374 3.19196 46.5374 3.16196 46.5374 3.13296C46.5374 3.10496 46.5374 3.07396 46.5374 3.04696C46.5374 3.01596 46.5374 2.98696 46.5374 2.95896C46.5374 2.92996 46.5374 2.89896 46.5374 2.87096H46.5814C46.6094 2.87096 46.6394 2.87096 46.6684 2.87096C46.6684 2.84196 46.6824 2.81496 46.7104 2.78396C46.7404 2.78396 46.7534 2.76896 46.7534 2.74096H46.7964C46.7964 2.71296 46.8114 2.68296 46.8404 2.65496H46.8854C46.8854 2.62496 46.8854 2.59596 46.8854 2.56696C46.9144 2.56696 46.9434 2.55196 46.9714 2.52296H47.0144C47.0144 2.49396 47.0304 2.46496 47.0584 2.43696C47.0874 2.43696 47.1024 2.42196 47.1024 2.39296C47.1314 2.39296 47.1454 2.37996 47.1454 2.34896V2.30196C47.1454 2.27296 47.1584 2.25996 47.1894 2.25996L47.2324 2.21596V2.17096C47.6404 2.17096 48.0644 2.17096 48.4994 2.17096V2.21496L48.5874 2.30096C48.5874 2.32996 48.6024 2.34396 48.6304 2.34396C48.6304 2.37496 48.6454 2.38796 48.6744 2.38796V2.43196C48.7034 2.46096 48.7174 2.48896 48.7174 2.51796H48.7624L48.8064 2.56196C48.8344 2.59096 48.8644 2.62096 48.8924 2.64996C48.8924 2.67796 48.8924 2.70796 48.8924 2.73596C48.9224 2.73596 48.9504 2.73596 48.9794 2.73596C48.9794 2.76496 48.9934 2.77896 49.0224 2.77896C49.0224 2.80996 49.0374 2.83796 49.0674 2.86596C49.0944 2.86596 49.1254 2.86596 49.1534 2.86596C49.1534 2.92496 49.1534 2.96896 49.1534 2.99896C49.1534 3.02696 49.1534 3.05696 49.1534 3.08496V3.21696C49.1534 3.24696 49.1534 3.27496 49.1534 3.30196C49.1834 3.33296 49.2134 3.34596 49.2414 3.34596C49.2414 3.37596 49.2414 3.41896 49.2414 3.47796C49.3294 3.47796 49.4174 3.47796 49.5034 3.47796C49.5034 3.53796 49.5034 3.57896 49.5034 3.60796V3.69796C49.5424 3.72996 49.5714 3.75896 49.6004 3.78996C49.6294 3.81696 49.6744 3.83196 49.7324 3.83196C49.7324 3.86096 49.7464 3.89096 49.7754 3.91996H49.8194C49.8474 3.94896 49.9064 3.96296 49.9934 3.96296V4.04996C49.9934 4.10796 49.9934 4.15196 49.9934 4.17996V4.39796C49.9934 4.45796 49.9934 4.50196 49.9934 4.52996V4.61796C49.9934 4.64496 49.9934 4.67696 49.9934 4.70496C49.9934 4.73296 50.0224 4.74996 50.0804 4.74996C50.0804 4.80996 50.0804 4.85196 50.0804 4.88296V4.96896C50.1114 4.99696 50.1554 5.01196 50.2124 5.01196C50.2124 5.04196 50.2124 5.07096 50.2124 5.09896C50.2124 5.12796 50.2124 5.15796 50.2124 5.18796C50.2124 5.21596 50.2124 5.24396 50.2124 5.27296C50.2124 5.30296 50.2124 5.33096 50.2124 5.36096C50.2124 5.38896 50.2124 5.42096 50.2124 5.44896V5.49296C50.2724 5.49296 50.3454 5.49296 50.4304 5.49296V5.57796C50.4304 5.60796 50.4304 5.65196 50.4304 5.71096C50.8984 5.71096 51.3654 5.71096 51.8294 5.71096C51.8294 5.73896 51.8294 5.78096 51.8294 5.84096C51.9164 5.84096 52.0024 5.84096 52.0924 5.84096C52.0924 5.86996 52.0924 5.89996 52.0924 5.92996C52.0924 5.95796 52.0924 5.98696 52.0924 6.01596C52.0924 6.04496 52.0924 6.07496 52.0924 6.10296C52.0924 6.12996 52.0924 6.16196 52.0924 6.18996C52.0924 6.22096 52.0924 6.24896 52.0924 6.27596C52.0924 6.30696 52.0924 6.33596 52.0924 6.36396C52.0924 6.39396 52.0924 6.42196 52.0924 6.45296C52.0924 6.48096 52.0924 6.50996 52.0924 6.53996C52.0924 6.56796 52.0924 6.59796 52.0924 6.62596C52.0924 6.65596 52.0924 6.68596 52.0924 6.71396C52.0924 6.74396 52.0924 6.77396 52.0924 6.80096C52.0924 6.83096 52.0924 6.85996 52.0924 6.88996C52.0924 6.91696 52.0924 6.94696 52.0924 6.97696C52.0924 7.00596 52.0924 7.03396 52.0924 7.06496C52.0924 7.09296 52.0924 7.12296 52.0924 7.15096C52.0924 7.17996 52.0924 7.20996 52.0924 7.23796C52.0924 7.26796 52.0924 7.29696 52.0924 7.32496C52.0924 7.35296 52.0924 7.38396 52.0924 7.41096C52.0924 7.44096 52.0924 7.46896 52.0924 7.50196C52.0924 7.52896 52.0924 7.55996 52.0924 7.58796C52.0924 7.61696 52.0924 7.64496 52.0924 7.67396C52.0924 7.70196 52.0924 7.73196 52.0924 7.75996V7.84796C52.0924 7.87796 52.0924 7.90596 52.0924 7.93596C52.0924 7.96496 52.0924 7.99296 52.0924 8.02396V8.06696C52.0344 8.06696 51.9894 8.06696 51.9604 8.06696C51.4354 8.03696 50.8984 8.02396 50.3444 8.02396V8.06696C50.2854 8.06696 50.2404 8.06696 50.2114 8.06696C50.2114 8.12596 50.2114 8.16896 50.2114 8.19796C50.2114 8.22796 50.2114 8.25596 50.2114 8.28496V8.41996C50.1544 8.41996 50.1104 8.41996 50.0794 8.41996C50.0794 8.47896 50.0794 8.52196 50.0794 8.54996C50.0794 8.57896 50.0794 8.61096 50.0794 8.63896C50.0794 8.66796 50.0794 8.69896 50.0794 8.72596V8.76996C50.0524 8.82796 50.0214 8.87196 49.9934 8.89896C49.9934 8.92896 49.9794 8.95696 49.9514 8.98696C49.9204 9.01596 49.8904 9.04496 49.8634 9.07496C49.8634 9.10296 49.8634 9.13396 49.8634 9.16196V9.20596C49.8044 9.23296 49.7454 9.24896 49.6874 9.24896C49.6874 9.30796 49.6874 9.35296 49.6874 9.38096V9.42296C49.6874 9.45196 49.6744 9.46796 49.6444 9.46796C49.6444 9.49796 49.6294 9.51196 49.6004 9.51196C49.6004 9.53896 49.6004 9.57096 49.6004 9.59796L49.5584 9.64096C49.5584 9.67096 49.5424 9.68596 49.5134 9.68596V9.72996L49.4704 9.77396V9.86196C49.4414 9.86196 49.4274 9.87696 49.4274 9.90596C49.3964 9.90596 49.3394 9.90596 49.2514 9.90596V9.94996C49.2514 10.008 49.2514 10.05 49.2514 10.08V10.169L49.2074 10.211V10.255C49.0034 10.255 48.7864 10.255 48.5524 10.255V10.211C44.3584 10.182 40.1624 10.153 35.9694 10.125V10.169C35.7054 10.169 35.4604 10.169 35.2244 10.169C35.2244 10.198 35.2244 10.227 35.2244 10.255V10.3C35.2244 10.358 35.2244 10.402 35.2244 10.43C35.2244 10.459 35.2244 10.488 35.2244 10.517C35.2244 10.547 35.2244 10.576 35.2244 10.605C35.2244 10.634 35.2244 10.663 35.2244 10.693C35.2244 10.721 35.2244 10.751 35.2244 10.779C35.2244 10.809 35.2244 10.84 35.2244 10.867C35.2244 10.897 35.2244 10.925 35.2244 10.955C35.2244 10.982 35.2244 11.013 35.2244 11.041C35.2244 11.071 35.2244 11.101 35.2244 11.128C35.2244 11.158 35.2244 11.187 35.2244 11.215C35.2244 11.246 35.2244 11.275 35.2244 11.304C35.2244 11.332 35.2244 11.364 35.2244 11.392C35.2244 11.419 35.2244 11.45 35.2244 11.478C35.2244 11.507 35.2244 11.537 35.2244 11.564C35.2244 11.594 35.2244 11.623 35.2244 11.654C35.2244 11.683 35.2244 11.711 35.2244 11.741C35.2244 11.768 35.2244 11.798 35.2244 11.827C35.2244 11.855 35.2244 11.886 35.2244 11.914C35.2244 11.943 35.2244 11.972 35.2244 12C35.2244 12.028 35.2244 12.059 35.2244 12.089C35.2244 12.117 35.2244 12.147 35.2244 12.177C35.2244 12.205 35.2244 12.235 35.2244 12.263C35.2244 12.292 35.2244 12.323 35.2244 12.35C35.2244 12.378 35.2244 12.409 35.2244 12.438C35.2244 12.466 35.2244 12.497 35.2244 12.525C35.2244 12.555 35.2244 12.584 35.2244 12.612C35.2244 12.642 35.2244 12.671 35.2244 12.7C35.2244 12.729 35.2244 12.757 35.2244 12.787C35.2244 12.815 35.2244 12.844 35.2244 12.875C35.1674 12.875 35.1084 12.875 35.0514 12.875V12.961C34.7294 12.991 34.4094 13.019 34.0904 13.048V13.092C33.8274 13.092 33.5674 13.078 33.3034 13.048C33.2434 13.048 33.2014 13.048 33.1724 13.048C33.1144 13.048 33.0564 13.048 32.9964 13.048V13.135C32.9694 13.135 32.9394 13.135 32.9114 13.135C32.8814 13.164 32.8524 13.18 32.8234 13.18C32.8234 13.207 32.8234 13.238 32.8234 13.266C32.7954 13.266 32.7654 13.266 32.7384 13.266C32.7384 13.295 32.7384 13.325 32.7384 13.353V13.397H32.6934C32.6634 13.426 32.6484 13.456 32.6484 13.484H32.6054C32.6054 13.515 32.6054 13.542 32.6054 13.572L32.5614 13.617H32.5194C32.4904 13.644 32.4754 13.675 32.4754 13.702V13.747H32.4304C32.4024 13.777 32.3884 13.807 32.3884 13.835L32.2574 13.967C32.2574 13.994 32.2574 14.024 32.2574 14.053C32.2284 14.053 32.2114 14.068 32.2114 14.096H32.1694C32.1424 14.126 32.1254 14.155 32.1254 14.184V14.271C32.0964 14.271 32.0684 14.285 32.0394 14.315H31.9904C31.9904 14.344 31.9904 14.374 31.9904 14.404C31.9634 14.404 31.9494 14.417 31.9494 14.445C31.9204 14.445 31.9054 14.46 31.9054 14.489V14.532C31.8764 14.562 31.8484 14.576 31.8184 14.576L31.7744 14.618V14.664H31.7304C31.7304 14.692 31.7304 14.722 31.7304 14.752C31.7024 14.752 31.6714 14.765 31.6434 14.794V14.837C31.6144 14.837 31.5994 14.85 31.5994 14.881C31.5414 14.881 31.4834 14.895 31.4254 14.923L31.3814 15.011V15.053L31.2934 15.14V15.316C31.2934 15.344 31.2934 15.375 31.2934 15.404V15.535C31.2934 15.563 31.2934 15.594 31.2934 15.621V15.664C31.2934 15.695 31.2934 15.723 31.2934 15.753V15.794C31.2934 15.824 31.2934 15.854 31.2934 15.882C31.2934 15.912 31.2934 15.942 31.2934 15.97V16.143C31.2934 16.173 31.2934 16.202 31.2934 16.231C31.2934 16.261 31.2934 16.289 31.2934 16.319V16.581C31.2934 16.61 31.2934 16.637 31.2934 16.669V16.929C31.2934 16.96 31.2934 16.988 31.2934 17.017V17.279C31.2934 17.307 31.2934 17.338 31.2934 17.366V17.629C31.2934 17.657 31.2934 17.687 31.2934 17.715V17.979C31.2934 18.007 31.2934 18.037 31.2934 18.064C31.3814 18.064 31.4994 18.064 31.6444 18.064C31.6734 18.094 31.7174 18.124 31.7754 18.152C31.7754 18.21 31.7914 18.24 31.8194 18.24C31.8194 18.267 31.8334 18.298 31.8624 18.325C31.8624 18.358 31.8624 18.398 31.8624 18.458V18.589C31.8624 18.617 31.8624 18.648 31.8624 18.675C31.8624 18.705 31.8624 18.749 31.8624 18.807V18.937C31.8624 18.966 31.8624 19.01 31.8624 19.068L31.9064 19.112V19.464C31.9064 19.492 31.8904 19.506 31.8624 19.506V19.55L31.8194 19.592V19.898L31.7754 19.942V20C31.7464 20 31.7314 20.014 31.7314 20.043C31.7314 20.073 31.7174 20.087 31.6874 20.087V20.13C31.6594 20.13 31.6444 20.143 31.6444 20.174C31.6444 20.201 31.6444 20.233 31.6444 20.26V20.348C31.5854 20.348 31.5414 20.348 31.5134 20.348C31.4844 20.348 31.4554 20.361 31.4254 20.392C31.4254 20.421 31.4124 20.436 31.3814 20.436C31.3524 20.465 31.3224 20.479 31.2934 20.479V20.523H31.2494C31.2214 20.523 31.1924 20.537 31.1624 20.565C31.1344 20.565 31.1064 20.578 31.0754 20.609C31.0484 20.609 31.0154 20.609 30.9884 20.609C30.9884 20.639 30.9734 20.653 30.9444 20.653V20.697C30.9444 20.726 30.9444 20.756 30.9444 20.783V20.827C30.9164 20.827 30.8864 20.841 30.8584 20.871C30.8584 20.899 30.8584 20.929 30.8584 20.959V21.001C30.8584 21.03 30.8584 21.061 30.8584 21.088C30.8584 21.118 30.8424 21.147 30.8154 21.177L30.7684 21.219V21.264C30.7684 21.291 30.7684 21.321 30.7684 21.35C30.7684 21.38 30.7684 21.41 30.7684 21.438C30.7684 21.467 30.7684 21.496 30.7684 21.524C30.7684 21.555 30.7684 21.584 30.7684 21.611C30.7684 21.641 30.7684 21.672 30.7684 21.701C30.7684 21.728 30.7684 21.757 30.7684 21.787C30.7684 21.817 30.7684 21.845 30.7684 21.875C30.7684 21.903 30.7684 21.933 30.7684 21.962C30.7684 21.99 30.7684 22.021 30.7684 22.049C30.7684 22.079 30.7684 22.108 30.7684 22.136C30.7684 22.166 30.7684 22.195 30.7684 22.225C30.7684 22.254 30.7684 22.282 30.7684 22.311C30.7684 22.34 30.7684 22.368 30.7684 22.399C30.7684 22.426 30.7684 22.458 30.7684 22.486C30.7684 22.516 30.7684 22.545 30.7684 22.572C30.7684 22.603 30.7684 22.631 30.7684 22.66C30.7684 22.689 30.7684 22.718 30.7684 22.748C30.7684 22.776 30.7684 22.806 30.7684 22.835C30.7684 22.863 30.7684 22.895 30.7684 22.922C30.7684 22.952 30.7684 22.981 30.7684 23.011V23.097C30.7684 23.125 30.7684 23.155 30.7684 23.182C30.7684 23.212 30.7684 23.243 30.7684 23.272C30.7684 23.301 30.7684 23.329 30.7684 23.358V23.446C30.7684 23.474 30.7684 23.504 30.7684 23.531C30.7684 23.562 30.7684 23.605 30.7684 23.664V23.795C30.7684 23.823 30.7684 23.853 30.7684 23.883C30.7684 23.91 30.7684 23.955 30.7684 24.013V24.144C30.7684 24.173 30.7684 24.216 30.7684 24.275V24.5C30.7684 24.558 30.7684 24.601 30.7684 24.63V24.849C30.7684 24.908 30.7684 24.95 30.7684 24.981V25.198C30.7684 25.256 30.7684 25.301 30.7684 25.329V25.416C30.7684 25.446 30.7684 25.475 30.7684 25.505V25.548C30.7684 25.607 30.7684 25.651 30.7684 25.68V25.766C30.7684 25.795 30.7684 25.824 30.7684 25.854V25.897C30.7684 25.956 30.7684 25.999 30.7684 26.029V26.115C30.7684 26.144 30.7684 26.174 30.7684 26.201C30.7684 26.229 30.7684 26.261 30.7684 26.291C30.7684 26.32 30.7684 26.349 30.7684 26.376C30.7684 26.407 30.7684 26.435 30.7684 26.463V27.949C30.7684 27.979 30.7684 28.008 30.7684 28.038V28.562C30.7684 28.59 30.7684 28.622 30.7684 28.649C30.7684 28.679 30.7684 28.708 30.7684 28.737V28.911C30.7684 28.94 30.7684 28.969 30.7684 28.997C30.7684 29.027 30.7684 29.058 30.7684 29.086V29.129C30.7684 29.159 30.7684 29.187 30.7684 29.215V29.346C30.7684 29.376 30.7684 29.406 30.7684 29.434V29.61C30.7684 29.638 30.7684 29.668 30.7684 29.697V29.958C30.7684 29.987 30.7684 30.017 30.7684 30.047C30.7684 30.074 30.7684 30.106 30.7684 30.135V30.309C30.7684 30.339 30.7684 30.368 30.7684 30.396C30.7684 30.424 30.7684 30.455 30.7684 30.482V30.746C30.7684 30.773 30.7684 30.804 30.7684 30.832V31.006C28.4264 31.006 26.0784 31.006 23.7354 31.006V30.832C23.7354 30.804 23.7354 30.773 23.7354 30.746V30.135C23.7354 30.106 23.7354 30.074 23.7354 30.047C23.7354 30.017 23.7354 29.987 23.7354 29.958V29.783C23.7354 29.756 23.7354 29.725 23.7354 29.698C23.7354 29.669 23.7354 29.639 23.7354 29.611V29.435C23.7354 29.407 23.7354 29.377 23.7354 29.347C23.7354 29.32 23.7354 29.289 23.7354 29.261V29.086C23.7354 29.057 23.7354 29.027 23.7354 28.997C23.7354 28.969 23.7354 28.94 23.7354 28.911V28.737C23.7354 28.708 23.7354 28.678 23.7354 28.649C23.7354 28.622 23.7354 28.59 23.7354 28.562V28.387C23.7354 28.359 23.7354 28.329 23.7354 28.299C23.7354 28.271 23.7354 28.241 23.7354 28.213V28.04C23.7354 28.01 23.7354 27.981 23.7354 27.951V26.465C23.7354 26.437 23.7354 26.408 23.7354 26.378C23.7354 26.351 23.7354 26.322 23.7354 26.293C23.7354 26.263 23.7354 26.231 23.7354 26.203C23.7354 26.176 23.7354 26.146 23.7354 26.117V26.03C23.7354 26 23.7354 25.956 23.7354 25.898V25.855C23.7354 25.825 23.7354 25.795 23.7354 25.767V25.68C23.7354 25.651 23.7354 25.607 23.7354 25.548V25.505C23.7354 25.475 23.7354 25.446 23.7354 25.416V25.329C23.7354 25.301 23.7354 25.256 23.7354 25.198V24.981C23.7354 24.95 23.7354 24.908 23.7354 24.849V24.63C23.7354 24.601 23.7354 24.558 23.7354 24.5V24.281C23.7354 24.222 23.7354 24.179 23.7354 24.15V24.02C23.7354 23.961 23.7354 23.917 23.7354 23.89C23.7354 23.859 23.7354 23.83 23.7354 23.802V23.67C23.7354 23.611 23.7354 23.568 23.7354 23.537C23.7354 23.51 23.7354 23.48 23.7354 23.452V23.364C23.7354 23.334 23.7354 23.307 23.7354 23.278C23.7354 23.249 23.7354 23.218 23.7354 23.188C23.7354 23.16 23.7354 23.131 23.7354 23.103V23.017C23.7354 22.987 23.7354 22.957 23.7354 22.928C23.7354 22.901 23.7354 22.869 23.7354 22.841C23.7354 22.812 23.7354 22.782 23.7354 22.754C23.7354 22.724 23.7354 22.695 23.7354 22.666C23.7354 22.637 23.7354 22.609 23.7354 22.578C23.7354 22.551 23.7354 22.521 23.7354 22.492C23.7354 22.464 23.7354 22.432 23.7354 22.405C23.7354 22.374 23.7354 22.345 23.7354 22.317C23.7354 22.288 23.7354 22.259 23.7354 22.231C23.7354 22.201 23.7354 22.172 23.7354 22.142C23.7354 22.114 23.7354 22.085 23.7354 22.055C23.7354 22.027 23.7354 21.996 23.7354 21.968C23.7354 21.939 23.7354 21.909 23.7354 21.881C23.7354 21.851 23.7354 21.823 23.7354 21.793C23.7354 21.763 23.7354 21.734 23.7354 21.707C23.7354 21.677 23.7354 21.647 23.7354 21.617C23.7354 21.59 23.7354 21.561 23.7354 21.53C23.7354 21.502 23.7354 21.473 23.7354 21.444C23.7354 21.416 23.7354 21.386 23.7354 21.356C23.7354 21.327 23.7354 21.297 23.7354 21.27C23.7354 21.239 23.7354 21.21 23.7354 21.183C23.7354 21.153 23.7354 21.123 23.7354 21.094C23.7354 21.066 23.7354 21.036 23.7354 21.007C23.7354 20.98 23.7354 20.949 23.7354 20.921V20.833H23.6914C23.6634 20.833 23.6494 20.847 23.6494 20.877C23.6494 20.905 23.6494 20.935 23.6494 20.965C23.6194 20.992 23.5894 21.021 23.5584 21.051C23.5314 21.081 23.5164 21.109 23.5164 21.14V21.184C23.4864 21.211 23.4424 21.241 23.3844 21.271C23.3544 21.298 23.3404 21.328 23.3404 21.357C23.3114 21.387 23.2984 21.417 23.2984 21.445C22.9474 21.445 22.5834 21.445 22.2044 21.445C22.2044 21.417 22.2044 21.387 22.2044 21.357C22.0874 21.328 21.9714 21.312 21.8554 21.312C21.8274 21.284 21.8124 21.254 21.8124 21.226C21.6944 21.197 21.5934 21.184 21.5054 21.184C21.5054 21.154 21.5054 21.124 21.5054 21.095V21.052C21.4764 21.052 21.4474 21.052 21.4174 21.052C21.4174 21.022 21.4174 20.993 21.4174 20.966C21.4174 20.936 21.4174 20.906 21.4174 20.878C21.4174 20.848 21.4174 20.82 21.4174 20.789C21.4174 20.761 21.4174 20.732 21.4174 20.703C21.4174 20.675 21.4174 20.645 21.4174 20.615C21.4174 20.584 21.4174 20.557 21.4174 20.53C21.4174 20.499 21.4174 20.471 21.4174 20.443C21.4174 20.413 21.4174 20.384 21.4174 20.354C21.4174 20.324 21.4174 20.295 21.4174 20.266C21.4174 20.239 21.4174 20.207 21.4174 20.18C21.4174 20.149 21.4174 20.121 21.4174 20.093C21.4174 20.063 21.4174 20.035 21.4174 20.006C21.4174 19.976 21.4174 19.948 21.4174 19.918C21.4174 19.891 21.4174 19.861 21.4174 19.83C21.4174 19.802 21.4174 19.771 21.4174 19.743C21.4174 19.714 21.4174 19.686 21.4174 19.656C21.4174 19.626 21.4174 19.598 21.4174 19.569C21.4174 19.54 21.4174 19.511 21.4174 19.483C21.4174 19.453 21.4174 19.422 21.4174 19.394C21.4174 19.365 21.4174 19.336 21.4174 19.307C21.4174 19.278 21.4174 19.233 21.4174 19.175V19.132C21.4174 19.105 21.4174 19.075 21.4174 19.047C21.4174 19.017 21.4174 18.986 21.4174 18.957C21.4174 18.928 21.4174 18.887 21.4174 18.827V18.695C21.4174 18.668 21.4174 18.637 21.4174 18.609C19.6994 18.609 17.9804 18.609 16.2614 18.609C16.2614 18.637 16.2614 18.668 16.2614 18.695C16.2614 18.725 16.2614 18.769 16.2614 18.827V18.957C16.2614 18.986 16.2614 19.03 16.2614 19.088V19.3C16.2614 19.358 16.2614 19.404 16.2614 19.432V19.563C15.2714 19.534 14.2804 19.519 13.2904 19.519V19.563L13.2484 19.65C13.2184 19.708 13.2044 19.752 13.2044 19.783C13.1764 19.783 13.1464 19.81 13.1184 19.868L13.0744 19.911C13.0744 19.969 13.0604 19.999 13.0304 19.999C13.0004 20.057 12.9714 20.101 12.9444 20.13V20.218C12.9144 20.246 12.9004 20.274 12.9004 20.303L12.8564 20.347C12.8564 20.406 12.8564 20.45 12.8564 20.479V20.653C12.7954 20.682 12.7524 20.697 12.7254 20.697C12.7254 20.726 12.7254 20.756 12.7254 20.783C12.7254 20.814 12.7104 20.842 12.6824 20.872C12.6534 20.9 12.6224 20.93 12.5934 20.96C12.5934 20.987 12.5804 21.016 12.5494 21.046C12.5494 21.076 12.5344 21.104 12.5064 21.135C12.5064 21.164 12.5064 21.192 12.5064 21.221C12.5064 21.249 12.5064 21.279 12.5064 21.307C12.5064 21.336 12.5064 21.382 12.5064 21.44C12.4764 21.44 12.4494 21.454 12.4184 21.484C12.3904 21.513 12.3764 21.541 12.3764 21.572C12.3764 21.6 12.3604 21.628 12.3314 21.659C12.3034 21.687 12.2744 21.731 12.2434 21.789L12.1994 21.832C12.1994 21.863 12.1994 21.892 12.1994 21.92C12.1994 21.949 12.1994 21.979 12.1994 22.009C12.1724 22.036 12.1574 22.081 12.1574 22.138V22.181L12.1144 22.27L12.0264 22.355C12.0264 22.385 12.0264 22.428 12.0264 22.488C11.9984 22.488 11.9684 22.503 11.9404 22.531C11.9404 22.589 11.9114 22.619 11.8534 22.619V22.706C11.8534 22.734 11.8534 22.778 11.8534 22.837L11.8074 22.88V22.966C11.8074 23.026 11.8074 23.07 11.8074 23.099V23.229C11.7474 23.258 11.7064 23.274 11.6764 23.274C11.6764 23.303 11.6764 23.331 11.6764 23.36L11.6344 23.448C11.5744 23.476 11.5324 23.506 11.5034 23.533C11.5034 23.564 11.5034 23.607 11.5034 23.666V23.71L11.4604 23.796C11.4604 23.824 11.4604 23.854 11.4604 23.884C11.4604 23.911 11.4604 23.956 11.4604 24.014C11.4014 24.014 11.3564 24.028 11.3284 24.057V24.145C11.3014 24.174 11.2844 24.217 11.2844 24.276C11.2564 24.276 11.2264 24.304 11.1984 24.362L11.1534 24.406V24.5C11.1534 24.53 11.1534 24.558 11.1534 24.586V24.63C11.1254 24.63 11.0974 24.646 11.0654 24.676C11.0654 24.703 11.0654 24.732 11.0654 24.762C11.0374 24.789 11.0234 24.82 11.0234 24.849C10.9944 24.877 10.9794 24.908 10.9794 24.935C10.9794 24.965 10.9794 24.996 10.9794 25.024C10.9794 25.053 10.9794 25.083 10.9794 25.111C10.9214 25.111 10.8764 25.127 10.8484 25.154C10.8484 25.181 10.8484 25.214 10.8484 25.242V25.328C10.8484 25.358 10.8484 25.402 10.8484 25.46C10.7904 25.46 10.7464 25.474 10.7184 25.504C10.7184 25.534 10.7184 25.561 10.7184 25.59C10.6884 25.65 10.6574 25.678 10.6294 25.678C10.6294 25.706 10.6294 25.75 10.6294 25.809V25.852C10.6294 25.882 10.6294 25.91 10.6294 25.939L10.5864 26.027C10.5274 26.056 10.4984 26.099 10.4984 26.157V26.29C10.4984 26.348 10.4854 26.375 10.4554 26.375C10.3954 26.406 10.3664 26.449 10.3664 26.507V26.638C10.3954 26.698 10.4394 26.726 10.4984 26.726C10.4984 26.754 10.4984 26.785 10.4984 26.812C10.5274 26.842 10.5714 26.858 10.6294 26.858C10.6294 26.885 10.6294 26.929 10.6294 26.986L10.6734 27.031C10.6734 27.061 10.6874 27.089 10.7174 27.118C10.7174 27.147 10.7174 27.176 10.7174 27.207C10.7454 27.235 10.7744 27.278 10.8044 27.336C10.8314 27.336 10.8464 27.35 10.8464 27.38V27.553C10.8464 27.582 10.8464 27.627 10.8464 27.685V27.903C10.8464 27.933 10.8464 27.976 10.8464 28.035V28.167C10.8464 28.224 10.8464 28.268 10.8464 28.296V28.384C10.7884 28.384 10.7444 28.397 10.7164 28.428C10.7164 28.455 10.7164 28.487 10.7164 28.516C10.7164 28.543 10.7164 28.574 10.7164 28.601C10.7164 28.631 10.7164 28.661 10.7164 28.689C10.6554 28.719 10.5984 28.747 10.5404 28.777C10.5124 28.806 10.4974 28.838 10.4974 28.865C10.1764 28.838 9.87243 28.821 9.57843 28.821H9.53343C9.53343 28.794 9.53343 28.762 9.53343 28.734C9.15443 28.734 8.76043 28.719 8.35243 28.689V28.65C7.79843 28.623 7.23243 28.591 6.64943 28.563C6.64943 28.533 6.63443 28.52 6.60643 28.52C5.99243 28.491 5.38143 28.476 4.76943 28.476C4.76943 28.446 4.76943 28.418 4.76943 28.388C4.56543 28.388 4.39243 28.373 4.24743 28.345L4.20343 28.301C3.70643 28.301 3.21243 28.301 2.71743 28.301C2.65843 28.301 2.61543 28.287 2.58643 28.259C2.49943 28.229 2.41143 28.215 2.32543 28.215C2.32543 28.184 2.29443 28.173 2.23743 28.173C1.88643 28.143 1.52343 28.114 1.14543 28.084C1.11543 28.057 1.08543 28.041 1.05743 28.041C1.05743 27.982 1.05743 27.939 1.05743 27.909V27.779C0.88443 27.779 0.72243 27.765 0.57643 27.736C0.54843 27.708 0.51943 27.692 0.49043 27.692C0.49043 27.634 0.49043 27.588 0.49043 27.56C0.46143 27.56 0.43043 27.532 0.40243 27.475C0.37343 27.475 0.34343 27.446 0.31543 27.387V27.343C0.31543 27.285 0.31543 27.242 0.31543 27.214C0.31543 27.183 0.31543 27.154 0.31543 27.125C0.31543 27.096 0.31543 27.068 0.31543 27.038V26.993C0.31543 26.936 0.31543 26.892 0.31543 26.865C0.31543 26.834 0.31543 26.804 0.31543 26.773C0.31543 26.746 0.31543 26.716 0.31543 26.688V26.644C0.31543 26.586 0.31543 26.543 0.31543 26.513C0.31543 26.484 0.31543 26.455 0.31543 26.425C0.31543 26.398 0.31543 26.367 0.31543 26.339C0.31543 26.309 0.31543 26.279 0.31543 26.252C0.31543 26.221 0.31543 26.193 0.31543 26.163C0.31543 26.135 0.31543 26.105 0.31543 26.077C0.31543 26.047 0.31543 26.02 0.31543 25.989C0.31543 25.96 0.31543 25.929 0.31543 25.901C0.31543 25.874 0.31543 25.843 0.31543 25.815C0.34343 25.786 0.37343 25.755 0.40243 25.728C0.43043 25.697 0.46143 25.668 0.49043 25.638C0.49043 25.611 0.49043 25.579 0.49043 25.552C0.49043 25.523 0.49043 25.493 0.49043 25.465C0.51943 25.437 0.54843 25.407 0.57643 25.378C0.57643 25.349 0.59343 25.32 0.62143 25.291C0.62143 25.261 0.62143 25.233 0.62143 25.203C0.62143 25.174 0.62143 25.145 0.62143 25.116C0.62143 25.088 0.62143 25.058 0.62143 25.029C0.62143 25.001 0.62143 24.97 0.62143 24.94C0.62143 24.913 0.63543 24.882 0.66543 24.854C0.69343 24.824 0.70743 24.794 0.70743 24.767C0.70743 24.737 0.70743 24.708 0.70743 24.681C0.70743 24.651 0.70743 24.621 0.70743 24.591C0.70743 24.563 0.70743 24.535 0.70743 24.505C0.70743 24.476 0.70743 24.446 0.70743 24.417V24.373C0.73843 24.373 0.76643 24.373 0.79543 24.373V24.287C0.79543 24.228 0.79543 24.185 0.79543 24.156V24.068C0.82343 24.039 0.85343 24.025 0.88343 24.025C0.91043 23.966 0.92543 23.922 0.92543 23.895C0.92543 23.864 0.93943 23.835 0.96943 23.807V23.721C0.99743 23.691 1.02643 23.677 1.05543 23.677C1.05543 23.618 1.05543 23.575 1.05543 23.544C1.05543 23.517 1.05543 23.487 1.05543 23.459V23.326C1.08343 23.297 1.11343 23.284 1.14343 23.284V23.194C1.14343 23.166 1.14343 23.137 1.14343 23.109C1.20143 23.08 1.25943 23.051 1.31543 23.023C1.31543 22.993 1.31543 22.963 1.31543 22.934C1.31543 22.907 1.31543 22.875 1.31543 22.847C1.31543 22.818 1.31543 22.788 1.31543 22.76C1.37443 22.73 1.40543 22.701 1.40543 22.672C1.40543 22.643 1.40543 22.615 1.40543 22.584C1.40543 22.557 1.40543 22.527 1.40543 22.498C1.43343 22.47 1.46343 22.438 1.49243 22.411C1.52143 22.38 1.55143 22.351 1.58043 22.323C1.60843 22.294 1.63843 22.265 1.66643 22.237C1.66643 22.207 1.66643 22.178 1.66643 22.148C1.72543 22.148 1.77043 22.148 1.79743 22.148C1.79743 22.091 1.79743 22.046 1.79743 22.019C1.79743 21.988 1.79743 21.959 1.79743 21.93C1.82543 21.902 1.85643 21.873 1.88443 21.842C1.88443 21.815 1.89943 21.799 1.93043 21.799C1.95643 21.74 1.97143 21.696 1.97143 21.669C1.97143 21.638 1.98743 21.61 2.01843 21.582C2.07343 21.551 2.11843 21.523 2.14843 21.494V21.45C2.14843 21.392 2.14843 21.346 2.14843 21.317C2.17643 21.289 2.19043 21.259 2.19043 21.231C2.21843 21.202 2.23543 21.173 2.23543 21.145V21.1C2.29243 21.072 2.33643 21.057 2.36443 21.057C2.36443 20.998 2.38143 20.971 2.40943 20.971C2.43843 20.911 2.45143 20.868 2.45143 20.839L2.49643 20.752C2.49643 20.722 2.51043 20.708 2.54143 20.708C2.54143 20.65 2.55643 20.62 2.58343 20.62C2.58343 20.562 2.58343 20.517 2.58343 20.49V20.403C2.64143 20.372 2.68643 20.343 2.71443 20.314V20.26C2.71443 20.201 2.71443 20.158 2.71443 20.13C2.74343 20.13 2.77343 20.101 2.80143 20.042C2.80143 20.013 2.81743 19.984 2.84543 19.955C2.87343 19.927 2.90343 19.896 2.93143 19.868C2.93143 19.84 2.93143 19.81 2.93143 19.783C2.95943 19.752 3.00443 19.722 3.06443 19.693C3.06443 19.664 3.06443 19.635 3.06443 19.606C3.09243 19.579 3.10643 19.549 3.10643 19.519C3.13643 19.491 3.15043 19.463 3.15043 19.433C3.15043 19.405 3.16643 19.374 3.19543 19.347C3.22443 19.316 3.25243 19.287 3.28243 19.258C3.28243 19.228 3.28243 19.2 3.28243 19.17C3.31043 19.142 3.34043 19.112 3.36943 19.083C3.39743 19.056 3.41343 19.024 3.41343 18.997C3.44043 18.968 3.48543 18.939 3.54343 18.909C3.54343 18.882 3.54343 18.851 3.54343 18.822H3.63143C3.63143 18.764 3.63143 18.719 3.63143 18.69C3.66043 18.663 3.67343 18.632 3.67343 18.604C3.70143 18.604 3.73343 18.574 3.76043 18.516C3.81943 18.487 3.86343 18.473 3.89143 18.473C3.89143 18.413 3.89143 18.373 3.89143 18.34V18.255C3.95143 18.255 3.99343 18.239 4.02243 18.212C4.02243 18.181 4.02243 18.153 4.02243 18.124C4.05043 18.096 4.08043 18.066 4.11143 18.036C4.11143 18.008 4.11143 17.977 4.11143 17.95C4.16943 17.922 4.21343 17.891 4.24343 17.863C4.24343 17.835 4.24343 17.804 4.24343 17.775C4.24343 17.745 4.24343 17.717 4.24343 17.687C4.29943 17.687 4.34343 17.673 4.37243 17.645C4.37243 17.617 4.37243 17.586 4.37243 17.558C4.40343 17.528 4.43143 17.497 4.46043 17.47C4.46043 17.44 4.46043 17.412 4.46043 17.382C4.51843 17.354 4.56243 17.323 4.59043 17.295C4.59043 17.267 4.59043 17.237 4.59043 17.209C4.62143 17.181 4.66443 17.151 4.72243 17.122C4.72243 17.091 4.72243 17.062 4.72243 17.033C4.75243 17.003 4.78143 16.976 4.80943 16.945C4.80943 16.918 4.80943 16.888 4.80943 16.86C4.80943 16.831 4.80943 16.803 4.80943 16.773C4.86843 16.744 4.91243 16.714 4.94143 16.686C4.94143 16.654 4.94143 16.626 4.94143 16.598V16.511C4.99843 16.481 5.04143 16.467 5.07143 16.467C5.07143 16.438 5.08543 16.394 5.11443 16.336L5.15843 16.248V16.203C5.15843 16.146 5.17243 16.116 5.20243 16.116C5.26043 16.06 5.28943 16.016 5.28943 15.987V15.856C5.34843 15.797 5.39043 15.77 5.42043 15.77C5.42043 15.711 5.42043 15.666 5.42043 15.637L5.46343 15.551L5.50743 15.506V15.42C5.50743 15.36 5.50743 15.318 5.50743 15.288C5.53543 15.288 5.56643 15.26 5.59443 15.2C5.62343 15.173 5.63643 15.142 5.63643 15.113V15.069C5.63643 15.041 5.63643 15.013 5.63643 14.983C5.66643 14.955 5.70943 14.939 5.76943 14.939C5.76943 14.911 5.76943 14.866 5.76943 14.809V14.59C5.70943 14.56 5.66643 14.517 5.63643 14.458V14.328C5.57843 14.298 5.53543 14.271 5.50743 14.24C5.50743 14.212 5.50743 14.182 5.50743 14.153C5.50743 14.125 5.50743 14.095 5.50743 14.066C5.47643 14.037 5.44743 14.007 5.42043 13.98C5.38943 13.98 5.34743 13.963 5.28943 13.933C5.28943 13.905 5.28943 13.875 5.28943 13.848C5.28943 13.819 5.28943 13.789 5.28943 13.76C5.26043 13.732 5.21643 13.688 5.15843 13.63V13.497C5.12943 13.469 5.10043 13.439 5.07143 13.41C5.04143 13.383 4.99743 13.337 4.94143 13.279C4.91243 13.279 4.86843 13.264 4.80943 13.236V13.06C4.78043 13.031 4.75243 12.988 4.72243 12.931V12.79C4.72243 12.732 4.72243 12.689 4.72243 12.658V12.44C4.72243 12.411 4.72243 12.38 4.72243 12.352C3.99343 12.352 3.28143 12.352 2.58143 12.352C2.58143 12.325 2.58143 12.294 2.58143 12.265C2.49443 12.237 2.42143 12.222 2.36143 12.222V12.18C2.33343 12.15 2.28943 12.136 2.23243 12.136C2.20243 12.107 2.17343 12.076 2.14543 12.048C2.11843 11.99 2.09043 11.96 2.06043 11.96C2.00243 11.93 1.95743 11.902 1.93143 11.871C1.90043 11.841 1.88543 11.799 1.88543 11.742C1.85743 11.742 1.82643 11.725 1.79843 11.698C1.79843 11.668 1.79843 11.64 1.79843 11.61C1.77143 11.583 1.72643 11.553 1.66743 11.523V11.48C1.63943 11.452 1.59443 11.421 1.53743 11.394C1.50843 11.394 1.46443 11.379 1.40643 11.352V11.263C1.40643 11.233 1.40643 11.189 1.40643 11.13L1.31643 11.043C1.25943 11.043 1.20143 11.028 1.14443 11C1.14443 10.97 1.14443 10.943 1.14443 10.914C1.11443 10.883 1.08443 10.855 1.05643 10.826C1.05643 10.798 1.05643 10.768 1.05643 10.739C1.05643 10.711 1.05643 10.68 1.05643 10.652H0.96943V10.564C0.96943 10.506 0.96943 10.462 0.96943 10.433V10.214C0.96943 10.156 0.96943 10.113 0.96943 10.083V9.99196C0.96943 9.96396 0.96943 9.93396 0.96943 9.90596V9.86196C0.96943 9.80396 0.96943 9.76096 0.96943 9.73196V9.64296C0.96943 9.61496 0.96943 9.58496 0.96943 9.55696C0.96943 9.52696 0.96943 9.49896 0.96943 9.46896C0.96943 9.43996 0.96943 9.40896 0.96943 9.38196V9.29396C0.96943 9.26496 0.96943 9.23396 0.96943 9.20696C0.96943 9.17696 0.96943 9.14796 0.96943 9.11896C0.96943 9.08996 0.96943 9.06096 0.96943 9.03196C0.96943 9.00296 0.96943 8.97496 0.96943 8.94496C0.96943 8.91796 0.96943 8.88696 0.96943 8.85696C0.96943 8.82996 0.96943 8.79896 0.96943 8.77196C0.96943 8.74196 0.96943 8.71296 0.96943 8.68396C0.96943 8.65596 0.96943 8.62596 0.96943 8.59596C0.96943 8.56796 0.96943 8.53996 0.96943 8.50896C0.96943 8.48096 0.96943 8.44996 0.96943 8.42196C0.96943 8.39296 0.96943 8.36296 0.96943 8.33496C0.96943 8.30496 0.96943 8.27696 0.96943 8.24896C0.96943 8.21796 0.96943 8.18996 0.96943 8.15996C0.96943 8.13296 0.96943 8.10296 0.96943 8.07396C0.96943 8.04396 0.96943 8.01296 0.96943 7.98496C0.96943 7.95596 0.96943 7.92796 0.96943 7.89896C0.96943 7.87096 0.96943 7.84096 0.96943 7.81196C0.96943 7.78296 0.96943 7.75396 0.96943 7.72596C0.96943 7.69696 0.96943 7.66596 0.96943 7.63896C0.96943 7.60896 0.96943 7.57896 0.96943 7.54996V7.45796C0.96943 7.42996 0.96943 7.39996 0.96943 7.36996C0.96943 7.34296 0.96943 7.31396 0.96943 7.28496C0.96943 7.25396 0.96943 7.22596 0.96943 7.19696V7.10796C0.96943 7.07996 0.96943 7.05096 0.96943 7.02096C0.96943 6.99396 0.96943 6.96096 0.96943 6.93396C0.96943 6.90596 0.96943 6.87496 0.96943 6.84796V6.75896C0.96943 6.72996 0.96943 6.70096 0.96943 6.67396C0.96943 6.64396 0.96943 6.59996 0.96943 6.54196V6.40996C0.96943 6.38196 0.96943 6.33796 0.96943 6.27796V6.14896C0.96943 6.11796 0.96943 6.08896 0.96943 6.05996H1.05543V6.01696C1.05543 5.98796 1.05543 5.95896 1.05543 5.93096C1.05543 5.90096 1.05543 5.87096 1.05543 5.84196C1.05543 5.81296 1.05543 5.78196 1.05543 5.75496C1.05543 5.72596 1.05543 5.69596 1.05543 5.66796C1.05543 5.63996 1.05543 5.60996 1.05543 5.57996C1.05543 5.55096 1.05543 5.52296 1.05543 5.49496V5.44896C1.08343 5.44896 1.11343 5.44896 1.14343 5.44896C1.14343 5.41996 1.14343 5.38896 1.14343 5.36096C1.23043 5.33096 1.31543 5.30296 1.40543 5.27296C1.43343 5.24296 1.44743 5.21596 1.44743 5.18796C1.47843 5.15796 1.49243 5.12796 1.49243 5.09896H1.53643C1.59343 5.09896 1.66643 5.08396 1.75343 5.05596C1.75343 5.02596 1.77043 4.99696 1.79743 4.96896V4.88196C1.82643 4.85196 1.85643 4.80896 1.88543 4.74996C1.94443 4.74996 2.01943 4.73396 2.10443 4.70596C2.13343 4.67796 2.16243 4.64596 2.19143 4.61896C2.21943 4.58996 2.23643 4.55996 2.23643 4.53096C2.29343 4.50196 2.36543 4.47396 2.45243 4.44596C2.45243 4.41496 2.48343 4.38596 2.54243 4.35696V4.31296L2.58443 4.26896C2.64243 4.26896 2.68743 4.25496 2.71543 4.22696V4.18096C2.77443 4.15296 2.83243 4.12296 2.89143 4.09396L2.93343 4.05096C2.99343 4.02196 3.03543 3.99296 3.06643 3.96396C3.12443 3.93396 3.18143 3.91996 3.24043 3.91996C3.24043 3.88996 3.25443 3.86096 3.28443 3.83196C3.34243 3.80296 3.40043 3.77396 3.45943 3.74396C3.48843 3.71496 3.53243 3.68596 3.59043 3.65796C3.61843 3.62796 3.63443 3.59996 3.63443 3.56996C3.72043 3.56996 3.80743 3.56996 3.89543 3.56996C3.89543 3.54296 3.89543 3.51196 3.89543 3.48296C3.95543 3.45396 3.99743 3.42396 4.02643 3.39696V3.35096C4.08443 3.32196 4.15943 3.29196 4.24743 3.26496C4.30343 3.23496 4.34743 3.22096 4.37643 3.22096C4.37643 3.19196 4.37643 3.16196 4.37643 3.13296V3.08896C4.43543 3.08896 4.47943 3.07396 4.50743 3.04696H4.55043V3.00296H4.59443V2.95796C4.59443 2.92896 4.59443 2.89796 4.59443 2.86996V2.73896C4.74043 2.73896 4.85743 2.75296 4.94543 2.78196C4.94543 2.75296 4.94543 2.72296 4.94543 2.69496C4.94543 2.66596 4.94543 2.63696 4.94543 2.60896C4.94543 2.57996 4.94543 2.54896 4.94543 2.51996C4.94543 2.49096 4.94543 2.46196 4.94543 2.43396V2.38996H4.98843C5.01743 2.36296 5.04543 2.34596 5.07543 2.34596C5.07543 2.31796 5.07543 2.28796 5.07543 2.25996H5.11843C5.14843 2.22996 5.16243 2.20196 5.16243 2.17196C5.16243 2.14296 5.17643 2.12796 5.20643 2.12796C5.20643 2.09996 5.20643 2.07096 5.20643 2.03996C5.49543 2.03996 5.80343 2.05696 6.12243 2.08496V2.12796C6.23843 2.15896 6.35643 2.17196 6.47243 2.17196V2.25996C6.47243 2.28796 6.47243 2.33196 6.47243 2.38996V2.47796C6.47243 2.50796 6.48743 2.52096 6.51643 2.52096C6.51643 2.58096 6.53043 2.62396 6.55943 2.65396L6.60543 2.73996V2.86996C6.60543 2.92896 6.60543 2.97296 6.60543 3.00296C6.60543 3.03096 6.60543 3.06096 6.60543 3.08896C12.5454 3.08896 18.4894 3.10496 24.4324 3.13296V3.08896C24.4324 3.06096 24.4324 3.03096 24.4324 3.00296C24.4324 2.97296 24.4324 2.92896 24.4324 2.86996V2.65296C24.4324 2.62296 24.4324 2.57996 24.4324 2.51996V2.38996C24.4324 2.33196 24.4324 2.28796 24.4324 2.25996V2.03996H24.4744C24.5044 2.03996 24.5334 2.02596 24.5634 1.99796ZM21.9404 14.8C21.9114 14.771 21.8834 14.741 21.8544 14.714C21.8544 14.683 21.8544 14.654 21.8544 14.623C21.8544 14.596 21.8544 14.567 21.8544 14.537C21.8264 14.508 21.7944 14.478 21.7674 14.449C21.7674 14.421 21.7674 14.391 21.7674 14.364C21.7674 14.333 21.7674 14.304 21.7674 14.276V14.189C21.7374 14.159 21.6934 14.131 21.6354 14.101V13.972C21.6064 13.972 21.5614 13.955 21.5044 13.925C21.5044 13.897 21.5044 13.867 21.5044 13.84C21.4754 13.811 21.4464 13.781 21.4164 13.752C21.3884 13.724 21.3584 13.693 21.3304 13.663C21.1264 13.663 20.9204 13.649 20.7174 13.622C19.9324 13.622 19.1454 13.622 18.3574 13.622L18.4034 13.663C18.4034 13.693 18.4034 13.724 18.4034 13.752V13.795C18.4034 13.825 18.4034 13.854 18.4034 13.884H18.4474V13.925L18.4894 13.972C18.4894 13.999 18.5044 14.013 18.5324 14.013C18.5324 14.042 18.5324 14.073 18.5324 14.101L18.5754 14.145C18.6064 14.174 18.6194 14.204 18.6194 14.232H18.6624C18.6624 14.263 18.6784 14.291 18.7074 14.32H18.7504C18.7504 14.349 18.7644 14.364 18.7934 14.364C18.8204 14.391 18.8504 14.421 18.8804 14.449V14.493C18.9094 14.522 18.9244 14.55 18.9244 14.58H19.0124C19.0124 14.607 19.0124 14.639 19.0124 14.668C19.0394 14.668 19.0704 14.668 19.0974 14.668L19.1434 14.713C19.1714 14.74 19.1874 14.77 19.1874 14.799H19.2284V14.886C19.2574 14.915 19.2884 14.928 19.3164 14.928C19.3464 14.928 19.3604 14.944 19.3604 14.972L19.4034 15.016V15.058H19.4474L19.4914 15.102C19.5194 15.131 19.5494 15.145 19.5784 15.145V15.189C19.5784 15.218 19.5934 15.233 19.6214 15.233H19.6654C19.6944 15.263 19.7244 15.276 19.7524 15.276C19.7804 15.276 19.8104 15.293 19.8404 15.32C19.8684 15.32 19.8984 15.334 19.9284 15.363V15.449L19.9704 15.494H20.0584C20.0884 15.524 20.1164 15.554 20.1454 15.582L20.1894 15.625C20.1894 15.653 20.1894 15.683 20.1894 15.713L20.1454 15.757C20.1164 15.784 20.1014 15.816 20.1014 15.843L20.0584 15.886V15.974H20.0144C20.0144 16.003 20.0144 16.032 20.0144 16.061C19.9854 16.061 19.9704 16.075 19.9704 16.103C19.9424 16.103 19.9284 16.12 19.9284 16.147H19.8824L19.8404 16.19H19.7974C19.6514 16.19 19.5344 16.19 19.4474 16.19C19.3894 16.19 19.3454 16.177 19.3154 16.147C19.2564 16.147 19.2134 16.147 19.1864 16.147C19.1564 16.12 19.1254 16.103 19.0954 16.103C19.0674 16.103 19.0374 16.103 19.0104 16.103C18.9814 16.075 18.9514 16.061 18.9224 16.061L18.8784 16.017V15.974C18.8484 15.974 18.8044 15.974 18.7484 15.974H18.6594C18.6304 15.946 18.5864 15.931 18.5294 15.931C18.5294 15.9 18.5144 15.886 18.4864 15.886L18.4444 15.843C18.4134 15.843 18.4004 15.828 18.4004 15.798C18.3714 15.798 18.3544 15.784 18.3544 15.757C18.3264 15.757 18.2814 15.757 18.2234 15.757L18.1804 15.713V15.668C18.1804 15.639 18.1674 15.625 18.1374 15.625L18.0954 15.582C18.0654 15.554 18.0354 15.539 18.0084 15.539C18.0084 15.51 17.9914 15.494 17.9644 15.494C17.9344 15.494 17.9194 15.48 17.9194 15.449C17.9194 15.422 17.9034 15.408 17.8754 15.408L17.8314 15.363V15.32C17.8314 15.293 17.8174 15.276 17.7884 15.276L17.7454 15.233C17.7164 15.205 17.6864 15.189 17.6574 15.189C17.6574 15.162 17.6434 15.145 17.6154 15.145C17.5854 15.145 17.5734 15.131 17.5734 15.102C17.5734 15.073 17.5584 15.058 17.5294 15.058L17.4854 15.016V14.972C17.4854 14.944 17.4694 14.928 17.4394 14.928C17.4124 14.928 17.3964 14.915 17.3964 14.886L17.3544 14.842C17.3244 14.814 17.2954 14.799 17.2674 14.799C17.2674 14.77 17.2504 14.757 17.2214 14.757C17.2214 14.727 17.2064 14.697 17.1784 14.669H17.1354V14.581L17.0914 14.537V14.494C17.0634 14.464 17.0334 14.45 17.0034 14.45V14.409C17.0034 14.379 16.9894 14.349 16.9614 14.32C16.9614 14.29 16.9454 14.276 16.9174 14.276C16.9174 14.247 16.9014 14.232 16.8714 14.232V14.19C16.8714 14.16 16.8714 14.132 16.8714 14.102L16.8294 14.059C16.8294 14.03 16.8294 14 16.8294 13.973V13.885L16.7854 13.841C16.7854 13.812 16.7714 13.782 16.7424 13.753V13.708C16.7424 13.681 16.7424 13.65 16.7424 13.623C16.7124 13.623 16.6834 13.623 16.6534 13.623L16.6114 13.664C16.5514 13.694 16.5074 13.725 16.4804 13.753V13.796C16.4524 13.826 16.4214 13.855 16.3924 13.885L16.3474 13.926C16.3194 13.956 16.3044 13.985 16.3044 14.013C16.2754 14.073 16.2334 14.117 16.1744 14.145C16.1744 14.204 16.1744 14.247 16.1744 14.276C16.1744 14.305 16.1594 14.349 16.1304 14.409C16.0734 14.436 16.0434 14.465 16.0434 14.494C16.0434 14.551 16.0434 14.596 16.0434 14.623C16.0434 14.654 16.0434 14.697 16.0434 14.757C16.0144 14.785 15.9844 14.828 15.9554 14.887C15.9274 14.916 15.8984 14.946 15.8694 14.974C15.8394 15.033 15.8254 15.076 15.8254 15.105C15.8254 15.134 15.7954 15.178 15.7374 15.237C15.7374 15.267 15.7224 15.31 15.6954 15.367C15.6954 15.396 15.6954 15.426 15.6954 15.453C15.6954 15.484 15.6954 15.528 15.6954 15.586C15.6664 15.615 15.6204 15.658 15.5654 15.718C15.5654 15.748 15.5654 15.79 15.5654 15.848C15.5344 15.877 15.5184 15.905 15.5184 15.936C15.4914 15.964 15.4474 16.009 15.3884 16.067C15.3884 16.095 15.3884 16.14 15.3884 16.196C15.3884 16.227 15.3884 16.271 15.3884 16.329C15.3594 16.329 15.3444 16.358 15.3444 16.415C15.3154 16.444 15.2714 16.49 15.2134 16.546C15.2134 16.577 15.2134 16.619 15.2134 16.679C17.3694 16.707 19.5104 16.737 21.6374 16.766C21.6374 16.737 21.6374 16.707 21.6374 16.679C21.6374 16.647 21.6374 16.619 21.6374 16.591C21.6374 16.562 21.6374 16.532 21.6374 16.504C21.6374 16.474 21.6374 16.445 21.6374 16.416C21.6954 16.388 21.7394 16.359 21.7694 16.33C21.7964 16.3 21.8284 16.272 21.8564 16.242V16.154C21.8854 16.127 21.9134 16.11 21.9424 16.11C21.9424 16.054 21.9424 16.01 21.9424 15.981V15.893C22.0014 15.893 22.0594 15.879 22.1174 15.85C22.1174 15.823 22.1174 15.791 22.1174 15.764C22.1174 15.734 22.1174 15.705 22.1174 15.675C22.1174 15.646 22.1174 15.617 22.1174 15.588C22.1464 15.56 22.1774 15.53 22.2054 15.5C22.2054 15.472 22.1904 15.442 22.1614 15.414C22.1334 15.385 22.1184 15.354 22.1184 15.326C22.1184 15.299 22.1184 15.268 22.1184 15.239C22.1184 15.211 22.1184 15.18 22.1184 15.15C22.0894 15.122 22.0744 15.092 22.0744 15.063C22.0474 15.035 22.0014 15.007 21.9434 14.977C21.9434 14.949 21.9434 14.919 21.9434 14.89C21.9404 14.856 21.9404 14.828 21.9404 14.8ZM6.34343 15.936V15.891H6.29943V15.936H6.34343Z" fill="#9FB1C9"/>
</g>
<defs>
<clipPath id="clip0_28409_24691">
<rect width="52.375" height="32" fill="white"/>
</clipPath>
</defs>
</svg>
