<svg width="84" height="33" viewBox="0 0 84 33" fill="none" xmlns="http://www.w3.org/2000/svg">
<g clip-path="url(#clip0_28409_24688)">
<path fill-rule="evenodd" clip-rule="evenodd" d="M78.0909 3.67863C78.0909 3.76363 78.1629 3.87763 78.3069 4.02063C78.4199 4.33463 78.5489 4.74863 78.6909 5.26163C78.7759 5.80363 78.8909 6.32963 79.0329 6.84463V8.21263C79.1469 8.29863 79.2189 8.41263 79.2459 8.55363C79.2759 8.72563 79.3329 8.89663 79.4169 9.06863H79.6739C79.8459 9.06863 79.9879 9.05363 80.1009 9.02663C80.1599 9.02663 80.2449 9.02663 80.3589 9.02663L82.7109 9.06863L82.7959 9.23863C82.7959 9.38063 82.8389 9.52263 82.9239 9.66563C83.0079 9.86463 83.0799 10.0806 83.1379 10.3086C83.1949 10.5646 83.1949 10.7936 83.1379 10.9926C83.0799 11.2216 82.9379 11.3766 82.7099 11.4626C82.4529 11.5756 82.1409 11.6486 81.7689 11.6756C81.4559 11.7336 81.2139 11.7616 81.0419 11.7616C81.0139 11.7616 80.8709 11.8046 80.6139 11.8896C80.4439 11.9186 80.2999 11.9606 80.1869 12.0176H79.9319C79.7869 12.0176 79.6169 11.9736 79.4169 11.8896C79.4169 12.1466 79.3749 12.3746 79.2909 12.5746C79.2319 12.8296 79.0469 13.0016 78.7339 13.0876C78.6189 13.0876 78.5349 13.1016 78.4779 13.1296C78.4489 13.1866 78.4199 13.2156 78.3909 13.2156L78.3079 13.2586V13.9846L78.0919 14.6696H77.9659C77.6809 14.6696 77.2519 14.6696 76.6809 14.6696C76.0539 14.6986 75.6269 14.5976 75.3979 14.3706C75.2849 14.3706 75.1849 14.4286 75.0999 14.5416L74.9699 14.6696H74.8849C74.6289 14.6986 74.3719 14.7986 74.1149 14.9686C73.8869 15.1406 73.7449 15.3096 73.6869 15.4816C73.6869 15.5666 73.6869 15.7816 73.6869 16.1236C73.6869 16.4356 73.7159 16.8216 73.7729 17.2776C73.7729 17.7606 73.7729 18.3456 73.7729 19.0306C73.7729 19.7716 73.7729 20.4696 73.7729 21.1246C73.7729 21.7816 73.7729 22.4076 73.7729 23.0066C73.7439 23.6056 73.7149 24.1056 73.6869 24.5046C73.6029 25.0756 73.5319 25.5296 73.4729 25.8716C73.3599 26.1846 73.2739 26.4426 73.2169 26.6426C73.1329 26.8126 73.0899 26.9696 73.0899 27.1136L72.9619 27.3266H72.7899C72.5619 27.3836 72.1769 27.4256 71.6359 27.4556C71.0939 27.4556 70.7079 27.3406 70.4809 27.1136V27.0276C70.3959 26.9136 70.2819 26.7846 70.1389 26.6426C69.9959 26.5276 69.9249 26.3136 69.9249 25.9996C69.8679 25.6016 69.8389 25.3446 69.8389 25.2296V25.0596L69.6679 24.9316C69.8119 23.1646 69.9119 21.6956 69.9669 20.5276C70.0539 19.4146 70.1099 18.5326 70.1389 17.8756C70.1959 17.2206 70.2669 16.7216 70.3529 16.3786C70.4099 16.0646 70.4519 15.8526 70.4809 15.7376C70.3959 15.7376 70.2959 15.6956 70.1809 15.6096C70.1249 15.5236 70.0389 15.4236 69.9249 15.3096L69.7099 15.0536C69.6529 15.0256 69.5969 14.9956 69.5399 14.9686C69.5119 14.9126 69.4549 14.8826 69.3679 14.8826C69.3679 14.7696 69.2839 14.6696 69.1119 14.5826C68.9129 14.4406 68.7839 14.3706 68.7269 14.3706C68.5849 14.3706 68.4859 14.3416 68.4279 14.2846C68.3419 14.2846 68.2999 14.2706 68.2999 14.2416C68.2709 14.2416 68.2429 14.2416 68.2149 14.2416L67.5729 14.3706C67.5459 14.3706 67.4869 14.3416 67.4019 14.2846C67.3179 14.2846 67.2599 14.2706 67.2309 14.2416C67.1469 14.2416 67.0749 14.2416 67.0179 14.2416C66.9899 14.2416 66.9189 14.2416 66.8049 14.2416C66.6909 14.2716 66.6039 14.2846 66.5479 14.2846C66.4039 14.3416 66.2629 14.3706 66.1209 14.3706H63.5139C63.5139 14.2846 63.5269 14.1556 63.5559 13.9846C63.5559 13.8706 63.5699 13.7276 63.5979 13.5576C63.5979 13.4436 63.5979 13.3436 63.5979 13.2586C63.3419 13.3726 62.9569 13.5986 62.4439 13.9426C61.9029 14.2276 61.5459 14.3706 61.3749 14.3706H59.6209C59.6789 14.5976 59.7489 14.9126 59.8349 15.3096C59.9209 15.7106 60.0059 16.1356 60.0919 16.5926C60.1489 17.1066 60.2339 17.6766 60.3479 18.3046C60.2339 18.3046 60.1489 18.3166 60.0919 18.3466L59.6209 18.6036C59.6209 18.6896 59.6939 19.0176 59.8349 19.5876C60.0059 20.1856 60.1919 20.9556 60.3909 21.8956C60.5629 22.8356 60.7759 23.8766 61.0339 25.0176C61.2619 26.2146 61.5329 27.3976 61.8469 28.5666C61.9779 29.1646 62.1139 29.7776 62.2529 30.4056C62.2739 30.5076 62.2949 30.6066 62.3159 30.7046C62.2449 30.7086 62.1749 30.7226 62.1029 30.7476C61.9889 30.7476 61.8899 30.7616 61.8029 30.7896C61.6889 30.8176 61.5899 30.8326 61.5029 30.8326C61.4459 30.8596 61.3759 30.8876 61.2899 30.9166C61.0619 30.9166 60.8339 30.9296 60.6059 30.9596C60.4919 30.9596 60.3909 30.9726 60.3069 31.0026C60.1929 31.0306 60.0929 31.0446 60.0069 31.0446C59.9489 31.0746 59.8799 31.1036 59.7939 31.1306C59.3659 31.1306 58.9239 31.1456 58.4679 31.1736C58.3549 31.1736 58.2539 31.1896 58.1699 31.2156C58.0549 31.2436 57.9549 31.2586 57.8699 31.2586C57.8119 31.2866 57.7409 31.3156 57.6549 31.3426C57.4129 31.3426 57.1709 31.3426 56.9289 31.3426L56.7159 30.4456C56.7119 30.4316 56.7119 30.4186 56.7159 30.4036C56.4279 29.0506 56.1269 27.7536 55.8169 26.5126C55.5329 25.1996 55.2479 24.0186 54.9629 22.9626C54.7619 21.9076 54.5779 21.0686 54.4059 20.4406C54.2339 19.8146 54.1489 19.4856 54.1489 19.4566H52.9949C52.6529 19.4856 52.3539 19.4986 52.0979 19.4986C51.8689 19.5266 51.6539 19.5416 51.4549 19.5416C51.1989 19.5416 51.0139 19.5996 50.8989 19.7136C50.6429 19.8266 50.4579 19.9686 50.3429 20.1406C50.1999 20.3386 50.0869 20.5106 50.0009 20.6526C49.9419 20.7956 49.8589 20.9236 49.7439 21.0366C49.6299 21.1526 49.5159 21.2536 49.4019 21.3366C49.2579 21.4226 48.9179 21.4936 48.3759 21.5516C47.7489 21.6376 47.1229 21.6796 46.4929 21.6796C45.7539 21.6796 45.0549 21.6796 44.3979 21.6796C43.7729 21.6796 43.3569 21.6076 43.1589 21.4666C42.8169 21.3796 42.4319 21.2376 42.0039 21.0366C41.5469 20.8096 41.2209 20.6246 41.0219 20.4836C40.4519 21.2796 40.1669 21.8236 40.1669 22.1086C40.2799 22.3626 40.3659 22.5486 40.4229 22.6626C40.4809 22.7776 40.5089 22.8786 40.5089 22.9626H40.6379L40.1669 23.4336C40.1379 23.4046 40.0939 23.3906 40.0379 23.3906C39.8949 23.3906 39.8109 23.4046 39.7819 23.4336C39.6669 23.5176 39.5409 23.7316 39.3969 24.0746C39.1979 24.4166 38.9559 24.8026 38.6709 25.2276C38.4419 25.6846 38.2559 26.1126 38.1139 26.5116C37.9419 26.8526 37.8579 27.0956 37.8579 27.2376V28.1786C37.9419 28.2646 37.9149 28.4066 37.7709 28.6076C37.5439 28.7776 37.2159 28.8356 36.7899 28.7776C36.6179 28.6946 36.2749 28.5366 35.7619 28.3086C35.2789 28.0216 34.7359 27.7086 34.1369 27.3676C33.5679 27.0526 33.0549 26.7536 32.5979 26.4686C32.0859 26.0966 31.8139 25.8426 31.7849 25.6986C31.7849 25.5856 31.8279 25.4276 31.9139 25.2276C31.9709 25.0866 32.1559 24.7436 32.4689 24.2026C32.7259 23.6606 33.1399 22.8776 33.7089 21.8496C34.3089 20.8516 35.0929 19.4976 36.0619 17.7866C36.0619 17.5316 35.9629 17.0746 35.7619 16.4196C35.6199 15.7636 35.1359 15.3066 34.3089 15.0506L32.5119 14.3666C32.1429 14.2806 31.8279 14.2236 31.5719 14.1956C31.3159 14.1386 31.0449 14.1106 30.7589 14.1106C30.5019 14.0526 30.1889 14.0106 29.8179 13.9816C29.3909 13.8986 28.9489 13.8546 28.4919 13.8546C28.0079 13.8246 27.5789 13.8246 27.2099 13.8546C26.7819 13.8546 26.4829 13.8986 26.3129 13.9816L4.20086 21.8086H4.11686C4.05886 21.8086 3.90186 21.8256 3.64686 21.8516C3.33186 21.9086 2.98986 21.9516 2.61886 21.9796C2.30486 21.9796 1.94986 21.9656 1.55086 21.9376C1.15186 21.8796 0.86586 21.7936 0.69586 21.6806C0.52386 21.4816 0.43886 21.2966 0.43886 21.1236V18.1306C0.43886 17.4186 0.43886 16.6776 0.43886 15.9066C0.43886 15.1656 0.36686 14.6106 0.22586 14.2386V12.1876C0.22586 11.9016 0.21186 11.6166 0.18286 11.3326C0.12486 11.0466 0.0978596 10.7746 0.0978596 10.5196C0.0128596 10.1486 -0.0161404 9.79363 0.0128596 9.45063C0.0128596 9.10863 0.19886 8.86563 0.56786 8.72363C0.59686 8.69563 0.88286 8.65363 1.42186 8.59563C1.93686 8.59563 2.52086 8.58063 3.17586 8.55263C3.86086 8.55263 4.58686 8.53963 5.35686 8.51063C6.06786 8.51063 6.68186 8.51063 7.19486 8.51063H22.7599C22.9589 8.42463 23.2599 8.34063 23.6579 8.25463C24.0569 8.11263 24.4419 8.01163 24.8129 7.95563C25.2389 7.81263 25.6399 7.69963 26.0099 7.61363C26.2959 7.49963 26.4799 7.41463 26.5659 7.35763L27.4639 6.71563C27.6629 6.62963 27.8349 6.52963 27.9779 6.41563C28.1469 6.38663 28.2759 6.34463 28.3599 6.28763C28.5309 6.14463 29.0879 6.00263 30.0289 5.85963C30.3129 5.85963 30.4859 5.83163 30.5429 5.77463C30.6849 5.77463 30.7849 5.74663 30.8419 5.69063C30.9839 5.60463 31.3399 5.26163 31.9109 4.66263C32.4239 4.09363 32.9229 3.56563 33.4069 3.08063C33.6909 2.88063 34.1199 2.82463 34.6899 2.90963C35.2599 2.96763 35.6879 3.02363 35.9729 3.08063C36.0579 3.08063 36.1449 3.06663 36.2289 3.03763C36.2859 3.03763 36.3299 3.02363 36.3559 2.99463C36.4419 2.99463 36.4999 3.00963 36.5279 3.03763C36.7269 3.15263 36.8699 3.22363 36.9569 3.25163H37.9809L38.2399 3.76363V5.56063H38.4099V4.49163H40.6339V3.93563H41.8299V4.49263H42.6429V3.93563H43.7539V4.49263H44.5249V3.93563H45.6789V4.49263H46.6199V3.93563H47.7319V4.49263H48.6719V3.93563H49.8269V4.49263H50.7679V3.93563H51.9229V4.49263H52.6489V3.93563H53.9309V4.49263H54.6159V3.93563H55.7709V4.49263H56.9679V5.56063H72.6619C72.9459 5.33263 73.3029 5.01963 73.7299 4.61963C74.1869 4.22063 74.4869 3.90863 74.6279 3.67863C74.6279 3.42263 74.6419 3.22363 74.6699 3.08063C74.6989 2.96763 74.7119 2.85163 74.7119 2.73863C74.8259 2.45363 74.9119 2.21063 74.9679 2.01163C75.1119 1.78363 75.3109 1.64063 75.5669 1.58563H75.9109C76.1659 1.46963 76.4219 1.39963 76.6789 1.36963C76.9079 1.36963 77.1219 1.54163 77.3209 1.88363C77.6349 2.28263 77.8479 2.68163 77.9639 3.08063C78.0489 3.33763 78.0909 3.53663 78.0909 3.67863ZM56.3259 5.09063H39.0949V5.56063H56.3259V5.09063ZM42.5579 19.1596C42.7869 19.3586 43.0569 19.4576 43.3709 19.4576H47.3459C47.6019 19.4576 47.8889 19.3576 48.2009 19.1596C48.3999 18.9606 48.5019 18.7456 48.5019 18.5166C48.5019 18.0896 48.3999 17.7606 48.2009 17.5346C47.8879 17.3646 47.6019 17.2786 47.3459 17.2786H43.3709C43.0569 17.2786 42.7869 17.3646 42.5579 17.5346C42.2729 17.7616 42.1299 18.0906 42.1299 18.5166C42.1299 18.7456 42.2719 18.9606 42.5579 19.1596ZM20.1939 12.9576C20.1939 12.2446 19.8519 11.8886 19.1669 11.8886H17.2869C17.0299 11.8886 16.8159 11.9726 16.6449 12.1456C16.4449 12.3466 16.3469 12.6166 16.3469 12.9576C16.3469 13.1856 16.4449 13.3726 16.6449 13.5146C16.8159 13.7126 17.0299 13.8146 17.2869 13.8146H19.1669C19.4809 13.8146 19.7369 13.7126 19.9369 13.5146C20.1079 13.3726 20.1939 13.1856 20.1939 12.9576ZM5.86786 11.1186C5.38386 11.0336 4.92886 10.9776 4.50086 10.9496C4.04386 10.9496 3.70086 10.9196 3.47386 10.8636C3.47386 11.2616 3.48886 11.7766 3.51586 12.4016C3.60186 13.0586 3.65886 13.7276 3.68686 14.4116C3.68686 15.0966 3.71486 15.7516 3.77186 16.3786C3.80086 16.9786 3.81686 17.3636 3.81686 17.5336C3.95786 17.6766 4.25786 17.8326 4.71286 18.0046C5.22586 18.1746 5.71086 18.2606 6.16786 18.2606C6.51086 18.2336 6.97986 18.1186 7.57986 17.9186C8.12186 17.7476 8.69086 17.5476 9.28986 17.3196C9.85986 17.0636 10.4299 16.8066 11.0009 16.5506C11.5139 16.2936 11.9119 16.0806 12.1969 15.9076C12.3959 15.6786 12.4949 15.4226 12.4949 15.1386C12.4949 14.8236 12.4109 14.3836 12.2399 13.8126C12.0679 13.2986 11.9109 12.8416 11.7699 12.4436C11.5409 12.4436 11.1419 12.3876 10.5719 12.2746C10.0589 12.1286 9.41786 11.9586 8.64786 11.7596C8.30686 11.6466 7.87886 11.5306 7.36586 11.4176C6.90886 11.2476 6.41086 11.1476 5.86786 11.1186Z" fill="#9FB1C9"/>
</g>
<defs>
<clipPath id="clip0_28409_24688">
<rect width="83.5" height="32" fill="white" transform="translate(0 0.133789)"/>
</clipPath>
</defs>
</svg>
