<svg width="70" height="32" viewBox="0 0 70 32" fill="none" xmlns="http://www.w3.org/2000/svg">
<g clip-path="url(#clip0_28409_24700)">
<path fill-rule="evenodd" clip-rule="evenodd" d="M69.335 6.57309C69.335 7.28709 69.293 7.86709 69.202 8.31209C69.171 8.61009 69.082 8.92209 68.933 9.24909C68.876 9.39809 68.817 9.53009 68.756 9.64909H54.886L54.707 9.51609L54.438 9.60509H43.778L43.511 9.78509L43.11 9.64909H38.606V8.84709H37.09V8.18009H36.153V9.74009L36.378 9.91909V10.6771L36.153 10.8561L36.064 12.3721H25.94C25.88 12.3721 25.821 12.4001 25.761 12.4611C25.612 12.5801 25.495 12.7421 25.403 12.9531C25.285 13.2781 24.691 14.7361 23.622 17.3231C23.471 17.5901 23.324 17.7531 23.174 17.8121C23.086 17.8721 22.847 17.9161 22.461 17.9461L17.823 18.1241C17.645 18.0351 17.423 17.9461 17.153 17.8581C16.678 17.6491 16.291 17.5291 15.993 17.5021C15.667 17.4421 15.443 17.4111 15.325 17.4111C15.205 17.4421 14.984 17.4851 14.658 17.5461C14.387 17.6341 14.122 17.6661 13.853 17.6341L13.54 17.5461L11.265 27.1791L11.176 28.2481L11.667 28.9621L2.07899 28.8731C2.07899 28.3091 2.10899 27.5811 2.16899 26.6891C2.34799 24.9031 2.62899 23.2101 3.01599 21.6031C3.43099 19.9681 3.96699 18.4361 4.62099 17.0091C4.64999 16.9221 4.85899 16.4871 5.24599 15.7161C5.42399 15.3301 5.52899 15.0611 5.55699 14.9141C5.64799 14.5581 5.57199 14.2731 5.33399 14.0661C5.15499 13.8871 4.77099 13.6941 4.17499 13.4871C3.57799 13.2781 3.19299 13.1461 3.01499 13.0861C2.77699 12.9961 2.65699 12.8781 2.65699 12.7291C2.62799 12.5211 2.64299 12.1781 2.70299 11.7031L2.79199 11.0351L1.14099 10.8571C1.02199 10.8571 0.91699 10.8261 0.82899 10.7661C0.62099 10.6181 0.53099 10.4261 0.55999 10.1881C0.61999 9.88909 0.81499 9.74109 1.14099 9.74109C1.31999 9.71009 1.48299 9.72609 1.63099 9.78709L1.85499 8.62409L3.19399 9.47209L3.77399 6.57309L4.71099 4.78909V4.03009L5.42499 4.43209L8.27899 4.47709L8.54799 4.69809H18.27V4.87809H23.71V4.74309H33.078V3.53809H35.307L35.574 3.85309V4.65609L35.886 4.61209L36.199 5.01109V5.72709H37.092V5.10209H38.43V3.80609H43.069L43.38 3.62909L43.781 3.80609H54.441L54.752 3.85209L55.066 3.72009H68.759L68.982 3.98609C69.101 4.25409 69.191 4.56709 69.25 4.92209C69.276 5.36809 69.307 5.91809 69.335 6.57309ZM23.353 12.4601L18.27 12.5051C17.764 13.0091 17.406 13.3821 17.2 13.6201C16.873 14.0361 16.694 14.2731 16.664 14.3341C16.456 14.6611 16.337 15.0321 16.31 15.4481C16.277 15.6561 16.31 15.9531 16.397 16.3401C16.456 16.5181 16.515 16.6701 16.575 16.7861L16.263 17.0091C16.115 16.8021 15.995 16.5491 15.907 16.2501C15.67 15.7161 15.565 15.2691 15.594 14.9141C15.654 14.3201 15.877 13.7681 16.264 13.2641C16.413 13.0251 16.576 12.8311 16.755 12.6831C16.547 12.7121 16.311 12.7721 16.04 12.8611C15.506 13.0401 15.119 13.2471 14.881 13.4861C14.554 13.8411 14.347 14.2291 14.257 14.6451C14.138 15.0911 14.167 15.5071 14.347 15.8931C14.524 16.2491 14.778 16.5491 15.104 16.7861C15.431 17.0251 15.817 17.1861 16.264 17.2771C16.532 17.3051 16.964 17.3221 17.557 17.3221C18.062 17.2911 18.39 17.3221 18.537 17.4101C18.746 17.4701 19.475 17.5011 20.724 17.5011C21.913 17.4701 22.567 17.4241 22.686 17.3661C22.833 17.2781 23.132 16.6101 23.578 15.3611L24.248 13.4861C24.248 13.3971 24.248 13.3051 24.248 13.2171C24.248 13.0391 24.217 12.8901 24.158 12.7711C24.038 12.6521 23.874 12.5641 23.667 12.5041L23.353 12.4601Z" fill="#9FB1C9"/>
</g>
<defs>
<clipPath id="clip0_28409_24700">
<rect width="69.25" height="32" fill="white" transform="translate(0.375)"/>
</clipPath>
</defs>
</svg>
