<svg width="98" height="33" viewBox="0 0 98 33" fill="none" xmlns="http://www.w3.org/2000/svg">
<g clip-path="url(#clip0_28409_24689)">
<path fill-rule="evenodd" clip-rule="evenodd" d="M97.598 8.83492C97.598 9.10892 97.586 9.38292 97.563 9.65892C97.517 10.0239 97.449 10.2999 97.357 10.4809C97.197 10.6419 96.831 10.7439 96.26 10.7899C95.664 10.8129 95.081 10.8239 94.51 10.8239V11.1679H94.613C94.705 11.1679 94.751 11.2249 94.751 11.3399C94.957 11.3399 95.241 11.3159 95.607 11.2699C96.064 11.2249 96.419 11.3039 96.67 11.5099C96.876 11.5789 97.037 11.8299 97.151 12.2649C97.288 12.6539 97.321 13.0429 97.254 13.4309C97.071 13.9799 96.683 14.3459 96.088 14.5279H71.673C71.535 14.5279 71.135 14.6549 70.472 14.9069C69.764 15.1339 68.745 15.2499 67.419 15.2499H67.008C66.322 15.2499 65.351 15.2499 64.094 15.2499C62.882 15.2499 61.532 15.2499 60.046 15.2499C58.583 15.2949 57.074 15.3169 55.519 15.3169C54.01 15.3169 52.594 15.3169 51.268 15.3169C49.987 15.3169 48.913 15.3169 48.044 15.3169C47.152 15.3169 46.661 15.2949 46.568 15.2499C46.295 15.1339 46.032 15.0549 45.78 15.0089C45.528 15.0089 45.254 15.0089 44.956 15.0089H43.722C43.562 14.9419 43.288 14.9069 42.899 14.9069C42.488 14.8839 42.064 14.8599 41.63 14.8389C41.219 14.8389 40.841 14.8389 40.498 14.8389C40.178 14.8389 39.962 14.8489 39.847 14.8719C39.687 14.8719 39.493 14.9859 39.264 15.2149C38.693 15.6039 38.282 15.7969 38.029 15.7969C37.938 15.7969 37.778 15.7299 37.55 15.5919C37.321 15.5239 37.012 15.4439 36.624 15.3529C36.282 15.2599 35.893 15.1809 35.457 15.1119C35.024 15.0449 34.761 15.0089 34.668 15.0089C34.439 15.0089 34.017 15.0089 33.4 15.0089C32.783 15.0549 32.382 15.1689 32.2 15.3529C32.062 15.3529 31.879 15.5459 31.651 15.9349C31.4 16.1879 31.102 16.4959 30.76 16.8629C30.439 17.2049 30.096 17.4229 29.731 17.5129H29.148C28.965 17.6279 28.828 17.6849 28.736 17.6849C28.668 17.7059 28.587 17.7179 28.496 17.7179C28.29 17.7179 27.948 17.7299 27.467 17.7519C27.011 17.7519 26.53 17.7749 26.028 17.8209C25.479 17.8429 24.999 17.8889 24.588 17.9589C24.154 18.0259 23.891 18.1169 23.799 18.2339C23.731 18.2779 23.615 18.5059 23.456 18.9179C23.272 19.3309 23.055 19.8329 22.803 20.4279C22.507 21.0229 22.199 21.6619 21.879 22.3489C21.557 22.9879 21.249 23.5819 20.953 24.1309C20.953 24.6119 20.987 24.9329 21.056 25.0919C21.101 25.2749 21.148 25.4239 21.193 25.5369L21.365 25.7089C21.411 25.8229 21.513 25.9259 21.674 26.0169C21.811 26.1089 21.88 26.2459 21.88 26.4279L21.741 26.6339C21.65 26.7259 21.491 26.7699 21.261 26.7699C21.01 26.8169 20.77 26.8389 20.541 26.8389C20.267 26.8389 19.958 26.8169 19.615 26.7699C19.226 26.6799 18.758 26.5659 18.21 26.4269C17.639 26.3359 17.089 26.2339 16.563 26.1189C16.083 25.9589 15.661 25.8099 15.294 25.6729C14.859 25.5819 14.631 25.4789 14.608 25.3639L14.505 25.2279V25.1929H14.471C14.333 25.1009 14.265 24.9399 14.265 24.7139V24.4729C14.288 24.3809 14.483 24.0379 14.849 23.4449C15.191 22.8499 15.557 22.1759 15.946 21.4229C16.335 20.6909 16.712 20.0049 17.076 19.3649C17.396 18.7479 17.58 18.3709 17.625 18.2339C17.625 18.0499 17.614 17.8089 17.591 17.5119C17.569 17.2609 17.476 17.0429 17.317 16.8619C17.02 16.7469 16.665 16.6669 16.254 16.6209C15.82 16.5519 15.5 16.5519 15.294 16.6209C14.837 16.6209 14.608 16.5869 14.608 16.5179H14.471C14.471 16.4249 14.483 16.3249 14.505 16.2089C14.505 16.1159 14.517 16.0369 14.541 15.9679C14.585 15.9229 14.608 15.8779 14.608 15.8319C14.517 15.8319 14.094 15.9109 13.339 16.0699C12.585 16.2089 11.784 16.3899 10.939 16.6199C10.094 16.8029 9.327 16.9969 8.641 17.2029C7.932 17.3629 7.556 17.4419 7.51 17.4419C7.418 17.4879 7.305 17.5909 7.167 17.7509C7.076 17.9109 6.893 18.1399 6.619 18.4379C6.458 18.6429 6.31 18.8839 6.173 19.1589C6.035 19.4559 5.91 19.7629 5.796 20.0839C5.659 20.3829 5.544 20.6339 5.453 20.8389C5.362 21.0679 5.292 21.2159 5.246 21.2849C5.178 21.3069 5.006 21.4339 4.732 21.6619C4.503 21.7989 4.104 21.9929 3.532 22.2459C2.938 22.5429 2.126 22.8859 1.097 23.2729H0.926L0.204 23.0339L0 10.1049L5.35 9.31492C5.532 9.29392 5.681 9.24692 5.795 9.17692C5.885 9.10892 5.967 9.02992 6.035 8.93792C6.126 8.84592 6.206 8.75592 6.275 8.66492L23.799 7.05192V7.25792C23.89 7.44192 23.993 7.60192 24.108 7.73892C24.199 7.87492 24.29 7.94392 24.381 7.94392C24.427 8.01192 24.472 8.04692 24.519 8.04692C24.587 8.04692 24.656 8.01292 24.725 7.94392L24.93 7.73892V7.25792H25.068C25.569 6.49692 25.935 5.97192 26.165 5.68092V5.61092H26.218C26.248 5.57192 26.277 5.53692 26.304 5.50792C26.311 5.49592 26.323 5.48592 26.337 5.47492C26.688 5.47492 27.036 5.47492 27.383 5.47492C27.431 5.51492 27.471 5.55992 27.503 5.61092H27.709V5.90192C27.897 6.07392 28.09 6.16092 28.292 6.16092L28.635 6.33192H29.733C30.098 6.33192 30.384 6.35392 30.591 6.39992C30.819 6.42292 30.934 6.51392 30.934 6.67492C31.07 6.67492 31.139 6.86692 31.139 7.25692V7.60092C31.161 7.60092 31.208 7.61192 31.277 7.63392C31.321 7.67992 31.356 7.70392 31.38 7.70392L31.483 7.73792V6.67592H43.725V5.98792H44.446V6.67592H46.228V6.91592C46.228 7.14392 46.264 7.37292 46.332 7.60192C46.423 7.82992 46.503 7.94492 46.571 7.94492H91.53C91.621 7.87592 91.781 7.72692 92.01 7.49892C92.169 7.26992 92.25 7.07692 92.25 6.91692L92.388 6.50492C92.388 6.34392 92.432 6.11592 92.525 5.81792C92.639 5.56692 92.776 5.44092 92.936 5.44092C93.05 5.44092 93.301 5.53192 93.69 5.71492C94.009 5.89892 94.364 6.10492 94.753 6.33192C95.116 6.56092 95.461 6.79992 95.781 7.05192C96.054 7.34992 96.238 7.57792 96.329 7.73992C96.445 7.82992 96.512 7.89892 96.535 7.94492C96.603 7.94492 96.65 7.97792 96.672 8.04792C96.741 8.07092 96.798 8.08192 96.844 8.08192H97.016L97.599 8.31992L97.598 8.83492ZM92.042 10.8239H90.979L90.808 10.5839H71.673C71.421 10.8129 71.295 11.0069 71.295 11.1679V11.3399C71.546 11.3849 72.381 11.4069 73.799 11.4069C75.237 11.4069 76.965 11.4069 78.978 11.4069C81.035 11.3609 83.207 11.3149 85.493 11.2689C87.847 11.2239 89.986 11.1899 91.906 11.1669H92.386C92.271 10.9389 92.156 10.8239 92.042 10.8239ZM28.189 6.05692C28.211 6.05692 28.234 6.06892 28.257 6.09192C28.28 6.09192 28.303 6.09192 28.325 6.09192C28.325 6.11392 28.338 6.12392 28.36 6.12492H28.189V6.05692ZM29.492 15.5909C29.492 15.2029 29.412 14.8939 29.252 14.6659C29.093 14.4589 28.841 14.3569 28.498 14.3569H25.995C25.698 14.3569 25.435 14.4589 25.206 14.6659C25.023 14.8939 24.931 15.2029 24.931 15.5909C24.931 15.8439 25.023 16.0699 25.206 16.2779C25.435 16.5069 25.698 16.6209 25.995 16.6209H28.498C28.842 16.6209 29.093 16.5069 29.252 16.2779C29.412 16.0699 29.492 15.8429 29.492 15.5909ZM25.582 6.12592C25.606 6.12492 25.63 6.11492 25.651 6.09292H25.686V6.12592H25.582Z" fill="#9FB1C9"/>
</g>
<defs>
<clipPath id="clip0_28409_24689">
<rect width="97.875" height="32" fill="white" transform="translate(0 0.133789)"/>
</clipPath>
</defs>
</svg>
